<svg width="126" height="106" viewBox="0 0 126 106" fill="none" xmlns="http://www.w3.org/2000/svg">
<path d="M57.2744 22.0505C57.2744 22.0505 58.3394 22.688 60.1394 22.583C61.9469 22.478 66.6194 21.098 71.2919 21.8405C75.9644 22.583 84.0344 25.448 85.5269 25.9805C87.0119 26.513 94.9769 30.338 96.9944 31.3955C99.0119 32.453 104.854 35.753 106.872 37.553C108.889 39.3605 113.667 42.2255 115.579 45.8405C117.492 49.4555 117.169 55.508 113.877 61.028C110.584 66.548 106.654 69.098 103.789 69.8405C100.924 70.583 93.4844 72.1805 92.4269 72.2855C91.3694 72.3905 86.7944 72.818 86.2694 72.713C85.7369 72.608 83.8244 71.648 83.8244 71.648C83.8244 71.648 87.0119 72.1805 90.1994 71.753C93.3869 71.3255 102.627 69.203 103.684 68.6705C104.742 68.138 110.479 63.2555 111.544 61.553C112.609 59.8505 114.627 54.758 114.522 50.5055C114.417 46.253 113.989 44.8955 112.009 43.2155C109.992 41.5055 106.339 38.078 104.854 37.2305C103.369 36.383 95.7194 31.388 91.2569 30.113C91.2569 30.113 82.6094 26.5505 81.0644 26.1305C78.9944 25.5755 74.8544 24.458 73.0994 24.0605C71.7869 23.7605 67.8794 23.2205 65.9819 23.213C64.7069 23.2055 60.8819 23.5205 60.0344 23.423C58.9994 23.303 57.4094 22.748 57.4094 22.748L57.2744 22.043V22.0505Z" fill="#92400E"/>
<path d="M56.7721 65.4899C56.5321 65.5724 52.9471 68.2799 51.9946 69.6299C51.0421 70.9874 51.2071 73.5374 51.3571 75.2024C51.5971 77.8274 51.6721 78.7874 53.1871 79.5824C53.1871 79.5824 58.7596 84.5174 72.3871 86.4299C86.0071 88.3424 102.897 85.3124 106.955 83.5649C111.012 81.8174 118.902 79.1849 120.732 77.7524C122.562 76.3199 122.885 75.5249 122.09 75.2024C121.295 74.8799 119.307 74.8049 117.312 75.7574C115.64 76.5524 113.412 75.7574 112.692 75.4424C112.692 75.4424 108.47 73.2899 107.277 73.8524C106.085 74.4074 105.687 75.3674 104.412 76.3199C103.107 77.3024 100.985 77.3549 98.9971 76.5599C98.9971 76.5599 90.3946 74.0924 89.2021 73.5299C88.0096 72.9749 79.5646 69.3074 74.7046 69.4649C69.8446 69.6224 68.5695 70.1849 67.7745 71.2199C66.9795 72.2549 68.6521 72.1724 69.3646 71.7749C70.0846 71.3774 70.8796 70.5824 77.4121 71.3774C83.9446 72.1724 91.1896 75.2024 93.8221 76.0799C96.4546 76.9574 100.91 78.7874 103.617 77.7524C106.325 76.7174 106.565 74.6474 108.395 75.0449C110.225 75.4424 113.495 77.5124 116.517 77.1149C119.547 76.7174 119.067 77.1149 117.792 77.9924C116.517 78.8699 113.015 79.9874 110.382 81.3374C108.537 82.2899 98.6746 84.7649 95.9671 85.1624C93.2596 85.5599 80.3521 86.6774 72.4696 84.6824C64.5871 82.6874 58.767 81.3374 55.0245 78.6299C55.0245 78.6299 53.6671 78.0749 53.2696 76.5599C52.8721 75.0449 52.6321 72.5774 52.7146 72.0974C52.7971 71.6174 53.1121 70.7399 53.9071 69.9449C54.7021 69.1499 58.1296 66.5174 58.3696 66.3599C58.6096 66.2024 56.7796 65.4824 56.7796 65.4824L56.7721 65.4899Z" fill="#92400E"/>
<path d="M106.715 68.3558C106.955 68.2733 107.99 68.4382 108.785 68.5132C109.58 68.5882 112.13 68.6707 113.803 67.2382C115.475 65.8057 117.065 65.4832 117.23 66.3607C117.395 67.2382 115.558 69.5482 113.563 71.2207C111.568 72.8932 109.258 72.6533 106.318 73.3733C103.918 73.9583 100.265 75.0458 99.1475 76.9583L97.79 76.7182C97.79 76.7182 101.375 74.0933 103.925 73.3733C106.475 72.6533 110.255 72.3457 112.048 71.0632C115.393 68.6707 116.27 66.7583 113.638 68.3558C111.013 69.9458 107.023 69.3907 105.913 68.9932C104.795 68.5957 106.708 68.3558 106.708 68.3558H106.715Z" fill="#92400E"/>
<path d="M66.5674 32.6707C66.5674 32.6707 67.1224 31.8757 67.5199 33.0682C67.9174 34.2607 70.5499 38.4082 70.3849 45.4957C70.2274 52.5832 69.7474 53.1457 69.3499 54.4207C69.3499 54.4207 66.2449 59.2282 59.4724 62.7082C52.6924 66.1882 54.0574 66.4507 51.1849 66.5332C50.4649 66.5557 49.8424 66.5707 49.2799 66.5332C47.5999 66.4507 46.5424 65.9707 45.5299 64.0582L44.1724 61.5082C44.1724 61.5082 44.9674 60.7882 45.2899 61.1932C45.6124 61.5982 46.5649 61.8307 47.5174 61.9132C48.4699 61.9957 49.5124 61.9132 49.9849 62.3107C50.4649 62.7082 50.7799 62.7082 51.1774 61.9132C51.5749 61.1182 56.1949 54.1057 56.7499 53.1532C57.3049 52.2007 57.5449 52.1182 57.3874 51.0832C57.2299 50.0482 55.6324 43.5157 55.5574 41.1232C55.4824 38.7307 55.2424 35.1457 55.7974 34.5907C56.3524 34.0357 56.3524 34.7482 56.1949 35.9482C56.0374 37.1482 56.5924 43.2757 57.1474 45.5107C57.7024 47.7382 58.2649 50.6107 58.5799 51.1657C58.8949 51.7207 58.8199 52.7557 58.4974 53.1607C58.1749 53.5657 52.9249 60.0082 51.8824 62.2432C51.8824 62.2432 51.0049 63.2782 50.4499 63.1957C49.8949 63.1132 46.3099 62.4232 45.9874 62.4232C45.6649 62.4232 45.7249 63.0307 46.5199 63.9082C47.3149 64.7857 48.3799 66.0832 51.0049 65.7382C51.8899 65.6257 52.5949 65.8207 53.6299 65.1832C54.6649 64.5457 58.2124 62.7832 60.0049 61.6807C62.6299 60.0607 67.7299 55.2307 68.0524 54.5107C68.3749 53.7907 70.1224 46.7032 67.3324 36.3457C67.3324 36.3457 66.6574 33.7732 66.5374 33.5557C66.4324 33.3682 66.2749 32.8357 66.5374 32.6782L66.5674 32.6707Z" fill="#92400E"/>
<path d="M51.8296 76.9581C51.8296 76.9581 49.2796 76.0056 48.9646 75.6831C48.6496 75.3606 47.7721 75.4431 47.7721 73.5306C47.7721 71.6181 47.3371 68.7531 47.6896 67.8756C47.8921 67.3806 48.7396 66.8556 49.2946 66.5256C49.8496 66.1956 51.1996 66.5256 51.1996 66.5256C51.1996 66.5256 49.2046 67.4031 48.8896 68.0406C48.5746 68.6781 48.7321 71.0256 48.7696 71.8206C48.8071 72.6156 48.8071 74.5281 49.4896 74.7681C50.1646 75.0081 51.8821 75.4881 51.8821 75.4881L51.8446 76.9581H51.8296Z" fill="#92400E"/>
<path d="M50.2097 32.2508C50.2097 32.2508 50.0522 34.7483 48.6197 35.9183C47.1872 37.0883 42.9871 39.6908 42.5146 41.2808L43.0996 41.8658C43.0996 41.8658 44.7422 39.5858 46.7672 38.3108C48.5972 37.1558 49.8497 36.2933 50.3747 35.0183C50.9072 33.7433 50.9597 32.1533 50.9597 32.1533L50.2172 32.2583L50.2097 32.2508Z" fill="#92400E"/>
<path d="M40.5501 58.3724C40.7601 58.3199 43.1001 57.0449 43.8426 56.1449C44.5851 55.2449 47.0826 50.3024 48.2001 48.9224C49.3176 47.5424 49.4226 47.4374 50.0601 47.2199C50.6976 47.0024 52.8726 47.8049 53.5626 48.4949C54.2526 49.1849 54.3051 50.6174 53.5101 52.0499C52.7151 53.4824 53.7726 53.1149 52.6101 54.8624C51.4401 56.6174 46.4526 59.2724 46.1826 59.7449C45.9126 60.2174 43.2051 63.2474 42.6276 63.6749C42.0426 64.1024 38.6976 63.6749 37.8501 62.6099C37.8501 62.6099 38.2776 61.6574 38.4351 61.5449C38.5926 61.4324 41.8851 63.2999 42.4701 62.9249C43.0551 62.5499 44.0601 60.8024 44.4351 60.2174C44.8101 59.6324 49.4301 56.5499 49.9026 55.9724C50.3826 55.3874 51.9201 52.4174 52.2426 51.8849C52.5651 51.3524 53.1951 49.5449 52.4001 49.0199C51.6051 48.4949 50.3826 47.4824 49.5351 48.8099C48.6876 50.1374 45.6051 55.6574 44.8626 56.5124C44.1201 57.3599 40.9851 58.9049 40.2426 59.2199L40.5576 58.3724H40.5501Z" fill="#92400E"/>
<path d="M57.8894 18.1128C56.9669 10.9503 55.2344 5.74534 50.6069 3.60784C47.9969 2.40034 44.8694 2.20534 42.0419 2.56534C40.4969 2.76034 38.8319 3.07534 37.4894 3.90784C36.8519 4.30534 36.2669 4.84534 36.0194 5.57284C35.9069 5.90284 35.9969 6.50284 35.7644 6.75784C35.4719 7.08784 34.5869 7.04285 34.1669 7.21535C31.9619 8.10035 30.6344 11.0853 30.1394 13.2003C29.4644 16.0728 29.7119 18.9903 31.0619 21.6978C33.0869 25.7403 36.3794 25.6278 36.3794 25.6278C36.5444 25.6278 37.2719 26.6178 37.3919 26.7453C38.3069 27.6828 39.3044 28.5378 40.3619 29.3028C43.5194 31.5753 47.5994 32.8728 51.5219 32.6253C51.5219 32.6253 54.5819 32.2803 55.9169 29.6778C57.2444 27.0753 58.8044 25.2828 57.8819 18.1203L57.8894 18.1128ZM38.5919 6.09035C38.6519 5.85785 42.5219 4.93535 43.7894 5.04785C45.0644 5.16035 48.0044 5.04785 49.8569 5.79785C51.7094 6.54785 52.0544 7.53034 52.0544 7.53034C49.1069 5.56534 44.5994 6.78034 42.5744 7.35784C40.5494 7.93534 38.7044 6.66784 38.7044 6.66784C38.7044 6.66784 38.5319 6.32285 38.5919 6.09035ZM37.3769 7.99534C37.8119 7.82284 39.2294 8.68534 39.2294 8.68534C41.3669 9.60784 48.0119 8.10784 50.2694 8.28034C52.5194 8.45284 55.8719 12.8478 54.3119 11.6328C52.7519 10.4178 47.4944 11.1678 43.2194 11.8053C38.9444 12.4428 37.4444 9.20284 37.2644 8.97034C36.8594 8.45284 37.0919 8.10034 37.3769 7.98784V7.99534ZM31.5944 14.2953C31.9994 12.0378 33.3269 10.1328 34.4294 9.61534C34.4294 9.61534 35.4119 9.27034 35.3519 9.78784C35.2919 10.3053 34.4294 11.1753 33.8519 11.9253C33.2744 12.6753 31.6544 14.8128 31.6544 16.6653C31.6544 16.6653 31.1894 16.5528 31.5944 14.2953ZM32.3444 20.5953C32.2319 20.0178 31.0694 18.5703 33.0944 14.5878C33.0944 14.5878 34.3094 12.7353 35.3519 11.7003C36.3944 10.6653 36.3944 11.1828 36.3944 11.1828C36.3944 11.1828 36.3944 12.9153 35.5844 14.3628C34.7744 15.8103 32.3519 19.2753 33.3344 21.7053C34.3169 24.1353 32.4644 21.1878 32.3519 20.6103L32.3444 20.5953ZM53.0369 31.2903C50.6069 32.5053 45.2969 31.8678 42.9269 30.3078C40.5569 28.7478 38.1344 27.1128 36.9194 25.3353C36.2819 24.4128 35.0669 23.7753 34.5494 21.6978C34.1144 19.9428 34.3769 19.0428 35.8769 16.4403C37.3769 13.8378 38.0144 13.6653 38.1269 12.5703C38.1269 12.5703 41.2469 13.7853 44.7119 12.9753C48.1769 12.1653 52.9769 11.4753 54.4169 12.9753C55.8644 14.4753 56.7569 17.6103 57.1619 21.3678C57.5669 25.1253 55.4519 30.0828 53.0294 31.2978L53.0369 31.2903Z" fill="#92400E"/>
<path d="M50.9595 21.6153C50.877 21.0978 50.8845 20.5578 50.9595 20.1678C51.312 18.3078 52.2795 15.8553 54.537 16.6128C54.882 16.7253 55.812 18.1127 54.882 20.7152C54.5595 21.6302 54.012 22.9953 52.977 23.3328C51.717 23.7378 51.132 22.7103 50.9595 21.6228V21.6153Z" fill="#92400E"/>
<path d="M39.0498 27.7654C39.0498 27.7654 39.1623 26.8954 41.1273 26.5504C43.0923 26.2054 44.3598 26.6104 44.3073 27.7054C44.2548 28.8004 42.7473 30.1354 42.2823 30.3079C41.8173 30.4804 39.0498 27.7654 39.0498 27.7654Z" fill="#92400E"/>
<path d="M46.0472 18.9751C46.0472 18.9751 45.3572 18.8026 45.5822 17.7001C45.8147 16.6051 47.3147 15.5026 48.4697 15.0976C49.6247 14.6926 50.3822 15.4801 50.0822 15.6751C49.6997 15.9226 48.4997 16.1326 47.8097 16.6501C47.3747 16.9726 46.9097 17.5426 46.6172 18.0151C46.4447 18.2926 46.3547 18.9676 46.0472 18.9676V18.9751Z" fill="#92400E"/>
<path d="M47.3819 19.2755C47.2244 19.0805 47.3369 18.6905 47.6294 18.413C48.1919 17.8955 48.9269 17.5055 49.2794 17.3705C49.6319 17.2355 49.7969 17.588 49.5419 18.1955C49.3094 18.743 48.5144 19.223 47.9594 19.3655C47.6669 19.4405 47.4794 19.388 47.3894 19.2755H47.3819Z" fill="#92400E"/>
<path d="M37.9701 23.3999C38.0151 23.2724 37.6701 22.9649 38.2701 22.0574C38.8776 21.1499 40.1301 20.2799 41.0451 20.0174C41.9526 19.7549 43.0401 19.7999 43.4751 20.5799C43.9101 21.3599 45.1626 23.1824 45.5151 23.5724C45.8676 23.9624 46.9476 25.2599 47.2926 25.0424C47.6376 24.8249 47.9826 24.3524 48.4176 24.2174C48.8526 24.0824 49.0701 24.1274 48.8076 24.5174C48.5451 24.9074 47.4201 26.1674 46.7676 26.2049C46.1151 26.2424 45.1176 24.7349 44.5551 23.9549C43.9926 23.1749 42.8226 21.0974 42.0426 21.0524C41.2626 21.0074 40.0626 21.6899 39.6576 22.2674C39.0501 23.1374 38.5776 23.7374 38.2701 23.5649L37.9701 23.3924V23.3999Z" fill="#92400E"/>
<path d="M40.5651 23.1383C40.5651 23.1383 41.0827 22.4483 41.5177 22.1858C41.9527 21.9233 42.5602 21.9683 42.5977 22.5308C42.6352 23.0933 41.5176 23.8283 41.0376 23.9183C40.5576 24.0083 40.3027 23.7008 40.5577 23.1383H40.5651Z" fill="#92400E"/>
<path d="M49.0178 27.3453C49.0178 27.3453 49.4528 26.6553 50.0153 26.5653C50.5778 26.4753 51.0128 26.2203 51.0578 26.9103C51.1028 27.6003 50.0153 29.0328 49.2353 29.0328C48.4553 29.0328 48.4103 27.9903 49.0178 27.3453Z" fill="#92400E"/>
<path d="M36.8599 44.2207C37.0999 43.9057 37.8949 40.7932 39.4099 40.3957C40.9249 39.9982 42.5149 40.4782 43.7149 41.7532C44.9149 43.0282 45.4699 42.4732 46.1074 42.2332C46.7449 41.9932 50.0074 39.2032 55.7449 38.9707C55.7449 38.9707 56.9374 47.4907 57.3349 48.6907C57.7324 49.8832 58.3699 52.2757 57.8899 52.9132C57.4099 53.5507 51.7549 61.5982 51.7549 61.5982L51.0349 62.6332C51.0349 62.6332 49.4449 62.8732 48.4849 62.3932C47.5249 61.9132 44.1799 61.5157 44.1799 61.5157C44.1799 61.5157 45.2974 59.7232 46.2124 59.1682C47.1274 58.6132 50.7124 56.3032 51.0724 55.8232C51.4324 55.3432 53.1799 51.5182 53.3449 50.7232C53.5099 49.9282 52.3474 48.0532 51.1549 47.8132C49.9624 47.5732 49.3249 48.0532 48.7624 49.0057C48.2074 49.9582 44.3449 56.2957 43.7449 56.7307C43.1449 57.1657 40.9549 58.6057 40.6399 58.6807C40.3249 58.7557 39.8449 58.3207 39.8824 58.0807C39.9199 57.8407 41.1574 54.6532 42.0349 49.2007C42.9124 43.7407 41.1199 43.0282 39.9649 43.3057C38.8099 43.5832 38.4124 44.0257 38.4124 44.0257L36.8599 44.2282V44.2207Z" fill="#92400E"/>
<path d="M55.3402 64.7701C55.2277 64.8226 57.3352 65.9625 59.7577 66.72C62.1802 67.4775 68.3977 69.4275 74.9302 67.875C81.4627 66.3225 85.0477 64.3275 87.1177 59.67C88.0177 57.645 88.1902 55.3425 88.0552 53.1525C87.9577 51.4875 87.7327 49.785 87.1702 48.21C86.3302 45.8475 84.5002 44.5875 82.4602 43.305C80.5177 42.09 78.4702 41.0175 76.3327 40.1775C74.0752 39.285 71.5927 38.55 69.1402 38.7225C69.1402 38.7225 69.6577 46.6875 69.6202 48.12C69.5827 49.5525 69.2602 53.34 68.5477 54.69C67.8277 56.0475 64.3627 59.0325 63.6877 59.4675C63.0127 59.9025 55.6852 64.605 55.3252 64.7625L55.3402 64.7701Z" fill="#92400E"/>
<path d="M39.9653 43.3055C39.9653 43.3055 35.5853 44.2205 33.3503 45.818C31.1153 47.4155 26.1053 50.8355 26.0228 60.0005C25.9403 69.1655 27.5378 74.258 25.9403 78.398C24.3503 82.538 22.4378 86.2055 24.3503 89.948C26.2628 93.6905 28.2503 94.328 28.1753 93.4505C28.0253 91.808 26.6603 89.753 27.7028 88.148C28.1528 87.458 29.0003 87.188 29.7878 86.948C31.6403 86.378 33.5303 85.703 34.9178 84.3605C36.5828 82.7405 37.3028 80.363 37.4528 78.0455C37.6103 75.728 37.2728 73.4105 37.1528 71.093C36.9503 67.103 37.4903 62.8731 39.8828 59.6631C40.4978 58.8381 41.2628 58.0055 41.2703 56.9705C38.7503 57.503 36.8978 59.783 36.1253 62.2355C35.3528 64.688 35.4728 67.328 35.6003 69.893C35.7353 72.6605 35.8553 75.4355 35.6978 78.203C35.6603 78.9005 35.5478 80.2355 35.2928 80.888C34.7528 82.2605 33.7253 82.943 32.9528 83.4905C31.1003 84.8105 29.4653 84.6305 27.7178 86.108C26.6753 86.993 26.5628 87.6755 26.4503 89.0256C26.3903 89.7606 26.2103 90.8256 26.4953 91.5381C26.4953 91.5381 24.9053 90.3455 24.8228 88.0355C24.7403 85.7255 24.8678 83.5956 26.6528 79.673C28.2428 76.1705 27.6878 71.5505 27.5303 68.603C27.3728 65.6555 26.9528 55.0131 30.9578 50.1231C34.5428 45.7431 36.3728 44.8656 42.7478 44.7081C42.7478 44.7081 41.8703 42.638 39.9578 43.313L39.9653 43.3055Z" fill="#92400E"/>
<path d="M42.7549 46.3727C42.4399 46.3727 37.2574 47.5652 34.2349 50.5952C31.2124 53.6252 29.2174 57.0452 29.1349 63.4202C29.0524 69.7952 31.0474 74.3327 29.1349 77.9177C27.2224 81.5027 23.6374 83.4152 24.7549 89.5502C25.1749 91.8827 27.3049 92.7377 27.3049 92.4152C27.3049 92.0927 24.9949 89.7902 27.1474 84.4502C29.2999 79.1102 31.3699 80.3852 31.6099 74.9702C31.8499 69.5552 29.8549 63.5777 31.2949 58.7177C32.7274 53.8577 37.5049 48.7577 43.5649 47.7227L42.7699 46.3652L42.7549 46.3727Z" fill="#92400E"/>
<path d="M42.8297 50.835C42.8297 50.835 37.8947 51.555 35.8997 54.5025C33.9047 57.45 32.3147 61.035 32.7947 66.2925C33.2747 71.55 33.1922 77.6025 31.9997 79.6725C30.8072 81.7425 27.1397 84.45 26.5847 87.96C26.2547 90.0225 27.4847 86.1825 29.3972 84.9825C31.3097 83.79 33.7547 82.2975 33.9122 76.725C34.0697 71.1525 32.7947 62.7825 34.8647 59.1975C36.9347 55.6125 40.2047 53.22 42.9122 52.7475L42.8297 50.835Z" fill="#92400E"/>
<path d="M86.9148 56.2651C87.2448 56.0776 90.8448 54.9451 92.2248 54.9376C93.6123 54.9301 92.1723 55.5301 91.7448 55.6501C91.1073 55.8301 87.4698 57.3676 86.8998 57.8626C86.3298 58.3576 86.8998 56.2651 86.8998 56.2651H86.9148Z" fill="#92400E"/>
<path d="M89.9827 18.7433C89.9827 18.7433 89.8027 18.7433 91.5652 18.4883C93.5977 18.1883 94.7527 17.7908 94.7677 16.6508C94.7827 15.6908 94.9477 12.1733 95.3302 13.0283C95.7127 13.8833 95.7277 17.2508 97.0627 17.5358C98.3977 17.8208 99.9052 17.7833 99.9052 18.1208C99.9052 18.6758 97.1677 17.9558 96.7627 21.1358C96.4877 23.2808 96.1977 24.3533 95.8927 24.3533C95.3452 24.3533 95.1577 19.8983 94.2052 19.6133C93.2527 19.3283 89.9827 19.3358 89.9902 18.7358L89.9827 18.7433Z" fill="#92400E"/>
<path d="M97.4672 49.2378C97.5422 49.2678 97.4147 50.9178 97.5872 51.0678C97.7597 51.2178 98.8697 49.9653 99.0572 49.9803C99.2897 50.0028 101.637 51.0828 101.75 50.7978C101.885 50.4453 100.812 48.8478 100.722 48.6603C100.632 48.4728 101.735 47.3853 101.907 47.0178C101.907 47.0178 102.17 46.3803 99.7997 47.1228C99.7997 47.1228 98.9372 45.4353 98.6447 45.2403C98.3522 45.0453 97.6397 47.3403 97.6022 47.4753C97.5647 47.6103 95.8097 47.8428 95.6372 48.1128C95.4647 48.3828 96.4622 48.8703 97.4597 49.2303L97.4672 49.2378Z" fill="#92400E"/>
<path d="M42.4245 69.48C43.002 69.93 43.1295 70.83 42.627 71.55C41.862 72.6375 40.377 71.6325 40.257 70.845C40.137 70.08 40.7145 69.195 41.517 69.1875C41.8845 69.1875 42.1995 69.2925 42.432 69.48H42.4245Z" fill="#92400E"/>
<path d="M80.6066 28.7033C80.9591 28.5683 81.3266 28.6808 81.4991 29.2958C81.6941 29.9933 80.9441 30.4058 80.3516 30.2783C79.3691 30.0608 79.9466 28.9508 80.6066 28.7033Z" fill="#92400E"/>
<path d="M75.9412 33.8852C76.4512 33.3152 77.4337 33.0827 78.0187 34.0052C78.8212 35.2652 77.2462 36.0752 76.3387 35.6402C75.3937 35.1902 75.4762 34.4027 75.9412 33.8852Z" fill="#92400E"/>
<path d="M72.229 27.3303C72.7465 26.8878 73.7515 27.3228 74.0815 27.8853C74.794 29.1003 73.4515 29.5128 73.0465 29.4903C72.3415 29.4528 71.794 28.3878 71.974 27.7578C72.0265 27.5703 72.1165 27.4353 72.229 27.3378V27.3303Z" fill="#92400E"/>
<path d="M82.1518 34.8224C82.1518 34.8224 82.8118 34.275 83.2543 35.07C83.6968 35.865 82.6843 36.2549 82.2118 36.1124C81.7393 35.9699 81.4393 35.3999 82.1518 34.8224Z" fill="#92400E"/>
<path d="M108.297 31.0579C107.787 31.2904 107.217 31.1629 106.902 30.2554C106.542 29.2204 107.629 28.5304 108.529 28.6729C110.029 28.9054 109.264 30.6229 108.297 31.0654V31.0579Z" fill="#92400E"/>
<path d="M121.002 32.3096C120.267 33.0296 118.715 32.467 118.167 31.657C116.975 29.902 118.962 29.1521 119.57 29.1446C120.627 29.1371 121.557 30.6821 121.347 31.6496C121.287 31.9346 121.167 32.1521 121.002 32.3021V32.3096Z" fill="#92400E"/>
<path d="M105.387 22.0124C105.387 22.0124 104.442 22.8974 103.707 21.7499C102.965 20.6024 104.457 19.9124 105.177 20.0849C105.897 20.2574 106.4 21.0824 105.395 22.0124H105.387Z" fill="#92400E"/>
<path d="M105.905 52.4852C106.37 52.4627 106.745 52.1552 106.632 51.3677C106.512 50.4752 105.447 50.3702 104.84 50.8052C103.82 51.5402 105.027 52.5152 105.905 52.4777V52.4852Z" fill="#92400E"/>
<path d="M97.002 58.1697C97.812 58.4247 98.7495 57.4347 98.8545 56.6322C99.0795 54.8922 97.332 55.0797 96.882 55.3047C96.0945 55.6947 95.9895 57.1872 96.507 57.8172C96.657 58.0047 96.8295 58.1172 97.002 58.1697Z" fill="#92400E"/>
<path d="M104.667 44.73C104.667 44.73 105.694 45.03 105.814 43.905C105.934 42.78 104.577 42.825 104.104 43.2225C103.632 43.62 103.572 44.415 104.667 44.73Z" fill="#92400E"/>
<path d="M13.8795 52.485C13.677 52.8375 13.7295 53.2575 14.3595 53.55C15.0795 53.88 15.657 53.145 15.6195 52.485C15.5595 51.3825 14.262 51.8175 13.8795 52.485Z" fill="#92400E"/>
<path d="M14.0749 65.4301C13.3699 65.8876 12.9499 66.9001 13.8349 67.6876C15.0574 68.7751 16.2049 67.2226 15.8974 66.1651C15.5749 65.0626 14.7124 65.0176 14.0749 65.4301Z" fill="#92400E"/>
<path d="M20.9076 41.9025C20.3376 42.3825 20.6302 43.545 21.1777 43.995C22.3627 44.9775 23.0451 43.5976 23.0901 43.1551C23.1726 42.3901 22.1151 41.61 21.4026 41.6925C21.1926 41.715 21.0276 41.7901 20.9076 41.8951V41.9025Z" fill="#92400E"/>
<path d="M20.2171 65.3625C20.2171 65.3625 19.512 65.985 20.292 66.6C21.072 67.215 21.672 66.1875 21.6045 65.655C21.537 65.1225 20.967 64.7025 20.2245 65.3625H20.2171Z" fill="#92400E"/>
<path d="M6.39474 47.0625C6.05724 47.0625 5.65973 46.1175 5.62973 45.78C5.62973 45.72 6.42473 39.615 1.31723 39.9375C1.06973 39.9525 0.934728 39.6225 0.912228 39.375C0.889728 39.1275 1.01724 38.8875 1.22724 38.76C1.42224 38.64 7.10724 39.825 6.06474 27.69C6.03474 27.3225 6.36473 27.03 6.72473 27.0225C7.12973 27.06 7.36973 27.315 7.39223 27.6825C7.88723 35.6775 5.45723 38.8875 12.7997 39.5175C13.0847 39.54 13.2722 39.825 13.2947 40.11C13.3172 40.395 13.1597 40.6575 12.8972 40.77C12.8447 40.7925 6.55974 39.8175 7.06224 46.44C7.08474 46.785 6.75473 47.055 6.40973 47.0625C6.40973 47.0625 6.40224 47.0625 6.39474 47.0625Z" fill="#92400E"/>
<path d="M19.3324 18.7278C19.3324 18.7278 20.9374 19.5228 21.3799 19.5153C21.3799 19.5153 21.6874 19.5453 21.6274 19.2603C21.5674 18.9753 21.0349 17.2878 20.9149 17.0853C20.9149 17.0853 22.9924 14.8728 22.9999 14.7903C23.0074 14.7078 23.2174 14.4753 22.8424 14.3403C22.5649 14.2428 19.7374 15.0528 19.7374 15.0528C19.7374 15.0528 17.9149 12.9303 17.7424 12.7503C17.5699 12.5703 17.2774 12.5778 17.1724 12.8703C17.0674 13.1628 17.0074 15.4728 17.0074 15.4728C17.0074 15.4728 14.4799 15.8028 14.2849 15.9228C14.0899 16.0503 14.0599 16.2678 14.2324 16.3953C14.4049 16.5228 16.6699 17.7303 16.6699 17.7303L16.3174 20.9928C16.3174 20.9928 16.3999 21.7353 16.9999 21.1878C17.5999 20.6403 19.3249 18.7278 19.3249 18.7278H19.3324Z" fill="#92400E"/>
<path d="M51.2826 90.4206C51.6876 90.7206 51.8301 91.2156 51.2601 91.8531C50.6076 92.5806 49.6026 92.0331 49.3176 91.2681C48.8526 90.0006 50.5251 89.8507 51.2826 90.4132V90.4206Z" fill="#92400E"/>
<path d="M46.76 79.9655C47.6375 80.228 47.87 81.683 47.48 82.4555C46.6325 84.143 45.185 82.9205 44.915 82.4555C44.45 81.6305 45.2525 80.2355 46.1 79.988C46.3475 79.913 46.5725 79.913 46.76 79.973V79.9655Z" fill="#92400E"/>
<path d="M45.4926 96.6082C45.4926 96.6082 46.5951 96.9607 46.0176 98.0332C45.4401 99.1057 44.2626 98.2432 44.0826 97.6132C43.9026 96.9832 44.3301 96.2257 45.4926 96.6082Z" fill="#92400E"/>
<path d="M62.3668 13.4556C62.0368 13.4781 61.7443 13.2906 61.7593 12.7206C61.7743 12.0756 62.5169 11.9106 62.9894 12.1731C63.7769 12.6081 62.9893 13.4106 62.3668 13.4556Z" fill="#92400E"/>
<path d="M69.1774 16.7626C68.6224 17.0101 67.8724 16.3801 67.7374 15.8176C67.4374 14.6026 68.6899 14.5876 69.0349 14.7076C69.6274 14.9176 69.8224 15.9751 69.5074 16.4626C69.4099 16.6051 69.3049 16.7026 69.1849 16.7551L69.1774 16.7626Z" fill="#92400E"/>
<path d="M62.6072 7.83034C62.6072 7.83034 61.9022 8.13034 61.7222 7.33534C61.5422 6.54034 62.5171 6.46534 62.8771 6.70534C63.2371 6.94534 63.3571 7.50784 62.5996 7.82284L62.6072 7.83034Z" fill="#92400E"/>
<path d="M70.415 3.97556C70.415 3.97556 71.9375 3.09056 72.3725 3.07556C72.3725 3.07556 72.6725 3.03056 72.635 3.30806C72.5975 3.58556 72.185 5.28055 72.08 5.48305C72.08 5.48305 74.2625 7.51556 74.27 7.59806C74.2775 7.68056 74.51 7.89056 74.1425 8.04806C73.88 8.16056 71.0525 7.54555 71.0525 7.54555C71.0525 7.54555 69.4025 9.74306 69.2525 9.93056C69.1025 10.1181 68.81 10.1256 68.69 9.84806C68.57 9.57056 68.36 7.30556 68.36 7.30556C68.36 7.30556 65.8625 7.14806 65.66 7.03556C65.4575 6.92306 65.42 6.71306 65.5775 6.57806C65.735 6.44306 67.88 5.10805 67.88 5.10805L67.325 1.93556C67.325 1.93556 67.3625 1.20056 67.985 1.70306C68.6075 2.19806 70.4225 3.96806 70.4225 3.96806L70.415 3.97556Z" fill="#92400E"/>
<path d="M76.7373 11.625C78.1248 11.9775 79.5048 12.345 80.8923 12.7275C81.6573 12.945 82.5348 12.8325 83.3898 12.7725C84.2373 12.72 85.0773 12.7275 85.7598 13.3575" fill="#92400E"/>
<path d="M76.3326 11.49C76.4001 11.28 76.6251 11.16 76.8426 11.2125C78.2226 11.565 79.6251 11.94 81.0051 12.3225C81.5901 12.4875 82.2651 12.435 82.9851 12.3825L83.3526 12.3525C84.2676 12.3 85.2276 12.3075 86.0376 13.05C86.2101 13.2075 86.2251 13.4775 86.0601 13.6575C85.9026 13.83 85.6326 13.845 85.4526 13.68C84.8901 13.1625 84.1851 13.155 83.3976 13.2075L83.0376 13.2375C82.2801 13.2975 81.4926 13.3575 80.7576 13.1475C79.3851 12.765 77.9901 12.3975 76.6176 12.045C76.3851 11.985 76.2501 11.7525 76.3101 11.5275C76.3101 11.52 76.3101 11.505 76.3176 11.4975L76.3326 11.49Z" fill="#92400E"/>
<path d="M78.8599 5.58111C80.6974 5.19111 86.5174 4.94362 88.3999 5.04862L78.8599 5.58111Z" fill="#92400E"/>
<path d="M78.4549 5.44584C78.4999 5.31084 78.6199 5.19833 78.7699 5.16083C80.8774 4.71083 86.6824 4.52333 88.4224 4.62083C88.6549 4.63583 88.8349 4.83834 88.8274 5.07084C88.8124 5.30334 88.6099 5.48333 88.3774 5.47583C86.7124 5.37833 80.9824 5.56583 78.9499 5.99333C78.7174 6.04583 78.4924 5.89583 78.4399 5.66333C78.4249 5.58833 78.4324 5.50583 78.4549 5.43833V5.44584Z" fill="#92400E"/>
<path d="M76.9321 2.85055C78.0721 2.82805 79.1071 2.20554 80.2021 1.85304C81.3721 1.47804 82.6246 1.50805 83.8696 1.61305" fill="#92400E"/>
<path d="M76.5277 2.71539C76.5802 2.55039 76.7377 2.43039 76.9252 2.42289C77.6302 2.40789 78.3127 2.13038 79.0327 1.83788C79.3702 1.70288 79.7152 1.56038 80.0752 1.44038C81.3352 1.04288 82.6627 1.08038 83.9077 1.17788C84.1402 1.20038 84.3202 1.40288 84.2977 1.63538C84.2752 1.86788 84.0727 2.04788 83.8402 2.02538C82.6777 1.93538 81.4552 1.89788 80.3377 2.25038C80.0152 2.35538 79.6927 2.48288 79.3552 2.62538C78.5977 2.93288 77.8102 3.25538 76.9477 3.27038C76.7152 3.27038 76.5127 3.09038 76.5127 2.85038C76.5127 2.79788 76.5127 2.75288 76.5352 2.70038L76.5277 2.71539Z" fill="#92400E"/>
<path d="M90.2074 45.8858C90.2074 45.8858 90.1924 45.8858 90.1849 45.8858C89.9674 45.8708 89.7874 45.6984 89.7724 45.4809C89.7724 45.4359 89.4799 41.2284 87.0499 40.1559C86.7574 40.0284 86.7199 39.7958 86.7199 39.7058C86.7124 39.3758 86.9824 39.2409 87.3049 39.0834C88.1224 38.6784 89.9824 37.7559 90.3724 34.5609C90.3874 34.1784 90.4324 33.9383 90.4324 33.9308C90.4774 33.7058 90.6799 33.5558 90.9124 33.5858C91.1374 33.6158 91.3024 33.8184 91.2874 34.0434C91.2724 34.2834 91.2499 34.5158 91.2199 34.7333C91.1899 35.9183 91.5499 38.4083 94.8199 39.3458C94.9924 39.3983 95.1124 39.5408 95.1349 39.7208C95.1499 39.9008 95.0599 40.0658 94.9024 40.1483C94.8649 40.1633 91.2349 42.0534 90.6349 45.5259C90.5974 45.7359 90.4174 45.8858 90.2074 45.8858Z" fill="#92400E"/>
<path d="M58.8497 91.2304C58.8497 91.3054 58.9247 91.8903 58.9697 92.2503C58.9847 92.3703 59.1347 92.4303 59.2247 92.3478L59.9747 91.7103L61.3097 92.0853C61.4522 92.1228 61.5872 91.9803 61.5347 91.8453L61.1522 90.8403L61.4672 90.2479C61.5572 90.0754 61.4147 89.8728 61.2197 89.9028L60.4172 90.0453L59.7647 88.9878C59.6897 88.8678 59.5097 88.8754 59.4422 89.0029L58.8872 90.1653C58.8872 90.1653 57.6647 90.3453 57.6197 90.4953C57.5672 90.6678 58.8572 91.2304 58.8572 91.2304H58.8497Z" fill="#92400E"/>
<path d="M77.9669 20.9999C77.9669 21.1049 78.0794 21.1724 78.1694 21.1124C78.3269 21.0074 78.5144 20.8724 78.5594 20.8424C78.6194 20.8049 79.3169 21.1724 79.6394 21.3449C79.6994 21.3824 79.7744 21.3224 79.7594 21.2549L79.5494 20.2799L80.3219 19.5149C80.3669 19.4699 80.3369 19.3874 80.2694 19.3874L79.2719 19.3424L78.9269 18.4499C78.8969 18.3749 78.7919 18.3674 78.7469 18.4349L78.1394 19.4999L77.2169 19.4549C77.1119 19.4549 77.0594 19.5749 77.1344 19.6499L77.9969 20.4149L77.9744 21.0149L77.9669 20.9999Z" fill="#92400E"/>
<path d="M36.4545 87.5705C36.537 87.608 36.5445 88.1855 36.642 88.223C36.7395 88.2605 37.0095 87.8105 37.122 87.728C37.2345 87.6455 38.187 88.0056 38.3145 87.9981C38.442 87.9906 37.917 87.3455 37.8645 87.1955C37.812 87.0455 38.292 86.5506 38.3595 86.3556C38.427 86.1606 37.3995 86.6405 37.3995 86.6405C37.3995 86.6405 37.0695 85.8231 37.0395 85.7481C37.0095 85.6731 36.672 86.4831 36.597 86.6631C36.522 86.8431 35.622 86.918 35.5695 86.978C35.517 87.038 35.547 87.1355 36.447 87.5555L36.4545 87.5705Z" fill="#92400E"/>
<path d="M18.2296 76.7708C18.2821 76.7933 18.1921 78.0083 18.3196 78.1133C18.4471 78.2183 19.2646 77.3033 19.3996 77.3108C19.5721 77.3258 21.2971 78.1208 21.3721 77.9108C21.4696 77.6558 20.6896 76.4783 20.6146 76.3433C20.5396 76.2083 21.3571 75.4058 21.4846 75.1358C21.4846 75.1358 21.6721 74.6633 19.9396 75.2108C19.9396 75.2108 19.3021 73.9733 19.0921 73.8308C18.8821 73.6883 18.3571 75.3758 18.3271 75.4733C18.2971 75.5708 17.0071 75.7433 16.8871 75.9458C16.7671 76.1483 17.4946 76.5008 18.2296 76.7708Z" fill="#92400E"/>
<path d="M22.1675 53.7303C22.2275 53.8203 22.6925 54.5328 22.9775 54.9753C23.075 55.1253 22.9625 55.3203 22.7825 55.3203L21.365 55.3052L20.225 56.9553C20.0975 57.1353 19.8275 57.0978 19.7525 56.8878L19.25 55.4178L18.35 55.0502C18.0875 54.9452 18.0575 54.5778 18.305 54.4353L19.325 53.8503L19.0775 52.0727C19.0475 51.8627 19.2575 51.7052 19.4525 51.7952L21.14 52.5677C21.14 52.5677 22.6625 51.6378 22.8575 51.7578C23.0825 51.9003 22.1675 53.7152 22.1675 53.7152V53.7303Z" fill="#92400E"/>
<path d="M35.4127 96.8103C36.8227 95.6628 38.2251 92.7978 37.4451 92.6178C36.6726 92.4378 34.1377 94.5528 33.5902 94.0953C33.0427 93.6378 32.1277 89.8278 31.3627 89.5728C30.6052 89.3178 30.0352 91.0653 29.6602 92.6928C29.2852 94.3203 29.3677 95.7303 29.3677 95.7303C27.8602 95.5428 24.9952 95.5353 24.8002 96.3903C24.6052 97.2453 28.4377 99.0303 29.0377 98.9253C29.6377 98.8203 29.0376 98.9253 28.4001 102.045C27.7626 105.165 28.7301 105.555 28.7301 105.555C29.1951 106.358 29.7427 105.053 30.2077 103.688C30.6726 102.323 31.1751 100.643 31.6326 100.418C32.0901 100.193 35.4502 102.285 36.6202 102.555C37.7827 102.825 37.7526 101.918 37.7751 101.108C37.7976 100.298 35.4202 96.8028 35.4202 96.8028L35.4127 96.8103ZM36.1326 100.043C38.0751 102.248 33.5827 99.7428 32.7952 99.2703C32.0077 98.7978 31.5051 98.8428 30.6726 99.9603C29.8401 101.078 29.4351 104.25 29.1951 102.81C29.1951 102.81 29.5702 99.7878 30.0727 99.0078C30.5752 98.2278 27.7252 97.5003 28.1977 97.2303C28.6702 96.9603 31.0927 97.4403 31.1602 96.8028C31.2277 96.1653 30.8226 94.0278 31.3327 94.6353C31.8426 95.2428 32.2177 96.8028 33.3652 96.0903C34.5127 95.3778 35.5852 94.9728 33.9952 96.8928C33.9952 96.8928 34.1827 97.8453 36.1252 100.05L36.1326 100.043Z" fill="#92400E"/>
<path d="M115.76 14.6108C115.513 14.6108 115.228 14.5658 114.883 14.4608C113.345 13.9958 113.263 12.5633 113.233 12.0233C113.233 11.9633 113.233 11.9108 113.225 11.8808C113.165 11.7008 113.263 11.5133 113.443 11.4533C113.623 11.3933 113.825 11.4983 113.885 11.6783C113.915 11.7608 113.915 11.8508 113.923 11.9858C113.968 12.7583 114.14 13.5158 115.085 13.8083C115.82 14.0333 116.113 13.9133 116.683 13.6808C117.14 13.4933 117.77 13.2383 118.843 13.0808C120.478 12.8483 120.575 12.1958 120.725 11.2058C120.815 10.6358 120.913 9.99084 121.348 9.37584C122.413 7.86084 122.398 6.35334 121.288 4.89084C121.175 4.74084 121.205 4.52334 121.355 4.41084C121.505 4.29834 121.723 4.32834 121.835 4.47834C123.125 6.18084 123.148 8.01083 121.91 9.77333C121.573 10.2533 121.49 10.7933 121.408 11.3108C121.25 12.3158 121.078 13.4483 118.94 13.7633C117.95 13.9058 117.388 14.1383 116.938 14.3183C116.548 14.4758 116.21 14.6183 115.76 14.6183V14.6108Z" fill="#92400E"/>
<path d="M118.01 11.3705C117.928 11.3705 117.845 11.3405 117.778 11.2805C117.635 11.153 117.628 10.9355 117.763 10.793C117.763 10.793 118.393 10.103 118.88 9.10547C119.353 8.13047 119.038 6.57047 118.468 5.76797C118.048 5.18297 117.17 4.72548 116.645 4.44798C116.338 4.29048 116.188 4.20797 116.09 4.11797C115.955 3.98297 115.948 3.76547 116.083 3.63047C116.218 3.49547 116.428 3.48797 116.57 3.62297C116.615 3.66047 116.81 3.76547 116.968 3.84797C117.545 4.14797 118.52 4.65797 119.03 5.37797C119.728 6.35297 120.08 8.20547 119.503 9.41297C118.97 10.508 118.303 11.2355 118.273 11.2655C118.205 11.3405 118.115 11.378 118.018 11.378L118.01 11.3705Z" fill="#92400E"/>
<path d="M109.153 13.1631C108.883 13.1631 108.613 13.1331 108.343 13.0581C106.993 12.7131 105.815 11.5281 105.47 10.1706C105.245 9.26307 105.508 6.89307 106.175 6.07557C108.32 3.42807 110.735 4.38807 112.505 5.08557C113.195 5.36307 113.848 5.61057 114.298 5.58057C115.115 5.50557 115.925 5.97807 116.413 6.78807C116.878 7.57557 116.9 8.46807 116.473 9.12057C116.075 9.72807 115.13 10.3806 112.895 10.0881C112.708 10.0656 112.573 9.89308 112.603 9.69808C112.625 9.51058 112.798 9.38308 112.993 9.40558C114.455 9.60058 115.49 9.36808 115.903 8.73808C116.24 8.22808 116.083 7.57557 115.828 7.14057C115.558 6.68307 115.025 6.21807 114.365 6.26307C113.75 6.30807 113.06 6.03807 112.258 5.72307C110.518 5.03307 108.545 4.25308 106.723 6.51058C106.243 7.09558 105.958 9.21807 106.153 10.0056C106.43 11.1081 107.428 12.1131 108.523 12.3906C109.22 12.5706 110.263 12.5406 111.298 11.4231C111.425 11.2806 111.643 11.2731 111.785 11.4006C111.928 11.5281 111.935 11.7456 111.808 11.8881C111.035 12.7281 110.12 13.1631 109.16 13.1631H109.153Z" fill="#92400E"/>
<path d="M113.87 2.61836C113.772 2.61836 113.682 2.58086 113.615 2.50586C113.375 2.23586 112.602 1.53837 111.942 1.48587C110.292 1.36587 109.407 2.04087 109.4 2.04837C109.25 2.16837 109.032 2.14586 108.92 1.99586C108.8 1.84586 108.822 1.63586 108.972 1.51586C109.017 1.47836 110.052 0.653364 112.002 0.803364C113.082 0.885864 114.095 2.00337 114.14 2.04837C114.267 2.19087 114.252 2.40836 114.117 2.53586C114.05 2.59586 113.967 2.62586 113.885 2.62586L113.87 2.61836Z" fill="#92400E"/>
<path d="M119.196 3.66036C119.008 3.66036 118.851 3.50286 118.851 3.31536V3.22536C118.873 2.62536 118.783 1.88287 117.951 1.50787C116.803 0.982866 115.506 1.11037 115.491 1.11037C115.303 1.13287 115.131 0.990364 115.116 0.802864C115.093 0.615364 115.236 0.442864 115.423 0.427864C115.483 0.427864 116.923 0.285364 118.236 0.885364C119.136 1.29786 119.578 2.09286 119.541 3.25536V3.33036C119.541 3.51786 119.383 3.67537 119.196 3.67537V3.66036Z" fill="#92400E"/>
<path d="M105.291 4.17847C105.111 4.17847 104.961 4.03596 104.946 3.85596C104.856 2.51346 106.596 1.58346 106.671 1.54596C106.836 1.45596 107.046 1.52346 107.136 1.68846C107.226 1.85346 107.158 2.06347 106.993 2.15347C106.603 2.36347 105.591 3.06846 105.636 3.81096C105.651 3.99846 105.501 4.16347 105.313 4.17847C105.313 4.17847 105.298 4.17847 105.291 4.17847Z" fill="#92400E"/>
<path d="M104.443 12.9675C104.443 12.9675 104.39 12.9675 104.36 12.96C103.018 12.6375 102.171 10.665 102.343 9.18752C102.493 7.88252 103.213 6.06003 103.243 5.98503C103.31 5.80503 103.513 5.72252 103.693 5.79002C103.873 5.85752 103.956 6.06002 103.888 6.24002C103.888 6.25502 103.168 8.05502 103.033 9.27002C102.905 10.41 103.58 12.0675 104.533 12.3C104.72 12.345 104.833 12.5325 104.788 12.72C104.75 12.8775 104.608 12.9825 104.451 12.9825L104.443 12.9675Z" fill="#92400E"/>
<path d="M100.978 12.2178C100.978 12.2178 100.925 12.2178 100.895 12.2103C100.355 12.0828 99.7403 11.1078 99.3953 9.84028C98.9753 8.28778 100.198 7.32028 100.25 7.28278C100.4 7.17028 100.618 7.19278 100.73 7.34278C100.843 7.49278 100.82 7.71028 100.67 7.82278C100.625 7.86028 99.7628 8.55778 100.055 9.66028C100.4 10.9203 100.918 11.4903 101.053 11.5428C101.24 11.5878 101.345 11.7753 101.3 11.9553C101.263 12.1128 101.12 12.2178 100.963 12.2178H100.978Z" fill="#92400E"/>
<path d="M122.255 13.1099C122.12 13.1099 121.992 13.0274 121.94 12.8999C121.865 12.7274 121.947 12.5249 122.127 12.4499C122.517 12.2849 123.612 11.7074 123.92 11.0024C124.325 10.0799 124.4 8.45242 124.4 8.43742C124.407 8.24992 124.572 8.11492 124.76 8.10742C124.947 8.11492 125.097 8.27993 125.09 8.46743C125.09 8.54243 125.007 10.2449 124.55 11.2874C124.062 12.3899 122.457 13.0649 122.39 13.0949C122.345 13.1099 122.3 13.1174 122.255 13.1174V13.1099Z" fill="#92400E"/>
<path d="M108.073 9.39822C107.93 9.39822 107.803 9.30822 107.75 9.17322C107.338 8.03322 107.398 7.20822 107.923 6.72072C109.16 5.56572 112.528 7.01322 112.91 7.17822C113.083 7.25322 113.165 7.45572 113.083 7.63572C113 7.81572 112.805 7.89072 112.625 7.80822C111.35 7.24572 109.078 6.58572 108.388 7.22322C108.013 7.57572 108.185 8.35572 108.388 8.94072C108.455 9.12072 108.358 9.31572 108.178 9.38322C108.14 9.39822 108.103 9.40572 108.058 9.40572L108.073 9.39822Z" fill="#92400E"/>
<path d="M26.66 31.147C26.66 31.147 26.585 31.147 26.5475 31.132C26.375 31.072 26.2775 30.8845 26.3225 30.712C26.3675 30.427 26.2625 28.3195 24.515 27.6745C22.745 27.022 21.905 27.457 20.8325 28.0045C20.66 28.087 20.4575 28.027 20.3675 27.8545C20.2775 27.682 20.345 27.4795 20.5175 27.3895C21.59 26.842 22.7 26.272 24.7475 27.0295C26.9825 27.8545 27.1025 30.5245 26.975 30.9145C26.93 31.057 26.795 31.147 26.645 31.147H26.66Z" fill="#92400E"/>
<path d="M25.3028 35.4819C25.0478 35.4819 24.8003 35.4369 24.5978 35.3394C24.4253 35.2569 24.3578 35.0469 24.4403 34.8744C24.5228 34.7019 24.7328 34.6345 24.9053 34.717C25.1453 34.837 25.7378 34.8144 26.3978 34.5444C27.1328 34.2444 27.6728 33.757 27.8528 33.2395C28.0328 32.722 28.0178 31.432 27.9953 30.9745C27.9878 30.787 28.1303 30.622 28.3253 30.6145C28.4978 30.592 28.6778 30.7495 28.6853 30.9445C28.6928 31.1245 28.7603 32.722 28.5053 33.457C28.2653 34.1695 27.5903 34.7919 26.6603 35.1744C26.2628 35.3394 25.7603 35.467 25.3028 35.467V35.4819Z" fill="#92400E"/>
<path d="M22.43 32.2202C21.6725 32.2202 20.765 31.9052 19.6925 31.2602C19.5575 31.1777 19.415 31.1027 19.2725 31.0202C18.35 30.5177 17.3 29.9402 17.51 28.1627C17.615 27.2477 17.96 26.5877 18.53 26.1902C19.355 25.6202 20.3375 25.8452 20.375 25.8527C20.5625 25.8977 20.675 26.0852 20.63 26.2652C20.585 26.4527 20.3975 26.5652 20.2175 26.5202C20.2025 26.5202 19.49 26.3552 18.92 26.7602C18.5225 27.0377 18.275 27.5402 18.1925 28.2452C18.035 29.5652 18.725 29.9402 19.6025 30.4202C19.7525 30.5027 19.9025 30.5852 20.045 30.6677C21.2375 31.3802 22.19 31.6577 22.865 31.4777C24.35 31.0877 23.96 29.5202 23.945 29.4527C23.9 29.2652 24.005 29.0777 24.1925 29.0327C24.38 28.9877 24.5675 29.0927 24.6125 29.2802C24.815 30.0752 24.7475 31.6952 23.0375 32.1377C22.85 32.1902 22.6475 32.2127 22.4375 32.2127L22.43 32.2202Z" fill="#92400E"/>
<path d="M22.7751 34.3943C22.7151 34.3943 22.6626 34.3943 22.6026 34.3943C19.5951 34.1843 18.9351 33.1492 18.3426 32.2417L18.1926 32.0168C18.0876 31.8593 18.1326 31.6418 18.2901 31.5368C18.4476 31.4318 18.6651 31.4768 18.7701 31.6343L18.9276 31.8743C19.4751 32.7293 19.9926 33.5318 22.6551 33.7118C24.4101 33.8393 25.3776 31.3043 25.3926 31.2743C25.4601 31.0943 25.6626 31.0043 25.8351 31.0793C26.0151 31.1468 26.1051 31.3493 26.0376 31.5218C25.9926 31.6418 24.9126 34.4018 22.7826 34.4018L22.7751 34.3943Z" fill="#92400E"/>
<path d="M27.6953 29.3998C27.5228 29.3998 27.3728 29.2723 27.3503 29.0923C27.3503 29.0698 27.1103 26.9998 25.9703 26.1448C24.8378 25.2898 22.6553 25.9948 21.7403 26.5573C21.5753 26.6548 21.3653 26.6098 21.2678 26.4448C21.1703 26.2798 21.2153 26.0698 21.3803 25.9723C22.3703 25.3648 24.8903 24.4723 26.3903 25.5898C27.7703 26.6248 28.0253 28.9198 28.0403 29.0173C28.0628 29.2048 27.9203 29.3773 27.7328 29.3998C27.7178 29.3998 27.7103 29.3998 27.6953 29.3998Z" fill="#92400E"/>
<path d="M20.4351 35.7752C19.2951 35.7752 15.2601 35.5877 14.8476 32.9327C14.8401 32.8727 14.8176 32.8127 14.7876 32.7377C14.5626 32.1452 14.5551 31.6577 16.3251 29.8727C16.4601 29.7377 16.6776 29.7377 16.8126 29.8727C16.9476 30.0077 16.9476 30.2252 16.8126 30.3602C15.2301 31.9577 15.3351 32.2427 15.4326 32.4977C15.4626 32.5877 15.5076 32.6927 15.5301 32.8277C15.9051 35.2502 20.6451 35.0852 20.6976 35.0852C20.8776 35.0852 21.0501 35.2277 21.0576 35.4152C21.0651 35.6027 20.9151 35.7677 20.7276 35.7752C20.6976 35.7752 20.6001 35.7752 20.4351 35.7752Z" fill="#92400E"/>
<path d="M29.3674 34.3347C29.2474 34.3347 29.1275 34.2672 29.0675 34.1547C28.9775 33.9897 29.0375 33.7797 29.21 33.6897C30.005 33.2622 30.4849 32.6847 30.6349 31.9722C30.9949 30.3297 29.5849 28.4322 29.5699 28.4172C29.4574 28.2672 29.4875 28.0497 29.6375 27.9372C29.7875 27.8247 30.0049 27.8547 30.1174 28.0047C30.1849 28.0947 31.73 30.1647 31.3025 32.1222C31.1 33.0447 30.5074 33.7797 29.5249 34.3047C29.4724 34.3347 29.4199 34.3422 29.3599 34.3422L29.3674 34.3347Z" fill="#92400E"/>
<path d="M115.01 24.3601C115.01 24.5251 115.182 24.6226 115.317 24.5326C115.557 24.3676 115.857 24.1651 115.925 24.1126C116.015 24.0526 117.095 24.6151 117.59 24.8851C117.687 24.9376 117.8 24.8476 117.777 24.7426L117.455 23.2351L118.647 22.0501C118.722 21.9751 118.67 21.8551 118.572 21.8476L117.027 21.7801L116.495 20.4076C116.45 20.2876 116.285 20.2726 116.217 20.3851L115.272 22.0276L113.847 21.9526C113.682 21.9451 113.607 22.1401 113.727 22.2526L115.055 23.4376L115.017 24.3676L115.01 24.3601Z" fill="#92400E"/>
</svg>
