<svg width="69" height="76" viewBox="0 0 69 76" fill="none" xmlns="http://www.w3.org/2000/svg">
<g filter="url(#filter0_d_238_391)">
<path d="M48.4629 26.9366C46.9985 28.4156 47.2035 30.495 47.3646 32.179C47.5257 33.8484 47.5842 34.9027 46.9546 35.5471C46.6324 35.8839 46.0027 35.796 44.4212 35.3713C42.5761 34.8735 39.7938 34.1413 37.5973 36.3525C35.3275 38.6369 36.1915 41.3606 36.7479 43.1471C36.9969 43.9379 37.3044 44.919 37.0994 45.124C36.7333 45.4901 35.3129 45.168 34.2732 44.9483C32.3402 44.5236 29.9093 43.9818 28.1521 45.7537C26.4241 47.4963 26.5999 50.22 26.7317 52.6362C26.7756 53.5002 26.8488 54.7888 26.7317 55.2428C26.0581 56.0336 26.102 57.2197 26.8488 57.9519C27.6249 58.728 28.8989 58.728 29.675 57.9519C30.9783 56.634 30.8612 54.5838 30.7294 52.4166C30.6562 51.2451 30.5244 49.0632 30.993 48.5799C31.3005 48.3896 32.7209 48.7117 33.4092 48.8582C35.3568 49.2975 38.0219 49.8979 39.9402 47.9503C41.8439 46.0319 41.0825 43.5864 40.5699 41.961C39.9988 40.1452 39.9695 39.6473 40.4235 39.1787C40.9067 38.6955 41.595 38.7687 43.3815 39.2373C45.2266 39.7205 47.7746 40.4088 49.7954 38.3733C51.8016 36.3525 51.538 33.7166 51.333 31.7983C51.2744 31.1393 51.1573 30.0557 51.3037 29.7628C52.0652 28.9721 52.0506 27.7273 51.2745 26.9512C50.4837 26.1751 49.2243 26.1751 48.4482 26.9512L48.4629 26.9366Z" fill="#3C2400"/>
<path d="M20.4797 48.7859C21.783 47.4679 21.6659 45.4178 21.5341 43.2505C21.4609 42.0791 21.3291 39.8971 21.7977 39.4139C22.1052 39.2235 23.5256 39.5457 24.2139 39.6921C26.1468 40.1314 28.8266 40.7318 30.7449 38.7842C32.6486 36.8659 31.8872 34.4058 31.3746 32.795C30.8035 30.9792 30.7742 30.4813 31.2282 30.0127C31.7114 29.5294 32.3997 29.6027 34.1862 30.0712C36.046 30.5691 38.5793 31.2427 40.6001 29.2073C42.5917 27.2011 42.3427 24.5652 42.1524 22.6323C42.0938 21.9733 41.9766 20.8897 42.1231 20.5968C42.8846 19.806 42.8846 18.5613 42.1084 17.7852C41.3323 17.0091 40.0583 17.0091 39.2822 17.7852C37.8178 19.2642 38.0229 21.3436 38.1839 23.013C38.345 24.6824 38.4036 25.7514 37.7739 26.381C37.4518 26.7178 36.8221 26.63 35.2406 26.2053C33.3955 25.7074 30.6132 24.9752 28.4166 27.1864C26.1468 29.4709 27.0108 32.1946 27.5819 33.9811C27.8309 34.7719 28.1384 35.753 27.9334 35.958C27.5673 36.3241 26.1468 36.0019 25.1071 35.7823C23.1595 35.343 20.7433 34.8011 18.9861 36.5877C17.2581 38.3303 17.4192 41.054 17.5656 43.4702C17.6096 44.3342 17.6974 45.6228 17.5656 46.0768C16.892 46.8675 16.936 48.0537 17.6828 48.7859C18.4589 49.562 19.7329 49.562 20.509 48.7859H20.4797Z" fill="#3C2400"/>
</g>
<defs>
<filter id="filter0_d_238_391" x="0.443441" y="0.556723" width="68.0682" height="74.6229" filterUnits="userSpaceOnUse" color-interpolation-filters="sRGB">
<feFlood flood-opacity="0" result="BackgroundImageFix"/>
<feColorMatrix in="SourceAlpha" type="matrix" values="0 0 0 0 0 0 0 0 0 0 0 0 0 0 0 0 0 0 127 0" result="hardAlpha"/>
<feOffset/>
<feGaussianBlur stdDeviation="8.3232"/>
<feColorMatrix type="matrix" values="0 0 0 0 1 0 0 0 0 1 0 0 0 0 1 0 0 0 0.75 0"/>
<feBlend mode="normal" in2="BackgroundImageFix" result="effect1_dropShadow_238_391"/>
<feBlend mode="normal" in="SourceGraphic" in2="effect1_dropShadow_238_391" result="shape"/>
</filter>
</defs>
</svg>
