<svg width="130" height="107" viewBox="0 0 130 107" fill="none" xmlns="http://www.w3.org/2000/svg">
<path d="M21.7446 97.603C21.1146 97.993 20.3721 98.1505 19.6296 98.1505C18.8871 98.143 18.1521 97.9855 17.4546 97.7455C16.0446 97.2655 14.8521 96.373 13.8621 95.3455C11.8971 93.253 10.6971 90.628 10.0371 87.9205C9.71456 86.5555 9.53456 85.1605 9.55706 83.7505C9.55706 83.5705 9.55706 83.398 9.57206 83.218L9.58706 82.9555V82.8205C9.59456 82.783 9.58706 82.8205 9.60206 82.7155C9.60956 82.633 9.63956 82.5505 9.67706 82.4755C9.83456 82.1455 10.1946 81.958 10.5546 82.018C10.7346 82.048 10.9221 82.153 11.0346 82.288C11.1696 82.468 11.1396 82.4605 11.1696 82.5055L11.4096 82.948L12.3771 84.733L14.3121 88.2955C14.6346 88.888 14.9496 89.4655 15.3021 90.0205C15.4746 90.298 15.6546 90.568 15.8421 90.808C15.9321 90.928 16.0296 91.048 16.1196 91.1305C16.1646 91.1755 16.2021 91.213 16.2246 91.228C16.2396 91.258 16.2546 91.198 16.0221 91.213H16.1796C16.1271 91.2055 16.0821 91.2055 16.0146 91.213C15.9396 91.228 15.8646 91.2655 15.8046 91.3105C15.7371 91.363 15.6996 91.4155 15.6846 91.453C15.6546 91.5055 15.6471 91.528 15.6396 91.543C15.6171 91.6255 15.6321 91.6105 15.6246 91.5955C15.6246 91.558 15.6096 91.468 15.5946 91.3855C15.5571 91.213 15.5046 91.0255 15.4446 90.8305C15.3246 90.448 15.1896 90.058 15.0471 89.668L14.1546 87.328C13.5546 85.7605 12.9471 84.1855 12.4446 82.5505C11.9196 80.893 11.7246 79.138 11.6946 77.4355C11.6871 75.718 11.7621 74.0005 12.3246 72.2755C12.4821 71.848 12.6621 71.413 13.0071 71.0005C13.0971 70.8955 13.1946 70.798 13.3146 70.708C13.3671 70.663 13.4421 70.6255 13.5021 70.5805C13.5546 70.5505 13.6521 70.4905 13.8021 70.4605C13.8771 70.4455 13.9746 70.438 14.1171 70.4755C14.2596 70.5055 14.4621 70.678 14.5071 70.8355C14.5371 70.9105 14.5446 70.978 14.5446 71.0305V71.083V71.158V71.4655C14.5596 72.2905 14.5971 73.123 14.6646 73.948C14.7846 75.6055 15.0096 77.248 15.3246 78.883C15.6396 80.5105 16.0521 82.1305 16.5771 83.698C16.8471 84.478 17.1396 85.258 17.4921 85.993C17.6646 86.3605 17.8596 86.7205 18.0696 87.0505C18.1746 87.208 18.2946 87.373 18.4071 87.478C18.4596 87.5305 18.5271 87.568 18.5271 87.568C18.5271 87.5455 18.3846 87.613 18.4221 87.6055L18.3846 87.9205C17.5221 85.948 17.0796 83.8855 16.7721 81.8005L16.6671 81.0205C16.6371 80.7505 16.6146 80.473 16.6071 80.203C16.5921 79.663 16.6071 79.1155 16.6446 78.5755C16.7421 77.4955 16.9371 76.393 17.4696 75.3505C17.5296 75.223 17.6196 75.0955 17.6871 74.968L17.7171 74.923L17.7321 74.9005C17.7321 74.9005 17.7321 74.9005 17.7771 74.8405C17.9271 74.6455 18.1746 74.563 18.3696 74.593C18.5646 74.608 18.7971 74.728 18.9171 74.9905C18.9396 75.0505 18.9621 75.118 18.9696 75.178V75.2305L18.9771 75.2755L19.0221 76.048L19.1271 77.593C19.2021 78.6205 19.3071 79.648 19.4421 80.6605C19.5846 81.673 19.7571 82.6855 20.0346 83.6455C20.1771 84.1255 20.3421 84.5905 20.5596 85.003C20.6721 85.2055 20.7996 85.4005 20.9346 85.5505C20.9721 85.588 21.0096 85.618 21.0396 85.6555C21.0696 85.6855 21.0396 85.6555 21.0246 85.6555C21.0021 85.648 20.9721 85.633 20.8971 85.6405C20.8296 85.6405 20.6646 85.7305 20.6271 85.858C20.5896 85.963 20.6121 86.0305 20.6046 85.963L20.5896 85.768C20.4996 84.718 20.4471 83.6455 20.5821 82.5655C20.7171 81.493 21.0621 80.3905 21.7596 79.5055C21.8121 79.438 21.8271 79.4155 21.9096 79.318C22.1346 79.1005 22.4871 79.153 22.6446 79.3855C22.6896 79.4455 22.7121 79.513 22.7271 79.5805V79.663L22.7421 79.753L22.7571 79.933C22.7796 80.1805 22.8171 80.4205 22.8696 80.668C22.9671 81.1555 23.1021 81.643 23.2746 82.123C23.6121 83.083 24.1071 83.9905 24.6021 84.8905C25.1046 85.7905 25.5846 86.7205 26.0196 87.673C26.4621 88.6255 26.8596 89.623 27.1146 90.688C27.3621 91.738 27.4821 92.9155 27.0921 94.0255C26.7096 95.143 25.8096 95.983 24.8571 96.493C24.6921 96.583 24.4821 96.523 24.3921 96.3505C24.3096 96.193 24.3621 95.998 24.5046 95.9005C25.3296 95.3605 26.0121 94.648 26.2596 93.7555C26.5221 92.878 26.3871 91.888 26.1171 90.9505C25.5546 89.0455 24.4971 87.253 23.7171 85.318C23.3196 84.3505 22.9446 83.3605 22.5996 82.363C22.4271 81.8605 22.2696 81.3505 22.1646 80.818C22.1121 80.5555 22.0596 80.2855 22.0371 80.0155L22.0221 79.813V79.708C22.0221 79.708 22.0071 79.633 22.0146 79.7005C22.0146 79.738 22.0371 79.7755 22.0596 79.8055C22.1421 79.933 22.3221 79.9555 22.4496 79.8355C22.4496 79.8355 22.3896 79.918 22.3596 79.9555C21.7746 80.713 21.4746 81.673 21.3696 82.6555C21.2571 83.6455 21.3171 84.658 21.4371 85.678L21.4596 85.8655C21.4596 85.8655 21.4896 86.0005 21.4296 86.1655C21.3696 86.353 21.1371 86.488 21.0096 86.488C20.7471 86.5105 20.5821 86.3755 20.5146 86.323C20.4546 86.2705 20.3871 86.218 20.3346 86.1655C20.1171 85.9405 19.9446 85.7005 19.8021 85.453C19.5171 84.958 19.3221 84.448 19.1571 83.9305C18.8346 82.903 18.6246 81.8605 18.4521 80.8255C18.2796 79.783 18.1521 78.748 18.0471 77.7055L17.9046 76.1455L17.8446 75.3655V75.313C17.8446 75.358 17.8596 75.403 17.8821 75.448C17.9721 75.643 18.1446 75.7255 18.2721 75.7405C18.4071 75.7555 18.5871 75.703 18.6921 75.5605C18.7296 75.508 18.7071 75.538 18.7071 75.538V75.553L18.6771 75.5905C18.6246 75.688 18.5571 75.778 18.5121 75.883C18.0996 76.7005 17.9121 77.6905 17.8446 78.673C17.8071 79.168 17.7996 79.663 17.8221 80.158C17.8446 80.6455 17.9121 81.133 17.9646 81.6505C18.2196 83.6755 18.5646 85.7155 19.0446 87.6805L19.0896 87.8755L19.0071 87.988C18.9471 88.0705 18.8721 88.1605 18.7371 88.2205C18.6096 88.2805 18.4596 88.273 18.3621 88.243C18.1596 88.183 18.0546 88.0855 17.9496 88.003C17.7546 87.823 17.6196 87.643 17.4921 87.463C17.2371 87.0955 17.0271 86.713 16.8396 86.3305C16.4571 85.558 16.1421 84.7705 15.8496 83.968C15.2796 82.3705 14.8296 80.728 14.4771 79.0705C14.1246 77.413 13.8696 75.733 13.7121 74.0455C13.6296 73.198 13.5846 72.3505 13.5621 71.503V71.188L13.5546 71.1055C13.5546 71.1055 13.5546 71.0605 13.5546 71.083C13.5546 71.113 13.5546 71.1505 13.5771 71.203C13.6071 71.3155 13.7646 71.4505 13.8546 71.458C13.9446 71.4805 13.9896 71.473 14.0121 71.4655C14.0571 71.4505 14.0571 71.4505 14.0271 71.4655C14.0046 71.4805 13.9821 71.488 13.9521 71.5105C13.8996 71.548 13.8546 71.6005 13.8021 71.653C13.6071 71.8855 13.4496 72.238 13.3221 72.598C12.8496 74.083 12.7746 75.7705 12.8046 77.398C12.8571 79.0405 13.0446 80.6605 13.5546 82.198C14.0496 83.7655 14.6721 85.318 15.2871 86.878C15.5946 87.658 15.9021 88.438 16.2021 89.233C16.3521 89.6305 16.4946 90.0355 16.6221 90.448C16.6896 90.658 16.7496 90.868 16.8021 91.108C16.8246 91.228 16.8546 91.348 16.8621 91.5205C16.8621 91.603 16.8696 91.7005 16.8246 91.8805C16.8096 91.9255 16.7946 91.9705 16.7496 92.0455C16.7196 92.1055 16.6671 92.173 16.5771 92.248C16.5021 92.3155 16.3971 92.353 16.2996 92.383C16.2096 92.4055 16.1346 92.4055 16.0596 92.398H16.2171C15.8121 92.428 15.6696 92.278 15.5496 92.2105C15.4296 92.128 15.3471 92.053 15.2721 91.978C15.1221 91.828 15.0021 91.678 14.8896 91.5355C14.6646 91.243 14.4696 90.9505 14.2821 90.658C13.9071 90.073 13.5696 89.4655 13.2471 88.8655L11.3046 85.303L10.3296 83.5255L10.0896 83.083C10.0896 83.083 10.0146 82.963 10.0971 83.083C10.1571 83.158 10.2621 83.218 10.3671 83.233C10.5621 83.263 10.7421 83.1655 10.8321 82.993C10.8546 82.9555 10.8621 82.9105 10.8696 82.873C10.8696 82.813 10.8696 82.8955 10.8696 82.8955V83.0155L10.8471 83.2555C10.8321 83.413 10.8321 83.578 10.8321 83.743C10.8171 85.033 10.9896 86.338 11.2896 87.6055C11.9046 90.133 13.0521 92.578 14.8071 94.438C15.6921 95.3455 16.7271 96.1105 17.8971 96.5005C18.4746 96.6955 19.0821 96.8155 19.6896 96.838C20.3046 96.868 20.9046 96.853 21.5871 96.9205H21.6096C21.8046 96.943 21.9546 97.1155 21.9321 97.318C21.9171 97.4305 21.8571 97.528 21.7671 97.588L21.7446 97.603Z" fill="#92400E"/>
<path d="M113.724 53.0831C112.156 51.8531 111.316 50.1431 110.806 48.3731C110.319 46.5956 110.206 44.7506 110.356 42.9506C110.446 42.0356 110.619 41.1206 110.979 40.2581C111.331 39.3956 111.796 38.5556 112.554 37.9106C112.749 37.7531 112.966 37.6106 113.251 37.5281C113.394 37.4906 113.566 37.4756 113.739 37.5281C113.919 37.5731 114.069 37.7156 114.144 37.8506C114.436 38.4206 114.256 38.9006 114.189 39.3281C114.024 40.1681 113.941 41.0306 113.956 41.8931C113.964 42.7556 114.024 43.6106 114.151 44.4506C114.219 44.8631 114.301 45.2831 114.414 45.6206C114.444 45.7031 114.481 45.7781 114.496 45.7931C114.496 45.7931 114.511 45.7856 114.414 45.7181C114.369 45.6881 114.264 45.6506 114.159 45.6581C114.054 45.6656 113.994 45.7031 113.964 45.7256C113.866 45.8081 113.941 45.7406 113.964 45.6806C113.994 45.6131 114.024 45.5231 114.054 45.4331C114.519 43.9406 114.406 42.1181 114.714 40.3556C114.976 38.5781 115.629 36.8231 116.619 35.3231C117.601 33.8081 118.899 32.5631 120.301 31.4981L120.331 31.4756H120.354V31.4681C120.526 31.4156 120.729 31.4006 120.916 31.5431C121.096 31.7006 121.119 31.9031 121.119 32.0606C121.119 32.3831 121.029 32.6606 120.939 32.9381C120.744 33.4781 120.496 33.9881 120.234 34.4831C119.724 35.4506 119.304 36.4781 118.906 37.5131C118.516 38.5481 118.164 39.5981 117.849 40.6556C117.691 41.1881 117.549 41.7206 117.429 42.2531C117.369 42.5156 117.316 42.7856 117.286 43.0481C117.271 43.1756 117.256 43.3106 117.256 43.4231C117.256 43.4756 117.256 43.5356 117.271 43.5581C117.271 43.5656 117.271 43.5581 117.256 43.5356C117.234 43.4906 117.129 43.4456 117.076 43.4606C117.001 43.4756 117.054 43.4606 117.076 43.4306C117.114 43.4006 117.151 43.3556 117.189 43.3106C117.264 43.2206 117.346 43.1006 117.421 42.9956C117.579 42.7856 117.721 42.5531 117.856 42.3206C118.134 41.8556 118.374 41.3606 118.614 40.8656C119.094 39.8681 119.536 38.8406 120.136 37.8506C120.436 37.3556 120.789 36.8831 121.224 36.4631C121.329 36.3506 121.449 36.2606 121.569 36.1631C121.689 36.0656 121.794 35.9756 121.981 35.8781C122.086 35.8406 122.176 35.7581 122.469 35.8181C122.611 35.8556 122.754 35.9906 122.791 36.0881C122.851 36.2006 122.851 36.2681 122.859 36.3356C122.874 36.5831 122.836 36.7256 122.806 36.8831C122.491 38.0456 122.019 39.0281 121.584 40.0631C121.141 41.0831 120.691 42.1031 120.294 43.1231C120.099 43.6256 119.904 44.1581 119.821 44.6231C119.799 44.7281 119.821 44.8556 119.806 44.8106C119.806 44.7881 119.776 44.7506 119.724 44.7056C119.701 44.6831 119.671 44.6681 119.641 44.6606C119.641 44.6606 119.664 44.6606 119.686 44.6606C119.799 44.6456 120.016 44.5256 120.196 44.3681C120.961 43.7156 121.606 42.7856 122.259 41.9006L122.761 41.2181C122.874 41.0981 122.874 41.0081 123.189 40.7981C123.286 40.7456 123.414 40.7081 123.571 40.7306C123.639 40.7456 123.714 40.7681 123.774 40.8056C123.819 40.8356 123.864 40.8731 123.909 40.9106C124.029 41.0456 124.074 41.1506 124.111 41.2481C124.329 41.9531 124.284 42.4931 124.269 43.0856C124.119 45.3806 123.496 47.6231 122.356 49.6406C121.779 50.6381 121.044 51.5756 120.114 52.3106C119.191 53.0531 118.066 53.5556 116.896 53.7581C116.649 53.8031 116.416 53.6381 116.379 53.3906C116.341 53.1431 116.499 52.9106 116.746 52.8731C117.774 52.7006 118.741 52.2656 119.559 51.6131C120.384 50.9681 121.051 50.1206 121.584 49.1981C122.641 47.3456 123.241 45.1781 123.376 43.0481C123.399 42.5381 123.399 41.9381 123.279 41.5781C123.271 41.5406 123.249 41.5256 123.279 41.5556C123.294 41.5706 123.309 41.5856 123.331 41.5931C123.361 41.6156 123.399 41.6231 123.436 41.6306C123.526 41.6456 123.586 41.6306 123.616 41.6081C123.691 41.5481 123.541 41.6981 123.474 41.7881L122.986 42.4481C122.319 43.3481 121.696 44.2781 120.766 45.0806C120.519 45.2681 120.264 45.4856 119.821 45.5606C119.716 45.5756 119.581 45.5831 119.454 45.5456L119.356 45.5231C119.296 45.5006 119.229 45.4631 119.184 45.4256C119.079 45.3356 119.019 45.2381 118.989 45.1481C118.899 44.8331 118.944 44.6756 118.959 44.5106C119.079 43.8806 119.289 43.3706 119.491 42.8306C119.911 41.7806 120.369 40.7681 120.819 39.7481C121.254 38.7431 121.741 37.7006 122.019 36.7181C122.049 36.6056 122.064 36.4706 122.064 36.4406C122.064 36.4406 122.064 36.4406 122.079 36.4856C122.094 36.5156 122.169 36.6131 122.251 36.6206C122.401 36.6431 122.356 36.6206 122.334 36.6356C122.274 36.6581 122.161 36.7481 122.064 36.8231C121.966 36.8981 121.861 36.9731 121.771 37.0631C121.396 37.4081 121.066 37.8206 120.781 38.2781C120.196 39.1781 119.739 40.1906 119.236 41.1881C118.981 41.6906 118.726 42.1931 118.419 42.6731C118.261 42.9131 118.111 43.1606 117.931 43.3856C117.841 43.4981 117.766 43.6181 117.654 43.7306C117.601 43.7906 117.549 43.8506 117.474 43.9106C117.399 43.9631 117.339 44.0456 117.121 44.0831C116.994 44.1056 116.821 44.0231 116.754 43.9256C116.694 43.8431 116.671 43.7681 116.656 43.7156C116.626 43.6031 116.634 43.5206 116.634 43.4381C116.634 43.2731 116.656 43.1306 116.679 42.9806C116.724 42.6881 116.784 42.4106 116.851 42.1406C116.986 41.5931 117.144 41.0531 117.316 40.5206C117.654 39.4556 118.036 38.3981 118.449 37.3631C118.869 36.3281 119.311 35.3006 119.859 34.3106C120.129 33.8306 120.384 33.3431 120.571 32.8406C120.759 32.3756 120.894 31.6556 120.451 31.8281L120.504 31.7981C119.244 32.9906 118.126 34.3106 117.279 35.7731C116.424 37.2356 115.944 38.8631 115.734 40.5356C115.629 41.3756 115.584 42.2306 115.531 43.1006C115.471 43.9706 115.419 44.8931 115.111 45.8156C115.074 45.9356 115.029 46.0481 114.969 46.1831C114.894 46.3106 114.864 46.4531 114.594 46.6706C114.511 46.7231 114.399 46.7831 114.249 46.7981C114.091 46.8131 113.934 46.7606 113.836 46.7006C113.641 46.5731 113.596 46.4681 113.536 46.3856C113.446 46.2131 113.409 46.0856 113.371 45.9581C113.236 45.4556 113.221 45.0131 113.206 44.5556C113.184 43.6556 113.236 42.7631 113.326 41.8856C113.431 41.0081 113.536 40.1306 113.709 39.2606C113.761 39.0356 113.784 38.8481 113.784 38.6531C113.784 38.4656 113.754 38.2706 113.679 38.1806C113.604 38.0981 113.566 38.1056 113.424 38.1506C113.296 38.2031 113.154 38.3231 113.034 38.4581C112.539 39.0356 112.269 39.8456 112.096 40.6331C111.939 41.4356 111.841 42.2531 111.804 43.0781C111.699 44.7581 111.819 46.4306 112.186 48.0356C112.381 48.8306 112.636 49.6106 112.996 50.3456C113.326 51.0731 113.814 51.7931 114.309 52.3181L114.369 52.3856C114.556 52.5806 114.549 52.8956 114.354 53.0831C114.174 53.2556 113.896 53.2631 113.709 53.1131L113.724 53.0831Z" fill="#92400E"/>
<path d="M82.6745 17.0908C82.6745 17.0908 81.257 15.5308 81.1745 15.3058C81.092 15.0808 79.997 16.9258 79.2695 17.1658C78.542 17.4058 80.057 14.6083 80.207 13.9483C80.357 13.2883 78.3545 11.8633 78.1895 11.5858C78.0245 11.3083 80.492 11.7207 81.122 11.8557C81.752 11.9907 82.1795 9.77825 82.862 9.74825C83.282 9.72575 82.7345 11.6007 82.847 12.2532C82.847 12.2532 84.737 11.8333 85.082 12.2158C85.397 12.5683 83.6795 13.4008 82.982 13.8133C82.5545 14.0683 83.0045 15.6132 82.982 16.9407C82.9745 17.4357 82.6745 17.0832 82.6745 17.0832V17.0908Z" fill="#92400E"/>
<path d="M52.8839 12.0506C52.1264 11.4056 51.7739 10.1456 52.9439 9.34309C54.5489 8.24809 55.6739 10.2581 55.1489 11.4581C54.6014 12.7106 53.5739 12.6356 52.8839 12.0506Z" fill="#92400E"/>
<path d="M44.5146 17.1576C43.9146 16.5051 44.4396 15.1776 45.1521 14.7201C46.6971 13.7376 47.2971 15.4776 47.2821 16.0026C47.2596 16.9176 45.8946 17.6826 45.0696 17.4726C44.8221 17.4126 44.6421 17.3001 44.5146 17.1576Z" fill="#92400E"/>
<path d="M103.734 45.7406H103.719C103.554 45.7331 103.427 45.6056 103.419 45.4406C103.419 45.4106 103.209 42.3056 101.409 41.5181C101.192 41.4206 101.169 41.2556 101.169 41.1881C101.169 40.9481 101.364 40.8431 101.597 40.7306C102.204 40.4306 103.569 39.7556 103.862 37.4006C103.869 37.1156 103.907 36.9431 103.907 36.9356C103.937 36.7706 104.094 36.6581 104.259 36.6806C104.424 36.7031 104.544 36.8531 104.537 37.0181C104.529 37.1981 104.507 37.3631 104.492 37.5281C104.469 38.3981 104.732 40.2356 107.147 40.9256C107.274 40.9631 107.364 41.0681 107.379 41.2031C107.394 41.3306 107.327 41.4581 107.207 41.5181C107.177 41.5331 104.507 42.9206 104.057 45.4856C104.034 45.6431 103.899 45.7481 103.742 45.7481L103.734 45.7406Z" fill="#92400E"/>
<path d="M77.177 65.5554C78.857 64.1904 80.522 60.7779 79.5995 60.5679C78.677 60.3504 75.662 62.8704 75.002 62.3304C74.342 61.7904 73.2545 57.2529 72.3545 56.9454C71.4545 56.6379 70.772 58.7229 70.322 60.6654C69.872 62.6079 69.9695 64.2879 69.9695 64.2879C68.1695 64.0629 64.7645 64.0554 64.532 65.0754C64.2995 66.0954 68.867 68.2179 69.5795 68.0904C70.292 67.9629 69.5795 68.0904 68.8145 71.8104C68.0495 75.5304 69.212 75.9954 69.212 75.9954C69.767 76.9554 70.4195 75.3954 70.9745 73.7754C71.5295 72.1479 72.122 70.1454 72.6695 69.8829C73.217 69.6204 77.222 72.1029 78.602 72.4254C79.982 72.7479 79.9445 71.6679 79.9745 70.7004C80.0045 69.7329 77.1695 65.5704 77.1695 65.5704L77.177 65.5554Z" fill="#92400E"/>
<path d="M42.9619 45.17C42.9619 45.17 41.0494 44.96 40.6294 44C40.2094 43.04 39.2494 40.925 40.9444 37.0025C42.6394 33.08 49.6444 24.275 54.8419 20.5625C60.0394 16.85 63.5419 16.745 64.5994 16.745C65.6569 16.745 69.1594 17.6975 70.3294 18.545C71.4994 19.3925 75.2119 22.4675 75.6319 24.59C76.0594 26.7125 76.4794 31.2725 75.8419 33.29C75.2044 35.3075 74.1469 38.06 72.1294 39.125C70.1119 40.1825 68.1019 41.5625 66.3994 41.3525C64.7044 41.1425 64.9144 40.61 65.7619 39.8675C66.6094 39.125 69.1594 37.325 70.1119 35.7275C71.0644 34.1375 71.1694 33.185 71.2819 31.5875C71.3944 29.99 71.3869 28.4075 70.6444 27.1325C69.9019 25.8575 68.9494 23.42 67.6744 22.8875C66.3994 22.355 65.3419 21.5075 64.4944 21.7175C63.6469 21.9275 62.6119 22.76 62.6119 23.3975C62.6119 23.735 63.2719 22.43 64.1494 22.445C64.9369 22.46 66.1969 22.61 66.9544 23.255C68.8594 24.8825 68.9494 25.01 69.3694 28.505C69.7969 32.0075 70.0069 34.655 68.3119 36.3575C66.6169 38.06 63.8569 39.5375 63.9619 40.7075C64.0669 41.8775 64.3894 42.725 67.2469 42.725C70.1044 42.725 73.9294 40.1825 75.2044 38.27C76.4794 36.3575 77.6419 35.615 77.4319 29.36C77.2219 23.105 77.2219 18.755 68.5219 15.89C59.8219 13.025 49.7494 22.6775 47.9419 24.905C46.1419 27.1325 40.4119 33.5 39.0319 37.6325C37.6519 41.7725 38.2894 41.45 38.6044 42.0875C38.9194 42.725 39.2419 45.3725 39.9844 45.695C40.7269 46.0175 42.0019 46.6475 42.8494 45.8C43.6969 44.9525 42.9544 45.1625 42.9544 45.1625L42.9619 45.17Z" fill="#92400E"/>
<path d="M45.512 46.872C45.512 46.872 45.9395 47.7195 48.167 45.597C50.3945 43.4745 51.452 41.9895 52.412 40.0845C53.3645 38.172 57.6095 30.222 58.667 28.5195C59.7245 26.817 63.7595 21.837 65.4545 21.0945C67.1495 20.352 69.9095 18.552 72.9845 20.352C72.9845 20.352 73.622 19.7145 72.347 19.077C71.072 18.4395 69.482 16.9545 66.512 18.5445C63.542 20.1345 60.782 21.7245 59.7245 24.1695C58.667 26.607 56.117 29.262 55.1645 31.8045C54.212 34.347 51.347 38.802 50.3945 40.287C49.442 41.772 46.787 44.1045 46.367 44.952C45.947 45.7995 44.777 46.437 45.5195 46.8645L45.512 46.872Z" fill="#92400E"/>
<path d="M27.4744 37.7448C27.4744 37.7448 26.4169 32.8623 25.9894 30.4248C25.5619 27.9873 22.5919 24.4848 20.8969 21.4098C19.2019 18.3348 12.7294 15.8973 11.0344 16.0023C9.33937 16.1073 6.89437 16.3173 5.40937 18.3348C3.92437 20.3523 0.421875 26.1873 0.421875 31.4898C0.421875 36.7923 3.07688 40.0848 5.61938 40.1898C8.16188 40.2948 9.64688 39.2373 9.33188 38.1723C9.01688 37.1148 7.53188 37.7448 6.46688 36.5823C5.40938 35.4123 5.19188 33.6123 5.61938 30.5373C6.04688 27.4623 8.48438 24.1698 9.75938 24.0648C11.0344 23.9598 11.3494 23.2173 12.4144 25.6548C13.4719 28.0923 14.1094 31.4898 14.8519 34.2498C15.5944 37.0098 17.3944 42.6273 20.4769 44.8548C20.4769 44.8548 21.6469 43.1598 21.7519 42.7323C21.8569 42.3048 20.1619 41.4573 19.7344 40.3998C19.3069 39.3423 16.4494 32.3373 16.0219 30.7473C15.5944 29.1573 13.4794 24.4923 13.2619 23.5323C13.0444 22.5723 12.2044 20.8773 10.5019 21.4098C8.79938 21.9423 5.94187 24.2748 5.40937 26.0748C4.87687 27.8748 3.39188 30.6348 4.13438 33.7098C4.87688 36.7848 6.67688 37.7373 7.53188 38.2698C8.37938 38.8023 7.95938 39.5448 6.15188 39.1173C4.35188 38.6898 2.43938 36.9948 1.80188 34.9773C1.16438 32.9598 2.22938 28.8273 2.75438 26.1723C3.27938 23.5173 6.99938 18.7473 8.58938 18.0048C10.1794 17.2623 11.5594 16.3098 15.6994 18.9573C19.8394 21.6123 19.0969 23.2023 21.9544 26.1723C24.8119 29.1423 25.1344 36.7773 25.8769 38.1573L27.4669 37.7298L27.4744 37.7448Z" fill="#92400E"/>
<path d="M46.674 49.0997C46.854 48.8147 47.8439 45.9197 50.7014 43.9022C53.5589 41.8847 57.9164 42.3122 59.4014 42.1022C60.8864 41.8922 58.7639 43.9021 58.4489 44.9671C58.1339 46.0246 55.2689 50.2696 51.1289 51.2221C51.1289 51.2221 49.8539 51.3272 49.9589 50.5847C50.0639 49.8422 50.559 49.3097 50.6639 48.8897C50.7689 48.4697 50.064 49.2047 49.5389 49.7372C49.014 50.2697 47.9489 50.6897 47.7389 50.2697C47.5289 49.8497 48.2715 48.9947 49.434 48.1472C50.604 47.2997 52.7189 45.6047 53.4614 45.2822C54.2039 44.9597 53.9939 45.9197 53.5664 46.5572C53.1389 47.1947 52.0814 49.4222 52.8239 49.0997C53.5664 48.7772 53.7764 48.2522 54.8414 47.0822C55.9064 45.9122 56.1164 45.3872 56.6414 44.6447C57.1664 43.9022 56.9564 43.5872 55.6889 43.9022C54.4139 44.2172 52.0814 44.3297 50.9189 45.2822C49.7489 46.2347 48.6914 47.4047 48.3764 48.1472C48.0614 48.8897 46.1489 49.9472 46.6814 49.0997H46.674Z" fill="#92400E"/>
<path d="M32.9943 57.8976C32.9943 57.8976 32.2518 55.9626 32.8893 52.9401C33.5268 49.9176 35.8293 49.5201 36.4668 49.6776C36.4668 49.6776 37.2618 50.3901 37.1043 50.7126C36.9468 51.0351 35.7543 50.8701 35.1918 51.3501C34.6293 51.8301 34.0743 52.3851 33.9168 53.0226C33.7593 53.6601 33.4368 54.0576 33.4368 54.4551C33.4368 54.8526 33.1968 56.3676 33.4368 56.6826C33.6768 56.9976 34.0743 57.0801 34.5918 56.9976C35.1093 56.9151 35.8218 56.5176 36.3018 55.7676C36.7818 55.0176 37.4568 53.5026 36.8193 53.1426C36.1818 52.7826 35.3493 53.4201 35.2293 53.6601C35.1093 53.9001 34.1943 54.5376 34.1118 54.9726C34.0293 55.4076 33.6318 55.8501 33.6318 56.0901C33.6318 56.3301 33.4293 57.4851 33.2718 57.0876C33.1143 56.6901 33.0693 55.6176 33.1893 55.2201C33.3093 54.8226 33.7443 54.2226 34.3068 53.5476C34.8618 52.8726 35.3418 52.1526 36.3768 52.2351C37.4118 52.3176 37.8918 53.1501 37.9668 53.7051C38.0418 54.2601 37.7268 55.4526 37.0893 56.2101C36.4518 56.9676 35.4168 57.8001 34.5018 58.0026C33.5868 58.2051 33.3243 58.1751 32.9793 57.9126L32.9943 57.8976Z" fill="#92400E"/>
<path d="M34.479 55.5273C34.5315 55.4223 34.794 54.6948 35.4765 54.1323C36.1515 53.5773 36.3915 53.9748 36.354 54.5298C36.3165 55.0848 35.919 56.7948 34.6815 57.2373C33.6615 57.5973 34.2015 56.0823 34.479 55.5273Z" fill="#92400E"/>
<path d="M32.0121 63.1624C32.0121 63.1624 32.3721 62.4048 32.0496 62.2098C31.7271 62.0148 31.6146 62.0073 31.2171 63.2448C30.8196 64.4823 30.7371 65.3148 31.1346 65.6748C31.5321 66.0348 31.7346 65.6374 31.9671 65.3149C32.1996 64.9924 32.3271 64.5573 32.3271 64.1973C32.3271 63.8373 32.0121 63.7998 31.9671 63.6423C31.9221 63.4848 32.0046 63.1624 32.0046 63.1624H32.0121Z" fill="#92400E"/>
<path d="M28.5918 71.6748C28.5993 71.5173 28.5093 71.1198 29.3043 70.1223C30.0993 69.1248 30.4218 68.9298 31.2168 68.4498C32.0118 67.9698 32.2518 68.2098 32.7318 68.3673C33.2118 68.5248 33.0093 68.9673 32.7318 69.5223C32.4543 70.0773 31.8168 70.2348 31.6143 70.9923C31.4118 71.7498 31.6143 71.9073 30.7368 72.8223C29.8593 73.7373 28.9893 74.1348 28.7493 73.8573C28.5093 73.5798 28.5468 72.3873 28.5918 71.6673V71.6748Z" fill="#92400E"/>
<path d="M43.7046 62.33C43.7046 62.33 43.9446 61.4975 44.4621 61.535C44.9796 61.5725 44.9796 62.135 44.7396 63.05C44.4996 63.965 43.7046 65.315 43.4271 65.6375C43.1496 65.96 42.5496 66.395 41.7171 66.5525C40.8846 66.71 38.9346 67.5875 38.4921 68.18C38.0571 68.78 36.2646 70.205 35.6271 71.285C34.9896 72.365 34.6296 73.355 33.0021 74.825C31.3746 76.295 30.6921 76.34 29.6196 76.3775C28.5471 76.415 26.8746 76.655 26.1996 76.3775C25.5246 76.1 24.2871 74.9075 23.6946 73.715C23.1021 72.5225 22.2996 69.815 21.9021 69.0575C21.5046 68.3 21.3471 66.0725 21.3471 64.64C21.3471 63.2075 21.6096 60.6875 21.5346 59.975C21.4521 59.2625 20.0346 57.005 19.7571 55.85C19.4796 54.695 19.5546 52.505 19.5546 51.83C19.5546 51.155 19.6371 49.565 19.5921 49.1225C19.5471 48.68 20.2671 47.015 20.2671 46.295C20.2671 45.575 20.3871 44.9 20.5446 44.345C20.7021 43.79 21.9396 41.8025 22.5321 41.24C23.1246 40.6775 24.9996 38.63 25.8771 38.165C26.7546 37.7 28.3671 37.5275 28.7946 37.475C29.2221 37.4225 28.3146 38.0075 27.8946 38.2175C27.4746 38.4275 26.1996 38.6975 25.9821 39.17C25.7646 39.6425 24.9246 39.86 24.5496 40.865C24.1746 41.87 22.1121 46.22 21.9471 46.9625C21.7821 47.705 20.6721 49.295 20.6721 50.0375C20.6721 50.78 20.4621 52.37 20.5671 52.745C20.6721 53.12 22.2621 54.6575 22.4796 55.61C22.6896 56.5625 23.0646 58.955 22.8546 60.7025C22.6446 62.45 22.6971 65.21 22.6446 66.485C22.5921 67.76 23.2296 68.6075 23.7021 68.6075C24.1746 68.6075 24.4446 68.5025 25.0296 68.8175C25.6146 69.1325 26.5146 70.73 26.3046 71.6825C26.0946 72.635 25.3521 72.74 25.5096 73.325C25.6671 73.91 26.3571 74.6525 26.5671 74.9675C26.7771 75.2825 28.2096 75.23 29.6421 75.0725C31.0746 74.915 31.9221 74.7575 32.4021 74.12C32.8821 73.4825 33.6246 72.155 34.5771 70.94C35.5296 69.7175 36.4896 67.97 38.3421 67.07C40.2021 66.17 41.8971 65.8475 42.4296 65.105C42.9621 64.3625 43.7046 62.3225 43.7046 62.3225V62.33Z" fill="#92400E"/>
<path d="M20.552 44.3527C20.552 44.3527 19.277 42.7627 16.337 42.7627C13.397 42.7627 12.197 42.8452 11.9345 43.2127C11.672 43.5802 11.7245 44.3302 12.197 44.8552C12.6695 45.3802 14.957 47.2927 15.542 47.9302C16.127 48.5677 19.697 50.8327 20.0495 49.9477C20.1545 49.6852 20.2595 48.0352 20.2595 48.0352C20.2595 48.0352 18.137 46.9777 17.657 46.5502C17.177 46.1227 15.482 44.8552 15.272 44.4802C15.062 44.1052 14.8445 43.6327 15.482 43.6327C16.1195 43.6327 17.342 43.3177 18.0845 43.7902C18.827 44.2627 20.8445 45.3802 20.8445 45.3802L20.552 44.3452V44.3527Z" fill="#92400E"/>
<path d="M55.269 36.7395C55.5315 36.4245 56.439 35.5171 57.549 34.9921C58.6665 34.4596 60.2565 34.6171 61.6365 34.4596C63.0165 34.3021 62.4315 34.8346 62.0115 35.4646C61.5915 36.0946 60.3165 37.002 59.994 37.212C59.994 37.212 60.1515 37.422 60.894 37.422C61.6365 37.422 61.899 37.632 61.6365 38.0595C61.374 38.487 60.519 39.807 59.034 40.2345C57.549 40.662 56.2215 41.0295 55.854 41.0295C55.4865 41.0295 55.479 40.497 56.1165 40.2345C56.754 39.972 59.0865 39.3871 59.724 38.9596C60.3615 38.5321 60.309 38.2171 59.5665 38.1646C58.824 38.1121 57.7065 38.1121 57.1815 38.5396C56.6565 38.9671 56.439 38.802 56.334 38.592C56.229 38.382 56.814 37.692 57.8715 37.2645C58.929 36.837 60.0465 36.4696 60.5265 36.1471C61.0065 35.8246 61.3215 35.247 61.0065 35.247C60.6915 35.247 58.779 35.2995 58.1415 35.622C57.504 35.9445 56.229 36.792 55.8615 37.1595C55.494 37.527 55.2765 36.7321 55.2765 36.7321L55.269 36.7395Z" fill="#92400E"/>
<path d="M35.1166 72.0124C35.1841 72.2224 35.7016 73.3399 35.4916 73.9249C35.2816 74.5099 34.1116 77.3749 34.3741 78.7549C34.6366 80.1349 35.6491 79.8124 36.2866 79.3399C36.9241 78.8674 37.4041 78.7549 37.7191 77.9599C38.0341 77.1649 38.5666 75.4699 39.1516 75.1474C39.7366 74.8249 40.2091 75.4624 40.8466 76.4224C41.4841 77.3749 43.2316 78.4924 43.9216 77.5924C44.6116 76.6924 44.2366 75.2599 44.1316 74.4649C44.0266 73.6699 43.4941 71.7574 43.7566 71.3374C44.0191 70.9174 43.6516 70.8049 43.1716 70.9099C42.6916 71.0149 42.3766 71.1199 42.5866 72.0799C42.7966 73.0399 43.5916 74.9449 43.5916 76.0024C43.5916 77.0599 42.7966 77.2249 42.4741 76.7449C42.1516 76.2649 40.5616 73.2424 40.2991 72.7699C40.0366 72.2899 38.9191 73.4599 38.8141 73.9399C38.7091 74.4199 38.0191 74.5249 37.9141 75.1624C37.8091 75.7999 37.0141 77.6524 36.6916 77.9749C36.3691 78.2974 35.6341 78.6124 35.6866 78.0799C35.7391 77.5474 36.4291 75.7474 36.5341 74.8999C36.6391 74.0524 36.6691 71.6374 35.6191 71.3074C35.6191 71.3074 34.9441 71.5624 35.1016 72.0349L35.1166 72.0124Z" fill="#92400E"/>
<path d="M43.7044 69.2524C43.8769 69.4624 45.9319 70.8949 47.8444 70.8949C49.7569 70.8949 49.9144 70.6324 50.2294 70.2574C50.5444 69.8824 49.8544 66.5974 48.2644 65.7499C48.2644 65.7499 49.1644 65.3749 49.3219 65.0074C49.3219 65.0074 49.4794 64.5799 49.0069 64.6324C48.5344 64.6849 47.8894 65.3224 47.2069 65.1124C46.5169 64.9024 46.7794 65.4274 47.1019 65.6449C47.4244 65.8624 48.9619 67.8199 49.1194 69.1999C49.2769 70.5799 48.2194 70.2049 47.8969 70.2049C47.5744 70.2049 44.6119 68.8774 44.2894 68.7199C43.9669 68.5624 43.4419 68.9299 43.7044 69.2524Z" fill="#92400E"/>
<path d="M48.4291 74.9823C48.5416 75.1398 50.5516 77.2099 51.8266 77.5249C53.1016 77.8399 53.6266 77.7349 53.5741 76.6774C53.5216 75.6199 51.9841 73.2798 51.0841 72.9648C51.0841 72.9648 50.2366 73.2274 50.7691 73.7074C51.3016 74.1874 52.6816 76.0923 52.5166 76.5723C52.3516 77.0523 51.3991 76.6773 50.9266 76.1973C50.4541 75.7173 49.4941 74.6599 49.0666 74.4499C48.6391 74.2399 48.1666 74.6073 48.4291 74.9823Z" fill="#92400E"/>
<path d="M37.2394 78.5304C37.2394 78.5304 37.7194 80.2254 37.3969 81.3954C37.0819 82.5654 36.1219 83.1954 36.3394 83.9379C36.5569 84.6804 38.6194 85.0554 39.9469 83.9904C41.2744 82.9254 40.9519 81.8679 40.9519 81.1779C40.9519 80.4879 41.0044 79.5879 40.4719 79.6929C39.9394 79.7979 40.2619 80.1729 39.8344 81.6054C39.4069 83.0379 38.5069 83.2479 38.3494 83.1954C38.1919 83.1429 38.6119 80.9154 38.5069 79.5354C38.4019 78.1554 38.1319 76.5129 37.9744 76.3029C37.8169 76.0929 37.2319 78.5304 37.2319 78.5304H37.2394Z" fill="#92400E"/>
<path d="M37.239 38.9145C37.539 38.7495 39.6765 35.997 39.8415 34.827C39.999 33.657 39.789 33.027 38.889 32.967C37.989 32.9145 36.7665 33.6045 36.504 34.452C36.2415 35.2995 35.3865 36.4695 35.6565 35.5095C35.919 34.557 36.4515 32.4345 35.9715 30.522C35.4915 28.6095 34.059 29.352 33.639 29.937C33.219 30.522 32.6865 31.5795 32.7915 32.907C32.8965 34.2345 32.844 36.1395 32.6865 35.7195C32.529 35.2995 32.154 33.3345 31.9965 32.7495C31.839 32.1645 31.5165 31.107 29.7165 31.3695C27.9165 31.632 28.3365 33.492 28.5465 34.077C28.7565 34.662 29.7165 36.3045 29.9265 37.152C30.1365 37.9995 29.769 39.327 29.1315 39.327C28.494 39.327 28.9215 40.017 29.6115 39.7545C30.3015 39.492 30.7815 38.802 30.729 38.1645C30.6765 37.527 30.6765 36.1995 30.519 35.622C30.3615 35.037 29.514 33.1845 29.829 32.862C30.144 32.5395 30.624 32.547 30.834 33.7095C31.044 34.872 31.149 36.732 31.524 37.422C31.899 38.112 32.9565 38.1645 33.1665 37.422C33.3765 36.6795 33.6465 36.1995 33.594 35.0895C33.5415 33.9795 34.2315 31.2195 34.8165 31.167C35.4015 31.1145 35.244 32.2245 35.1915 32.757C35.139 33.2895 34.659 36.522 34.659 37.0545C34.659 37.587 35.5065 38.2245 35.9865 37.7445C36.4665 37.2645 37.3665 35.517 37.899 34.722C38.4315 33.927 38.8515 33.927 39.1215 34.5645C39.3915 35.202 38.379 37.107 38.004 37.377C37.629 37.647 36.519 38.2245 36.5715 38.547C36.624 38.8695 36.6765 39.237 37.2615 38.922L37.239 38.9145Z" fill="#92400E"/>
<path d="M32.5142 29.6827C32.3042 29.6227 30.3392 27.5602 29.9717 26.9227C29.5967 26.2852 29.5442 25.2802 30.0767 24.8002C30.6092 24.3202 32.5142 25.1752 33.5267 26.1802C34.5317 27.1852 35.3267 28.3027 35.5967 28.1977C35.8667 28.0927 36.0767 28.1452 35.8592 26.9227C35.6492 25.7002 35.6492 23.3152 36.1742 23.0527C36.6992 22.7902 37.5542 23.1577 38.3492 24.0577C39.1442 24.9577 39.1442 26.2327 39.2492 27.0802C39.3542 27.9277 39.7817 28.9927 39.8867 28.0327C39.9917 27.0802 40.4717 24.3727 41.2667 24.0577C42.0617 23.7427 42.8042 23.9527 43.4942 25.1152C44.1842 26.2777 43.7042 28.1902 43.1792 28.8802C42.6542 29.5702 41.6942 30.8977 41.2667 30.4177C40.8392 29.9377 42.5942 28.9327 42.5942 27.6052C42.5942 26.2777 42.6992 25.0627 42.1667 24.8977C41.6342 24.7327 41.1617 27.1252 40.9967 27.8677C40.8317 28.6102 40.3067 29.9902 39.6692 29.8327C39.0317 29.6752 38.2367 28.9852 38.0792 28.0327C37.9217 27.0802 38.2892 24.6352 37.6517 24.2677C37.0142 23.9002 36.4292 24.0052 36.6992 24.8527C36.9617 25.7002 37.0742 28.1977 36.9617 28.5127C36.8492 28.8277 35.4767 29.1502 34.9442 28.7752C34.4117 28.4002 31.8692 26.0152 31.2317 25.9102C30.5942 25.8052 31.2842 27.0277 31.9742 27.5527C32.6642 28.0852 33.3017 28.7752 33.3017 29.1427C33.3017 29.5102 33.0392 29.8327 32.5067 29.6752L32.5142 29.6827Z" fill="#92400E"/>
<path d="M54.8417 61.8796C54.9242 61.3996 55.5842 60.8221 57.3842 60.2371C59.1842 59.6521 60.4067 60.2371 60.5117 60.8746C60.6167 61.5121 58.3892 62.6221 58.1267 63.0496C57.8642 63.4771 58.2317 63.2596 59.1317 63.2596C60.0317 63.2596 60.6692 63.4171 60.7217 64.6921C60.7742 65.9671 58.3892 67.4521 56.7467 67.7671C55.1042 68.0821 54.2567 67.8196 54.0917 67.1296C53.9267 66.4396 54.7817 66.7546 55.1492 67.0246C55.5167 67.2946 58.1717 66.8671 59.1767 66.0196C60.1817 65.1721 60.0242 64.0021 59.3342 64.0021C58.6442 64.0021 57.0017 64.4296 56.5217 64.6396C56.0417 64.8496 55.5167 64.3771 55.9892 63.7921C56.4617 63.2071 58.6967 61.8796 59.0117 61.4596C59.3267 61.0396 58.9067 61.1446 58.3217 61.1446H57.7367C57.7367 61.1446 55.6667 61.9396 55.3517 62.2021C55.0367 62.4646 54.7667 62.2021 54.8192 61.8871L54.8417 61.8796Z" fill="#92400E"/>
<path d="M49.3292 53.0227C49.5392 52.5952 51.1892 51.8527 52.4567 51.3277C53.7242 50.8027 54.4217 50.8477 54.7892 51.1702C55.1567 51.4927 54.7892 53.6602 54.0467 54.1402C53.3042 54.6202 52.6667 55.0926 52.4567 55.0926C52.2467 55.0926 54.1517 55.4677 54.6842 55.9927C55.2167 56.5252 54.5792 57.7401 54.2042 57.9051C53.8292 58.0701 52.0817 58.4901 51.6617 58.4901C51.2417 58.4901 53.1467 59.9227 53.2517 60.3502C53.3567 60.7777 52.8242 60.7251 52.5092 60.4551C52.1942 60.1851 50.0717 58.8126 49.5392 58.4901C49.0067 58.1676 48.9017 57.9052 49.2767 57.6427C49.6517 57.3802 52.9892 57.2151 53.2517 56.8476C53.5142 56.4801 53.6792 56.3677 52.9892 56.1577C52.2992 55.9477 50.0192 56.3152 49.7042 56.1052C49.3892 55.8952 49.4417 55.3102 49.6517 55.1002C49.8617 54.8902 50.8217 54.9952 51.1367 54.9427C51.4517 54.8902 50.3942 54.7326 50.7617 54.4101C51.1292 54.0876 52.8317 53.5102 53.0942 53.1352C53.3567 52.7602 53.1467 52.5502 52.3517 52.7602C51.5567 52.9702 50.8667 53.1352 50.1767 53.2927C49.4867 53.4502 49.1717 53.3451 49.3292 53.0301V53.0227Z" fill="#92400E"/>
<path d="M57.8645 29.3149C58.0745 29.1049 59.402 28.3099 60.782 27.6724C62.162 27.0349 62.582 27.2974 63.3245 27.3574C64.067 27.4174 64.652 28.3624 64.2245 28.8949C63.797 29.4274 62.582 30.4324 62.5295 30.8074C62.477 31.1824 63.062 30.9124 63.6995 30.8599C64.337 30.8074 66.407 31.0699 67.622 31.4974C68.8445 31.9249 70.2695 33.8449 70.487 33.9499C70.7045 34.0549 69.4745 36.1324 69.4745 36.1324C69.4745 36.1324 68.207 33.8149 67.5695 33.4999C66.932 33.1849 65.6045 32.2924 64.7045 32.0224C63.8045 31.7599 62.6345 32.2324 61.892 32.0224C61.1495 31.8124 60.512 31.2274 61.097 30.6424C61.682 30.0574 62.4245 29.1049 61.682 28.9999C60.9395 28.8949 59.6645 29.0524 58.7645 29.5849C57.8645 30.1174 57.017 30.5899 56.9645 30.2749C56.912 29.9599 57.8645 29.3224 57.8645 29.3224V29.3149Z" fill="#92400E"/>
<path d="M75.8495 36.6348C76.112 36.7398 77.6495 37.1148 78.392 38.0148C79.1345 38.9148 81.257 42.6273 84.1745 44.2173C87.092 45.8073 92.0795 48.8298 94.037 49.2573C95.9945 49.6848 102.152 53.1798 103.209 53.9223C104.267 54.6648 109.097 58.2198 110.207 61.0848C111.325 63.9498 113.762 67.6098 114.452 68.4048C115.142 69.1998 114.879 71.9073 114.189 72.8598C113.5 73.8123 112.704 74.5023 112.067 74.3973C112.067 74.3973 111.909 74.2398 111.962 75.1398C112.014 76.0398 111.587 77.2623 111.114 78.3198C110.642 79.3773 108.407 83.3073 107.935 84.1023C107.455 84.8973 105.549 87.4473 104.964 87.5523C104.379 87.6573 102.842 88.3473 102.152 88.7223C101.462 89.0973 99.392 90.5223 98.7545 90.8448C98.117 91.1598 98.222 90.2073 98.222 90.2073L98.702 88.4598C98.702 88.4598 102.1 86.1273 102.79 85.5423C103.48 84.9573 106.187 81.2448 106.877 79.8648C107.567 78.4848 108.895 75.2523 109 73.9773C109.104 72.7023 108.894 71.1647 109.262 70.5798C109.629 69.9948 109.637 70.2648 110.162 70.2048C110.695 70.1522 111.332 70.9473 111.805 70.8948C112.277 70.8423 112.12 70.3098 112.18 69.4098C112.24 68.5098 111.7 67.4973 111.332 66.6498C110.965 65.8023 110.485 63.7848 109.742 63.2523C109 62.7198 107.139 60.0198 106.397 59.2773C105.654 58.5348 102.099 54.7173 98.7095 53.7648C95.312 52.8123 89.6945 50.4198 88.577 49.8423C87.4595 49.2648 83.807 47.9823 82.5845 46.5573C81.362 45.1323 78.662 42.4173 77.9195 41.7273C77.177 41.0373 75.1595 38.9673 74.6345 38.8098C74.1095 38.6523 75.857 36.6348 75.857 36.6348H75.8495Z" fill="#92400E"/>
<path d="M97.584 82.6924C97.7265 82.5949 97.824 82.5049 98.2965 82.6924C98.769 82.8799 98.814 83.1949 98.9715 83.7049C99.129 84.2149 98.9865 85.0924 99.129 85.5424C99.2715 85.9924 99.2415 86.6749 99.1665 88.1449C99.0915 89.6149 98.2665 92.7049 97.6665 94.0024C97.0665 95.2999 95.754 97.6024 95.4915 98.2924C95.229 98.9824 93.8565 100.302 93.7215 100.625C93.5865 100.947 94.3365 103.542 94.3815 103.865C94.4265 104.187 93.7365 104.285 93.519 104.525C93.3015 104.765 92.9865 105.687 92.574 105.875C92.1615 106.062 90.9765 106.1 90.4215 106.047C89.8665 105.995 90.1815 101.285 90.1815 100.902C90.1815 100.52 89.9265 100.092 89.5665 99.7024C89.2065 99.3124 87.8115 97.5274 87.1965 95.1649C86.5815 92.8024 86.3265 91.0474 86.3865 89.9149C86.4465 88.7824 86.814 85.9474 86.859 85.3249C86.904 84.7024 87.159 83.2324 87.6015 82.9249C88.044 82.6174 88.5165 83.8324 88.554 84.4924C88.584 85.0099 88.7265 84.6274 88.6515 85.7074C88.5765 86.7874 88.4865 89.7574 88.7865 91.2799C89.0865 92.8024 89.2215 95.5324 90.504 97.5199C91.779 99.5074 91.8765 99.8149 92.319 99.8974C92.7615 99.9799 93.7665 98.6149 94.4565 97.3924C95.1465 96.1699 96.234 93.1699 96.5565 92.2924L96.879 91.4149C96.879 91.4149 97.5015 88.4449 97.5465 87.6499C97.5915 86.8549 97.749 84.8674 97.644 84.3424C97.539 83.8174 97.3065 82.8874 97.6065 82.6849L97.584 82.6924Z" fill="#92400E"/>
<path d="M83.5819 94.5124C83.5819 94.5124 81.3694 95.7499 80.6269 95.8474C79.8844 95.9449 79.5394 96.3874 79.6594 96.6424C79.7794 96.8974 81.2944 99.3649 81.5794 99.7249C81.8644 100.085 82.4494 101.007 82.4644 101.322C82.4794 101.637 82.4419 101.907 82.9819 102.035C83.5219 102.162 84.4519 101.742 84.7594 101.457C85.0669 101.172 86.2444 100.302 86.4094 100.167C87.4894 99.3124 88.0669 97.5948 88.3594 97.6698C89.1619 97.8723 89.1619 98.8173 84.8569 102.357C84.5344 102.62 84.0394 102.987 84.0694 103.52C84.0994 104.052 83.9194 105.545 83.7619 105.612C83.6044 105.68 83.2294 105.537 82.6519 105.725C82.0744 105.912 81.3319 105.905 81.1219 105.86C80.9119 105.815 80.3869 104.997 80.2669 104.847C80.1469 104.697 81.1444 103.467 81.1819 103.152C81.2194 102.837 80.1019 101.885 79.8169 101.577C79.5319 101.27 77.5894 97.7674 77.2969 97.2574C77.0044 96.7474 76.9144 97.0624 75.9619 97.1224C75.0094 97.1824 71.9719 97.9249 68.9569 97.1899L65.9419 96.4549L66.5719 95.3599C66.5719 95.3599 69.2194 96.1173 70.1194 96.1698C71.0194 96.2223 75.5794 95.9224 77.3419 95.2399C79.1119 94.5574 84.2119 93.4099 86.2294 92.1124C86.7919 91.7524 87.1819 92.1124 86.6269 92.6224C86.0719 93.1324 83.5669 94.5199 83.5669 94.5199L83.5819 94.5124Z" fill="#92400E"/>
<path d="M63.4894 101.337C63.8044 101.285 64.7119 100.437 64.7119 100.437C65.8294 99.0574 66.1444 96.9349 66.8344 95.8774C67.5244 94.8199 67.7869 92.5924 68.1619 91.4224C68.5369 90.2524 68.0569 89.9899 67.7344 89.9374C67.4119 89.8849 67.0969 90.1474 66.8869 90.5749C66.8869 90.5749 66.0394 91.9024 66.1444 92.1649C66.2494 92.4274 63.9169 98.1573 63.8119 98.3673C63.7069 98.5773 62.3794 100.542 61.9519 100.7C61.5244 100.857 61.2094 100.805 61.0519 100.647C60.8944 100.49 60.9994 99.9574 61.3144 99.7999C61.6294 99.6424 61.6294 99.0574 61.6294 99.0574C61.6294 99.0574 60.3019 98.4199 59.8819 97.8874C59.4544 97.3549 58.0219 96.1399 57.0169 94.9699C56.0119 93.7999 54.4744 90.9424 54.1519 90.0349C53.8369 89.1349 52.4044 86.1649 52.2394 85.6849C52.0744 85.2049 52.2394 84.2524 51.7069 84.1999C51.1744 84.1474 51.1744 85.3699 50.9644 85.6324C50.7544 85.8949 50.4844 86.1124 50.9119 87.4324C51.3394 88.7599 52.7719 91.9924 53.9344 93.7999C55.0969 95.6074 58.2319 99.1548 58.8694 99.6348C59.5069 100.115 59.6119 100.64 59.6119 101.277C59.6119 101.915 59.0794 104.51 59.0794 105.042C59.0794 105.575 59.0794 105.89 59.3419 106.1C59.6044 106.31 60.9844 106.152 61.3069 105.785C61.6219 105.41 61.6219 104.99 61.8919 104.832C62.1619 104.675 62.0494 105.68 62.0494 105.68C62.0494 105.68 62.7844 105.837 63.1069 105.252C63.9019 103.82 63.4819 101.33 63.4819 101.33L63.4894 101.337Z" fill="#92400E"/>
<path d="M54.4747 96.7253C54.4747 96.7253 52.6147 98.7428 52.3522 99.0578C52.0897 99.3728 51.2347 100.175 51.2347 100.333C51.2347 100.49 50.8597 103.145 50.8597 103.46C50.8597 103.775 50.2747 103.67 50.2747 103.67C50.2747 103.67 50.0647 103.033 49.8472 102.98C49.6297 102.928 48.7897 103.985 48.5722 104.098C48.3547 104.21 47.4022 104.045 47.1922 103.618C46.9822 103.19 47.8822 100.385 47.8822 100.22C47.8822 100.055 44.4322 96.5602 43.3747 92.7427C42.3172 88.9252 42.0997 83.6753 42.0472 83.3528C41.9947 83.0303 40.6147 81.9203 40.5622 81.7628C40.5097 81.6053 40.2472 81.3877 40.1872 81.2302C40.1272 81.0727 38.4397 79.2652 38.1172 78.3652C37.7947 77.4652 37.9597 76.2952 37.9597 76.2952L38.4397 75.5527C38.4397 75.5527 40.1872 78.4177 40.4047 78.7852C40.6222 79.1527 43.0597 82.1827 43.4797 82.4977C43.8997 82.8127 46.5547 85.0402 47.1397 85.3102C47.7247 85.5802 47.6197 86.7953 47.0347 86.6903C46.4497 86.5853 45.6547 86.1578 45.3397 85.7903C45.0247 85.4228 43.5397 83.9903 43.3222 83.7728C43.1047 83.5553 42.7897 85.3628 43.1122 86.2628C43.4347 87.1628 44.1172 94.5877 49.6372 98.8852C49.6372 98.8852 50.0647 99.4178 50.4847 99.2003C50.9047 98.9828 51.4372 97.9777 51.7072 97.7152C51.9772 97.4527 52.2397 97.0252 52.5022 96.9202C52.7647 96.8152 52.7647 96.4928 53.3497 96.4403C53.9347 96.3878 54.7822 96.3352 54.4672 96.7027L54.4747 96.7253Z" fill="#92400E"/>
<path d="M74.0194 20.3222C74.0194 20.3222 69.0844 17.1422 67.5769 16.7447C66.0619 16.3472 62.8069 15.9497 60.7369 16.8272C58.6669 17.7047 52.3069 21.1997 49.7569 23.9897C47.2144 26.7722 42.5194 32.1872 42.0394 32.9822C41.5594 33.7772 38.8594 39.5072 39.0169 40.3022C39.1744 41.0972 39.5419 45.5522 40.7344 46.0322C41.9269 46.5122 44.6644 47.6522 46.5769 46.8122C48.5944 45.9272 52.2244 38.5547 52.4644 37.9997C52.7044 37.4447 58.9894 29.2472 58.6669 28.5347C58.3444 27.8222 61.2919 23.4422 62.1694 22.6472C63.0469 21.8522 63.8419 22.0097 64.3144 22.2497C64.7869 22.4897 67.6594 23.5997 68.4544 25.1897C69.2494 26.7797 70.2019 29.3297 70.1269 30.5972C70.0444 31.8722 70.2844 35.1347 68.7769 36.8822C67.2619 38.6297 64.5619 40.0622 64.5619 40.9397C64.5619 41.8172 66.7894 42.3722 69.8944 41.0222C72.9994 39.6722 75.3844 38.3147 75.8644 36.6497C76.3444 34.9847 78.2494 23.5997 74.0344 20.3372L74.0194 20.3222Z" fill="#92400E"/>
<path d="M21.7521 43.7898C21.7521 43.4748 19.5246 42.3573 18.7296 40.8498C17.9346 39.3348 14.8296 29.1573 14.1171 28.0398C13.4046 26.9223 12.2046 22.3923 10.9371 22.7898C9.66213 23.1873 6.96213 24.5373 6.56463 26.2923C6.16713 28.0398 4.17963 31.1448 4.65213 32.8923C5.12463 34.6398 5.36463 35.7573 5.84464 36.3948C6.32464 37.0323 7.83213 37.9098 8.15463 37.9848C8.47714 38.0598 8.70963 38.8623 8.31213 39.1023C7.91463 39.3423 6.96213 40.1373 5.20713 39.5823C3.45963 39.0273 1.70463 36.6423 1.14963 34.4898C0.594635 32.3448 1.46463 27.4923 1.62963 27.0123C1.79463 26.5323 5.13213 19.3773 6.56463 18.1848C7.99713 16.9923 11.8146 15.8748 14.5971 17.6298C17.3796 19.3773 19.2096 20.5698 20.2446 22.6398C21.2796 24.7098 24.2196 27.8898 24.6996 29.6373C25.1796 31.3848 26.3721 36.0798 26.6871 36.5598C27.0021 37.0398 26.9271 38.2323 26.9271 38.2323C26.9271 38.2323 24.8571 39.6648 24.3846 40.0623C23.9121 40.4598 21.7596 43.8048 21.7596 43.8048L21.7521 43.7898Z" fill="#92400E"/>
<path d="M94.3665 80.7353C94.029 80.9228 93.639 80.8702 93.369 80.2777C93.0615 79.5952 93.7589 79.0553 94.3814 79.1003C95.4164 79.1678 95.0039 80.3827 94.3739 80.7427L94.3665 80.7353Z" fill="#92400E"/>
<path d="M82.1795 80.4804C81.7445 81.1404 80.792 81.5304 80.0495 80.6904C79.037 79.5354 80.507 78.4629 81.497 78.7629C82.532 79.0704 82.5695 79.8879 82.1795 80.4804Z" fill="#92400E"/>
<path d="M104.365 74.1876C103.907 74.7201 102.82 74.4351 102.392 73.9176C101.47 72.8001 102.775 72.1626 103.187 72.1251C103.907 72.0501 104.635 73.0476 104.552 73.7226C104.53 73.9176 104.455 74.0751 104.357 74.1876H104.365Z" fill="#92400E"/>
<path d="M82.2764 74.705C82.2764 74.705 81.6914 75.365 81.1139 74.63C80.5364 73.895 81.5114 73.3325 82.0064 73.4C82.5014 73.4675 82.8989 74 82.2764 74.6975V74.705Z" fill="#92400E"/>
<path d="M52.1868 80.8176C52.1868 80.8176 51.9393 80.825 54.3693 80.465C57.1743 80.0525 58.7643 79.505 58.7793 77.93C58.7943 76.61 59.0268 71.7576 59.5518 72.9426C60.0768 74.1201 60.0993 78.7625 61.9368 79.1525C63.7743 79.5425 65.8518 79.49 65.8518 79.9625C65.8518 80.7275 62.0868 79.73 61.5243 84.1175C61.1443 87.0725 60.7443 88.5526 60.3243 88.5576C59.5743 88.5576 59.3043 82.4225 57.9918 82.0325C56.6793 81.6425 52.1718 81.6501 52.1868 80.8176Z" fill="#92400E"/>
<path d="M75.8418 52.9331C75.8418 52.9856 75.9018 53.4281 75.9318 53.6981C75.9468 53.7881 76.0518 53.8331 76.1268 53.7731L76.6893 53.3006L77.6868 53.5781C77.7993 53.6081 77.8893 53.5031 77.8518 53.3981L77.5668 52.6481L77.8068 52.2056C77.8743 52.0781 77.7693 51.9206 77.6193 51.9506L77.0193 52.0556L76.5318 51.2681C76.4718 51.1781 76.3368 51.1856 76.2918 51.2831L75.8793 52.1531C75.8793 52.1531 74.9643 52.2881 74.9268 52.4006C74.8818 52.5281 75.8493 52.9556 75.8493 52.9556L75.8418 52.9331Z" fill="#92400E"/>
<path d="M72.0469 88.4976C72.0469 88.6101 72.1669 88.6776 72.2569 88.6176C72.4219 88.5051 72.6244 88.3627 72.6694 88.3327C72.7294 88.2877 73.4719 88.6776 73.8094 88.8576C73.8769 88.8951 73.9519 88.8351 73.9369 88.7601L73.7119 87.7326L74.5219 86.9227C74.5744 86.8702 74.5369 86.7877 74.4694 86.7877L73.4119 86.7426L73.0519 85.8051C73.0219 85.7226 72.9094 85.7152 72.8644 85.7902L72.2194 86.9152L71.2444 86.8627C71.1319 86.8627 71.0794 86.9902 71.1619 87.0652L72.0694 87.8751L72.0394 88.5052L72.0469 88.4976Z" fill="#92400E"/>
<path d="M62.7018 52.4009C62.7618 52.4234 62.6643 53.7059 62.7993 53.8184C62.9343 53.9309 63.7968 52.9634 63.9393 52.9784C64.1193 52.9934 65.9418 53.8334 66.0243 53.6159C66.1293 53.3459 65.2968 52.1084 65.2293 51.9584C65.1618 51.8084 66.0168 50.9684 66.1443 50.6834C66.1443 50.6834 66.3468 50.1884 64.5093 50.7659C64.5093 50.7659 63.8343 49.4534 63.6168 49.3109C63.3993 49.1684 62.8368 50.9384 62.8143 51.0434C62.7918 51.1484 61.4268 51.3284 61.2918 51.5384C61.1568 51.7484 61.9293 52.1234 62.7018 52.4084V52.4009Z" fill="#92400E"/>
<path d="M30.902 18.8755C30.5795 18.8755 30.212 17.9905 30.182 17.668C30.182 17.608 30.932 11.8705 26.1245 12.1705C25.892 12.1855 25.7645 11.878 25.742 11.6455C25.7195 11.413 25.8395 11.188 26.0345 11.0605C26.222 10.948 31.5695 12.0655 30.587 0.643021C30.557 0.298021 30.8645 0.0205078 31.2095 0.0205078C31.592 0.0580078 31.817 0.298021 31.8395 0.643021C32.3045 8.17302 30.017 11.188 36.9245 11.7805C37.187 11.803 37.3745 12.073 37.3895 12.3355C37.412 12.6055 37.262 12.853 37.0145 12.958C36.962 12.9805 31.052 12.0655 31.517 18.298C31.5395 18.6205 31.232 18.8755 30.902 18.883C30.902 18.883 30.902 18.883 30.8945 18.883L30.902 18.8755Z" fill="#92400E"/>
<path d="M35.0118 102.59C35.0118 102.59 33.8568 103.82 33.4668 103.955C33.4668 103.955 33.2043 104.083 33.1668 103.813C33.1293 103.543 33.0393 101.878 33.0843 101.66C33.0843 101.66 30.5268 100.393 30.4968 100.318C30.4668 100.243 30.1968 100.115 30.4893 99.8678C30.6993 99.6878 33.4593 99.4854 33.4593 99.4854C33.4593 99.4854 34.3743 97.0179 34.4643 96.8004C34.5543 96.5829 34.8168 96.5004 35.0043 96.7254C35.1918 96.9504 36.0018 98.9754 36.0018 98.9754C36.0018 98.9754 38.3343 98.4354 38.5518 98.4804C38.7693 98.5254 38.8593 98.7129 38.7543 98.8779C38.6493 99.0429 37.0443 100.858 37.0443 100.858L38.4243 103.618C38.4243 103.618 38.5893 104.3 37.8843 104.015C37.1718 103.73 35.0268 102.605 35.0268 102.605L35.0118 102.59Z" fill="#92400E"/>
<path d="M12.5939 63.3573C12.8864 63.5523 13.0139 63.8898 12.6389 64.3623C12.2114 64.8948 11.4839 64.5573 11.2589 64.0398C10.8764 63.1698 12.0389 62.9973 12.5939 63.3573Z" fill="#92400E"/>
<path d="M6.06152 62.6903C6.77402 62.7653 7.50152 63.3803 7.12652 64.3328C6.61652 65.6453 5.12402 64.9027 4.95152 63.9652C4.77152 62.9977 5.41652 62.6228 6.06152 62.6903Z" fill="#92400E"/>
<path d="M8.97898 56.2327C9.60148 56.3752 9.83398 57.3877 9.58648 57.9502C9.06148 59.1652 7.99648 58.3702 7.79398 58.0552C7.43398 57.5002 7.93648 56.4877 8.51398 56.2777C8.68648 56.2177 8.83648 56.2027 8.97148 56.2402L8.97898 56.2327Z" fill="#92400E"/>
<path d="M8.79897 67.9331C8.79897 67.9331 9.58647 68.1356 9.22647 68.9081C8.86647 69.6881 8.00397 69.133 7.85397 68.698C7.70397 68.263 7.96647 67.7156 8.79897 67.9331Z" fill="#92400E"/>
<path d="M86.9863 37.1674C87.0088 38.0224 86.9713 38.9824 88.2013 38.6974C89.4313 38.4124 92.9788 36.2149 93.4588 36.4474C93.9388 36.6799 94.4713 38.4574 94.9588 39.8974C95.4463 41.3374 96.0313 42.7174 96.5188 41.8624C96.5188 41.8624 97.5463 41.4499 96.8713 38.1574C96.1963 34.8649 95.5663 34.7524 96.1963 34.8649C96.8263 34.9774 100.876 33.0949 100.666 32.1874C100.456 31.2799 97.4413 31.2949 95.8438 31.4899C95.8438 31.4899 95.9338 30.0049 95.5363 28.2799C95.1388 26.5624 94.5388 24.7174 93.7363 24.9874C92.9338 25.2574 91.9663 29.2774 91.3888 29.7574C90.8113 30.2374 88.1338 28.0099 87.3163 28.1974C86.4988 28.3849 87.9763 31.4074 89.4613 32.6224C89.4613 32.6224 86.9488 36.3124 86.9788 37.1674H86.9863ZM90.9538 32.7049C89.2738 30.6799 90.4138 31.1074 91.6213 31.8574C92.8288 32.6149 93.2263 30.9649 93.7663 30.3274C94.3063 29.6899 93.8788 31.9399 93.9538 32.6149C94.0213 33.2899 96.5788 32.7799 97.0813 33.0649C97.5763 33.3499 94.5613 34.1149 95.1013 34.9399C95.6413 35.7649 96.0313 38.9524 96.0313 38.9524C95.7838 40.4749 95.3488 37.1224 94.4713 35.9449C93.5938 34.7674 93.0688 34.7149 92.2288 35.2174C91.3963 35.7124 86.6563 38.3599 88.7038 36.0349C90.7513 33.7099 90.9538 32.7049 90.9538 32.7049Z" fill="#92400E"/>
<path d="M114.526 96.8301C114.384 96.8301 114.241 96.8001 114.114 96.7251C113.934 96.6126 113.844 96.4101 113.761 96.2226C113.206 94.9926 112.576 93.9426 111.676 92.9376C111.541 92.7876 111.309 92.9076 111.339 93.1026C111.496 94.0851 111.594 95.0826 111.624 96.0801C111.624 96.2376 111.624 96.4176 111.526 96.5376C111.406 96.6876 111.196 96.7026 111.001 96.7101C109.749 96.7551 108.489 96.7401 107.236 96.6576C107.019 96.6426 106.899 96.9051 107.064 97.0476C107.941 97.8426 108.984 98.4576 110.101 98.8476C110.244 98.9001 110.401 98.9526 110.484 99.0801C110.611 99.2826 110.499 99.5451 110.386 99.7551C109.921 100.61 108.969 101.615 109.336 102.47C109.366 102.545 109.456 102.583 109.531 102.56C109.839 102.463 110.671 102.103 112.126 100.798C113.424 99.6351 115.179 100.843 116.799 101.278C116.949 101.315 117.136 101.345 117.234 101.225C117.346 101.09 117.234 100.888 117.136 100.745C116.589 100.003 115.441 99.0426 115.966 98.0301C116.049 97.8726 117.916 96.2751 117.564 96.0276C116.964 95.6226 115.666 96.8526 114.526 96.8151V96.8301Z" fill="#92400E"/>
<path d="M102.498 24.7176C103.465 23.5626 104.448 22.4151 105.445 21.2751C106 20.6451 106.293 19.7601 106.63 18.9201C106.968 18.0876 107.358 17.3001 108.273 16.9326" fill="#92400E"/>
<path d="M102.175 25.0399C102.01 24.8749 101.995 24.6124 102.145 24.4249C103.112 23.2699 104.102 22.1074 105.1 20.9749C105.52 20.4949 105.782 19.8274 106.06 19.1149L106.202 18.7474C106.57 17.8474 107.012 16.9399 108.092 16.5124C108.325 16.4224 108.587 16.5349 108.677 16.7674C108.767 16.9999 108.655 17.2624 108.422 17.3524C107.672 17.6524 107.35 18.3199 107.035 19.0924L106.892 19.4449C106.6 20.1949 106.3 20.9749 105.767 21.5749C104.777 22.7074 103.795 23.8624 102.827 25.0099C102.67 25.1974 102.385 25.2274 102.19 25.0624C102.182 25.0624 102.175 25.0474 102.167 25.0399H102.175Z" fill="#92400E"/>
<path d="M97.7129 19.9407C98.1779 18.0132 100.6 12.3657 101.568 10.6182L97.7129 19.9407Z" fill="#92400E"/>
<path d="M97.3973 20.2628C97.2848 20.1578 97.2323 19.9928 97.2698 19.8353C97.8023 17.6228 100.277 12.0128 101.162 10.4003C101.282 10.1828 101.56 10.1003 101.777 10.2203C101.995 10.3403 102.077 10.6178 101.95 10.8353C101.095 12.3728 98.6573 17.9078 98.1398 20.0453C98.0798 20.2853 97.8398 20.4353 97.5923 20.3753C97.5098 20.3528 97.4423 20.3153 97.3823 20.2628H97.3973Z" fill="#92400E"/>
<path d="M94.2329 20.5333C94.7279 19.4308 94.6154 18.1633 94.7729 16.9633C94.9529 15.6808 95.5529 14.4958 96.2129 13.3633" fill="#92400E"/>
<path d="M93.9177 20.8555C93.7827 20.728 93.7377 20.5255 93.8202 20.3455C94.1277 19.663 94.1727 18.8905 94.2252 18.073C94.2477 17.6905 94.2702 17.293 94.3227 16.903C94.5177 15.523 95.1627 14.278 95.8227 13.138C95.9502 12.9205 96.2277 12.853 96.4377 12.973C96.6552 13.1005 96.7227 13.378 96.6027 13.588C95.9877 14.6455 95.3877 15.8005 95.2152 17.023C95.1702 17.383 95.1477 17.743 95.1177 18.1255C95.0652 18.988 95.0127 19.8805 94.6302 20.713C94.5252 20.938 94.2627 21.043 94.0302 20.938C93.9777 20.9155 93.9402 20.8855 93.9027 20.848L93.9177 20.8555Z" fill="#92400E"/>
<path d="M119.979 71.6375C119.792 71.1875 119.919 70.7 120.714 70.4525C121.614 70.175 122.184 71.1275 122.042 71.9C121.802 73.19 120.332 72.485 119.979 71.6375Z" fill="#92400E"/>
<path d="M126.924 77.4881C126.167 76.8431 125.814 75.5831 126.984 74.7806C128.589 73.6856 129.714 75.6956 129.189 76.8956C128.642 78.1481 127.614 78.0731 126.924 77.4881Z" fill="#92400E"/>
<path d="M118.547 82.5951C117.947 81.9426 118.472 80.6151 119.184 80.1576C120.729 79.1751 121.329 80.9151 121.314 81.4401C121.292 82.3551 119.927 83.1201 119.102 82.9101C118.854 82.8501 118.674 82.7376 118.547 82.5951Z" fill="#92400E"/>
<path d="M127.877 69.3656C127.877 69.3656 127.134 68.5256 128.147 67.9181C129.159 67.3106 129.714 68.6156 129.549 69.2306C129.384 69.8456 128.657 70.2656 127.877 69.3656Z" fill="#92400E"/>
<path d="M45.9395 6.20002C45.752 5.75002 45.8795 5.26253 46.6745 5.01503C47.5745 4.73753 48.1445 5.69002 48.002 6.46252C47.762 7.75252 46.292 7.04752 45.9395 6.20002Z" fill="#92400E"/>
<path d="M53.844 3.92808C53.844 3.92808 53.1015 3.08808 54.114 2.48058C55.1265 1.87308 55.6815 3.17808 55.5165 3.79308C55.3515 4.40808 54.624 4.82808 53.844 3.92808Z" fill="#92400E"/>
<path d="M81.6919 32.8328C81.5044 32.3828 81.6319 31.8953 82.4269 31.6478C83.3269 31.3703 83.8969 32.3228 83.7544 33.0953C83.5144 34.3853 82.0444 33.6803 81.6919 32.8328Z" fill="#92400E"/>
<path d="M108.047 31.7455C108.047 31.7455 107.305 30.9055 108.317 30.298C109.33 29.6905 109.885 30.9955 109.72 31.6105C109.555 32.2255 108.827 32.6455 108.047 31.7455Z" fill="#92400E"/>
</svg>
