<svg width="73" height="67" viewBox="0 0 73 67" fill="none" xmlns="http://www.w3.org/2000/svg">
<g filter="url(#filter0_d_238_369)">
<path d="M54.591 27.0302C52.6434 22.6663 48.0014 19.9133 43.2861 20.3673C41.2799 20.5577 39.5081 21.3484 38.0583 22.5931C37.2969 20.9823 36.1107 19.6058 34.4853 18.6101C30.4583 16.1353 25.084 16.5453 21.4085 19.6205C17.8501 22.5931 17.4108 26.093 17.6743 28.4945C17.9672 31.145 19.3584 33.9566 20.7202 34.6595C21.8039 35.2013 23.1364 34.7913 23.6929 33.7077C24.1761 32.7705 23.9125 31.6429 23.1364 30.9986C22.8436 30.6032 21.8917 28.9046 22.0528 26.9277C22.17 25.4194 22.8875 24.1454 24.2494 23.0178C26.4606 21.1727 29.7993 20.9091 32.2009 22.3881C34.3388 23.706 35.1296 26.093 34.4267 29.1096L30.3411 46.7259C30.0629 47.912 30.7951 49.0982 31.9959 49.3764C33.182 49.6546 34.3681 48.9078 34.6464 47.7217L38.8052 29.8417C39.5081 26.8251 41.2653 25.024 43.7547 24.7897C46.5663 24.5261 49.4365 26.2248 50.608 28.8606C51.3255 30.4714 51.4134 31.9504 50.8569 33.3416C50.1247 35.2013 48.5139 36.2996 48.0893 36.5193C47.0935 36.7389 46.3613 37.6468 46.3759 38.7012C46.4052 39.9166 47.401 40.8831 48.6164 40.8684C50.1394 40.8391 52.6434 38.9208 54.0639 36.6803C55.3672 34.6302 56.524 31.3061 54.635 27.0741L54.591 27.0302Z" fill="#3C2400"/>
</g>
<defs>
<filter id="filter0_d_238_369" x="0.964926" y="0.353598" width="71.3104" height="65.7284" filterUnits="userSpaceOnUse" color-interpolation-filters="sRGB">
<feFlood flood-opacity="0" result="BackgroundImageFix"/>
<feColorMatrix in="SourceAlpha" type="matrix" values="0 0 0 0 0 0 0 0 0 0 0 0 0 0 0 0 0 0 127 0" result="hardAlpha"/>
<feOffset/>
<feGaussianBlur stdDeviation="8.3232"/>
<feColorMatrix type="matrix" values="0 0 0 0 1 0 0 0 0 1 0 0 0 0 1 0 0 0 0.75 0"/>
<feBlend mode="normal" in2="BackgroundImageFix" result="effect1_dropShadow_238_369"/>
<feBlend mode="normal" in="SourceGraphic" in2="effect1_dropShadow_238_369" result="shape"/>
</filter>
</defs>
</svg>
