<svg width="18" height="18" viewBox="0 0 18 18" fill="none" xmlns="http://www.w3.org/2000/svg">
<path d="M14.8332 2.44108H13.1665V1.60775C13.1665 1.38673 13.0787 1.17477 12.9224 1.01849C12.7661 0.862211 12.5542 0.774414 12.3332 0.774414C12.1122 0.774414 11.9002 0.862211 11.7439 1.01849C11.5876 1.17477 11.4998 1.38673 11.4998 1.60775V2.44108H6.49984V1.60775C6.49984 1.38673 6.41204 1.17477 6.25576 1.01849C6.09948 0.862211 5.88752 0.774414 5.6665 0.774414C5.44549 0.774414 5.23353 0.862211 5.07725 1.01849C4.92097 1.17477 4.83317 1.38673 4.83317 1.60775V2.44108H3.1665C2.50346 2.44108 1.86758 2.70447 1.39874 3.17331C0.929896 3.64215 0.666504 4.27804 0.666504 4.94108V14.9411C0.666504 15.6041 0.929896 16.24 1.39874 16.7088C1.86758 17.1777 2.50346 17.4411 3.1665 17.4411H14.8332C15.4962 17.4411 16.1321 17.1777 16.6009 16.7088C17.0698 16.24 17.3332 15.6041 17.3332 14.9411V4.94108C17.3332 4.27804 17.0698 3.64215 16.6009 3.17331C16.1321 2.70447 15.4962 2.44108 14.8332 2.44108ZM15.6665 14.9411C15.6665 15.1621 15.5787 15.3741 15.4224 15.5303C15.2661 15.6866 15.0542 15.7744 14.8332 15.7744H3.1665C2.94549 15.7744 2.73353 15.6866 2.57725 15.5303C2.42097 15.3741 2.33317 15.1621 2.33317 14.9411V9.10775H15.6665V14.9411ZM15.6665 7.44108H2.33317V4.94108C2.33317 4.72007 2.42097 4.50811 2.57725 4.35183C2.73353 4.19555 2.94549 4.10775 3.1665 4.10775H4.83317V4.94108C4.83317 5.16209 4.92097 5.37406 5.07725 5.53034C5.23353 5.68662 5.44549 5.77441 5.6665 5.77441C5.88752 5.77441 6.09948 5.68662 6.25576 5.53034C6.41204 5.37406 6.49984 5.16209 6.49984 4.94108V4.10775H11.4998V4.94108C11.4998 5.16209 11.5876 5.37406 11.7439 5.53034C11.9002 5.68662 12.1122 5.77441 12.3332 5.77441C12.5542 5.77441 12.7661 5.68662 12.9224 5.53034C13.0787 5.37406 13.1665 5.16209 13.1665 4.94108V4.10775H14.8332C15.0542 4.10775 15.2661 4.19555 15.4224 4.35183C15.5787 4.50811 15.6665 4.72007 15.6665 4.94108V7.44108Z" fill="#78716C"/>
</svg>
