<svg width="170" height="90" viewBox="0 0 170 90" fill="none" xmlns="http://www.w3.org/2000/svg">
<path d="M32.0222 57.3254C32.0222 57.3254 32.0147 57.3254 32.0072 57.3254C31.8722 57.3254 31.7672 57.2129 31.7597 57.0779C31.7597 57.0554 31.5872 54.5054 30.1097 53.8604C29.9297 53.7854 29.9147 53.6429 29.9072 53.5904C29.9072 53.3879 30.0647 53.3054 30.2597 53.2154C30.7547 52.9679 31.8797 52.4129 32.1197 50.4779C32.1272 50.2454 32.1572 50.1029 32.1572 50.0954C32.1872 49.9604 32.3072 49.8704 32.4497 49.8854C32.5847 49.9004 32.6897 50.0204 32.6747 50.1629C32.6672 50.3054 32.6522 50.4479 32.6372 50.5829C32.6222 51.2954 32.8397 52.8029 34.8122 53.3729C34.9172 53.4029 34.9922 53.4929 34.9997 53.5979C35.0072 53.7029 34.9547 53.8079 34.8572 53.8604C34.8347 53.8754 32.6372 55.0154 32.2772 57.1154C32.2547 57.2429 32.1497 57.3329 32.0222 57.3329V57.3254Z" fill="#92400E"/>
<path d="M135.455 52.9004C135.515 52.9229 135.417 54.1904 135.545 54.3029C135.672 54.4154 136.535 53.4554 136.677 53.4704C136.857 53.4854 138.657 54.318 138.747 54.1005C138.852 53.8305 138.027 52.6079 137.96 52.4579C137.892 52.3079 138.74 51.4754 138.867 51.1904C138.867 51.1904 139.07 50.6955 137.247 51.273C137.247 51.273 136.58 49.9755 136.362 49.8255C136.145 49.6755 135.59 51.4379 135.56 51.5429C135.53 51.6479 134.18 51.8204 134.052 52.0379C133.925 52.2554 134.682 52.6154 135.455 52.9004Z" fill="#92400E"/>
<path d="M32.4652 10.623C32.4652 10.623 32.1728 10.6306 35.0828 10.2031C38.4503 9.70805 40.3553 9.04805 40.3778 7.15805C40.4003 5.57555 40.6702 -0.251938 41.3002 1.16556C41.9302 2.58306 41.9603 8.14806 44.1653 8.62056C46.3703 9.09306 48.8678 9.02555 48.8678 9.59555C48.8678 10.5181 44.3452 9.31805 43.6702 14.583C43.2152 18.133 42.7352 19.9081 42.2302 19.9081C41.3302 19.9081 41.0078 12.5431 39.4328 12.0706C37.8578 11.5981 32.4428 11.6131 32.4578 10.6156L32.4652 10.623Z" fill="#92400E"/>
<path d="M49.985 86.2528C49.985 86.2528 48.7475 84.8878 48.6725 84.6928C48.5975 84.4978 47.6449 86.1103 47.0074 86.3203C46.3699 86.5303 47.6899 84.0853 47.8249 83.5153C47.9599 82.9453 46.2049 81.7003 46.0624 81.4528C45.9199 81.2053 48.0724 81.5653 48.6199 81.6853C49.1674 81.8053 49.5424 79.8703 50.1349 79.8478C50.5024 79.8328 50.0224 81.4678 50.1199 82.0378C50.1199 82.0378 51.7699 81.6703 52.0774 82.0078C52.3474 82.3153 50.8549 83.0428 50.2474 83.4028C49.8724 83.6278 50.2699 84.9778 50.2474 86.1328C50.2399 86.5603 49.9774 86.2603 49.9774 86.2603L49.985 86.2528Z" fill="#92400E"/>
<path d="M26.3448 30.4229C26.3448 30.4229 25.3398 31.4954 24.9948 31.6154C24.9948 31.6154 24.7623 31.7279 24.7323 31.4879C24.7023 31.2479 24.6198 29.8004 24.6573 29.6129C24.6573 29.6129 22.4223 28.5029 22.3923 28.4429C22.3623 28.3829 22.1298 28.2629 22.3848 28.0529C22.5723 27.8954 24.9798 27.7154 24.9798 27.7154C24.9798 27.7154 25.7748 25.5629 25.8573 25.3679C25.9398 25.1729 26.1648 25.1054 26.3298 25.3004C26.4948 25.4954 27.1998 27.2579 27.1998 27.2579C27.1998 27.2579 29.2398 26.7854 29.4273 26.8304C29.6148 26.8754 29.6973 27.0329 29.5998 27.1754C29.5023 27.3179 28.1073 28.9004 28.1073 28.9004L29.3148 31.3079C29.3148 31.3079 29.4648 31.9004 28.8423 31.6529C28.2198 31.4054 26.3448 30.4229 26.3448 30.4229Z" fill="#92400E"/>
<path d="M132.425 75.0632C132.425 75.1232 132.485 75.5732 132.523 75.8507C132.538 75.9482 132.65 75.9857 132.718 75.9257L133.295 75.4382L134.323 75.7232C134.435 75.7532 134.533 75.6482 134.495 75.5357L134.203 74.7632L134.45 74.3057C134.525 74.1707 134.405 74.0132 134.255 74.0432L133.64 74.1482L133.138 73.3382C133.078 73.2407 132.935 73.2482 132.89 73.3532L132.463 74.2457C132.463 74.2457 131.518 74.3807 131.488 74.5007C131.443 74.6357 132.44 75.0707 132.44 75.0707L132.425 75.0632Z" fill="#92400E"/>
<path d="M16.5125 80.8984C16.565 80.9134 16.4825 82.0384 16.595 82.1359C16.7075 82.2334 17.465 81.3859 17.5925 81.4009C17.75 81.4159 19.34 82.1509 19.415 81.9559C19.505 81.7234 18.785 80.6359 18.7175 80.5084C18.65 80.3809 19.4 79.6459 19.52 79.3984C19.52 79.3984 19.6925 78.9634 18.095 79.4659C18.095 79.4659 17.51 78.3259 17.315 78.1909C17.12 78.0559 16.64 79.6084 16.61 79.7059C16.58 79.8034 15.395 79.9534 15.2825 80.1409C15.17 80.3284 15.8375 80.6509 16.5125 80.8984Z" fill="#92400E"/>
<path d="M137.098 38.2227C137.383 38.1102 137.69 38.2002 137.833 38.7102C137.99 39.2877 137.375 39.6252 136.888 39.5202C136.078 39.3402 136.558 38.4327 137.098 38.2302V38.2227Z" fill="#92400E"/>
<path d="M133.266 42.4827C133.686 42.0177 134.496 41.8227 134.976 42.5802C135.636 43.6152 134.346 44.2827 133.596 43.9227C132.816 43.5552 132.883 42.9027 133.266 42.4827Z" fill="#92400E"/>
<path d="M130.213 37.0906C130.64 36.7231 131.465 37.0907 131.735 37.5407C132.32 38.5382 131.218 38.8757 130.88 38.8607C130.303 38.8307 129.853 37.9531 130.003 37.4356C130.048 37.2856 130.123 37.1656 130.213 37.0906Z" fill="#92400E"/>
<path d="M138.365 43.2557C138.365 43.2557 138.913 42.8057 139.273 43.4582C139.633 44.1107 138.8 44.4332 138.418 44.3132C138.035 44.1932 137.788 43.7282 138.365 43.2557Z" fill="#92400E"/>
<path d="M38.0148 25.6456C38.1273 25.6306 38.0448 25.6456 38.0148 25.6906C37.9773 25.7356 37.9323 25.7956 37.8873 25.8556C37.8048 25.9831 37.7223 26.1181 37.6473 26.2681C37.5048 26.5606 37.3698 26.8681 37.2573 27.1831C37.0323 27.8131 36.8298 28.4506 36.6723 29.0956C36.5973 29.4181 36.5223 29.7331 36.4698 30.0481C36.4173 30.3481 36.3723 30.6856 36.3948 30.8581C36.4248 31.0681 36.4998 31.2331 36.6273 31.3681C36.7623 31.4956 36.9648 31.6231 37.2123 31.6606C37.6998 31.7506 38.3148 31.5556 38.5848 31.0756C38.7273 30.8431 38.7649 30.5506 38.7874 30.2131C38.8099 29.8831 38.8098 29.5531 38.8023 29.2156C38.7648 28.5481 38.6898 27.8731 38.5473 27.2206C38.4798 26.8906 38.3898 26.5681 38.2848 26.2606C38.2323 26.1106 38.1648 25.9606 38.0973 25.8256C38.0598 25.7581 38.0224 25.7056 37.9924 25.6606C37.9624 25.6081 37.9173 25.6306 38.0148 25.6381V25.6456ZM38.0148 25.0381C38.2848 25.0606 38.3823 25.2106 38.4573 25.2931C38.5323 25.3906 38.5773 25.4806 38.6223 25.5631C38.7048 25.7356 38.7648 25.9081 38.8173 26.0806C38.9223 26.4256 38.9973 26.7631 39.0648 27.1081C39.1923 27.7981 39.2898 28.4806 39.3423 29.1781C39.3723 29.5231 39.3873 29.8756 39.3873 30.2281C39.3798 30.5656 39.3723 30.9781 39.1923 31.3606C38.8623 32.1331 38.0448 32.6581 37.1823 32.6731C36.7473 32.6731 36.2673 32.5831 35.8773 32.2681C35.4723 31.9681 35.2399 31.4731 35.1799 31.0081C35.1424 30.4981 35.2173 30.1531 35.2998 29.7856C35.3898 29.4256 35.5023 29.0881 35.6298 28.7581C35.8848 28.0981 36.1848 27.4606 36.5223 26.8381C36.6948 26.5306 36.8673 26.2231 37.0623 25.9231C37.1598 25.7731 37.2573 25.6231 37.3773 25.4731C37.4373 25.3981 37.4973 25.3231 37.5798 25.2481C37.6698 25.1806 37.7298 25.0681 38.0148 25.0381Z" fill="#92400E"/>
<path d="M79.9028 4.66801C80.1728 4.65301 80.2928 4.78801 80.3753 4.85551C80.4578 4.93801 80.5178 5.02052 80.5778 5.10302C80.6828 5.26802 80.7653 5.42552 80.8403 5.59052C80.9903 5.92052 81.1178 6.24301 81.2303 6.57301C81.4478 7.23301 81.6428 7.90051 81.7928 8.58301C81.8678 8.92051 81.9353 9.26551 81.9803 9.61801C82.0178 9.95551 82.0703 10.3605 81.9503 10.7655C81.7328 11.5755 80.9978 12.2055 80.1353 12.3405C79.7078 12.408 79.2203 12.378 78.7853 12.1155C78.3428 11.8755 78.0428 11.418 77.9153 10.9605C77.8028 10.4655 77.8403 10.113 77.8703 9.73051C77.9078 9.36301 77.9678 9.01052 78.0578 8.66552C78.2228 7.97552 78.4253 7.30051 78.6803 6.64051C78.8078 6.31051 78.9353 5.98051 79.0853 5.65801C79.1603 5.49301 79.2353 5.32802 79.3328 5.17052C79.3853 5.08802 79.4303 5.00552 79.5053 4.91552C79.5878 4.83302 79.6253 4.72051 79.9103 4.64551L79.9028 4.66801Z" fill="#92400E"/>
<path d="M23.2027 75.0483C23.0227 75.0483 22.8202 74.5533 22.7977 74.3733C22.7977 74.3433 23.2177 71.1258 20.5252 71.2908C20.3977 71.2983 20.3227 71.1258 20.3077 70.9983C20.2927 70.8708 20.3602 70.7433 20.4727 70.6758C20.5777 70.6083 23.5702 71.2383 23.0227 64.8408C23.0077 64.6458 23.1802 64.4883 23.3752 64.4883C23.5927 64.5108 23.7127 64.6458 23.7277 64.8333C23.9902 69.0483 22.7077 70.7433 26.5777 71.0733C26.7277 71.0883 26.8252 71.2383 26.8402 71.3883C26.8552 71.5383 26.7652 71.6808 26.6302 71.7408C26.6002 71.7558 23.2853 71.2383 23.5553 74.7333C23.5703 74.9133 23.3902 75.0558 23.2102 75.0633L23.2027 75.0483Z" fill="#92400E"/>
<path d="M118.22 75.348C118.22 75.348 118.145 75.4005 118.1 75.438C118.017 75.513 117.95 75.603 117.882 75.693C117.747 75.873 117.635 76.0755 117.545 76.2705C117.35 76.6755 117.215 77.0955 117.125 77.523C117.087 77.733 117.057 77.9505 117.05 78.168C117.042 78.393 117.05 78.5805 117.17 78.7455C117.395 79.0905 117.972 79.293 118.452 79.3005C118.7 79.308 118.902 79.2555 119.045 79.188C119.18 79.1205 119.27 79.023 119.315 78.888C119.36 78.7755 119.337 78.558 119.315 78.3555C119.285 78.1455 119.24 77.9355 119.195 77.718C119.097 77.283 118.962 76.848 118.79 76.413C118.707 76.1955 118.602 75.9855 118.49 75.7755C118.43 75.6705 118.362 75.573 118.295 75.483C118.257 75.438 118.22 75.393 118.19 75.363C118.167 75.3255 118.092 75.3105 118.19 75.333C118.28 75.333 118.242 75.318 118.212 75.348H118.22ZM118.835 75.153C118.895 75.2206 118.94 75.288 118.977 75.348C119.06 75.4755 119.12 75.5955 119.18 75.723C119.3 75.9705 119.405 76.2105 119.502 76.4505C119.697 76.938 119.855 77.4255 119.975 77.928C120.035 78.1755 120.08 78.4305 120.095 78.6855C120.11 78.948 120.117 79.1955 119.997 79.5255C119.862 79.818 119.57 80.0955 119.165 80.208C118.58 80.3655 117.92 80.388 117.335 80.208C116.9 80.073 116.495 79.758 116.345 79.323C116.21 78.9255 116.292 78.4605 116.39 78.0705C116.442 77.8305 116.517 77.6055 116.607 77.3805C116.772 76.9305 116.975 76.4955 117.2 76.068C117.32 75.858 117.447 75.648 117.59 75.438C117.665 75.333 117.747 75.2355 117.852 75.138C117.905 75.0855 117.965 75.0405 118.04 74.9955C118.115 74.958 118.227 74.883 118.475 74.928C118.722 75.0105 118.752 75.1005 118.827 75.168L118.835 75.153Z" fill="#92400E"/>
<path d="M127.857 80.4034C128.127 80.3884 128.247 80.5234 128.33 80.5909C128.412 80.6734 128.472 80.7558 128.532 80.8383C128.637 81.0033 128.72 81.1609 128.795 81.3259C128.945 81.6559 129.072 81.9784 129.185 82.3084C129.402 82.9684 129.597 83.6359 129.747 84.3184C129.822 84.6559 129.89 85.0009 129.935 85.3534C129.972 85.6909 130.025 86.0958 129.905 86.5008C129.687 87.3108 128.952 87.9409 128.09 88.0759C127.662 88.1434 127.175 88.1134 126.74 87.8509C126.297 87.6109 125.997 87.1533 125.87 86.6958C125.757 86.2008 125.795 85.8484 125.825 85.4659C125.862 85.0984 125.922 84.7458 126.012 84.4008C126.177 83.7108 126.38 83.0358 126.635 82.3758C126.762 82.0458 126.89 81.7158 127.04 81.3933C127.115 81.2283 127.19 81.0634 127.287 80.9059C127.34 80.8234 127.385 80.7408 127.46 80.6508C127.542 80.5683 127.58 80.4559 127.865 80.3809L127.857 80.4034Z" fill="#92400E"/>
<path d="M130.167 59.8005C130.28 59.7705 130.197 59.8005 130.175 59.8455C130.137 59.8905 130.1 59.958 130.07 60.0255C130.002 60.1605 129.935 60.3105 129.882 60.4605C129.77 60.768 129.672 61.0905 129.597 61.413C129.44 62.0655 129.32 62.7255 129.23 63.378C129.192 63.708 129.147 64.0305 129.132 64.3455C129.11 64.6455 129.102 64.9905 129.155 65.163C129.207 65.3655 129.297 65.5305 129.447 65.643C129.597 65.7555 129.815 65.8605 130.062 65.868C130.557 65.898 131.15 65.643 131.36 65.133C131.472 64.8855 131.48 64.593 131.465 64.248C131.45 63.918 131.412 63.588 131.367 63.258C131.255 62.598 131.105 61.938 130.887 61.3005C130.782 60.9855 130.662 60.6705 130.52 60.378C130.445 60.2355 130.37 60.093 130.287 59.973C130.242 59.913 130.197 59.8605 130.16 59.823C130.122 59.778 130.085 59.8005 130.182 59.8005H130.167ZM130.1 59.2005C130.37 59.193 130.482 59.328 130.565 59.403C130.647 59.4855 130.707 59.5755 130.76 59.658C130.865 59.823 130.94 59.988 131.015 60.153C131.157 60.483 131.27 60.813 131.375 61.1505C131.577 61.818 131.75 62.493 131.885 63.1755C131.952 63.5205 132.012 63.8655 132.042 64.218C132.072 64.5555 132.117 64.968 131.982 65.3655C131.742 66.168 130.992 66.783 130.13 66.8955C129.702 66.948 129.215 66.903 128.787 66.6405C128.352 66.3855 128.067 65.9205 127.947 65.463C127.85 64.9605 127.895 64.608 127.932 64.233C127.985 63.8655 128.052 63.513 128.15 63.168C128.33 62.478 128.555 61.818 128.825 61.1655C128.96 60.843 129.095 60.513 129.26 60.1905C129.342 60.033 129.425 59.868 129.522 59.703C129.575 59.6205 129.627 59.538 129.702 59.4555C129.785 59.3805 129.83 59.2605 130.115 59.2005H130.1Z" fill="#92400E"/>
<path d="M69.3947 10.9677C69.0272 10.2627 68.7272 11.6202 67.7672 13.8102C66.8072 16.0002 65.4047 17.8527 64.7372 18.4827C64.0697 19.1127 61.1447 21.7077 59.9522 22.1727C58.7597 22.6452 57.9047 22.8477 57.9047 22.8477C57.8672 21.7302 58.2647 20.6802 58.8872 18.6777C59.5097 16.6752 61.8197 13.7502 62.2322 13.2252C62.6447 12.7002 63.5597 11.7177 62.9447 11.3952C62.3297 11.0727 61.9097 11.2602 61.2272 11.4552C60.5447 11.6502 58.0847 12.7677 57.0797 13.5777C56.0747 14.3877 54.0422 15.5727 52.6172 18.1227C51.1922 20.6727 50.9597 22.0527 50.5397 23.2152C50.1197 24.3777 48.7697 26.0052 48.4622 26.3877C47.6822 27.3552 46.5872 28.2777 45.9347 30.6252C45.2822 32.9727 45.5896 34.5102 45.4471 35.4252C45.3046 36.3327 44.8622 36.0477 44.2322 36.3702C43.6022 36.6927 43.0847 36.9252 43.1072 37.4877C43.1297 38.0502 44.9822 38.2002 45.6422 38.4777C46.3022 38.7552 46.4747 38.8377 49.4672 39.3852C52.4597 39.9327 52.9547 39.2652 52.9547 39.2652C53.2772 38.5677 53.2847 37.7427 53.2847 37.7427C53.6972 36.2877 55.3772 36.3177 56.3972 35.3802C57.2522 34.5927 58.4522 33.7827 59.2397 32.9352C60.4922 31.5852 61.4597 29.6652 62.4797 28.1277C63.2972 26.8902 67.5572 24.0777 69.0947 21.1827C70.8422 17.8902 71.2922 14.5977 69.3947 10.9827V10.9677ZM51.5897 23.0952C51.5897 23.0952 52.2947 21.3927 53.2697 19.5477C54.2447 17.7027 55.6697 16.5402 57.7172 14.6577C59.7647 12.7827 60.9722 12.7377 61.1447 12.8652C61.3172 12.9927 60.7022 13.6977 60.7022 13.6977C59.7422 14.5452 58.3997 16.9227 57.9572 17.8002C57.5147 18.6777 56.9147 22.6152 56.8022 23.0052C56.6897 23.3952 55.9547 23.4627 55.1822 23.5077C54.4097 23.5527 52.2272 24.1077 51.7847 24.0852C51.3422 24.0552 51.6047 23.1027 51.6047 23.1027L51.5897 23.0952ZM69.2072 17.0277C68.8547 18.0327 68.6222 18.7677 68.0522 19.8252C67.4822 20.8827 67.0772 21.6702 66.2972 22.5777C65.8847 23.0577 64.8047 24.4602 63.4772 25.8852C62.1497 27.3102 60.9872 28.6002 60.1697 29.9577C59.3522 31.3227 57.6722 32.5377 55.3172 34.3002C52.9622 36.0627 52.1222 36.6027 52.1072 37.4652C52.0922 38.3277 52.0997 38.4552 51.8897 38.6352C51.6797 38.8152 50.3747 38.4477 50.0747 38.3952C49.0997 38.2227 47.8697 38.1252 47.1722 37.8477C46.4747 37.5702 44.9147 37.2777 44.6897 37.0302C44.4647 36.7827 45.2297 36.4977 45.2297 36.4977C46.3322 36.0702 46.0472 33.9702 46.4822 31.5852C46.9172 29.2002 48.7472 27.3327 49.4522 26.4477C50.1572 25.5627 50.2847 25.6452 51.1397 25.4952C51.9947 25.3527 53.8922 25.3902 55.1297 25.0452C56.3672 24.7002 60.3571 24.1377 63.8221 20.9577C67.2871 17.7852 68.6147 13.7277 68.9672 13.8927C69.3197 14.0577 69.5522 16.0302 69.1997 17.0277H69.2072Z" fill="#92400E"/>
<path d="M43.6547 37.9226C43.6547 37.9226 43.4072 38.5826 43.1747 39.3626C42.9422 40.1426 42.3647 40.8551 42.9347 41.2676C43.5047 41.6801 45.5672 42.7301 46.5497 43.8176C47.5322 44.9051 48.6572 44.9501 49.3772 45.8726C50.0972 46.7951 51.1996 47.4926 51.6421 47.7776C52.0846 48.0626 52.1822 48.4076 53.1947 47.7251C54.2072 47.0426 54.8147 45.9476 55.2272 45.3326C55.6397 44.7176 55.7071 44.2001 55.9021 43.7126C56.0971 43.2251 55.9247 43.0826 55.6547 42.7601C55.3847 42.4376 53.4271 39.2726 52.9546 39.2426C52.4821 39.2126 51.5372 39.2876 51.5372 39.2876C51.5372 39.2876 51.8222 40.2251 52.0997 40.7726C52.3772 41.3201 53.0146 41.0876 53.6071 42.0551C54.1996 43.0226 54.4772 43.5776 54.2072 44.4926C53.9372 45.4076 52.9847 46.5551 52.6922 46.7876C52.3997 47.0201 52.0472 46.8551 51.4247 46.2701C50.8022 45.6851 48.1397 43.3226 47.0372 42.7151C45.9347 42.1076 44.3822 40.6901 44.1122 40.2701C43.8422 39.8501 44.5771 38.4701 44.6971 38.1926C44.8171 37.9151 43.8497 37.5176 43.8497 37.5176L43.6622 37.9076L43.6547 37.9226Z" fill="#92400E"/>
<path d="M55.3392 43.8173C55.3392 43.8173 55.0693 43.8998 57.0118 43.5323C58.9543 43.1648 61.6317 44.2373 62.7567 44.3723C63.8817 44.5073 65.5842 44.8899 65.6142 45.8424C65.6442 46.7949 64.6018 48.9773 63.5293 50.4323C62.4568 51.8873 61.1967 51.5048 60.6342 51.3923C60.0717 51.2798 56.7942 50.0123 55.8717 49.4873C54.9492 48.9623 53.5618 47.6723 53.5843 47.0198C53.6068 46.3673 54.2893 45.7073 54.5818 45.7823C54.8743 45.8573 54.9942 46.4573 55.3542 47.0498C55.7142 47.6423 57.1768 48.7148 58.6993 49.2623C60.2293 49.8173 61.4818 50.0273 61.9918 49.8848C62.5018 49.7423 63.1093 48.5123 63.4768 47.9798C63.8443 47.4473 64.8117 45.9398 62.6592 45.3773C61.7217 45.1298 59.7568 44.8748 58.8868 44.7323C58.0168 44.5898 56.7717 44.5898 56.3817 44.5148C55.9917 44.4398 55.2717 44.8073 55.2192 44.5148C55.1667 44.2223 55.3243 43.8248 55.3243 43.8248L55.3392 43.8173Z" fill="#92400E"/>
<path d="M90.2904 27.6774C92.6004 30.1374 97.3629 32.0349 98.3529 32.9124C99.7329 34.1424 101.518 35.1699 103.1 36.1074C104.098 36.6999 105.478 37.1349 106.528 37.6374C107.773 38.2374 109.378 37.7274 110.188 39.0099C110.188 39.0099 110.435 39.7899 110.938 40.3674C110.938 40.3674 111.538 41.5524 114.253 40.1724C116.96 38.7924 118.28 37.7724 118.828 37.3149C119.375 36.8574 120.253 36.6174 120.11 36.0699C119.968 35.5224 119.938 35.1249 119.248 34.9449C118.715 34.8099 117.868 34.4574 117.065 33.3699C116.518 32.6274 116.48 32.1474 115.183 30.0849C113.885 28.0224 112.963 27.1599 111.943 26.4549C111.545 26.1774 110.398 25.0374 109.663 24.0474C108.928 23.0574 107.3 22.0524 105.2 20.0274C103.108 17.9949 101.083 17.8224 99.8903 17.3349C98.6978 16.8474 95.7278 16.8849 95.0153 16.8924C94.3028 16.8999 93.8454 16.8474 93.3504 17.3274C92.8554 17.8074 94.0104 18.4899 94.5579 18.8799C95.1054 19.2699 98.1578 21.4074 99.3278 23.1474C100.498 24.8874 101.12 24.7149 101.405 25.8024C101.405 25.8024 101.383 26.0274 100.108 25.9224C98.8328 25.8099 96.8528 25.0974 96.0353 24.6849C95.2178 24.2724 92.3003 23.0874 90.7553 21.2724C89.2103 19.4499 87.5378 19.3224 87.5528 20.1174C87.5978 23.3349 88.4004 25.6599 90.2979 27.6849L90.2904 27.6774ZM107.533 25.1349C107.113 25.2924 105.988 25.0674 104.893 25.1049C104.12 25.1349 102.995 25.5624 102.763 25.2249C102.583 24.9624 100.715 22.0449 99.9954 21.2499C99.3354 20.5224 97.3553 19.1124 96.1853 18.5724C96.1853 18.5724 95.3828 18.0699 95.5178 17.9049C95.6528 17.7399 97.1978 17.5674 99.8378 18.4449C102.725 19.4124 103.655 20.2074 104.975 21.5874C106.415 23.0949 107.6 24.5049 107.6 24.5049C107.6 24.5049 107.945 24.9774 107.525 25.1349H107.533ZM88.9553 21.7299C89.2478 21.4749 91.0329 23.9199 95.2704 25.9674C99.5004 28.0149 103.483 27.4149 104.773 27.3924C106.063 27.3699 107.938 27.1974 108.8 27.0924C109.663 26.9874 109.768 26.8674 110.69 27.5199C111.62 28.1649 113.3 28.8549 114.373 31.0299C114.965 32.2224 115.348 33.0024 116.09 34.1049C116.353 34.5024 116.653 34.8999 117.08 35.1099C117.298 35.2149 117.53 35.2674 117.755 35.3649C117.995 35.4774 118.295 35.6799 118.16 35.9499C118.07 36.1299 117.74 36.2874 117.583 36.3849C117.08 36.7149 116.668 37.4124 116.195 37.7874C115.603 38.2524 114.455 38.6949 113.57 39.1449C113.3 39.2799 112.018 39.5874 111.77 39.4749C111.523 39.3624 111.485 39.2349 111.223 38.4174C110.96 37.5999 110 37.3149 107.24 36.3024C104.48 35.2899 102.523 34.6074 101.345 33.5349C100.168 32.4624 98.6903 31.5624 97.0103 30.5799C95.3303 29.5974 94.5503 28.9974 94.0103 28.6599C92.9978 28.0149 92.3978 27.6024 91.5503 26.7549C90.7028 25.9074 90.2453 25.6599 89.6228 24.8049C89.0003 23.9499 88.6553 21.9849 88.9478 21.7299H88.9553Z" fill="#92400E"/>
<path d="M119.623 35.8301C119.623 35.8301 120.433 36.1226 120.853 36.8201C121.273 37.5176 121.61 38.3426 121.153 38.8901C120.703 39.4301 119.045 42.0101 118.363 43.3076C117.68 44.6051 117.013 44.7326 116.548 45.8051C116.083 46.8776 114.253 48.3926 113.645 48.5801C113.188 48.7226 112.79 48.7676 111.643 48.3626C110.495 47.9576 110.255 47.1026 109.708 46.6076C109.16 46.1126 108.958 45.6251 108.643 45.2126C108.328 44.8001 107.735 44.1401 107.915 43.7576C108.095 43.3751 110.93 40.3751 112.063 40.3226C112.535 40.3001 114.305 39.8951 114.305 39.8951C114.178 40.4951 110.39 42.0401 110.06 43.1276C109.73 44.2151 110 44.7401 110.495 45.5576C110.99 46.3751 112.198 47.2526 112.535 47.3951C112.873 47.5376 113.173 47.2976 113.63 46.5776C114.088 45.8576 116.803 42.6851 117.718 41.8226C118.625 40.9601 119.623 38.7101 119.78 38.2301C119.938 37.7501 118.498 37.2326 118.325 37.0001C118.153 36.7676 118.895 36.0101 118.895 36.0101L119.63 35.8376L119.623 35.8301Z" fill="#92400E"/>
<path d="M101.322 50.6129C101.322 50.6129 101.547 50.2529 102.395 48.4679C103.242 46.6829 105.71 45.8879 106.482 45.0554C107.255 44.2229 108.522 44.2004 109.302 44.7329C110.082 45.2654 110.945 46.1729 111.492 47.8979C112.04 49.6229 110.982 50.4104 110.562 50.8004C110.142 51.1904 107.457 52.7654 106.482 53.2004C105.515 53.6354 103.827 53.8304 103.227 53.5154C102.627 53.2004 102.23 52.5704 102.462 52.3754C102.695 52.1804 103.25 52.4429 103.94 52.4954C104.63 52.5479 106.355 52.0004 107.705 51.0929C109.055 50.1854 109.962 49.3004 110.15 48.7979C110.337 48.2954 109.895 47.7779 109.685 47.1629C109.475 46.5479 107.892 45.7379 107.105 46.2929C106.31 46.8479 104.795 47.6504 104.165 48.2654C103.535 48.8804 102.8 49.8854 102.515 50.1629C102.23 50.4404 102.102 51.2354 101.825 51.1004C101.547 50.9654 101.33 50.6054 101.33 50.6054L101.322 50.6129Z" fill="#92400E"/>
<path d="M113.847 61.1729C113.712 61.1354 113.592 61.1054 113.495 61.0754C112.842 60.8954 112.25 60.6478 111.657 60.3103C110 59.3653 108.522 58.0903 107.075 56.8453C104.202 54.3778 103.287 51.3929 98.5249 46.2854C93.7624 41.1779 88.0474 38.9354 82.7974 39.1079C77.5474 39.2804 72.8974 41.2604 69.3874 43.2404C65.8774 45.2204 62.8249 49.0454 60.6424 51.3929C58.4599 53.7404 51.6274 56.5003 50.5999 57.1078C49.5649 57.7078 49.9999 58.1428 49.9999 58.1428C49.9999 58.1428 51.4099 58.3754 52.9549 58.6304C54.4999 58.8854 58.4074 61.6154 59.6149 62.3054C60.8224 62.9954 65.6374 69.2503 66.5599 70.0528C67.4749 70.8553 69.7174 75.7378 70.6324 76.4803C71.5549 77.2228 74.3599 77.9729 76.2574 78.0854C78.1549 78.1979 81.1924 78.7153 83.8924 78.7753C86.5924 78.8353 91.6399 78.4903 92.9074 78.0328C94.1674 77.5753 94.8574 76.0828 95.7199 74.1853C96.5824 72.2878 101.232 68.2753 103.535 65.9203C105.837 63.5653 111.965 62.5904 113.285 62.5904C114.605 62.5904 115.062 62.5304 115.062 62.0729C115.062 61.5479 114.372 61.3154 113.855 61.1729H113.847ZM109.955 62.0803C108.77 62.0803 107.555 62.2829 106.49 62.8229C106.49 62.8229 102.372 65.1179 100.767 67.3004C99.6649 68.7929 98.3149 70.0604 96.8224 71.2079C95.9524 71.8829 95.0899 72.6028 94.4299 73.4803C93.4624 74.7703 93.1849 76.9679 91.0624 76.8854C89.6824 76.8254 83.2549 77.6953 79.9249 77.2303C76.5949 76.7728 71.9449 76.4279 71.1424 75.7379C70.3399 75.0479 67.4449 70.0004 65.6224 67.5854C63.7999 65.1779 61.8424 62.5904 60.1249 61.5554C58.3999 60.5204 56.1649 58.3379 54.6724 57.9929C54.6724 57.9929 53.4649 57.7079 53.1799 57.6479C52.8949 57.5879 53.4649 57.3629 54.6724 56.9579C55.8799 56.5529 58.8124 54.2729 59.6149 53.6654C60.4174 53.0579 64.0924 50.7629 65.6299 48.1154C66.7474 46.1954 71.5549 42.8653 74.2549 42.2428C76.9549 41.6278 80.9149 40.7803 83.7874 40.8328C85.4899 40.8628 86.7499 41.2528 89.2399 42.2428C90.9424 42.9178 92.9674 44.8078 94.0624 45.7603C94.8724 46.4653 97.8424 47.8754 98.6524 48.6704C100.542 50.5079 101.217 51.0628 102.387 52.9978C104.052 55.7578 107.322 59.6579 108.987 60.7454C110.652 61.8329 111.927 61.4053 111.98 61.8553C112.032 62.3128 110.225 62.0729 109.97 62.0729L109.955 62.0803Z" fill="#92400E"/>
<path d="M68.7347 73.0525L67.8796 72.04C67.8796 72.04 64.9321 73.5925 64.1146 74.4175C63.2971 75.2425 59.8021 77.44 59.2471 78.085C58.6921 78.73 57.8297 78.8875 57.4397 79.345C57.0497 79.8025 56.9671 79.8026 57.0946 80.4476C57.2221 81.0926 57.9572 82.5551 58.5572 83.0276C59.1572 83.5001 60.7996 84.6625 61.2721 85.3075C61.7446 85.9525 62.3896 86.2525 63.0346 86.0425C63.6796 85.8325 65.1871 84.7975 65.5771 84.58C65.9671 84.3625 66.2221 83.7175 65.6221 83.845C65.0221 83.9725 62.9596 84.19 62.7196 84.4075C62.4796 84.625 62.3072 84.28 62.2172 83.935C62.1272 83.59 60.0647 80.7476 59.5922 80.4026C59.1197 80.0576 60.7997 79.6 61.2271 79.3375C61.6547 79.075 65.0146 77.515 66.0946 76.48C67.1746 75.445 68.9596 73.6525 69.3346 73.6675C69.7021 73.6825 68.7422 73.0525 68.7422 73.0525H68.7347ZM66.3872 75.625C65.6147 76.27 63.8071 77.6051 63.2221 77.8676C62.6371 78.1301 59.4571 79.63 59.2396 79.72C59.0221 79.81 59.2396 79.1875 59.2396 79.1875C59.2396 79.1875 60.7471 78.325 61.4821 77.89C62.2171 77.455 65.4647 74.9651 66.1997 74.4926C66.9347 74.0201 67.9846 73.09 68.1121 72.97L68.5022 73.6526C68.5022 73.6526 67.1672 74.9875 66.3947 75.6325L66.3872 75.625Z" fill="#92400E"/>
<path d="M59.6073 62.3049C59.6073 62.3049 58.8574 62.8899 57.7699 62.9424C56.6824 63.0024 53.8699 63.2874 52.6024 62.9424C51.3424 62.5974 50.6449 61.9224 49.5574 61.7499C48.4699 61.5774 47.6598 61.4349 47.1498 61.6674C46.9773 61.7424 46.8798 61.8474 46.8123 61.9674C46.6548 61.9674 46.4299 61.9599 46.0999 61.9599C45.1999 61.9599 44.7873 61.5024 44.6523 61.9599C44.6223 62.0724 44.5698 62.1324 44.5173 62.1774C44.1648 61.9074 44.1198 61.6299 44.0523 61.3749C44.0298 61.2774 44.0523 61.2174 44.0523 61.1649C44.1198 61.0824 44.1648 60.9849 44.1498 60.8574C44.0823 60.2574 43.3473 58.6824 43.5348 57.4374C43.7223 56.1924 45.1398 52.0974 45.2673 51.6699C45.3948 51.2424 45.4398 50.8299 45.0949 50.7249C44.7498 50.6199 44.4498 50.6424 43.9548 51.6099C43.4598 52.5774 41.8848 55.4799 41.6973 56.2224C41.5023 56.9649 40.7524 58.8849 40.6624 59.3349C40.5724 59.7849 40.2948 60.4974 40.4898 60.8649C40.5423 60.9624 41.2023 61.4724 41.5098 61.6974C41.5023 61.9449 41.5474 62.2074 41.7724 62.3574C42.1399 62.5974 42.3348 62.8974 42.5898 63.1074C42.8448 63.3174 43.0849 63.4374 43.5124 63.4374C43.9399 63.4374 44.0523 63.1074 44.0523 63.1074C44.5698 63.4749 44.3298 63.6999 44.6523 63.9324C44.9748 64.1649 45.1773 63.9324 45.6423 63.9324C45.7923 63.9324 45.9348 63.9849 46.0698 64.0374C45.8823 64.4799 45.7473 64.8924 45.8823 65.0274C46.1673 65.3124 47.2324 64.4274 48.1474 64.5399C49.0624 64.6524 49.9548 64.6824 52.3098 65.0949C54.6648 65.5074 55.9773 65.2674 57.9348 65.0949C59.8248 64.9299 61.8349 64.4424 62.5849 64.6299C63.3274 64.8174 60.5824 62.3574 59.5999 62.3349L59.6073 62.3049ZM43.1073 59.6649C43.3698 60.5274 43.3548 60.5274 43.1073 60.7299C42.8898 60.9024 42.0348 60.8874 41.8023 60.7149C41.7798 60.6924 41.7574 60.6774 41.7349 60.6549C41.5699 60.4674 41.6374 60.1974 41.6374 59.9574C41.6374 59.6499 42.3723 57.4599 42.6423 56.4699C42.9123 55.4799 43.3173 54.5349 43.5723 54.4899C43.8273 54.4449 43.3023 55.8249 43.3023 55.8249C42.9573 56.6874 42.8448 58.8099 43.1073 59.6724V59.6649Z" fill="#92400E"/>
<path d="M63.5899 66.6172C63.5899 66.6172 60.9649 67.0972 60.4099 67.3522C59.8549 67.6072 57.3124 68.2596 56.7949 68.5596C56.2774 68.8596 55.1599 69.5046 54.9424 69.6396C54.8824 69.6771 54.9049 69.8047 54.9649 69.9772C54.6649 69.9397 54.2899 69.8796 54.0874 69.8121C53.6974 69.6846 52.8424 70.3746 52.8424 70.3746C51.8899 71.1321 51.2599 71.9346 50.9974 73.1496C50.7424 74.3346 50.6224 75.6397 50.8624 76.8397C51.0724 77.8822 51.6874 78.9921 52.7524 79.3446C52.8049 79.3596 52.9174 79.1947 52.9624 79.1647C52.8799 78.2497 52.4974 77.9122 52.4974 76.4497C52.4974 74.7547 52.9249 74.5971 53.4049 73.9071C53.8849 73.2171 54.5224 72.7896 54.6124 72.4896C54.7024 72.1896 54.6124 71.6721 54.6124 71.4096C54.6124 71.1471 55.4524 71.0722 55.4524 71.0722C55.5199 71.2372 55.5799 71.3872 55.6024 71.4922C55.6849 71.9647 55.8574 71.4472 56.2024 71.4922C56.5474 71.5372 57.3649 70.8922 58.6549 70.5847C59.9449 70.2772 60.9799 69.7671 62.0974 69.6396C63.2149 69.5121 65.9749 69.6171 65.8849 69.1596C65.7949 68.7021 64.0699 66.2346 63.5974 66.6246L63.5899 66.6172ZM64.6549 68.5146C64.5949 68.6196 64.2574 68.6046 64.1449 68.6046C63.6724 68.5596 60.2149 68.5447 59.9149 68.3347C59.6149 68.1247 59.6299 68.1771 59.8849 68.0496C60.1399 67.9221 63.1174 67.4497 63.4174 67.4047C63.7174 67.3597 64.5349 68.2522 64.5349 68.2522C64.5799 68.3047 64.7074 68.4321 64.6549 68.5146Z" fill="#92400E"/>
<path d="M108.56 78.6551C108.56 78.6551 108.147 77.6351 107.742 77.5526C107.532 77.5151 107.187 77.3801 106.902 77.2676C107.037 77.1476 107.112 77.0426 107.075 76.9826C106.947 76.7651 106.295 75.6551 105.987 75.1376C105.687 74.6201 103.79 72.8126 103.422 72.3176C103.055 71.8226 99.8674 69.4601 99.8674 69.4601C99.6499 68.8901 98.0749 70.8401 97.7749 71.2076C97.4749 71.5676 99.8149 72.2426 100.722 72.9026C101.637 73.5626 102.395 75.1001 103.377 76.0001C104.105 76.6676 104.855 78.0401 105.41 78.0626C105.492 78.0626 105.642 78.0176 105.83 77.9351C106.107 78.1376 106.595 78.5351 106.505 78.6926C106.377 78.9176 106.047 79.3226 105.98 79.6301C105.912 79.9376 106.317 80.6201 106.332 81.4601C106.347 82.4426 105.942 83.3051 105.222 83.9576C104.952 84.2051 104.652 84.4151 104.352 84.6176C104.18 84.7376 103.557 85.0451 103.857 85.3226C103.887 85.3451 103.925 85.3526 103.962 85.3601C105.042 85.5101 106.475 84.8876 107.24 84.1451C108.042 83.3651 108.44 83.1251 108.8 81.9701C109.167 80.7776 109.01 79.7801 108.552 78.6476L108.56 78.6551ZM105.897 77.1401C105.582 77.2526 104.832 76.1651 104.487 75.8201C104.142 75.4751 102.507 73.4351 102.132 73.0076C101.757 72.5801 100.782 71.6276 100.122 71.4851C99.4624 71.3426 98.8924 70.6526 98.9524 70.5401C99.0124 70.4276 99.0649 70.2626 99.4099 70.3676C99.5524 70.4126 100.355 71.0576 100.782 71.3726C101.21 71.6876 104.285 75.1301 105.23 75.8801C106.175 76.6226 106.205 77.0276 105.89 77.1401H105.897Z" fill="#92400E"/>
<path d="M121.085 60.4675C120.913 60.1825 120.68 61.21 120.568 62.02C120.568 62.02 120.597 62.5375 120.125 63.4C119.652 64.2625 118.362 65.6425 118.205 66.79C118.047 67.9375 118.22 68.2225 117.988 68.5675C117.988 68.5675 117.125 68.6275 116.84 68.9725C116.555 69.3175 116.038 70.465 115.693 70.5775C115.348 70.69 114.485 70.5775 113.968 70.9225C113.45 71.2675 113.105 71.5525 112.76 71.9575C112.415 72.3625 110.525 70.2325 109.775 69.8875C107.892 69.025 105.838 64.4125 104.263 64.8925L102.02 67.405C102.193 67.24 104.6 69.43 106.482 70.2925C108.365 71.155 110.518 72.7 111.118 72.8725C111.718 73.045 112.325 72.985 112.67 73.315C113.015 73.645 113.99 74.1025 115.055 73.315C116.12 72.5275 117.32 72.1 117.837 71.41C118.355 70.72 119.045 69.6925 119.39 69.3925C120.252 68.635 121.055 67.5475 121.085 66.355C121.115 65.2 120.958 64.0525 121.085 62.89C121.183 62.0425 121.258 60.7675 121.085 60.4825V60.4675ZM107.765 70.1725C107.637 70.0675 105.988 69.25 105.523 68.9875C105.133 68.77 104.757 68.5375 104.382 68.2975C104.022 68.065 103.475 67.7425 103.115 67.375C102.927 67.18 102.8 67.015 103.077 66.79C103.197 66.6925 104.195 65.845 104.368 65.755C104.54 65.665 106.025 67.1725 106.49 67.78C106.955 68.38 107.383 68.9275 107.773 69.2575C108.163 69.5875 107.9 70.2775 107.773 70.1725H107.765Z" fill="#92400E"/>
<path d="M101.593 80.9057C101.255 80.5682 101.255 80.1406 101.15 79.7131C101.038 79.2856 100.715 78.9406 100.415 78.6256C99.8601 78.0406 99.3126 77.4407 98.7876 76.8257C98.3226 76.2782 97.8951 75.6481 97.2876 75.2506C96.7101 74.8756 95.93 73.7807 95.6525 73.7432C95.6525 73.7432 94.4151 75.7606 94.6176 75.8806C94.8201 75.9931 95.3376 76.3381 95.5626 76.7956C95.7876 77.2531 95.9901 77.6281 95.9676 78.1756C95.9376 78.7231 98.2626 81.6481 98.2626 81.6481C98.2626 81.6481 98.6675 82.1056 98.09 82.7656C97.5125 83.4256 96.7401 85.7807 96.7401 85.7807C96.6351 86.0957 96.2826 86.4406 96.0876 86.7106C95.8176 87.0856 95.5701 87.4907 95.1876 87.7607C94.7451 88.0757 93.7251 88.4806 93.1851 88.2106C92.6676 87.9556 91.2651 87.8656 92.2101 88.5256C92.7426 88.8931 93.4701 89.0207 94.1001 89.1182C94.9326 89.2457 95.7651 89.4557 96.5076 88.9307C97.3851 88.3082 98.0301 87.3781 98.8626 86.6956C99.4326 86.2231 100.25 85.7507 100.678 85.1357C100.933 84.7607 101.053 84.3856 101.135 83.8981C101.218 83.4106 102.71 82.7807 102.658 82.4057C102.598 82.0307 102.17 81.4606 101.593 80.8831V80.9057ZM99.4851 81.8507C99.4026 81.4232 98.7501 80.3206 98.3001 79.8031C97.8501 79.2856 97.5951 78.7982 97.2126 77.7632C96.8301 76.7282 96.0576 76.1806 95.7576 75.9181C95.4576 75.6556 95.4576 75.3857 95.4576 75.3857L95.8101 75.0107C95.8101 75.0107 97.16 76.4056 97.76 77.1406C98.36 77.8756 99.9051 79.6007 100.16 80.0282C100.415 80.4557 100.948 81.5206 101.075 81.7756C101.203 82.0306 99.5676 82.2631 99.4851 81.8356V81.8507Z" fill="#92400E"/>
<path d="M86.6973 40.1423C86.6973 40.1423 87.6798 37.3298 88.8498 36.5273C90.0198 35.7248 92.0298 34.6898 93.9873 34.4048C95.9448 34.1198 97.1598 34.2323 97.7523 33.8873C97.7523 33.8873 98.4648 33.7748 97.9473 34.2923C97.4298 34.8098 96.3123 34.5923 95.4498 34.7198C94.1898 34.9073 92.9823 35.3648 91.8723 35.9798C91.1223 36.3998 90.4098 36.6473 89.9298 37.3598C89.6898 37.7123 89.4873 38.1023 89.2473 38.4548C88.9698 38.8598 88.8498 40.3223 88.8498 40.8398L86.6973 40.1423Z" fill="#92400E"/>
<path d="M68.4125 30.333C69.6125 29.9805 70.8949 30.4755 71.9899 31.1205C73.1824 31.8255 74.3675 32.7105 75.35 33.648C76.07 34.338 76.4525 35.1255 77.0825 35.9055C77.99 37.0305 79.31 38.2005 79.925 39.5055L80.1049 40.203C79.2649 40.4055 77.93 40.653 77.0825 40.8255C77.3675 40.7655 76.5124 38.0055 76.4074 37.7505C76.0099 36.8055 75.5 35.808 74.8775 34.9905C74.435 34.4055 73.85 33.9855 73.3175 33.483C72.875 33.063 72.5074 32.553 71.9974 32.223C71.3974 31.833 70.0174 30.6331 67.9474 30.6106C67.9474 30.6106 67.6849 30.543 68.4199 30.333H68.4125Z" fill="#92400E"/>
<path d="M74.9677 40.8551C74.9077 40.8626 74.8102 40.9301 74.7652 41.0276C74.7202 41.1176 74.7502 41.2226 74.7427 41.1851V41.1551L74.7202 41.0876L74.6827 40.9301L74.5927 40.6076C74.5252 40.3901 74.4502 40.1801 74.3677 39.9776C74.2027 39.5651 74.0077 39.1526 73.7677 38.8076C73.6477 38.6351 73.5201 38.4776 73.3851 38.3576C73.3176 38.3051 73.2502 38.2526 73.1902 38.2301C73.1452 38.2001 73.0102 38.1701 72.9202 38.1476C72.5302 38.0426 72.1177 38.0651 71.8102 38.1851C71.2102 38.4476 70.9702 38.9276 71.0527 39.7451C71.1352 40.5251 71.4502 41.3426 71.9602 42.0026L71.4952 42.5126C70.6552 41.8976 70.1152 40.9601 69.8977 39.9176C69.8077 39.3926 69.7852 38.8076 70.0702 38.1851C70.3402 37.6151 70.9627 37.1876 71.5552 37.1126C72.1552 37.0226 72.6952 37.1501 73.1827 37.3301C73.3102 37.3826 73.4077 37.4126 73.5577 37.5026C73.7077 37.5776 73.8202 37.6751 73.9252 37.7801C74.1277 37.9826 74.2777 38.1926 74.4052 38.4101C74.6527 38.8451 74.8477 39.2876 75.0127 39.7376L75.2452 40.4126L75.3502 40.7576L75.3952 40.9376L75.4177 41.0426V41.0951C75.4177 41.0951 75.4476 41.1851 75.4026 41.2976C75.3651 41.4101 75.2602 41.4851 75.2002 41.5151L74.9677 40.8701V40.8551Z" fill="#92400E"/>
<path d="M89.3975 41.0052C89.3975 40.9227 89.4125 40.8402 89.4425 40.7577C89.4575 40.7202 89.48 40.6677 89.4875 40.6527L89.5025 40.6302L89.555 40.5252L89.645 40.3677C89.705 40.2702 89.765 40.1727 89.8325 40.0902C89.96 39.9102 90.095 39.7452 90.245 39.5877C90.5375 39.2727 90.8675 38.9802 91.2425 38.7327C91.6175 38.4852 92.0525 38.2677 92.5775 38.1852C93.125 38.0952 93.6799 38.2452 94.1149 38.5302C94.5649 38.8302 94.8125 39.3027 94.94 39.7302C95.0675 40.1652 95.0974 40.6002 95.0974 41.0202C95.0674 41.8602 94.9025 42.6552 94.7525 43.4577L94.1 43.2477C94.43 42.5502 94.6024 41.7777 94.5799 41.0277C94.5574 40.6527 94.4825 40.2852 94.3175 39.9852C94.16 39.6852 93.9049 39.4752 93.6424 39.4077C93.3724 39.3327 93.095 39.3627 92.87 39.4602C92.6225 39.5652 92.345 39.7377 92.075 39.9327C91.805 40.1427 91.535 40.3677 91.265 40.6152L90.8675 40.9827L90.68 41.1627L90.5974 41.2452L90.5675 41.2677H90.56C90.56 41.2677 90.5824 41.2302 90.5899 41.2077C90.6124 41.1477 90.6125 41.0877 90.6125 41.0277H89.405L89.3975 41.0052Z" fill="#92400E"/>
<path d="M71.3148 37.765C71.3148 37.765 71.9523 37.36 72.6948 37.765C73.4373 38.17 73.4073 38.575 73.0773 39.205C72.7548 39.8425 71.9448 40.105 71.3073 39.8275C70.6698 39.55 70.5573 38.395 71.3073 37.765H71.3148Z" fill="#92400E"/>
<path d="M92.9822 39.0178C92.9822 39.0178 93.5598 38.6503 94.2348 39.0178C94.9098 39.3853 94.8797 39.7528 94.5797 40.3228C94.2797 40.8928 93.5523 41.1403 92.9748 40.8928C92.3973 40.6453 92.2923 39.5953 92.9748 39.0178H92.9822Z" fill="#92400E"/>
<path d="M88.2574 29.7322C88.3549 29.3647 88.4974 29.0422 88.8199 28.7497C89.1499 28.4647 89.6449 28.3672 90.0724 28.5172C90.5299 28.6672 90.83 29.1247 90.8975 29.5372C90.9725 29.9497 90.8974 30.3472 90.7774 30.6922C90.5299 31.3747 90.0574 31.9297 89.5699 32.3722C89.0824 32.8147 88.5724 33.1672 88.1524 33.5347C86.4799 34.9072 86.1649 37.3297 86.6599 39.4072C86.7874 39.9472 86.4499 40.4947 85.9099 40.6222C85.3699 40.7497 84.8224 40.4122 84.6949 39.8722C84.6949 39.8422 84.68 39.8047 84.68 39.7747C84.5 38.4397 84.5599 37.0747 84.9724 35.7697C85.3699 34.4797 86.1949 33.2272 87.3199 32.4772C88.3774 31.7422 89.405 31.2397 89.8325 30.3172C90.0575 29.8822 90.005 29.4247 89.765 29.3272C89.63 29.2597 89.4425 29.2672 89.3 29.3647C89.15 29.4622 89 29.7022 88.925 29.9047L88.9099 29.9347C88.8499 30.1147 88.655 30.2122 88.475 30.1447C88.3025 30.0847 88.2124 29.9047 88.2574 29.7322Z" fill="#92400E"/>
<path d="M79.0253 28.3681C78.9728 28.3231 78.9428 28.3156 78.8903 28.3156C78.8303 28.3156 78.7403 28.3531 78.6428 28.4131C78.4553 28.5331 78.2753 28.7281 78.1253 28.9381C77.8253 29.3731 77.7053 29.8756 77.7503 30.3856C77.8328 31.4056 78.5679 32.3356 79.3779 33.1306C79.5804 33.3331 79.7978 33.5281 80.0228 33.7156C80.2553 33.9181 80.4953 34.1431 80.7278 34.3681C81.1853 34.8331 81.6278 35.3881 81.9278 36.0556C82.2278 36.7306 82.3403 37.4881 82.3178 38.1856C82.2953 38.8906 82.1678 39.5506 82.0103 40.1806C81.8828 40.6756 81.3803 40.9831 80.8853 40.8556C80.3903 40.7281 80.0828 40.2256 80.2103 39.7306C80.2103 39.7006 80.2253 39.6781 80.2328 39.6481C80.6078 38.5756 80.8028 37.5331 80.4878 36.6331C80.3303 36.1831 80.0453 35.7331 79.6928 35.3056C79.5128 35.0881 79.3178 34.8856 79.1153 34.6756C78.8978 34.4506 78.6803 34.2181 78.4703 33.9781C78.0503 33.4981 77.6603 32.9731 77.3378 32.3881C77.0228 31.8031 76.7979 31.1206 76.7979 30.4081C76.7979 29.7031 77.0378 28.9831 77.4653 28.4431C77.6828 28.1731 77.9303 27.9181 78.2753 27.7381C78.4478 27.6481 78.6503 27.5731 78.8978 27.5806C79.1453 27.5806 79.4153 27.7231 79.5503 27.9106C79.6628 28.0606 79.6328 28.2781 79.4828 28.3906C79.3478 28.4881 79.1679 28.4806 79.0479 28.3756L79.0178 28.3531L79.0253 28.3681Z" fill="#92400E"/>
<path d="M75.0725 51.4751C75.0725 51.4751 74.8325 51.4751 77.2475 51.2501C80.045 50.9951 81.65 50.5451 81.755 48.9851C81.845 47.6801 82.34 42.8876 82.7975 44.0876C83.255 45.2876 83.0151 49.8776 84.8151 50.3726C86.6151 50.8676 88.67 50.9276 88.6475 51.3926C88.61 52.1501 84.9275 50.9501 84.125 55.2626C83.585 58.1676 83.1075 59.6101 82.6925 59.5901C81.95 59.5526 82.025 53.4626 80.75 52.9976C79.475 52.5326 75.0051 52.2926 75.0651 51.4751H75.0725Z" fill="#92400E"/>
<path d="M88.8422 71.1484C88.8422 71.1484 88.8347 71.1484 88.8272 71.1484C88.6772 71.1409 88.5572 71.0209 88.5497 70.8709C88.5497 70.8409 88.3472 67.9534 86.6747 67.2109C86.4722 67.1209 86.4497 66.9634 86.4497 66.9034C86.4497 66.6784 86.6297 66.5809 86.8472 66.4759C87.4097 66.1984 88.6847 65.5609 88.9547 63.3709C88.9622 63.1084 88.9922 62.9434 88.9997 62.9359C89.0297 62.7784 89.1722 62.6809 89.3297 62.6959C89.4872 62.7184 89.5997 62.8534 89.5922 63.0109C89.5847 63.1759 89.5697 63.3333 89.5472 63.4833C89.5322 64.2933 89.7722 66.0034 92.0222 66.6559C92.1422 66.6934 92.2247 66.7908 92.2397 66.9108C92.2547 67.0308 92.1872 67.1509 92.0747 67.2034C92.0522 67.2184 89.5547 68.5084 89.1422 70.9009C89.1197 71.0434 88.9922 71.1484 88.8497 71.1484H88.8422Z" fill="#92400E"/>
<path d="M103.82 6.91061C103.82 6.91061 102.68 8.1256 102.282 8.2606C102.282 8.2606 102.02 8.3881 101.982 8.1181C101.945 7.8481 101.855 6.19811 101.9 5.98811C101.9 5.98811 99.3648 4.72811 99.3273 4.65311C99.2898 4.57811 99.0348 4.45061 99.3198 4.21061C99.5298 4.03061 102.267 3.8281 102.267 3.8281C102.267 3.8281 103.175 1.38311 103.265 1.16561C103.355 0.948112 103.617 0.865607 103.797 1.09061C103.977 1.31561 104.787 3.31811 104.787 3.31811C104.787 3.31811 107.105 2.78561 107.315 2.83061C107.525 2.87561 107.622 3.06311 107.51 3.22811C107.397 3.39311 105.815 5.1856 105.815 5.1856L107.187 7.92312C107.187 7.92312 107.352 8.59811 106.647 8.31311C105.942 8.02811 103.812 6.91061 103.812 6.91061H103.82Z" fill="#92400E"/>
<path d="M32.7945 41.1558C32.7945 41.2233 32.862 41.7333 32.8995 42.0483C32.9145 42.1533 33.042 42.2058 33.1245 42.1383L33.777 41.5833L34.947 41.9058C35.0745 41.9433 35.187 41.8158 35.142 41.6958L34.8046 40.8183L35.082 40.3008C35.1645 40.1508 35.037 39.9708 34.8645 40.0008L34.167 40.1208L33.597 39.1983C33.5295 39.0933 33.372 39.1008 33.3195 39.2133L32.832 40.2258C32.832 40.2258 31.7595 40.3833 31.722 40.5183C31.677 40.6683 32.802 41.1633 32.802 41.1633L32.7945 41.1558Z" fill="#92400E"/>
<path d="M94.3026 58.1505C94.3476 58.1655 94.2726 59.1781 94.3776 59.2606C94.4826 59.3431 95.1576 58.5856 95.2776 58.6006C95.4201 58.6156 96.8526 59.2755 96.9126 59.103C96.9951 58.893 96.3426 57.918 96.2826 57.798C96.2226 57.678 96.8976 57.0255 97.0026 56.793C97.0026 56.793 97.1601 56.403 95.7201 56.853C95.7201 56.853 95.1951 55.8255 95.0151 55.7055C94.8351 55.5855 94.4076 56.988 94.3851 57.0705C94.3626 57.153 93.2901 57.2955 93.1926 57.4605C93.0951 57.6255 93.6951 57.918 94.3026 58.143V58.1505Z" fill="#92400E"/>
<path d="M76.948 70.6306C76.6555 70.8256 76.2055 70.7881 75.9505 70.4881C75.373 69.7981 76.573 68.9131 77.083 69.6931C77.158 69.8056 77.203 69.9256 77.218 70.0606C77.2405 70.3306 77.1205 70.5256 76.9555 70.6381L76.948 70.6306Z" fill="#92400E"/>
<path d="M38.9447 66.8881C39.2522 66.6631 39.6497 66.6631 39.9872 67.2181C40.3697 67.8481 39.7547 68.4631 39.1397 68.5006C38.1122 68.5606 38.3747 67.3156 38.9447 66.8881Z" fill="#92400E"/>
<path d="M35.8246 73.2783C36.1696 72.5808 37.0621 72.0707 37.8946 72.8132C39.0346 73.8257 37.7221 75.0633 36.7096 74.8908C35.6596 74.7108 35.5171 73.9157 35.8246 73.2857V73.2783Z" fill="#92400E"/>
<path d="M30.3497 67.8853C30.7322 67.3003 31.8422 67.4503 32.3222 67.9078C33.3647 68.8978 32.1572 69.6777 31.7597 69.7752C31.0622 69.9327 30.2222 69.0402 30.2222 68.3727C30.2222 68.1777 30.2747 68.0128 30.3572 67.8853H30.3497Z" fill="#92400E"/>
<path d="M42.1771 72.4605C42.1771 72.4605 42.6721 71.733 43.3321 72.393C43.9921 73.053 43.0996 73.7205 42.6046 73.713C42.1096 73.7055 41.6521 73.233 42.1846 72.468L42.1771 72.4605Z" fill="#92400E"/>
<path d="M72.5902 54.9546C72.9202 54.8271 73.2653 54.9321 73.4228 55.5096C73.6028 56.1621 72.9053 56.5521 72.3503 56.4246C71.4278 56.2221 71.9752 55.1871 72.5902 54.9546Z" fill="#92400E"/>
<path d="M68.2398 59.7929C68.7198 59.2604 69.6348 59.0429 70.1748 59.8979C70.9248 61.0754 69.4548 61.8329 68.6073 61.4279C67.7223 61.0079 67.8048 60.2729 68.2323 59.7929H68.2398Z" fill="#92400E"/>
<path d="M64.7747 53.6726C65.2547 53.2601 66.1922 53.6651 66.5072 54.1901C67.1747 55.3226 65.9147 55.7051 65.5397 55.6901C64.8797 55.6526 64.3697 54.655 64.5422 54.07C64.5947 53.8975 64.6772 53.7701 64.7822 53.6801L64.7747 53.6726Z" fill="#92400E"/>
<path d="M74.03 60.6698C74.03 60.6698 74.6525 60.1598 75.065 60.9023C75.4775 61.6448 74.5325 62.0123 74.09 61.8773C73.6475 61.7423 73.37 61.2098 74.03 60.6773V60.6698Z" fill="#92400E"/>
<path d="M126.485 34.5257C126.207 34.5257 125.885 33.7532 125.855 33.4682C125.855 33.4157 126.507 28.4057 122.307 28.6682C122.105 28.6832 121.992 28.4132 121.977 28.2107C121.962 28.0082 122.06 27.8132 122.232 27.7007C122.397 27.6032 127.062 28.5782 126.207 18.6032C126.185 18.3032 126.447 18.0557 126.755 18.0557C127.085 18.0857 127.287 18.2957 127.302 18.5957C127.707 25.1657 125.712 27.7982 131.742 28.3157C131.975 28.3382 132.132 28.5707 132.147 28.8032C132.162 29.0357 132.035 29.2532 131.817 29.3507C131.772 29.3732 126.612 28.5707 127.025 34.0082C127.047 34.2932 126.77 34.5107 126.492 34.5182C126.492 34.5182 126.492 34.5182 126.485 34.5182V34.5257Z" fill="#92400E"/>
<path d="M31.0318 82.4351C31.0318 82.4351 29.2393 86.2826 31.2868 86.3351C32.9293 86.3726 33.1918 85.0976 32.4343 82.8551C31.5868 80.3576 31.4368 81.4901 31.0393 82.4351H31.0318Z" fill="#92400E"/>
<path d="M168.739 63.6707C168.972 63.7982 169.099 64.0608 169.047 64.3233C168.979 64.6533 168.657 64.8632 168.334 64.7957C168.154 64.7582 167.599 64.8932 167.112 65.0132C165.544 65.4032 163.167 65.9807 160.557 64.8632C159.537 64.4282 158.682 63.9107 157.924 63.4607C155.974 62.2907 154.129 61.8407 151.174 62.6507C148.039 63.5057 146.952 61.8482 145.617 60.7307C145.152 60.3407 144.717 59.9732 144.229 59.7107C143.937 59.5532 143.824 59.1858 143.982 58.8858C144.139 58.5858 144.507 58.4807 144.807 58.6382C145.399 58.9607 145.909 59.3807 146.397 59.7932C147.664 60.8507 148.759 61.7732 151.279 61.0832C154.729 60.1382 156.417 60.8957 158.382 62.0657C159.139 62.5157 160.092 63.3407 161.029 63.7457C163.264 64.7057 165.402 64.1807 166.819 63.8357C167.577 63.6482 168.124 63.5132 168.574 63.6032C168.634 63.6182 168.687 63.6332 168.739 63.6632V63.6707Z" fill="#92400E"/>
<path d="M144.425 62.576C144.282 62.501 144.08 62.5385 143.915 62.7035C143.682 62.9285 143.397 63.3635 143.735 63.971C145.062 66.386 146.037 66.491 147.5 66.911C148.37 67.166 149.255 67.2485 150.41 68.051C151.482 68.801 151.842 70.0235 152.202 71.0885C152.727 72.626 153.642 73.9835 156.267 74.786C156.492 74.8535 156.785 74.666 156.912 74.3585C157.04 74.051 156.957 73.7435 156.732 73.676C154.422 72.971 153.965 71.621 153.477 70.196C153.095 69.0635 152.832 67.6235 151.58 66.746C150.342 65.8835 149.165 65.8535 148.25 65.591C146.862 65.1935 145.775 64.871 144.567 62.7035C144.537 62.6435 144.492 62.5985 144.44 62.576H144.425Z" fill="#92400E"/>
<path d="M146.277 54.8657C146.089 54.8807 145.924 55.0307 145.864 55.2632C145.782 55.5782 145.774 56.1032 146.494 56.4107C149.307 57.6332 150.312 57.1607 151.992 56.6732C152.997 56.3807 153.904 55.9457 155.524 55.9457C157.032 55.9457 158.157 56.7482 159.184 57.4157C160.662 58.3757 162.409 58.9757 165.447 58.1282C165.709 58.0532 165.867 57.7307 165.799 57.4007C165.732 57.0707 165.454 56.8682 165.192 56.9432C162.514 57.6857 161.217 56.8382 159.844 55.9457C158.757 55.2332 157.587 54.1982 155.824 54.1982C154.084 54.1982 152.929 54.8507 151.872 55.1582C150.282 55.6232 149.022 55.9832 146.487 54.8957C146.419 54.8657 146.344 54.8582 146.277 54.8582V54.8657Z" fill="#92400E"/>
<path d="M1.56495 39.9635C1.30245 39.956 1.05492 40.1136 0.972424 40.3761C0.867424 40.6911 1.03243 41.0361 1.35493 41.1486C1.52743 41.2086 1.93994 41.606 2.29994 41.9585C3.46244 43.0835 5.20995 44.7861 8.02995 45.1386C9.12495 45.2736 10.1224 45.2661 11.0074 45.2586C13.2799 45.2361 15.1024 45.776 17.2399 47.966C19.5124 50.291 21.2899 49.406 22.9999 49.1135C23.5924 49.016 24.1549 48.9186 24.7099 48.9336C25.0474 48.9486 25.3249 48.6861 25.3399 48.3486C25.3549 48.0111 25.0924 47.7336 24.7549 47.7186C24.0799 47.6961 23.4275 47.8085 22.7975 47.9135C21.17 48.191 19.76 48.431 17.93 46.556C15.425 43.9985 13.5874 43.796 11.3074 43.811C10.4224 43.811 9.19245 44.0511 8.17245 43.9236C5.75745 43.6236 4.18243 42.086 3.13243 41.0735C2.56993 40.526 2.16493 40.1361 1.72993 39.9861C1.66993 39.9636 1.60995 39.9561 1.55745 39.9561L1.56495 39.9635Z" fill="#92400E"/>
<path d="M23.0972 51.3035C23.2622 51.3035 23.4122 51.446 23.4722 51.671C23.5622 51.9785 23.5922 52.5035 22.9847 52.8635C20.6147 54.281 19.7297 53.8685 18.2522 53.501C17.3747 53.276 16.5648 52.901 15.1623 53.0135C13.8573 53.1185 12.9272 53.996 12.0797 54.731C10.8497 55.796 9.37224 56.501 6.70974 55.871C6.47724 55.8185 6.32723 55.5035 6.37223 55.1735C6.41723 54.8435 6.64222 54.6185 6.87472 54.6785C9.22222 55.241 10.3022 54.3035 11.4422 53.321C12.3497 52.541 13.3022 51.4235 14.8247 51.3035C16.3247 51.1835 17.3597 51.7535 18.2822 51.9935C19.6772 52.346 20.7797 52.6235 22.9172 51.3635C22.9772 51.326 23.0372 51.311 23.0972 51.3185V51.3035Z" fill="#92400E"/>
<path d="M25.4 43.7133C25.55 43.8258 25.6175 44.0359 25.5575 44.2684C25.4675 44.5834 25.205 45.0334 24.4325 44.9434C21.38 44.5759 20.7575 43.6609 19.5575 42.3934C18.8375 41.6359 18.275 40.7959 16.8725 39.9784C15.5675 39.2134 14.195 39.3408 12.9725 39.4008C11.21 39.4833 9.40248 39.1159 7.20498 36.8509C7.00998 36.6559 7.03999 36.2959 7.26499 36.0484C7.48999 35.8009 7.8275 35.7634 8.0225 35.9584C9.9575 37.9534 11.5025 37.8784 13.145 37.8034C14.4425 37.7434 15.9725 37.4359 17.495 38.3284C18.995 39.2059 19.6625 40.3534 20.42 41.1484C21.56 42.3484 22.46 43.3009 25.1975 43.6384C25.2725 43.6459 25.34 43.6758 25.3925 43.7133H25.4Z" fill="#92400E"/>
<path d="M123.987 47.2759C123.987 47.2759 122.194 51.1234 124.242 51.1759C125.884 51.2134 126.147 49.9384 125.389 47.6959C124.542 45.1984 124.392 46.3309 123.994 47.2759H123.987Z" fill="#92400E"/>
<path d="M150.672 44.3728C150.672 44.3728 149.269 42.8279 149.187 42.6029C149.104 42.3779 148.017 44.2078 147.297 44.4478C146.577 44.6878 148.077 41.9128 148.227 41.2603C148.384 40.6078 146.389 39.1979 146.224 38.9204C146.059 38.6429 148.504 39.0479 149.134 39.1829C149.764 39.3179 150.177 37.1279 150.859 37.0979C151.279 37.0754 150.732 38.9354 150.844 39.5804C150.844 39.5804 152.719 39.1603 153.064 39.5428C153.372 39.8878 151.677 40.7204 150.979 41.1254C150.552 41.3804 151.002 42.9104 150.979 44.2229C150.972 44.7104 150.672 44.3654 150.672 44.3654V44.3728Z" fill="#92400E"/>
</svg>
