<svg width="63" height="69" viewBox="0 0 63 69" fill="none" xmlns="http://www.w3.org/2000/svg">
<g filter="url(#filter0_d_238_375)">
<path d="M25.6538 45.7378C25.5953 45.6353 20.3675 37.5374 21.7294 29.5566C22.8569 30.7134 24.3213 31.5481 26.0346 31.8117C30.1788 32.4414 34.0593 29.5712 34.689 25.427C35.3187 21.2829 32.4485 17.4023 28.3043 16.7726C24.6141 16.2162 21.1436 18.442 19.9868 21.8686C18.4199 24.2848 17.5266 26.7889 17.1605 29.2637C15.7255 38.7967 21.5536 47.7586 21.8611 48.2419C22.5494 49.2816 23.9552 49.5745 24.9949 48.8716C26.0346 48.1833 26.3274 46.7775 25.6392 45.7378H25.6538ZM24.1309 23.8455C24.3798 22.1615 25.9614 21.0047 27.6308 21.2536C29.3148 21.5025 30.4716 23.0694 30.2227 24.7534C29.9737 26.4375 28.3922 27.5943 26.7229 27.3454C25.0388 27.0964 23.882 25.5149 24.1309 23.8455Z" fill="#3C2400"/>
<path d="M37.0613 22.3527C37.1345 22.4552 42.3623 30.5532 40.9711 38.534C39.8582 37.3771 38.3792 36.5424 36.6659 36.2789C32.5217 35.6492 28.6411 38.5193 28.0261 42.6635C27.3964 46.8077 30.2666 50.6882 34.4108 51.3179C38.101 51.8744 41.5715 49.6485 42.7284 46.2219C44.3099 43.8057 45.1885 41.3017 45.5546 38.8269C46.9897 29.2938 41.1615 20.3173 40.854 19.8487C40.1657 18.809 38.7599 18.5307 37.7202 19.2043C36.6659 19.8926 36.3877 21.2984 37.0759 22.3381L37.0613 22.3527ZM38.5696 44.2597C38.3206 45.929 36.7537 47.0859 35.0697 46.837C33.4003 46.588 32.2435 45.0211 32.4925 43.3371C32.7414 41.6531 34.3229 40.4962 35.9923 40.7452C37.6763 40.9941 38.8332 42.5756 38.5842 44.245L38.5696 44.2597Z" fill="#3C2400"/>
</g>
<defs>
<filter id="filter0_d_238_375" x="0.287191" y="0.0410976" width="62.1405" height="68.0076" filterUnits="userSpaceOnUse" color-interpolation-filters="sRGB">
<feFlood flood-opacity="0" result="BackgroundImageFix"/>
<feColorMatrix in="SourceAlpha" type="matrix" values="0 0 0 0 0 0 0 0 0 0 0 0 0 0 0 0 0 0 127 0" result="hardAlpha"/>
<feOffset/>
<feGaussianBlur stdDeviation="8.3232"/>
<feColorMatrix type="matrix" values="0 0 0 0 1 0 0 0 0 1 0 0 0 0 1 0 0 0 0.75 0"/>
<feBlend mode="normal" in2="BackgroundImageFix" result="effect1_dropShadow_238_375"/>
<feBlend mode="normal" in="SourceGraphic" in2="effect1_dropShadow_238_375" result="shape"/>
</filter>
</defs>
</svg>
