<svg width="71" height="73" viewBox="0 0 71 73" fill="none" xmlns="http://www.w3.org/2000/svg">
<g filter="url(#filter0_d_238_389)">
<path d="M36.0165 23.5054C34.9475 26.3902 35.4161 29.4653 36.983 31.8522C34.9622 32.0133 32.3117 31.9255 29.6904 30.959C26.4688 29.7728 23.3351 31.574 21.9 35.4546C21.1678 37.4461 21.0068 39.7305 21.6364 41.5756C19.6742 42.8204 17.9902 45.0462 17.2433 47.0963C16.6429 48.7218 16.5551 50.2886 16.9944 51.6505C17.3751 52.822 18.327 54.3889 20.6992 55.2675C21.7682 55.6629 22.9544 55.121 23.3497 54.0521C23.7451 52.9831 23.2033 51.7969 22.1343 51.4016C21.1971 51.0501 20.626 50.5376 20.9189 49.1757C21.4314 46.7449 23.8916 44.6801 24.6091 44.724L40.3803 50.5669C41.4493 50.9622 42.6355 50.4204 43.0308 49.3514C43.4262 48.2824 42.8844 47.0963 41.8154 46.7009L26.0442 40.8581C25.3559 40.6091 25.107 38.7201 25.7952 36.8897C26.1027 36.0403 26.5713 35.3521 27.0692 34.986C27.4646 34.6931 27.8161 34.6492 28.2847 34.8249C33.8785 36.8897 39.3406 35.8207 41.1711 35.3521C41.3029 35.4107 41.42 35.4839 41.5665 35.5425C42.943 36.055 44.3488 36.1868 45.7106 36.055C47.0725 37.9001 49.9426 42.7471 47.9365 48.5314C47.5704 49.615 48.1268 50.7865 49.2105 51.1526C50.2794 51.5187 51.4217 50.9622 51.817 49.9225V49.8786C54.1307 43.245 51.6267 37.6219 49.7669 34.6785C51.4656 33.6241 52.8567 32.0426 53.6036 30.0218C55.4047 25.1747 52.9153 19.7859 48.0829 17.9847C43.2358 16.1835 37.847 18.6583 36.0458 23.5054H36.0165ZM49.7083 28.5867C48.6979 31.2958 45.6813 32.6869 42.9723 31.6765C40.2632 30.6661 38.872 27.6495 39.8824 24.9258C40.8929 22.2167 43.9095 20.8256 46.6185 21.836C49.3276 22.8464 50.7188 25.863 49.7083 28.5721V28.5867Z" fill="#3C2400"/>
</g>
<defs>
<filter id="filter0_d_238_389" x="0.0723476" y="0.750082" width="70.7635" height="71.2928" filterUnits="userSpaceOnUse" color-interpolation-filters="sRGB">
<feFlood flood-opacity="0" result="BackgroundImageFix"/>
<feColorMatrix in="SourceAlpha" type="matrix" values="0 0 0 0 0 0 0 0 0 0 0 0 0 0 0 0 0 0 127 0" result="hardAlpha"/>
<feOffset/>
<feGaussianBlur stdDeviation="8.3232"/>
<feColorMatrix type="matrix" values="0 0 0 0 1 0 0 0 0 1 0 0 0 0 1 0 0 0 0.75 0"/>
<feBlend mode="normal" in2="BackgroundImageFix" result="effect1_dropShadow_238_389"/>
<feBlend mode="normal" in="SourceGraphic" in2="effect1_dropShadow_238_389" result="shape"/>
</filter>
</defs>
</svg>
