<svg width="138" height="123" viewBox="0 0 138 123" fill="none" xmlns="http://www.w3.org/2000/svg">
<path d="M19.9254 60.0473C19.6854 60.0473 19.4004 59.3723 19.3779 59.1323C19.3779 59.0873 19.9404 54.7373 16.3029 54.9698C16.1229 54.9773 16.0254 54.7448 16.0104 54.5723C15.9954 54.3998 16.0854 54.2272 16.2354 54.1297C16.3779 54.0397 20.4279 54.8872 19.6854 46.2322C19.6629 45.9697 19.8954 45.7598 20.1579 45.7598C20.4504 45.7898 20.6154 45.9697 20.6304 46.2322C20.9829 51.9322 19.2504 54.2197 24.4854 54.6697C24.6879 54.6847 24.8229 54.8873 24.8379 55.0898C24.8529 55.2923 24.7404 55.4797 24.5529 55.5622C24.5154 55.5772 20.0379 54.8873 20.3904 59.6048C20.4054 59.8523 20.1729 60.0398 19.9254 60.0473C19.9254 60.0473 19.9254 60.0473 19.9179 60.0473H19.9254Z" fill="#92400E"/>
<path d="M53.1957 29.5379C53.2482 29.6804 53.3982 29.7479 53.5182 29.6579C54.1632 29.1779 55.7532 28.2479 58.5507 28.1279C62.3532 27.9629 64.4457 28.5929 64.8882 29.4779C65.3307 30.3629 61.2507 34.7654 56.9007 35.5904C56.9007 35.5904 56.0757 35.8079 55.7457 35.5904C55.4157 35.3729 55.0332 35.0429 55.7982 34.8179C56.5707 34.6004 59.9832 32.6729 61.5807 31.4579C61.5807 31.4579 63.3957 30.1379 62.6307 29.9729C61.8657 29.8079 60.2907 29.3429 56.7357 29.6429C56.7357 29.6429 55.1907 30.0854 54.0882 31.1879C54.0882 31.1879 53.3757 31.4654 53.1807 31.2404C52.9857 31.0154 53.0457 29.6879 50.6157 28.6454L51.0582 28.1054C51.0582 28.1054 52.9257 28.7804 53.2032 29.5454L53.1957 29.5379Z" fill="#92400E"/>
<path d="M54.5761 32.4252C54.9136 32.1402 55.6112 31.1427 57.0962 30.8952C58.5812 30.6477 59.7812 30.6027 59.9462 30.8952C60.1112 31.1877 58.2586 32.1327 57.7561 32.4252C57.2536 32.7177 55.8962 33.5427 55.4012 33.5802C54.9062 33.6252 54.2461 32.7027 54.5761 32.4252Z" fill="#92400E"/>
<path d="M75.9361 7.66736C74.9386 7.29986 73.9111 6.96235 72.8461 6.96985C71.2936 6.98485 69.8386 7.74235 68.5636 8.62735C67.2886 9.51235 66.1036 10.5549 64.7236 11.2674C61.8811 12.7299 58.5136 12.6474 55.4536 13.5624C50.8486 14.9274 47.1361 18.6774 45.3061 23.0649C44.8111 24.2424 44.5636 25.5849 44.7961 26.8223C44.8636 27.1824 44.9761 27.5349 45.1336 27.8799C45.8311 29.3799 47.6461 30.4074 49.1986 29.8374C50.7136 29.2824 51.4036 27.5799 52.0336 26.0874C52.7986 24.2799 53.7286 22.5474 54.8011 20.9049C55.6711 19.5774 56.6686 18.2873 58.0336 17.4923C59.0911 16.8773 60.2986 16.5999 61.4836 16.3374C63.6436 15.8499 65.8636 15.3398 67.6711 14.0573C68.9011 13.1873 69.8686 12.0099 70.9636 10.9674C72.0586 9.93235 73.3561 9.00236 74.8561 8.82986C75.7486 8.73236 76.6636 8.91235 77.5561 8.82235C77.2711 8.19985 76.5736 7.89235 75.9361 7.65985V7.66736ZM72.0736 8.64985C71.3011 9.03235 70.2586 10.5773 69.0736 11.6798C67.8886 12.7823 66.7336 13.3299 65.3836 13.9374C64.0336 14.5449 62.3011 15.0399 60.3136 15.6474C58.3336 16.2549 55.9336 17.6049 54.7786 18.8724C53.6236 20.1399 52.5136 21.3774 51.6061 23.4174C51.0511 24.6624 50.4511 27.3324 49.7386 28.1049C49.0186 28.8774 47.7586 28.5999 47.1511 28.1049C46.5436 27.6099 46.4911 26.7249 46.4911 26.7249C46.4086 25.4574 48.0361 21.2949 50.7886 18.4899C53.5411 15.6774 59.5186 14.3724 61.6411 14.0274C65.1736 13.4499 66.4861 11.4399 67.3711 10.7499C68.2561 10.0599 69.6286 9.26486 70.4836 8.85236C71.3386 8.43986 72.8536 8.27485 72.0811 8.65735L72.0736 8.64985Z" fill="#92400E"/>
<path d="M45.0737 25.2775C45.0737 25.1125 43.1312 25.525 42.6362 25.2775C42.1412 25.03 40.8587 25.2775 40.0337 25.24C39.2087 25.195 37.5512 25.945 36.9362 26.395C36.3137 26.8525 34.2887 29.8675 33.6737 30.4825C33.0587 31.0975 32.8037 32.92 32.3912 33.8725C31.9787 34.825 32.1812 36.0625 32.1437 36.7225C32.1062 37.3825 30.2462 39.5725 29.8712 40.15C29.4962 40.7275 28.3412 43.165 28.1762 43.5775C28.0112 43.99 28.1312 44.7775 28.1762 45.025C28.2212 45.2725 29.0837 45.6475 29.0012 45.85C28.9187 46.0525 28.5437 46.345 28.7912 46.5925C29.0387 46.84 30.1562 47.05 30.6062 46.3825C31.0562 45.715 30.6062 44.77 30.0287 44.5675C29.4512 44.365 28.7087 44.1925 29.1212 43.45C29.5337 42.7075 30.4862 40.6 30.9812 40.1875C31.4762 39.775 31.8062 39.6475 32.0537 39.1975C32.3012 38.7475 33.0437 37.63 33.3362 37.0075C33.6287 36.385 33.9137 34.7725 34.3262 33.9475C34.7387 33.1225 34.7012 32.7175 34.7387 32.1325C34.7762 31.5475 35.2637 30.355 35.9537 29.5225C36.6437 28.69 37.4312 27.79 37.7612 27.58C38.0912 27.37 39.5762 27.1675 40.0787 26.7925C40.5812 26.4175 41.6462 26.215 42.1412 26.1325C42.6362 26.05 44.6237 26.005 45.0737 26.1775C45.5237 26.35 45.0737 25.27 45.0737 25.27V25.2775Z" fill="#92400E"/>
<path d="M35.031 44.0806C35.031 44.0806 35.031 43.5856 34.656 43.6231C34.281 43.6606 34.161 44.2456 33.8685 44.4106C33.576 44.5756 32.631 44.3656 32.256 45.0331C31.881 45.7006 31.926 46.0681 32.0085 46.3531C32.091 46.6381 32.9985 47.3206 34.071 46.8406C34.071 46.8406 34.5285 46.5181 33.7785 46.3531C33.7785 46.3531 33.3135 45.8881 34.3185 44.9056C34.5885 44.6356 34.896 44.5306 35.0235 44.0806H35.031Z" fill="#92400E"/>
<path d="M36.7187 41.6047C36.7187 41.6047 37.0262 41.4547 37.2962 41.1547C37.5662 40.8547 38.1362 39.9472 38.2562 39.6922C38.3762 39.4372 38.3162 39.2422 38.1437 39.2422C37.9712 39.2422 37.7162 39.7897 37.4612 39.8422C37.2062 39.8947 37.1237 39.9772 36.9812 40.3222C36.8387 40.6672 36.4712 41.0872 36.4487 41.2222C36.4262 41.3572 36.3212 41.5147 36.7187 41.5972V41.6047Z" fill="#92400E"/>
<path d="M57.2233 35.5226C57.2233 35.5226 58.0258 36.3101 59.3833 36.3101C60.7408 36.3101 61.5658 35.8151 62.5558 36.0026C63.5458 36.1901 64.1683 36.4376 64.2058 36.6026C64.2433 36.7676 63.5833 38.0501 62.3458 38.2151C61.1083 38.3801 59.9458 38.2151 60.2383 38.3801C60.5308 38.5451 61.4758 39.7826 62.0983 40.4051C62.7208 41.0276 61.3933 41.1476 60.4858 41.5226C59.5783 41.8976 59.1208 41.8526 58.7083 41.5226C58.2958 41.1926 60.4033 42.6401 60.4858 44.6651C60.5683 46.6901 58.6708 46.1501 58.0033 45.6176C57.3358 45.0851 55.4008 43.5926 55.1533 42.6851C54.9058 41.7776 55.2358 41.6951 55.5658 41.7326C55.8958 41.7701 56.0608 42.3551 56.4733 42.7676C56.8858 43.1801 58.4158 45.6926 59.0383 45.3251C59.6608 44.9576 59.5783 44.0501 59.1658 43.3076C58.7533 42.5651 57.4783 41.5301 57.2233 40.8251C56.9758 40.1276 57.1408 40.3676 57.5533 40.1876C57.9658 40.0076 58.8733 41.1176 59.6383 41.0801C60.4033 41.0426 60.8983 40.9151 60.8158 40.4576C60.7333 40.0001 59.5333 38.4326 59.0833 38.2226C58.6333 38.0126 58.5883 37.7276 59.0383 37.6001C59.4883 37.4726 60.8983 37.8926 61.7233 37.5551C62.5483 37.2176 62.7958 36.6026 62.5108 36.5201C62.2258 36.4376 61.5208 36.1901 60.5308 36.7301C59.5408 37.2701 58.0108 37.0601 57.5533 36.7751C57.0958 36.4901 56.2708 35.6201 56.2708 35.5376C56.2708 35.4551 57.2158 35.5376 57.2158 35.5376L57.2233 35.5226Z" fill="#92400E"/>
<path d="M54.4938 44.9049C54.7338 44.7324 55.0338 44.7699 55.3263 45.3174C55.6188 45.8649 55.8213 47.3049 55.8663 47.4699C55.9113 47.6349 55.6563 47.7999 55.3713 47.9274C55.0863 48.0549 54.5763 46.7799 54.5013 46.4049C54.4263 46.0299 54.0438 45.2424 54.5013 44.9124L54.4938 44.9049Z" fill="#92400E"/>
<path d="M52.7158 46.3756C52.7158 46.3756 53.1283 46.3382 53.5858 46.8407C54.0433 47.3432 54.3658 47.9281 54.2683 48.1756C54.1708 48.4231 53.7058 48.6706 53.5033 48.5056C53.3008 48.3406 52.7158 47.8756 52.5508 47.4706C52.3858 47.0656 52.1383 46.8556 52.7158 46.3831V46.3756Z" fill="#92400E"/>
<path d="M52.1008 51.9702C52.1158 52.1427 52.2283 54.6176 52.1008 55.0676C51.9733 55.5176 52.0183 56.1027 51.7708 56.3052C51.5233 56.5077 51.0658 56.9277 50.8183 57.0102C50.5708 57.0927 49.7833 55.8102 49.4533 55.1127C49.1233 54.4077 48.3358 52.7126 48.0883 52.6301C47.8408 52.5476 47.6308 52.4201 47.6308 53.2901C47.6308 54.1601 47.9233 55.9751 47.6308 56.7626C47.3383 57.5501 46.7233 58.1651 46.2283 58.3301C45.7333 58.4951 45.1558 57.7076 44.9908 57.1301C44.8258 56.5526 44.3683 53.7851 44.4508 52.7051C44.5333 51.6251 45.2233 51.5876 45.2758 51.7976C45.3283 52.0076 45.4483 53.2001 45.5308 53.7401C45.6133 54.2801 45.9058 56.6351 46.1083 56.3426C46.3108 56.0501 46.4383 56.0576 46.3183 55.0226C46.1908 53.9876 46.1533 52.6602 46.5658 52.2477C46.9783 51.8352 47.2708 51.8051 48.0133 51.6926C48.7558 51.5876 49.0483 51.6702 49.2508 52.5327C49.4533 53.3952 50.3233 55.3001 50.6533 55.5476C50.9833 55.7951 50.8183 55.3377 50.8633 54.8052C50.9083 54.2727 51.0733 52.6601 51.0733 51.9101C51.0733 51.1601 51.2383 51.4527 51.6133 51.4527C51.9883 51.4527 52.0708 51.4152 52.1083 51.9477L52.1008 51.9702Z" fill="#92400E"/>
<path d="M34.7014 47.9278C34.8739 47.9578 36.1039 47.6278 35.7739 48.1228C35.1589 49.0528 34.0188 49.6078 32.9238 49.7503C31.7688 49.9003 29.7814 50.1778 29.4514 49.7503C29.1214 49.3228 28.7914 48.5803 29.4514 48.2053C30.1114 47.8303 30.6888 48.0403 30.9363 48.2878C31.1838 48.5353 31.5589 48.6404 32.4439 48.5504C33.3289 48.4529 33.6214 47.7253 34.6939 47.9278H34.7014Z" fill="#92400E"/>
<path d="M30.0357 49.9824C30.0357 49.9824 30.5307 51.3099 31.1082 51.8049C31.1082 51.8049 30.5682 52.0149 30.3657 52.4274C30.1632 52.8399 29.2932 53.5449 29.4132 54.3249C29.5332 55.1049 30.4482 55.1124 31.1082 54.6999C31.7682 54.2874 31.7682 54.5499 31.6482 54.9774C31.5282 55.4049 30.8232 56.9799 30.9057 58.3599C30.9882 59.7399 31.6482 60.0699 32.2257 60.1149C32.8032 60.1599 33.8757 58.5474 34.0407 57.3024C34.2057 56.0649 34.0857 55.3599 34.0407 54.5349C33.9957 53.7099 33.9957 52.9224 34.3332 53.1324C34.6707 53.3424 34.6632 53.6724 34.6257 54.4524C34.5882 55.2324 34.4157 57.8799 35.6157 57.5499C36.8157 57.2199 36.6882 56.5974 36.6882 55.2324C36.6882 53.8674 36.9807 52.6674 37.8882 52.2174C38.7957 51.7674 39.4182 51.3099 40.2882 51.1449C41.1582 50.9799 43.9632 50.8524 45.0807 50.4849C46.1982 50.1174 47.5632 49.0374 48.3057 48.3774C49.0482 47.7174 50.1582 46.3749 50.1582 46.3749C50.1582 46.3749 50.1582 46.1049 49.1682 46.3749C48.1782 46.6449 47.1432 47.7624 46.5657 48.2124C45.9882 48.6699 43.4232 49.7349 42.3507 49.7574C41.2782 49.7799 38.0307 50.6124 37.5882 51.1074C37.1457 51.6024 35.9757 51.9324 35.8332 52.5924C35.6907 53.2524 36.3057 55.3599 35.8332 55.6899C35.3607 56.0199 35.0757 55.1199 35.4432 54.0774C35.8182 53.0349 35.1507 52.5474 35.0307 52.4649C34.9107 52.3824 33.6507 52.0899 33.4932 52.4199C33.3357 52.7499 33.5307 54.7374 33.4932 55.4799C33.4557 56.2224 33.2157 58.9524 32.4507 58.7049C31.6857 58.4574 31.3257 57.9174 31.9557 56.2674C32.5857 54.6174 33.0057 53.5374 33.0057 53.0049C33.0057 52.4724 32.8482 52.3824 32.4507 52.3449C32.0532 52.3074 31.6407 53.2524 31.3107 53.5449C30.9807 53.8374 30.4032 54.3699 30.1932 54.1674C29.9832 53.9649 30.5682 52.9299 31.1832 52.4349C31.7982 51.9399 32.1882 51.8949 31.9557 51.6474C31.7232 51.3999 30.8157 50.1099 30.8157 49.7649C30.8157 49.4199 29.8557 49.5699 30.0282 49.9899L30.0357 49.9824Z" fill="#92400E"/>
<path d="M41.8489 50.7327C41.8489 50.7327 41.8039 52.4952 41.3914 53.1852C40.9789 53.8752 40.3564 55.8177 40.2364 56.5602C40.1164 57.3027 40.4464 57.5952 41.0389 57.7152C41.6389 57.8427 42.7114 57.6702 43.0039 57.0102C43.2964 56.3502 43.7089 54.6552 43.9114 54.2427C44.1139 53.8302 44.2039 52.8627 43.9114 53.1852C43.6189 53.5077 42.3364 55.6527 42.1564 56.0652C41.9764 56.4777 41.5564 57.1377 41.2264 56.9727C40.8964 56.8077 41.3539 55.6602 41.6839 54.8877C42.0139 54.1152 42.3889 53.5377 42.5539 52.6752C42.7189 51.8052 42.7639 51.2277 42.7189 50.7327C42.6739 50.2377 41.8489 50.7327 41.8489 50.7327Z" fill="#92400E"/>
<path d="M43.0108 57.0102C43.0108 57.0102 43.0558 59.4476 43.0108 60.1076C42.9658 60.7676 42.4708 61.9676 42.1633 62.6651C41.8558 63.3626 41.0683 65.3502 41.6083 66.0102C42.1483 66.6702 43.3407 66.9177 43.8807 66.0102C44.4207 65.1027 44.7508 64.1502 44.8333 64.0302C44.9158 63.9102 44.9083 63.9476 45.2833 64.9826C45.6583 66.0176 46.6933 67.0452 47.4358 66.9627C48.1783 66.8802 48.4708 66.3026 48.5083 65.6426C48.5458 64.9826 48.0958 61.6377 47.8033 61.0977C47.5108 60.5577 46.7683 60.6401 46.8958 61.1426C47.0233 61.6451 47.7658 64.1202 47.5558 64.9452C47.3458 65.7702 47.0608 66.3102 46.5208 65.9802C45.9808 65.6502 45.2308 63.6252 45.2758 63.0027C45.3208 62.3802 45.0358 62.0502 44.6983 62.2602C44.3608 62.4702 43.8283 65.0277 43.3783 65.2752C42.9283 65.5227 42.8008 65.1927 42.8383 64.5702C42.8758 63.9477 43.6258 61.8852 43.8733 61.3902C44.1208 60.8952 44.2858 60.7676 44.0983 60.3176C43.9108 59.8676 43.3858 56.6277 43.3408 56.0352C43.2958 55.4427 43.0033 57.0102 43.0033 57.0102H43.0108Z" fill="#92400E"/>
<path d="M51.6059 60.1149C51.6209 60.3174 51.8459 62.5524 52.1609 63.7524C52.4759 64.9524 52.9784 65.6499 53.3234 65.1549C53.6684 64.6599 53.8333 64.3674 53.9608 63.5424C54.0883 62.7174 53.6308 61.0299 53.9608 61.4424C54.2908 61.8474 55.9409 63.4224 56.5634 63.3774C57.1859 63.3324 56.6909 61.3974 56.5634 60.8574C56.4359 60.3174 56.7284 60.9399 57.2234 61.2324C57.7184 61.5249 59.2483 62.1024 59.5408 61.8549C59.8333 61.6074 59.3309 60.8649 59.2484 60.3249C59.1659 59.7849 58.7534 58.7199 58.3409 58.3674C57.9284 58.0149 57.3884 58.1799 57.5534 58.5549C57.7184 58.9299 58.5434 59.7924 58.6709 60.4524C58.7984 61.1124 58.7158 61.2774 58.0933 60.9099C57.4708 60.5349 55.9109 59.1774 55.6184 58.7649C55.3259 58.3524 55.2284 58.3074 55.0709 58.6374C54.9134 58.9674 55.3334 60.0024 55.6184 60.6999C55.9034 61.4049 56.1209 62.6799 55.8659 62.3499C55.6109 62.0199 54.9509 61.1949 54.2684 60.6549C53.5859 60.1149 53.0533 59.4999 52.9258 59.8299C52.7983 60.1599 53.5559 62.5599 53.3234 63.2199C53.0909 63.8799 53.1359 64.5849 52.9709 64.2099C52.8059 63.8349 52.4083 62.5449 52.3633 61.7424C52.3183 60.9399 52.4684 59.9949 52.1609 59.8299C51.8534 59.6649 51.5684 59.6949 51.6059 60.1224V60.1149Z" fill="#92400E"/>
<path d="M56.4809 52.1349C56.4584 52.3074 56.2709 53.3799 56.4809 54.8874C56.6909 56.3949 57.4708 57.1374 58.3408 56.6424C59.2108 56.1474 58.7534 54.4524 58.5884 53.6649C58.4234 52.8774 58.9633 53.7099 59.8708 53.9124C60.7783 54.1224 61.1083 53.8149 61.1908 53.1774C61.2733 52.5399 60.5684 51.2649 60.3659 51.0174C60.1634 50.7699 62.0158 52.0899 63.0508 51.9699C64.0858 51.8499 64.1233 50.7999 63.9208 49.7574C63.7183 48.7149 61.7608 46.8249 61.0033 46.8399C60.2458 46.8549 60.2458 47.3349 60.6208 47.4624C60.9958 47.5899 61.9409 47.5299 62.5184 48.5574C63.0959 49.5774 63.4483 50.7249 63.0133 51.0624C62.5558 51.4224 61.1534 51.0324 60.6584 50.5149C60.1634 49.9974 59.2108 49.6899 59.0458 49.7574C58.8808 49.8249 58.8359 50.2374 59.3759 50.6949C59.9159 51.1524 60.5758 52.2624 60.5758 52.8849C60.5758 53.5074 60.0808 53.7549 59.6458 53.5074C59.2108 53.2599 58.3483 52.4124 58.1008 51.8199C57.8533 51.2274 57.4408 51.4974 57.4408 51.8199C57.4408 52.1424 58.2658 55.5399 57.8533 55.9074C57.4408 56.2749 57.0658 56.1999 57.1483 55.9074C57.2308 55.6149 56.7359 54.3174 56.8559 53.1849C56.9834 52.0599 56.5559 51.6024 56.4809 52.1424V52.1349Z" fill="#92400E"/>
<path d="M66.3957 46.8398C66.3957 46.8398 65.8182 46.8923 65.7732 47.2598C65.7282 47.6273 66.1032 48.3773 66.6432 48.1673C67.1832 47.9573 67.0557 47.9123 66.9357 47.4623C66.8157 47.0123 66.3957 46.8398 66.3957 46.8398Z" fill="#92400E"/>
<path d="M67.4311 44.4102C67.4311 44.4102 66.8536 44.3952 66.7711 44.8152C66.6886 45.2352 67.7611 45.7302 68.1361 45.6477C68.5111 45.5652 68.1811 44.5752 67.4311 44.4102Z" fill="#92400E"/>
<path d="M54.7862 55.6525C54.7862 55.6525 54.0812 55.36 53.8787 55.6525C53.6762 55.945 53.3837 56.3575 53.8787 56.44C54.3737 56.5225 54.9812 56.4849 55.0712 56.1924C55.1612 55.8999 54.7937 55.6525 54.7937 55.6525H54.7862Z" fill="#92400E"/>
<path d="M53.6012 57.7527C53.6012 57.7527 54.1937 57.0552 53.6012 56.9727C53.0087 56.8902 52.5962 57.0927 52.5962 57.3627C52.5962 57.6327 52.7087 57.9552 53.6012 57.7527Z" fill="#92400E"/>
<path d="M47.3455 34.4131C46.8055 34.1656 46.3554 34.2031 44.9604 34.4131C43.5654 34.6231 42.2679 35.9056 42.1554 36.0031C41.7279 36.3856 41.3079 37.5931 41.9679 38.1331C42.6279 38.6731 44.0305 38.5906 44.7055 38.1331C45.3805 37.6756 45.3955 37.6756 46.0555 37.1806C46.7155 36.6856 47.173 35.8981 47.338 35.4931C47.503 35.0881 47.878 34.6606 47.338 34.4131H47.3455ZM43.8354 37.3006C43.5879 37.4281 42.9655 37.4281 42.8455 37.0906C42.7255 36.7531 43.138 35.9355 43.633 35.688C44.128 35.4405 44.9979 35.1481 45.5304 34.9456C46.0629 34.7431 46.5205 34.9006 46.7305 34.9456C46.8505 34.9681 46.4529 35.463 46.0929 35.8755C45.9804 36.0105 45.6955 36.4456 45.283 36.7006C44.7205 37.0531 43.9854 37.2256 43.8429 37.3006H43.8354Z" fill="#92400E"/>
<path d="M45.5086 35.5896C45.5086 35.5896 45.5386 35.3946 45.2761 35.4921C45.0136 35.5896 44.5786 35.7321 44.3536 35.8371C44.1286 35.9421 43.5061 36.3096 43.4011 36.3696C43.2961 36.4296 43.1086 36.8646 43.5436 36.8271C43.9786 36.7896 44.3236 36.7221 44.6236 36.4971C44.9236 36.2721 45.0361 36.2496 45.2686 35.9196L45.5011 35.5896H45.5086Z" fill="#92400E"/>
<path d="M45.6134 33.1299C45.6134 33.1299 45.4709 33.3174 45.1784 33.4374C44.8859 33.5574 44.2484 33.6249 44.0009 33.8499C43.7534 34.0749 42.9884 34.5774 42.8234 34.8399C42.6584 35.1024 42.4184 35.5599 42.3884 35.6874C42.3584 35.8149 41.9984 36.6849 41.8334 36.8274C41.6684 36.9699 41.2334 36.3699 41.1959 36.1449C41.1584 35.9199 41.3909 35.0724 41.6384 34.6374C41.8859 34.2024 42.2309 33.9774 42.7259 33.5874C43.2209 33.1974 43.4459 33.0099 43.8209 32.8599C44.1959 32.7099 44.3759 32.9199 44.7884 32.8599C45.2009 32.7999 45.5909 32.6724 45.6134 33.1299Z" fill="#92400E"/>
<path d="M35.0306 28.8703C35.0306 28.8703 34.8356 27.1078 33.4931 26.6653C32.1506 26.2228 32.0381 26.0578 31.4306 25.8403C30.8231 25.6228 29.1731 25.3678 27.8531 25.1653C26.5331 24.9628 25.7081 24.5428 26.0381 25.1653C26.3681 25.7878 27.0881 26.7253 27.3581 27.3253C27.6281 27.9253 28.1831 30.5203 30.2231 31.2403C32.2631 31.9528 33.4931 32.3428 33.4931 32.3428L33.9656 31.4053C33.9656 31.4053 32.4731 31.4578 31.9556 31.2403C31.4381 31.0228 30.2756 30.3028 29.7281 29.5903C29.1806 28.8778 27.8006 27.0028 27.5231 26.5603C27.2456 26.1178 27.1406 25.9528 27.8531 25.9528C28.5656 25.9528 30.3356 26.6653 30.9356 26.9428C31.5356 27.2203 34.0181 29.2078 34.3481 30.0028C34.6781 30.7978 35.0231 28.8703 35.0231 28.8703H35.0306Z" fill="#92400E"/>
<path d="M35.5189 28.5925C35.3014 28.39 34.1989 25.7875 33.8689 23.695C33.5389 21.6025 32.1814 18.3775 31.6639 17.6875C30.1189 15.6475 26.5939 14.875 25.6039 10.9675C25.6039 10.9675 24.4489 8.54504 24.5014 5.23754C24.5539 1.93004 22.5739 1.60003 22.2964 0.992535C22.0189 0.385035 22.1314 -0.222464 23.2339 0.220036C24.3364 0.662536 27.3363 3.52753 28.0938 5.78503C28.8513 8.04253 30.4939 10.465 32.4589 11.4025C34.4164 12.34 39.5464 14.9275 40.8664 18.73C42.1864 22.5325 42.1639 25.675 42.1639 25.675C42.1639 25.675 39.9589 26.005 40.2214 25.84C40.4839 25.675 40.8664 23.0875 40.4839 21.985C40.1014 20.8825 38.7289 17.3575 37.5964 16.3675C36.4639 15.3775 34.5739 13.8325 33.5089 13.225C32.4439 12.6175 30.5164 11.68 29.6839 10.5775C28.8514 9.47503 26.3389 5.23004 25.9714 4.35254C25.6039 3.47504 24.5014 2.09504 24.3889 2.14754C24.2764 2.20004 23.8638 1.32254 23.7813 1.81754C23.6988 2.31254 24.6064 2.20004 24.8839 4.35254C25.1614 6.50504 26.4289 11.4625 28.6339 13C30.8389 14.545 31.7764 16.195 32.8789 16.915C33.9814 17.6275 34.8364 19.8925 35.0389 21.985C35.2489 24.0775 36.1189 27.145 36.6889 27.6025C37.2589 28.06 35.5264 28.585 35.5264 28.585L35.5189 28.5925Z" fill="#92400E"/>
<path d="M66.201 81.8728C66.861 82.1503 68.016 81.7603 70.1685 82.2553C72.3135 82.7503 77.2785 82.0903 79.371 81.9253C81.4635 81.7603 84.1635 80.5453 86.421 80.4403C88.6785 80.3353 90.7185 80.9878 92.2635 81.9853C93.8085 82.9753 94.0785 83.9653 93.9135 85.2928C93.7485 86.6128 91.7685 90.1378 89.781 91.5178C87.7935 92.8978 85.371 93.3928 83.061 94.1053C80.751 94.8178 76.7235 94.9303 74.6835 94.8778C72.6435 94.8253 67.6334 94.8253 63.9434 94.2703C60.2534 93.7228 57.0585 94.1053 55.8435 94.3228C54.6285 94.5403 52.6485 95.3728 51.876 96.2503C51.1035 97.1278 49.896 98.6203 48.8985 99.9403C47.9085 101.26 46.146 104.62 46.9185 104.898C47.691 105.175 48.7935 104.455 49.6185 103.63C50.4435 102.805 54.8535 101.373 55.5135 100.383C56.1735 99.3928 58.926 99.0028 60.996 98.4028C63.0585 97.7953 65.8185 98.2378 67.7985 98.7328C69.7785 99.2278 73.806 99.7828 75.8985 100.383C77.991 100.99 83.886 100.825 86.1435 100.878C88.401 100.93 95.7885 100.435 98.4285 100.383C101.076 100.33 103.221 99.1678 104.376 98.1778C105.531 97.1878 111.486 90.9028 112.086 89.7478C112.686 88.5928 114.066 86.1103 114.568 84.6253C115.063 83.1403 115.558 78.0703 114.568 74.8153C113.578 71.5678 112.476 68.5903 110.878 66.6628C109.281 64.7353 104.601 60.7153 103.498 59.9953C102.396 59.2828 98.4885 57.5128 96.0585 56.4628C93.636 55.4128 87.246 51.4003 85.0935 50.1328C82.9485 48.8653 77.7135 45.8878 75.066 43.7953C72.4185 41.7028 67.9035 40.7128 66.396 40.6528C64.8885 40.5928 64.101 40.3303 63.6585 40.1653C63.3285 40.0453 63.051 40.4953 62.871 40.8553C62.811 40.9753 62.9084 41.2153 63.0059 41.2453C63.5684 41.4253 64.131 41.5978 64.7085 41.7178C65.6985 41.9278 67.131 42.8053 69.4485 43.0228C71.766 43.2403 73.1985 43.9753 75.5085 45.6478C77.826 47.3203 78.756 47.9653 80.136 48.9103C81.516 49.8553 83.826 52.6078 86.526 54.5428C89.226 56.4703 91.3185 57.0403 93.3585 57.7453C95.3985 58.4503 101.406 60.6028 103.663 62.1403C105.921 63.6853 109.393 67.4878 110.991 70.0753C112.588 72.6628 113.361 77.2903 113.248 79.6078C113.136 81.9253 113.031 84.1228 112.753 84.8953C112.476 85.6678 111.433 88.8628 110.548 90.1303C109.663 91.3978 105.148 94.7053 103.603 96.0253C102.058 97.3453 99.1935 98.8378 96.441 99.0553C93.6885 99.2728 90.381 99.2728 87.2985 99.6628C84.216 100.045 80.631 100.105 78.591 99.8278C76.551 99.5503 73.026 99.0553 69.3885 98.2303C65.751 97.4053 63.051 96.6853 60.516 97.4053C57.981 98.1178 54.951 99.1153 53.796 100.323C52.641 101.538 48.786 103.795 49.1685 102.745C49.551 101.695 50.5485 99.0553 53.2485 97.0153C55.9485 94.9753 58.041 95.1403 61.566 95.2528C65.091 95.3653 71.151 96.1903 76.1085 95.7478C81.066 95.3053 82.1684 95.5303 85.086 94.8103C88.0035 94.0978 90.5985 93.2128 92.2485 91.7278C93.8985 90.2428 94.7835 88.4203 95.391 87.1528C95.9985 85.8853 96.1035 84.3403 95.2785 82.9678C94.4535 81.5878 91.641 79.6603 89.661 79.4953C87.681 79.3303 83.436 79.0528 81.4485 79.7128C79.4685 80.3728 75.831 81.3628 74.5035 81.4228C74.5035 81.4228 71.8035 81.7528 70.866 81.5878C69.9285 81.4228 68.5484 81.0403 68.1134 80.9803C67.6784 80.9203 66.186 81.8653 66.186 81.8653L66.201 81.8728Z" fill="#92400E"/>
<path d="M107.878 64.4572C106.738 64.1872 101.878 59.3797 100.716 59.2222C99.5534 59.0722 104.391 62.0497 100.176 66.7447C98.9308 68.1322 98.5183 70.2622 97.9408 71.3272C97.3633 72.3922 94.6709 74.2747 94.2584 75.0772C93.8384 75.8797 92.7283 77.0047 91.9258 77.3422C91.1308 77.6872 88.2959 78.6847 88.2959 78.6847L86.5933 79.7947C86.5933 79.7947 88.9034 80.3572 90.8834 80.6647C92.8634 80.9647 94.6334 83.6347 95.0159 84.6247C95.3984 85.6147 93.2534 89.5747 91.9184 91.0822C90.5834 92.5897 86.3233 93.8797 83.1358 94.7197C79.9483 95.5597 70.1309 95.3497 69.5609 95.2222C68.9909 95.0947 58.8059 94.3147 57.6434 94.4347C56.4809 94.5547 52.4308 96.8122 51.6133 97.6297C50.7958 98.4472 48.2984 103.442 48.4559 103.487C48.6134 103.532 51.8909 102.407 52.1534 102.025C52.4159 101.635 54.1559 100.87 54.9734 100.045C55.7909 99.2197 59.4883 98.8072 61.0408 97.8997C62.6008 96.9922 68.4058 98.2822 68.7883 98.5072C69.1708 98.7322 75.1183 99.7447 76.7533 99.9997C78.3883 100.255 81.4483 100.427 81.4483 100.427H86.9233L89.8484 100.255C92.0684 99.6397 98.4209 100.39 100.168 99.6772C101.916 98.9722 106.101 95.4322 106.806 94.7197C107.511 94.0072 112.078 89.7547 112.588 86.8072C113.098 83.8597 113.668 82.3447 113.788 77.7247C113.901 73.1047 109.003 64.7272 107.863 64.4572H107.878ZM82.5133 98.4622C82.2358 98.5747 79.3183 98.5147 79.0408 97.5247C78.7633 96.5347 80.8333 96.5347 81.2458 96.5572C81.9058 96.5947 82.3483 96.0922 82.1308 96.5122C81.9133 96.9322 81.9133 97.3072 82.1833 97.5097C82.4608 97.7122 82.7908 98.3572 82.5133 98.4622ZM87.7484 97.8547C86.4809 98.0722 84.3359 97.2472 84.2759 96.5347C84.2234 95.8222 86.4283 95.3272 86.6458 95.2672C87.2383 95.1097 87.3583 95.3797 87.6358 95.9872C87.9133 96.5947 89.1208 96.7522 89.5108 96.9772C89.8933 97.1947 89.0159 97.6372 87.7484 97.8622V97.8547ZM105.433 71.5147C105.981 71.2972 106.041 71.2972 106.648 70.8397C107.256 70.3822 107.533 69.6997 107.548 69.2047C107.563 68.7097 108.193 69.1522 108.306 69.6472C108.418 70.1422 109.408 71.4097 109.521 72.0697C109.633 72.7297 110.181 73.0597 109.078 73.2847C107.976 73.5022 106.708 73.0672 105.883 72.5647C105.058 72.0622 105.441 71.5222 105.441 71.5222L105.433 71.5147ZM105.343 77.4697C105.696 77.5822 105.711 78.0172 106.318 77.9122C106.926 77.7997 107.203 76.5922 107.548 76.3147C107.893 76.0372 108.306 76.2622 108.411 76.6447C108.523 77.0272 108.411 77.8597 108.411 78.5197C108.411 79.1797 108.463 80.6122 107.548 81.1072C106.626 81.6022 105.493 79.8922 105.351 79.1272C105.208 78.3622 104.781 78.2422 104.721 77.9122C104.721 77.9122 104.998 77.3647 105.351 77.4697H105.343ZM99.4783 72.7822C99.7033 72.7297 99.8083 72.9997 100.416 72.5572C101.023 72.1222 102.126 71.6272 102.291 71.1847C102.456 70.7422 102.838 70.5772 103.116 71.5672C103.393 72.5572 104.053 73.7722 103.116 74.7622C102.178 75.7522 99.8083 74.1022 99.4783 73.7722C99.1483 73.4422 98.5408 73.0072 99.4783 72.7822ZM96.7258 79.6672C96.8908 79.6672 97.9934 79.5022 98.4359 78.7822C98.8784 78.0622 99.4258 77.2972 99.7558 77.1322C100.086 76.9672 100.468 77.3497 100.806 77.4097C101.136 77.4622 101.578 78.7897 101.578 79.6672C101.578 80.5447 101.136 82.0897 100.971 82.3672C100.806 82.6447 99.6508 82.4197 99.1558 82.1497C98.6608 81.8722 96.7334 80.7697 96.7334 80.2222V79.6747L96.7258 79.6672ZM96.1784 94.4272C95.8484 94.7497 93.7558 95.9197 92.4883 96.1972C91.2208 96.4747 91.4384 95.3122 91.4984 94.8172C91.5509 94.3222 93.4783 92.6122 93.4783 92.6122C93.4783 92.6122 94.1909 92.6647 94.2509 93.2722C94.3034 93.8797 94.6334 94.2622 95.1884 94.4197C95.7359 94.5772 96.5084 94.0972 96.1784 94.4197V94.4272ZM95.9308 91.4047C95.3008 91.4047 95.3534 90.5797 95.4659 89.6422C95.5784 88.7047 96.4034 87.2197 96.4034 87.2197C96.4034 87.2197 96.8983 87.1072 96.9508 87.2197C97.0033 87.3322 96.9508 88.0447 97.2733 88.2697C97.5958 88.4872 97.6634 88.9897 98.1584 89.0422C98.6534 89.0947 99.0958 89.0422 99.1483 89.3197C99.2008 89.5972 98.7058 89.5972 97.9934 90.0922C97.2808 90.5872 96.5608 91.4122 95.9308 91.4122V91.4047ZM103.011 95.0947C102.681 95.4247 100.033 95.9197 99.1558 95.9797C98.2783 96.0322 97.3858 95.4322 97.2733 94.9297C97.1608 94.4347 98.9908 92.6722 99.1558 92.5072C99.7858 91.8697 100.033 92.5072 100.183 93.0022C100.333 93.4972 101.466 93.8272 102.073 94.2472C102.681 94.6597 103.341 94.7722 103.011 95.1022V95.0947ZM102.786 89.3647C101.076 89.7472 101.008 87.9847 101.293 87.1597C101.578 86.3347 102.021 85.0672 102.073 84.6247C102.126 84.1822 102.793 84.1822 102.793 84.1822C103.123 84.3997 103.236 85.1722 103.896 84.9022C104.556 84.6247 105.426 84.1897 105.351 84.5722C105.276 84.9547 104.503 88.9747 102.793 89.3647H102.786ZM109.566 91.4422C109.536 91.7272 107.653 92.8072 107.023 93.3172C106.393 93.8272 104.773 93.5047 104.331 93.3922C103.888 93.2797 103.836 92.1772 103.836 91.4122C103.836 90.6472 105.486 89.5372 105.711 89.2972C105.711 89.2972 106.258 89.2147 106.318 89.4322C106.371 89.6497 106.318 90.5872 106.828 90.8122C107.338 91.0297 108.471 91.0897 109.348 90.9247C110.233 90.7597 109.603 91.1722 109.566 91.4572V91.4422ZM112.596 83.1997C112.483 83.7472 111.606 85.2922 111.216 85.6222C110.833 85.9522 109.236 86.3947 108.793 85.6222C108.351 84.8497 108.741 82.3147 108.793 82.0447H109.288C109.783 82.0447 109.566 82.5922 110.173 82.8697C110.781 83.1472 111.493 83.3122 111.823 83.0872C112.153 82.8697 112.708 82.6447 112.596 83.1997Z" fill="#92400E"/>
<path d="M54.486 94.7197C54.3435 94.7722 47.526 95.7547 45.816 96.5572C44.106 97.3597 37.1086 102.377 35.9536 103.915C34.7986 105.46 30.9436 111.52 30.6661 113.335C30.3886 115.15 30.0586 115.87 30.2836 116.417C30.5011 116.965 36.6211 115.427 38.1586 114.655C39.6961 113.882 45.7036 110.702 47.5786 104.965L47.1961 104.132C47.1961 104.132 44.7136 108.152 43.6711 109.037C42.6286 109.922 35.736 113.995 34.6335 114.385C33.531 114.775 33.6436 114.272 34.0861 112.9C34.5286 111.52 37.3935 106.397 38.2185 105.242C39.0435 104.087 44.7736 99.2647 46.1536 98.5072C47.5336 97.7497 51.6061 96.6022 52.5961 96.3472C53.5861 96.0997 54.486 94.7272 54.486 94.7272V94.7197Z" fill="#92400E"/>
<path d="M54.9884 100.862C54.9884 100.862 54.2459 101.77 54.7409 103.09C55.2359 104.41 57.4409 109.81 57.8234 113.5C58.2059 117.19 57.6584 121.105 57.2159 121.982C56.7734 122.867 51.6509 120.002 49.9409 117.902C48.2309 115.81 45.9734 113.515 45.9209 108.242C45.9209 108.242 46.2509 106.885 46.3034 106.66C46.3559 106.435 47.7359 104.342 47.7359 104.342L48.2609 104.657C48.2609 104.657 48.1184 107.59 48.3959 108.857C48.6734 110.125 49.3334 113.432 51.4784 115.577C53.6234 117.722 55.1159 118.607 55.8284 119.327C56.5409 120.04 56.3759 119.987 56.3759 118.337C56.3759 116.687 56.4284 113.545 56.0459 111.722C55.6634 109.907 53.4284 105.445 53.1809 103.675C52.9334 101.905 53.5109 100.84 53.5109 100.84H54.9659L54.9884 100.862Z" fill="#92400E"/>
<path d="M50.9458 97.8926C50.9458 97.8926 48.6058 98.3201 47.7808 98.7776C46.9558 99.2351 38.7508 105.64 37.1083 107.035C35.4658 108.43 35.3008 108.873 35.3008 108.873C35.3008 108.873 35.0833 109.84 35.3008 109.863C35.5183 109.885 36.1258 109.038 36.9508 108.265C37.7758 107.493 39.5983 105.903 40.8658 104.965C42.1333 104.02 44.0607 102.7 45.3807 101.823C46.7007 100.945 48.1333 100.225 48.9058 99.9476C49.6783 99.6701 50.9458 97.8926 50.9458 97.8926Z" fill="#92400E"/>
<path d="M48.4634 101.38C48.0809 101.223 43.1759 104.523 41.4659 106.173C39.7559 107.823 35.7884 111.52 34.0859 112.893C32.3759 114.273 33.2009 114.603 33.2009 114.603C33.2009 114.603 35.0159 113.5 36.4484 112.345C37.8809 111.19 39.0359 109.81 40.4684 108.49C41.9009 107.17 43.2209 106.465 43.9934 105.633C44.7659 104.8 47.1884 103.15 47.7959 102.82C48.4034 102.49 48.4559 101.388 48.4559 101.388L48.4634 101.38Z" fill="#92400E"/>
<path d="M49.0705 103.638C48.958 103.803 48.793 106.615 49.5655 108.708L50.338 110.8C50.338 110.8 51.823 116.035 53.1505 118.015C54.4705 119.995 55.3555 120.16 55.3555 119.943C55.3555 119.725 54.3055 117.19 53.9755 116.088C53.6455 114.985 51.8305 111.843 51.493 110.358C51.163 108.873 50.428 105.843 50.023 104.74L49.618 103.638H49.0705Z" fill="#92400E"/>
<path d="M51.3132 102.49C51.3132 102.49 52.8957 105.655 53.5032 106.593C54.1107 107.53 55.4831 112.158 55.9256 113.095C56.3681 114.033 57.3057 118.383 57.2457 119.433L57.1931 120.483C57.1931 120.483 56.3682 120.7 56.0382 120.153C55.7082 119.605 56.0382 117.175 55.7082 115.638C55.3782 114.093 54.1632 111.723 53.9457 110.793C53.7282 109.855 52.9107 106.878 52.5207 106.278C52.1307 105.678 49.9781 103.3 49.9781 103.3H49.4307L51.3207 102.505L51.3132 102.49Z" fill="#92400E"/>
<path d="M57.4412 73.3378C57.6437 73.2478 58.4162 72.7228 57.9587 72.5578C57.5012 72.3928 55.5512 72.1753 54.4862 72.2878C53.4212 72.4003 45.3812 73.2779 43.2812 74.0504C41.1887 74.8229 37.0262 76.7128 35.1962 78.6853C33.3662 80.6578 30.7412 83.5228 30.2087 84.1828C29.6762 84.8428 28.9562 86.1103 28.8512 86.3878C28.7462 86.6653 28.3562 87.8203 28.8512 88.3153C29.3462 88.8103 31.1087 88.3678 31.8812 88.3153C32.6537 88.2628 33.4787 88.3153 33.8087 88.0378C34.1387 87.7603 36.6212 85.0603 37.2812 84.6253C37.9412 84.1903 39.9812 82.8104 41.1962 82.8629C42.4112 82.9154 44.0612 83.5229 46.4312 83.9654C48.8012 84.4079 51.6662 85.4503 55.0787 84.8503C58.4912 84.2428 61.6337 83.8003 63.8387 83.2528C66.0437 82.7053 69.1262 79.8103 69.4562 79.7953C69.7862 79.7803 69.2912 78.5353 69.0737 78.6853C68.8562 78.8353 67.1462 79.9829 66.5912 80.4029C66.0362 80.8229 60.4187 82.7503 58.4387 82.9753C56.4587 83.2003 52.1912 82.6228 50.0237 82.4953C47.8562 82.3678 43.2287 81.8204 41.7437 81.5954C40.2587 81.3779 38.7662 82.2328 38.1062 82.4953C37.4462 82.7578 34.6337 84.6254 33.8612 85.3454C33.0887 86.0579 32.2112 86.8978 31.6562 87.1678C31.1012 87.4378 29.8412 87.8803 29.4512 87.6553C29.0687 87.4378 29.1962 86.4403 30.2087 85.4503C31.2137 84.4603 33.5837 82.2028 34.6337 80.7103C35.6837 79.2253 39.9812 76.2478 41.7962 75.7528C43.6112 75.2578 49.1237 73.9903 50.9987 73.9903C52.8737 73.9903 55.6262 74.1628 57.4412 73.3303V73.3378Z" fill="#92400E"/>
<path d="M43.0636 66.0102C43.0636 66.0102 43.3861 67.6077 44.1061 68.7627C44.8261 69.9177 46.5586 71.9877 48.7786 72.9927L45.9286 73.8852L44.9611 73.6227C44.9611 73.6227 42.9211 71.0202 42.6061 69.9477C42.2911 68.8752 41.7511 66.8352 42.1561 66.0102C42.5611 65.1852 43.0636 66.0102 43.0636 66.0102Z" fill="#92400E"/>
<path d="M42.0134 63.4151C42.0134 63.4151 38.9309 62.4251 35.9534 62.6426C32.9759 62.8601 28.1309 63.0851 26.3684 63.6326C24.6059 64.1801 17.3309 69.1976 16.7234 70.0226C16.7234 70.0226 16.0109 70.7951 16.7234 71.0126C17.4359 71.2301 18.3734 71.5076 18.9284 71.5601C19.4834 71.6126 20.0309 71.1176 20.8559 70.7876C21.6809 70.4576 26.2034 69.0251 27.1334 68.9126C28.0709 68.8001 29.7209 69.5351 30.8834 69.7451C32.0384 69.9551 35.8934 70.7801 37.1084 71.3351C38.3234 71.8826 43.9934 72.8201 44.6534 72.5426L43.8284 71.3351C43.8284 71.3351 41.3684 71.0576 40.7234 70.9526C40.0784 70.8476 35.3384 70.1426 34.6259 69.7526C33.9134 69.3626 32.3684 68.4776 31.9784 68.3126C31.5884 68.1476 29.7209 67.5026 29.0609 67.6001C28.4009 67.6976 25.8134 67.8101 24.9809 68.2001C24.1484 68.5901 20.1359 70.1276 19.7984 70.2401C19.4609 70.3526 18.5834 70.7876 18.2009 70.7351C17.8184 70.6826 17.2109 70.6826 17.3759 70.4051C17.5409 70.1276 18.6959 69.3551 19.1384 68.9726C19.5809 68.5901 23.4359 66.1526 25.0334 65.3051C26.6309 64.4576 29.1284 63.9626 30.1934 63.8501C31.2584 63.7376 35.7209 63.2426 36.8234 63.3026C37.9259 63.3551 41.1659 63.5801 41.9984 64.0751C42.8309 64.5701 41.9984 63.4151 41.9984 63.4151H42.0134Z" fill="#92400E"/>
<path d="M33.8081 88.0455C33.8081 88.0455 31.9931 90.9105 30.7781 92.013C29.5631 93.1155 28.5731 93.558 28.1306 93.828C27.6881 94.098 27.3581 93.9405 27.3581 93.4455V91.4055C27.3581 90.858 26.038 91.803 25.708 92.238C25.378 92.673 24.9955 92.838 25.378 91.4055C25.7605 89.973 25.9855 89.448 26.593 88.5555C27.2005 87.663 28.0255 86.6955 28.8505 86.3955C28.8505 86.3955 28.7981 87.633 29.0006 87.8805C29.2031 88.128 30.073 88.2555 30.6955 88.0905C31.318 87.9255 33.8081 88.0455 33.8081 88.0455Z" fill="#92400E"/>
<path d="M19.8133 71.3203C19.6783 71.3878 19.5808 71.7628 19.3333 72.2578C19.0858 72.7528 17.7208 73.7878 16.8133 74.1178C15.9058 74.4478 14.0458 74.8228 13.5883 74.8228C13.1308 74.8228 13.3408 73.9978 13.7983 73.4203C13.7983 73.4203 13.0933 72.9328 12.3958 73.0753C11.6908 73.2178 10.9108 72.9853 11.8183 72.5653C12.7258 72.1453 14.4208 71.1103 15.1258 70.7353C15.8308 70.3603 16.7383 70.0303 16.7383 70.0303C16.7383 70.0303 16.7383 70.9678 17.4808 70.8553C18.2233 70.7428 19.8208 71.3203 19.8208 71.3203H19.8133Z" fill="#92400E"/>
<path d="M94.5955 71.3272C94.5955 71.3272 94.588 71.3272 94.5805 71.3272C94.453 71.3272 94.348 71.2222 94.3405 71.0947C94.3405 71.0722 94.1755 68.6272 92.758 68.0047C92.5855 67.9297 92.5705 67.7947 92.563 67.7422C92.563 67.5472 92.7205 67.4722 92.9005 67.3822C93.373 67.1497 94.453 66.6097 94.6855 64.7572C94.693 64.5322 94.7155 64.3972 94.723 64.3897C94.7455 64.2622 94.8655 64.1722 95.0005 64.1872C95.1355 64.2022 95.2255 64.3222 95.218 64.4497C95.2105 64.5922 95.1955 64.7197 95.1805 64.8472C95.1655 65.5297 95.368 66.9772 97.273 67.5247C97.3705 67.5547 97.4455 67.6372 97.453 67.7422C97.4605 67.8472 97.408 67.9447 97.318 67.9897C97.2955 67.9972 95.188 69.0922 94.8355 71.1172C94.813 71.2372 94.708 71.3272 94.588 71.3272H94.5955Z" fill="#92400E"/>
<path d="M63.8979 61.9377C63.8979 61.9377 63.6204 61.9452 66.3804 61.5402C69.5679 61.0677 71.3754 60.4452 71.3979 58.6527C71.4204 57.1527 71.6754 51.6327 72.2754 52.9752C72.8754 54.3177 72.8979 59.5902 74.9904 60.0402C77.0829 60.4902 79.4454 60.4227 79.4454 60.9627C79.4454 61.8327 75.1629 60.7002 74.5179 65.6877C74.0879 69.0477 73.6354 70.7302 73.1604 70.7352C72.3054 70.7352 72.0054 63.7602 70.5129 63.3102C69.0204 62.8602 63.8904 62.8752 63.9054 61.9302L63.8979 61.9377Z" fill="#92400E"/>
<path d="M86.3464 76.3898C86.3464 76.3898 84.9963 74.9048 84.9213 74.6948C84.8463 74.4848 83.8039 76.2398 83.1064 76.4648C82.4164 76.6973 83.8564 74.0348 83.9989 73.4048C84.1489 72.7748 82.2364 71.4248 82.0789 71.1548C81.9214 70.8848 84.2688 71.2823 84.8688 71.4098C85.4688 71.5373 85.8738 69.4373 86.5188 69.4073C86.9163 69.3923 86.3913 71.1698 86.5038 71.7923C86.5038 71.7923 88.3038 71.3873 88.6338 71.7623C88.9338 72.0923 87.2988 72.8873 86.6388 73.2848C86.2263 73.5248 86.6613 75.0023 86.6388 76.2548C86.6313 76.7273 86.3464 76.3898 86.3464 76.3898Z" fill="#92400E"/>
<path d="M76.9485 53.3956C76.9485 53.4556 77.016 53.9506 77.0535 54.2506C77.0685 54.3556 77.1885 54.4006 77.271 54.3331L77.901 53.8006L79.0185 54.1156C79.1385 54.1531 79.251 54.0331 79.206 53.9131L78.8835 53.0731L79.146 52.5781C79.221 52.4356 79.101 52.2631 78.936 52.2856L78.261 52.4056L77.7135 51.5206C77.646 51.4156 77.496 51.4231 77.4435 51.5356L76.9785 52.5106C76.9785 52.5106 75.951 52.6606 75.9135 52.7881C75.8685 52.9381 76.9485 53.4106 76.9485 53.4106V53.3956Z" fill="#92400E"/>
<path d="M64.3406 70.7653C64.4156 70.7953 64.2881 72.4528 64.4606 72.5953C64.6331 72.7378 65.7506 71.4928 65.9381 71.5078C66.1706 71.5303 68.5256 72.6103 68.6306 72.3328C68.7656 71.9803 67.6931 70.3828 67.6031 70.1953C67.5131 70.0078 68.6156 68.9203 68.7881 68.5453C68.7881 68.5453 69.0506 67.9003 66.6806 68.6503C66.6806 68.6503 65.8106 66.9553 65.5256 66.7678C65.2406 66.5803 64.5206 68.8678 64.4831 69.0103C64.4456 69.1528 62.6906 69.3778 62.5181 69.6553C62.3456 69.9328 63.3431 70.4128 64.3406 70.7803V70.7653Z" fill="#92400E"/>
<path d="M89.068 65.5078C89.0905 65.8753 88.8806 66.1903 88.2581 66.1753C87.5456 66.1528 87.373 65.3353 87.6655 64.8178C88.153 63.9553 89.023 64.8178 89.068 65.5078Z" fill="#92400E"/>
<path d="M84.7258 61.4497C85.1083 62.0947 85.0483 63.0772 84.0208 63.3622C82.6108 63.7522 82.3034 62.0497 82.9634 61.3222C83.6534 60.5647 84.3733 60.8647 84.7183 61.4497H84.7258Z" fill="#92400E"/>
<path d="M90.9883 60.7526C91.2583 61.3601 90.5609 62.1776 89.9459 62.3276C88.6034 62.6501 88.6033 61.2701 88.7383 60.9026C88.9783 60.2576 90.1333 60.0401 90.6733 60.3926C90.8308 60.4976 90.9358 60.6176 90.9958 60.7526H90.9883Z" fill="#92400E"/>
<path d="M81.1334 67.9001C81.1334 67.9001 81.4558 68.6801 80.5858 68.8676C79.7158 69.0551 79.6409 67.9901 79.9034 67.5926C80.1734 67.1951 80.7884 67.0751 81.1259 67.9001H81.1334Z" fill="#92400E"/>
<path d="M74.5561 75.6025C74.5561 75.6025 73.6786 75.6776 73.6186 76.2476C73.5211 77.1026 74.7961 78.3925 75.4336 77.3125C75.7786 76.7275 75.0886 75.835 74.5561 75.6025Z" fill="#92400E"/>
<path d="M58.9483 67.2626C58.6783 67.1351 58.2958 67.1201 58.1008 67.2476C56.9833 67.9601 58.9858 68.5151 59.2258 67.8101C59.3158 67.5551 59.1658 67.3676 58.9483 67.2626Z" fill="#92400E"/>
<path d="M65.0007 76.9376C65.3607 76.6526 65.6757 76.0226 65.0382 75.9326C64.2357 75.8201 63.6807 76.0976 63.6807 76.4576C63.6807 77.0276 64.3407 77.2301 64.8132 77.0426C64.8732 77.0201 64.9332 76.9826 64.9932 76.9376H65.0007Z" fill="#92400E"/>
<path d="M68.7735 55.4355C68.7735 55.4355 67.896 55.5105 67.836 56.0805C67.7085 57.228 69.6735 58.158 69.7335 56.9055C69.7485 56.5455 69.261 55.398 68.781 55.443L68.7735 55.4355Z" fill="#92400E"/>
<path d="M90.8907 111.602C91.0032 110.702 92.3907 110.23 93.2157 110.485C95.0082 111.04 94.0482 112.66 93.6282 112.997C92.9007 113.59 91.4007 113.027 91.0107 112.24C90.8982 112.007 90.8607 111.79 90.8832 111.595L90.8907 111.602Z" fill="#92400E"/>
<path d="M107.908 57.1375C107.908 57.1375 108.073 56.005 109.221 56.3875C110.368 56.7775 109.716 58.075 109.123 58.3525C108.531 58.63 107.728 58.3375 107.908 57.13V57.1375Z" fill="#92400E"/>
<path d="M134.751 40.7805C134.751 40.7805 133.296 39.183 133.214 38.9505C133.131 38.718 132.006 40.608 131.264 40.8555C130.521 41.103 132.066 38.238 132.224 37.563C132.381 36.888 130.326 35.433 130.161 35.1405C129.996 34.848 132.516 35.2755 133.169 35.418C133.814 35.5605 134.249 33.2955 134.946 33.258C135.374 33.2355 134.811 35.1555 134.931 35.823C134.931 35.823 136.866 35.388 137.226 35.7855C137.549 36.1455 135.786 37.0005 135.074 37.4205C134.631 37.683 135.096 39.2655 135.074 40.623C135.059 41.1255 134.759 40.7655 134.759 40.7655L134.751 40.7805Z" fill="#92400E"/>
<path d="M121.985 74.5901C122.068 74.6201 121.933 76.3976 122.113 76.5551C122.293 76.7126 123.493 75.3701 123.696 75.3851C123.951 75.4076 126.471 76.5701 126.591 76.2701C126.733 75.8951 125.586 74.1776 125.481 73.9676C125.376 73.7576 126.568 72.5951 126.748 72.1976C126.748 72.1976 127.026 71.5076 124.483 72.3101C124.483 72.3101 123.553 70.4951 123.245 70.2851C122.938 70.0751 122.165 72.5426 122.128 72.6926C122.09 72.8426 120.201 73.0826 120.021 73.3826C119.841 73.6826 120.905 74.1926 121.978 74.5901H121.985Z" fill="#92400E"/>
<path d="M87.7857 42.0402C87.2307 42.4077 86.3607 42.3402 85.8732 41.7627C84.7707 40.4502 87.0581 38.7477 88.0406 40.2402C88.1756 40.4502 88.2731 40.6902 88.2956 40.9377C88.3331 41.4477 88.1157 41.8227 87.7857 42.0402Z" fill="#92400E"/>
<path d="M39.2157 90.3923C38.7132 90.1298 38.0457 90.9023 38.0757 91.6073C38.1357 92.9948 39.3132 93.1598 39.4707 92.8523C39.7557 92.2823 39.7857 91.2248 39.5007 90.6998C39.4182 90.5498 39.3207 90.4448 39.2157 90.3923Z" fill="#92400E"/>
<path d="M10.4011 61.7497C10.4011 61.8097 10.4611 62.2522 10.4986 62.5297C10.5136 62.6272 10.6261 62.6647 10.6936 62.6047L11.2636 62.1172L12.2836 62.4022C12.3961 62.4322 12.4936 62.3272 12.4561 62.2147L12.1636 61.4497L12.4036 60.9922C12.4711 60.8572 12.3586 60.6997 12.2161 60.7297L11.6011 60.8347L11.0986 60.0247C11.0386 59.9272 10.9036 59.9347 10.8511 60.0397L10.4311 60.9247C10.4311 60.9247 9.49358 61.0597 9.45608 61.1797C9.41108 61.3147 10.4011 61.7422 10.4011 61.7422V61.7497Z" fill="#92400E"/>
<path d="M93.148 23.3508C93.4855 23.2233 93.8455 23.3283 94.0105 23.9208C94.198 24.5958 93.4706 24.9933 92.9081 24.8658C91.9556 24.6558 92.518 23.5908 93.1555 23.3508H93.148Z" fill="#92400E"/>
<path d="M88.656 28.3529C89.151 27.8054 90.096 27.5804 90.6585 28.4654C91.431 29.6804 89.916 30.4604 89.0385 30.0479C88.1235 29.6129 88.206 28.8554 88.656 28.3604V28.3529Z" fill="#92400E"/>
<path d="M85.0781 22.0303C85.5731 21.6028 86.5481 22.0228 86.8631 22.5628C87.5531 23.7328 86.2556 24.1303 85.8656 24.1078C85.1906 24.0703 84.6581 23.0429 84.8306 22.4354C84.8831 22.2554 84.9656 22.1203 85.0781 22.0303Z" fill="#92400E"/>
<path d="M94.6405 29.2531C94.6405 29.2531 95.278 28.7206 95.7055 29.4931C96.133 30.2656 95.1504 30.6406 94.7004 30.4981C94.2504 30.3556 93.958 29.8081 94.6405 29.2531Z" fill="#92400E"/>
<path d="M106.836 28.5175C106.836 28.5175 105.291 29.2825 104.863 29.275C104.863 29.275 104.563 29.305 104.623 29.0275C104.683 28.75 105.193 27.1225 105.313 26.935C105.313 26.935 103.311 24.805 103.303 24.7225C103.296 24.64 103.093 24.4225 103.453 24.2875C103.723 24.19 106.446 24.9775 106.446 24.9775C106.446 24.9775 108.201 22.93 108.366 22.7575C108.531 22.585 108.816 22.5925 108.913 22.8775C109.011 23.1625 109.071 25.39 109.071 25.39C109.071 25.39 111.508 25.705 111.696 25.825C111.883 25.945 111.913 26.155 111.748 26.275C111.583 26.395 109.401 27.565 109.401 27.565L109.746 30.7075C109.746 30.7075 109.663 31.42 109.086 30.895C108.508 30.3625 106.843 28.5175 106.843 28.5175H106.836Z" fill="#92400E"/>
<path d="M115.409 27.497C116.751 26.732 118.109 25.982 119.466 25.2395C120.224 24.8345 120.824 24.0845 121.439 23.402C122.061 22.727 122.714 22.1045 123.719 22.082" fill="#92400E"/>
<path d="M114.988 27.6919C114.883 27.4744 114.966 27.2119 115.176 27.0919C116.518 26.3269 117.883 25.5694 119.241 24.8269C119.818 24.5119 120.306 23.9644 120.823 23.3869L121.093 23.0869C121.761 22.3519 122.518 21.6394 123.703 21.6094C123.958 21.6094 124.168 21.8044 124.176 22.0594C124.176 22.3144 123.981 22.5244 123.726 22.5319C122.893 22.5544 122.353 23.0719 121.776 23.7019L121.513 23.9944C120.966 24.6094 120.396 25.2469 119.676 25.6369C118.326 26.3719 116.961 27.1294 115.626 27.8869C115.401 28.0144 115.123 27.9394 114.996 27.7144C114.996 27.7069 114.981 27.6919 114.981 27.6844L114.988 27.6919Z" fill="#92400E"/>
<path d="M112.514 21.2049C113.646 19.5249 117.989 14.9574 119.534 13.6299L112.514 21.2049Z" fill="#92400E"/>
<path d="M112.094 21.3997C112.026 21.2572 112.034 21.0847 112.131 20.9422C113.436 19.0072 117.801 14.4997 119.234 13.2772C119.429 13.1122 119.721 13.1347 119.886 13.3297C120.051 13.5247 120.029 13.8172 119.834 13.9822C118.469 15.1597 114.149 19.5997 112.896 21.4672C112.754 21.6772 112.469 21.7372 112.251 21.5947C112.176 21.5497 112.124 21.4822 112.094 21.4072V21.3997Z" fill="#92400E"/>
<path d="M108.966 20.5218C109.836 19.6443 110.173 18.3843 110.758 17.2893C111.388 16.1193 112.386 15.2043 113.428 14.3418" fill="#92400E"/>
<path d="M108.546 20.7243C108.463 20.5518 108.493 20.3417 108.636 20.1992C109.176 19.6592 109.498 18.9318 109.836 18.1668C109.993 17.8068 110.158 17.4318 110.353 17.0793C111.036 15.8193 112.093 14.8518 113.136 13.9968C113.331 13.8318 113.623 13.8617 113.788 14.0567C113.946 14.2592 113.923 14.5443 113.721 14.7093C112.746 15.5043 111.763 16.3967 111.163 17.5142C110.991 17.8367 110.841 18.1818 110.683 18.5418C110.323 19.3518 109.956 20.1918 109.296 20.8518C109.116 21.0318 108.823 21.0318 108.643 20.8518C108.606 20.8143 108.576 20.7693 108.553 20.7243H108.546Z" fill="#92400E"/>
<path d="M107.563 43.465C109.085 42.2275 110.6 39.13 109.76 38.935C108.92 38.74 106.183 41.02 105.59 40.5325C104.998 40.045 104.008 35.92 103.183 35.6425C102.365 35.365 101.75 37.255 101.338 39.0175C100.933 40.78 101.023 42.3025 101.023 42.3025C99.3877 42.1 96.2978 42.0925 96.0878 43.015C95.8778 43.9375 100.025 45.8725 100.67 45.7525C101.315 45.6325 100.67 45.7525 99.9803 49.1275C99.2903 52.5025 100.34 52.9225 100.34 52.9225C100.843 53.7925 101.435 52.3825 101.938 50.905C102.44 49.4275 102.98 47.6125 103.475 47.3725C103.97 47.1325 107.608 49.39 108.86 49.6825C110.12 49.975 110.083 48.9925 110.105 48.115C110.128 47.2375 107.563 43.4575 107.563 43.4575V43.465ZM108.343 46.9675C110.443 49.3525 105.59 46.645 104.735 46.135C103.88 45.625 103.34 45.6775 102.44 46.885C101.54 48.0925 101.098 51.5275 100.843 49.96C100.843 49.96 101.248 46.6975 101.795 45.85C102.343 45.0025 99.2528 44.215 99.7628 43.93C100.273 43.645 102.89 44.1625 102.965 43.4725C103.04 42.7825 102.598 40.4725 103.153 41.1325C103.708 41.7925 104.113 43.4725 105.35 42.7C106.588 41.9275 107.75 41.485 106.033 43.5625C106.033 43.5625 106.235 44.59 108.335 46.975L108.343 46.9675Z" fill="#92400E"/>
<path d="M1.93334 40.7951C1.99334 40.4051 2.29332 40.1202 2.94582 40.2927C3.68832 40.4877 3.67334 41.3876 3.23834 41.8526C2.51834 42.6401 1.81334 41.5226 1.93334 40.7951Z" fill="#92400E"/>
<path d="M4.49089 81.685C4.24339 80.92 4.54338 79.9 5.69088 79.8475C7.26588 79.78 7.17588 81.64 6.30588 82.24C5.39838 82.87 4.72339 82.375 4.49089 81.685Z" fill="#92400E"/>
<path d="M0.748053 52.9905C0.613053 52.2855 1.54305 51.5955 2.22555 51.588C3.71055 51.573 3.38056 53.0205 3.14806 53.3805C2.74306 54.003 1.47555 53.943 1.00305 53.448C0.86055 53.298 0.785561 53.148 0.755561 52.998L0.748053 52.9905Z" fill="#92400E"/>
<path d="M20.4427 39.6853C20.4427 39.6853 20.2927 38.7928 21.2452 38.8078C22.2052 38.8228 22.0252 39.9553 21.6502 40.3078C21.2752 40.6603 20.5927 40.6378 20.4427 39.6853Z" fill="#92400E"/>
<path d="M70.4828 109.518C70.3403 109.518 70.1903 109.488 70.0628 109.413C69.8828 109.301 69.7853 109.091 69.6953 108.896C69.1253 107.636 68.4803 106.563 67.5578 105.528C67.4228 105.378 67.1753 105.498 67.2128 105.701C67.3778 106.713 67.4753 107.733 67.5053 108.753C67.5053 108.918 67.5053 109.098 67.4078 109.226C67.2878 109.376 67.0703 109.398 66.8753 109.406C65.5928 109.451 64.3028 109.436 63.0203 109.346C62.8028 109.331 62.6753 109.601 62.8403 109.743C63.7403 110.553 64.8053 111.191 65.9528 111.588C66.1028 111.641 66.2603 111.693 66.3428 111.828C66.4778 112.031 66.3578 112.301 66.2378 112.518C65.7578 113.396 64.7903 114.423 65.1653 115.301C65.1953 115.376 65.2853 115.421 65.3678 115.391C65.6828 115.293 66.5378 114.918 68.0228 113.591C69.3503 112.398 71.1503 113.636 72.8078 114.086C72.9578 114.123 73.1528 114.153 73.2503 114.033C73.3628 113.891 73.2503 113.688 73.1528 113.538C72.5903 112.773 71.4128 111.791 71.9528 110.763C72.0353 110.598 73.9553 108.963 73.5878 108.716C72.9728 108.303 71.6378 109.563 70.4753 109.518H70.4828Z" fill="#92400E"/>
<path d="M42.2833 7.56306C42.6508 7.44306 44.4208 7.79556 44.8258 7.56306C45.2308 7.33056 45.6958 5.36556 46.0408 4.61556C46.3858 3.86556 46.7383 5.77055 46.9108 6.64055C47.0833 7.51055 49.2208 6.93306 49.7458 7.15806C50.2708 7.38306 47.5483 8.48556 47.3158 8.71806C47.0833 8.95056 49.1683 10.6831 49.0483 11.0881C48.9283 11.4931 48.0658 11.6656 46.8508 10.3381C46.8508 10.3381 46.1833 9.49806 45.7258 10.1881C44.4058 12.1681 43.7758 12.5956 43.7308 12.3631C43.5733 11.5006 44.8858 9.12305 44.7733 8.89055C44.6608 8.65805 44.5033 8.57556 43.7308 8.42556C43.1908 8.32056 41.4208 7.84805 42.2833 7.55555V7.56306Z" fill="#92400E"/>
<path d="M15.5382 95.8079C15.8757 95.6804 16.2357 95.7854 16.4007 96.3779C16.5882 97.0529 15.8607 97.4504 15.2982 97.3229C14.3457 97.1129 14.9082 96.0479 15.5457 95.8079H15.5382Z" fill="#92400E"/>
<path d="M21.8084 77.3128C22.3034 76.7653 23.2484 76.5403 23.8109 77.4253C24.5834 78.6403 23.0684 79.4203 22.1909 79.0078C21.2759 78.5728 21.3584 77.8153 21.8084 77.3203V77.3128Z" fill="#92400E"/>
<path d="M8.60106 89.3878C9.09606 88.9603 10.0711 89.3803 10.3861 89.9203C11.0761 91.0903 9.77857 91.4878 9.38857 91.4653C8.71357 91.4278 8.18107 90.4003 8.35357 89.7928C8.40607 89.6128 8.48856 89.4778 8.60106 89.3878Z" fill="#92400E"/>
<path d="M103.221 103.33C103.221 103.33 103.859 102.798 104.286 103.57C104.714 104.343 103.731 104.718 103.281 104.575C102.831 104.433 102.539 103.885 103.221 103.33Z" fill="#92400E"/>
<path d="M50.1585 28.3304L52.596 22.9754C52.596 22.9754 55.551 18.4304 56.8035 17.7779C58.0485 17.1329 61.7985 15.7079 63.1785 15.4079C64.5585 15.1079 67.6785 13.6004 68.2935 13.0004C68.9085 12.4004 71.5785 9.2579 72.741 8.7779C73.9035 8.3054 72.0509 7.7429 70.9334 8.0054C69.8159 8.2604 67.4985 10.1579 66.4185 10.9754C65.3385 11.7929 60.7409 12.8204 58.5134 13.6154C56.2859 14.4104 51.741 15.2429 49.821 18.0104C47.901 20.7854 45.7109 23.3204 45.6209 25.1504C45.5309 26.9804 46.0634 28.9604 47.6384 29.3954C49.2134 29.8304 50.1659 28.3154 50.1659 28.3154L50.1585 28.3304Z" fill="#92400E"/>
<path d="M41.4206 25.6223C41.3906 25.1948 41.1281 20.2373 40.6106 19.1198C40.0931 18.0023 37.6556 15.4373 35.5706 14.3348C33.4856 13.2323 31.6931 11.5898 31.1381 11.1998C30.5831 10.8098 28.4381 7.65226 28.0856 6.96976C27.7331 6.28726 24.2456 1.11977 23.4731 0.947266C23.4731 0.947266 23.2556 1.25477 23.3006 1.59227C23.3456 1.92977 23.9456 2.40976 24.1631 3.13726C24.3806 3.86476 24.5756 4.06727 24.6806 5.22977C24.7856 6.39227 25.3706 9.01727 25.6256 9.81227C25.8806 10.6073 26.7056 13.0448 28.2956 14.0498C29.8856 15.0623 29.6756 15.7073 31.8656 17.4923C34.0631 19.2773 33.7406 20.8073 33.8906 21.4973C34.0406 22.1873 35.3531 26.4923 35.4431 26.5973C35.5331 26.7023 35.9831 27.9998 35.9831 27.9998L37.5956 26.7548L39.7331 26.0648L41.4131 25.6148L41.4206 25.6223Z" fill="#92400E"/>
<path d="M75.7324 27.3697C75.7324 26.3497 76.4899 25.2397 77.8924 25.6222C79.8124 26.1472 78.9874 28.3597 77.6974 28.7422C76.3624 29.1397 75.7324 28.2922 75.7324 27.3697Z" fill="#92400E"/>
<path d="M82.5503 105.25C82.5503 105.363 82.6704 105.438 82.7679 105.37C82.9329 105.258 83.1429 105.108 83.1954 105.078C83.2629 105.033 84.0129 105.43 84.3654 105.618C84.4329 105.655 84.5154 105.595 84.4929 105.52L84.2679 104.463L85.1004 103.638C85.1529 103.585 85.1153 103.503 85.0478 103.495L83.9678 103.443L83.5928 102.483C83.5628 102.4 83.4428 102.393 83.3978 102.468L82.7378 103.615L81.7404 103.563C81.6279 103.563 81.5679 103.698 81.6579 103.773L82.5879 104.605L82.5578 105.25H82.5503Z" fill="#92400E"/>
<path d="M15.7327 83.7851C15.7927 83.8076 15.6952 85.1201 15.8302 85.2401C15.9652 85.3601 16.8502 84.3626 17.0002 84.3776C17.1877 84.3926 19.0477 85.2551 19.1377 85.0301C19.2427 84.7526 18.3952 83.4851 18.3202 83.3351C18.2452 83.1851 19.1227 82.3226 19.2577 82.0301C19.2577 82.0301 19.4602 81.5201 17.5852 82.1126C17.5852 82.1126 16.8952 80.7701 16.6702 80.6201C16.4452 80.4701 15.8752 82.2851 15.8452 82.3976C15.8152 82.5101 14.4202 82.6901 14.2852 82.9076C14.1502 83.1251 14.9377 83.5076 15.7327 83.8001V83.7851Z" fill="#92400E"/>
<path d="M15.1704 35.2226C14.6079 35.6801 14.1954 36.4826 13.8429 37.0601C13.8879 36.4226 13.8429 35.5451 13.7529 34.5926C14.1429 34.3976 14.7129 33.7676 15.1179 33.0026C15.7929 31.7276 16.3854 29.7026 15.6654 29.6501C14.9379 29.5976 14.9229 29.7326 14.0529 31.2176C13.7904 31.6751 13.6179 32.1326 13.5129 32.5601C13.2954 30.9476 13.0479 29.4851 13.0104 29.0276C13.0029 28.9151 12.9804 28.8101 12.9504 28.7126C13.1604 28.2176 13.4154 27.5126 13.5279 26.8376C13.7229 25.6451 13.3704 23.0201 12.4329 23.3126C11.5179 23.5976 11.4504 24.8951 11.4729 25.6826C11.4879 26.1476 11.5629 26.6126 11.6604 27.0701C11.7279 27.3851 11.8179 27.6851 11.9604 27.9776C11.9979 28.0601 12.2604 28.4051 12.2379 28.4801C12.2004 28.6376 12.1929 28.8626 12.2229 29.1626C12.2979 29.8151 12.4404 31.0001 12.5004 32.3951C12.2229 31.4726 11.7429 30.3251 11.3004 30.3251C10.6329 30.3251 10.6104 31.8026 11.3379 33.0626C11.7354 33.7526 12.1929 34.2176 12.5079 34.3826C12.4854 35.0051 12.4404 35.6351 12.3579 36.2651C12.2754 35.8376 12.1104 35.3051 11.6154 34.6451C10.6104 33.3176 10.1454 34.0226 10.1379 34.4726C10.1304 34.9226 10.3329 37.6826 11.9454 38.2301C10.9404 41.5301 10.3554 43.3301 10.2879 43.9676C10.2429 44.3726 10.2279 45.0776 10.5954 45.2051C10.7079 45.2426 10.8579 45.2276 11.0604 45.1301C11.5179 44.9051 12.0429 44.3576 12.2454 43.9001C12.5529 43.2101 13.1679 40.7351 13.5579 38.7776C16.1154 37.5101 16.3404 35.4251 16.2729 35.0351C16.2054 34.6451 16.0104 34.5401 15.1704 35.2226Z" fill="#92400E"/>
<path d="M123.17 36.9255C122.675 37.0755 122.203 37.323 121.783 37.593C121.963 37.1505 122.173 36.678 122.353 36.3255C122.87 36.378 123.935 35.448 124.948 34.563C126.215 33.4605 126.98 31.6905 126.388 31.518C125.795 31.3455 125.12 31.6905 123.68 32.958C122.45 34.038 121.963 34.9755 122.008 35.718C121.715 36.0255 121.31 36.618 120.898 37.338C120.95 37.113 121.003 36.9105 121.055 36.768C121.393 35.838 121.055 33.978 120.545 33.903C120.035 33.828 119.615 34.053 119.195 35.913C118.79 37.6905 119.608 39.018 119.833 39.5505C119.578 40.1205 119.285 40.7655 119.015 41.6505C118.753 40.473 117.748 37.188 117.073 37.263C116.315 37.3455 115.865 40.818 118.078 43.518C118.078 43.518 118.288 43.953 118.475 44.058C118.333 44.9505 118.205 46.0005 118.123 47.268C117.628 46.278 116.623 44.3205 116.233 44.088C115.723 43.7805 115.258 43.9905 115.175 45.1305C115.093 46.2705 116.315 49.278 118.01 50.163C117.988 51.5205 117.763 52.5555 117.62 53.9355C117.493 55.2255 116.848 55.833 116.525 56.4405C116.36 56.748 115.603 57.348 115.985 57.7005C116.713 58.368 117.853 56.6355 118.055 56.1105C118.513 54.933 118.723 53.673 118.813 52.4205C118.85 51.873 118.858 51.333 118.865 50.7855C118.865 50.5605 118.753 48.993 118.925 48.903C119.893 48.4155 121.805 46.8855 122.39 45.8355C123.148 44.4855 123.05 43.548 121.685 44.4405C120.883 44.9655 119.788 46.338 119.075 47.448C119.21 46.353 119.413 45.288 119.713 44.403C119.728 44.3505 119.75 44.2905 119.765 44.238C120.44 44.0055 121.198 43.6005 121.198 43.6005C122.855 42.588 125.038 40.9755 124.295 40.668C123.56 40.3605 122.375 40.983 121.565 41.2305C121.25 41.328 120.898 41.478 120.545 41.6505C120.695 41.118 120.838 40.6155 120.958 40.1655C124.01 39.243 125.69 37.143 125.458 36.903C125.203 36.6405 124.528 36.4905 123.178 36.903L123.17 36.9255Z" fill="#92400E"/>
<path d="M119.87 58.0746C120.395 57.5496 122.045 56.1846 122.742 55.6896C123.44 55.2021 125.682 53.3796 127.37 53.2371C129.05 53.0946 128.772 53.5146 128.42 54.0096C128.067 54.4971 125.405 56.6721 122.952 57.3771C122.952 57.3771 122.217 57.5496 122.427 57.6921C122.637 57.8346 123.365 57.2496 124.497 57.4446C124.497 57.4446 125.127 57.4446 124.64 57.9021C124.152 58.3596 123.837 58.8471 122.57 59.0946C121.31 59.3421 120.29 59.2671 119.87 59.0946C119.45 58.9221 119.465 58.4796 119.87 58.0821V58.0746Z" fill="#92400E"/>
<path d="M118.775 59.2296C118.19 59.3121 118.235 58.6296 118.4 58.2921C118.858 57.3471 119.63 55.0521 121.655 53.2221C123.688 51.3921 125.128 50.7246 125.548 50.7246C125.968 50.7246 125.758 51.1446 125.375 51.4596C123.763 52.7796 122.435 54.5496 121.243 56.2371C120.59 57.1596 120.058 57.8721 119.39 58.7871C119.24 58.9971 119.038 59.1996 118.783 59.2371L118.775 59.2296Z" fill="#92400E"/>
</svg>
