<svg width="390" height="480" viewBox="0 0 390 480" fill="none" xmlns="http://www.w3.org/2000/svg">
<path d="M0 16C0 7.16346 7.16344 0 16 0H374C382.837 0 390 7.16345 390 16V464C390 472.837 382.837 480 374 480H16C7.16344 480 0 472.837 0 464V16Z" fill="url(#paint0_radial_298_2267)"/>
<path d="M0 16C0 7.16346 7.16344 0 16 0H374C382.837 0 390 7.16345 390 16V464C390 472.837 382.837 480 374 480H16C7.16344 480 0 472.837 0 464V16Z" fill="url(#paint1_linear_298_2267)" fill-opacity="0.7"/>
<defs>
<radialGradient id="paint0_radial_298_2267" cx="0" cy="0" r="1" gradientUnits="userSpaceOnUse" gradientTransform="translate(204.375 594.581) rotate(-106.12) scale(631.407 1238.03)">
<stop stop-color="#FFDA63"/>
<stop offset="1" stop-color="#FFEDAB" stop-opacity="0"/>
</radialGradient>
<linearGradient id="paint1_linear_298_2267" x1="195" y1="0" x2="195" y2="480" gradientUnits="userSpaceOnUse">
<stop stop-color="white" stop-opacity="0"/>
<stop offset="1" stop-color="white"/>
</linearGradient>
</defs>
</svg>
