<svg width="1040" height="320" viewBox="0 0 1040 320" fill="none" xmlns="http://www.w3.org/2000/svg">
<path d="M0 16C0 7.16345 7.16344 0 16 0H1024C1032.84 0 1040 7.16344 1040 16V304C1040 312.837 1032.84 320 1024 320H16C7.16344 320 0 312.837 0 304V16Z" fill="url(#paint0_linear_262_94)"/>
<path d="M0 16C0 7.16345 7.16344 0 16 0H1024C1032.84 0 1040 7.16344 1040 16V304C1040 312.837 1032.84 320 1024 320H16C7.16344 320 0 312.837 0 304V16Z" fill="url(#paint1_radial_262_94)"/>
<path d="M0 16C0 7.16345 7.16344 0 16 0H1024C1032.84 0 1040 7.16344 1040 16V304C1040 312.837 1032.84 320 1024 320H16C7.16344 320 0 312.837 0 304V16Z" fill="url(#paint2_linear_262_94)" fill-opacity="0.7"/>
<defs>
<linearGradient id="paint0_linear_262_94" x1="462.5" y1="-3.56156e-06" x2="508.171" y2="321.679" gradientUnits="userSpaceOnUse">
<stop stop-color="#FFD7AE"/>
<stop offset="1" stop-color="#FFE1A0"/>
</linearGradient>
<radialGradient id="paint1_radial_262_94" cx="0" cy="0" r="1" gradientUnits="userSpaceOnUse" gradientTransform="translate(599.5 210.5) rotate(166.024) scale(695.593 1347.8)">
<stop stop-color="#FFDA63"/>
<stop offset="1" stop-color="#FFEDAB" stop-opacity="0"/>
</radialGradient>
<linearGradient id="paint2_linear_262_94" x1="520" y1="0" x2="520" y2="320" gradientUnits="userSpaceOnUse">
<stop stop-color="white" stop-opacity="0"/>
<stop offset="1" stop-color="white"/>
</linearGradient>
</defs>
</svg>
