<svg width="18" height="19" viewBox="0 0 18 19" fill="none" xmlns="http://www.w3.org/2000/svg">
<path d="M17 15.0001V9.45215V9.4514C17 8.91756 17 8.6505 16.9351 8.40198C16.8775 8.18163 16.7827 7.97268 16.6548 7.78425C16.5104 7.57162 16.3096 7.39574 15.9074 7.04387L11.1074 2.84387C10.3608 2.19059 9.98751 1.86399 9.56738 1.73975C9.19719 1.63027 8.80281 1.63027 8.43262 1.73975C8.01272 1.86392 7.63979 2.19023 6.894 2.8428L6.89278 2.84387L2.09277 7.04387L2.09182 7.04471C1.69032 7.39602 1.48944 7.57179 1.34521 7.78425C1.2173 7.97268 1.12255 8.18163 1.06497 8.40198C1 8.65062 1 8.91781 1 9.45215V15.0001C1 15.932 1 16.3978 1.15224 16.7654C1.35523 17.2554 1.74481 17.6448 2.23486 17.8478C2.60241 18 3.06835 18 4.00023 18C4.93211 18 5.39782 18 5.76537 17.8478C6.25542 17.6448 6.64467 17.2554 6.84766 16.7654C6.9999 16.3978 7 15.9319 7 15V14C7 12.8954 7.89543 12 9 12C10.1046 12 11 12.8954 11 14V15C11 15.9319 11 16.3978 11.1522 16.7654C11.3552 17.2554 11.7448 17.6448 12.2349 17.8478C12.6024 18 13.0683 18 14.0002 18C14.9321 18 15.3978 18 15.7654 17.8478C16.2554 17.6448 16.6447 17.2554 16.8477 16.7654C16.9999 16.3978 17 15.932 17 15.0001Z" stroke="#374151" stroke-width="2" stroke-linecap="round" stroke-linejoin="round"/>
</svg>
