<svg width="71" height="68" viewBox="0 0 71 68" fill="none" xmlns="http://www.w3.org/2000/svg">
<g filter="url(#filter0_d_238_378)">
<path d="M22.4597 46.0585C23.7923 46.3074 25.0809 45.4142 25.3152 44.0962C25.5642 42.7637 24.6856 41.4896 23.353 41.2407C23.0455 41.1821 20.7464 37.3894 22.2401 35.969C23.7337 34.5339 26.9846 35.6908 27.9804 37.4187C30.1623 41.1821 35.9758 50.0415 42.7559 50.9495C45.4357 51.3009 47.969 50.4076 50.107 48.2843C53.2407 45.0334 54.4708 41.7093 53.7533 38.3998C52.7429 33.7578 48.1301 30.7998 45.4942 29.4672C45.4942 29.4526 45.5089 29.4379 45.5089 29.4233C47.2954 25.0155 45.1574 19.9781 40.7497 18.1916C36.3419 16.405 31.3045 18.543 29.518 22.9508C27.7314 27.3585 29.8694 32.3959 34.2772 34.1825C37.0009 35.2808 39.9736 34.8853 42.258 33.377C44.1617 34.1971 48.3058 36.5108 48.9501 39.4542C49.287 41.0503 48.4962 42.8808 46.6072 44.8284C45.2599 46.161 44.1177 46.1756 43.3855 46.0877C40.2664 45.6777 35.888 41.2993 32.1978 34.9586C29.4301 30.1848 24.8174 28.9547 19.8678 31.6638C17.393 33.4503 16.7487 37.4334 17.0269 39.2052C17.4662 42.0022 19.1503 45.4727 22.4304 46.0731L22.4597 46.0585ZM34.0722 24.8105C34.8336 22.9068 37.0155 21.9843 38.9192 22.7604C40.8229 23.5219 41.7454 25.7038 40.9693 27.6074C40.2079 29.5111 38.026 30.4337 36.1223 29.6576C34.2186 28.8815 33.2961 26.7142 34.0722 24.8105Z" fill="#3C2400"/>
</g>
<defs>
<filter id="filter0_d_238_378" x="0.320395" y="0.914145" width="70.2772" height="66.7557" filterUnits="userSpaceOnUse" color-interpolation-filters="sRGB">
<feFlood flood-opacity="0" result="BackgroundImageFix"/>
<feColorMatrix in="SourceAlpha" type="matrix" values="0 0 0 0 0 0 0 0 0 0 0 0 0 0 0 0 0 0 127 0" result="hardAlpha"/>
<feOffset/>
<feGaussianBlur stdDeviation="8.3232"/>
<feColorMatrix type="matrix" values="0 0 0 0 1 0 0 0 0 1 0 0 0 0 1 0 0 0 0.75 0"/>
<feBlend mode="normal" in2="BackgroundImageFix" result="effect1_dropShadow_238_378"/>
<feBlend mode="normal" in="SourceGraphic" in2="effect1_dropShadow_238_378" result="shape"/>
</filter>
</defs>
</svg>
