<svg width="142" height="104" viewBox="0 0 142 104" fill="none" xmlns="http://www.w3.org/2000/svg">
<path d="M127.632 98.3211C126.875 98.3211 126.132 98.0586 125.48 97.6686C124.827 97.2711 124.257 96.7386 123.762 96.1611C122.765 94.9986 122.18 93.5661 121.835 92.1336C121.197 89.2386 121.512 86.2611 122.36 83.5011C122.795 82.1211 123.372 80.7786 124.137 79.5336C124.227 79.3761 124.325 79.2186 124.43 79.0686L124.58 78.8436L124.655 78.7311C124.655 78.7311 124.655 78.7236 124.715 78.6486C124.76 78.5886 124.827 78.5286 124.895 78.4836C125.187 78.2886 125.585 78.3036 125.855 78.5361C125.997 78.6486 126.095 78.8286 126.117 79.0011C126.14 79.2186 126.117 79.2036 126.125 79.2561L126.102 79.7811L126.02 81.8886L125.855 86.1036C125.825 86.8086 125.802 87.4911 125.825 88.1736C125.832 88.5111 125.847 88.8486 125.885 89.1711C125.9 89.3286 125.93 89.4861 125.96 89.6136C125.975 89.6811 125.997 89.7335 126.005 89.7635C126.005 89.801 126.05 89.7636 125.862 89.6661L125.99 89.7411C125.952 89.7111 125.915 89.6886 125.855 89.6736C125.787 89.6511 125.712 89.6436 125.645 89.6511C125.57 89.6661 125.51 89.6886 125.48 89.7036C125.435 89.7336 125.42 89.7411 125.405 89.7561C125.352 89.8086 125.367 89.8011 125.375 89.7786C125.397 89.7336 125.435 89.6511 125.465 89.5686C125.525 89.3886 125.577 89.1936 125.622 88.9911C125.72 88.5861 125.802 88.1661 125.885 87.7386L126.335 85.1736C126.635 83.4561 126.92 81.7236 127.34 79.9986C127.745 78.2436 128.502 76.5786 129.38 75.0411C130.28 73.5036 131.262 72.0111 132.665 70.7811C133.025 70.4811 133.422 70.1961 133.932 70.0161C134.06 69.9711 134.202 69.9411 134.352 69.9186C134.42 69.9036 134.502 69.9111 134.585 69.9111C134.652 69.9111 134.757 69.9111 134.9 69.9636C134.967 69.9936 135.057 70.0236 135.155 70.1286C135.26 70.2186 135.342 70.4586 135.297 70.6161C135.282 70.6911 135.26 70.7511 135.237 70.7961L135.207 70.8486L135.17 70.9161L135.005 71.1936C134.577 71.9436 134.172 72.7011 133.79 73.4736C133.017 75.0186 132.342 76.6086 131.757 78.2361C131.172 79.8636 130.685 81.5211 130.325 83.2086C130.145 84.0486 130.002 84.9036 129.92 85.7511C129.882 86.1711 129.86 86.5986 129.882 87.0111C129.897 87.2136 129.912 87.4161 129.965 87.5811C129.987 87.6636 130.025 87.7311 130.032 87.7386C130.047 87.7311 129.912 87.7161 129.957 87.7236L129.777 87.9636C129.912 86.8461 130.175 85.7961 130.49 84.7461C130.79 83.6961 131.195 82.6761 131.607 81.6636L131.93 80.9061C132.042 80.6436 132.177 80.3886 132.312 80.1411C132.582 79.6461 132.882 79.1736 133.205 78.7161C133.865 77.8086 134.622 76.9311 135.635 76.2936C135.755 76.2111 135.897 76.1436 136.032 76.0686L136.085 76.0386L136.107 76.0236C136.107 76.0236 136.107 76.0236 136.175 75.9936C136.392 75.9036 136.64 75.9636 136.79 76.0761C136.94 76.1886 137.075 76.3986 137.045 76.6686C137.037 76.7286 137.022 76.7886 136.992 76.8411L136.97 76.8936L136.947 76.9386L136.58 77.6511L135.852 79.0836C135.38 80.0436 134.922 81.0111 134.51 81.9936C134.097 82.9761 133.715 83.9736 133.452 84.9786C133.325 85.4811 133.22 85.9911 133.205 86.4861C133.197 86.7336 133.205 86.9661 133.257 87.1836C133.265 87.2361 133.287 87.2886 133.302 87.3411C133.317 87.3861 133.302 87.3411 133.295 87.3411C133.28 87.3261 133.265 87.3036 133.205 87.2736C133.152 87.2361 132.98 87.2361 132.89 87.3186C132.807 87.3861 132.8 87.4461 132.822 87.3861L132.912 87.1986C133.385 86.2161 133.91 85.2336 134.6 84.3411C135.282 83.4561 136.175 82.6611 137.262 82.2486C137.345 82.2186 137.367 82.2036 137.495 82.1661C137.787 82.0911 138.057 82.3086 138.072 82.5861C138.072 82.6536 138.072 82.7286 138.042 82.7886L138.005 82.8636L137.96 82.9461L137.877 83.1186C137.765 83.3511 137.675 83.5911 137.585 83.8386C137.412 84.3336 137.27 84.8361 137.172 85.3536C136.962 86.3886 136.917 87.4611 136.872 88.5336C136.842 89.606 136.775 90.6861 136.655 91.7736C136.542 92.8611 136.37 93.9561 136.04 95.0361C135.71 96.1011 135.2 97.2111 134.27 97.9911C133.347 98.7785 132.11 99.0561 130.992 99.0036C130.812 99.0036 130.67 98.8461 130.677 98.6661C130.677 98.4936 130.82 98.3586 130.992 98.3511C132.02 98.3136 133.017 98.0361 133.722 97.3686C134.435 96.7161 134.84 95.7561 135.102 94.7661C135.62 92.7561 135.635 90.5961 135.95 88.4436C136.1 87.3636 136.287 86.2911 136.512 85.2111C136.625 84.6711 136.76 84.1311 136.94 83.6061C137.03 83.3436 137.135 83.0811 137.255 82.8186L137.345 82.6236L137.39 82.5261C137.39 82.5261 137.42 82.4586 137.39 82.5111C137.375 82.5411 137.375 82.5786 137.375 82.6161C137.382 82.7511 137.51 82.8561 137.667 82.8186C137.667 82.8186 137.57 82.8636 137.517 82.8786C136.587 83.2461 135.807 83.9511 135.185 84.7686C134.555 85.5936 134.067 86.5386 133.64 87.5061L133.557 87.6861C133.557 87.6861 133.52 87.8136 133.385 87.9261C133.242 88.0536 132.987 88.0461 132.875 87.9861C132.642 87.8736 132.575 87.6785 132.545 87.5961C132.522 87.521 132.492 87.4386 132.477 87.3636C132.402 87.0486 132.38 86.7486 132.387 86.4561C132.395 85.8636 132.5 85.3086 132.62 84.7611C132.875 83.6736 133.242 82.6386 133.64 81.6186C134.037 80.5986 134.48 79.6086 134.937 78.6186L135.642 77.1486L136.01 76.4211L136.032 76.3761C136.017 76.4136 136.002 76.4586 135.995 76.5036C135.972 76.6986 136.07 76.8486 136.167 76.9236C136.265 76.9986 136.437 77.0361 136.587 76.9761C136.64 76.9536 136.61 76.9686 136.61 76.9686H136.587L136.55 76.9986C136.445 77.0586 136.34 77.1036 136.242 77.1786C135.425 77.6961 134.735 78.4836 134.15 79.3236C133.857 79.7436 133.58 80.1936 133.34 80.6436C133.1 81.0936 132.897 81.5661 132.672 82.0611C131.825 84.0111 131.052 86.0211 130.452 88.0386L130.4 88.2186L130.272 88.2711C130.182 88.3086 130.07 88.3536 129.927 88.3311C129.792 88.3161 129.665 88.2335 129.597 88.1586C129.455 88.001 129.41 87.8661 129.365 87.7386C129.282 87.4836 129.267 87.2511 129.245 87.0186C129.215 86.5536 129.23 86.1111 129.267 85.6611C129.335 84.7686 129.47 83.8986 129.635 83.0286C129.972 81.2961 130.445 79.6011 131.007 77.9286C131.57 76.2636 132.237 74.6286 132.995 73.0386C133.37 72.2436 133.782 71.4636 134.21 70.6911L134.375 70.4061L134.412 70.3311C134.412 70.3311 134.435 70.2936 134.427 70.3086C134.412 70.3311 134.405 70.3611 134.39 70.4136C134.36 70.5111 134.42 70.6986 134.487 70.7511C134.547 70.8111 134.585 70.8261 134.6 70.8336C134.637 70.8486 134.637 70.8336 134.6 70.8411C134.57 70.8411 134.54 70.8411 134.502 70.8411C134.435 70.8486 134.36 70.8711 134.285 70.8936C133.977 71.0061 133.647 71.2311 133.34 71.4936C132.125 72.5811 131.157 74.0436 130.317 75.5136C129.485 77.0136 128.795 78.5586 128.435 80.2161C128.045 81.8811 127.775 83.6061 127.497 85.3236C127.362 86.1861 127.22 87.0486 127.062 87.9111C126.98 88.3461 126.897 88.7811 126.792 89.2236C126.74 89.4486 126.68 89.666 126.605 89.9061C126.56 90.0261 126.522 90.1461 126.44 90.2961C126.395 90.3711 126.357 90.4536 126.222 90.5811C126.185 90.6111 126.155 90.6411 126.08 90.6786C126.027 90.7085 125.945 90.746 125.84 90.7611C125.742 90.7761 125.645 90.7611 125.547 90.7386C125.465 90.7086 125.405 90.6786 125.337 90.6336L125.465 90.7086C125.12 90.5361 125.067 90.341 124.992 90.2211C124.932 90.0861 124.902 89.9811 124.872 89.8761C124.82 89.6661 124.79 89.4711 124.767 89.2836C124.722 88.9086 124.707 88.5411 124.692 88.1811C124.67 87.4611 124.692 86.7411 124.715 86.0361L124.865 81.8211L124.94 79.7136L124.962 79.1886C124.962 79.1886 124.962 79.0461 124.97 79.1811C124.985 79.2636 125.037 79.3611 125.105 79.4211C125.247 79.5336 125.427 79.5411 125.577 79.4511C125.615 79.4286 125.645 79.3986 125.66 79.3761C125.69 79.3311 125.645 79.3911 125.645 79.3986L125.577 79.5036L125.435 79.7136C125.337 79.8486 125.247 79.9986 125.165 80.1411C124.46 81.2961 123.92 82.5486 123.515 83.8461C122.72 86.4336 122.442 89.2461 123.027 91.8486C123.335 93.1386 123.86 94.3761 124.7 95.3586C125.112 95.8461 125.592 96.2811 126.132 96.6261C126.672 96.9786 127.227 97.2861 127.812 97.6911H127.827C127.977 97.8111 128.022 98.0211 127.91 98.1711C127.842 98.2686 127.737 98.3136 127.632 98.3136V98.3211Z" fill="#92400E"/>
<path d="M28.9471 94.9014C27.3496 93.6414 26.4871 91.8939 25.9696 90.0864C25.4671 88.2639 25.3621 86.3739 25.5046 84.5364C25.5946 83.6064 25.7746 82.6614 26.1346 81.7764C26.4946 80.8914 26.9671 80.0364 27.7396 79.3689C27.9421 79.2114 28.1596 79.0614 28.4521 78.9789C28.5946 78.9339 28.7746 78.9264 28.9471 78.9789C29.1271 79.0239 29.2846 79.1664 29.3596 79.3089C29.6596 79.8864 29.4796 80.3814 29.4046 80.8164C29.2396 81.6789 29.1496 82.5639 29.1646 83.4414C29.1721 84.3189 29.2321 85.2039 29.3596 86.0589C29.4271 86.4789 29.5096 86.9139 29.6221 87.2664C29.6521 87.3489 29.6896 87.4239 29.7046 87.4464C29.7046 87.4464 29.7196 87.4464 29.6221 87.3714C29.5771 87.3414 29.4721 87.3039 29.3671 87.3114C29.2696 87.3189 29.2021 87.3564 29.1721 87.3789C29.0821 87.4614 29.1571 87.3939 29.1721 87.3264C29.2021 87.2589 29.2321 87.1689 29.2621 87.0714C29.7421 85.5339 29.6221 83.6739 29.9371 81.8664C30.1996 80.0439 30.8671 78.2514 31.8796 76.7139C32.8846 75.1614 34.2121 73.8864 35.6446 72.7989L35.6746 72.7764H35.6971V72.7689C35.8771 72.7164 36.0796 72.7014 36.2746 72.8439C36.4546 73.0014 36.4771 73.2114 36.4771 73.3689C36.4771 73.6989 36.3796 73.9839 36.2896 74.2614C36.0946 74.8164 35.8321 75.3339 35.5696 75.8439C35.0446 76.8339 34.6171 77.8914 34.2121 78.9489C33.8146 80.0064 33.4471 81.0864 33.1246 82.1664C32.9671 82.7064 32.8171 83.2539 32.6971 83.8014C32.6371 84.0714 32.5846 84.3489 32.5471 84.6189C32.5321 84.7539 32.5171 84.8814 32.5171 85.0014C32.5171 85.0539 32.5171 85.1139 32.5321 85.1364C32.5321 85.1514 32.5321 85.1364 32.5171 85.1139C32.4946 85.0689 32.3896 85.0239 32.3371 85.0389C32.2621 85.0539 32.3146 85.0389 32.3446 85.0089C32.3821 84.9789 32.4196 84.9339 32.4646 84.8889C32.5471 84.7989 32.6221 84.6789 32.7046 84.5664C32.8696 84.3489 33.0121 84.1089 33.1546 83.8764C33.4396 83.4039 33.6871 82.8939 33.9346 82.3839C34.4221 81.3639 34.8796 80.3064 35.4946 79.3014C35.8021 78.7989 36.1621 78.3114 36.6046 77.8839C36.7096 77.7714 36.8296 77.6739 36.9571 77.5764C37.0846 77.4789 37.1896 77.3814 37.3771 77.2914C37.4821 77.2539 37.5796 77.1714 37.8646 77.2239C38.0146 77.2614 38.1496 77.4039 38.1871 77.4939C38.2471 77.6064 38.2471 77.6739 38.2546 77.7414C38.2696 77.9889 38.2321 78.1389 38.1946 78.2964C37.8721 79.4814 37.3846 80.4939 36.9421 81.5514C36.4921 82.6014 36.0271 83.6364 35.6146 84.6864C35.4196 85.2039 35.2171 85.7439 35.1271 86.2239C35.1046 86.3289 35.1196 86.4639 35.1121 86.4189C35.1121 86.3964 35.0896 86.3589 35.0371 86.3139C35.0146 86.2914 34.9846 86.2764 34.9546 86.2689C34.9621 86.2689 34.9771 86.2689 35.0071 86.2689C35.1196 86.2539 35.3446 86.1264 35.5321 85.9689C36.3121 85.2939 36.9796 84.3414 37.6471 83.4339L38.1646 82.7364C38.2846 82.6164 38.2846 82.5189 38.5996 82.3089C38.6971 82.2564 38.8246 82.2189 38.9821 82.2414C39.0496 82.2564 39.1246 82.2789 39.1846 82.3164C39.2296 82.3464 39.2746 82.3839 39.3196 82.4214C39.4471 82.5564 39.4921 82.6689 39.5296 82.7589C39.7546 83.4789 39.7021 84.0339 39.6946 84.6339C39.5371 86.9889 38.9071 89.2839 37.7371 91.3464C37.1446 92.3664 36.3946 93.3264 35.4421 94.0764C34.4971 94.8339 33.3496 95.3514 32.1571 95.5539C31.9096 95.5989 31.6771 95.4339 31.6396 95.1864C31.6021 94.9389 31.7596 94.7064 32.0071 94.6689C33.0571 94.4889 34.0546 94.0389 34.8871 93.3714C35.7271 92.7114 36.4171 91.8414 36.9646 90.8964C38.0446 88.9914 38.6596 86.7789 38.8021 84.5889C38.8246 84.0639 38.8246 83.4489 38.6971 83.0814C38.6821 83.0439 38.6671 83.0289 38.6971 83.0514C38.7121 83.0664 38.7271 83.0814 38.7496 83.0889C38.7796 83.1114 38.8171 83.1189 38.8546 83.1264C38.9446 83.1414 38.9971 83.1264 39.0346 83.1039C39.1096 83.0439 38.9521 83.2014 38.8921 83.2914L38.3896 83.9664C37.7071 84.8814 37.0696 85.8414 36.1246 86.6664C35.8696 86.8614 35.6146 87.0789 35.1571 87.1614C35.0446 87.1764 34.9171 87.1839 34.7896 87.1464L34.6921 87.1239C34.6321 87.1014 34.5646 87.0639 34.5121 87.0264C34.4071 86.9364 34.3471 86.8389 34.3096 86.7489C34.2121 86.4339 34.2646 86.2689 34.2796 86.0964C34.3996 85.4514 34.6171 84.9264 34.8271 84.3789C35.2546 83.3064 35.7271 82.2639 36.1921 81.2214C36.6421 80.1864 37.1371 79.1289 37.4221 78.1164C37.4521 77.9964 37.4671 77.8614 37.4671 77.8314C37.4671 77.8314 37.4671 77.8239 37.4821 77.8764C37.4971 77.9064 37.5721 77.9964 37.6546 78.0114C37.8046 78.0339 37.7521 78.0114 37.7371 78.0264C37.6696 78.0564 37.5571 78.1464 37.4596 78.2214C37.3546 78.2964 37.2496 78.3714 37.1596 78.4689C36.7771 78.8214 36.4396 79.2489 36.1471 79.7139C35.5546 80.6364 35.0821 81.6714 34.5646 82.6989C34.3021 83.2089 34.0396 83.7264 33.7321 84.2214C33.5746 84.4689 33.4171 84.7164 33.2371 84.9489C33.1471 85.0689 33.0646 85.1814 32.9596 85.3089C32.9071 85.3689 32.8471 85.4289 32.7796 85.4889C32.7046 85.5414 32.6371 85.6239 32.4196 85.6614C32.2921 85.6839 32.1196 85.6014 32.0521 85.5039C31.9921 85.4214 31.9696 85.3464 31.9546 85.2864C31.9246 85.1664 31.9321 85.0839 31.9246 85.0014C31.9246 84.8364 31.9471 84.6864 31.9696 84.5364C32.0146 84.2364 32.0746 83.9589 32.1421 83.6739C32.2771 83.1114 32.4421 82.5564 32.6146 82.0089C32.9596 80.9139 33.3496 79.8339 33.7771 78.7764C34.2046 77.7114 34.6621 76.6614 35.2246 75.6489C35.4946 75.1539 35.7571 74.6514 35.9521 74.1414C36.1396 73.6614 36.2896 72.9264 35.8246 73.0989L35.8771 73.0689C34.5871 74.2914 33.4396 75.6414 32.5696 77.1339C31.6921 78.6339 31.1971 80.2989 30.9871 82.0164C30.8746 82.8789 30.8371 83.7489 30.7771 84.6489C30.7096 85.5414 30.6646 86.4789 30.3496 87.4239C30.3046 87.5439 30.2671 87.6639 30.1996 87.7989C30.1246 87.9339 30.0946 88.0689 29.8246 88.2939C29.7421 88.3464 29.6296 88.4064 29.4721 88.4214C29.3146 88.4364 29.1571 88.3839 29.0596 88.3239C28.8646 88.1964 28.8121 88.0914 28.7596 88.0014C28.6621 87.8289 28.6246 87.6939 28.5871 87.5664C28.4521 87.0564 28.4296 86.5989 28.4146 86.1339C28.3921 85.2114 28.4371 84.3039 28.5346 83.3964C28.6396 82.4964 28.7446 81.5964 28.9246 80.7039C28.9771 80.4714 28.9996 80.2839 29.0071 80.0814C29.0071 79.8864 28.9771 79.6914 28.9021 79.5939C28.8271 79.5039 28.7821 79.5114 28.6321 79.5639C28.4971 79.6164 28.3471 79.7439 28.2271 79.8864C27.7171 80.4789 27.4396 81.3114 27.2596 82.1139C27.0946 82.9389 26.9971 83.7714 26.9521 84.6189C26.8471 86.3439 26.9671 88.0614 27.3496 89.7039C27.5521 90.5214 27.8146 91.3239 28.1821 92.0739C28.5271 92.8164 29.0221 93.5589 29.5321 94.0914L29.5921 94.1589C29.7796 94.3539 29.7721 94.6689 29.5771 94.8564C29.3971 95.0289 29.1196 95.0364 28.9321 94.8864L28.9471 94.9014Z" fill="#92400E"/>
<path d="M104.787 53.1257C104.517 53.1257 104.21 52.3832 104.18 52.1132C104.18 52.0682 104.802 47.2607 100.782 47.5157C100.587 47.5307 100.482 47.2682 100.46 47.0732C100.437 46.8782 100.542 46.6907 100.707 46.5857C100.865 46.4882 105.335 47.4257 104.517 37.8707C104.495 37.5857 104.75 37.3457 105.042 37.3457C105.365 37.3757 105.552 37.5782 105.567 37.8632C105.957 44.1557 104.045 46.6832 109.82 47.1782C110.045 47.2007 110.195 47.4182 110.21 47.6432C110.225 47.8682 110.105 48.0782 109.895 48.1682C109.85 48.1907 104.907 47.4182 105.305 52.6307C105.327 52.9007 105.065 53.1107 104.795 53.1182C104.795 53.1182 104.795 53.1182 104.787 53.1182V53.1257Z" fill="#92400E"/>
<path d="M11.0072 55.7734C11.3222 55.5409 11.7347 55.5409 12.0797 56.1184C12.4772 56.7709 11.8397 57.4084 11.2022 57.4459C10.1447 57.5134 10.4072 56.2234 11.0072 55.7734Z" fill="#92400E"/>
<path d="M23.427 54.491C23.7795 53.771 24.7095 53.246 25.5645 54.0035C26.742 55.046 25.3845 56.3285 24.342 56.1485C23.2545 55.9685 23.1045 55.1435 23.427 54.4835V54.491Z" fill="#92400E"/>
<path d="M24.0575 60.3782C24.0575 60.3782 24.5675 59.6282 25.25 60.3032C25.925 60.9782 25.01 61.6757 24.4925 61.6607C23.975 61.6457 23.51 61.1582 24.0575 60.3707V60.3782Z" fill="#92400E"/>
<path d="M21.7471 19.4436C21.7471 19.4436 22.3696 21.0561 22.3171 21.4761C22.3171 21.4761 22.3171 21.7761 22.0471 21.6936C21.7771 21.6111 20.2021 20.9511 20.0221 20.8161C20.0221 20.8161 17.7196 22.6161 17.6296 22.6086C17.5396 22.6011 17.3071 22.7961 17.2096 22.4211C17.1421 22.1436 18.1696 19.5036 18.1696 19.5036C18.1696 19.5036 16.2946 17.5611 16.1371 17.3886C15.9796 17.2161 16.0171 16.9311 16.3021 16.8561C16.5871 16.7811 18.8221 16.9311 18.8221 16.9311C18.8221 16.9311 19.3621 14.5386 19.4971 14.3586C19.6321 14.1786 19.8496 14.1786 19.9546 14.3586C20.0596 14.5386 21.0196 16.8111 21.0196 16.8111L24.1846 16.7586C24.1846 16.7586 24.8896 16.9086 24.3121 17.4336C23.7346 17.9586 21.7396 19.4511 21.7396 19.4511L21.7471 19.4436Z" fill="#92400E"/>
<path d="M78.6421 85.1509C78.6421 85.2259 78.7171 85.8034 78.7621 86.1709C78.7771 86.2909 78.9196 86.3509 79.0171 86.2684L79.7596 85.6309L81.0871 86.0059C81.2296 86.0434 81.3646 85.9009 81.3046 85.7659L80.9221 84.7684L81.2371 84.1759C81.3271 84.0034 81.1846 83.8009 80.9896 83.8309L80.1871 83.9734L79.5346 82.9234C79.4596 82.8034 79.2796 82.8109 79.2121 82.9384L78.6646 84.0934C78.6646 84.0934 77.4496 84.2734 77.3971 84.4234C77.3446 84.5959 78.6271 85.1584 78.6271 85.1584L78.6421 85.1509Z" fill="#92400E"/>
<path d="M110.525 15.0406C110.698 14.1781 110.953 13.2331 109.663 13.2331C108.373 13.2331 104.323 14.6131 103.895 14.2681C103.468 13.9231 103.348 12.0256 103.19 10.4806C103.033 8.92811 102.77 7.42061 102.088 8.15561C102.088 8.15561 100.97 8.32811 100.88 11.7706C100.79 15.2131 101.398 15.4756 100.798 15.2131C100.198 14.9506 95.7202 15.9031 95.7202 16.8481C95.7202 17.7931 98.7352 18.4831 100.37 18.6556C100.37 18.6556 99.9427 20.1181 99.9427 21.9256C99.9427 23.7331 100.115 25.7131 100.978 25.6306C101.84 25.5481 103.73 21.7531 104.42 21.4081C105.11 21.0631 107.263 23.9056 108.125 23.9056C108.988 23.9056 108.208 20.5456 107.008 19.0006C107.008 19.0006 110.368 15.9031 110.54 15.0406H110.525ZM105.53 18.5656C106.738 20.9731 105.703 20.2906 104.668 19.2556C103.633 18.2206 102.86 19.7731 102.17 20.2906C101.48 20.8081 102.425 18.6556 102.515 17.9656C102.605 17.2756 99.9352 17.1931 99.5002 16.7956C99.0727 16.3981 102.253 16.3306 101.908 15.3856C101.563 14.4406 101.908 11.1631 101.908 11.1631C102.508 9.70061 102.163 13.1431 102.77 14.5231C103.378 15.9031 103.888 16.0756 104.84 15.7681C105.785 15.4606 111.125 13.9231 108.545 15.7681C105.965 17.6131 105.53 18.5731 105.53 18.5731V18.5656Z" fill="#92400E"/>
<path d="M10.3853 83.7334C10.3853 83.7334 10.3778 83.7334 10.3703 83.7334C10.2203 83.7259 10.1003 83.6059 10.0928 83.4559C10.0928 83.4259 9.89777 80.5909 8.25527 79.8634C8.06027 79.7734 8.03777 79.6234 8.03027 79.5559C8.03027 79.3309 8.21027 79.2409 8.42027 79.1359C8.97527 78.8584 10.2278 78.2434 10.4903 76.0834C10.4978 75.8284 10.5278 75.6634 10.5278 75.6559C10.5578 75.5059 10.7003 75.4084 10.8503 75.4234C11.0003 75.4459 11.1128 75.5809 11.1053 75.7309C11.0978 75.8959 11.0828 76.0459 11.0603 76.1959C11.0453 76.9909 11.2853 78.6709 13.4903 79.3084C13.6028 79.3384 13.6928 79.4434 13.7003 79.5634C13.7153 79.6834 13.6478 79.7959 13.5428 79.8559C13.5203 79.8709 11.0678 81.1384 10.6628 83.4859C10.6403 83.6284 10.5128 83.7259 10.3778 83.7259L10.3853 83.7334Z" fill="#92400E"/>
<path d="M132.222 53.2759C132.417 53.3659 133.887 54.1384 134.802 54.6109C135.117 54.7759 135.117 55.2184 134.802 55.3909L132.372 56.7409L132.035 60.6484C131.997 61.0759 131.495 61.2784 131.172 60.9934L128.892 58.9834L127.002 59.2384C126.447 59.3134 126.057 58.7134 126.335 58.2334L127.497 56.2459L125.352 53.4634C125.105 53.1409 125.307 52.6684 125.72 52.6309L129.342 52.3159C129.342 52.3159 131.03 49.2559 131.48 49.2784C131.997 49.3009 132.207 53.2834 132.207 53.2834L132.222 53.2759Z" fill="#92400E"/>
<path d="M108.267 61.6006C108.327 61.6231 108.23 62.9206 108.365 63.0331C108.5 63.1456 109.377 62.1631 109.52 62.1781C109.707 62.1931 111.545 63.0481 111.635 62.8231C111.74 62.5456 110.9 61.2931 110.825 61.1431C110.75 60.9931 111.62 60.1456 111.755 59.8531C111.755 59.8531 111.957 59.3506 110.097 59.9356C110.097 59.9356 109.415 58.6081 109.19 58.4581C108.965 58.3081 108.402 60.1081 108.372 60.2131C108.342 60.3181 106.962 60.4981 106.835 60.7156C106.707 60.9331 107.48 61.3081 108.267 61.5931V61.6006Z" fill="#92400E"/>
<path d="M49.9096 2.65122C49.9321 2.70372 50.1196 3.11622 50.2321 3.37122C50.2696 3.46122 50.3896 3.46122 50.4421 3.38622L50.8396 2.74872L51.8971 2.71122C52.0096 2.71122 52.0771 2.57622 52.0021 2.48622L51.4921 1.84122L51.5896 1.33122C51.6196 1.18122 51.4621 1.06872 51.3271 1.13622L50.7721 1.42122L50.0521 0.798716C49.9696 0.723716 49.8346 0.776216 49.8196 0.888716L49.6846 1.86372C49.6846 1.86372 48.8296 2.27622 48.8296 2.40372C48.8296 2.54622 49.9021 2.65872 49.9021 2.65872L49.9096 2.65122Z" fill="#92400E"/>
<path d="M1.43753 34.8705C1.46753 34.983 1.61003 35.013 1.67753 34.923C1.80503 34.758 1.95503 34.563 1.99253 34.518C2.03753 34.458 2.87753 34.608 3.26753 34.683C3.34253 34.698 3.40253 34.6155 3.36503 34.548L2.83253 33.6105L3.37253 32.568C3.40253 32.508 3.35003 32.433 3.27503 32.448L2.23253 32.7255L1.58753 31.923C1.53503 31.8555 1.42253 31.878 1.40003 31.968L1.11503 33.2655L0.147531 33.5205C0.0350307 33.5505 0.0275307 33.7005 0.125031 33.7455L1.25753 34.2555L1.43003 34.8855L1.43753 34.8705Z" fill="#92400E"/>
<path d="M13.7821 40.0981C13.8796 40.1131 14.0746 40.6981 14.1871 40.7056C14.2996 40.7131 14.4271 40.1581 14.5246 40.0381C14.6221 39.9181 15.7171 39.9781 15.8446 39.9256C15.9721 39.8731 15.2221 39.3856 15.1171 39.2506C15.0121 39.1156 15.3496 38.4481 15.3496 38.2231C15.3496 37.9981 14.4571 38.8306 14.4571 38.8306C14.4571 38.8306 13.8496 38.0881 13.7971 38.0281C13.7446 37.9681 13.6546 38.9056 13.6396 39.1156C13.6246 39.3256 12.7171 39.6931 12.6871 39.7756C12.6571 39.8581 12.7171 39.9481 13.7821 40.0831V40.0981Z" fill="#92400E"/>
<path d="M33.6124 3.81356C33.6724 3.81356 33.9799 5.09606 34.1449 5.17106C34.3099 5.24606 34.8499 4.02356 34.9999 3.99356C35.1799 3.95606 37.2199 4.21106 37.2349 3.97106C37.2499 3.67106 36.0574 2.71856 35.9449 2.59856C35.8324 2.47856 36.4024 1.39106 36.4474 1.06856C36.4474 1.06856 36.4924 0.521063 34.8799 1.65356C34.8799 1.65356 33.8224 0.581063 33.5599 0.506063C33.2974 0.431063 33.3049 2.33606 33.3124 2.44856C33.3199 2.56106 32.0449 3.15356 31.9849 3.40106C31.9249 3.64856 32.7874 3.77606 33.6349 3.81356H33.6124Z" fill="#92400E"/>
<path d="M1.67748 63.7011C2.07498 63.1011 3.21498 63.2511 3.71748 63.7236C4.79748 64.7436 3.54498 65.5536 3.13248 65.6511C2.40498 65.8161 1.54248 64.8936 1.54248 64.2036C1.54248 64.0011 1.59498 63.8361 1.67748 63.7011Z" fill="#92400E"/>
<path d="M21.5155 10.8102C20.878 9.40016 20.2555 7.98266 19.6405 6.56516C19.303 5.77766 18.613 5.11016 17.9905 4.42766C17.3755 3.74516 16.813 3.03266 16.8805 2.03516" fill="#92400E"/>
<path d="M21.6728 11.2454C21.4478 11.3279 21.1928 11.2229 21.0953 11.0054C20.4578 9.60294 19.8278 8.17044 19.2203 6.74544C18.9653 6.13794 18.4628 5.60544 17.9303 5.03544L17.6603 4.74294C16.9928 4.00794 16.3553 3.19044 16.4303 2.00544C16.4453 1.75044 16.6703 1.55544 16.9253 1.57794C17.1803 1.59294 17.3753 1.81794 17.3528 2.07294C17.2928 2.89794 17.7653 3.49044 18.3428 4.12794L18.6128 4.41294C19.1753 5.01294 19.7603 5.64294 20.0753 6.39294C20.6828 7.80294 21.3128 9.23544 21.9428 10.6304C22.0478 10.8629 21.9428 11.1404 21.7103 11.2454C21.7028 11.2454 21.6878 11.2529 21.6803 11.2604L21.6728 11.2454Z" fill="#92400E"/>
<path d="M14.982 13.1055C13.4145 11.823 9.26703 7.08297 8.08203 5.41797L14.982 13.1055Z" fill="#92400E"/>
<path d="M15.1399 13.5403C14.9899 13.5928 14.8174 13.5703 14.6899 13.4653C12.8824 11.9878 8.80236 7.2253 7.70736 5.6878C7.55736 5.4778 7.60986 5.1928 7.81986 5.0428C8.02986 4.8928 8.31486 4.94531 8.46486 5.15531C9.50736 6.62531 13.5349 11.3353 15.2749 12.7528C15.4699 12.9178 15.4999 13.2028 15.3424 13.4053C15.2899 13.4728 15.2224 13.5178 15.1399 13.5478V13.5403Z" fill="#92400E"/>
<path d="M13.9851 16.578C13.1901 15.633 11.9676 15.1755 10.9326 14.493C9.83006 13.758 9.00506 12.678 8.24756 11.5605" fill="#92400E"/>
<path d="M14.1422 17.0127C13.9622 17.0802 13.7597 17.0277 13.6322 16.8777C13.1447 16.2927 12.4472 15.9027 11.7122 15.4977C11.3672 15.3027 11.0147 15.1077 10.6772 14.8827C9.4847 14.0877 8.6222 12.9477 7.8647 11.8227C7.7222 11.6127 7.7747 11.3277 7.9847 11.1777C8.1947 11.0352 8.4872 11.0877 8.6297 11.2977C9.3347 12.3402 10.1297 13.3977 11.1872 14.1027C11.4947 14.3052 11.8172 14.4852 12.1622 14.6802C12.9347 15.1152 13.7372 15.5577 14.3372 16.2777C14.5022 16.4727 14.4722 16.7652 14.2772 16.9302C14.2322 16.9677 14.1872 16.9902 14.1422 17.0127Z" fill="#92400E"/>
<path d="M17.5244 89.4337C17.5244 89.4337 16.7519 90.2512 16.4894 90.3412C16.4894 90.3412 16.3169 90.4237 16.2869 90.2437C16.2569 90.0637 16.2044 88.9537 16.2344 88.8112C16.2344 88.8112 14.5244 87.9637 14.5094 87.9112C14.4944 87.8587 14.3069 87.7762 14.5094 87.6112C14.6519 87.4912 16.4894 87.3562 16.4894 87.3562C16.4894 87.3562 17.0969 85.7062 17.1569 85.5637C17.2169 85.4212 17.3969 85.3612 17.5169 85.5112C17.6369 85.6612 18.1844 87.0112 18.1844 87.0112C18.1844 87.0112 19.7444 86.6512 19.8869 86.6812C20.0294 86.7112 20.0894 86.8387 20.0219 86.9437C19.9544 87.0487 18.8819 88.2637 18.8819 88.2637L19.8044 90.1087C19.8044 90.1087 19.9169 90.5662 19.4444 90.3712C18.9719 90.1762 17.5394 89.4262 17.5394 89.4262L17.5244 89.4337Z" fill="#92400E"/>
<path d="M135.665 33.873C135.568 33.3405 135.148 32.9655 134.255 33.2205C133.243 33.513 133.295 34.7505 133.903 35.3805C134.915 36.4305 135.845 34.878 135.658 33.873H135.665Z" fill="#92400E"/>
<path d="M129.74 41.7785C129.898 40.8035 128.6 39.8885 127.655 39.9035C125.615 39.9335 126.125 41.921 126.455 42.401C127.033 43.241 128.773 43.1135 129.418 42.416C129.605 42.206 129.71 41.996 129.748 41.786L129.74 41.7785Z" fill="#92400E"/>
<path d="M23.4428 66.5807C23.3003 66.5807 23.1503 66.5507 23.0228 66.4757C22.8428 66.3632 22.7453 66.1532 22.6553 65.9582C22.0853 64.6982 21.4403 63.6257 20.5178 62.5907C20.3828 62.4407 20.1353 62.5607 20.1728 62.7632C20.3378 63.7757 20.4353 64.7957 20.4653 65.8157C20.4653 65.9807 20.4653 66.1607 20.3678 66.2882C20.2478 66.4382 20.0303 66.4607 19.8353 66.4682C18.5528 66.5132 17.2628 66.4982 15.9803 66.4082C15.7628 66.3932 15.6353 66.6632 15.8003 66.8057C16.7003 67.6157 17.7653 68.2532 18.9128 68.6507C19.0628 68.7032 19.2203 68.7557 19.3028 68.8907C19.4378 69.0932 19.3178 69.3632 19.1978 69.5807C18.7178 70.4582 17.7503 71.4857 18.1253 72.3632C18.1553 72.4382 18.2453 72.4832 18.3278 72.4532C18.6428 72.3557 19.4978 71.9807 20.9828 70.6532C22.3103 69.4607 24.1103 70.6982 25.7678 71.1482C25.9178 71.1857 26.1128 71.2157 26.2103 71.0957C26.3228 70.9532 26.2103 70.7507 26.1128 70.6007C25.5503 69.8357 24.3728 68.8532 24.9128 67.8257C24.9953 67.6607 26.9153 66.0257 26.5478 65.7782C25.9328 65.3657 24.5978 66.6257 23.4353 66.5807H23.4428Z" fill="#92400E"/>
<path d="M131.495 21.124C131.15 21.319 130.745 21.2665 130.468 20.6515C130.153 19.954 130.865 19.399 131.503 19.444C132.56 19.5115 132.14 20.7565 131.495 21.124Z" fill="#92400E"/>
<path d="M119.008 20.8615C118.565 21.5365 117.583 21.9415 116.825 21.079C115.783 19.894 117.29 18.799 118.31 19.099C119.368 19.414 119.413 20.2465 119.008 20.8615Z" fill="#92400E"/>
<path d="M141.741 14.4112C141.276 14.9587 140.158 14.6662 139.723 14.1412C138.778 12.9937 140.121 12.3487 140.541 12.3037C141.283 12.2287 142.026 13.2487 141.936 13.9387C141.913 14.1412 141.838 14.2987 141.741 14.4187V14.4112Z" fill="#92400E"/>
<path d="M119.113 14.9361C119.113 14.9361 118.513 15.6186 117.921 14.8611C117.328 14.1036 118.326 13.5336 118.836 13.6011C119.346 13.6686 119.751 14.2161 119.106 14.9361H119.113Z" fill="#92400E"/>
<path d="M100.677 81.5958C100.677 81.5958 100.1 81.5808 100.017 82.0008C99.9347 82.4208 101.007 82.9158 101.382 82.8333C101.757 82.7508 101.427 81.7608 100.677 81.5958Z" fill="#92400E"/>
<path d="M93.3423 89.921C93.3423 89.921 92.6373 89.6285 92.4348 89.921C92.2323 90.2135 91.9398 90.626 92.4348 90.7085C92.9298 90.791 93.5373 90.7535 93.6273 90.461C93.7173 90.1685 93.3498 89.921 93.3498 89.921H93.3423Z" fill="#92400E"/>
<path d="M91.3549 91.361C91.3549 91.361 90.9049 92.1635 91.5049 92.126C92.1049 92.0885 92.4724 91.8185 92.4199 91.5485C92.3674 91.2785 92.1949 90.986 91.3549 91.3535V91.361Z" fill="#92400E"/>
<path d="M97.3323 75.461C97.3323 75.461 97.3248 75.461 97.3173 75.461C97.1898 75.461 97.0848 75.356 97.0773 75.2285C97.0773 75.206 96.9123 72.761 95.4948 72.1385C95.3223 72.0635 95.3073 71.9285 95.2998 71.876C95.2998 71.681 95.4573 71.606 95.6373 71.516C96.1098 71.2835 97.1898 70.7435 97.4223 68.891C97.4298 68.666 97.4523 68.531 97.4598 68.5235C97.4823 68.396 97.6023 68.306 97.7373 68.321C97.8723 68.336 97.9623 68.456 97.9548 68.5835C97.9473 68.726 97.9323 68.8535 97.9173 68.981C97.9023 69.6635 98.1048 71.111 100.01 71.6585C100.107 71.6885 100.182 71.771 100.19 71.876C100.197 71.981 100.145 72.0785 100.055 72.1235C100.032 72.131 97.9248 73.226 97.5723 75.251C97.5498 75.371 97.4448 75.461 97.3248 75.461H97.3323Z" fill="#92400E"/>
<path d="M79.0849 67.7131C79.0849 67.7131 78.8074 67.7206 81.5674 67.3156C84.7549 66.8431 86.5624 66.2206 86.5849 64.4281C86.6074 62.9281 86.8624 57.4081 87.4624 58.7506C88.0624 60.0931 88.0849 65.3656 90.1774 65.8156C92.2699 66.2656 94.6324 66.1981 94.6324 66.7381C94.6324 67.6081 90.3499 66.4756 89.7049 71.4631C89.2749 74.8231 88.8224 76.5056 88.3474 76.5106C87.4924 76.5106 87.1924 69.5356 85.6999 69.0856C84.2074 68.6356 79.0774 68.6506 79.0924 67.7056L79.0849 67.7131Z" fill="#92400E"/>
<path d="M82.5422 79.0158C82.5422 79.0158 81.1922 77.5308 81.1172 77.3208C81.0422 77.1108 79.9997 78.8658 79.3022 79.0908C78.6122 79.3233 80.0522 76.6608 80.1947 76.0308C80.3372 75.4008 78.4322 74.0508 78.2747 73.7808C78.1172 73.5108 80.4647 73.9083 81.0647 74.0358C81.6647 74.1633 82.0697 72.0633 82.7147 72.0333C83.1122 72.0183 82.5872 73.7958 82.6997 74.4183C82.6997 74.4183 84.4997 74.0133 84.8297 74.3883C85.1297 74.7183 83.4947 75.5133 82.8347 75.9108C82.4222 76.1508 82.8572 77.6283 82.8347 78.8808C82.8272 79.3533 82.5422 79.0158 82.5422 79.0158Z" fill="#92400E"/>
<path d="M96.4099 88.4282C96.4849 88.4582 96.3574 90.1157 96.5299 90.2582C96.7024 90.4007 97.8199 89.1557 98.0074 89.1707C98.2399 89.1932 100.595 90.2732 100.7 89.9957C100.835 89.6432 99.7624 88.0457 99.6724 87.8582C99.5824 87.6707 100.685 86.5832 100.857 86.2082C100.857 86.2082 101.12 85.5632 98.7499 86.3132C98.7499 86.3132 97.8799 84.6182 97.5949 84.4307C97.3099 84.2357 96.5899 86.5307 96.5524 86.6732C96.5149 86.8157 94.7599 87.0407 94.5874 87.3182C94.4149 87.5957 95.4124 88.0757 96.4099 88.4432V88.4282Z" fill="#92400E"/>
<path d="M68.5773 73.4885C68.4048 73.166 68.4723 72.791 69.0498 72.551C69.7098 72.281 70.1973 72.9635 70.1373 73.556C70.0398 74.5385 68.8923 74.1035 68.5773 73.4885Z" fill="#92400E"/>
<path d="M74.18 75.4531C73.5725 75.0181 73.2275 74.0956 74.0525 73.4206C75.185 72.4981 76.1525 73.9306 75.8375 74.8681C75.5075 75.8356 74.735 75.8506 74.18 75.4606V75.4531Z" fill="#92400E"/>
<path d="M68.7351 78.611C68.2401 78.161 68.5551 77.1335 69.0576 76.7435C70.1526 75.911 70.7076 77.171 70.7376 77.5685C70.7826 78.2585 69.8076 78.9185 69.1701 78.8135C68.9826 78.7835 68.8401 78.7085 68.7351 78.611Z" fill="#92400E"/>
<path d="M74.8772 68.1035C74.8772 68.1035 74.2697 67.5185 74.9897 67.001C75.7097 66.4835 76.2122 67.421 76.1222 67.8935C76.0322 68.366 75.5147 68.726 74.8772 68.1035Z" fill="#92400E"/>
<path d="M83.3901 58.9688C83.3901 58.9688 82.5126 59.0438 82.4526 59.6138C82.3551 60.4688 83.6301 61.7587 84.2676 60.6787C84.6126 60.0937 83.9226 59.2012 83.3901 58.9688Z" fill="#92400E"/>
<path d="M103.707 80.3213C103.707 80.3213 102.83 80.3963 102.77 80.9663C102.642 82.1138 104.607 83.0438 104.667 81.7913C104.682 81.4313 104.195 80.2838 103.715 80.3288L103.707 80.3213Z" fill="#92400E"/>
<path d="M80.727 45.4912C80.727 45.4912 86.8395 47.9887 90.4545 52.1212C94.0695 56.2537 100.182 64.6912 103.805 68.5687C107.42 72.4462 109.745 77.6137 110.007 82.8637C110.27 88.1137 107.765 94.0612 102.515 96.9862C97.2645 99.9112 86.3295 103.189 80.817 103.616C75.3045 104.044 71.517 102.926 70.482 102.326C69.447 101.726 71.5995 100.519 73.842 99.4837C76.0845 98.4487 80.127 98.2762 81.417 96.5587C82.707 94.8337 84.342 92.5087 84.9495 90.9637C85.557 89.4187 88.3095 80.8912 92.787 79.1662C92.787 79.1662 94.512 78.5662 95.712 79.4212C95.712 79.4212 96.402 80.6287 95.2845 80.7112C94.167 80.7937 93.5595 80.2837 92.532 81.0562C91.497 81.8287 88.227 86.0512 86.847 89.6662C85.467 93.2812 83.7495 96.2137 82.0245 97.5037C80.2995 98.7937 73.4145 100.001 73.497 101.381C73.5795 102.761 78.9195 102.934 86.9295 101.554C94.572 100.241 98.382 97.8487 102.26 95.2687C106.137 92.6887 108.29 88.1212 108.635 84.9337C108.867 82.8187 107.945 75.8887 105.02 71.7562C102.095 67.6237 98.4195 63.4462 95.892 60.3937C93.0495 56.9512 87.7995 52.6462 85.902 50.6662C84.0045 48.6862 79.6995 47.3062 79.4445 46.7062C79.1895 46.1062 80.7345 45.4987 80.7345 45.4987L80.727 45.4912Z" fill="#92400E"/>
<path d="M66.2593 76.3992C66.2593 76.3992 65.0518 77.5167 64.3618 80.1042C63.6718 82.6842 61.7818 88.3692 61.5193 90.4392C61.2568 92.5092 61.0918 95.6067 59.9668 98.0142C58.8418 100.422 53.9368 100.767 53.3368 99.7392C52.7368 98.7117 53.8543 96.7242 56.0068 95.2617C56.0068 95.2617 56.4343 92.9367 56.6068 91.3842C56.7793 89.8317 56.5243 82.7742 56.7793 80.3592C57.0343 77.9442 58.4143 70.4592 60.1393 67.9617C60.1393 67.9617 61.0843 67.5342 60.9118 68.4792C60.7393 69.4242 58.3318 75.5367 57.8968 79.4142C57.4618 83.2917 57.6418 90.6117 57.3793 92.8467C57.1168 95.0817 57.2068 95.5167 56.4343 96.1167C55.6618 96.7167 54.3643 98.2692 54.5368 99.0417C54.7093 99.8142 57.6343 99.2967 58.2418 98.1792C58.8493 97.0617 59.5318 95.0817 59.6218 93.6192C59.7118 92.1567 60.7393 86.8167 61.2568 85.0917C61.7743 83.3667 64.0093 77.1717 64.9618 76.2192C65.9143 75.2667 66.9418 75.5292 66.2518 76.3917L66.2593 76.3992Z" fill="#92400E"/>
<path d="M50.5021 65.8985C50.5846 66.146 49.9021 73.301 49.9846 77.351C50.0671 81.401 50.1496 86.5835 49.2121 89.4035C47.7496 93.7985 44.3071 93.881 44.0446 95.4335C44.0446 95.4335 43.7896 97.331 45.5971 97.841C47.4046 98.351 49.2121 97.7585 50.5021 96.206C51.7921 94.6535 53.2546 91.3835 53.5171 89.4035C53.7796 87.4235 55.5871 78.551 55.5871 77.5235C55.5871 76.496 54.8971 75.4535 54.8146 76.1435C54.7321 76.8335 53.2621 85.961 52.9171 87.7685C52.5721 89.576 50.9371 95.3435 48.5221 97.0685C46.1071 98.7935 45.2521 96.206 45.4246 95.951C45.5971 95.696 48.6121 95.1785 49.8196 91.046C51.0271 86.9135 51.2821 84.071 51.0271 81.146C50.7721 78.221 51.5446 66.506 51.6271 65.9885C51.7096 65.471 50.3371 65.3885 50.5096 65.906L50.5021 65.8985Z" fill="#92400E"/>
<path d="M53.3972 72.8588C53.1647 73.0238 52.8271 73.3088 52.8271 73.6463C52.8271 74.1638 55.8421 78.2063 57.2221 79.1588L57.4772 77.9513C57.4772 77.9513 54.4921 74.1863 54.2671 73.7138C54.1246 73.4213 53.9222 73.1213 53.7797 72.9338C53.6822 72.8063 53.5247 72.7763 53.3972 72.8663V72.8588Z" fill="#92400E"/>
<path d="M63.0723 83.4635C63.1548 83.8085 64.4523 84.581 66.0873 85.271C67.7223 85.961 73.0623 88.1135 75.0423 89.321C77.0223 90.5285 82.2723 94.916 83.2248 95.1785C84.1698 95.4335 83.9973 94.4885 83.9973 94.4885C83.9973 94.4885 80.5548 93.1085 79.3473 91.736C78.1398 90.356 75.5598 88.031 72.0273 86.5685C68.9223 85.2785 63.4998 81.836 63.4173 81.491C63.3348 81.146 63.0723 83.471 63.0723 83.471V83.4635Z" fill="#92400E"/>
<path d="M121.369 42.1312C121.407 42.6487 120.769 55.1362 121.114 58.8337C121.459 62.5387 120.252 73.9912 118.444 77.9512C116.637 81.9112 110.007 90.0037 107.937 91.1287C107.937 91.1287 108.364 89.5762 108.537 89.3212C108.709 89.0662 109.399 85.7062 109.399 85.7062C109.399 85.7062 112.497 82.7812 113.622 80.5387C114.739 78.2962 117.154 71.1562 117.327 68.4862C117.499 65.8162 117.927 54.1087 117.927 51.6112C117.927 49.1137 117.672 44.3812 117.754 43.0837C117.837 41.7862 118.872 41.2762 118.872 42.3937C118.872 43.5112 118.954 50.4862 118.789 52.6387C118.624 54.7912 118.534 64.0012 118.272 65.8987C118.009 67.7962 116.719 77.0062 115.257 79.5862C113.794 82.1662 110.862 85.6987 110.007 86.7337C109.152 87.7687 109.407 88.7137 109.662 88.5412C109.917 88.3687 113.449 84.5812 114.567 83.0287C115.684 81.4762 117.237 77.6887 117.754 75.0187C118.272 72.3487 119.389 65.3737 119.562 62.7937C119.734 60.2137 119.644 45.5737 119.644 45.2287C119.644 45.2287 119.817 42.8212 120.072 42.2137C120.327 41.6062 121.279 41.0062 121.362 42.1312H121.369Z" fill="#92400E"/>
<path d="M116.202 39.1992C116.202 39.1992 117.664 43.5942 118.099 44.5392C118.527 45.4842 120.424 45.4842 120.942 44.7117C121.459 43.9392 121.542 37.3092 123.694 34.6392C125.847 31.9692 126.619 29.3892 125.847 25.6842C125.074 21.9792 124.557 24.3042 123.949 25.7667C123.342 27.2292 120.762 29.1267 118.954 30.2442C117.147 31.3617 114.649 35.3217 116.202 39.1992Z" fill="#92400E"/>
<path d="M62.037 33.9486C62.037 33.9486 63.072 32.8311 64.2795 32.3961C65.487 31.9611 66.9945 32.0061 67.9845 32.3511C68.9745 32.6961 68.9295 33.9411 68.6295 33.7311C68.3295 33.5211 67.857 32.9586 67.212 32.7411C66.567 32.5236 64.887 32.5686 64.587 32.7411C64.287 32.9136 63.252 33.1311 63.297 33.6486C63.342 34.1661 63.7245 34.9836 65.277 34.8111C66.8295 34.6386 67.7745 34.1661 67.902 33.9936C67.9695 33.9111 68.3895 33.5436 68.5695 33.5436C68.7495 33.5436 68.9145 33.6111 68.502 34.1661C68.1345 34.6686 66.9495 35.2011 65.7045 35.2836C64.4595 35.3661 63.6345 35.1111 62.9895 34.8111C62.3445 34.5111 61.782 34.4211 62.0445 33.9486H62.037Z" fill="#92400E"/>
<path d="M62.8996 33.8662C62.8996 33.8662 63.0721 33.3037 64.3171 33.2212C65.5621 33.1387 66.1696 33.6937 66.2521 33.8662C66.3346 34.0387 66.2971 34.4662 65.0446 34.4662C63.7921 34.4662 63.0196 34.3387 62.8921 33.8662H62.8996Z" fill="#92400E"/>
<path d="M61.6091 30.6113C61.4141 31.0238 61.8041 31.4138 62.2541 31.4138C62.9891 31.4138 64.2341 30.9413 64.7066 30.8513C65.1791 30.7613 66.6866 30.8063 67.2041 30.8963C67.7216 30.9863 67.7666 30.8138 67.4591 30.4688C67.1516 30.1238 66.3791 29.5238 65.3066 29.6063C64.4666 29.6738 63.5966 29.7713 62.7791 29.9963C62.4416 30.0863 61.8491 30.2138 61.6391 30.5363C61.6241 30.5588 61.6091 30.5888 61.5941 30.6113H61.6091Z" fill="#92400E"/>
<path d="M53.3896 31.1514C53.3896 31.1514 53.4346 30.0714 52.5721 29.5989C51.7096 29.1264 49.5121 28.2639 48.5671 28.5639C47.6221 28.8639 47.6596 29.2989 48.0046 29.5539C48.3496 29.8089 49.8571 29.8089 50.3746 30.0714C50.8921 30.3339 51.9271 30.4614 52.1821 30.8889C52.4371 31.3164 53.2171 31.4889 53.3896 31.1439V31.1514Z" fill="#92400E"/>
<path d="M52.9092 33.1761C52.9092 33.1761 52.3467 32.1861 50.2842 31.9311C48.2142 31.6761 47.1867 32.1861 47.1417 32.7036C47.0967 33.2211 48.5217 33.9486 49.8117 34.2936C51.1017 34.6386 52.3542 34.6386 52.8717 34.4211C52.8717 34.4211 53.2167 33.6486 52.9167 33.1761H52.9092ZM52.5267 33.8211C52.3617 34.1736 51.9417 34.2711 51.5742 34.2486C50.7567 34.2036 48.3042 33.2586 48.1317 33.0861C47.9592 32.9136 48.3492 32.3136 49.3767 32.3961C50.4117 32.4786 51.5592 32.6286 52.1742 33.0411C52.4067 33.1986 52.6392 33.4161 52.5567 33.7086C52.5492 33.7461 52.5342 33.7836 52.5192 33.8136L52.5267 33.8211Z" fill="#92400E"/>
<path d="M48.1771 32.569C48.3046 32.5165 49.5571 32.3965 50.4196 32.824C51.2821 33.2515 50.7646 33.769 49.4746 33.6415C48.1846 33.514 47.4946 32.869 48.1846 32.5615L48.1771 32.569Z" fill="#92400E"/>
<path d="M62.4269 33.5586C62.4269 33.5586 60.4919 35.0661 59.8019 36.0111C59.1119 36.9561 55.4069 39.8886 54.9794 40.5711C54.5519 41.2536 53.9443 41.7786 53.7343 41.7786C53.5243 41.7786 52.5719 41.9511 52.3994 41.7336C52.2269 41.5161 52.6169 39.8811 52.8719 38.7186C53.1269 37.5561 53.2169 33.9861 53.2169 33.7236C53.2169 33.4611 52.9169 33.1611 52.9169 33.1611C52.9169 33.1611 52.6619 34.3236 52.4894 34.4061C52.3169 34.4886 52.4894 35.6961 52.4894 36.0411C52.4894 36.3861 52.3618 37.1586 52.0993 37.9761C51.8368 38.7936 51.0644 41.3361 51.0644 41.9361C51.0644 42.5361 51.1469 43.1436 51.4094 43.3986C51.6719 43.6536 51.5818 44.7336 51.4543 45.2061C51.3268 45.6786 50.1644 47.0586 49.3469 47.0136L48.5294 46.9686C48.5294 46.9686 48.2744 47.1411 48.6119 47.4861C48.9494 47.8311 49.9919 48.3036 50.8094 47.4861C51.6269 46.6686 52.2269 46.2411 52.2719 46.1061C52.3169 45.9711 52.4443 45.9786 52.6618 46.5786C52.8793 47.1786 53.9969 48.6486 55.2419 48.3411C56.4869 48.0411 56.5769 47.3511 56.5319 47.1786C56.4869 47.0061 56.1044 47.3961 55.8419 47.3511C55.5794 47.3061 53.9893 47.7786 53.5993 46.4061C53.2918 45.3186 53.0818 44.3361 53.3818 43.7811C53.3818 43.7811 54.6269 42.7011 54.8444 42.2736C55.0619 41.8461 56.1794 40.3761 56.7794 39.9486C57.3794 39.5211 59.8394 37.2786 60.1394 36.8061C60.4394 36.3336 61.9019 34.6536 62.4194 34.3986C62.9369 34.1436 62.4194 33.5361 62.4194 33.5361L62.4269 33.5586Z" fill="#92400E"/>
<path d="M53.9895 49.429C53.547 49.429 52.707 49.774 52.527 49.7515C51.837 49.669 51.192 49.1065 51.1095 48.934C51.027 48.7615 50.7645 49.1515 50.8545 49.4515C50.9445 49.7515 51.717 50.269 52.5795 50.269C53.442 50.269 54.1695 50.014 54.2595 49.7065C54.3195 49.4965 54.1995 49.429 53.997 49.429H53.9895Z" fill="#92400E"/>
<path d="M63.0942 33.3037C63.2142 33.2212 64.3617 32.5537 65.5242 32.6812C66.6867 32.8087 67.4517 33.1987 67.8942 33.4762C68.5842 33.9037 68.3217 34.0537 68.0892 34.1437C67.8567 34.2337 67.2492 33.6037 66.7542 33.4312C66.2592 33.2587 65.3742 33.1087 64.8192 33.1912C64.2642 33.2737 63.0342 33.9637 62.9067 33.8587C62.7792 33.7537 62.9067 33.4312 63.1017 33.2962L63.0942 33.3037Z" fill="#92400E"/>
<path d="M77.6297 32.7423C78.0572 33.0798 79.3547 32.4423 80.5547 30.9348C81.7622 29.4273 81.6722 27.5748 80.4722 27.2298C79.2722 26.8848 77.2022 28.2198 76.3847 29.6373C75.5672 31.0548 74.4497 31.8348 74.1047 31.8798C73.7597 31.9248 74.1047 32.6148 74.6672 32.2698C75.2297 31.9248 75.9572 31.4073 76.4297 30.5898C76.9022 29.7723 78.5822 27.9648 79.5722 27.7923C80.2322 27.6798 80.9522 28.6548 80.5622 29.7273C80.1722 30.7998 78.8372 31.9248 77.7197 32.3073C77.7197 32.3073 77.4197 32.5623 77.6372 32.7348L77.6297 32.7423Z" fill="#92400E"/>
<path d="M76.8494 32.1878C76.8494 32.1878 77.7569 32.3153 78.4394 31.3253C79.1219 30.3353 78.9119 29.9453 78.3944 29.9453C77.8769 29.9453 76.8044 31.0253 76.4144 31.2803C76.0244 31.5353 76.2869 32.2253 76.8419 32.1878H76.8494Z" fill="#92400E"/>
<path d="M44.8327 27.192C44.8327 26.9295 44.5477 25.227 43.5952 24.102C42.6427 22.977 40.4227 22.362 39.2227 23.7045C38.0227 25.047 40.7902 28.962 42.5452 28.9395C42.5452 28.9395 43.0852 28.7145 42.3352 28.242C41.5852 27.7695 39.9952 26.4195 39.6727 25.212C39.3427 24.0045 41.3527 23.172 42.3802 24.1695C43.4077 25.167 43.9252 26.4945 44.0602 27.102C44.1952 27.7095 44.8177 27.627 44.8327 27.192Z" fill="#92400E"/>
<path d="M43.7677 28.3996C43.7677 28.3996 44.0077 28.2946 43.8127 27.6421C43.6177 26.9896 42.8977 25.4971 41.8477 25.5721C40.7977 25.6471 41.6452 27.2746 42.1777 27.7396C42.7102 28.2046 43.5202 28.7221 43.7677 28.3921V28.3996Z" fill="#92400E"/>
<path d="M47.5467 62.4784C47.5617 62.7184 47.7792 63.6859 47.0442 64.8109C46.6767 65.3734 44.6367 68.0284 44.5242 69.5434C44.4117 71.0584 45.6567 71.2909 46.4517 70.9759C47.2467 70.6609 47.6817 70.3909 48.2367 69.6484C48.7917 68.9059 50.2317 66.3184 50.9292 66.1534C51.6267 65.9884 51.5442 67.7434 51.9417 68.9209C52.3392 70.0984 53.8542 71.7484 54.8292 71.0059C55.8042 70.2559 55.8192 68.6584 55.9242 67.7959C56.0367 66.9334 56.0142 64.7884 56.4117 64.4209C56.8092 64.0534 56.4492 63.8359 55.9242 63.8134C55.3992 63.7909 55.0317 63.8134 54.9867 64.8709C54.9417 65.9284 55.2342 68.1484 54.9417 69.2584C54.6417 70.3684 53.7717 70.3084 53.5692 69.7234C53.3667 69.1384 52.5567 65.5309 52.4067 64.9534C52.2567 64.3759 51.4092 63.6634 51.0417 64.0384C50.0667 65.0209 49.5342 66.1459 49.2417 66.7834C48.9492 67.4209 47.5467 69.0634 47.1792 69.3784C46.0467 70.3534 45.4392 69.9184 45.6417 69.3784C45.8442 68.8384 47.3592 66.5059 47.7117 65.6434C48.0642 64.7809 48.9267 62.7409 47.9292 62.1034C47.9292 62.1034 47.5092 61.9459 47.5392 62.4859L47.5467 62.4784Z" fill="#92400E"/>
<path d="M63.3868 65.1036C63.4993 65.3736 65.1868 67.5036 67.1668 68.0961C69.1468 68.6886 69.3943 68.4636 69.8368 68.1786C70.2793 67.8936 70.5868 64.2711 69.1993 62.8986C69.1993 62.8986 70.2493 62.7936 70.5268 62.4561C70.5268 62.4561 70.8268 62.0661 70.3093 61.9686C69.7918 61.8711 68.9368 62.3361 68.2918 61.9011C67.6468 61.4661 67.7518 62.0961 68.0143 62.4186C68.2768 62.7411 69.2668 65.2461 68.9968 66.7311C68.7343 68.2086 67.7518 67.4961 67.4218 67.3986C67.0918 67.3011 64.4218 65.0061 64.1443 64.7361C63.8668 64.4661 63.1993 64.6911 63.3718 65.1036H63.3868Z" fill="#92400E"/>
<path d="M77.1119 48.2137C77.2319 48.3787 79.4069 50.6212 80.7869 50.9662C82.1669 51.3112 82.7369 51.1988 82.6844 50.0513C82.6244 48.9038 80.9594 46.3762 79.9844 46.0312C79.9844 46.0312 79.0694 46.3162 79.6394 46.8337C80.2094 47.3512 81.7094 49.4137 81.5369 49.9312C81.3644 50.4487 80.3294 50.0437 79.8119 49.5262C79.2944 49.0087 78.2594 47.8612 77.8019 47.6287C77.3444 47.3962 76.8269 47.8012 77.1119 48.2062V48.2137Z" fill="#92400E"/>
<path d="M77.8016 18.3637C77.7416 18.0037 78.6491 14.3362 79.5341 13.4212C80.4191 12.5062 81.1016 12.2587 81.7541 12.9862C82.4066 13.7137 82.6316 15.2137 82.0917 16.0087C81.5517 16.8037 81.1241 18.3037 81.7616 17.4412C82.3991 16.5787 83.8467 14.7037 85.7892 13.8337C87.7317 12.9637 88.0617 14.6737 87.8517 15.4237C87.6417 16.1737 87.0941 17.3362 85.8941 18.1312C84.6941 18.9262 83.1116 20.2537 83.5766 20.1037C84.0416 19.9537 85.9616 18.9562 86.5616 18.7012C87.1616 18.4462 88.2791 18.0037 89.2616 19.7137C90.2441 21.4237 88.3842 22.3087 87.7467 22.5187C87.1092 22.7287 85.0691 23.0212 84.2066 23.4037C83.3441 23.7937 82.4667 24.9937 82.8941 25.5337C83.3216 26.0737 82.4516 26.1787 82.2116 25.4137C81.9716 24.6487 82.2416 23.7787 82.8191 23.4037C83.3966 23.0287 84.5217 22.1362 85.1217 21.8812C85.7217 21.6262 87.8741 21.1012 87.9266 20.6212C87.9791 20.1412 87.6641 19.7287 86.5316 20.3362C85.3991 20.9362 83.7491 22.0912 82.9166 22.2337C82.0841 22.3837 81.4541 21.5887 81.8141 20.8387C82.0916 20.2537 82.5341 19.6162 83.5166 18.9112C84.4991 18.2062 86.3816 15.7762 86.0366 15.2437C85.6916 14.7112 84.8516 15.5962 84.4316 15.9937C84.0116 16.3912 81.5891 18.9637 81.1316 19.3237C80.6816 19.6762 79.5717 19.3837 79.6542 18.6562C79.7366 17.9287 80.9066 15.9262 81.2216 14.9362C81.5441 13.9537 81.0791 13.4737 80.3591 13.6762C79.6391 13.8787 79.0991 15.7987 79.0091 16.2862C78.8666 17.0887 78.6866 18.6487 78.5516 18.7537C78.2741 18.9712 77.9292 19.0612 77.8092 18.3562L77.8016 18.3637Z" fill="#92400E"/>
<path d="M48.6945 57.3941C48.7545 57.6191 48.522 58.4667 48.4845 59.2617C48.447 60.0567 47.757 60.9491 46.992 61.0091C46.227 61.0691 45.147 59.0742 44.952 57.5442C44.757 56.0142 44.817 54.5366 44.517 54.4466C44.217 54.3566 44.0745 54.1766 43.4445 55.3616C42.8145 56.5466 41.2395 58.5866 40.6095 58.4666C39.9795 58.3466 39.4995 57.4616 39.417 56.1641C39.3345 54.8666 40.1745 53.7791 40.647 52.9766C41.1195 52.1741 41.457 50.9892 40.737 51.7392C40.017 52.4892 37.812 54.4842 36.9195 54.2292C36.027 53.9742 35.532 53.2992 35.712 51.8442C35.892 50.3892 37.5645 49.0692 38.4795 48.8292C39.3945 48.5892 41.082 48.0867 41.1345 48.7767C41.1795 49.4667 39.387 49.1142 38.187 49.9092C36.177 51.2292 36.357 52.4142 36.702 52.9017C37.047 53.3892 38.877 52.0992 39.507 51.5742C40.137 51.0492 41.667 49.7742 42.1095 50.3367C42.552 50.8992 42.1845 51.9191 41.6895 52.8416C41.1945 53.7641 39.8445 55.6992 40.1445 56.4417C40.4445 57.1842 40.842 57.7017 41.4045 56.9217C42.837 54.9117 43.857 53.7342 44.157 53.5317C44.457 53.3292 45.237 53.7041 45.447 54.3716C45.657 55.0391 45.4245 58.8117 46.6845 59.5542C47.2845 59.9067 47.592 58.8867 47.6595 57.9492C47.8545 55.3317 48.0795 55.6167 48.477 55.6767C48.9495 55.7442 48.462 56.5392 48.6945 57.4017V57.3941Z" fill="#92400E"/>
<path d="M75.8966 54.671C76.3316 54.371 77.2766 54.4385 79.0991 55.391C80.9141 56.3435 81.3866 57.731 80.9741 58.2935C80.5616 58.856 78.0116 57.9785 77.4866 58.0985C76.9616 58.2185 77.4041 58.3385 78.0866 59.036C78.7691 59.7335 79.1291 60.3485 78.1841 61.3535C77.2391 62.3585 74.2841 61.6385 72.7916 60.611C71.2991 59.5835 70.8641 58.721 71.2766 58.076C71.6891 57.431 72.0866 58.331 72.1616 58.8185C72.2366 59.306 74.5766 61.0385 75.9941 61.1735C77.4116 61.3085 78.1916 60.3035 77.6741 59.771C77.1566 59.2385 75.5816 58.286 75.0491 58.0835C74.5166 57.881 74.4941 57.101 75.3041 57.0335C76.1141 56.966 78.8291 57.6785 79.3991 57.6035C79.9691 57.5285 79.5641 57.281 79.1216 56.831L78.6791 56.381C78.6791 56.381 76.4966 55.3835 76.0541 55.3385C75.6116 55.2935 75.6116 54.8885 75.8966 54.686V54.671Z" fill="#92400E"/>
<path d="M87.4995 28.6089C87.732 28.1514 89.5095 27.3489 90.8895 26.7714C92.2695 26.1939 93.012 26.2539 93.417 26.5989C93.822 26.9439 93.417 29.2989 92.6145 29.8164C91.812 30.3339 91.122 30.8514 90.8895 30.8514C90.657 30.8514 92.727 31.2564 93.297 31.8264C93.867 32.3964 93.1845 33.7239 92.7795 33.8964C92.3745 34.0689 90.4845 34.5264 90.027 34.5264C89.5695 34.5264 91.632 36.0789 91.752 36.5364C91.872 36.9939 91.2945 36.9414 90.9495 36.6489C90.6045 36.3564 88.3095 34.8714 87.732 34.5264C87.1545 34.1814 87.042 33.8964 87.447 33.6114C87.852 33.3264 91.467 33.1539 91.752 32.7489C92.037 32.3439 92.2095 32.2314 91.467 31.9989C90.7245 31.7664 88.2495 32.1714 87.9045 31.9389C87.5595 31.7064 87.6195 31.0764 87.8445 30.8514C88.0695 30.6264 88.647 30.4464 89.052 30.1014C89.457 29.7564 91.2945 29.1264 91.5795 28.7214C91.8645 28.3164 91.6395 28.0914 90.777 28.3164C89.9145 28.5489 89.172 28.7214 88.422 28.8939C87.672 29.0664 87.3345 28.9539 87.507 28.6089H87.4995Z" fill="#92400E"/>
<path d="M86.6223 38.9058C87.0648 38.5458 89.0598 38.5457 90.5823 38.5907C92.1048 38.6357 93.7173 39.0933 94.1973 39.3708C94.8273 39.7458 95.4423 41.9133 90.5598 42.4308C89.5698 42.5358 88.6998 42.7983 88.4973 42.6933C88.2948 42.5883 90.8523 44.3508 91.3623 45.0558C92.0598 46.0308 91.8123 47.7558 88.7823 47.1258C88.3473 47.0358 86.2623 46.2183 85.8573 46.0083C85.4523 45.7983 86.4948 48.2958 86.3673 48.8133C86.2398 49.3308 85.7523 49.0083 85.5948 48.5658C85.4373 48.1233 84.1548 45.5733 83.8173 44.9733C83.4798 44.3733 83.5248 44.0283 84.0348 43.9158C84.5448 43.8033 87.9573 45.5583 88.4898 45.5733C89.0973 45.5883 89.6523 45.1008 88.4373 44.1108C87.8223 43.6158 85.4823 42.8283 85.2948 42.4383C85.1073 42.0483 85.4823 41.4408 85.8048 41.3133C86.7048 40.9608 87.8373 41.0358 88.7973 41.0282C89.2173 41.0282 90.7848 40.9307 91.1673 40.7057C91.6323 40.4282 90.5973 40.2558 89.7123 40.0983C88.8273 39.9408 88.0773 39.7758 87.3198 39.6108C86.5623 39.4458 86.3148 39.1758 86.6448 38.9058H86.6223Z" fill="#92400E"/>
<path d="M35.3449 41.1783C35.3449 41.1783 30.0949 41.8683 27.4249 44.1033C24.7549 46.3458 24.9274 48.5808 26.1349 48.4083C27.3424 48.2358 30.6124 47.2907 31.2124 46.9457C31.8124 46.6007 28.8049 48.5808 27.8524 50.9058C26.9074 53.2308 29.0599 52.7132 30.7774 51.7682C32.5024 50.8232 35.5999 49.6982 35.8549 49.5258C36.1099 49.3533 35.7724 48.2358 34.5649 49.0983C33.3574 49.9608 28.9699 51.9407 28.7074 51.7682C28.4449 51.5957 28.2799 50.2157 30.6049 48.5807C32.9299 46.9457 33.9649 45.5658 33.1849 45.3108C32.4049 45.0558 29.1349 47.3808 27.3274 47.5533C25.5199 47.7258 26.8999 45.4007 29.3074 44.1107C31.7149 42.8207 35.0749 42.4757 35.3374 42.1307C35.5999 41.7857 36.0274 41.0958 35.3374 41.1858L35.3449 41.1783Z" fill="#92400E"/>
<path d="M32.8244 37.2787C32.8244 37.2787 30.2369 38.6887 28.1744 38.8312C25.2194 39.0337 24.4169 36.7912 25.3619 35.2462C26.3069 33.6937 30.8745 33.6937 31.4745 33.6937C32.0745 33.6937 29.8394 33.0937 28.2044 32.9212C26.5694 32.7487 25.2794 31.0237 27.2594 30.0787C29.2394 29.1337 33.8894 27.8362 36.5594 29.5612C36.5594 29.5612 37.3319 30.5962 36.4769 30.5962C35.6219 30.5962 34.5794 29.6512 33.1169 29.6512C31.6544 29.6512 27.9495 29.9962 27.777 30.7687C27.6044 31.5412 28.2044 32.1487 30.4469 32.4037C32.6894 32.6587 33.9795 33.5212 34.1519 34.1287C34.3244 34.7362 33.7244 34.6462 33.1169 34.6462C32.5094 34.6462 28.5569 34.1287 27.0044 35.2462C25.4519 36.3637 26.1419 37.3987 28.2944 37.1437C30.4469 36.8887 31.9995 35.9362 32.427 35.8537C32.8545 35.7712 33.4319 36.7687 32.8319 37.2862L32.8244 37.2787Z" fill="#92400E"/>
<path d="M34.7446 54.2742C34.4896 54.3117 30.8671 56.9442 30.3496 58.4067C29.8321 59.8692 30.3496 61.5942 32.5021 60.8142C34.6546 60.0342 35.6896 59.4342 35.5171 59.9517C35.3446 60.4692 34.7446 64.9467 35.6896 64.9467C36.6346 64.9467 39.3046 62.6217 39.9121 62.2767C40.5196 61.9317 39.7396 61.0692 38.7946 61.5042C37.8496 61.9317 36.2971 64.2567 36.1246 63.8292C35.9521 63.4017 35.7796 60.7317 36.8146 59.1792C37.8496 57.6267 36.5596 58.1442 36.1246 58.4067C35.6896 58.6692 31.7296 60.4767 31.1296 60.1317C30.5296 59.7867 31.1296 57.4617 33.1996 56.1717C35.2696 54.8817 35.3521 54.1917 34.7521 54.2742H34.7446Z" fill="#92400E"/>
<path d="M62.8546 56.9967C62.8546 56.9967 64.8196 58.7442 65.1571 61.0692C65.3371 62.2992 63.8671 63.5817 62.4121 63.3042C60.9571 63.0267 60.3871 60.3492 60.3121 59.9967C60.2371 59.6442 60.0046 61.0692 60.0571 62.0592C60.1096 63.0492 58.4671 64.2942 57.4021 63.3042C56.3371 62.3142 55.5046 60.4392 56.3896 58.0542C56.3896 58.0542 56.9146 57.1317 57.0196 57.6342C57.1246 58.1367 56.8396 58.9992 56.9296 59.9067C57.0196 60.8142 57.5821 62.7567 58.2646 62.7117C58.9546 62.6667 59.3896 62.2017 59.3296 60.8442C59.2696 59.4792 59.8471 58.5642 60.3421 58.3542C60.8371 58.1442 60.8371 58.5117 60.9121 58.8642C60.9871 59.2167 61.0471 61.6392 62.2021 62.3442C63.3571 63.0492 64.4221 62.1492 64.1146 60.8742C63.5521 58.5267 62.3296 57.4767 62.2021 57.2367C62.0746 56.9967 62.3296 56.7342 62.8471 56.9892L62.8546 56.9967Z" fill="#92400E"/>
<path d="M62.2089 57.2439C62.6664 57.7539 67.1289 60.3189 68.4339 58.2114C69.3939 56.6664 68.0814 55.3014 67.4589 54.7539C67.2339 54.5589 66.3339 54.5589 67.0314 55.2864C68.0664 56.3664 68.1264 58.0089 67.0164 58.0614C65.9064 58.1139 63.3864 56.7939 62.9289 56.3439C62.4714 55.8939 61.6539 56.6214 62.2089 57.2439Z" fill="#92400E"/>
<path d="M43.595 64.6015C43.5275 64.819 42.4175 66.544 41.015 67.009C39.6125 67.474 39.4175 67.294 39.08 67.054C38.7425 66.814 38.3225 63.859 39.2525 62.749C39.2525 62.749 38.4875 62.6515 38.2625 62.3815C38.2625 62.3815 38.0225 62.059 38.39 61.9915C38.7575 61.924 39.4025 62.3065 39.8525 61.954C40.3025 61.6015 40.2575 62.119 40.0775 62.3815C39.8975 62.644 39.3275 64.684 39.5975 65.8915C39.8675 67.099 40.5425 66.529 40.7825 66.4465C41.0225 66.364 42.83 64.519 43.0175 64.3015C43.205 64.084 43.7 64.2715 43.595 64.609V64.6015Z" fill="#92400E"/>
<path d="M48.057 55.9987C48.027 56.4787 48.507 60.1762 50.577 59.5462C52.317 59.0137 52.302 56.9062 51.837 57.1912C51.3795 57.4762 50.9745 58.5862 50.4045 58.6237C48.7695 58.7362 48.9945 56.4562 48.762 56.0512C48.5295 55.6462 48.087 55.4737 48.057 55.9912V55.9987Z" fill="#92400E"/>
<path d="M55.9025 11.3063C55.7825 11.1038 54.545 8.85377 54.0575 7.51877C53.5775 6.18377 54.3575 5.32877 55.0475 5.29127C55.6175 5.25377 56.045 5.69627 56.6975 6.39377C57.35 7.09127 58.0175 8.98127 58.0625 8.38127C58.1075 7.78127 58.085 4.63127 59.3075 4.66877C60.02 4.69127 60.5975 7.06127 60.83 7.64627C61.0625 8.23127 61.1375 7.27877 61.28 6.45377C61.385 5.80127 61.94 4.24877 63.0575 4.36127C63.4925 4.40627 63.7475 4.69127 64.025 5.82377C64.1675 6.43127 64.3625 7.83377 64.1975 8.43377C64.0325 9.03377 63.425 9.22877 63.335 8.77127C63.245 8.31377 63.545 6.55127 63.23 5.84627C62.915 5.14127 62.6525 5.44127 62.3075 6.19877C61.9625 6.95627 61.3775 9.25877 61.37 9.83627C61.3625 10.4138 61.2125 10.4513 60.935 10.3088C60.56 10.1213 60.2975 8.85377 60.11 7.99877C59.9225 7.14377 59.78 5.95877 59.3 5.97377C58.82 5.98877 58.9025 7.92377 58.865 8.91377C58.79 10.6238 58.5725 11.1713 58.1375 10.5638C57.8975 10.2338 56.75 7.78127 56.3075 7.10627C55.67 6.14627 55.3925 5.88377 54.98 6.10127C54.3575 6.41627 55.0775 8.48627 55.55 9.27377C56.0225 10.0613 56.7875 10.8563 56.6075 11.2088C56.4275 11.5613 56.135 11.7188 55.895 11.2988L55.9025 11.3063Z" fill="#92400E"/>
<path d="M37.5119 14.9664C36.2969 15.7089 36.6719 18.2664 36.9419 19.3764C37.2119 20.4864 36.4094 19.3314 35.1044 19.0764C33.7994 18.8214 33.3419 19.2714 33.2519 20.1789C33.1619 21.0864 34.2194 22.8789 34.5269 23.2239C34.8344 23.5689 32.1269 21.7614 30.6569 21.9864C29.1869 22.2114 29.1794 23.6964 29.5169 25.1814C29.8544 26.6664 32.0444 29.0739 33.8069 29.2164C37.3694 29.5014 35.4269 29.0664 34.8944 28.9014C34.3619 28.7364 32.4419 28.2639 31.5794 26.8314C30.7094 25.3989 30.1619 23.7789 30.7619 23.2764C31.3919 22.7439 33.4169 23.2389 34.1444 23.9589C34.8719 24.6864 36.2444 25.0689 36.4769 24.9639C36.7094 24.8589 36.7469 24.2739 35.9669 23.6439C35.1869 23.0139 34.1894 21.4614 34.1669 20.5764C34.1444 19.6914 34.8419 19.3164 35.4644 19.6539C36.0869 19.9914 37.3619 21.1614 37.7444 21.9864C38.1269 22.8114 38.6969 22.4139 38.6894 21.9564C38.6819 21.4989 37.4894 16.8114 37.9244 16.1514C38.5094 15.2664 39.1844 15.6339 40.1444 16.1514C40.3544 16.2639 40.8119 15.7539 40.8494 15.7239C41.1719 15.4314 38.7494 14.2164 37.5344 14.9664H37.5119Z" fill="#92400E"/>
<path d="M67.9248 10.1803C67.9248 10.1803 68.3598 7.58533 70.1448 6.05533C71.0898 5.24533 72.9573 5.81533 73.4973 7.18783C74.0373 8.56033 72.0723 10.4728 71.8173 10.7278C71.5623 10.9828 72.8898 10.4203 73.6998 9.84283C74.5098 9.26533 76.4373 10.0003 76.1673 11.4253C75.8973 12.8503 74.7498 14.5528 72.2598 15.0778C72.2598 15.0778 71.2023 15.1303 71.5698 14.7703C71.9373 14.4103 72.8223 14.1928 73.5423 13.6378C74.2398 13.0978 75.6048 11.5678 75.2073 11.0128C74.8098 10.4578 74.1798 10.3303 73.0548 11.1028C71.9298 11.8828 70.8498 11.8828 70.4073 11.5753C69.9648 11.2678 70.2798 11.0728 70.5348 10.8178C70.7898 10.5628 72.8148 9.22783 72.7998 7.87033C72.7848 6.51283 71.4573 6.09283 70.5348 7.03033C68.8473 8.75533 68.6073 10.3528 68.4723 10.5853C68.3373 10.8178 67.9773 10.7503 67.9248 10.1728V10.1803Z" fill="#92400E"/>
<path d="M68.4722 10.6009C68.6597 9.94089 68.4572 4.80339 65.9822 4.81839C64.1597 4.83339 63.7022 6.67089 63.5747 7.48089C63.5297 7.77339 64.0097 8.53839 64.2497 7.56339C64.6097 6.11589 65.9672 5.18589 66.6047 6.09339C67.2422 7.00089 67.4672 9.84339 67.3247 10.4659C67.1822 11.0884 68.2397 11.4034 68.4722 10.5934V10.6009Z" fill="#92400E"/>
<path d="M52.1822 13.3688C52.6622 12.9788 52.5722 11.9513 52.3097 10.3988C52.0547 8.8688 51.4022 8.4713 50.8922 8.1563C50.2622 7.7738 48.1247 6.9338 46.5197 11.7488C46.1972 12.7238 45.7322 13.5563 45.7997 13.7813C45.8672 14.0063 44.5172 11.1938 43.8722 10.5938C42.9722 9.7613 41.0597 9.7688 41.0972 12.8888C41.0972 13.3388 41.5397 15.5363 41.6747 15.9713C41.8097 16.4063 39.6572 14.1488 37.8572 14.8163C37.3097 15.0188 37.8572 15.7238 38.6072 15.6638C40.1597 15.5438 41.7797 17.7413 42.3647 18.1613C42.9497 18.5813 43.3247 18.5813 43.5497 18.0938C43.7747 17.6063 42.2822 16.1513 42.3947 12.5738C42.4247 11.5988 43.2497 11.1338 44.0522 12.4838C44.4572 13.1663 45.3272 16.6538 45.7022 16.8938C46.0772 17.1338 46.2047 17.0813 46.4522 16.8113C46.6997 16.5413 46.6997 14.7488 46.9097 13.7963C47.0072 13.3763 47.3297 10.9988 48.4772 10.0388C49.4447 9.2288 51.5747 8.1413 51.6947 10.9088C51.7397 11.8988 51.5147 12.4088 51.4772 12.8438C51.4172 13.6163 51.8522 13.6538 52.2122 13.3613L52.1822 13.3688Z" fill="#92400E"/>
<path d="M72.2368 48.9711C72.2668 49.2336 72.8068 50.8761 73.9018 51.8511C74.9968 52.8261 77.2918 53.1111 78.2818 51.6186C79.2718 50.1186 75.9718 46.6386 74.2318 46.9161C74.2318 46.9161 73.7368 47.2161 74.5393 47.5761C75.3493 47.9361 77.1193 49.0461 77.6143 50.1936C78.1093 51.3411 76.2493 52.4511 75.0868 51.6111C73.9243 50.7711 73.2268 49.5336 73.0018 48.9486C72.7768 48.3636 72.1768 48.5436 72.2293 48.9711H72.2368Z" fill="#92400E"/>
<path d="M78.7773 91.6836C78.7773 91.6836 77.9598 93.3036 76.4223 94.5561C74.8023 95.8686 72.1698 97.1736 70.6023 98.2236C70.6023 98.2236 69.1173 98.8761 70.4823 99.4086C71.2623 99.7161 75.9123 99.4461 77.3448 99.0636C78.5673 98.7336 79.7148 98.0886 79.7148 98.0886C79.7148 98.0886 81.3723 97.4211 78.5673 97.9161L73.0098 98.6586C73.0098 98.6586 71.2098 98.7336 72.2748 98.0661C73.1223 97.5336 76.4523 96.1761 77.5473 95.1636C79.4973 93.3561 80.0748 92.8686 80.0748 92.8686L78.7848 91.6911L78.7773 91.6836Z" fill="#92400E"/>
</svg>
