<svg width="134" height="111" viewBox="0 0 134 111" fill="none" xmlns="http://www.w3.org/2000/svg">
<path d="M56.4454 30.1427C56.3404 30.3077 56.2279 35.9403 54.5329 38.5128C52.8379 41.0853 51.2479 41.0253 50.8129 40.9728C50.8129 40.9728 49.9954 42.9452 49.8304 44.0327C49.6654 45.1202 48.8854 48.1577 48.6304 50.3777C48.4129 52.2377 48.5779 52.5677 45.9529 55.4102C45.9529 55.4102 43.8754 57.1577 44.0929 59.0177C44.3104 60.8777 44.6929 63.6452 44.6929 65.4677C44.6929 68.6402 43.1629 70.3877 44.6404 71.9777C44.6404 71.9777 45.5179 73.7852 47.0479 74.4377C48.5779 75.0902 50.0554 75.2552 51.1504 74.3252C52.2454 73.3953 54.7579 71.8127 56.8954 71.5877C59.0254 71.3702 59.8504 71.5877 59.8504 71.5877C59.8504 71.5877 60.5104 71.7002 60.2854 71.3702C60.0604 71.0402 58.1104 70.5377 56.5129 70.9877C53.6179 71.8052 50.0029 74.2127 49.1329 73.8827C49.1329 73.8827 46.4554 73.0652 45.9079 71.6402C45.3604 70.2152 45.1429 68.6327 45.7429 66.0602C46.3429 63.4877 46.0129 63.0527 45.6304 61.7927C45.2479 60.5327 44.3179 58.0202 46.8904 55.2302C49.4629 52.4402 49.4629 50.7452 49.7329 49.4852C50.0029 48.2252 51.3754 42.7577 51.4279 42.1052C51.4804 41.4527 53.2354 41.0628 53.8879 40.5753C54.5404 40.0878 55.7479 38.4977 56.4004 35.8202C57.0604 33.1427 57.1129 30.9002 57.2179 30.3527C57.3229 29.8052 56.8354 29.5352 56.4529 30.1352L56.4454 30.1427Z" fill="#92400E"/>
<path d="M46.545 67.1622C46.545 67.1622 47.4225 68.0397 47.97 68.8047C48.5175 69.5697 49.1701 70.7172 49.7176 71.8122C50.265 72.9072 51.525 74.8722 52.9425 75.9147C54.3675 76.9572 57.7575 78.1047 59.7825 77.8872C61.8075 77.6697 65.145 78.1047 66.2925 78.8172C67.44 79.5297 67.4925 80.2947 67.4925 80.9472V81.6072L66.2925 82.3197C66.2925 82.3197 66.675 80.0772 65.9625 79.5822C65.25 79.0872 62.535 78.7647 61.3125 78.7647C60.3075 78.7647 59.385 79.1247 58.41 79.2372C57.2475 79.3722 55.9125 79.1247 54.8175 78.7347C54.2325 78.5247 53.6625 78.2322 53.1825 77.8272C52.68 77.3997 52.35 76.7922 51.7875 76.4322C51.06 75.9597 50.1375 75.5097 49.7775 74.6697C49.2825 73.5222 47.9175 71.6622 47.1 70.1847L46.2825 68.7072C46.2825 68.7072 45.6225 67.0647 45.5175 66.6297C45.4125 66.1947 45.63 65.3172 45.6825 65.6997C45.735 66.0822 46.1775 66.8997 46.56 67.1772L46.545 67.1622Z" fill="#92400E"/>
<path d="M59.2351 34.515C59.2351 34.515 57.9226 37.905 56.8801 39.0525C55.8376 40.2 53.3776 41.3475 51.9601 41.5125C50.5351 41.6775 52.7776 40.9125 53.0026 40.695C53.2276 40.4775 55.5151 39.6525 56.5576 38.07C57.6001 36.4875 58.6876 33.8025 58.6876 33.8025C58.6876 33.8025 59.1826 33.5325 59.2351 34.515Z" fill="#92400E"/>
<path d="M71.1073 79.6875C71.1073 79.6875 64.1623 83.19 62.1373 85.755C60.1123 88.32 56.3923 92.9775 56.0098 93.795C56.0098 93.795 56.0623 94.23 56.7748 94.1775C57.4873 94.125 57.8698 94.3425 57.8698 94.3425C57.8698 94.3425 60.3298 87.5625 64.9273 84.2775C69.5248 80.9925 71.3248 80.3925 71.5423 80.175C71.7598 79.9575 71.7598 79.4625 71.1073 79.68V79.6875Z" fill="#92400E"/>
<path d="M83.3558 82.8603C83.5208 82.6428 85.0508 80.8878 85.7108 80.2878C86.3708 79.6878 87.4808 78.7053 87.6833 77.6628C87.7958 77.0628 87.7508 76.4553 87.7358 75.8553C87.7283 75.2853 87.8708 74.8578 87.7958 74.3103C87.7133 73.7103 87.1658 73.0203 86.4758 72.6378C86.4758 72.6378 82.1558 70.1778 81.0608 69.6303C79.9658 69.0828 72.9083 65.3103 70.3958 65.0928C70.3958 65.0928 69.8483 65.3103 70.6133 65.7528C71.3783 66.1878 78.7058 69.3078 79.8008 70.0203C80.8958 70.7328 84.9383 72.9153 85.4858 73.5753C86.0333 74.2353 86.1983 75.0528 86.1983 76.0878C86.1983 77.1228 86.0333 78.3303 85.4333 79.2078C84.8333 80.0853 82.8083 82.3278 82.6433 82.6503C82.4783 82.9728 82.4258 83.3628 82.8608 83.2503C83.2958 83.1378 83.3558 82.8678 83.3558 82.8678V82.8603Z" fill="#92400E"/>
<path d="M69.7951 88.9355C69.9076 88.688 70.6126 88.6055 72.2026 88.883C73.7851 89.153 78.1126 90.743 82.2676 88.448C86.4226 86.153 89.8726 84.0155 94.4626 84.5105C94.4626 84.5105 95.0101 84.9455 93.9151 85.058C92.8201 85.1705 91.2376 84.6755 88.9951 85.8755C86.7526 87.0755 83.2801 89.7905 79.6951 90.308C76.6351 90.743 73.7326 90.3605 71.3251 89.7605C71.3251 89.7605 69.5776 89.4305 69.7951 88.943V88.9355Z" fill="#92400E"/>
<path d="M64.0502 90.0295C64.2302 89.8945 65.4152 89.0995 67.2752 89.482C69.1352 89.8645 72.0302 93.202 76.4627 92.767C81.5327 92.2645 82.5902 91.2895 82.6952 91.237C82.6952 91.237 83.0777 90.907 83.2952 91.567C83.5126 92.227 78.4802 93.697 76.2377 93.6445C73.9952 93.592 71.5352 92.662 67.9277 90.907C67.9277 90.907 66.9452 90.1945 65.2502 90.577C63.5552 90.9595 63.4427 90.4645 64.0502 90.0295Z" fill="#92400E"/>
<path d="M60.8772 28.5C61.0422 28.5525 64.2672 30.69 65.6322 32.2725C67.6572 34.6275 71.9772 36.3225 73.9422 38.6175C73.9422 38.6175 76.6197 40.7475 76.8972 41.19C77.1747 41.6325 77.5046 45.4125 75.4196 46.605C73.8896 47.4825 72.4646 46.8225 72.4646 46.8225C72.4646 46.8225 72.6297 46.3275 73.2822 46.3275C73.9347 46.3275 75.5771 45.45 75.7421 44.3025C75.9071 43.155 76.3422 42.06 75.0297 40.695C74.4897 40.1325 71.5272 38.34 70.4322 36.87C69.3372 35.3925 65.5646 33.81 64.6346 32.715C63.7046 31.62 60.9146 29.8725 60.7496 29.5425C60.5846 29.2125 60.8622 28.5 60.8622 28.5H60.8772Z" fill="#92400E"/>
<path d="M62.3553 33.3674C62.3553 33.3674 62.6253 33.0374 63.0678 33.9674C63.5103 34.8974 64.8753 39.2174 68.6478 41.7299C68.6478 41.7299 69.1428 42.1124 68.5353 42.2249C67.9278 42.3374 64.7628 40.3649 63.4503 36.6449C62.1378 32.9249 62.3553 33.3599 62.3553 33.3599V33.3674Z" fill="#92400E"/>
<path d="M57.3757 40.9354C56.9482 42.4129 57.6683 44.1454 59.1833 44.9554C60.6983 45.7654 63.2332 45.4504 64.5382 44.4904C64.5382 44.4904 65.0333 43.5904 64.1033 43.8754C63.0083 44.2054 61.1557 45.6604 59.2882 44.1604C58.8007 43.7704 58.3582 43.2604 58.1407 42.0754C58.0807 41.7454 58.4107 40.7854 58.1782 40.5379C57.7732 40.1104 57.4957 40.5229 57.3757 40.9429V40.9354Z" fill="#92400E"/>
<path d="M61.3723 29.6478C61.0423 27.6753 57.3223 25.2753 56.3398 27.8403C56.3398 27.8403 55.2973 29.7528 57.7648 31.6128C59.9023 33.2253 61.7023 31.6128 61.3723 29.6403V29.6478ZM58.8523 31.1253C57.5398 30.8553 57.3223 28.3878 57.3223 28.2303C57.3223 27.3528 58.0873 27.2478 59.2348 27.9003C60.3823 28.5528 60.1648 31.4028 58.8523 31.1253Z" fill="#92400E"/>
<path d="M73.4551 47.0401C73.4551 47.2576 72.7427 48.4651 72.6377 49.1176C72.5327 49.7701 72.1426 51.5776 72.1426 51.7951C72.1426 52.0126 72.9601 54.0376 75.2026 54.0901C77.4451 54.1426 79.4702 53.9776 81.2702 54.9676C83.0702 55.9576 85.3201 57.8626 86.6326 57.6451C87.9451 57.4276 89.3102 57.6451 90.4577 58.1401C90.4577 58.1401 91.1176 58.3576 91.6051 59.4526C92.0926 60.5476 92.4827 60.9826 94.0652 61.5301C95.6477 62.0776 98.4377 63.6076 99.6452 64.1026C100.845 64.5976 101.288 65.5276 102.218 69.4651C103.148 73.4026 105.398 81.6376 106.373 84.1801C107.573 87.3001 108.563 90.0301 108.563 90.0301C108.563 90.0301 108.78 90.4126 107.903 90.3001C107.025 90.1876 105.008 89.2576 99.8101 90.3526C94.6126 91.4476 83.5126 95.5501 79.7401 97.3501C75.9676 99.1576 71.7527 100.47 67.7627 99.5401C63.7727 98.6101 58.9576 94.5076 57.8626 94.3426C56.7676 94.1776 57.8626 93.4126 57.8626 93.4126C57.8626 93.4126 59.3401 93.8476 61.4176 95.4901C63.4951 97.1326 68.9626 99.8626 73.6126 98.6101C78.2626 97.3501 83.0176 94.5076 88.3801 92.7601C91.1476 91.8526 93.8851 90.8326 96.7126 90.1126C98.2276 89.7301 99.7576 89.4226 101.31 89.2351C103.328 88.9876 105.075 88.9501 107.085 89.2051C107.085 89.2051 106.815 88.3276 106.485 87.4576C106.155 86.5876 103.2 78.8176 102.66 76.2976C102.113 73.7851 99.7651 67.4926 99.4351 66.5101C99.1051 65.5276 99.3226 64.6501 97.8526 63.9376C96.3826 63.2251 92.4376 61.7476 91.8376 61.5826C91.2376 61.4176 91.2901 59.7751 89.2651 59.1226C87.2401 58.4626 83.7976 59.5051 81.2776 59.3926C78.7651 59.2801 73.0726 56.8801 71.4901 56.9851C69.9076 57.0901 66.2926 56.5501 65.8051 55.8901C65.3176 55.2301 66.1876 55.6726 67.8826 55.8901C69.5776 56.1076 73.8976 56.1076 75.0451 56.4901C76.1926 56.8726 79.3126 57.9676 81.4951 57.8551C83.6777 57.7426 84.3901 57.6901 84.3901 57.6901C84.3901 57.6901 83.8951 57.1951 82.9651 56.9251C82.0351 56.6551 78.7576 55.1776 76.7851 55.2826C74.8126 55.3951 72.6826 54.3526 72.1351 53.7001C71.5876 53.0401 71.2051 51.5101 71.2576 50.8576C71.3101 50.2051 72.1352 48.3451 72.4577 47.8501C72.7877 47.3551 73.0577 46.8076 73.0577 46.8076L73.4402 47.0251L73.4551 47.0401Z" fill="#92400E"/>
<path d="M62.4076 53.2203C62.5426 53.3928 63.6676 54.0978 64.7026 54.1503C65.7376 54.2028 68.0401 54.1503 68.9101 53.6553C69.7876 53.1603 71.4226 52.1778 71.5876 51.6303C71.7526 51.0828 71.3176 51.0828 70.6576 51.5778C69.9976 52.0728 68.5801 53.3853 67.7026 53.4378C66.8251 53.4903 65.2426 53.7078 64.5301 53.7078C63.8176 53.7078 61.9051 52.6128 62.4001 53.2128L62.4076 53.2203Z" fill="#92400E"/>
<path d="M68.865 59.123C68.79 58.9805 67.1175 57.6455 65.5275 57.593C63.945 57.5405 60.495 57.593 59.4 56.993C58.305 56.393 55.7325 54.368 55.41 54.1505C55.0875 53.933 54.6976 54.203 55.9576 55.4105C57.2176 56.6105 58.365 57.653 59.625 57.7055C60.885 57.758 64.9275 57.818 66.1875 58.253C67.4475 58.688 69.195 59.7305 68.865 59.1305V59.123Z" fill="#92400E"/>
<path d="M73.1251 59.6704C73.1251 59.6704 72.3601 61.1479 71.5426 61.4179C70.7251 61.6879 68.9176 62.0779 67.2751 61.0879C65.6326 60.0979 62.2426 59.9929 61.3126 60.1579C60.3826 60.3229 57.5926 60.1054 56.4976 59.3404C55.4026 58.5754 53.8201 57.8629 53.6026 57.6979C53.3851 57.5329 53.8726 57.0979 54.8026 57.6979C55.7326 58.2979 57.3151 59.1754 58.7926 59.3929C60.2701 59.6104 63.9901 59.2279 66.4501 60.1579C68.9101 61.0879 71.1526 61.4179 71.9776 60.5404C72.7951 59.6629 72.7426 59.3404 73.1251 59.6629V59.6704Z" fill="#92400E"/>
<path d="M93.5253 76.6276C93.5253 76.6276 96.9678 85.3202 102.825 90.5177C102.825 90.5177 104.685 91.8302 104.903 92.7077C105.12 93.5852 103.808 94.6202 104.633 95.6627C105.45 96.7052 107.04 95.4977 108.788 96.3752C110.535 97.2527 112.125 98.5652 115.95 97.1402C115.95 97.1402 118.628 95.4976 117.645 95.2801C116.663 95.0626 115.733 95.6102 114.69 95.3927C113.648 95.1752 110.865 94.2976 108.563 90.0301L107.903 90.3002C107.903 90.3002 108.285 91.9952 109.71 93.4202C111.135 94.8452 113.76 96.2102 115.125 96.0452C116.49 95.8802 114.195 97.0877 112.613 96.5402C111.03 95.9927 108.405 94.2452 106.763 94.2452C105.12 94.2452 105.998 92.4977 105.615 91.5677C105.233 90.6377 100.418 87.2477 98.5578 84.6227C96.6978 81.9977 94.2903 77.0777 93.9603 76.2002C93.6303 75.3227 93.2478 75.7652 93.5253 76.6352V76.6276Z" fill="#92400E"/>
<path d="M57.2101 94.0202C57.2101 94.0202 55.6801 95.8277 54.5326 96.4277C53.3851 97.0277 52.4026 97.2452 52.8376 98.7227C53.2726 100.2 54.8626 100.253 55.6801 103.043C56.4976 105.833 56.4451 110.318 63.0601 110.04C63.0601 110.04 63.9376 109.605 62.7901 109.058C61.6426 108.51 59.4001 107.085 59.0176 104.573C58.6351 102.06 58.1776 101.01 59.2876 99.9752C60.7126 98.6627 63.3901 97.5152 63.3901 97.5152L62.7901 96.9677C62.7901 96.9677 58.5826 98.9402 58.1401 99.9752C57.6976 101.01 57.8101 103.748 58.3576 105.173C58.9051 106.598 59.7826 108.233 60.8176 108.84C61.8601 109.44 58.3576 108.51 57.6976 107.033C57.0376 105.555 56.7151 102 55.4026 100.305C54.0901 98.6102 53.5426 98.1152 54.4201 97.3502C55.2976 96.5852 57.0976 95.6552 57.8626 94.3427L57.2026 94.0127L57.2101 94.0202Z" fill="#92400E"/>
<path d="M56.4452 30.1432C56.4452 30.1432 49.4477 29.4832 44.3552 30.1432C39.2627 30.8032 31.0652 31.3432 28.5527 31.7257C25.6802 32.1607 20.2426 33.8032 17.3401 33.5332C17.3401 33.5332 10.9427 32.4907 9.18765 32.5507C7.44015 32.6032 2.62518 30.3607 1.20018 29.1082C-0.224821 27.8557 0.105181 31.4032 1.53018 33.0457C2.95518 34.6882 4.59015 35.6182 4.59015 35.6182C4.59015 35.6182 0.65265 37.3657 0.98265 38.7907C1.31265 40.2157 5.13768 39.6082 7.43268 42.8407C7.43268 42.8407 8.74519 43.2757 8.14519 41.8582C7.54519 40.4332 5.30267 38.8507 4.42517 38.7982C3.54767 38.7457 7.65018 39.1807 9.72768 38.0332C9.72768 38.0332 11.4227 39.7807 9.06767 41.6407C9.06767 41.6407 8.08514 42.7882 9.18014 42.7882C10.2751 42.7882 13.0652 41.2582 14.9777 39.5632C16.8902 37.8682 20.3402 38.6857 22.4177 39.0682C24.4952 39.4507 32.3177 40.1632 34.2827 40.1107C36.2552 40.0582 49.9277 41.1532 51.1277 41.1532C51.1277 41.1532 52.9352 40.7182 53.3702 40.2232C53.8052 39.7282 53.2052 40.3882 47.5202 40.0582C41.8352 39.7282 35.5427 39.5632 34.1777 39.4582C32.8127 39.3457 26.4152 39.0232 24.8777 38.7982C23.3402 38.5732 19.6277 37.5982 17.4977 37.8682C15.3677 38.1382 14.3777 38.6332 13.2302 39.7807C12.0827 40.9282 10.3352 41.6932 10.4402 41.2057C10.5452 40.7182 12.1352 38.5282 9.94516 37.4332C9.94516 37.4332 7.92016 38.1982 6.99016 38.1457C6.06016 38.0932 3.60015 37.8757 3.65265 38.3107C3.70515 38.7457 3.76516 39.0757 4.41766 39.4057C5.07016 39.7357 4.41765 40.0057 3.37515 39.5707C2.33265 39.1357 2.01016 38.2582 3.75766 37.2757C5.50516 36.2932 6.11267 36.0157 6.11267 35.7982C6.11267 35.5807 3.32266 33.2257 3.10516 31.8082C2.88766 30.3907 5.18267 32.4682 7.75517 33.1732C10.3277 33.8782 13.8227 34.2682 15.0302 34.3207C16.2302 34.3732 19.2977 34.5907 20.9402 34.1032C22.5827 33.6082 27.4502 32.5207 31.2752 32.1307C35.1002 31.7482 43.8002 30.9307 47.0777 30.9307C50.3552 30.9307 56.8127 31.2007 56.8127 31.2007L56.4301 30.1582L56.4452 30.1432Z" fill="#92400E"/>
<path d="M9.19518 42.7727C9.19518 42.7727 15.8102 55.5676 16.8002 60.9301C16.8002 60.9301 15.9827 61.4777 15.6002 61.2002C15.2177 60.9227 10.1327 46.1027 8.3252 42.6602L9.20268 42.7727H9.19518Z" fill="#92400E"/>
<path d="M7.44708 42.8255C7.44708 42.8255 2.4671 61.9655 2.3096 63.113C2.1521 64.2605 3.50962 63.548 3.45712 63.383C3.40462 63.218 5.42959 55.5605 5.86459 54.248C6.29959 52.9355 8.60211 42.7655 8.60211 42.7655C8.60211 42.7655 7.67209 41.888 7.45459 42.818L7.44708 42.8255Z" fill="#92400E"/>
<path d="M2.30271 63.1201C2.30271 63.1201 1.64273 63.12 1.80773 63.72C1.97273 64.32 1.97274 68.1525 5.09274 70.1175C8.21274 72.0825 11.5427 72.4125 14.0627 71.2125C16.5752 70.0125 18.3827 66.6751 18.6602 65.3026C18.9377 63.9301 19.3202 61.095 18.3902 60.6525C17.4602 60.21 15.0527 61.035 13.4102 61.53C11.7677 62.025 6.83272 62.8125 5.58772 62.895C4.00522 63.0075 2.30271 63.1125 2.30271 63.1125V63.1201Z" fill="#92400E"/>
<path d="M35.9926 34.68C36.0151 34.8975 36.2627 37.305 35.9402 37.905C35.6177 38.505 35.0627 38.4 35.1227 37.6875C35.1827 36.975 35.2351 34.7925 35.3401 34.4625C35.4451 34.1325 35.9401 34.08 36.0001 34.68H35.9926Z" fill="#92400E"/>
<path d="M76.958 42.1198C76.958 42.1198 83.3029 48.6298 88.2229 51.3598C93.1429 54.0973 94.2904 53.9323 95.3854 53.6023C96.4804 53.2723 106.433 48.8473 109.823 45.7798C113.213 42.7198 113.925 42.0073 113.925 42.0073C113.925 42.0073 113.873 41.2423 113.108 42.1198C112.343 42.9973 104.798 48.0298 101.843 49.6123C98.888 51.1948 95.498 52.7323 95.003 52.7848C94.508 52.8373 91.7779 52.9573 87.9904 50.4298C82.6954 46.8973 78.653 43.2298 77.6555 41.8498C76.973 40.8973 76.8979 41.1898 76.8979 41.1898L76.9505 42.1198H76.958Z" fill="#92400E"/>
<path d="M113.16 40.6948C113.16 40.6948 113.213 41.4598 113.925 42.0073C114.638 42.5548 117.315 45.2923 118.958 45.7273C120.6 46.1623 121.748 45.5098 121.53 45.2323C121.313 44.9548 119.948 44.1898 119.888 43.5898C119.828 42.9898 120.653 43.3198 121.2 43.8073C121.748 44.3023 121.47 45.2848 121.253 45.9973C121.035 46.7098 121.853 46.3798 122.348 45.8848C122.843 45.3898 123.548 43.9723 123.93 42.9898C124.313 42.0073 123.6 40.8598 122.288 39.5473C120.975 38.2348 117.69 36.3748 116.438 36.4873C115.185 36.5998 110.588 38.4598 108.998 39.3823C107.415 40.3123 96.5853 45.2923 95.5953 46.1623C94.6053 47.0323 93.6228 48.0223 94.0128 48.3523C94.4028 48.6823 94.8903 47.9173 95.9253 47.0923C96.9678 46.2748 101.723 43.9198 104.295 42.7198C106.868 41.5198 115.125 37.3573 116.003 37.3048C116.88 37.2523 118.793 37.9048 120.653 39.1648C122.513 40.4248 123.008 42.5023 122.843 43.2148C122.678 43.9273 121.86 43.8148 121.2 43.0498C120.54 42.2848 119.123 42.5023 119.01 42.9973C118.898 43.4923 119.228 44.0398 119.228 44.3098C119.228 44.5798 118.028 44.4223 116.873 43.4323C116.13 42.8023 114.135 41.4073 114.03 40.8598C113.925 40.3123 112.988 40.1473 113.153 40.6948H113.16Z" fill="#92400E"/>
<path d="M95.1675 46.763C95.1675 46.763 90.03 41.4005 88.935 39.8705C87.84 38.3405 82.9725 34.073 79.8525 32.378C76.7325 30.683 73.89 29.918 73.725 29.918C73.56 29.918 73.125 30.578 73.125 30.578C73.125 30.578 75.48 31.073 76.7925 31.5605C78.105 32.0555 83.1375 35.2805 85.4325 37.2455C87.7275 39.218 94.35 46.868 94.5675 47.198C94.785 47.528 95.1675 46.763 95.1675 46.763Z" fill="#92400E"/>
<path d="M119.887 45.9457C119.887 45.9457 115.732 55.0807 115.072 56.6107C114.412 58.1407 112.612 63.7732 112.56 64.4332C112.507 65.0932 114.255 64.4332 114.255 64.2157C114.255 63.9982 115.515 59.5657 116.062 58.1482C116.61 56.7307 117.922 53.3932 118.417 51.6382C118.912 49.8907 120.442 46.7182 120.442 46.5532C120.442 46.3882 122.302 52.7857 122.85 54.0982C123.397 55.4107 126.187 62.6332 126.57 63.3382C126.952 64.0432 127.552 64.2157 127.717 63.8332C127.882 63.4507 126.352 60.0082 125.97 58.6357C125.587 57.2707 122.962 50.8132 122.745 49.7182C122.527 48.6232 121.05 46.4332 121.267 45.9982C121.485 45.5632 120.12 45.3382 119.902 45.9457H119.887Z" fill="#92400E"/>
<path d="M110.812 64.7029C110.812 64.7029 111.082 64.2679 111.63 64.1554C112.177 64.0429 114.585 64.2079 115.68 64.2079C116.775 64.2079 120 64.3729 121.147 64.3204C122.295 64.2679 125.52 63.1204 126.562 63.3379C127.605 63.5554 128.04 63.1729 128.587 64.3204C129.135 65.4679 128.475 69.4054 125.91 72.0829C123.27 74.8279 119.295 74.5955 118.035 74.273C116.077 73.763 111.802 69.7355 111.307 68.0405C110.812 66.3455 110.325 65.4679 110.812 64.7029Z" fill="#92400E"/>
<path d="M78.5997 15.0973C78.3822 13.1248 76.9572 9.29978 72.0897 8.42228C69.5847 7.97228 66.7797 7.65728 64.3572 8.63228C62.0322 9.56228 60.2247 11.5273 59.2647 13.8223C58.2147 16.3348 58.3047 19.1323 59.0022 21.6898C59.0472 21.8398 59.0847 21.9973 59.1297 22.1473C59.8722 24.7048 60.9447 27.4123 62.5197 29.5873C64.1022 31.7773 67.1172 34.4023 69.9597 33.0298C72.8022 31.6648 75.8697 28.4323 77.3997 25.5373C78.9297 22.6423 78.8247 17.0623 78.5997 15.0898V15.0973ZM76.0272 26.2573C73.8972 29.6998 71.0472 32.4898 68.3697 32.6023C65.9847 32.6998 63.9222 29.4748 62.7597 27.7573C61.0272 25.1773 59.6622 22.0498 59.3172 18.9448C59.3022 18.8248 59.2947 18.7123 59.2872 18.5923C59.0547 15.4798 60.4122 13.2523 62.3547 10.8898C64.1022 8.75978 68.4822 8.26478 70.9947 8.81228C73.5072 9.35978 77.8872 11.9848 77.9397 15.0448C77.9922 18.1048 78.1572 22.8073 76.0272 26.2573Z" fill="#92400E"/>
<path d="M75.6154 20.7074C75.6154 20.5874 75.3679 19.4774 73.9354 19.2299C72.5029 18.9824 70.9804 20.0099 70.8154 20.8274C70.6504 21.6449 71.1829 24.9674 71.2654 25.5824C71.3479 26.1974 70.8154 26.3999 70.4029 26.3624C69.9904 26.3249 69.5029 26.1974 69.5854 26.4824C69.6679 26.7674 70.6954 26.9774 71.3104 26.6024C71.9254 26.2349 71.7229 25.8224 71.6404 25.1699C71.5579 24.5174 71.3554 21.5999 71.4754 21.0674C71.5954 20.5349 72.4204 19.7549 73.3654 19.8749C74.3104 19.9949 74.9254 20.2049 75.1729 20.6099C75.1729 20.6099 75.2929 20.8799 75.4579 20.8799C75.6229 20.8799 75.6229 20.6849 75.6229 20.6849L75.6154 20.7074Z" fill="#92400E"/>
<path d="M68.9173 20.5955C68.9173 20.5955 68.1223 19.583 66.3223 19.613C64.5148 19.643 63.8323 20.7605 63.9148 20.873C63.9973 20.9855 64.0498 21.1205 64.4098 20.873C64.7698 20.6255 65.9923 20.078 66.7648 20.1905C67.5373 20.303 68.2948 20.8505 68.6773 20.9555C69.0598 21.0605 69.0598 20.6855 68.9248 20.603L68.9173 20.5955Z" fill="#92400E"/>
<path d="M72.5032 21.8099C72.5032 21.8099 72.4206 21.3449 72.8631 21.2774C73.3056 21.2099 73.8607 21.1499 74.1832 21.4274C74.5057 21.7049 74.0781 22.1099 73.5456 22.1924C73.0131 22.2749 72.4432 22.0424 72.5032 21.8099Z" fill="#92400E"/>
<path d="M67.6057 21.8034C67.6057 21.8034 67.4557 21.4434 66.8782 21.4659C66.3007 21.4884 65.6632 21.4884 65.5657 21.7659C65.4682 22.0434 65.9782 22.5309 66.6532 22.4709C67.3282 22.4109 67.8682 22.1333 67.6057 21.8108V21.8034Z" fill="#92400E"/>
<path d="M61.5899 23.3175C61.7174 23.22 61.8674 23.13 62.0549 23.07C62.7599 22.8225 63.5924 22.845 64.2899 23.0775C65.7374 23.5725 68.6624 25.8675 67.4699 27.5025C66.2699 29.1375 62.5349 28.0725 61.8974 26.925C61.3724 25.98 60.5774 24.135 61.5974 23.3175H61.5899Z" fill="#92400E"/>
<path d="M76.3877 23.1677C76.2227 23.2052 76.0801 23.2427 75.9826 23.2727C74.7826 23.5952 73.4176 24.5177 73.0276 25.7627C72.5176 27.4127 74.7076 28.1927 76.1326 26.9702C76.1326 26.9702 77.1151 25.0052 77.4976 23.7977C77.6176 23.4152 77.7376 23.3777 77.4751 23.1827C77.2501 23.0177 76.7702 23.0852 76.3877 23.1752V23.1677Z" fill="#92400E"/>
<path d="M68.7524 28.4475C68.7524 28.4475 68.9174 28.3125 69.2999 28.4775C69.6824 28.6425 70.8599 28.7475 71.3474 28.4775C71.8349 28.2075 71.8649 28.9125 71.2649 29.4075C70.6649 29.9025 69.2399 29.6025 68.8874 29.055C68.5349 28.5075 68.7524 28.455 68.7524 28.455V28.4475Z" fill="#92400E"/>
<path d="M59.5799 21.6077C59.6999 21.5252 64.1249 19.8302 67.0874 17.4227C71.7599 13.6202 71.1449 12.3752 71.8424 9.01524C71.8424 9.01524 70.6124 8.52025 70.1624 8.40025C69.7124 8.28025 68.1899 11.0627 67.5749 11.9252C66.9599 12.7877 64.2374 15.6002 63.0074 16.2977C61.7774 16.9952 59.0849 18.2102 58.7999 18.2102C58.5149 18.2102 59.5799 21.6002 59.5799 21.6002V21.6077Z" fill="#92400E"/>
<path d="M58.9653 17.4224C59.3328 17.1749 61.8379 16.6123 64.0504 14.6023C66.2629 12.5923 68.8353 9.18735 68.9178 8.53485C69.0003 7.88235 65.3253 8.80485 64.4178 9.17985C63.5103 9.55485 59.9853 12.0898 59.5803 14.1448C59.1678 16.1923 58.9653 17.4298 58.9653 17.4298V17.4224Z" fill="#92400E"/>
<path d="M69.5474 13.6879C69.7499 13.9729 71.9398 16.1779 74.4448 16.7929C76.9498 17.4079 78.3673 17.5429 78.3673 17.5429L78.1649 15.6979C78.1649 15.6979 74.7298 13.9054 73.8448 13.3429C71.7673 12.0304 70.8223 10.8154 70.8223 10.8154L69.5474 13.6879Z" fill="#92400E"/>
<path d="M71.3107 9.87738C71.3107 9.87738 72.2932 11.6024 73.5682 12.5024C74.8432 13.4024 77.9557 14.8424 78.2032 14.7974C78.4507 14.7524 78.0382 12.2099 76.1107 11.0249C74.1832 9.83238 72.0082 8.72987 71.3557 8.93237C70.7032 9.13487 71.3182 9.87738 71.3182 9.87738H71.3107Z" fill="#92400E"/>
<path d="M53.4678 27.8852C53.7528 27.8477 54.1653 28.7027 54.1653 27.3527C54.1653 26.0027 53.9403 17.9552 55.5153 14.7977C57.0303 11.7602 59.8653 10.8452 62.1603 10.0802C62.5278 9.96018 66.0978 8.43768 66.2628 8.40018C66.4278 8.36268 65.7303 5.77518 62.7378 4.34268C59.7453 2.91018 52.8903 4.90518 50.1078 9.79518C47.6028 14.1827 45.8853 20.1302 45.8853 23.4527C45.8853 23.4527 45.6378 25.2977 46.2978 25.6652C46.9578 26.0327 49.4553 26.4452 50.4378 26.8127C51.4203 27.1802 53.4753 27.8777 53.4753 27.8777L53.4678 27.8852Z" fill="#92400E"/>
<path d="M76.2974 40.9424C76.2974 40.9424 76.4098 38.7524 77.0623 38.6699C77.7148 38.5874 76.8148 41.1299 77.0623 41.7899C77.3098 42.4499 76.2974 40.9424 76.2974 40.9424Z" fill="#92400E"/>
<path d="M85.5601 58.6723C85.8076 58.6348 88.4701 59.9023 89.1301 60.2323C89.7901 60.5623 91.7926 61.7473 93.0676 61.9573C94.3426 62.1598 92.9476 61.5898 92.3701 61.2973C91.7926 61.0048 87.8176 58.8748 87.2026 58.5073C86.5876 58.1398 85.5601 58.6723 85.5601 58.6723Z" fill="#92400E"/>
<path d="M46.7542 62.4523C46.7542 62.4523 46.5742 62.4523 48.3367 62.1973C50.3692 61.8973 51.5242 61.4997 51.5392 60.3597C51.5542 59.3997 51.7192 55.8823 52.1017 56.7373C52.4842 57.5923 52.4992 60.9598 53.8342 61.2448C55.1692 61.5298 56.6767 61.4923 56.6767 61.8298C56.6767 62.3848 53.9392 61.6648 53.5342 64.8448C53.1292 68.0248 53.1217 68.0623 52.6642 68.0623C52.1167 68.0623 51.9292 63.6073 50.9767 63.3223C50.0242 63.0373 46.7542 63.0447 46.7617 62.4447L46.7542 62.4523Z" fill="#92400E"/>
<path d="M94.5669 103.995C94.6419 104.025 94.5143 105.675 94.6868 105.825C94.8593 105.975 95.9694 104.722 96.1569 104.737C96.3894 104.76 98.7368 105.84 98.8493 105.555C98.9843 105.202 97.9118 103.605 97.8218 103.417C97.7318 103.23 98.8343 102.142 99.0068 101.775C99.0068 101.775 99.2693 101.137 96.8993 101.88C96.8993 101.88 96.0369 100.192 95.7444 99.9971C95.4519 99.8021 94.7394 102.097 94.7019 102.232C94.6644 102.367 92.9094 102.6 92.7369 102.87C92.5644 103.14 93.5619 103.627 94.5594 103.987L94.5669 103.995Z" fill="#92400E"/>
<path d="M64.3942 65.8429C64.7467 65.7079 65.1141 65.8204 65.2866 66.4354C65.4816 67.1329 64.7317 67.5454 64.1392 67.4179C63.1567 67.2004 63.7342 66.0904 64.3942 65.8429Z" fill="#92400E"/>
<path d="M58.6492 65.7222C59.1592 65.1522 60.1417 64.9196 60.7267 65.8421C61.5292 67.1021 59.9542 67.9122 59.0467 67.4772C58.1017 67.0272 58.1842 66.2397 58.6492 65.7222Z" fill="#92400E"/>
<path d="M54.3965 46.2376C54.914 45.7951 55.919 46.23 56.249 46.7925C56.9615 48.0075 55.619 48.4201 55.214 48.3976C54.509 48.3601 53.9615 47.2951 54.1415 46.6651C54.194 46.4776 54.284 46.3426 54.3965 46.2451V46.2376Z" fill="#92400E"/>
<path d="M58.7016 73.8605C58.7016 73.8605 59.3616 73.313 59.8041 74.108C60.2466 74.903 59.2341 75.293 58.7616 75.1505C58.2891 75.008 57.9891 74.438 58.7016 73.8605Z" fill="#92400E"/>
<path d="M75.8768 64.9198C75.3443 64.9048 74.9168 64.5598 75.0218 63.6598C75.1493 62.6323 76.3568 62.4973 77.0618 62.9848C78.2393 63.8023 76.8743 64.9498 75.8768 64.9198Z" fill="#92400E"/>
<path d="M74.8866 74.8579C74.1591 75.0979 73.3041 74.2204 73.1991 73.4929C72.9741 71.9329 74.5491 72.0754 74.9616 72.2704C75.6741 72.6079 75.7941 73.9504 75.3366 74.5279C75.2016 74.7004 75.0516 74.8054 74.8941 74.8579H74.8866Z" fill="#92400E"/>
<path d="M90.8771 66.6524C90.8771 66.6524 89.7071 67.0124 89.5571 65.7299C89.4071 64.4474 90.9521 64.4774 91.4996 64.9199C92.0471 65.3624 92.1295 66.2774 90.8845 66.6524H90.8771Z" fill="#92400E"/>
<path d="M97.7545 94.6955C97.582 94.2605 97.1695 94.013 96.4645 94.3805C95.662 94.793 95.917 95.828 96.532 96.2555C97.5595 96.9755 98.0845 95.5055 97.7545 94.6955Z" fill="#92400E"/>
<path d="M106.072 101.206C106.042 100.358 104.797 99.8033 104.002 99.9758C102.292 100.343 103.049 101.926 103.409 102.278C104.039 102.893 105.479 102.496 105.899 101.798C106.027 101.588 106.072 101.393 106.072 101.213V101.206Z" fill="#92400E"/>
<path d="M90.8471 98.4457C90.8471 98.4457 90.7871 97.3732 89.6921 97.6432C88.5896 97.9057 89.0921 99.1657 89.6171 99.4807C90.1421 99.7957 90.9146 99.5857 90.8471 98.4457Z" fill="#92400E"/>
<path d="M133.702 39.3295C133.777 38.9245 133.59 38.5495 132.892 38.482C132.105 38.407 131.805 39.2995 132.06 39.907C132.487 40.927 133.56 40.087 133.702 39.3295Z" fill="#92400E"/>
<path d="M129.217 27.1796C129.727 26.5196 129.787 25.4171 128.692 24.9671C127.177 24.3446 126.615 26.1971 127.252 27.0896C127.92 28.0196 128.752 27.7796 129.217 27.1796Z" fill="#92400E"/>
<path d="M130.59 51.6447C130.973 50.9997 130.305 50.0022 129.638 49.7547C128.198 49.2222 128.01 50.7522 128.115 51.1797C128.295 51.9297 129.548 52.3122 130.193 51.9972C130.38 51.8997 130.515 51.7797 130.598 51.6447H130.59Z" fill="#92400E"/>
<path d="M123.45 29.2872C123.45 29.2872 123.915 28.4697 122.97 28.1472C122.032 27.8247 121.8 28.9947 122.047 29.4747C122.295 29.9547 122.962 30.1647 123.45 29.2947V29.2872Z" fill="#92400E"/>
<path d="M110.392 30.4726C110.055 30.4726 109.657 29.5276 109.627 29.1901C109.627 29.1301 110.422 23.0251 105.315 23.3476C105.067 23.3626 104.932 23.0326 104.91 22.7851C104.887 22.5376 105.015 22.2976 105.225 22.1701C105.42 22.0501 111.105 23.2351 110.062 11.1001C110.032 10.7326 110.362 10.4401 110.722 10.4326C111.127 10.4701 111.367 10.7251 111.39 11.0926C111.885 19.0876 109.455 22.2976 116.797 22.9276C117.082 22.9501 117.27 23.2351 117.292 23.5201C117.315 23.8051 117.157 24.0676 116.895 24.1801C116.842 24.2026 110.557 23.2276 111.06 29.8501C111.082 30.1951 110.752 30.4651 110.407 30.4726C110.407 30.4726 110.4 30.4726 110.392 30.4726Z" fill="#92400E"/>
<path d="M17.9245 86.8579C19.5295 86.2579 21.6445 84.1054 21.007 83.7154C20.3695 83.3254 17.4595 84.4504 17.107 83.8804C16.7545 83.3104 17.077 79.6204 16.4695 79.1629C15.862 78.7054 14.8345 80.1004 14.002 81.4504C13.1695 82.8004 12.8245 84.0829 12.8245 84.0829C11.527 83.4604 8.96947 82.5979 8.53447 83.3029C8.09947 84.0079 11.002 86.7604 11.572 86.8504C12.142 86.9404 11.572 86.8504 10.057 89.4529C8.542 92.0554 9.29949 92.7004 9.29949 92.7004C9.47949 93.5629 10.357 92.5579 11.1895 91.4779C12.022 90.3979 12.967 89.0404 13.447 88.9804C13.927 88.9204 16.312 91.8004 17.272 92.3929C18.232 92.9854 18.472 92.1604 18.742 91.4404C19.012 90.7204 17.9245 86.8729 17.9245 86.8729V86.8579ZM17.602 89.9779C18.682 92.5354 15.412 88.9429 14.842 88.2829C14.2795 87.6229 13.8145 87.5104 12.7345 88.2679C11.6545 89.0254 10.3345 91.7404 10.552 90.3754C10.552 90.3754 11.797 87.7804 12.487 87.2329C13.177 86.6854 10.837 85.1779 11.3395 85.0804C11.842 84.9829 13.867 86.1379 14.122 85.5904C14.377 85.0429 14.6545 83.0029 14.932 83.7004C15.2095 84.3979 15.0745 85.9129 16.3195 85.6129C17.5645 85.3129 18.6445 85.2754 16.642 86.5204C16.642 86.5204 16.5295 87.4279 17.602 89.9854V89.9779Z" fill="#92400E"/>
<path d="M39.6747 67.9644C39.9747 68.1819 40.0797 68.5569 39.6597 69.0219C39.1797 69.5544 38.4297 69.1569 38.2272 68.5944C37.8822 67.6569 39.1197 67.5444 39.6747 67.9644Z" fill="#92400E"/>
<path d="M36.3295 60.2397C36.9745 60.4347 37.1545 61.5072 36.862 62.0847C36.232 63.3297 35.167 62.4297 34.9645 62.0847C34.6195 61.4772 35.2121 60.4422 35.8421 60.2622C36.0296 60.2097 36.187 60.2097 36.3295 60.2472V60.2397Z" fill="#92400E"/>
<path d="M35.3919 72.5397C35.3919 72.5397 36.2019 72.8022 35.7819 73.5972C35.3619 74.3922 34.4844 73.7547 34.3494 73.2822C34.2144 72.8097 34.5294 72.2547 35.3919 72.5397Z" fill="#92400E"/>
<path d="M20.9244 52.29C20.6769 52.515 20.3319 52.5375 19.9944 52.08C19.6119 51.555 20.1069 50.9775 20.6394 50.895C21.5319 50.7675 21.3969 51.87 20.9244 52.29Z" fill="#92400E"/>
<path d="M28.341 50.7898C28.0485 51.3223 27.0735 51.2773 26.6235 50.9173C25.641 50.1298 26.6385 49.3648 26.9835 49.2523C27.5835 49.0648 28.3785 49.7773 28.4235 50.3623C28.4385 50.5348 28.4085 50.6773 28.341 50.7973V50.7898Z" fill="#92400E"/>
<path d="M17.6991 47.6773C17.6991 47.6773 17.3166 48.3448 16.7016 47.8198C16.0866 47.2948 16.8066 46.6498 17.2416 46.6198C17.6766 46.5898 18.1116 46.9723 17.6991 47.6773Z" fill="#92400E"/>
<path d="M107.347 54.5927C107.347 54.5927 108.869 53.7078 109.304 53.6928C109.304 53.6928 109.604 53.6478 109.567 53.9253C109.529 54.2028 109.117 55.8977 109.012 56.1002C109.012 56.1002 111.194 58.1328 111.202 58.2153C111.209 58.2978 111.442 58.5078 111.074 58.6653C110.812 58.7778 107.984 58.1627 107.984 58.1627C107.984 58.1627 106.334 60.3602 106.184 60.5477C106.034 60.7352 105.742 60.7428 105.622 60.4653C105.502 60.1878 105.292 57.9227 105.292 57.9227C105.292 57.9227 102.794 57.7653 102.592 57.6528C102.389 57.5478 102.352 57.3302 102.509 57.1952C102.667 57.0602 104.812 55.7252 104.812 55.7252L104.257 52.5528C104.257 52.5528 104.294 51.8177 104.917 52.3202C105.539 52.8152 107.354 54.5853 107.354 54.5853L107.347 54.5927Z" fill="#92400E"/>
<path d="M35.9765 20.3782C35.9765 20.3782 37.5815 21.1732 38.024 21.1657C38.024 21.1657 38.3315 21.1957 38.2715 20.9107C38.2115 20.6257 37.679 18.9382 37.559 18.7357C37.559 18.7357 39.6365 16.5232 39.644 16.4407C39.6515 16.3582 39.8615 16.1257 39.4865 15.9907C39.209 15.8932 36.3815 16.7032 36.3815 16.7032C36.3815 16.7032 34.559 14.5807 34.3865 14.4007C34.214 14.2207 33.9215 14.2282 33.8165 14.5207C33.7115 14.8132 33.6515 17.1232 33.6515 17.1232C33.6515 17.1232 31.124 17.4532 30.929 17.5732C30.734 17.7007 30.704 17.9182 30.8765 18.0457C31.049 18.1732 33.314 19.3807 33.314 19.3807L32.9615 22.6432C32.9615 22.6432 33.044 23.3857 33.644 22.8382C34.244 22.2907 35.969 20.3782 35.969 20.3782H35.9765Z" fill="#92400E"/>
<path d="M26.3545 23.3398C24.967 23.6923 23.587 24.0598 22.1995 24.4423C21.4345 24.6598 20.557 24.5473 19.702 24.4873C18.8545 24.4348 18.0145 24.4423 17.332 25.0723" fill="#92400E"/>
<path d="M26.7592 23.2048C26.6917 22.9948 26.4667 22.8748 26.2492 22.9273C24.8692 23.2798 23.4667 23.6548 22.0867 24.0373C21.5017 24.2023 20.8267 24.1498 20.1067 24.0973L19.7392 24.0673C18.8242 24.0148 17.8642 24.0223 17.0542 24.7648C16.8817 24.9223 16.8667 25.1923 17.0317 25.3723C17.1892 25.5448 17.4592 25.5598 17.6392 25.3948C18.2017 24.8773 18.9067 24.8698 19.6942 24.9223L20.0542 24.9523C20.8117 25.0123 21.5992 25.0723 22.3342 24.8623C23.7067 24.4798 25.1017 24.1123 26.4742 23.7598C26.7067 23.6998 26.8417 23.4673 26.7817 23.2423C26.7817 23.2348 26.7817 23.2198 26.7742 23.2123L26.7592 23.2048Z" fill="#92400E"/>
<path d="M24.2309 17.295C22.3934 16.905 16.5734 16.6575 14.6909 16.7625L24.2309 17.295Z" fill="#92400E"/>
<path d="M24.6359 17.1597C24.5909 17.0247 24.4709 16.9122 24.3209 16.8747C22.2134 16.4247 16.4084 16.2372 14.6684 16.3347C14.4359 16.3497 14.2559 16.5522 14.2634 16.7847C14.2784 17.0172 14.4809 17.1972 14.7134 17.1897C16.3784 17.0922 22.1084 17.2797 24.1409 17.7072C24.3734 17.7597 24.5984 17.6097 24.6509 17.3772C24.6659 17.3022 24.6584 17.2197 24.6359 17.1522V17.1597Z" fill="#92400E"/>
<path d="M26.1587 14.5654C25.0187 14.5429 23.9837 13.9204 22.8887 13.5679C21.7187 13.1929 20.4662 13.2229 19.2212 13.3279" fill="#92400E"/>
<path d="M26.5639 14.4302C26.5114 14.2652 26.3539 14.1452 26.1664 14.1377C25.4614 14.1227 24.7789 13.8452 24.0589 13.5527C23.7214 13.4177 23.3764 13.2752 23.0164 13.1552C21.7564 12.7577 20.4289 12.7952 19.1839 12.8927C18.9514 12.9152 18.7714 13.1177 18.7939 13.3502C18.8164 13.5827 19.0189 13.7627 19.2514 13.7402C20.4139 13.6502 21.6364 13.6127 22.7539 13.9652C23.0764 14.0702 23.3989 14.1977 23.7364 14.3402C24.4939 14.6477 25.2814 14.9702 26.1439 14.9852C26.3764 14.9852 26.5789 14.8052 26.5789 14.5652C26.5789 14.5127 26.5789 14.4677 26.5564 14.4152L26.5639 14.4302Z" fill="#92400E"/>
<path d="M84.5546 67.7701C84.5546 67.7701 84.5471 67.7701 84.5396 67.7701C84.4271 67.7701 84.3446 67.6726 84.3371 67.5676C84.3371 67.5451 84.1946 65.4301 82.9721 64.8976C82.8221 64.8301 82.8071 64.7176 82.8071 64.6726C82.8071 64.5076 82.9421 64.4401 83.0996 64.3576C83.5121 64.1551 84.4421 63.6901 84.6371 62.0851C84.6371 61.8901 84.6671 61.7701 84.6671 61.7701C84.6896 61.6576 84.7946 61.5826 84.9071 61.5976C85.0196 61.6126 85.1021 61.7101 85.0946 61.8301C85.0946 61.9501 85.0796 62.0626 85.0646 62.1751C85.0496 62.7676 85.2296 64.0201 86.8721 64.4926C86.9621 64.5151 87.0221 64.5901 87.0296 64.6801C87.0371 64.7701 86.9921 64.8526 86.9096 64.8976C86.8946 64.9051 85.0721 65.8501 84.7646 67.5976C84.7496 67.7026 84.6521 67.7776 84.5471 67.7776L84.5546 67.7701Z" fill="#92400E"/>
<path d="M12.3367 100.35C12.3367 100.432 12.4192 101.047 12.4642 101.43C12.4792 101.557 12.6367 101.617 12.7342 101.535L13.5292 100.86L14.9467 101.257C15.1042 101.302 15.2392 101.152 15.1792 101.002L14.7742 99.9371L15.1117 99.3071C15.2092 99.1196 15.0517 98.9021 14.8492 98.9396L14.0017 99.0896L13.3042 97.9721C13.2217 97.8446 13.0267 97.8521 12.9667 97.9946L12.3817 99.2246C12.3817 99.2246 11.0842 99.4121 11.0317 99.5771C10.9717 99.7646 12.3442 100.357 12.3442 100.357L12.3367 100.35Z" fill="#92400E"/>
<path d="M65.212 71.2649C65.2645 71.2874 65.1745 72.5024 65.302 72.6074C65.4295 72.7124 66.247 71.7974 66.382 71.8049C66.5545 71.8199 68.2795 72.6149 68.3545 72.4049C68.452 72.1499 67.672 70.9724 67.597 70.8374C67.522 70.7024 68.3395 69.8999 68.467 69.6299C68.467 69.6299 68.6545 69.1574 66.922 69.7049C66.922 69.7049 66.2845 68.4674 66.0745 68.3249C65.8645 68.1824 65.3395 69.8699 65.3095 69.9674C65.2795 70.0649 63.9895 70.2374 63.8695 70.4399C63.7495 70.6424 64.477 70.9949 65.212 71.2649Z" fill="#92400E"/>
<path d="M58.3945 52.0647C58.477 52.1022 58.4845 52.6797 58.582 52.7172C58.6795 52.7547 58.9494 52.3047 59.0619 52.2222C59.1744 52.1397 60.1269 52.4997 60.2544 52.4922C60.3819 52.4847 59.8569 51.8397 59.8044 51.6897C59.7519 51.5397 60.2319 51.0447 60.2994 50.8497C60.3669 50.6547 59.3394 51.1347 59.3394 51.1347C59.3394 51.1347 59.0094 50.3172 58.9794 50.2422C58.9494 50.1672 58.6119 50.9772 58.5369 51.1572C58.4619 51.3372 57.5619 51.4122 57.5094 51.4722C57.4569 51.5322 57.4869 51.6297 58.3869 52.0497L58.3945 52.0647Z" fill="#92400E"/>
<path d="M83.4668 22.3048C83.4818 22.7923 83.4668 23.3398 84.1643 23.1748C84.8618 23.0098 86.8868 21.7573 87.1643 21.8923C87.4418 22.0273 87.7418 23.0398 88.0193 23.8573C88.2968 24.6748 88.6268 25.4623 88.9118 24.9823C88.9118 24.9823 89.4968 24.7498 89.1143 22.8673C88.7318 20.9848 88.3718 20.9248 88.7318 20.9923C89.0918 21.0598 91.4018 19.9798 91.2818 19.4698C91.1618 18.9598 89.4443 18.9598 88.5368 19.0723C88.5368 19.0723 88.5893 18.2248 88.3568 17.2423C88.1318 16.2598 87.7868 15.2098 87.3293 15.3673C86.8718 15.5248 86.3243 17.8123 85.9943 18.0898C85.6643 18.3598 84.1418 17.0923 83.6693 17.1973C83.1968 17.3023 84.0443 19.0273 84.8918 19.7173C84.8918 19.7173 83.4593 21.8174 83.4743 22.3124L83.4668 22.3048Z" fill="#92400E"/>
<path d="M66.4642 49.7328C66.4642 49.7328 67.6642 50.2878 67.9942 50.2728C67.9942 50.2728 68.2192 50.2878 68.1742 50.0778C68.1292 49.8678 67.7017 48.6303 67.6042 48.4878C67.6042 48.4878 69.0967 46.8153 69.0967 46.7478C69.0967 46.6803 69.2542 46.5078 68.9692 46.4178C68.7592 46.3503 66.6892 47.0103 66.6892 47.0103C66.6892 47.0103 65.3017 45.4803 65.1742 45.3453C65.0467 45.2103 64.8292 45.2328 64.7617 45.4428C64.6942 45.6528 64.6942 47.3703 64.6942 47.3703C64.6942 47.3703 62.8342 47.6628 62.6917 47.7603C62.5492 47.8578 62.5341 48.0153 62.6616 48.1053C62.7891 48.1953 64.4842 49.0428 64.4842 49.0428L64.2892 51.4578C64.2892 51.4578 64.3642 52.0053 64.7992 51.5853C65.2342 51.1653 66.4717 49.7178 66.4717 49.7178L66.4642 49.7328Z" fill="#92400E"/>
<path d="M23.1819 63.4425C23.1819 63.4425 23.0019 63.4425 24.7644 63.1875C26.7969 62.8875 27.9519 62.49 27.9669 61.35C27.9819 60.39 28.1469 56.8725 28.5294 57.7275C28.9119 58.5825 28.9269 61.95 30.2619 62.235C31.5969 62.52 33.1044 62.4825 33.1044 62.82C33.1044 63.375 30.3669 62.655 29.9619 65.835C29.6869 67.98 29.3969 69.0525 29.0919 69.0525C28.5444 69.0525 28.3569 64.5975 27.4044 64.3125C26.4519 64.0275 23.1819 64.035 23.1894 63.435L23.1819 63.4425Z" fill="#92400E"/>
<path d="M22.5522 79.2447C22.5522 79.2447 22.5447 79.2447 22.5372 79.2447C22.4247 79.2447 22.3422 79.1472 22.3347 79.0422C22.3347 79.0197 22.1922 76.9047 20.9697 76.3722C20.8197 76.3047 20.8047 76.1922 20.8047 76.1472C20.8047 75.9822 20.9397 75.9147 21.0972 75.8322C21.5097 75.6297 22.4397 75.1647 22.6347 73.5597C22.6347 73.3647 22.6647 73.2447 22.6647 73.2447C22.6872 73.1322 22.7922 73.0572 22.9047 73.0722C23.0172 73.0872 23.0997 73.1847 23.0922 73.3047C23.0922 73.4247 23.0772 73.5372 23.0622 73.6497C23.0472 74.2422 23.2272 75.4947 24.8697 75.9672C24.9597 75.9897 25.0197 76.0647 25.0272 76.1547C25.0347 76.2447 24.9897 76.3272 24.9072 76.3722C24.8922 76.3797 23.0697 77.3247 22.7622 79.0722C22.7472 79.1772 22.6497 79.2522 22.5447 79.2522L22.5522 79.2447Z" fill="#92400E"/>
<path d="M46.2744 96.9078C46.6569 97.0503 47.0619 96.9303 47.2494 96.2628C47.4594 95.4978 46.6419 95.0478 45.9969 95.1903C44.9169 95.4303 45.5544 96.6378 46.2744 96.9078Z" fill="#92400E"/>
<path d="M37.7543 101.28C38.3168 101.902 39.3818 102.157 40.0268 101.152C40.9043 99.7723 39.1868 98.8873 38.1968 99.3598C37.1618 99.8548 37.2518 100.717 37.7618 101.28H37.7543Z" fill="#92400E"/>
<path d="M102.533 6.59234C102.915 6.73484 103.32 6.61484 103.508 5.94734C103.718 5.18234 102.9 4.73234 102.255 4.87484C101.175 5.11484 101.813 6.32234 102.533 6.59234Z" fill="#92400E"/>
<path d="M94.02 10.9653C94.5825 11.5878 95.6474 11.8428 96.2924 10.8378C97.1699 9.45781 95.4524 8.57281 94.4624 9.04531C93.4274 9.54031 93.5174 10.4028 94.0274 10.9653H94.02Z" fill="#92400E"/>
<path d="M96.5175 19.5747C97.08 20.1972 98.145 20.4522 98.79 19.4472C99.6675 18.0672 97.95 17.1822 96.96 17.6547C95.925 18.1497 96.015 19.0122 96.525 19.5747H96.5175Z" fill="#92400E"/>
<path d="M80.8348 6.59994C81.3973 7.08744 82.4998 6.60745 82.8598 5.99995C83.6398 4.67245 82.1698 4.22244 81.7273 4.24494C80.9548 4.28244 80.3548 5.45244 80.5573 6.14244C80.6173 6.34494 80.7148 6.49494 80.8348 6.59994Z" fill="#92400E"/>
<path d="M87.6301 7.14724C87.6301 7.14724 88.3576 7.74724 88.8376 6.87724C89.3176 6.00724 88.2151 5.57974 87.6976 5.73724C87.1801 5.89474 86.8576 6.51724 87.6301 7.14724Z" fill="#92400E"/>
<path d="M120.996 59.6473C121.056 59.7373 121.521 60.4498 121.806 60.8923C121.904 61.0423 121.791 61.2373 121.611 61.2373L120.194 61.2223L119.054 62.8722C118.926 63.0522 118.656 63.0147 118.581 62.8047L118.079 61.3348L117.179 60.9672C116.916 60.8622 116.886 60.4948 117.134 60.3523L118.154 59.7673L117.906 57.9898C117.876 57.7798 118.086 57.6222 118.281 57.7122L119.969 58.4847C119.969 58.4847 121.491 57.5548 121.686 57.6748C121.911 57.8173 120.996 59.6322 120.996 59.6322V59.6473Z" fill="#92400E"/>
<path d="M42.7265 92.0845C42.479 92.0845 42.194 92.0395 41.849 91.9345C40.3115 91.4695 40.229 90.037 40.199 89.497C40.199 89.437 40.199 89.3845 40.1915 89.3545C40.1315 89.1745 40.229 88.987 40.409 88.927C40.589 88.867 40.7915 88.972 40.8515 89.152C40.8815 89.2345 40.8815 89.3245 40.889 89.4595C40.934 90.232 41.1065 90.9895 42.0515 91.282C42.7865 91.507 43.079 91.387 43.649 91.1545C44.1065 90.967 44.7365 90.712 45.809 90.5545C47.444 90.322 47.5415 89.6695 47.6915 88.6795C47.7815 88.1095 47.879 87.457 48.314 86.8495C49.379 85.3345 49.364 83.827 48.254 82.3645C48.1415 82.2145 48.1715 81.997 48.3215 81.8845C48.4715 81.772 48.689 81.802 48.8015 81.952C50.0915 83.6545 50.114 85.4845 48.8765 87.247C48.539 87.727 48.4565 88.267 48.374 88.7845C48.2165 89.7895 48.044 90.922 45.9065 91.2295C44.9165 91.372 44.354 91.6045 43.904 91.7845C43.514 91.942 43.1765 92.0845 42.7265 92.0845Z" fill="#92400E"/>
<path d="M44.9763 88.8373C44.8938 88.8373 44.8113 88.8073 44.7438 88.7473C44.6013 88.6198 44.5937 88.4023 44.7287 88.2598C44.7287 88.2598 45.3587 87.5698 45.8462 86.5723C46.3187 85.5973 46.0037 84.0373 45.4337 83.2348C45.0137 82.6498 44.1362 82.1923 43.6112 81.9148C43.3037 81.7573 43.1538 81.6748 43.0563 81.5848C42.9213 81.4498 42.9137 81.2323 43.0487 81.0973C43.1762 80.9623 43.3937 80.9548 43.5362 81.0898C43.5812 81.1273 43.7762 81.2323 43.9337 81.3148C44.5112 81.6148 45.4862 82.1248 45.9962 82.8448C46.6937 83.8198 47.0462 85.6723 46.4687 86.8798C45.9362 87.9748 45.2687 88.7023 45.2387 88.7398C45.1712 88.8148 45.0813 88.8523 44.9838 88.8523L44.9763 88.8373Z" fill="#92400E"/>
<path d="M36.1189 90.6366C35.8489 90.6366 35.5789 90.6066 35.3089 90.5316C33.9589 90.1866 32.7814 89.0016 32.4364 87.6441C32.2114 86.7366 32.4739 84.3666 33.1414 83.5491C35.2864 80.9016 37.7014 81.8541 39.4714 82.5516C40.1614 82.8216 40.8064 83.0766 41.2639 83.0466C42.0889 82.9716 42.8989 83.4441 43.3789 84.2616C43.8439 85.0491 43.8664 85.9416 43.4389 86.5941C43.0414 87.2016 42.0964 87.8541 39.8614 87.5616C39.6739 87.5391 39.5389 87.3666 39.5689 87.1716C39.5914 86.9841 39.7714 86.8566 39.9589 86.8791C41.4214 87.0741 42.4564 86.8416 42.8689 86.2116C43.2064 85.7016 43.0488 85.0491 42.7938 84.6141C42.5238 84.1566 42.0064 83.6916 41.3314 83.7366C40.7164 83.7891 40.0263 83.5116 39.2313 83.1966C37.4913 82.5066 35.5188 81.7266 33.6963 83.9841C33.2163 84.5691 32.9314 86.6916 33.1264 87.4791C33.4039 88.5816 34.4014 89.5791 35.4964 89.8641C36.1939 90.0441 37.2364 90.0141 38.2714 88.8966C38.3989 88.7541 38.6163 88.7466 38.7588 88.8741C38.9013 89.0016 38.9089 89.2191 38.7814 89.3616C38.0089 90.2016 37.0938 90.6366 36.1338 90.6366H36.1189Z" fill="#92400E"/>
<path d="M40.8365 80.0848C40.739 80.0848 40.649 80.0473 40.5815 79.9723C40.3415 79.7023 39.569 79.0048 38.909 78.9523C37.259 78.8248 36.374 79.5073 36.3665 79.5148C36.2165 79.6348 35.999 79.6123 35.8865 79.4623C35.7665 79.3123 35.789 79.1023 35.939 78.9823C35.984 78.9448 37.0265 78.1123 38.969 78.2698C40.049 78.3523 41.0615 79.4698 41.1065 79.5148C41.234 79.6573 41.219 79.8748 41.084 80.0023C41.0165 80.0623 40.934 80.0923 40.8515 80.0923L40.8365 80.0848Z" fill="#92400E"/>
<path d="M46.1619 81.1268C45.9744 81.1268 45.8169 80.9693 45.8169 80.7818V80.6843C45.8394 80.0843 45.7494 79.3493 44.9169 78.9668C43.7694 78.4418 42.4719 78.5693 42.4569 78.5693C42.2694 78.5918 42.0969 78.4494 42.0819 78.2619C42.0594 78.0744 42.2019 77.9019 42.3894 77.8869C42.4494 77.8869 43.8894 77.7443 45.2019 78.3443C46.1019 78.7568 46.5444 79.5518 46.5069 80.7143V80.7893C46.5069 80.9768 46.3494 81.1343 46.1619 81.1343V81.1268Z" fill="#92400E"/>
<path d="M32.2492 81.6521C32.0692 81.6521 31.9192 81.5096 31.9042 81.3296C31.8217 79.9871 33.5542 79.0571 33.6292 79.0196C33.7942 78.9296 34.0042 78.9971 34.0942 79.1621C34.1842 79.3271 34.1167 79.5371 33.9517 79.6271C33.5617 79.8371 32.5492 80.5421 32.5942 81.2846C32.6092 81.4721 32.4592 81.6371 32.2717 81.6521C32.2717 81.6521 32.2567 81.6521 32.2492 81.6521Z" fill="#92400E"/>
<path d="M31.4015 90.4421C31.4015 90.4421 31.349 90.4421 31.319 90.4346C29.9765 90.1121 29.129 88.1396 29.3015 86.6621C29.4515 85.3571 30.1715 83.5346 30.2015 83.4596C30.269 83.2796 30.4715 83.1971 30.6515 83.2646C30.8315 83.3321 30.914 83.5346 30.8465 83.7146C30.8465 83.7296 30.1265 85.5296 29.9915 86.7446C29.8565 87.8846 30.539 89.5421 31.484 89.7746C31.6715 89.8196 31.784 90.0071 31.739 90.1871C31.7015 90.3446 31.559 90.4496 31.4015 90.4496V90.4421Z" fill="#92400E"/>
<path d="M27.9366 89.6848C27.9366 89.6848 27.8841 89.6848 27.8541 89.6773C27.3141 89.5498 26.6991 88.5748 26.3616 87.3073C25.9416 85.7548 27.1641 84.7873 27.2166 84.7498C27.3666 84.6298 27.5841 84.6598 27.6966 84.8098C27.8166 84.9598 27.7866 85.1773 27.6366 85.2898C27.5916 85.3273 26.7291 86.0248 27.0216 87.1273C27.3666 88.3873 27.8841 88.9573 28.0191 89.0098C28.2066 89.0548 28.3116 89.2423 28.2666 89.4223C28.2291 89.5798 28.0866 89.6848 27.9291 89.6848H27.9366Z" fill="#92400E"/>
<path d="M49.2215 90.5767C49.0865 90.5767 48.9591 90.4942 48.9066 90.3667C48.8316 90.1942 48.9141 89.9917 49.0941 89.9167C49.4841 89.7517 50.5791 89.1742 50.8866 88.4692C51.2991 87.5467 51.3665 85.9192 51.3665 85.9042C51.374 85.7167 51.5241 85.5742 51.7116 85.5742H51.7266C51.9141 85.5817 52.0641 85.7467 52.0566 85.9342C52.0566 86.0092 51.974 87.7117 51.5165 88.7542C51.029 89.8567 49.424 90.5317 49.3565 90.5617C49.3115 90.5767 49.2665 90.5842 49.2215 90.5842V90.5767Z" fill="#92400E"/>
<path d="M35.0317 86.864C34.8892 86.864 34.7542 86.774 34.7092 86.639C34.2967 85.499 34.3567 84.674 34.8817 84.1865C36.1192 83.0315 39.4867 84.479 39.8692 84.644C40.0417 84.719 40.1242 84.9215 40.0417 85.1015C39.9592 85.2815 39.7642 85.3565 39.5842 85.274C38.3092 84.7115 36.0292 84.0515 35.3467 84.689C34.9717 85.0415 35.1442 85.8215 35.3467 86.4065C35.4142 86.5865 35.3167 86.7815 35.1367 86.849C35.0992 86.864 35.0617 86.8715 35.0167 86.8715L35.0317 86.864Z" fill="#92400E"/>
<path d="M100.034 33.4868C100.034 33.4868 99.9591 33.4868 99.9216 33.4718C99.7491 33.4118 99.6516 33.2243 99.6966 33.0518C99.7416 32.7668 99.6366 30.6593 97.8891 30.0143C96.1191 29.3618 95.2791 29.7968 94.2066 30.3443C94.0416 30.4268 93.8316 30.3668 93.7416 30.1943C93.6516 30.0218 93.7191 29.8193 93.8916 29.7293C94.9641 29.1818 96.0741 28.6118 98.1216 29.3693C100.357 30.1943 100.477 32.8643 100.349 33.2543C100.304 33.3968 100.169 33.4868 100.019 33.4868H100.034Z" fill="#92400E"/>
<path d="M98.6685 37.8148C98.406 37.8148 98.166 37.7698 97.9635 37.6723C97.791 37.5898 97.7235 37.3798 97.806 37.2073C97.8885 37.0348 98.0985 36.9673 98.271 37.0498C98.511 37.1698 99.1035 37.1473 99.7635 36.8773C100.499 36.5773 101.039 36.0898 101.219 35.5723C101.399 35.0548 101.384 33.7648 101.361 33.3073C101.354 33.1198 101.496 32.9548 101.691 32.9473C101.691 32.9473 101.699 32.9473 101.706 32.9473C101.886 32.9473 102.044 33.0898 102.051 33.2773C102.059 33.4573 102.126 35.0548 101.871 35.7898C101.631 36.5023 100.956 37.1248 100.026 37.5073C99.6285 37.6723 99.126 37.7998 98.6685 37.7998V37.8148Z" fill="#92400E"/>
<path d="M95.7962 34.5596C95.0387 34.5596 94.1312 34.2446 93.0587 33.5996C92.9237 33.5171 92.7812 33.4421 92.6387 33.3596C91.7162 32.8571 90.6662 32.2796 90.8762 30.5021C90.9812 29.5871 91.3262 28.9271 91.8962 28.5296C92.7212 27.9521 93.6962 28.1847 93.7412 28.1922C93.9287 28.2372 94.0412 28.4246 93.9962 28.6046C93.9512 28.7846 93.7712 28.9121 93.5837 28.8596C93.5837 28.8596 92.8562 28.6946 92.2862 29.0996C91.8887 29.3771 91.6412 29.8797 91.5587 30.5847C91.4012 31.9047 92.0912 32.2797 92.9687 32.7597C93.1187 32.8422 93.2687 32.9246 93.4112 33.0071C94.6112 33.7196 95.5562 33.9972 96.2312 33.8172C97.6787 33.4422 97.3562 31.9571 97.3112 31.7921C97.2662 31.6046 97.3787 31.4171 97.5587 31.3721C97.7462 31.3271 97.9337 31.4322 97.9787 31.6197C98.1812 32.4147 98.1137 34.0347 96.4037 34.4772C96.2162 34.5297 96.0137 34.5522 95.8037 34.5522L95.7962 34.5596Z" fill="#92400E"/>
<path d="M96.1418 36.7349C96.0818 36.7349 96.0293 36.7349 95.9693 36.7349C92.9693 36.5249 92.3018 35.4899 91.7093 34.5824L91.5593 34.3574C91.4543 34.1999 91.4993 33.9824 91.6568 33.8774C91.8143 33.7724 92.0318 33.8174 92.1368 33.9749L92.2943 34.2149C92.8418 35.0699 93.3593 35.8724 96.0218 36.0524C97.7918 36.1649 98.7443 33.6449 98.7593 33.6149C98.8268 33.4349 99.0218 33.3524 99.2018 33.4199C99.3818 33.4874 99.4718 33.6899 99.4043 33.8624C99.3593 33.9824 98.2793 36.7424 96.1493 36.7424L96.1418 36.7349Z" fill="#92400E"/>
<path d="M101.069 31.7396C100.896 31.7396 100.746 31.6121 100.724 31.4321C100.724 31.4096 100.484 29.3396 99.3438 28.4846C98.2113 27.6371 96.0288 28.3346 95.1138 28.8971C94.9488 28.9946 94.7388 28.9496 94.6413 28.7846C94.5438 28.6196 94.5888 28.4096 94.7538 28.3121C95.7438 27.7046 98.2638 26.8121 99.7638 27.9296C101.144 28.9646 101.406 31.2596 101.414 31.3571C101.436 31.5446 101.294 31.7171 101.106 31.7396C101.091 31.7396 101.084 31.7396 101.069 31.7396Z" fill="#92400E"/>
<path d="M93.809 38.1151C92.669 38.1151 88.634 37.9276 88.2215 35.2726C88.214 35.2126 88.1915 35.1526 88.1615 35.0776C87.9365 34.4851 87.9365 33.9976 89.699 32.2126C89.834 32.0776 90.0515 32.0776 90.1865 32.2126C90.3215 32.3476 90.3215 32.5651 90.1865 32.7001C88.604 34.2976 88.709 34.5826 88.8065 34.8376C88.8365 34.9276 88.8815 35.0326 88.904 35.1676C89.279 37.5976 94.019 37.4251 94.0715 37.4251C94.259 37.4251 94.424 37.5676 94.4315 37.7551C94.4315 37.9426 94.289 38.1076 94.1015 38.1151C94.0715 38.1151 93.974 38.1151 93.809 38.1151Z" fill="#92400E"/>
<path d="M102.741 36.6742C102.621 36.6742 102.501 36.6068 102.441 36.4943C102.351 36.3293 102.411 36.1192 102.584 36.0292C103.379 35.6017 103.859 35.0242 104.016 34.3042C104.376 32.6542 102.966 30.7642 102.951 30.7492C102.839 30.5992 102.869 30.3817 103.019 30.2692C103.169 30.1567 103.386 30.1867 103.499 30.3367C103.566 30.4267 105.111 32.4968 104.684 34.4543C104.481 35.3768 103.889 36.1118 102.906 36.6368C102.854 36.6668 102.801 36.6742 102.741 36.6742Z" fill="#92400E"/>
<path d="M111.487 50.0922C111.607 50.1447 111.614 50.9472 111.749 50.9997C111.884 51.0522 112.259 50.4222 112.417 50.3097C112.574 50.1972 113.902 50.6997 114.082 50.6922C114.262 50.6847 113.527 49.7847 113.459 49.5747C113.392 49.3647 114.059 48.6822 114.149 48.4047C114.239 48.1272 112.814 48.8022 112.814 48.8022C112.814 48.8022 112.357 47.6547 112.319 47.5647C112.282 47.4747 111.809 48.5922 111.704 48.8397C111.599 49.0872 110.347 49.1922 110.272 49.2822C110.197 49.3722 110.242 49.5072 111.494 50.0922H111.487Z" fill="#92400E"/>
<path d="M8.10651 58.987C8.10651 59.152 8.27904 59.2495 8.41404 59.1595C8.65404 58.9945 8.95404 58.7921 9.02154 58.7396C9.11154 58.6796 10.1915 59.2421 10.6865 59.5121C10.784 59.5646 10.8965 59.4745 10.874 59.3695L10.5515 57.862L11.744 56.6771C11.819 56.6021 11.7665 56.482 11.669 56.4745L10.124 56.407L9.59155 55.0345C9.54655 54.9145 9.38155 54.8996 9.31405 55.0121L8.36904 56.6545L6.94402 56.5795C6.77902 56.572 6.70404 56.767 6.82404 56.8795L8.15151 58.0645L8.11402 58.9945L8.10651 58.987Z" fill="#92400E"/>
<path d="M41.3764 49.8893C41.2339 49.8893 41.0839 49.8593 40.9564 49.7843C40.7764 49.6718 40.6788 49.4618 40.5888 49.2668C40.0188 48.0068 39.3739 46.9343 38.4514 45.8993C38.3164 45.7493 38.0688 45.8693 38.1063 46.0718C38.2713 47.0843 38.3689 48.1043 38.3989 49.1243C38.3989 49.2893 38.3989 49.4693 38.3014 49.5968C38.1814 49.7468 37.9639 49.7693 37.7689 49.7768C36.4864 49.8218 35.1964 49.8068 33.9139 49.7168C33.6964 49.7018 33.5689 49.9718 33.7339 50.1143C34.6339 50.9243 35.6989 51.5618 36.8464 51.9593C36.9964 52.0118 37.1539 52.0643 37.2364 52.1993C37.3714 52.4018 37.2514 52.6718 37.1314 52.8893C36.6514 53.7668 35.6839 54.7943 36.0589 55.6718C36.0889 55.7468 36.1789 55.7918 36.2614 55.7618C36.5764 55.6643 37.4314 55.2893 38.9164 53.9618C40.2439 52.7693 42.0439 54.0068 43.7014 54.4568C43.8514 54.4943 44.0464 54.5243 44.1439 54.4043C44.2564 54.2618 44.1439 54.0593 44.0464 53.9093C43.4839 53.1443 42.3064 52.1618 42.8464 51.1343C42.9289 50.9693 44.8488 49.3343 44.4813 49.0868C43.8663 48.6743 42.5314 49.9343 41.3689 49.8893H41.3764Z" fill="#92400E"/>
<path d="M24.5687 96.9222C25.1312 97.4097 26.2337 96.9297 26.5937 96.3222C27.3737 94.9947 25.9037 94.5447 25.4612 94.5672C24.6887 94.6047 24.0887 95.7747 24.2912 96.4647C24.3512 96.6672 24.4487 96.8172 24.5687 96.9222Z" fill="#92400E"/>
<path d="M31.364 97.4695C31.364 97.4695 32.0915 98.0695 32.5715 97.1995C33.0515 96.3295 31.949 95.902 31.4315 96.0595C30.914 96.217 30.5915 96.8395 31.364 97.4695Z" fill="#92400E"/>
<path d="M42.2987 7.62685C42.2537 7.99435 41.9837 8.27184 41.3687 8.13684C40.6637 7.97934 40.6487 7.13185 41.0387 6.67435C41.6837 5.90935 42.3887 6.92935 42.3062 7.62685H42.2987Z" fill="#92400E"/>
<path d="M47.3765 0.907216C47.5265 1.56722 46.679 2.24972 46.034 2.27972C44.639 2.34722 44.9015 0.97472 45.104 0.62972C45.464 0.0297197 46.6565 0.0372179 47.1215 0.487218C47.264 0.622218 47.339 0.764716 47.3765 0.907216Z" fill="#92400E"/>
<path d="M36.2165 6.1498C36.2165 6.1498 36.3889 6.9823 35.4889 7.0048C34.5889 7.0273 34.7089 5.95479 35.0539 5.60229C35.3989 5.24979 36.0365 5.25729 36.2165 6.14229V6.1498Z" fill="#92400E"/>
</svg>
