<svg width="77" height="63" viewBox="0 0 77 63" fill="none" xmlns="http://www.w3.org/2000/svg">
<g filter="url(#filter0_d_238_382)">
<path d="M55.8898 34.3142L47.1915 31.9274C45.9614 31.5905 44.6874 32.3081 44.3506 33.5381L44.2335 33.9775C43.7795 35.6908 42.857 39.2345 40.3529 40.6842C38.991 41.4604 37.2924 41.5629 35.1397 40.9771C32.0206 40.1278 30.3659 38.4731 29.912 35.8079C29.5166 33.4503 30.2048 30.9316 30.527 29.7601C30.8638 28.53 30.1462 27.2707 28.9162 26.9339L20.3496 24.5909C19.1196 24.2541 17.8456 24.9716 17.5088 26.2017C17.172 27.4317 17.8895 28.6911 19.1342 29.0279L25.5481 30.7851C25.2406 32.3667 25.021 34.4314 25.3578 36.5694C25.8703 39.6885 27.774 43.7448 33.9097 45.4288C37.2631 46.3514 40.1918 46.0878 42.6519 44.682C45.8736 42.8222 47.3818 39.4249 48.158 36.9794L54.6597 38.7513C55.8898 39.0881 57.1638 38.3706 57.5006 37.1405C57.8374 35.9104 57.1199 34.6364 55.8898 34.2996V34.3142Z" fill="#3C2400"/>
<path d="M21.2719 21.2515L56.7974 30.9749C58.0275 31.3117 59.3015 30.5942 59.6383 29.3641C59.9751 28.1341 59.2576 26.8601 58.0129 26.5233L22.4873 16.7998C21.2572 16.463 19.9832 17.1806 19.6464 18.4107C19.3096 19.6407 20.0418 20.9001 21.2719 21.2369V21.2515Z" fill="#3C2400"/>
</g>
<defs>
<filter id="filter0_d_238_382" x="0.779379" y="0.0703945" width="75.5877" height="62.5448" filterUnits="userSpaceOnUse" color-interpolation-filters="sRGB">
<feFlood flood-opacity="0" result="BackgroundImageFix"/>
<feColorMatrix in="SourceAlpha" type="matrix" values="0 0 0 0 0 0 0 0 0 0 0 0 0 0 0 0 0 0 127 0" result="hardAlpha"/>
<feOffset/>
<feGaussianBlur stdDeviation="8.3232"/>
<feColorMatrix type="matrix" values="0 0 0 0 1 0 0 0 0 1 0 0 0 0 1 0 0 0 0.75 0"/>
<feBlend mode="normal" in2="BackgroundImageFix" result="effect1_dropShadow_238_382"/>
<feBlend mode="normal" in="SourceGraphic" in2="effect1_dropShadow_238_382" result="shape"/>
</filter>
</defs>
</svg>
