<svg width="16" height="18" viewBox="0 0 16 18" fill="none" xmlns="http://www.w3.org/2000/svg">
<path d="M7.16667 9.02454V13.2745C7.16667 13.4956 7.25446 13.7075 7.41074 13.8638C7.56702 14.0201 7.77899 14.1079 8 14.1079C8.22101 14.1079 8.43297 14.0201 8.58926 13.8638C8.74554 13.7075 8.83333 13.4956 8.83333 13.2745V9.02454C9.84504 8.81803 10.744 8.24322 11.356 7.41155C11.968 6.57988 12.2493 5.55061 12.1456 4.52327C12.0418 3.49593 11.5602 2.54373 10.7943 1.85126C10.0283 1.15879 9.03256 0.775391 8 0.775391C6.96744 0.775391 5.97165 1.15879 5.20571 1.85126C4.43976 2.54373 3.95821 3.49593 3.85443 4.52327C3.75065 5.55061 4.03202 6.57988 4.644 7.41155C5.25598 8.24322 6.15496 8.81803 7.16667 9.02454ZM8 2.44121C8.49445 2.44121 8.9778 2.58783 9.38893 2.86253C9.80005 3.13724 10.1205 3.52768 10.3097 3.9845C10.4989 4.44131 10.5484 4.94398 10.452 5.42893C10.3555 5.91389 10.1174 6.35934 9.76777 6.70897C9.41814 7.05861 8.97268 7.29671 8.48773 7.39317C8.00277 7.48963 7.50011 7.44013 7.04329 7.25091C6.58648 7.06169 6.19603 6.74126 5.92133 6.33013C5.64662 5.91901 5.5 5.43566 5.5 4.94121C5.5 4.27817 5.76339 3.64228 6.23223 3.17344C6.70107 2.7046 7.33696 2.44121 8 2.44121ZM11.5083 11.1245C11.3989 11.1016 11.286 11.1004 11.1761 11.121C11.0662 11.1417 10.9615 11.1837 10.8678 11.2449C10.7742 11.306 10.6935 11.385 10.6304 11.4773C10.5673 11.5696 10.523 11.6734 10.5 11.7829C10.477 11.8923 10.4758 12.0052 10.4965 12.1151C10.5171 12.225 10.5592 12.3298 10.6203 12.4234C10.6815 12.517 10.7604 12.5977 10.8528 12.6608C10.9451 12.7239 11.0489 12.7682 11.1583 12.7912C13.05 13.1662 13.8333 13.8412 13.8333 14.1079C13.8333 14.5912 11.7917 15.7745 8 15.7745C4.20833 15.7745 2.16667 14.5912 2.16667 14.1079C2.16667 13.8412 2.95 13.1662 4.84167 12.7579C4.9511 12.7349 5.05494 12.6906 5.14725 12.6275C5.23956 12.5644 5.31853 12.4837 5.37967 12.3901C5.4408 12.2964 5.48289 12.1917 5.50354 12.0818C5.52418 11.9719 5.52298 11.859 5.5 11.7495C5.47702 11.6401 5.43271 11.5363 5.3696 11.444C5.30649 11.3516 5.22581 11.2727 5.13218 11.2115C5.03855 11.1504 4.93379 11.1083 4.82389 11.0877C4.71399 11.067 4.6011 11.0682 4.49167 11.0912C1.95833 11.6745 0.5 12.7662 0.5 14.1079C0.5 16.2995 4.275 17.4412 8 17.4412C11.725 17.4412 15.5 16.2995 15.5 14.1079C15.5 12.7662 14.0417 11.6745 11.5083 11.1245Z" fill="#78716C"/>
</svg>
