<svg width="152" height="100" viewBox="0 0 152 100" fill="none" xmlns="http://www.w3.org/2000/svg">
<path d="M73.8349 12.7344C73.8349 12.7344 73.5423 12.7419 76.4523 12.3144C79.8198 11.8194 81.7248 11.1594 81.7473 9.26938C81.7698 7.68688 82.0398 1.85939 82.6698 3.27689C83.2998 4.69439 83.3298 10.2594 85.5348 10.7319C87.7398 11.2044 90.2374 11.1369 90.2374 11.7069C90.2374 12.6294 85.7149 11.4294 85.0399 16.6944C84.5849 20.2444 84.1048 22.0194 83.5998 22.0194C82.6998 22.0194 82.3773 14.6544 80.8023 14.1819C79.2273 13.7094 73.8123 13.7244 73.8273 12.7269L73.8349 12.7344Z" fill="#92400E"/>
<path d="M117.777 37.9572C117.777 37.9572 117.769 37.9572 117.762 37.9572C117.627 37.9572 117.522 37.8448 117.514 37.7098C117.514 37.6873 117.342 35.1372 115.864 34.4922C115.684 34.4172 115.669 34.2748 115.662 34.2223C115.662 34.0198 115.819 33.9373 116.014 33.8473C116.509 33.5998 117.634 33.0448 117.874 31.1098C117.882 30.8773 117.912 30.7348 117.912 30.7273C117.942 30.5923 118.062 30.5023 118.204 30.5173C118.339 30.5323 118.444 30.6523 118.429 30.7948C118.422 30.9373 118.407 31.0797 118.392 31.2147C118.377 31.9272 118.594 33.4348 120.567 34.0048C120.672 34.0348 120.747 34.1247 120.754 34.2297C120.762 34.3347 120.709 34.4397 120.612 34.4922C120.589 34.5072 118.392 35.6472 118.032 37.7472C118.009 37.8747 117.904 37.9647 117.777 37.9647V37.9572Z" fill="#92400E"/>
<path d="M35.8845 25.927C35.6295 26.0995 35.232 26.062 35.007 25.7995C34.497 25.192 35.5545 24.412 36.0045 25.102C36.0645 25.1995 36.1095 25.312 36.117 25.4245C36.132 25.657 36.0345 25.8294 35.8845 25.9344V25.927Z" fill="#92400E"/>
<path d="M114.845 97.6797C114.897 97.6947 114.815 98.8197 114.927 98.9172C115.04 99.0147 115.797 98.1672 115.925 98.1822C116.082 98.1972 117.672 98.9322 117.747 98.7372C117.837 98.5047 117.117 97.4172 117.05 97.2897C116.982 97.1622 117.732 96.4272 117.852 96.1797C117.852 96.1797 118.025 95.7447 116.427 96.2472C116.427 96.2472 115.842 95.1072 115.647 94.9722C115.452 94.8372 114.972 96.3897 114.942 96.4872C114.912 96.5847 113.727 96.7347 113.615 96.9222C113.502 97.1097 114.17 97.4322 114.845 97.6797Z" fill="#92400E"/>
<path d="M30.4844 23.3018C30.7694 23.1893 31.0769 23.2793 31.2194 23.7893C31.3769 24.3668 30.7619 24.7043 30.2744 24.5993C29.4644 24.4193 29.9444 23.5118 30.4844 23.3093V23.3018Z" fill="#92400E"/>
<path d="M26.6516 27.5618C27.0716 27.0968 27.8816 26.9018 28.3616 27.6593C29.0216 28.6943 27.7316 29.3618 26.9816 29.0018C26.2016 28.6343 26.2691 27.9818 26.6516 27.5618Z" fill="#92400E"/>
<path d="M23.5995 22.1766C24.027 21.8091 24.852 22.1766 25.122 22.6266C25.707 23.6241 24.6045 23.9616 24.267 23.9466C23.6895 23.9166 23.2395 23.0391 23.3895 22.5216C23.4345 22.3716 23.5095 22.2516 23.5995 22.1766Z" fill="#92400E"/>
<path d="M31.7519 28.3339C31.7519 28.3339 32.2994 27.8838 32.6594 28.5363C33.0194 29.1888 32.1869 29.5114 31.8044 29.3914C31.4219 29.2714 31.1744 28.8064 31.7519 28.3339Z" fill="#92400E"/>
<path d="M43.4899 78.2393C43.6024 78.2243 43.5199 78.2393 43.4899 78.2843C43.4524 78.3293 43.4075 78.3893 43.3625 78.4493C43.28 78.5768 43.1975 78.7118 43.1225 78.8618C42.98 79.1543 42.8449 79.4618 42.7324 79.7768C42.5074 80.4068 42.3049 81.0443 42.1474 81.6893C42.0724 82.0118 41.9974 82.3268 41.9449 82.6418C41.8924 82.9418 41.8474 83.2793 41.8699 83.4518C41.8999 83.6618 41.9749 83.8268 42.1024 83.9618C42.2374 84.0893 42.4399 84.2168 42.6874 84.2543C43.1749 84.3443 43.79 84.1493 44.06 83.6693C44.2025 83.4368 44.2399 83.1443 44.2624 82.8068C44.2849 82.4768 44.285 82.1468 44.2775 81.8093C44.24 81.1418 44.1649 80.4668 44.0224 79.8143C43.9549 79.4843 43.865 79.1618 43.76 78.8543C43.7075 78.7043 43.64 78.5543 43.5725 78.4193C43.535 78.3518 43.4974 78.2993 43.4674 78.2543C43.4374 78.2018 43.3924 78.2243 43.4899 78.2318V78.2393ZM43.4899 77.6318C43.7599 77.6543 43.8574 77.8043 43.9324 77.8868C44.0074 77.9843 44.0524 78.0743 44.0974 78.1568C44.1799 78.3293 44.24 78.5018 44.2925 78.6743C44.3975 79.0193 44.4724 79.3568 44.5399 79.7018C44.6674 80.3918 44.765 81.0743 44.8175 81.7718C44.8475 82.1168 44.8625 82.4693 44.8625 82.8218C44.855 83.1593 44.8475 83.5718 44.6675 83.9543C44.3375 84.7268 43.52 85.2518 42.6575 85.2668C42.2225 85.2668 41.7424 85.1768 41.3524 84.8618C40.9474 84.5618 40.7149 84.0668 40.6549 83.6018C40.6174 83.0918 40.6925 82.7468 40.775 82.3793C40.865 82.0193 40.9775 81.6818 41.105 81.3518C41.36 80.6918 41.66 80.0543 41.9975 79.4318C42.17 79.1243 42.3425 78.8168 42.5375 78.5168C42.635 78.3668 42.7324 78.2168 42.8524 78.0668C42.9124 77.9918 42.9725 77.9168 43.055 77.8418C43.145 77.7743 43.2049 77.6618 43.4899 77.6318Z" fill="#92400E"/>
<path d="M96.5743 95.3472C96.5743 95.3472 94.7818 99.1947 96.8293 99.2472C98.4718 99.2847 98.7343 98.0097 97.9768 95.7672C97.1293 93.2697 96.9793 94.4022 96.5818 95.3472H96.5743Z" fill="#92400E"/>
<path d="M101.292 5.73C101.292 5.73 99.4996 9.57751 101.547 9.63001C103.19 9.66751 103.452 8.39253 102.695 6.15003C101.847 3.65253 101.697 4.785 101.3 5.73H101.292Z" fill="#92400E"/>
<path d="M61.4819 9.00687C61.7519 8.99187 61.8719 9.12687 61.9544 9.19437C62.0369 9.27687 62.0969 9.35936 62.1569 9.44186C62.2619 9.60686 62.3444 9.76436 62.4194 9.92936C62.5694 10.2594 62.6969 10.5819 62.8094 10.9119C63.0269 11.5719 63.2219 12.2394 63.3719 12.9219C63.4469 13.2594 63.5144 13.6044 63.5594 13.9569C63.5969 14.2944 63.6494 14.6994 63.5294 15.1044C63.3119 15.9144 62.5769 16.5444 61.7144 16.6794C61.2869 16.7469 60.7994 16.7169 60.3644 16.4544C59.9219 16.2144 59.6219 15.7569 59.4944 15.2994C59.3819 14.8044 59.4194 14.4519 59.4494 14.0694C59.4869 13.7019 59.5469 13.3494 59.6369 13.0044C59.8019 12.3144 60.0044 11.6394 60.2594 10.9794C60.3869 10.6494 60.5144 10.3194 60.6644 9.99686C60.7394 9.83186 60.8144 9.66686 60.9119 9.50936C60.9644 9.42686 61.0094 9.34436 61.0844 9.25436C61.1669 9.17186 61.2044 9.05938 61.4894 8.98438L61.4819 9.00687Z" fill="#92400E"/>
<path d="M62.2696 29.9991C62.2696 29.9991 61.2646 31.0716 60.9196 31.1916C60.9196 31.1916 60.6871 31.3041 60.6571 31.0641C60.6271 30.8241 60.5446 29.3766 60.5821 29.1891C60.5821 29.1891 58.3471 28.0791 58.3171 28.0191C58.2871 27.9591 58.0546 27.8391 58.3096 27.6291C58.4971 27.4716 60.9046 27.2916 60.9046 27.2916C60.9046 27.2916 61.6996 25.1391 61.7821 24.9441C61.8646 24.7491 62.0896 24.6816 62.2546 24.8766C62.4196 25.0716 63.1246 26.8341 63.1246 26.8341C63.1246 26.8341 65.1646 26.3616 65.3521 26.4066C65.5396 26.4516 65.6221 26.6091 65.5246 26.7516C65.4271 26.8941 64.0321 28.4766 64.0321 28.4766L65.2396 30.8841C65.2396 30.8841 65.3896 31.4766 64.7671 31.2291C64.1446 30.9816 62.2696 29.9991 62.2696 29.9991Z" fill="#92400E"/>
<path d="M131.405 35.6101C131.405 35.6701 131.465 36.1201 131.502 36.3976C131.517 36.4951 131.63 36.5326 131.697 36.4726L132.275 35.9851L133.302 36.2701C133.415 36.3001 133.512 36.1951 133.475 36.0826L133.182 35.3101L133.43 34.8526C133.505 34.7176 133.385 34.5601 133.235 34.5901L132.62 34.6951L132.117 33.8851C132.057 33.7876 131.915 33.7951 131.87 33.9001L131.442 34.7926C131.442 34.7926 130.497 34.9276 130.467 35.0476C130.422 35.1826 131.42 35.6176 131.42 35.6176L131.405 35.6101Z" fill="#92400E"/>
<path d="M32.922 39.1117C32.922 39.1642 32.9746 39.5393 33.0046 39.7793C33.0121 39.8618 33.1095 39.8993 33.1695 39.8468L33.6571 39.4342L34.5271 39.6742C34.6246 39.7042 34.707 39.6068 34.6695 39.5168L34.422 38.8643L34.632 38.4742C34.692 38.3617 34.5945 38.2268 34.467 38.2493L33.9421 38.3393L33.5146 37.6493C33.4621 37.5668 33.3421 37.5743 33.3046 37.6643L32.9445 38.4218C32.9445 38.4218 32.1496 38.5417 32.1121 38.6392C32.0746 38.7517 32.9145 39.1193 32.9145 39.1193L32.922 39.1117Z" fill="#92400E"/>
<path d="M52.3771 18.4348C52.3771 18.5323 52.4821 18.5923 52.5646 18.5398C52.7071 18.4423 52.8871 18.3148 52.9246 18.2923C52.9771 18.2548 53.6221 18.5923 53.9221 18.7498C53.9821 18.7798 54.0496 18.7273 54.0346 18.6673L53.8396 17.7673L54.5521 17.0623C54.5971 17.0173 54.5671 16.9423 54.5071 16.9423L53.5846 16.8973L53.2696 16.0798C53.2396 16.0048 53.1421 15.9973 53.1046 16.0648L52.5421 17.0473L51.6946 17.0023C51.5971 17.0023 51.5521 17.1148 51.6196 17.1823L52.4146 17.8873L52.3921 18.4423L52.3771 18.4348Z" fill="#92400E"/>
<path d="M32.6665 58.6421C32.7415 58.6796 32.749 59.2046 32.839 59.2421C32.929 59.2796 33.1765 58.8596 33.2815 58.7846C33.3865 58.7096 34.264 59.0396 34.384 59.0396C34.504 59.0396 34.0165 58.4396 33.9715 58.3046C33.9265 58.1696 34.369 57.7121 34.429 57.5321C34.489 57.3521 33.544 57.7946 33.544 57.7946C33.544 57.7946 33.244 57.0371 33.214 56.9771C33.184 56.9171 32.8765 57.6521 32.809 57.8246C32.7415 57.9971 31.909 58.0571 31.864 58.1171C31.819 58.1771 31.8415 58.2671 32.674 58.6496L32.6665 58.6421Z" fill="#92400E"/>
<path d="M62.3888 59.8493C62.4938 59.3993 62.8688 59.0993 63.6113 59.3543C64.4588 59.6468 64.3613 60.6968 63.8138 61.2068C62.9063 62.0618 62.1788 60.6968 62.3813 59.8493H62.3888Z" fill="#92400E"/>
<path d="M55.1442 67.4467C55.0467 66.6067 56.1942 65.8867 56.9967 65.9392C58.7367 66.0517 58.2117 67.7167 57.9117 68.1142C57.3792 68.8042 55.9092 68.6242 55.3917 68.0017C55.2417 67.8142 55.1592 67.6267 55.1367 67.4467H55.1442Z" fill="#92400E"/>
<path d="M69.717 62.5416C69.717 62.5416 69.6195 61.484 70.737 61.5815C71.8545 61.6865 71.547 62.9916 71.0745 63.3741C70.602 63.7566 69.807 63.6666 69.717 62.5341V62.5416Z" fill="#92400E"/>
<path d="M100.962 21.8843C100.279 22.1168 99.6643 21.7193 99.7918 20.9543C99.9193 20.2043 101.157 19.4393 101.712 20.2343C102.094 20.7818 101.509 21.6968 100.962 21.8768V21.8843Z" fill="#92400E"/>
<path d="M108.942 17.0467C108.604 16.7842 108.244 17.4966 108.139 17.7141C107.292 19.4766 105.664 22.1016 105.184 22.2366C104.734 22.3641 105.829 21.0666 106.017 20.7816C106.707 19.7316 107.374 18.5016 108.072 17.3316C109.347 15.2091 109.332 12.6741 107.982 12.8766C106.632 13.0791 103.257 15.0141 100.339 17.3166C97.4217 19.6191 90.0943 25.2741 87.6568 27.8391C86.6668 28.8816 84.0793 31.8741 80.8168 34.2291C75.3043 38.1966 73.3317 40.2291 70.5642 42.1416C65.9142 45.3591 56.1868 49.6642 54.6343 50.6992C53.0893 51.7416 53.4118 52.4241 53.4118 52.4241C54.4018 54.6141 65.2243 53.7442 66.6568 53.7367C68.2768 53.7292 74.6368 54.3516 81.7468 52.1241C82.1593 51.5541 82.5568 50.9842 82.9243 50.4667C81.1993 50.9092 79.3768 51.2541 77.2993 51.7866C72.9418 52.9041 68.4643 52.5892 62.7343 52.7467C59.4418 52.8367 55.9918 52.9191 56.1268 51.8166C56.1643 51.5091 57.0942 50.5116 59.7417 49.4466C62.3817 48.3816 66.9718 46.0941 69.2218 44.9541C72.4618 43.3116 75.8067 40.5366 77.7942 38.9916C80.4417 36.9291 82.8043 34.6417 84.2968 32.9842C85.7893 31.3267 91.9917 25.9491 92.6967 25.1166C93.4017 24.2841 97.1968 20.6092 98.7718 19.3192C100.347 18.0292 105.949 14.9241 106.482 14.7291C107.014 14.5341 107.569 14.3466 107.697 14.5641C107.824 14.7816 108.027 16.1016 107.052 17.6916C106.197 19.0791 104.817 21.2317 104.637 21.8242C104.337 22.7917 104.554 22.9491 105.237 22.7766C105.919 22.6041 107.314 20.5941 107.652 19.9566C108.237 18.8541 108.327 19.4241 108.177 20.2716C108.027 21.1191 106.834 25.1991 105.327 27.6741C103.819 30.1416 101.562 34.6191 99.8818 36.8091C99.5143 37.2816 98.9293 38.0091 98.2018 38.8566C98.2018 39.4191 98.2017 40.0041 98.1867 40.6041C98.9067 39.8841 99.5967 39.1341 100.249 38.2191C101.187 36.8991 102.109 34.7917 103.017 33.4267C104.067 31.8442 105.042 30.2166 105.844 28.5141C107.059 25.9191 107.997 23.1817 108.664 20.3992C108.852 19.6267 109.054 18.8316 109.107 18.0366C109.152 17.4441 109.069 17.1517 108.934 17.0467H108.942Z" fill="#92400E"/>
<path d="M98.2096 38.8494C98.2096 38.1369 97.8121 37.327 97.1746 36.8995C96.6046 36.5245 95.5396 36.8544 95.1646 37.1694C94.1146 38.0619 93.9796 39.0669 93.6046 40.3344C93.5371 40.5744 93.4921 40.7694 93.4621 40.9419C93.4471 40.9344 93.4396 40.9194 93.4321 40.9119C93.3946 40.8819 93.3496 40.8519 93.3046 40.8219C93.0721 40.6869 92.7946 40.6569 92.5321 40.6569C90.5521 40.6794 89.6746 42.8245 89.3071 44.212C89.2621 44.377 89.2321 44.5344 89.2021 44.6994C88.9471 44.5869 88.6621 44.4969 88.3921 44.4144C87.8896 44.2569 87.4096 44.3769 86.9446 44.6769C85.2871 45.7494 83.8996 49.117 83.1121 50.212C82.0246 51.7195 80.7121 53.8045 79.2496 54.8545C77.7871 55.9045 76.7446 56.6694 77.4046 56.5794C78.5896 56.4219 79.6771 56.8795 80.8171 57.0595C82.1371 57.262 83.4946 56.9094 84.6946 56.3769C85.4746 56.0319 86.2171 55.612 87.0346 55.372C89.1421 54.757 90.9421 55.852 93.0571 55.5145C93.4846 55.447 94.317 55.4844 94.7071 55.1694C95.4046 54.6144 95.9071 53.2794 96.0571 52.9719C97.0846 50.8569 97.2421 49.1694 97.6696 46.8519C98.1871 44.0169 98.2096 41.2719 98.2096 38.8419V38.8494ZM81.7096 55.8144C80.8396 56.0019 79.3546 55.6345 79.8646 55.327C80.5246 54.9295 80.9071 54.1495 82.4146 52.672C83.9146 51.1945 85.497 48.0819 85.752 47.3319C86.007 46.5819 86.7046 45.9895 87.4546 45.5245C88.2046 45.052 88.5871 45.3369 88.7896 45.5544C88.9921 45.7719 88.7371 47.0394 88.6471 47.6844C88.5571 48.3294 88.0021 50.1594 87.3646 51.5169C86.8846 52.5444 86.2395 54.0594 86.082 54.4194C85.9845 54.5469 85.5121 54.8169 85.3246 54.8769C83.8996 55.3269 82.5796 55.6344 81.7096 55.8219V55.8144ZM86.8996 54.2844C87.3271 53.5344 87.9421 52.1169 87.9421 52.1169C88.9996 50.2719 89.6371 46.9344 89.8246 45.2619C90.0121 43.5894 90.3496 43.3944 90.7621 42.6144C91.1746 41.8269 92.1721 41.8119 92.6746 41.7669C93.1771 41.7219 93.1321 42.6294 93.0421 44.1069C92.9821 45.1494 92.8546 46.6344 92.6071 47.9544C92.5021 48.5019 92.3671 49.0194 92.2246 49.4694C91.5796 51.5544 90.7921 53.3094 90.3871 54.0819C90.3421 54.1644 90.2746 54.2395 90.1921 54.2995C90.1396 54.3445 89.8171 54.3895 89.7196 54.382C89.4271 54.3594 89.1721 54.3445 89.0221 54.3445C88.2346 54.3445 87.5596 54.3595 86.9971 54.4795C86.8021 54.5245 86.8396 54.3669 86.8921 54.2769L86.8996 54.2844ZM95.502 51.7944C94.947 53.3094 94.2946 54.1869 93.6121 54.5094C93.3421 54.6369 92.4271 54.7644 91.6396 54.6894C91.5796 54.6894 91.4221 54.6369 91.3696 54.5844C91.3171 54.5244 91.2721 54.4344 91.3246 54.3294C91.7296 53.5944 92.4871 51.7494 92.4871 51.7494C92.9971 50.5419 93.2446 48.4569 93.3271 48.0594C94.0771 44.5944 94.3546 40.9269 94.3846 39.9369C94.4221 38.8344 95.2621 37.9194 95.5696 37.6569C95.8771 37.3944 96.3271 37.4544 96.8296 37.6569C97.3321 37.8594 97.3396 38.6619 97.3621 39.3519C97.3846 40.0419 97.3396 42.0294 97.2346 43.3494C97.1296 44.6769 96.8671 45.8619 96.7171 47.1444C96.4021 49.7769 96.057 50.2869 95.502 51.7944Z" fill="#92400E"/>
<path d="M59.7945 53.6173C59.6895 53.8498 57.687 55.9798 56.607 56.8348C55.5345 57.6898 53.2621 59.4823 50.4946 61.1548C48.4696 62.3773 44.1121 64.7848 42.4396 65.5273C40.7671 66.2698 37.7595 67.4548 37.4145 67.0198C37.047 66.5623 38.4121 63.9898 39.2596 62.8123C40.1146 61.6348 41.127 60.2323 42.102 58.9873C43.077 57.7423 45.357 55.3798 45.8295 54.9898C46.302 54.5998 45.4846 54.7123 44.9446 54.5848C44.2396 54.4198 37.5721 53.1748 34.7971 52.4023C32.0221 51.6298 31.0696 51.4723 31.0321 51.0448C30.9946 50.6173 34.1971 48.1423 39.0196 47.3848C43.8421 46.6273 47.2471 46.2598 50.2546 46.7773C53.2546 47.2948 57.5896 48.3148 58.8721 49.1623L57.1171 50.0023C57.1171 50.0023 54.2671 48.7498 53.2771 48.5248C52.2871 48.3073 48.3046 47.9098 46.3846 47.8498C44.4646 47.7898 38.0595 48.3748 36.4995 48.8848C34.9395 49.3948 33.2596 50.5573 33.7771 50.7523C34.1671 50.8948 37.7446 52.5298 39.6271 52.7398C41.5096 52.9498 46.3846 53.5423 47.2921 53.6548C47.7496 53.7148 47.937 53.9923 47.3295 54.6598C47.3295 54.6598 46.5721 55.4998 45.5071 56.5123C44.4421 57.5248 40.5121 63.1873 39.5146 64.5148C38.5171 65.8423 41.6071 63.8473 42.5746 63.5848C43.5421 63.3298 47.3221 61.6723 48.1171 61.2673C48.9121 60.8623 51.3871 59.0923 52.5121 58.0798C53.7946 56.9323 55.857 55.2823 56.397 54.8548C56.937 54.4273 58.2271 53.1598 58.2271 53.1598L59.787 53.5948L59.7945 53.6173Z" fill="#92400E"/>
<path d="M50.3975 57.3896C49.4675 58.0496 48.5375 58.7096 47.615 59.3621C46.0175 60.4946 44.405 61.642 42.62 62.4595C41.345 63.052 39.905 63.532 39.1025 64.687C39.32 64.822 39.4025 65.1446 39.275 65.3621C45.0725 62.8496 50.1275 58.912 55.0025 54.8845C55.7 54.3145 56.5625 53.6546 56.8925 52.7921C56.2025 51.9596 54.4925 54.262 53.915 54.742C52.79 55.6795 51.59 56.527 50.3975 57.3745V57.3896Z" fill="#92400E"/>
<path d="M53.4343 52.8519C49.3543 54.7719 45.5443 57.2544 42.1618 60.2094C41.3518 60.9144 40.5193 61.7244 40.3018 62.7744C42.6793 60.7644 45.1993 58.9044 47.8243 57.2244C49.1368 56.3844 50.4793 55.5819 51.8518 54.8244C52.5193 54.4569 53.2018 54.0969 53.8843 53.7444C54.4618 53.4519 55.5043 53.1669 55.9543 52.7169C57.2218 51.4419 53.8393 52.6644 53.4418 52.8519H53.4343Z" fill="#92400E"/>
<path d="M53.3446 49.4478C51.8971 49.1328 50.4121 49.0278 48.9346 48.9678C46.0996 48.8553 43.2496 48.9003 40.4146 49.1178C38.0071 49.3053 35.6971 49.2003 33.4621 50.1153C33.3121 50.6628 33.4021 50.8203 33.7771 50.7678C37.2496 50.3103 41.3821 49.9428 44.8771 49.7853C47.5471 49.6653 50.2846 49.6428 52.8946 50.3103C53.4121 50.4453 55.4746 51.4878 55.6546 50.8428C55.9171 49.8903 53.8096 49.5528 53.3296 49.4478H53.3446Z" fill="#92400E"/>
<path d="M42.7316 52.2742C46.7966 52.0792 50.8691 51.9367 54.9416 51.8392C55.0316 51.5767 54.8516 51.2842 54.6116 51.1567C54.3716 51.0292 54.0791 51.0217 53.8016 51.0217C50.8991 51.0142 48.0041 51.1792 45.1091 51.3367C42.0941 51.5092 37.9541 51.2542 34.9391 51.4267C34.7741 51.4342 35.7341 51.8617 35.5841 51.8992C35.9741 52.1767 36.7616 52.1842 37.2416 52.2442C37.8491 52.3192 38.4641 52.3567 39.0791 52.3717C40.2941 52.4017 41.5166 52.3417 42.7316 52.2817V52.2742Z" fill="#92400E"/>
<path d="M101.105 28.3275C100.175 27.03 98.9226 25.8975 97.4376 25.2825C96.5001 24.9 95.4576 24.675 94.4601 24.5025C94.0926 24.4425 93.1551 24.15 92.7951 24.36C92.7951 24.36 90.4251 25.9125 90.2601 26.4525C90.0951 26.9925 89.2776 29.19 89.0976 29.8275C88.9176 30.465 88.7226 30.855 89.0001 30.63C89.2776 30.405 90.0276 30.1425 90.3051 29.9175C90.5826 29.6925 92.9901 27.84 93.5376 27.5475C94.0776 27.255 94.3851 27.2925 94.2126 27.8775C94.0401 28.47 92.6001 31.2 92.2176 31.8675C91.8351 32.535 91.7151 33.135 92.2476 32.8875C92.7801 32.64 94.0326 32.4375 94.5726 32.145C95.1126 31.8525 97.3776 30.795 98.1051 30.4725C98.8326 30.15 98.4951 30.3675 98.4276 30.9675C98.3601 31.5675 97.5951 33.315 97.2501 34.29C96.9051 35.265 97.0401 35.4375 97.5576 35.19C98.0751 34.9425 99.2301 34.575 99.6051 34.41C99.9801 34.2525 102.38 33.765 102.38 33.765L103.078 32.5725C102.92 31.0425 101.975 29.535 101.105 28.305V28.3275ZM93.3801 26.3025C92.9151 26.685 91.2201 27.81 91.0326 27.945C90.8451 28.08 90.7401 28.125 90.9951 27.42C91.2501 26.7225 91.4601 26.2725 91.5201 26.2425C91.5801 26.2125 92.4351 25.425 92.4351 25.425L93.6051 25.785C93.6051 25.785 93.8526 25.92 93.3876 26.3025H93.3801ZM97.8276 29.1975C97.4676 29.415 95.0526 30.4275 94.8501 30.3525C94.6851 30.2925 96.0126 28.155 96.4851 27.24C96.6126 26.9925 96.7251 26.7675 97.0326 26.9025C97.2201 26.985 97.6626 27.1575 97.9101 27.3C98.3976 27.5775 98.7951 28.275 98.7576 28.455C98.7201 28.635 98.1951 28.9875 97.8351 29.205L97.8276 29.1975ZM101.113 32.2875C100.918 32.4075 99.0876 33.18 99.1251 32.97C99.1251 32.97 99.1251 32.7525 99.2826 32.4375C99.4401 32.1225 100.288 30.0975 100.393 29.925C100.498 29.7525 100.648 29.55 101 29.9925C101.353 30.435 101.878 31.5975 101.833 31.83C101.788 32.0625 101.315 32.1525 101.12 32.28L101.113 32.2875Z" fill="#92400E"/>
<path d="M72.7846 72.1348C72.6196 75.3973 72.7696 79.5973 71.7496 82.7023C70.9246 85.2148 69.9196 87.4798 68.4196 89.6248C67.8421 89.5498 67.4971 89.3398 66.9346 89.5048C68.2396 87.9748 68.5096 86.3172 69.4546 84.5397C69.8371 83.8272 70.2046 83.0997 70.4596 82.3347C70.7521 81.4722 70.9021 80.5723 71.0521 79.6723C71.1946 78.8173 71.3371 77.9698 71.4271 77.1073C71.5096 76.3123 71.3596 75.5998 71.4046 74.8123C71.4421 74.1748 71.2696 73.3498 71.4046 72.7423C71.4796 72.4123 71.4346 72.4798 71.7421 72.3298C71.8321 72.2848 72.7771 72.1948 72.7771 72.1348H72.7846Z" fill="#92400E"/>
<path d="M79.2192 71.7749C79.1367 72.2999 79.1292 72.8248 79.1142 73.3573C79.0542 76.2223 78.7317 78.8848 78.1917 81.7048C77.6517 84.5173 76.6092 87.0373 74.9442 89.3698C74.3592 89.4448 73.9167 89.5049 73.3242 89.5798C75.0192 87.2998 75.9342 85.8074 76.9617 82.0949C77.4192 80.4374 77.5917 78.9074 77.9142 77.2124C78.1092 76.2074 77.8317 75.0748 77.8017 74.0548C77.7867 73.6048 77.5842 72.1798 77.7942 71.8048C77.9667 71.4898 79.1892 71.9249 79.2117 71.7824L79.2192 71.7749Z" fill="#92400E"/>
<path d="M62.8469 79.1241C62.7269 79.4241 62.8094 79.8216 63.0719 79.9791C63.2069 80.0616 63.3719 80.0691 63.5219 80.0766C63.9194 80.0991 64.3319 80.1066 64.6844 79.9191C65.0219 79.7391 65.3069 79.2891 65.1569 78.8766C65.0069 78.4641 64.4669 78.3816 64.1144 78.3891C63.6344 78.3966 63.0569 78.6066 62.8469 79.1241Z" fill="#92400E"/>
<path d="M91.6395 84.0523C84.8745 87.4648 74.8695 89.0998 72.4395 89.1523C69.777 89.2048 65.562 88.9723 63.927 88.6873C62.2995 88.4023 58.4445 86.6023 57.867 86.2048C57.2895 85.8073 57.312 85.2748 59.022 85.6273C60.7395 85.9798 62.547 85.7848 62.307 84.9748C62.067 84.1648 61.6395 82.9873 59.907 82.4848C58.1745 81.9823 55.842 82.2148 55.9845 81.4573C55.9845 81.4573 55.9995 80.1598 57.1095 79.1248C58.2195 78.0898 62.277 73.9948 67.9845 73.1923C71.0745 72.7648 74.0295 72.7123 77.2245 72.5773C79.932 72.4648 82.827 72.2848 86.127 71.7598C93.3195 70.6123 98.6445 69.0523 103.002 65.6173C107.359 62.1823 110.802 57.2398 111.32 56.4223C111.845 55.6048 113.27 52.5523 113.915 52.8673C114.56 53.1823 114.5 57.4348 111.477 64.3198C109.955 67.7848 107.074 71.4673 103.752 74.7898C104.464 74.7073 105.177 74.6548 105.785 74.6098C106.302 74.0773 106.79 73.5373 107.24 72.9748C110.51 68.9548 112.137 65.5798 112.902 63.6448C114.507 59.6098 116.54 51.0598 114.687 50.8198C112.835 50.5798 112.145 53.6398 108.432 58.8598C104.72 64.0873 99.2595 69.1498 87.8895 70.4323C83.052 70.9798 78.8745 71.1148 75.462 71.3248C69.882 71.6773 66.1695 72.2923 61.377 74.8573C54.297 78.6523 54.447 81.3898 54.447 81.3898C54.5595 83.0548 61.5945 84.0598 61.2795 84.7048C60.9645 85.3498 57.6795 84.5548 56.322 83.9398C54.957 83.3248 55.2945 84.5098 55.2945 84.5098C57.1095 88.1248 62.397 89.4973 62.397 89.4973C66.747 90.2398 71.817 90.7573 76.692 90.1048C81.567 89.4523 86.2545 87.6448 92.112 85.0798C92.4045 84.9523 92.7045 84.8023 92.997 84.6523C92.5245 84.4573 92.067 84.2623 91.6245 84.0673L91.6395 84.0523Z" fill="#92400E"/>
<path d="M98.104 86.3624C100.392 86.9249 101.989 87.4648 104.344 87.3973C104.689 87.3898 106.114 87.4724 106.902 87.0599C107.344 86.8274 107.652 86.0549 107.892 85.6949C109.062 83.8949 108.799 81.8098 110.224 80.1373C110.771 79.4923 111.462 78.9823 112.092 78.4123C113.067 77.5348 113.944 76.4399 114.297 75.1574C114.604 74.0474 114.627 72.8698 115.257 71.8498C115.609 71.2798 114.484 71.9248 112.924 72.8248C111.364 73.7248 108.934 74.0774 107.112 74.4524C105.792 74.7224 102.147 74.6098 100.497 75.6823C100.032 75.9823 99.724 76.3798 99.664 76.8973C99.634 77.1823 99.5965 77.4748 99.5965 77.7523C99.439 77.7148 99.274 77.6773 99.109 77.6548C97.699 77.4223 95.374 77.3474 94.549 79.1399C94.4365 79.3799 94.354 79.6498 94.384 79.9123C94.384 79.9648 94.399 80.0174 94.414 80.0624C94.414 80.0774 94.429 80.0924 94.429 80.1074C94.2565 80.0624 94.0615 80.0249 93.814 79.9874C92.509 79.8149 91.534 79.5224 90.289 80.1224C89.8465 80.3324 89.104 81.1724 89.2165 81.8474C89.344 82.5974 89.9215 83.2949 90.574 83.5874C92.794 84.5774 95.3065 85.6798 98.104 86.3698V86.3624ZM110.464 78.3749C110.337 78.5249 109.894 78.8398 109.737 78.8848C109.347 78.8848 107.696 78.8473 106.564 78.8698C105.056 78.8998 103.159 78.6524 102.536 78.4724C101.914 78.2924 100.654 77.9999 100.534 77.7299C100.414 77.4599 100.317 76.9949 101.052 76.4999C101.787 76.0049 102.612 75.6148 103.399 75.6823C104.187 75.7573 107.674 75.5924 109.639 74.8199C111.604 74.0549 112.467 74.0173 113.104 73.5823C113.599 73.2448 113.322 74.7524 112.797 75.4649C112.272 76.1774 111.454 77.2649 110.456 78.3749H110.464ZM109.422 79.7474C109.084 80.2124 108.784 80.8198 108.469 81.5398C108.409 81.6748 108.319 81.9149 108.214 82.1924C108.177 82.2824 108.004 82.5599 107.944 82.5899C107.862 82.6349 107.764 82.6723 107.667 82.6798C106.797 82.7323 104.877 82.7324 102.709 82.4699C102.237 82.4099 101.712 82.3274 101.172 82.1924C99.859 81.8774 98.4565 81.3824 97.4815 81.0149C96.1015 80.4899 95.2465 80.1673 95.494 79.7248C95.7415 79.2823 96.1615 78.3823 97.0465 78.3223C97.9315 78.2623 98.2465 78.0448 99.8515 78.5473C101.457 79.0498 104.757 79.8373 106.872 79.6273C106.872 79.6273 108.417 79.6499 109.279 79.5674C109.384 79.5599 109.542 79.5824 109.422 79.7474ZM98.749 85.6049C97.519 85.2224 96.3265 84.9749 95.074 84.5324C93.8215 84.0899 91.9915 83.3174 91.369 83.0174C90.7465 82.7174 90.019 82.3874 90.0415 81.8399C90.064 81.2924 90.184 80.8574 90.5515 80.6849C90.919 80.5124 92.0965 80.1149 93.1165 80.5349C94.0315 80.9099 97.489 82.1624 100.962 82.8899C101.359 82.9724 103.362 83.6024 104.674 83.6324C104.674 83.6324 106.661 83.6999 107.501 83.6324C107.621 83.6249 107.682 83.6999 107.719 83.7749C107.749 83.8424 107.719 84.0074 107.704 84.0599C107.449 84.8099 106.962 85.5899 106.737 85.7849C106.174 86.2724 105.094 86.5124 103.489 86.3999C101.884 86.2874 101.277 86.3924 98.749 85.6049Z" fill="#92400E"/>
<path d="M109.947 57.9972C109.894 57.5247 108.492 53.9547 107.967 51.1422C107.442 48.3297 107.052 43.2672 107.029 41.9097C107.007 40.5447 107.869 40.7997 108.859 41.7147C109.467 42.2772 110.764 43.6047 111.889 45.4122C112.602 46.5522 113.659 49.7472 113.772 50.1597C113.884 50.5722 114.057 50.9697 114.297 50.8797C114.777 50.7072 119.997 45.3372 123.672 45.0222C123.672 45.0222 124.302 44.7822 123.837 46.5672C123.372 48.3522 121.917 52.0647 121.152 53.5347C119.067 57.5472 115.204 59.8422 113.667 61.1022L113.097 61.4997L113.352 59.9547C113.352 59.9547 116.097 57.5022 116.974 56.8047C117.709 56.2272 118.602 55.2822 119.119 54.5172C120.012 53.1972 120.439 52.4097 121.017 50.9172C121.482 49.7172 121.902 48.7347 122.307 47.5197C122.629 46.5672 122.367 46.4472 121.354 46.8222C120.207 47.2497 115.834 51.2172 115.234 52.5072C115.234 52.5072 114.027 52.6872 113.704 52.4247C113.382 52.1622 110.997 47.0397 110.344 45.4947C109.692 43.9497 108.162 42.4797 108.124 43.2447C108.087 44.0097 108.544 48.8697 108.882 50.3172C109.219 51.7647 110.667 56.1072 110.862 56.5047C111.057 56.9022 109.947 57.9822 109.947 57.9822V57.9972Z" fill="#92400E"/>
<path d="M81.6722 73.4918C81.2897 73.6943 81.0272 74.1593 81.3122 74.4368C81.4772 74.6018 81.7622 74.6243 82.0247 74.6393C82.7072 74.6693 85.2946 74.8568 85.1521 73.7168C85.0471 72.8993 82.3096 73.1618 81.6796 73.4918H81.6722Z" fill="#92400E"/>
<path d="M81.9497 76.079C81.7022 76.184 81.4471 76.304 81.2521 76.4915C81.0571 76.679 80.9147 76.9415 80.9222 77.2115C80.9222 77.249 80.9296 77.294 80.9521 77.3315C80.9821 77.3765 81.0346 77.3915 81.0871 77.4065C81.3946 77.4815 81.7171 77.4515 82.0321 77.4065C82.6321 77.324 83.2321 77.1815 83.8096 76.994C84.1921 76.8665 84.6872 76.6715 84.8072 76.244C84.8897 75.944 84.7546 75.7865 84.4696 75.7265C83.7046 75.5765 82.6472 75.794 81.9497 76.0865V76.079Z" fill="#92400E"/>
<path d="M80.6744 81.2167C82.0619 81.1942 83.3668 80.8193 84.1618 79.5968C84.2743 79.4243 84.3719 79.1843 84.2444 79.0193C84.1619 78.9143 84.0193 78.8843 83.8918 78.8768C83.1493 78.8093 82.6693 79.1093 82.0618 79.4543C81.4543 79.7993 80.8918 79.9193 80.4268 80.4518C80.3443 80.5493 80.2618 80.6543 80.2318 80.7818C80.2018 80.9093 80.2318 81.0518 80.3293 81.1343C80.4193 81.2093 80.5544 81.2167 80.6744 81.2167Z" fill="#92400E"/>
<path d="M80.72 85.1025C80.405 85.08 80.0525 84.99 79.9025 84.7125C79.6325 84.2025 80.0075 83.625 80.45 83.3775C80.78 83.19 81.17 83.115 81.545 83.055C81.8225 83.01 82.1 82.9725 82.3775 82.995C82.655 83.0175 82.9325 83.13 83.1275 83.3325C83.3225 83.535 83.3975 83.8575 83.2775 84.105C83.18 84.315 82.9625 84.45 82.7525 84.555C82.13 84.87 81.425 85.14 80.7275 85.095L80.72 85.1025Z" fill="#92400E"/>
<path d="M74.5546 75.8397C74.8921 76.0122 75.4096 75.8772 75.7546 75.7572C76.1221 75.6372 76.3546 75.2172 76.3621 74.8497C76.3621 74.6997 76.3321 74.5422 76.2346 74.4372C76.1671 74.3547 76.0621 74.3022 75.9646 74.2647C75.3571 74.0247 73.9846 74.2122 74.0821 75.0972C74.1196 75.4047 74.2846 75.7122 74.5546 75.8472V75.8397Z" fill="#92400E"/>
<path d="M73.969 78.3744C73.939 78.6369 73.939 78.9219 74.0815 79.1394C74.194 79.3119 74.389 79.4169 74.599 79.4469C74.809 79.4769 75.0115 79.4394 75.199 79.3569C75.949 79.0344 76.3015 77.8718 75.3265 77.5568C74.6815 77.3468 74.044 77.7069 73.9615 78.3744H73.969Z" fill="#92400E"/>
<path d="M74.4267 81.6744C74.7042 81.9069 74.8467 82.2819 74.8242 82.6494C74.8092 82.8669 74.7342 83.0844 74.5692 83.2344C74.1567 83.6019 73.1517 83.4894 72.8817 82.9794C72.7767 82.7844 72.7917 82.5444 72.8517 82.3269C73.0317 81.6744 73.7142 81.1794 74.3517 81.6219C74.3742 81.6369 74.3967 81.6519 74.4192 81.6744H74.4267Z" fill="#92400E"/>
<path d="M73.5496 86.812C74.0146 86.2795 73.8346 85.4245 73.0996 85.282C72.9496 85.252 72.7921 85.267 72.6346 85.297C72.0346 85.432 71.4046 86.122 71.9221 86.7295C72.0196 86.842 72.1471 86.9169 72.2746 86.9769C72.4846 87.0669 72.7096 87.1195 72.9421 87.1045C73.1746 87.0895 73.3921 86.9845 73.5421 86.812H73.5496Z" fill="#92400E"/>
<path d="M122.569 46.9722C122.089 46.9047 121.579 47.2272 121.257 47.6847C120.919 48.1422 120.732 48.7197 120.567 49.3422C120.394 49.9647 120.259 50.6472 119.937 51.3297C119.787 51.6672 119.569 52.0197 119.322 52.3122C119.082 52.5972 118.812 52.8597 118.512 53.0697C117.927 53.5047 117.349 53.7897 116.869 54.1947C116.427 54.5697 116.029 55.1097 115.669 55.6347C115.309 56.1747 114.987 56.7372 114.724 57.3222C114.469 57.8997 114.244 58.5447 114.289 59.0847L113.689 59.1672C113.599 58.3647 113.854 57.7047 114.087 57.0522C114.334 56.4072 114.642 55.7922 114.987 55.1997C115.339 54.6072 115.707 54.0297 116.247 53.4972C116.742 52.9947 117.282 52.5447 117.717 52.1172C117.934 51.8997 118.129 51.6897 118.317 51.4572C118.497 51.2322 118.647 51.0297 118.774 50.7597C119.037 50.2422 119.239 49.6272 119.479 48.9822C119.727 48.3447 120.027 47.6547 120.559 47.0847C120.822 46.8072 121.144 46.5522 121.519 46.4097C121.894 46.2597 122.352 46.2222 122.749 46.3872L122.562 46.9647L122.569 46.9722Z" fill="#92400E"/>
<path d="M108.102 41.9844C108.26 42.0969 108.275 42.1494 108.335 42.2169C108.387 42.2769 108.425 42.3369 108.47 42.3969C108.552 42.5169 108.62 42.6369 108.695 42.7644C108.837 43.0119 108.965 43.2594 109.085 43.5069C109.317 44.0094 109.52 44.5269 109.685 45.0594C109.85 45.5919 109.992 46.1244 110.097 46.6719C110.202 47.2044 110.262 47.8119 110.322 48.2994C110.442 49.3194 110.727 50.2719 111.185 51.1869C111.41 51.6444 111.702 52.1019 111.942 52.6269C112.175 53.1519 112.34 53.7668 112.302 54.3518L111.695 54.3744C111.582 53.3844 110.915 52.6419 110.322 51.6669C109.715 50.7069 109.347 49.5669 109.212 48.4494L109.16 48.0294L109.122 47.6469C109.092 47.3919 109.055 47.1369 109.01 46.8744C108.927 46.3644 108.822 45.8544 108.695 45.3444C108.575 44.8344 108.432 44.3319 108.267 43.8369C108.185 43.5894 108.11 43.3419 108.012 43.1019C107.967 42.9819 107.915 42.8619 107.862 42.7494L107.787 42.5844C107.772 42.5394 107.712 42.4794 107.765 42.5094L108.095 41.9994L108.102 41.9844Z" fill="#92400E"/>
<path d="M32.8619 95.3472C32.8619 95.3472 31.0694 99.1947 33.1169 99.2472C34.7594 99.2847 35.0219 98.0097 34.2644 95.7672C33.4169 93.2697 33.2669 94.4022 32.8694 95.3472H32.8619Z" fill="#92400E"/>
<path d="M125.983 57.7266C126.163 57.7791 126.185 57.8766 126.238 57.9441C126.283 58.0191 126.313 58.0866 126.35 58.1541C126.41 58.2891 126.463 58.4241 126.515 58.5591C126.613 58.8291 126.695 59.0991 126.778 59.3766C126.943 59.9241 127.078 60.4791 127.19 61.0566C127.25 61.3416 127.288 61.6416 127.318 61.9491C127.34 62.2641 127.363 62.5566 127.303 62.9766C127.228 63.3591 127.048 63.7416 126.77 63.9516C126.5 64.1691 126.193 64.2066 125.93 64.1541C125.39 64.0491 124.925 63.5316 124.775 62.8641C124.693 62.5266 124.723 62.1816 124.745 61.9041C124.768 61.6116 124.805 61.3191 124.85 61.0341C124.933 60.4641 125.045 59.9016 125.18 59.3391C125.248 59.0616 125.323 58.7841 125.413 58.5066C125.458 58.3716 125.51 58.2291 125.578 58.0941C125.608 58.0266 125.645 57.9591 125.698 57.8841C125.75 57.8241 125.825 57.7116 125.99 57.7191L125.983 57.7266Z" fill="#92400E"/>
<path d="M20.547 89.3315C20.367 89.3315 20.1645 88.8365 20.142 88.6565C20.142 88.6265 20.562 85.409 17.8695 85.574C17.742 85.5815 17.667 85.409 17.652 85.2815C17.637 85.154 17.7045 85.0265 17.817 84.959C17.922 84.8915 20.9145 85.5215 20.367 79.124C20.352 78.929 20.5245 78.7715 20.7195 78.7715C20.937 78.794 21.057 78.929 21.072 79.1165C21.3345 83.3315 20.052 85.0265 23.922 85.3565C24.072 85.3715 24.1695 85.5215 24.1845 85.6715C24.1995 85.8215 24.1095 85.964 23.9745 86.024C23.9445 86.039 20.6295 85.5215 20.8995 89.0165C20.9145 89.1965 20.7345 89.339 20.5545 89.3465L20.547 89.3315Z" fill="#92400E"/>
<path d="M50.2021 93.6299C50.2021 93.6299 50.1271 93.6824 50.0821 93.7199C49.9996 93.7949 49.9321 93.8849 49.8646 93.9749C49.7296 94.1549 49.6171 94.3574 49.5271 94.5524C49.3321 94.9574 49.1971 95.3774 49.1071 95.8049C49.0696 96.0149 49.0396 96.2324 49.0321 96.4499C49.0246 96.6749 49.0321 96.8624 49.1521 97.0274C49.3771 97.3724 49.9546 97.5749 50.4346 97.5824C50.6821 97.5899 50.8846 97.5374 51.0271 97.4699C51.1621 97.4024 51.2521 97.3049 51.2971 97.1699C51.3421 97.0574 51.3196 96.8399 51.2971 96.6374C51.2671 96.4274 51.2221 96.2174 51.1771 95.9999C51.0796 95.5649 50.9446 95.1299 50.7721 94.6949C50.6896 94.4774 50.5846 94.2674 50.4721 94.0574C50.4121 93.9524 50.3446 93.8549 50.2771 93.7649C50.2396 93.7199 50.2021 93.6749 50.1721 93.6449C50.1496 93.6074 50.0746 93.5924 50.1721 93.6149C50.2621 93.6149 50.2246 93.5999 50.1946 93.6299H50.2021ZM50.8172 93.4274C50.8772 93.4949 50.9221 93.5624 50.9596 93.6224C51.0421 93.7499 51.1021 93.8699 51.1621 93.9974C51.2821 94.2449 51.3871 94.4849 51.4846 94.7249C51.6796 95.2124 51.8371 95.6999 51.9571 96.2024C52.0171 96.4499 52.0621 96.7049 52.0771 96.9599C52.0921 97.2224 52.0996 97.4699 51.9796 97.7999C51.8446 98.0924 51.5521 98.3699 51.1471 98.4824C50.5621 98.6399 49.9022 98.6624 49.3172 98.4824C48.8822 98.3474 48.4771 98.0324 48.3271 97.5974C48.1921 97.1999 48.2746 96.7349 48.3721 96.3449C48.4246 96.1049 48.4996 95.8799 48.5896 95.6549C48.7546 95.2049 48.9571 94.7699 49.1821 94.3424C49.3021 94.1324 49.4296 93.9224 49.5721 93.7124C49.6471 93.6074 49.7296 93.5099 49.8346 93.4124C49.8871 93.3599 49.9471 93.3149 50.0221 93.2699C50.0971 93.2324 50.2096 93.1574 50.4571 93.2024C50.7046 93.2849 50.7346 93.3749 50.8096 93.4424L50.8172 93.4274Z" fill="#92400E"/>
<path d="M138.005 62.5419C137.96 62.5719 137.907 62.6169 137.862 62.6694C137.765 62.7819 137.667 62.9094 137.577 63.0444C137.397 63.3144 137.232 63.6069 137.082 63.9069C136.782 64.5069 136.542 65.1369 136.347 65.7819C136.257 66.1044 136.175 66.4269 136.115 66.7569C136.055 67.0944 136.017 67.3869 136.1 67.6419C136.242 68.1744 136.79 68.5044 137.292 68.5419C137.547 68.5644 137.772 68.4969 137.93 68.3994C138.087 68.3019 138.207 68.1593 138.282 67.9569C138.35 67.7918 138.387 67.4543 138.41 67.1543C138.432 66.8393 138.432 66.5094 138.44 66.1794C138.44 65.5194 138.41 64.8444 138.342 64.1844C138.312 63.8544 138.26 63.5244 138.185 63.2019C138.155 63.0444 138.102 62.8868 138.057 62.7443C138.035 62.6768 138.005 62.6094 137.975 62.5494C137.96 62.4969 137.885 62.4594 137.99 62.5044C138.08 62.5119 138.05 62.4894 138.005 62.5269V62.5419ZM138.507 62.2419C138.567 62.3394 138.612 62.4218 138.65 62.5118C138.732 62.6843 138.785 62.8568 138.845 63.0293C138.957 63.3668 139.055 63.7119 139.145 64.0494C139.325 64.7319 139.452 65.4218 139.542 66.1268C139.587 66.4793 139.61 66.8393 139.61 67.2069C139.602 67.5819 139.595 67.9418 139.43 68.4218C139.257 68.8568 138.905 69.2769 138.44 69.4719C137.982 69.6819 137.495 69.6593 137.075 69.5468C136.235 69.3218 135.575 68.6094 135.44 67.7844C135.357 67.3719 135.455 66.9668 135.53 66.6368C135.612 66.2918 135.71 65.9544 135.83 65.6244C136.047 64.9644 136.317 64.3193 136.602 63.6818C136.752 63.3668 136.91 63.0518 137.097 62.7443C137.187 62.5868 137.292 62.4369 137.412 62.2869C137.472 62.2119 137.547 62.1369 137.637 62.0619C137.727 62.0019 137.862 61.8819 138.125 61.9269C138.395 62.0244 138.425 62.1518 138.5 62.2343L138.507 62.2419Z" fill="#92400E"/>
<path d="M75.9494 23.7601C75.9494 23.7601 75.8744 23.8126 75.8294 23.8501C75.7469 23.9251 75.6794 24.0151 75.6119 24.1051C75.4769 24.2851 75.3644 24.4876 75.2744 24.6826C75.0794 25.0876 74.9444 25.5076 74.8544 25.9351C74.8169 26.1451 74.7869 26.3626 74.7794 26.5801C74.7719 26.8051 74.7794 26.9926 74.8994 27.1576C75.1244 27.5026 75.7019 27.7051 76.1819 27.7126C76.4294 27.7201 76.6319 27.6676 76.7744 27.6001C76.9094 27.5326 76.9994 27.4351 77.0444 27.3001C77.0894 27.1876 77.0669 26.9701 77.0444 26.7676C77.0144 26.5576 76.9694 26.3476 76.9244 26.1301C76.8269 25.6951 76.6919 25.2601 76.5194 24.8251C76.4369 24.6076 76.3319 24.3976 76.2194 24.1876C76.1594 24.0826 76.0919 23.9851 76.0244 23.8951C75.9869 23.8501 75.9494 23.8051 75.9194 23.7751C75.8969 23.7376 75.8219 23.7226 75.9194 23.7451C76.0094 23.7451 75.9719 23.7301 75.9419 23.7601H75.9494ZM76.5569 23.5651C76.6169 23.6326 76.6619 23.7001 76.6994 23.7601C76.7819 23.8876 76.8419 24.0076 76.9019 24.1351C77.0219 24.3826 77.1269 24.6226 77.2244 24.8626C77.4194 25.3501 77.5769 25.8376 77.6969 26.3401C77.7569 26.5876 77.8019 26.8426 77.8169 27.0976C77.8319 27.3601 77.8394 27.6076 77.7194 27.9376C77.5844 28.2301 77.2919 28.5076 76.8869 28.6201C76.3019 28.7776 75.6419 28.8001 75.0569 28.6201C74.6219 28.4851 74.2169 28.1701 74.0669 27.7351C73.9319 27.3376 74.0144 26.8726 74.1119 26.4826C74.1644 26.2426 74.2394 26.0176 74.3294 25.7926C74.4944 25.3426 74.6969 24.9076 74.9219 24.4801C75.0419 24.2701 75.1694 24.0601 75.3119 23.8501C75.3869 23.7451 75.4694 23.6476 75.5744 23.5501C75.6269 23.4976 75.6869 23.4526 75.7619 23.4076C75.8369 23.3701 75.9494 23.2951 76.1969 23.3401C76.4444 23.4226 76.4744 23.5126 76.5494 23.5801L76.5569 23.5651Z" fill="#92400E"/>
<path d="M39.477 1.56709C39.5895 1.53709 39.507 1.56709 39.4845 1.61209C39.447 1.65709 39.4095 1.72458 39.3795 1.79208C39.312 1.92708 39.2445 2.07709 39.192 2.22709C39.0795 2.53459 38.982 2.85708 38.907 3.17958C38.7495 3.83208 38.6295 4.49208 38.5395 5.14458C38.502 5.47458 38.457 5.79709 38.442 6.11209C38.4195 6.41209 38.412 6.75708 38.4645 6.92958C38.517 7.13208 38.607 7.29709 38.757 7.40959C38.907 7.52209 39.1245 7.62708 39.372 7.63458C39.867 7.66458 40.4595 7.4096 40.6695 6.8996C40.782 6.6521 40.7895 6.35958 40.7745 6.01458C40.7595 5.68458 40.722 5.3546 40.677 5.0246C40.5645 4.3646 40.4145 3.70459 40.197 3.06709C40.092 2.75209 39.972 2.43708 39.8295 2.14458C39.7545 2.00208 39.6795 1.8596 39.597 1.7396C39.552 1.6796 39.507 1.62709 39.4695 1.58959C39.432 1.54459 39.3945 1.56709 39.492 1.56709H39.477ZM39.4095 0.967097C39.6795 0.959597 39.792 1.09459 39.8745 1.16959C39.957 1.25209 40.017 1.34209 40.0695 1.42459C40.1745 1.58959 40.2495 1.75459 40.3245 1.91959C40.467 2.24959 40.5795 2.57958 40.6845 2.91708C40.887 3.58458 41.0595 4.25959 41.1945 4.94209C41.262 5.28709 41.322 5.6321 41.352 5.9846C41.382 6.3221 41.427 6.7346 41.292 7.1321C41.052 7.9346 40.302 8.54958 39.4395 8.66208C39.012 8.71458 38.5245 8.66958 38.097 8.40708C37.662 8.15208 37.377 7.68708 37.257 7.22958C37.1595 6.72708 37.2045 6.37459 37.242 5.99959C37.2945 5.63209 37.362 5.27958 37.4595 4.93458C37.6395 4.24458 37.8645 3.58459 38.1345 2.93209C38.2695 2.60959 38.4045 2.27958 38.5695 1.95708C38.652 1.79958 38.7345 1.63458 38.832 1.46958C38.8845 1.38708 38.937 1.30459 39.012 1.22209C39.0945 1.14709 39.1395 1.0271 39.4245 0.967097H39.4095Z" fill="#92400E"/>
<path d="M74.1197 96.8243C74.1197 96.8918 74.1872 97.4168 74.2322 97.7468C74.2472 97.8593 74.3747 97.9118 74.4647 97.8368L75.1397 97.2593L76.3472 97.5968C76.4822 97.6343 76.5947 97.5068 76.5497 97.3793L76.2047 96.4718L76.4897 95.9318C76.5722 95.7743 76.4372 95.5868 76.2647 95.6168L75.5372 95.7443L74.9447 94.7918C74.8772 94.6793 74.7122 94.6868 74.6522 94.8068L74.1497 95.8568C74.1497 95.8568 73.0472 96.0218 73.0022 96.1568C72.9497 96.3143 74.1197 96.8243 74.1197 96.8243Z" fill="#92400E"/>
<path d="M98.899 35.6547C96.7915 36.3897 95.839 36.4272 95.839 36.4272C95.839 36.4272 96.5291 32.7222 96.6116 32.4672C96.6941 32.2122 96.6941 31.9497 96.0116 32.4672C95.3291 32.9847 90.7616 34.2747 90.7616 34.0197C90.7616 33.7647 92.0515 29.9697 91.7065 30.2322C91.3615 30.4947 87.919 31.9572 87.919 31.9572L88.0015 31.1847L88.774 27.7422C88.774 27.7422 85.4141 31.4472 84.8966 32.0472C84.3791 32.6472 77.9216 37.5597 75.3416 39.7122C72.7616 41.8647 63.6341 46.8597 60.7016 48.3222C57.7766 49.7847 55.1891 51.1647 54.9341 51.8472C54.8066 52.1922 55.0615 52.7997 55.534 53.0097C56.0065 53.2197 62.5915 53.5722 63.454 53.3997C64.3165 53.2272 77.4041 52.7097 77.9216 52.4097C78.4391 52.1097 82.744 51.3747 82.999 51.0747C83.254 50.7747 84.8515 48.2322 85.1965 47.4147C85.5415 46.5972 86.3591 45.4347 87.5216 44.8722C88.6841 44.3097 89.1565 45.6072 89.284 45.4722C89.4115 45.3372 90.0566 43.0647 90.7016 41.9847C91.3466 40.9047 93.154 41.3847 93.589 41.5122C94.024 41.6397 93.8441 40.8672 93.8441 40.8672C94.2716 38.9322 95.1491 37.1847 96.3416 37.0797C97.5341 36.9747 97.7215 39.1497 97.7215 39.1497L98.0666 39.5397L101.944 34.6347C101.944 34.6347 101.982 34.5897 98.884 35.6697L98.899 35.6547ZM84.8815 37.8822C84.4915 38.1972 83.6891 37.8972 83.4866 37.4772C83.4266 37.3497 83.404 37.2372 83.419 37.1322C83.479 36.6522 84.2141 36.3972 84.6566 36.5397C85.6091 36.8397 85.099 37.6947 84.874 37.8822H84.8815ZM88.489 33.8622C88.609 33.6222 88.8565 33.5022 89.239 33.7497C89.674 34.0272 89.479 34.6047 89.104 34.8147C88.4815 35.1672 88.2565 34.3122 88.489 33.8622ZM89.554 39.5547C88.8415 39.7647 88.5041 39.3147 88.5041 38.8197C88.5041 38.2722 88.909 37.6872 89.6515 37.8897C90.679 38.1672 90.2366 39.3447 89.5466 39.5547H89.554ZM92.8691 36.9972C92.5541 37.1472 92.1265 36.9897 92.224 36.3447C92.224 36.3447 92.3141 35.7372 92.9216 35.9472C93.5366 36.1572 93.1841 36.8472 92.8691 36.9972Z" fill="#92400E"/>
<path d="M21.9121 45.2323C21.9121 45.2323 21.8896 45.2323 21.8821 45.2323C21.6121 45.2173 21.4021 45.0073 21.3871 44.7373C21.3871 44.6848 21.0346 39.5848 18.0871 38.2873C17.7346 38.1298 17.6896 37.8523 17.6896 37.7398C17.6821 37.3423 18.0121 37.1773 18.3946 36.9823C19.3846 36.4873 21.6421 35.3773 22.1146 31.4998C22.1296 31.0348 22.1821 30.7423 22.1896 30.7348C22.2421 30.4648 22.4971 30.2848 22.7746 30.3148C23.0521 30.3523 23.2471 30.5923 23.2321 30.8698C23.2171 31.1623 23.1871 31.4398 23.1496 31.7098C23.1196 33.1423 23.5471 36.1573 27.5146 37.2973C27.7246 37.3573 27.8746 37.5373 27.8896 37.7548C27.9121 37.9723 27.7996 38.1748 27.6046 38.2723C27.5596 38.2948 23.1646 40.5823 22.4296 44.7898C22.3846 45.0448 22.1671 45.2248 21.9121 45.2248V45.2323Z" fill="#92400E"/>
<path d="M133.961 54.5623C133.961 54.5623 132.724 53.1973 132.649 53.0023C132.574 52.8073 131.621 54.4199 130.984 54.6299C130.346 54.8399 131.666 52.3948 131.801 51.8248C131.936 51.2473 130.181 50.0098 130.039 49.7623C129.896 49.5148 132.049 49.8748 132.596 49.9948C133.144 50.1148 133.519 48.1798 134.111 48.1573C134.479 48.1423 133.999 49.7773 134.096 50.3473C134.096 50.3473 135.746 49.9798 136.054 50.3173C136.324 50.6248 134.831 51.3523 134.224 51.7123C133.849 51.9373 134.246 53.2874 134.224 54.4424C134.216 54.8699 133.954 54.5698 133.954 54.5698L133.961 54.5623Z" fill="#92400E"/>
<path d="M47.4119 37.9573C47.1344 37.9573 46.8119 37.1848 46.7819 36.8998C46.7819 36.8473 47.4343 31.8373 43.2343 32.0998C43.0318 32.1148 42.9193 31.8448 42.9043 31.6423C42.8893 31.4398 42.9868 31.2448 43.1593 31.1323C43.3243 31.0348 47.9894 32.0098 47.1344 22.0348C47.1119 21.7348 47.3743 21.4873 47.6818 21.4873C48.0118 21.5173 48.2143 21.7273 48.2293 22.0273C48.6343 28.5973 46.6393 31.2298 52.6693 31.7473C52.9018 31.7698 53.0593 32.0023 53.0743 32.2348C53.0893 32.4673 52.9618 32.6848 52.7443 32.7823C52.6993 32.8048 47.5394 32.0023 47.9519 37.4398C47.9744 37.7248 47.6968 37.9423 47.4193 37.9498C47.4193 37.9498 47.4194 37.9498 47.4119 37.9498V37.9573Z" fill="#92400E"/>
<path d="M117.094 22.5221C117.042 22.5221 116.989 22.5221 116.937 22.4996C116.614 22.4096 116.427 22.0796 116.509 21.7571C116.547 21.6146 117.462 17.8946 121.797 15.9821C123.492 15.2321 126.042 15.217 127.879 14.9395C130.557 14.542 132.462 14.2571 133.827 12.4871C134.029 12.2246 134.412 12.1721 134.674 12.3746C134.937 12.5771 134.989 12.9596 134.787 13.2221C133.992 14.2571 132.747 15.2396 131.539 15.6746C130.212 16.1471 128.299 16.3271 126.837 16.5446C125.082 16.8071 123.859 16.7546 122.314 17.4371C118.534 19.1021 117.709 21.9445 117.679 22.0645C117.604 22.3345 117.357 22.5071 117.094 22.5071V22.5221Z" fill="#92400E"/>
<path d="M121.249 23.865C120.987 23.865 120.747 23.6925 120.672 23.4375C120.574 23.115 120.754 22.7775 121.077 22.68C121.257 22.6275 121.677 22.245 122.052 21.9075C123.252 20.82 125.059 19.1775 127.887 18.9225C128.989 18.825 129.987 18.8625 130.864 18.9C133.137 18.9975 134.974 18.5175 137.187 16.4025C139.542 14.16 141.282 15.0975 142.984 15.45C143.577 15.57 144.132 15.6825 144.687 15.6825C145.024 15.6825 145.294 15.9525 145.294 16.29C145.294 16.6275 145.024 16.8975 144.687 16.8975C144.012 16.8975 143.367 16.7625 142.737 16.635C141.117 16.305 139.722 16.02 137.824 17.8275C135.237 20.3025 133.392 20.4375 131.112 20.3475C130.227 20.31 129.004 20.04 127.984 20.13C125.562 20.3475 123.934 21.825 122.854 22.8075C122.277 23.3325 121.857 23.715 121.422 23.8425C121.362 23.8575 121.302 23.865 121.249 23.865Z" fill="#92400E"/>
<path d="M127.856 25.4317C127.624 25.4317 127.406 25.2967 127.301 25.0717C127.166 24.7642 127.099 24.2467 127.931 23.8642C131.216 22.3717 132.499 22.7467 134.599 23.0692C135.851 23.2642 137.014 23.6092 138.994 23.4517C140.831 23.3017 142.106 22.3942 143.276 21.6292C144.964 20.5267 147.026 19.7692 150.829 20.3092C151.159 20.3542 151.391 20.6617 151.346 20.9992C151.301 21.3367 150.986 21.5617 150.664 21.5167C147.311 21.0367 145.826 22.0042 144.259 23.0317C143.014 23.8417 141.716 24.9892 139.571 25.1617C137.449 25.3342 135.964 24.7942 134.644 24.5917C132.649 24.2842 131.074 24.0442 128.111 25.3792C128.029 25.4167 127.946 25.4317 127.864 25.4317H127.856Z" fill="#92400E"/>
<path d="M146.052 85.3348C146.284 85.4623 146.412 85.7248 146.359 85.9873C146.292 86.3173 145.969 86.5273 145.647 86.4598C145.467 86.4223 144.912 86.5573 144.424 86.6773C142.857 87.0673 140.479 87.6448 137.869 86.5273C136.849 86.0923 135.994 85.5748 135.237 85.1248C133.287 83.9548 131.442 83.5048 128.487 84.3148C125.352 85.1698 124.264 83.5123 122.929 82.3948C122.464 82.0048 122.029 81.6373 121.542 81.3748C121.249 81.2173 121.137 80.8498 121.294 80.5498C121.452 80.2498 121.819 80.1448 122.119 80.3023C122.712 80.6248 123.222 81.0448 123.709 81.4573C124.977 82.5148 126.072 83.4373 128.592 82.7473C132.042 81.8023 133.729 82.5598 135.694 83.7298C136.452 84.1798 137.404 85.0048 138.342 85.4098C140.577 86.3698 142.714 85.8448 144.132 85.4998C144.889 85.3123 145.437 85.1773 145.887 85.2673C145.947 85.2823 145.999 85.2973 146.052 85.3273V85.3348Z" fill="#92400E"/>
<path d="M121.737 84.2391C121.595 84.1641 121.392 84.2016 121.227 84.3666C120.995 84.5916 120.71 85.0266 121.047 85.6341C122.375 88.0491 123.35 88.1541 124.812 88.5741C125.682 88.8291 126.567 88.9116 127.722 89.7141C128.795 90.4641 129.155 91.6866 129.515 92.7516C130.04 94.2891 130.955 95.6466 133.58 96.4491C133.805 96.5166 134.097 96.3291 134.225 96.0216C134.352 95.7141 134.27 95.4066 134.045 95.3391C131.735 94.6341 131.277 93.2841 130.79 91.8591C130.407 90.7266 130.145 89.2866 128.892 88.4091C127.655 87.5466 126.477 87.5166 125.562 87.2541C124.175 86.8566 123.087 86.5341 121.88 84.3666C121.85 84.3066 121.805 84.2616 121.752 84.2391H121.737Z" fill="#92400E"/>
<path d="M123.582 76.522C123.394 76.537 123.23 76.687 123.17 76.9195C123.087 77.2345 123.08 77.7595 123.8 78.067C126.612 79.2895 127.617 78.817 129.297 78.3295C130.302 78.037 131.21 77.602 132.83 77.602C134.337 77.602 135.462 78.4045 136.49 79.072C137.967 80.032 139.714 80.632 142.752 79.7845C143.014 79.7095 143.172 79.387 143.105 79.057C143.037 78.727 142.76 78.5245 142.497 78.5995C139.82 79.342 138.522 78.4945 137.15 77.602C136.062 76.8895 134.892 75.8545 133.13 75.8545C131.39 75.8545 130.235 76.507 129.177 76.8145C127.587 77.2795 126.327 77.6395 123.792 76.552C123.725 76.522 123.649 76.5145 123.582 76.5145V76.522Z" fill="#92400E"/>
<path d="M1.27145 51.112C1.00895 51.1045 0.761469 51.262 0.678969 51.5245C0.573969 51.8395 0.738954 52.1845 1.06145 52.297C1.23395 52.357 1.64646 52.7545 2.00646 53.107C3.16896 54.232 4.91647 55.9345 7.73647 56.287C8.83147 56.422 9.82897 56.4145 10.714 56.407C12.9865 56.3845 14.809 56.9245 16.9465 59.1145C19.219 61.4395 20.9965 60.5545 22.7065 60.262C23.299 60.1645 23.8615 60.067 24.4165 60.082C24.754 60.097 25.0315 59.8345 25.0465 59.497C25.0615 59.1595 24.799 58.882 24.4615 58.867C23.7865 58.8445 23.134 58.957 22.504 59.062C20.8765 59.3395 19.4665 59.5795 17.6365 57.7045C15.1315 55.147 13.294 54.9445 11.014 54.9595C10.129 54.9595 8.89897 55.1995 7.87897 55.072C5.46397 54.772 3.88897 53.2345 2.83897 52.222C2.27647 51.6745 1.87145 51.2845 1.43645 51.1345C1.37645 51.112 1.31647 51.1045 1.26397 51.1045L1.27145 51.112Z" fill="#92400E"/>
<path d="M22.8043 62.4519C22.9693 62.4519 23.1193 62.5944 23.1793 62.8194C23.2693 63.1269 23.2993 63.6519 22.6918 64.0119C20.3218 65.4294 19.4368 65.0169 17.9593 64.6494C17.0818 64.4244 16.2718 64.0494 14.8693 64.1619C13.5643 64.2669 12.6343 65.1444 11.7868 65.8794C10.5568 66.9444 9.07927 67.6494 6.41677 67.0194C6.18427 66.9669 6.03426 66.6519 6.07926 66.3219C6.12426 65.9919 6.34927 65.7669 6.58177 65.8269C8.92927 66.3894 10.0093 65.4519 11.1493 64.4694C12.0568 63.6894 13.0093 62.5719 14.5318 62.4519C16.0318 62.3319 17.0668 62.9019 17.9893 63.1419C19.3843 63.4944 20.4868 63.7719 22.6243 62.5119C22.6843 62.4744 22.7443 62.4594 22.8043 62.4669V62.4519Z" fill="#92400E"/>
<path d="M25.1065 54.8618C25.2565 54.9743 25.324 55.1843 25.264 55.4168C25.174 55.7318 24.9115 56.1818 24.139 56.0918C21.0865 55.7243 20.464 54.8093 19.264 53.5418C18.544 52.7843 17.9815 51.9443 16.579 51.1268C15.274 50.3618 13.9015 50.4893 12.679 50.5493C10.9165 50.6318 9.10903 50.2643 6.91153 47.9993C6.71653 47.8043 6.74652 47.4443 6.97152 47.1968C7.19652 46.9493 7.53403 46.9118 7.72903 47.1068C9.66403 49.1018 11.209 49.0268 12.8515 48.9518C14.149 48.8918 15.679 48.5843 17.2015 49.4768C18.7015 50.3543 19.369 51.5018 20.1265 52.2968C21.2665 53.4968 22.1665 54.4493 24.904 54.7868C24.979 54.7943 25.0465 54.8243 25.099 54.8618H25.1065Z" fill="#92400E"/>
<path d="M30.1245 68.67C30.3945 68.655 30.5145 68.79 30.597 68.8575C30.6795 68.94 30.7395 69.0225 30.7995 69.105C30.9045 69.27 30.987 69.4275 31.062 69.5925C31.212 69.9225 31.3395 70.245 31.452 70.575C31.6695 71.235 31.8645 71.9025 32.0145 72.585C32.0895 72.9225 32.157 73.2675 32.202 73.62C32.2395 73.9575 32.292 74.3625 32.172 74.7675C31.9545 75.5775 31.2195 76.2075 30.357 76.3425C29.9295 76.41 29.442 76.38 29.007 76.1175C28.5645 75.8775 28.2645 75.42 28.137 74.9625C28.0245 74.4675 28.062 74.115 28.092 73.7325C28.1295 73.365 28.1895 73.0125 28.2795 72.6675C28.4445 71.9775 28.647 71.3025 28.902 70.6425C29.0295 70.3125 29.157 69.9825 29.307 69.66C29.382 69.495 29.457 69.33 29.5545 69.1725C29.607 69.09 29.652 69.0075 29.727 68.9175C29.8095 68.835 29.847 68.7225 30.132 68.6475L30.1245 68.67Z" fill="#92400E"/>
<path d="M81.3793 65.0622C81.4618 65.0922 81.3268 66.8848 81.5068 67.0423C81.6868 67.1998 82.8943 65.8498 83.0968 65.8648C83.3518 65.8873 85.8868 67.0572 86.0068 66.7497C86.1493 66.3747 84.9943 64.6422 84.8968 64.4397C84.7993 64.2372 85.9918 63.0597 86.1718 62.6622C86.1718 62.6622 86.4493 61.9723 83.8918 62.7748C83.8918 62.7748 82.9543 60.9447 82.6468 60.7422C82.3393 60.5397 81.5593 63.0147 81.5218 63.1647C81.4843 63.3147 79.5868 63.5623 79.3993 63.8548C79.2118 64.1473 80.2918 64.6722 81.3718 65.0622H81.3793Z" fill="#92400E"/>
</svg>
