<svg width="68" height="70" viewBox="0 0 68 70" fill="none" xmlns="http://www.w3.org/2000/svg">
<g filter="url(#filter0_d_238_394)">
<path d="M20.7357 41.0616L28.0283 38.499C29.7123 45.4401 26.8421 49.2767 26.681 49.4964C25.9196 50.4336 26.0514 51.8247 26.9886 52.6008C27.9404 53.377 29.3315 53.2305 30.1077 52.2933C30.3127 52.0444 34.7058 46.5237 32.231 37.02L36.9463 35.3653C40.944 44.3272 47.8412 45.8941 48.1487 45.9673C49.3348 46.2162 50.4917 45.4547 50.7552 44.2686C51.0188 43.0825 50.272 41.911 49.0859 41.6327C48.8662 41.5888 44.1949 40.4027 41.149 33.9009L47.2993 31.7483C48.4562 31.3382 49.0566 30.0789 48.6612 28.922C48.2512 27.7652 46.9918 27.1648 45.835 27.5748L39.6993 29.7274C38.3081 23.5039 41.5297 21.1462 41.6615 21.0584C42.6866 20.3994 42.9794 19.0229 42.3205 17.9979C41.7494 17.1192 40.6804 16.7678 39.7286 17.1046C39.5675 17.1632 39.4064 17.2364 39.26 17.3389C38.9964 17.5146 33.0511 21.4977 35.4965 31.2064L30.7813 32.8612C26.6225 23.7382 19.491 24.3532 19.1688 24.3825C18.9931 24.3971 18.832 24.4411 18.671 24.4997C17.7484 24.8218 17.1334 25.7444 17.2212 26.7694C17.3237 27.9702 18.3927 28.8781 19.5935 28.7902C19.7839 28.7902 23.767 28.5999 26.5639 34.3402L19.3006 36.8882C18.1438 37.2982 17.5288 38.5576 17.9388 39.7144C18.3488 40.8713 19.6081 41.4717 20.765 41.0763L20.7357 41.0616Z" fill="#3C2400"/>
</g>
<defs>
<filter id="filter0_d_238_394" x="0.566488" y="0.332113" width="66.8885" height="69.4159" filterUnits="userSpaceOnUse" color-interpolation-filters="sRGB">
<feFlood flood-opacity="0" result="BackgroundImageFix"/>
<feColorMatrix in="SourceAlpha" type="matrix" values="0 0 0 0 0 0 0 0 0 0 0 0 0 0 0 0 0 0 127 0" result="hardAlpha"/>
<feOffset/>
<feGaussianBlur stdDeviation="8.3232"/>
<feColorMatrix type="matrix" values="0 0 0 0 1 0 0 0 0 1 0 0 0 0 1 0 0 0 0.75 0"/>
<feBlend mode="normal" in2="BackgroundImageFix" result="effect1_dropShadow_238_394"/>
<feBlend mode="normal" in="SourceGraphic" in2="effect1_dropShadow_238_394" result="shape"/>
</filter>
</defs>
</svg>
