<svg width="69" height="66" viewBox="0 0 69 66" fill="none" xmlns="http://www.w3.org/2000/svg">
<g filter="url(#filter0_d_238_387)">
<path d="M19.046 17.8679C18.8117 17.8972 18.5481 17.9558 18.3284 18.0729C18.0795 18.2047 17.8598 18.3658 17.6841 18.5854C17.4937 18.8051 17.3619 19.0541 17.2741 19.3323C17.1862 19.6105 17.1569 19.8887 17.1716 20.1816L18.0355 31.8526C18.1234 33.0534 19.1485 33.9613 20.32 33.8734C21.4914 33.7856 22.3701 32.7312 22.2822 31.5305L21.8136 25.1605L32.6939 34.8546L29.194 38.8816C28.4179 39.7748 28.4911 41.166 29.3697 41.9714C30.2484 42.7914 31.5956 42.7182 32.3717 41.8103L35.9301 37.7247L48.1869 48.6636C49.0801 49.4543 50.4273 49.3664 51.1888 48.4439C51.5695 47.9899 51.7453 47.4188 51.7013 46.8477C51.6574 46.2913 51.4085 45.7494 50.9692 45.3541L38.771 34.4738L42.7833 29.8611C43.1934 29.4071 43.3691 28.8067 43.3252 28.2356C43.2812 27.6938 43.0469 27.152 42.6223 26.7713C41.7436 25.9659 40.3964 26.0391 39.6203 26.9324L35.564 31.589L24.6252 21.8217L30.6584 21.3824C31.8299 21.2945 32.7085 20.2402 32.6206 19.0394C32.5328 17.824 31.5077 16.9161 30.3362 17.0039L19.1924 17.824C19.1924 17.824 19.1338 17.8386 19.1045 17.8533L19.046 17.8679Z" fill="#3C2400"/>
</g>
<defs>
<filter id="filter0_d_238_387" x="0.521566" y="0.351645" width="67.8319" height="65.4959" filterUnits="userSpaceOnUse" color-interpolation-filters="sRGB">
<feFlood flood-opacity="0" result="BackgroundImageFix"/>
<feColorMatrix in="SourceAlpha" type="matrix" values="0 0 0 0 0 0 0 0 0 0 0 0 0 0 0 0 0 0 127 0" result="hardAlpha"/>
<feOffset/>
<feGaussianBlur stdDeviation="8.3232"/>
<feColorMatrix type="matrix" values="0 0 0 0 1 0 0 0 0 1 0 0 0 0 1 0 0 0 0.75 0"/>
<feBlend mode="normal" in2="BackgroundImageFix" result="effect1_dropShadow_238_387"/>
<feBlend mode="normal" in="SourceGraphic" in2="effect1_dropShadow_238_387" result="shape"/>
</filter>
</defs>
</svg>
