<svg width="150" height="118" viewBox="0 0 150 118" fill="none" xmlns="http://www.w3.org/2000/svg">
<path d="M42.1241 21.8674C42.1241 21.8674 40.7066 20.3074 40.6316 20.0899C40.5566 19.8724 39.454 21.7099 38.734 21.9499C38.014 22.1899 39.514 19.3999 39.6715 18.7399C39.829 18.0799 37.8191 16.6624 37.6616 16.3849C37.5041 16.1074 39.9566 16.5199 40.5866 16.6549C41.2166 16.7899 41.6366 14.5849 42.3191 14.5549C42.7391 14.5324 42.1916 16.4074 42.3041 17.0524C42.3041 17.0524 44.194 16.6324 44.539 17.0149C44.854 17.3674 43.1366 18.1999 42.4466 18.6124C42.0191 18.8674 42.4691 20.4124 42.4466 21.7324C42.4391 22.2274 42.1391 21.8749 42.1391 21.8749L42.1241 21.8674Z" fill="#92400E"/>
<path d="M54.4919 28.9468C54.1994 28.9468 53.9219 28.7143 53.9444 28.4293C54.3644 22.8868 49.1069 23.7043 49.0619 23.6818C48.8444 23.5843 48.7094 23.3668 48.7319 23.1268C48.7469 22.8868 48.9119 22.6543 49.1444 22.6318C55.2869 22.1068 53.2544 19.4218 53.6669 12.7318C53.6894 12.4243 53.8844 12.2143 54.2219 12.1768C54.5294 12.1768 54.7994 12.4243 54.7769 12.7318C53.9069 22.8868 58.6619 21.8893 58.8269 21.9943C58.9994 22.1068 59.1044 22.3018 59.0894 22.5118C59.0744 22.7218 58.9619 22.9918 58.7519 22.9843C54.4769 22.7143 55.1519 27.8218 55.1444 27.8743C55.1144 28.1593 54.7844 28.9468 54.4994 28.9468C54.4994 28.9468 54.4994 28.9468 54.4919 28.9468Z" fill="#92400E"/>
<path d="M116.937 96.8669C116.84 96.9044 116.997 98.9894 116.787 99.1769C116.577 99.3644 115.167 97.7819 114.927 97.8044C114.627 97.8269 111.672 99.1994 111.53 98.8394C111.357 98.3969 112.707 96.3869 112.827 96.1394C112.947 95.8919 111.552 94.5344 111.335 94.0619C111.335 94.0619 111.005 93.2519 113.997 94.1894C113.997 94.1894 115.092 92.0594 115.452 91.8119C115.812 91.5644 116.72 94.4594 116.765 94.6394C116.81 94.8194 119.03 95.0969 119.24 95.4494C119.45 95.8019 118.197 96.4019 116.937 96.8594V96.8669Z" fill="#92400E"/>
<path d="M137.824 25.6917C138.477 26.1267 139.497 26.0442 140.067 25.3617C141.357 23.8167 138.672 21.8292 137.524 23.5767C137.367 23.8242 137.247 24.1017 137.232 24.3942C137.187 24.9942 137.442 25.4292 137.824 25.6842V25.6917Z" fill="#92400E"/>
<path d="M136.129 70.6241C136.129 70.7591 135.987 70.8416 135.874 70.7666C135.679 70.6316 135.432 70.4591 135.379 70.4216C135.304 70.3691 134.419 70.8341 134.014 71.0516C133.932 71.0966 133.842 71.0216 133.864 70.9316L134.134 69.6941L133.159 68.7191C133.099 68.6591 133.137 68.5541 133.227 68.5541L134.494 68.4941L134.929 67.3691C134.967 67.2716 135.102 67.2641 135.154 67.3541L135.927 68.7041L137.097 68.6441C137.232 68.6441 137.299 68.8016 137.194 68.8916L136.107 69.8666L136.137 70.6241H136.129Z" fill="#92400E"/>
<path d="M20.9076 49.1223C20.9076 49.1223 22.7225 50.0223 23.225 50.0148C23.225 50.0148 23.5775 50.0448 23.5025 49.7298C23.4275 49.4148 22.835 47.4948 22.6925 47.2698C22.6925 47.2698 25.0475 44.7723 25.0475 44.6673C25.0475 44.5623 25.295 44.3148 24.8675 44.1573C24.5525 44.0448 21.3575 44.9673 21.3575 44.9673C21.3575 44.9673 19.295 42.5673 19.1075 42.3573C18.92 42.1473 18.5826 42.1698 18.4701 42.4923C18.3576 42.8148 18.2826 45.4398 18.2826 45.4398C18.2826 45.4398 15.425 45.8073 15.2 45.9498C14.975 46.0923 14.9451 46.3398 15.1401 46.4823C15.3351 46.6248 17.8925 47.9973 17.8925 47.9973L17.4876 51.6873C17.4876 51.6873 17.585 52.5273 18.26 51.9048C18.9425 51.2823 20.8925 49.1148 20.8925 49.1148L20.9076 49.1223Z" fill="#92400E"/>
<path d="M10.8503 47.9225C9.27528 47.0225 7.6853 46.1375 6.0878 45.275C5.2028 44.795 4.49778 43.9175 3.77028 43.115C3.04278 42.32 2.27027 41.5925 1.09277 41.5625" fill="#92400E"/>
<path d="M11.3379 48.1546C11.4579 47.8996 11.3604 47.5921 11.1129 47.4496C9.53793 46.5571 7.9329 45.6571 6.3429 44.7946C5.6679 44.4271 5.09041 43.7821 4.48291 43.0996L4.16792 42.7471C3.38042 41.8921 2.4954 41.0521 1.1004 41.0146C0.800403 41.0146 0.55291 41.2396 0.54541 41.5471C0.54541 41.8471 0.777927 42.0946 1.07793 42.1021C2.05293 42.1246 2.69042 42.7396 3.37293 43.4821L3.6804 43.8271C4.3254 44.5471 4.9929 45.2971 5.8329 45.7546C7.4154 46.6171 9.01291 47.5096 10.5804 48.3946C10.8429 48.5446 11.1729 48.4546 11.3229 48.1921C11.3229 48.1771 11.3379 48.1696 11.3454 48.1546H11.3379Z" fill="#92400E"/>
<path d="M14.2409 40.5418C12.9134 38.5693 7.82086 33.2143 6.00586 31.6543L14.2409 40.5418Z" fill="#92400E"/>
<path d="M14.7282 40.7747C14.8107 40.6097 14.7957 40.4072 14.6907 40.2422C13.1607 37.9772 8.03074 32.6897 6.35824 31.2422C6.13324 31.0472 5.78822 31.0697 5.59322 31.3022C5.39822 31.5272 5.42074 31.8722 5.65324 32.0672C7.25824 33.4472 12.3207 38.6597 13.7982 40.8497C13.9632 41.0972 14.3007 41.1647 14.5482 40.9997C14.6307 40.9397 14.6982 40.8647 14.7357 40.7822L14.7282 40.7747Z" fill="#92400E"/>
<path d="M18.4031 39.7476C17.3831 38.7201 16.9856 37.2426 16.2956 35.9526C15.5531 34.5801 14.3831 33.5001 13.1606 32.4951" fill="#92400E"/>
<path d="M18.8903 39.9796C18.9878 39.7771 18.9503 39.5296 18.7853 39.3646C18.1553 38.7271 17.7803 37.8796 17.3753 36.9721C17.1878 36.5521 16.9928 36.1096 16.7678 35.6896C15.9728 34.2121 14.7278 33.0796 13.4978 32.0746C13.2653 31.8871 12.9278 31.9171 12.7328 32.1496C12.5453 32.3821 12.5753 32.7196 12.8078 32.9146C13.9478 33.8521 15.1028 34.8946 15.8078 36.2071C16.0103 36.5896 16.1903 36.9871 16.3778 37.4146C16.7978 38.3671 17.2328 39.3496 18.0053 40.1296C18.2153 40.3396 18.5603 40.3471 18.7703 40.1296C18.8153 40.0846 18.8528 40.0321 18.8753 39.9796H18.8903Z" fill="#92400E"/>
<path d="M120.784 15.597C120.814 16.6245 120.769 17.7795 122.247 17.4345C123.724 17.0895 127.984 14.4495 128.569 14.727C129.154 15.0045 129.784 17.142 130.377 18.8745C130.969 20.607 131.659 22.2645 132.252 21.237C132.252 21.237 133.489 20.742 132.672 16.782C131.862 12.822 131.104 12.687 131.862 12.822C132.619 12.957 137.487 10.692 137.239 9.60447C136.992 8.51697 133.362 8.53197 131.449 8.76447C131.449 8.76447 131.554 6.97947 131.074 4.90947C130.594 2.83947 129.874 0.626966 128.914 0.949466C127.954 1.27947 126.792 6.10947 126.094 6.68697C125.397 7.26447 122.187 4.58697 121.204 4.81197C120.222 5.03697 121.992 8.67447 123.784 10.1295C123.784 10.1295 120.769 14.562 120.799 15.5895L120.784 15.597ZM125.554 10.2345C123.537 7.79697 124.902 8.31447 126.357 9.22197C127.812 10.1295 128.284 8.14947 128.937 7.37697C129.589 6.60447 129.072 9.31197 129.162 10.1295C129.252 10.947 132.319 10.332 132.919 10.6695C133.519 11.007 129.889 11.9295 130.534 12.9195C131.179 13.9095 131.652 17.742 131.652 17.742C131.352 19.572 130.834 15.5445 129.777 14.1345C128.719 12.7245 128.089 12.657 127.084 13.257C126.079 13.857 120.387 17.0295 122.854 14.2395C125.322 11.442 125.554 10.242 125.554 10.242V10.2345Z" fill="#92400E"/>
<path d="M69.1088 13.8343C69.0338 13.3768 68.6889 13.0468 67.9239 13.2418C67.0539 13.4668 67.0764 14.5243 67.5789 15.0793C68.4189 16.0018 69.2438 14.6968 69.1088 13.8343Z" fill="#92400E"/>
<path d="M131.832 77.0594C131.989 76.2344 130.902 75.4244 130.099 75.4094C128.359 75.3869 128.749 77.0894 129.019 77.5094C129.492 78.2369 130.977 78.1694 131.539 77.5919C131.704 77.4194 131.802 77.2394 131.832 77.0594Z" fill="#92400E"/>
<path d="M94.8264 8.51678C94.3914 8.37428 92.3139 8.78678 91.8414 8.51678C91.3689 8.24678 90.8214 5.93678 90.4164 5.05928C90.0114 4.18178 89.5989 6.41678 89.3964 7.43678C89.1939 8.45678 86.6814 7.77428 86.0739 8.04428C85.4664 8.31428 88.6539 9.60428 88.9239 9.87428C89.1939 10.1443 86.7489 12.1843 86.8914 12.6568C87.0339 13.1293 88.0464 13.3318 89.4714 11.7718C89.4714 11.7718 90.2514 10.7818 90.7914 11.5993C92.3364 13.9243 93.0789 14.4268 93.1314 14.1493C93.3189 13.1293 91.7739 10.3468 91.9089 10.0768C92.0439 9.80678 92.2314 9.70928 93.1314 9.53678C93.7614 9.41678 95.8464 8.85428 94.8264 8.51678Z" fill="#92400E"/>
<path d="M61.3767 34.7221C60.9792 34.5721 60.5592 34.6996 60.3717 35.3896C60.1542 36.1846 61.0017 36.6496 61.6692 36.4996C62.7867 36.2521 62.1267 34.9996 61.3842 34.7146L61.3767 34.7221Z" fill="#92400E"/>
<path d="M53.6139 37.8423C53.0289 37.3398 51.8889 37.8348 51.5139 38.4648C50.7039 39.8373 52.2339 40.3023 52.6839 40.2798C53.4789 40.2348 54.1014 39.0273 53.8989 38.3148C53.8389 38.1048 53.7339 37.9473 53.6139 37.8423Z" fill="#92400E"/>
<path d="M67.8047 73.2043C67.8047 73.2043 67.4821 73.2268 70.7521 73.3543C74.5321 73.4968 76.7147 73.9993 76.9697 76.0843C77.1797 77.8318 78.1846 84.2368 78.7096 82.5943C79.2346 80.9518 78.5972 74.7943 80.9822 74.0068C83.3597 73.2193 86.1272 72.9943 86.0597 72.3718C85.9547 71.3593 81.0947 73.2268 79.7147 67.4818C78.7847 63.6168 78.0422 61.7118 77.4872 61.7668C76.4897 61.8718 77.0221 70.0543 75.3346 70.7668C73.6471 71.4793 67.6697 72.1093 67.8047 73.2118V73.2043Z" fill="#92400E"/>
<path d="M62.1118 78.9947C62.1118 78.9947 63.1393 79.0847 63.2143 79.7447C63.3643 81.0947 61.0543 82.1822 60.9943 80.7122C60.9718 80.2847 61.5493 78.9422 62.1193 78.9947H62.1118Z" fill="#92400E"/>
<path d="M41.3221 79.7596C41.3221 79.7596 43.0246 77.8846 43.1221 77.6146C43.2196 77.3446 44.5396 79.5646 45.4096 79.8571C46.2796 80.1496 44.4646 76.7821 44.2771 75.9946C44.0896 75.2071 46.5046 73.4896 46.6996 73.1521C46.8946 72.8146 43.9321 73.3096 43.1746 73.4746C42.4171 73.6396 41.9071 70.9771 41.0896 70.9396C40.5871 70.9171 41.2471 73.1671 41.1121 73.9546C41.1121 73.9546 38.8396 73.4446 38.4196 73.9096C38.0446 74.3296 40.1071 75.3346 40.9396 75.8296C41.4571 76.1371 40.9096 77.9971 40.9396 79.5871C40.9546 80.1796 41.3071 79.7596 41.3071 79.7596H41.3221Z" fill="#92400E"/>
<path d="M36.6268 69.5144C37.2193 69.2069 37.9993 70.1144 37.9618 70.9394C37.8943 72.5669 36.5144 72.7619 36.3269 72.3944C35.9894 71.7269 35.9593 70.4819 36.2893 69.8669C36.3868 69.6869 36.4993 69.5669 36.6268 69.5069V69.5144Z" fill="#92400E"/>
<path d="M87.6045 65.1269C87.537 65.1494 87.6495 66.6944 87.492 66.8294C87.3345 66.9644 86.292 65.8019 86.1195 65.8169C85.902 65.8394 83.712 66.8444 83.6145 66.5819C83.487 66.2594 84.4845 64.7669 84.5745 64.5869C84.6645 64.4069 83.6295 63.4019 83.472 63.0569C83.472 63.0569 83.232 62.4569 85.437 63.1544C85.437 63.1544 86.247 61.5794 86.5095 61.3994C86.772 61.2194 87.447 63.3569 87.477 63.4844C87.507 63.6119 89.1495 63.8219 89.307 64.0844C89.4645 64.3469 88.542 64.7894 87.612 65.1269H87.6045Z" fill="#92400E"/>
<path d="M46.1296 66.2446C45.7321 66.0946 45.3121 66.2221 45.1246 66.9121C44.9071 67.7071 45.7546 68.1721 46.4221 68.0221C47.5396 67.7746 46.8796 66.5221 46.1371 66.2371L46.1296 66.2446Z" fill="#92400E"/>
<path d="M42.9941 84.6717C42.4166 84.0267 41.3066 83.7642 40.6466 84.8067C39.7391 86.2317 41.5166 87.1467 42.5441 86.6592C43.6166 86.1492 43.5191 85.2567 42.9941 84.6717Z" fill="#92400E"/>
<path d="M69.2672 80.3364C68.6822 79.8339 67.5422 80.3289 67.1672 80.9589C66.3572 82.3314 67.8872 82.7964 68.3372 82.7739C69.1322 82.7289 69.7547 81.5214 69.5522 80.8089C69.4922 80.5989 69.3872 80.4414 69.2672 80.3364Z" fill="#92400E"/>
<path d="M64.3549 71.3894C64.3549 71.3894 63.6049 70.7669 63.1024 71.6669C62.5999 72.5669 63.7474 73.0094 64.2799 72.8444C64.8124 72.6794 65.1499 72.0419 64.3474 71.3819L64.3549 71.3894Z" fill="#92400E"/>
<path d="M55.4072 71.6365C54.8297 70.9915 53.7197 70.729 53.0597 71.7715C52.1522 73.1965 53.9296 74.1115 54.9571 73.624C56.0296 73.114 55.9322 72.2215 55.4072 71.6365Z" fill="#92400E"/>
<path d="M86.756 23.082C84.326 19.227 78.2885 18.387 75.101 18.8895C71.9135 19.392 69.131 21.0045 68.0135 22.5795C66.5885 24.5895 64.1135 29.5845 67.2185 34.992C69.9485 39.7545 77.2835 41.367 78.4535 41.6145C79.631 41.8695 84.5735 42.537 86.756 36.582C88.9385 30.627 88.556 25.9395 86.756 23.082ZM85.556 37.7295C84.8435 39.657 82.946 40.5645 81.011 40.7745C80.096 40.872 79.1585 40.8345 78.2435 40.6845C76.2935 40.362 74.1485 39.432 72.4685 38.4045C70.256 37.0545 68.441 35.0445 67.616 32.592C65.9435 27.6195 67.331 23.0295 74.2685 19.9545C76.2935 19.062 80.981 19.902 82.4885 20.5695C83.996 21.237 86.6285 23.082 87.1835 27.282C87.7385 31.482 87.1835 33.3795 85.5635 37.737L85.556 37.7295Z" fill="#92400E"/>
<path d="M79.9089 37.5637C79.9089 37.5637 81.1914 38.1787 82.1439 37.4512C83.0964 36.7237 82.4814 35.9962 82.3089 36.0562C82.1364 36.1162 81.8589 36.8962 81.0264 36.9487C80.1939 37.0012 79.9614 36.9637 79.8789 37.1962C79.7964 37.4287 79.9089 37.5637 79.9089 37.5637Z" fill="#92400E"/>
<path d="M84.9487 28.0917C84.9487 27.9192 84.6937 27.2817 84.2812 27.2367C83.8687 27.1917 81.9037 26.7192 80.9662 28.4142C80.4862 29.2842 80.9212 30.1767 81.2587 31.5192C81.5962 32.8617 82.0537 33.7842 81.6337 33.8667C81.2137 33.9492 80.3737 33.8217 80.2912 34.0767C80.2087 34.3317 80.2912 34.6617 81.2962 34.5792C82.3012 34.4967 82.5562 34.4142 82.3462 33.7017C82.1362 32.9892 81.4237 30.2217 81.3787 29.7192C81.3337 29.2167 81.5737 28.3392 82.4512 28.1292C83.3287 27.9192 84.9412 28.5192 84.9412 28.0992L84.9487 28.0917Z" fill="#92400E"/>
<path d="M76.5871 29.5539C76.2121 29.1564 75.7471 29.1039 75.3271 29.0514C74.2771 28.9239 72.8146 29.5539 72.3946 30.7314C72.3946 30.7314 72.1246 31.2639 72.5821 31.1439C73.0396 31.0164 73.422 30.3039 74.262 30.0939C74.6445 29.9964 75.1321 29.9964 75.5071 30.0714C75.8821 30.1464 76.2645 30.1914 76.647 30.2439C76.7145 30.2514 76.8496 30.2739 76.8646 30.2139C76.9246 30.0264 76.6921 29.6814 76.5796 29.5614L76.5871 29.5539Z" fill="#92400E"/>
<path d="M82.2793 30.1317C82.2793 29.7942 82.6918 29.4642 83.0068 29.4342C83.2168 29.4117 83.4418 29.4042 83.5993 29.5542C83.7418 29.6892 83.8993 29.9742 83.8543 30.1692C83.8393 30.2292 83.8093 30.2817 83.7718 30.3342C83.4643 30.7467 82.8343 30.8067 82.4443 30.4617C82.3243 30.3567 82.2793 30.2442 82.2793 30.1317Z" fill="#92400E"/>
<path d="M73.7285 32.0443C73.7285 32.0443 73.7285 31.3243 74.531 31.0768C75.3335 30.8293 75.6635 31.0768 75.881 31.3768C76.0985 31.6768 75.6035 32.3968 74.7485 32.5093C73.8935 32.6218 73.7585 32.2918 73.7285 32.0443Z" fill="#92400E"/>
<path d="M74.6741 34.6996C73.6841 34.3546 72.484 34.2346 71.9665 34.8796C71.119 35.9446 72.184 37.3021 73.2865 37.5196C74.059 37.6696 75.0115 37.6771 75.7315 37.3171C76.5715 36.8971 76.6615 35.9296 75.9115 35.3371C75.6415 35.1196 75.1841 34.8871 74.6741 34.7071V34.6996Z" fill="#92400E"/>
<path d="M86.7268 31.3838C86.7268 31.3838 85.7218 31.2413 84.9118 32.3588C84.1018 33.4763 83.5693 34.1738 84.1018 34.9838C84.6343 35.7938 86.0293 35.4863 86.8393 33.8963C87.6493 32.3063 87.2893 31.5188 86.7268 31.3838Z" fill="#92400E"/>
<path d="M71.3669 24.424C71.3669 24.424 71.2395 29.6815 67.5495 33.3115L66.9194 31.9315C66.9194 31.9315 69.6344 28.969 69.9644 27.4015C70.2944 25.834 70.5269 23.9365 70.5269 23.9365L71.3669 24.424Z" fill="#92400E"/>
<path d="M70.0695 23.9518C70.0695 24.0343 69.7095 28.6168 66.7695 31.6093L66.7996 29.0818C66.7996 29.0818 68.3521 27.6868 69.2746 23.3818L70.0695 23.9518Z" fill="#92400E"/>
<path d="M80.7188 21.994C80.8612 22.0765 81.0787 24.484 83.3212 25.879C85.5562 27.274 87.4837 26.9665 87.4837 26.9665L87.4312 25.849C87.4312 25.849 85.1962 25.9765 83.5762 24.6715C81.9712 23.389 81.2587 21.124 81.2587 21.124L80.7262 21.994H80.7188Z" fill="#92400E"/>
<path d="M86.9368 24.3567C86.8543 24.3267 84.8667 23.5317 84.0267 22.5792C83.1867 21.6267 81.9868 20.1867 81.9268 20.0217C81.8668 19.8567 81.3643 20.8317 81.3643 20.8317C81.3643 20.8317 82.6468 23.6292 84.6943 24.5517C86.7343 25.4742 87.3492 25.3092 87.3492 25.3092L86.9292 24.3567H86.9368Z" fill="#92400E"/>
<path d="M73.9012 21.0266C73.9012 21.0266 73.6912 22.2941 74.2237 23.0966C74.7562 23.8991 76.7812 25.4966 78.4462 22.6916C80.1112 19.8866 81.9262 16.5116 81.3337 10.1741C80.7412 3.83665 78.4012 1.68415 77.6587 2.00665C76.9162 2.32915 79.4587 8.11915 77.5087 13.6841C75.5587 19.2566 73.9387 19.8266 73.9012 21.0191V21.0266Z" fill="#92400E"/>
<path d="M68.5537 23.8839C68.5537 23.8839 71.9512 25.0989 72.7012 25.3914C73.4512 25.6839 76.8112 27.5739 77.5237 28.1139C77.5237 28.1139 77.8612 28.4514 78.1912 28.3689C78.5212 28.2864 78.6487 27.9489 78.8587 27.4914C79.0687 27.0339 82.1737 20.1114 82.2937 19.9839C82.4137 19.8564 81.1612 19.6914 81.1612 19.6914C81.1612 19.6914 79.3162 23.4264 79.0612 24.0114C78.8062 24.5964 78.0937 26.4864 77.8837 26.5689C77.6737 26.6514 74.2087 24.6939 73.2862 24.3189C72.3637 23.9439 69.6637 22.2789 69.3712 22.3614C69.0787 22.4439 68.5312 23.8839 68.5312 23.8839H68.5537Z" fill="#92400E"/>
<path d="M76.2719 40.6918C76.2719 40.6918 73.4219 41.8693 72.6944 42.3718C71.9669 42.8743 68.2769 43.3243 66.8219 43.3768C65.3669 43.4293 58.6619 44.4943 56.6444 45.1093C54.6344 45.7243 51.2219 46.9018 50.3819 47.8468C49.5419 48.7918 50.1569 50.5843 50.5469 51.8143C50.9369 53.0443 51.4394 54.1618 52.9544 54.7243C54.4694 55.2868 63.1844 57.7468 67.1519 57.9118C71.1194 58.0768 79.8419 58.9768 81.4094 58.7518C82.9769 58.5268 83.8169 58.9768 84.3719 59.0893C84.9269 59.2018 87.7844 60.7693 89.4044 59.6518C89.4044 59.6518 90.8594 57.3568 91.1969 56.9143C91.5344 56.4718 92.9294 53.4493 92.5394 53.1718C92.1494 52.8943 91.4744 52.2793 90.6944 52.3918C89.9144 52.5043 89.4119 52.9543 89.0744 52.7818C88.7369 52.6093 89.8544 52.0018 89.8019 51.6643C89.7494 51.3268 88.7369 50.6593 87.9044 50.8243C87.0644 50.9893 86.0069 51.6043 85.3919 52.2193C84.7769 52.8343 83.6594 52.9993 82.7669 52.6093C81.8744 52.2193 76.6169 51.3793 75.5519 51.1018C74.4869 50.8243 65.2094 47.8618 61.8569 48.0268C61.8569 48.0268 60.2369 47.9143 60.1244 48.3043C60.0119 48.6943 59.9594 49.2568 60.2369 49.2568C60.5144 49.2568 63.7619 49.2568 65.1569 49.6468C66.5519 50.0368 76.7294 52.4443 78.5219 52.6693C80.3144 52.8943 83.5544 53.9518 84.6194 53.6218C85.6844 53.2918 87.2444 51.8293 87.6944 51.8893C88.1444 51.9493 88.6469 52.0543 88.4744 52.4518C88.3019 52.8493 88.4744 53.5693 89.3144 53.6293C90.1544 53.6893 91.1594 53.4643 90.9944 54.1918C90.8294 54.9193 88.5344 58.8868 88.3694 59.1118C88.2044 59.3368 87.3044 59.7268 86.5244 59.3368C85.7444 58.9468 83.5619 57.9418 82.5569 58.0543C81.5519 58.1668 69.2519 57.3868 67.8569 57.1018C66.4619 56.8243 58.6919 55.1443 57.5144 54.5893C56.3369 54.0268 52.3694 52.4068 51.9794 51.5668C51.5894 50.7268 51.2519 48.4393 51.8144 48.2143C52.3769 47.9893 54.8369 46.5943 56.0669 46.2568C57.2969 45.9193 64.2269 44.9743 65.5694 44.8018C66.9119 44.6368 72.0569 43.8493 72.8969 43.6243C73.7369 43.3993 77.0369 41.3893 77.1494 41.1643C77.2619 40.9393 76.4819 40.4368 76.3094 40.7143L76.2719 40.6918Z" fill="#92400E"/>
<path d="M83.5987 40.3613C83.5987 40.3613 84.0487 40.8113 84.6037 40.9238C85.1587 41.0363 89.0212 40.6988 90.4762 40.9763C91.9312 41.2538 95.7862 41.8163 97.1287 42.0938C98.4712 42.3713 104.561 44.1638 106.016 44.5013C107.471 44.8388 110.711 45.2813 112.331 45.5663C113.951 45.8438 119.486 47.5763 121.166 47.6363C122.846 47.6963 125.696 48.1388 126.364 48.4163C127.031 48.6938 126.589 49.6988 126.589 49.6988C126.589 49.6988 122.621 48.4163 121.946 48.4163C121.271 48.4163 117.806 48.0788 116.749 47.8538C115.691 47.6288 106.241 45.3938 105.229 45.2288C104.224 45.0638 96.0638 43.6088 95.1113 43.3313C94.1588 43.0538 89.8537 42.3263 88.4587 42.3788C87.0637 42.4313 83.7637 42.3263 83.3737 42.1538C82.9837 41.9813 82.5938 41.2613 82.5938 41.2613L83.5987 40.3688V40.3613Z" fill="#92400E"/>
<path d="M125.809 24.9261C125.877 24.7686 126.589 22.1286 125.862 20.9586C125.134 19.7886 122.007 20.9061 120.942 22.0761C119.877 23.2536 118.369 26.2686 119.044 29.2311C119.712 32.1936 121.842 35.6586 123.799 40.3011C125.757 44.9436 126.597 50.0811 126.312 51.3711C126.027 52.6611 131.119 50.8086 131.179 50.5311C131.239 50.2536 129.387 41.2536 126.649 37.6761C123.912 34.0986 121.677 27.1086 121.842 25.9386C122.007 24.7686 122.569 23.2536 123.349 23.1411C124.129 23.0286 124.354 24.3186 123.574 25.3761C122.794 26.4336 115.302 30.9111 110.434 33.7611C105.567 36.6111 94.6692 43.4361 89.5242 51.2586L89.0216 51.9861C89.0216 51.9861 88.5716 53.5536 89.6366 53.1636C90.1091 52.9911 96.3491 43.5486 106.182 37.8486C116.022 32.1486 120.664 29.7411 122.622 28.0086C124.579 26.2761 125.194 26.3886 125.809 24.9336V24.9261Z" fill="#92400E"/>
<path d="M131.959 54.8966C131.907 53.6141 132.237 52.4891 132.072 51.4316C131.907 50.3666 131.479 50.1641 131.179 50.5391C130.954 50.8166 129.282 50.9291 127.212 51.1541C125.142 51.3791 125.592 52.0466 124.977 52.6091C124.362 53.1716 124.752 57.9791 124.752 57.9791L124.917 59.0441C125.082 60.1091 127.654 59.8841 128.554 59.6591C129.447 59.4341 131.794 58.9316 132.079 58.3766C132.357 57.8141 132.027 56.1941 131.967 54.9116L131.959 54.8966ZM130.114 54.9491C130.062 56.1266 130.227 56.7941 129.499 57.2441C128.772 57.6941 127.264 57.9116 126.814 57.8066C126.364 57.6941 126.424 54.6791 126.702 53.6141C126.979 52.5491 128.712 52.3841 129.889 52.3316C130.069 52.3241 130.452 52.2791 130.617 52.3316C130.782 52.3841 130.167 53.7866 130.114 54.9566V54.9491Z" fill="#92400E"/>
<path d="M129.604 59.3142C129.604 59.3142 128.936 63.0567 127.144 65.4642C125.351 67.8717 120.941 73.2942 121.046 77.1492C121.159 81.0042 122.224 81.6192 123.507 81.3417C124.789 81.0642 124.511 80.2242 124.234 79.7742C123.956 79.3242 116.854 76.8642 115.347 76.1967C113.839 75.5292 104.884 70.8267 101.261 68.5392C97.1815 65.9667 89.689 60.2667 89.0215 59.4792L89.689 58.1367C89.689 58.1367 95.1715 62.9442 101.427 66.9117C107.682 70.8792 114.117 74.6292 115.624 75.1317C117.132 75.6342 121.211 77.5917 123.004 78.0417C124.796 78.4917 126.244 79.6092 126.079 81.1692C125.914 82.7367 124.684 85.0842 122.667 84.9717C120.657 84.8592 118.474 82.2867 118.474 78.9342C118.474 75.5817 119.539 71.7792 120.882 69.2067C122.224 66.6342 125.299 61.2642 125.636 59.2542L129.604 59.3067V59.3142Z" fill="#92400E"/>
<path d="M91.5338 48.8291C91.5338 48.8291 92.7113 48.8291 94.4663 49.0841C96.2288 49.3391 101.509 50.2616 102.604 50.4266C103.691 50.5916 107.299 52.0166 107.884 52.0166C108.469 52.0166 105.116 52.2716 105.116 52.2716C105.116 52.2716 103.526 51.9341 102.686 51.5141C101.846 51.0941 98.2838 50.6741 96.6938 50.5091C95.1038 50.3441 92.0363 50.0891 91.6238 50.0066C91.2038 49.9241 91.5413 48.8291 91.5413 48.8291H91.5338Z" fill="#92400E"/>
<path d="M92.4562 49.752C92.4562 49.752 94.8862 54.3645 95.2237 60.402C95.5612 66.4395 92.8762 73.9845 92.1187 75.162C91.3612 76.3395 89.7712 78.597 89.7712 78.597L88.5112 78.2595C88.5112 78.2595 91.4437 74.8245 92.3662 72.222C93.2887 69.6195 94.2112 62.412 94.1287 59.982C94.0462 57.552 92.7037 52.857 92.4487 52.017C92.1937 51.177 91.6087 50.007 91.6087 50.007L92.4487 49.752H92.4562Z" fill="#92400E"/>
<path d="M93.7165 69.2067C93.7165 69.2067 96.904 69.4617 99.919 70.7967C101.704 71.5917 105.372 74.8242 106.122 74.9892C106.872 75.1542 107.464 75.8292 107.884 77.5017C108.304 79.1742 109.309 83.0367 109.894 83.6217C110.479 84.2067 111.994 85.8042 112.497 86.1342C112.999 86.4642 112.497 86.3892 111.657 86.8917C110.817 87.3942 108.972 88.0692 108.634 87.9792C108.297 87.8892 108.379 86.0517 108.214 85.5492C108.049 85.0467 104.861 81.9417 103.181 79.3467C103.181 79.3467 102.927 78.9717 102.259 79.1817C101.592 79.3917 92.6965 78.6342 90.5215 77.2917L91.444 75.4917C91.444 75.4917 93.124 77.3367 97.819 77.7567C102.514 78.1767 103.984 77.8842 104.277 77.9667C104.569 78.0492 104.442 78.3417 104.149 78.5967C103.857 78.8517 104.067 78.9717 104.277 79.2267C104.487 79.4817 108.011 84.5967 108.386 84.8442C108.761 85.0917 109.099 84.7992 109.054 84.5892C109.009 84.3792 106.954 79.0092 106.661 77.7942C106.369 76.5792 106.324 76.4142 105.447 76.1142C104.569 75.8142 101.224 72.9117 99.784 72.3417C96.304 70.9617 93.4915 70.6617 93.2815 70.7892C93.0715 70.9167 93.7015 69.1992 93.7015 69.1992L93.7165 69.2067Z" fill="#92400E"/>
<path d="M86.1267 77.2995C86.2842 77.2545 90.0267 78.1395 93.9267 79.7295C97.8267 81.3195 101.389 84.342 102.147 85.4745C102.147 85.4745 102.402 86.0595 102.274 86.442C102.147 86.8245 99.4617 95.5395 98.5842 96.717C97.7067 97.8945 97.3692 97.977 97.4067 98.4795C97.4442 98.982 97.8642 99.0645 97.9917 99.5295C98.1192 99.9945 98.3667 102.799 98.4117 103.009C98.4567 103.219 97.7817 103.137 97.5342 102.882C97.2867 102.627 93.9717 100.872 93.7992 100.369C93.6267 99.867 93.3417 99.5745 93.5067 99.192C93.6717 98.8095 94.2642 98.397 94.2192 97.977C94.1742 97.557 93.6342 96.552 93.5892 96.0045C93.5442 95.457 93.4242 90.0495 93.6342 89.2095C93.6342 89.2095 93.2592 89.082 92.6292 89.3745C91.9992 89.667 87.7242 92.0145 82.6917 90.882C77.6592 89.7495 73.1292 88.782 72.3342 87.192C71.5392 85.602 73.8417 86.142 75.0567 86.8545C76.2717 87.567 82.4367 89.5395 85.6617 89.457C88.8867 89.3745 93.6717 88.077 94.3392 87.7395C95.0067 87.402 95.5167 87.867 95.4267 88.077C95.3367 88.287 94.7142 89.1645 94.6317 89.877C94.5492 90.5895 94.4667 95.367 94.8867 96.1245C95.3067 96.882 95.5167 97.632 95.3442 97.9695C95.1717 98.307 94.6767 98.7645 95.0892 99.1845C95.5017 99.6045 96.8892 100.444 96.8067 99.942C96.7242 99.4395 96.2217 98.352 96.3492 98.0145C96.4767 97.677 97.3542 96.7545 97.6467 95.877C97.9392 94.9995 100.369 87.657 100.579 86.7795C100.789 85.902 100.789 85.692 100.287 85.272C99.7842 84.852 95.4642 81.957 92.9067 81.207C90.3492 80.4495 86.4492 79.2345 85.9917 78.942C85.5342 78.6495 85.6992 77.4345 86.1192 77.307L86.1267 77.2995Z" fill="#92400E"/>
<path d="M58.6612 92.1863C58.8862 92.1338 70.0088 91.9088 74.4863 88.5488L77.0588 89.1638C77.0588 89.1638 75.5512 90.6713 72.8062 91.5113C70.0612 92.3513 67.9913 92.7413 66.6563 92.9663C65.6513 93.1313 60.5587 93.4688 58.3237 92.9663L58.6612 92.1863Z" fill="#92400E"/>
<path d="M73.3691 58.1367C73.3691 58.1367 73.5942 60.9342 72.4167 62.5542C71.2392 64.1742 67.4967 66.8592 62.2992 66.0192C57.1017 65.1792 52.7367 61.9392 46.8117 61.6617C40.8867 61.3842 37.3617 62.9442 36.5817 63.4542C35.8017 63.9642 31.3242 70.1667 31.0467 72.1167C30.7692 74.0667 29.7042 80.5017 34.2342 86.3742C38.7642 92.2467 41.1116 94.7067 42.5666 95.9892C42.5666 95.9892 43.7441 97.0542 43.4591 97.9467C43.1741 98.8392 41.7266 100.707 41.7266 102.252C41.7266 102.529 47.1492 108.852 51.5067 111.754C55.8642 114.664 55.2492 114.942 55.5342 114.942C55.8192 114.942 57.4917 114.829 57.5442 115.054C57.5967 115.279 57.3192 116.119 57.2067 116.397C57.0942 116.674 60.6192 116.562 60.7842 116.449C60.9492 116.337 59.6067 115.999 59.2767 115.722C58.9467 115.444 54.0792 110.074 52.9017 108.117C51.7242 106.159 51.0567 103.362 50.5542 102.919C50.0517 102.477 49.8267 101.854 49.9392 101.524C50.0517 101.194 55.7517 95.8242 56.9292 93.3642C58.1067 90.9042 60.1167 87.6042 60.1692 86.9892C60.2217 86.3742 60.7316 86.0367 60.9491 86.5992C61.1666 87.1617 59.2316 92.4117 58.0391 94.2042C56.8466 95.9967 54.2367 99.3492 51.6117 101.584C51.6117 101.584 51.2742 102.424 51.5592 103.039C51.8442 103.654 54.7991 109.024 55.9766 110.532C57.1541 112.039 59.5017 115.227 60.5592 115.789C61.6167 116.352 62.1792 116.794 61.5642 117.019C60.9492 117.244 56.2541 117.297 56.2541 117.297L55.9167 116.292C55.9167 116.292 54.4617 115.842 54.0717 115.729C53.6817 115.617 43.6167 108.739 40.9917 105.109C40.9917 105.109 40.0392 103.429 40.0992 102.702C40.1592 101.974 42.4466 98.5617 42.0566 97.8342C41.6666 97.1067 34.2267 91.2342 31.9917 85.2567C29.7567 79.2717 27.0717 71.9517 32.1567 65.0217C37.2417 58.0917 45.9116 60.2667 48.1466 60.6042C50.3816 60.9417 59.6891 64.2792 63.2441 64.4067C66.3716 64.5192 69.5067 64.2417 70.8492 61.7817C72.1917 59.3217 71.5167 58.1442 71.5167 58.1442H73.3617L73.3691 58.1367Z" fill="#92400E"/>
<path d="M65.1491 92.7422C65.1491 92.7422 63.6416 96.5447 61.8491 98.2772C60.0566 100.01 59.164 101.015 59.164 101.015C59.164 101.015 64.4741 106.94 65.9816 110.907C65.9816 110.907 67.0466 111.245 67.3241 111.297C67.6016 111.35 68.944 113.142 69.004 113.367C69.064 113.592 67.324 113.817 66.709 113.87C66.094 113.922 65.1416 112.805 64.8641 112.587C64.5866 112.37 63.0191 111.305 62.7941 111.08C62.5691 110.855 54.9641 107.84 52.6766 105.657L51.5591 103.032C51.5591 103.032 53.1266 103.76 54.2966 104.93C55.4666 106.1 61.7891 109.625 62.8541 110.187C63.9191 110.75 64.4741 111.192 64.7516 111.027C65.0291 110.862 63.7991 109.85 63.3566 109.07C62.9141 108.29 59.1641 102.417 58.8866 102.08C58.6091 101.742 58.2715 101.63 57.994 101.802C57.994 101.802 57.6041 101.69 57.7166 101.3C57.8291 100.91 63.589 95.0372 64.3165 92.8022L65.1566 92.7497L65.1491 92.7422Z" fill="#92400E"/>
<path d="M18.0191 68.5389C18.2366 69.5589 18.9716 70.3464 19.8491 70.6239C19.9241 70.6464 20.0066 70.6689 20.0891 70.6464C20.2016 70.6164 20.2691 70.5114 20.3291 70.4064C21.0041 69.1989 20.9366 67.8339 20.9891 66.4914C21.0416 65.0289 21.0191 63.5664 20.9291 62.1039C20.7041 58.2489 23.839 55.9014 26.3515 54.9489C28.864 53.9964 32.9516 55.4514 33.6791 57.9114C34.4066 60.3714 34.069 63.2214 34.129 63.3939L32.8466 65.2389C32.8466 65.2389 32.2316 59.9289 29.6066 59.7039C26.9816 59.4789 27.1991 62.7788 28.2116 65.0139C29.2166 67.2488 29.5541 71.2764 26.4791 74.1264C23.4041 76.9764 19.2116 75.0189 17.9816 73.2339C16.7516 71.4414 16.8641 68.6514 17.2016 67.8639C17.5391 67.0764 17.8166 67.4739 18.0416 68.5314L18.0191 68.5389Z" fill="#92400E"/>
<path d="M91.4819 52.4896C91.7069 52.6546 105.964 51.9871 107.584 51.8746C109.204 51.7621 114.912 51.0346 118.152 50.9821C121.392 50.9296 133.977 49.9771 134.982 49.9771C135.987 49.9771 138.619 49.5871 139.234 49.5271C139.849 49.4671 140.074 48.3496 139.797 47.9071C139.519 47.4646 138.454 46.6246 138.342 46.2871C138.229 45.9496 138.567 45.6196 139.737 46.0096C140.914 46.3996 148.399 49.3621 149.074 49.5871C149.749 49.8121 149.524 50.5921 148.407 51.0421C147.289 51.4921 139.182 54.8446 138.627 54.9571C138.072 55.0696 137.562 54.7321 137.847 54.2896C138.132 53.8471 139.857 52.4971 139.414 52.0546C138.972 51.6121 139.137 51.3871 137.622 51.4921C136.107 51.5971 130.017 51.8296 129.574 51.8821C129.132 51.9346 125.434 52.7221 124.429 52.8346C123.424 52.9471 113.697 53.7271 112.189 53.6146C110.682 53.5021 102.297 54.0646 101.119 53.9521C99.9419 53.8396 94.1294 54.4021 93.5744 54.2896C93.0194 54.1771 92.0669 54.2896 91.8944 54.2371C91.7219 54.1846 91.5044 52.5046 91.5044 52.5046L91.4819 52.4896Z" fill="#92400E"/>
<path d="M112.166 53.6067C112.751 53.4417 123.236 54.6942 125.501 54.1917L125.419 53.5242C125.419 53.5242 120.221 53.3592 118.961 52.9392C117.701 52.5192 112.166 53.6067 112.166 53.6067Z" fill="#92400E"/>
<path d="M51.5895 87.2591C51.5895 87.2591 51.5819 87.2591 51.5744 87.2591C51.4244 87.2516 51.3044 87.1316 51.2894 86.9816C51.2894 86.9516 51.0869 84.0566 49.4144 83.3141C49.2119 83.2241 49.1895 83.0666 49.1895 83.0066C49.1895 82.7816 49.3695 82.6841 49.5945 82.5791C50.157 82.3016 51.4394 81.6641 51.7094 79.4666C51.7169 79.2041 51.7469 79.0391 51.7544 79.0316C51.7844 78.8741 51.9269 78.7766 52.0844 78.7916C52.2419 78.8141 52.3545 78.9491 52.347 79.1066C52.3395 79.2716 52.3245 79.4291 52.302 79.5791C52.287 80.3966 52.527 82.1066 54.7845 82.7591C54.9045 82.7966 54.987 82.8941 55.002 83.0141C55.017 83.1341 54.9495 83.2541 54.837 83.3066C54.8145 83.3216 52.3094 84.6191 51.8969 87.0116C51.8744 87.1541 51.747 87.2591 51.6045 87.2591H51.5895Z" fill="#92400E"/>
<path d="M82.4064 112.969C82.4289 113.712 82.3989 114.537 83.4564 114.289C84.5139 114.042 87.5814 112.144 88.0014 112.347C88.4214 112.549 88.8714 114.079 89.2989 115.324C89.7264 116.569 90.2214 117.762 90.6489 117.027C90.6489 117.027 91.5339 116.674 90.9489 113.824C90.3639 110.974 89.8239 110.884 90.3639 110.982C90.9114 111.079 94.4064 109.452 94.2264 108.672C94.0464 107.892 91.4364 107.899 90.0639 108.072C90.0639 108.072 90.1389 106.789 89.7939 105.304C89.4489 103.819 88.9314 102.222 88.2414 102.462C87.5514 102.694 86.7114 106.167 86.2164 106.579C85.7139 106.992 83.4039 105.072 82.6989 105.229C81.9939 105.387 83.2689 108.004 84.5514 109.047C84.5514 109.047 82.3839 112.234 82.4064 112.969Z" fill="#92400E"/>
</svg>
