<svg width="68" height="82" viewBox="0 0 68 82" fill="none" xmlns="http://www.w3.org/2000/svg">
<g filter="url(#filter0_d_238_385)">
<path d="M20.9505 19.5021L22.986 27.2339C23.1763 27.9222 23.7035 28.4493 24.3918 28.5958C25.08 28.7422 25.7976 28.5079 26.2515 27.9661L28.082 25.7549C28.8434 26.7799 29.7221 28.3322 29.0924 29.0936L18.0071 42.4633C15.3273 45.6849 17.4214 49.9609 19.5301 51.7035C20.9359 52.875 22.6931 53.4314 24.4796 53.2704C24.6846 55.1301 25.6365 56.7702 26.9691 57.8831C28.3748 59.0546 30.1321 59.6111 31.9186 59.45C31.9186 59.45 31.9479 59.45 31.9626 59.45C32.2701 61.1194 33.1487 62.5984 34.3641 63.6088C35.7699 64.7803 37.5271 65.3367 39.3137 65.1757C40.6755 65.0585 42.6671 64.4581 44.4682 62.2762C45.3029 61.2804 45.1565 59.8161 44.1607 58.996C43.165 58.176 41.7006 58.3078 40.8659 59.3035C39.1965 61.3097 37.7468 60.3579 37.3368 60.0211C36.4728 59.3036 35.9456 57.9124 37.2782 56.3309L49.901 41.1307C50.7211 40.135 50.5893 38.6706 49.5935 37.8506C48.5978 37.0305 47.1334 37.1623 46.3133 38.1581L33.5001 53.6072C31.8308 55.6134 30.381 54.6615 29.971 54.3247C27.5402 52.3039 29.7953 50.2391 30.381 49.5362L42.4621 34.9658C43.2821 33.97 43.1503 32.5056 42.1545 31.6856C41.1588 30.8656 39.6944 30.9973 38.8744 31.9931L26.0611 47.4422C24.3918 49.4484 22.942 48.4965 22.532 48.1597C21.6827 47.4568 21.1555 46.0657 22.4734 44.4695L32.7094 32.1395C35.5502 28.7129 33.2073 24.437 31.1425 22.1672L32.8851 20.0585C33.3537 19.4874 33.4562 18.6967 33.1194 18.0377C33.0022 17.7887 32.8412 17.5837 32.6362 17.408C32.2994 17.1298 31.8454 16.9687 31.3914 16.9833L22.7517 17.203C22.1659 17.203 21.6241 17.4959 21.2873 17.9498C20.9359 18.4184 20.8187 19.0042 20.9652 19.5606L20.9505 19.5021Z" fill="#3C2400"/>
</g>
<defs>
<filter id="filter0_d_238_385" x="0.0957851" y="0.33602" width="66.9881" height="81.5135" filterUnits="userSpaceOnUse" color-interpolation-filters="sRGB">
<feFlood flood-opacity="0" result="BackgroundImageFix"/>
<feColorMatrix in="SourceAlpha" type="matrix" values="0 0 0 0 0 0 0 0 0 0 0 0 0 0 0 0 0 0 127 0" result="hardAlpha"/>
<feOffset/>
<feGaussianBlur stdDeviation="8.3232"/>
<feColorMatrix type="matrix" values="0 0 0 0 1 0 0 0 0 1 0 0 0 0 1 0 0 0 0.75 0"/>
<feBlend mode="normal" in2="BackgroundImageFix" result="effect1_dropShadow_238_385"/>
<feBlend mode="normal" in="SourceGraphic" in2="effect1_dropShadow_238_385" result="shape"/>
</filter>
</defs>
</svg>
