<svg width="142" height="120" viewBox="0 0 142 120" fill="none" xmlns="http://www.w3.org/2000/svg">
<path d="M37.0632 37.6633C37.0632 37.6633 37.0557 37.6633 37.0482 37.6633C36.9132 37.6633 36.8082 37.5508 36.8007 37.4158C36.8007 37.3933 36.6282 34.8433 35.1507 34.1983C34.9707 34.1233 34.9557 33.9808 34.9482 33.9283C34.9482 33.7258 35.1057 33.6433 35.3007 33.5533C35.7957 33.3058 36.9207 32.7508 37.1607 30.8158C37.1682 30.5833 37.1982 30.4408 37.1982 30.4333C37.2282 30.2983 37.3482 30.2083 37.4907 30.2233C37.6257 30.2383 37.7307 30.3583 37.7157 30.5008C37.7082 30.6433 37.6932 30.7858 37.6782 30.9208C37.6632 31.6333 37.8807 33.1408 39.8532 33.7108C39.9582 33.7408 40.0332 33.8308 40.0407 33.9358C40.0482 34.0408 39.9957 34.1458 39.8982 34.1983C39.8757 34.2133 37.6782 35.3533 37.3182 37.4533C37.2957 37.5808 37.1907 37.6708 37.0632 37.6708V37.6633Z" fill="#92400E"/>
<path d="M18.6803 13.8507C18.7403 13.8732 18.6428 15.1407 18.7703 15.2532C18.8978 15.3657 19.7603 14.4056 19.9028 14.4206C20.0828 14.4356 21.8828 15.2682 21.9728 15.0507C22.0778 14.7807 21.2528 13.5582 21.1853 13.4082C21.1178 13.2582 21.9653 12.4257 22.0928 12.1407C22.0928 12.1407 22.2953 11.6456 20.4728 12.2231C20.4728 12.2231 19.8053 10.9257 19.5878 10.7757C19.3703 10.6257 18.8153 12.3882 18.7853 12.4932C18.7553 12.5982 17.4053 12.7707 17.2778 12.9882C17.1503 13.2057 17.9078 13.5657 18.6803 13.8507Z" fill="#92400E"/>
<path d="M25.2877 65.1883C25.2877 65.1883 24.0502 63.8233 23.9752 63.6283C23.9002 63.4333 22.9477 65.0458 22.3102 65.2558C21.6727 65.4658 22.9927 63.0208 23.1277 62.4508C23.2627 61.8808 21.5077 60.6358 21.3652 60.3883C21.2227 60.1408 23.3752 60.5008 23.9227 60.6208C24.4777 60.7408 24.8452 58.8058 25.4377 58.7833C25.8052 58.7683 25.3252 60.4033 25.4227 60.9733C25.4227 60.9733 27.0727 60.6058 27.3802 60.9433C27.6502 61.2508 26.1577 61.9783 25.5502 62.3383C25.1752 62.5633 25.5727 63.9133 25.5502 65.0683C25.5427 65.4958 25.2802 65.1958 25.2802 65.1958L25.2877 65.1883Z" fill="#92400E"/>
<path d="M55.9097 61.821C55.9097 61.881 55.9697 62.331 56.0072 62.6085C56.0222 62.706 56.1347 62.7435 56.2022 62.6835L56.7797 62.196L57.8072 62.481C57.9197 62.511 58.0172 62.406 57.9797 62.2935L57.6872 61.521L57.9347 61.0635C58.0097 60.9285 57.8897 60.771 57.7397 60.801L57.1247 60.906L56.6222 60.096C56.5622 59.9985 56.4197 60.006 56.3747 60.111L55.9472 61.0035C55.9472 61.0035 55.0022 61.1385 54.9722 61.2585C54.9272 61.3935 55.9247 61.8285 55.9247 61.8285L55.9097 61.821Z" fill="#92400E"/>
<path d="M106.993 42.4707C107.045 42.4857 106.963 43.6107 107.075 43.7082C107.188 43.8057 107.945 42.9582 108.073 42.9732C108.23 42.9882 109.82 43.7232 109.895 43.5282C109.985 43.2957 109.265 42.2082 109.198 42.0807C109.13 41.9532 109.88 41.2182 110 40.9707C110 40.9707 110.173 40.5357 108.575 41.0382C108.575 41.0382 107.99 39.8982 107.795 39.7632C107.6 39.6282 107.12 41.1807 107.09 41.2782C107.06 41.3757 105.875 41.5257 105.763 41.7132C105.65 41.9007 106.318 42.2232 106.993 42.4707Z" fill="#92400E"/>
<path d="M53.2859 46.2281C53.5484 46.0706 53.8634 46.1081 54.0884 46.5806C54.3434 47.1206 53.7959 47.5631 53.3009 47.5406C52.4759 47.5031 52.7834 46.5281 53.2784 46.2281H53.2859Z" fill="#92400E"/>
<path d="M50.2637 51.0951C50.5937 50.5626 51.3587 50.2326 51.9587 50.8926C52.7912 51.8001 51.6362 52.6776 50.8337 52.4601C50.0012 52.2351 49.9562 51.5826 50.2562 51.1026L50.2637 51.0951Z" fill="#92400E"/>
<path d="M46.3109 46.3253C46.6634 45.8903 47.5409 46.1003 47.8859 46.5053C48.6434 47.3828 47.6084 47.9153 47.2784 47.9528C46.7009 48.0203 46.1009 47.2403 46.1609 46.7003C46.1759 46.5428 46.2284 46.4153 46.3034 46.3253H46.3109Z" fill="#92400E"/>
<path d="M55.4161 50.9597C55.4161 50.9597 55.8736 50.4197 56.3461 50.9972C56.8186 51.5747 56.0536 52.0397 55.6486 51.9947C55.2436 51.9497 54.9211 51.5297 55.4161 50.9597Z" fill="#92400E"/>
<path d="M57.2453 1.40047C57.3578 1.38547 57.2753 1.40047 57.2453 1.44547C57.2078 1.49047 57.1628 1.55047 57.1178 1.61047C57.0353 1.73797 56.9528 1.87296 56.8778 2.02296C56.7353 2.31546 56.6003 2.62296 56.4878 2.93796C56.2628 3.56796 56.0603 4.20547 55.9028 4.85047C55.8278 5.17297 55.7528 5.48796 55.7003 5.80296C55.6478 6.10296 55.6028 6.44048 55.6253 6.61298C55.6553 6.82298 55.7303 6.98797 55.8578 7.12297C55.9928 7.25047 56.1953 7.37796 56.4428 7.41546C56.9303 7.50546 57.5453 7.31046 57.8153 6.83046C57.9578 6.59796 57.9953 6.30546 58.0178 5.96796C58.0403 5.63796 58.0403 5.30797 58.0328 4.97047C57.9953 4.30297 57.9203 3.62797 57.7778 2.97547C57.7103 2.64547 57.6203 2.32297 57.5153 2.01547C57.4628 1.86547 57.3953 1.71546 57.3278 1.58046C57.2903 1.51296 57.2528 1.46046 57.2228 1.41546C57.1928 1.36296 57.1478 1.38546 57.2453 1.39296V1.40047ZM57.2453 0.792969C57.5153 0.815469 57.6128 0.965466 57.6878 1.04797C57.7628 1.14547 57.8078 1.23548 57.8528 1.31798C57.9353 1.49048 57.9953 1.66296 58.0478 1.83546C58.1528 2.18046 58.2278 2.51798 58.2953 2.86298C58.4228 3.55298 58.5203 4.23546 58.5728 4.93296C58.6028 5.27796 58.6178 5.63046 58.6178 5.98296C58.6103 6.32046 58.6028 6.73296 58.4228 7.11546C58.0928 7.88796 57.2753 8.41296 56.4128 8.42796C55.9778 8.42796 55.4978 8.33796 55.1078 8.02296C54.7028 7.72296 54.4703 7.22796 54.4103 6.76296C54.3728 6.25296 54.4478 5.90796 54.5303 5.54046C54.6203 5.18046 54.7328 4.84296 54.8603 4.51296C55.1153 3.85296 55.4153 3.21546 55.7528 2.59296C55.9253 2.28546 56.0978 1.97796 56.2928 1.67796C56.3903 1.52796 56.4878 1.37796 56.6078 1.22796C56.6678 1.15296 56.7278 1.07797 56.8103 1.00297C56.9003 0.935468 56.9603 0.822969 57.2453 0.792969Z" fill="#92400E"/>
<path d="M99.545 54.1332C99.365 54.1332 99.1625 53.6382 99.14 53.4582C99.14 53.4282 99.56 50.2107 96.8675 50.3757C96.74 50.3832 96.665 50.2107 96.65 50.0832C96.635 49.9557 96.7025 49.8282 96.815 49.7607C96.92 49.6932 99.9125 50.3232 99.365 43.9257C99.35 43.7307 99.5225 43.5732 99.7175 43.5732C99.935 43.5957 100.055 43.7307 100.07 43.9182C100.333 48.1332 99.05 49.8282 102.92 50.1582C103.07 50.1732 103.168 50.3232 103.183 50.4732C103.198 50.6232 103.108 50.7657 102.973 50.8257C102.943 50.8407 99.6275 50.3232 99.8975 53.8182C99.9125 53.9982 99.7325 54.1407 99.5525 54.1482L99.545 54.1332Z" fill="#92400E"/>
<path d="M55.8508 54.2456C55.8508 54.2456 55.6408 54.2456 57.7033 54.4406C60.0883 54.6581 61.4533 55.0406 61.5433 56.3681C61.6183 57.4781 62.0458 61.5581 62.4283 60.5381C62.8108 59.5181 62.6158 55.6031 64.1458 55.1906C65.6758 54.7706 67.4308 54.7181 67.4083 54.3206C67.3708 53.6756 64.2433 54.6956 63.5608 51.0206C63.1008 48.5456 62.6933 47.3181 62.3383 47.3381C61.7083 47.3681 61.7683 52.5581 60.6808 52.9556C59.5933 53.3531 55.7908 53.5556 55.8433 54.2531L55.8508 54.2456Z" fill="#92400E"/>
<path d="M24.8227 87.9052C24.8227 87.9052 24.8152 87.9052 24.8077 87.9052C24.6577 87.8977 24.5377 87.7777 24.5302 87.6277C24.5302 87.5977 24.3277 84.7102 22.6552 83.9677C22.4527 83.8777 22.4302 83.7202 22.4302 83.6602C22.4302 83.4352 22.6102 83.3377 22.8277 83.2327C23.3902 82.9552 24.6652 82.3177 24.9352 80.1277C24.9427 79.8652 24.9727 79.7002 24.9802 79.6927C25.0102 79.5352 25.1527 79.4377 25.3102 79.4527C25.4677 79.4752 25.5802 79.6102 25.5727 79.7677C25.5652 79.9327 25.5502 80.0902 25.5277 80.2402C25.5127 81.0502 25.7527 82.7602 28.0027 83.4127C28.1227 83.4502 28.2052 83.5477 28.2202 83.6677C28.2352 83.7877 28.1677 83.9077 28.0552 83.9602C28.0327 83.9752 25.5352 85.2652 25.1227 87.6577C25.1002 87.8002 24.9727 87.9052 24.8302 87.9052H24.8227Z" fill="#92400E"/>
<path d="M19.0406 53.4429C19.0406 53.5104 19.1081 54.0204 19.1456 54.3354C19.1606 54.4404 19.2881 54.4929 19.3706 54.4254L20.0231 53.8704L21.1931 54.1929C21.3206 54.2304 21.4331 54.1029 21.3881 53.9829L21.0506 53.1054L21.3281 52.5879C21.4106 52.4379 21.2831 52.2579 21.1106 52.2879L20.4131 52.4079L19.8431 51.4854C19.7756 51.3804 19.6181 51.3879 19.5656 51.5004L19.0781 52.5129C19.0781 52.5129 18.0056 52.6704 17.9681 52.8054C17.9231 52.9554 19.0481 53.4504 19.0481 53.4504L19.0406 53.4429Z" fill="#92400E"/>
<path d="M46.7687 18.238C46.9262 18.583 46.8437 18.9729 46.2287 19.1904C45.5312 19.4379 45.0587 18.703 45.1487 18.0955C45.2987 17.0755 46.4687 17.5929 46.7687 18.2454V18.238Z" fill="#92400E"/>
<path d="M41.158 13.8651C41.773 14.3451 42.0805 15.3276 41.188 15.9876C39.9655 16.8951 39.028 15.3501 39.403 14.3976C39.793 13.4001 40.603 13.4301 41.158 13.8651Z" fill="#92400E"/>
<path d="M47.5634 9.62008C48.0509 10.1151 47.6834 11.1726 47.1359 11.5476C45.9509 12.3651 45.4334 11.0226 45.4259 10.6101C45.4109 9.89009 46.4609 9.25259 47.1134 9.39509C47.3084 9.44009 47.4509 9.51509 47.5559 9.62759L47.5634 9.62008Z" fill="#92400E"/>
<path d="M40.6483 20.2476C40.6483 20.2476 41.2558 20.8851 40.4758 21.3876C39.6958 21.8976 39.2233 20.8925 39.3358 20.3975C39.4483 19.9025 40.0033 19.5651 40.6408 20.2401L40.6483 20.2476Z" fill="#92400E"/>
<path d="M87.0053 8.75144C87.3353 8.62394 87.6803 8.72896 87.8378 9.30646C88.0178 9.95896 87.3203 10.349 86.7653 10.2215C85.8428 10.019 86.3903 8.98394 87.0053 8.75144Z" fill="#92400E"/>
<path d="M82.648 13.5888C83.128 13.0563 84.043 12.8388 84.583 13.6938C85.333 14.8713 83.863 15.6288 83.0155 15.2238C82.1305 14.8038 82.213 14.0688 82.6405 13.5888H82.648Z" fill="#92400E"/>
<path d="M79.1902 7.46847C79.6702 7.05597 80.6077 7.46097 80.9227 7.98597C81.5902 9.11847 80.3302 9.50097 79.9552 9.48597C79.2952 9.44847 78.7852 8.45097 78.9577 7.86597C79.0102 7.69347 79.0927 7.56598 79.1977 7.47598L79.1902 7.46847Z" fill="#92400E"/>
<path d="M88.4455 14.4657C88.4455 14.4657 89.068 13.9557 89.4805 14.6982C89.893 15.4407 88.948 15.8082 88.5055 15.6732C88.063 15.5382 87.7855 15.0057 88.4455 14.4732V14.4657Z" fill="#92400E"/>
<path d="M78.4624 70.4832C78.0574 69.5082 77.3149 67.3257 76.8574 63.5982C76.3999 59.8632 74.9599 55.7307 73.0099 52.9782C71.0599 50.2257 67.3249 46.8357 66.0049 45.6282C64.6849 44.4207 61.5874 41.7807 60.9499 40.8057C60.3199 39.8307 59.6899 39.0807 59.3449 38.1657C58.9999 37.2507 58.5424 36.2157 58.0249 35.0682C57.5074 33.9207 56.8174 31.9857 55.9024 31.6782C54.9874 31.3707 55.2724 31.2207 55.4449 30.6432C55.6174 30.0657 56.4799 30.0132 56.8774 28.0632C57.2824 26.1132 58.0249 24.5607 58.3099 23.6457L58.5949 22.7307C58.5949 22.7307 58.8274 20.4357 59.4574 20.2032C60.0874 19.9707 61.8649 20.0907 62.4424 19.4007C63.0199 18.7107 63.5374 18.0207 64.0174 17.5932C64.4974 17.1657 64.6249 17.1657 65.0524 17.5932C65.4799 18.0207 66.7774 19.2282 68.1124 19.2732C69.4474 19.3182 69.6199 18.7108 70.1824 19.3183C70.7449 19.9258 72.2524 21.2982 73.1074 22.6782C73.9624 24.0582 75.3874 26.5557 76.5949 26.6832C77.8024 26.8107 77.7574 26.4657 78.0574 25.8657C78.3574 25.2657 78.4849 24.4482 78.2749 23.8857C78.0649 23.3232 76.1674 21.5157 75.8224 20.9157C75.4774 20.3157 74.7424 18.8457 74.4424 17.6832C74.1424 16.5207 72.7624 15.9207 72.1174 16.0032C71.4724 16.0857 71.6449 15.5757 71.3824 15.3132C71.1199 15.0507 69.0124 13.1157 66.4774 13.5507C63.9424 13.9857 62.7349 13.9782 62.1724 13.9407C61.6099 13.9032 59.3749 13.8132 57.4399 15.3207C55.5049 16.8282 55.9324 16.6557 54.0424 17.4732C52.1524 18.2907 49.3099 21.1333 48.1849 23.6308C47.0599 26.1283 45.6424 26.5257 46.3774 29.3982C46.3774 29.3982 46.8049 29.9982 46.8499 30.4332C46.8949 30.8682 46.1899 30.8607 46.1749 31.1682C46.1599 31.4757 45.1474 34.4832 44.5999 35.6907C44.0524 36.8982 43.4524 38.8782 43.6624 40.6857C43.6624 40.6857 43.7074 41.6757 44.0899 42.1482C44.0899 42.1482 44.1724 42.3207 44.0074 42.7482C43.8424 43.1757 42.9274 43.9107 43.2724 47.2257C43.6174 50.5407 44.5174 54.1557 45.8974 56.6982C47.2774 59.2407 47.6224 60.1858 49.6849 62.6833C51.7474 65.1808 53.7724 66.7707 57.4324 69.3582C61.0924 71.9382 64.4524 72.6282 66.1699 72.9732C67.8949 73.3182 68.7949 73.4757 70.8199 73.9482C71.2099 74.0382 73.6924 74.6982 74.1499 74.6982C74.6074 74.6982 74.3824 74.6382 74.1499 73.9482C73.9174 73.2582 72.2899 70.2732 72.6199 69.5832C72.9499 68.8932 73.1899 68.4357 74.4199 69.1257C75.6499 69.8157 76.9324 71.2482 77.8399 71.4207C78.7474 71.5932 78.8599 71.4808 78.4624 70.5058V70.4832ZM77.2024 69.9357C76.4299 69.2457 74.3599 67.5283 72.9349 68.3008C71.5099 69.0732 72.1174 70.7082 72.2899 71.8332C72.4624 72.9582 73.3249 73.5582 72.7174 73.6407C72.1099 73.7232 67.3474 71.8258 67.3474 71.8258C63.4399 70.4233 60.5824 69.6057 58.2049 68.0832C54.2449 65.5557 52.7074 63.3057 49.6924 59.2332C44.8699 52.7232 45.1024 47.2632 45.3274 45.9057C45.5599 44.5482 44.7649 42.5757 44.7499 40.7382C44.7424 38.9232 45.8524 37.9482 46.6024 36.1932C47.2849 34.6033 47.2174 31.8132 47.2174 31.8132C47.4949 30.8982 47.9074 30.4632 47.4499 29.8932C46.9924 29.3157 48.0799 28.5732 48.8299 26.3907C49.5799 24.2082 51.9874 20.7657 52.9624 19.7907C53.9374 18.8157 55.2574 18.3582 56.1199 17.3832C56.9824 16.4082 59.1424 16.0032 60.3499 15.4857C61.5574 14.9682 63.8149 15.0807 64.0099 14.7357C64.2049 14.3907 65.2474 14.7357 65.2474 14.7357C65.2474 14.7357 65.9074 15.4257 67.2874 15.5982C68.6674 15.7707 70.0399 15.1707 70.3849 15.6807C70.7299 16.1907 71.2474 16.8882 71.7649 16.8882C72.2824 16.8882 72.3649 17.4132 72.9724 17.7582C73.5799 18.1032 74.0674 19.9407 74.6749 21.0657C75.2824 22.1907 76.5274 23.4732 77.1499 24.2532C77.7724 25.0257 77.6524 25.5357 77.3824 25.8432C76.8724 26.4357 76.2424 25.6707 75.6424 25.0707C75.0424 24.4707 73.9174 21.8832 73.1449 20.9382C72.3724 19.9932 70.6474 18.5307 70.1299 18.0882C69.6124 17.6457 68.9224 18.2682 68.2324 18.5232C67.5424 18.7782 65.8249 17.6607 65.2174 16.9707C64.6174 16.2807 64.1824 16.2807 64.0099 16.9707C63.8374 17.6607 62.2024 18.3507 61.4299 18.9507C60.6574 19.5507 59.4499 19.2057 58.7599 19.6407C58.0699 20.0682 57.0949 23.6157 56.6074 25.7532C56.0599 28.1757 54.3049 29.0682 54.0349 30.1032C53.7199 31.3182 54.5449 31.1757 54.9724 31.3632C55.3999 31.5507 56.5249 33.5907 56.5249 33.5907C57.3874 35.3157 58.5049 38.0682 58.7674 39.0957C59.0224 40.1232 60.3199 41.6007 61.5199 43.1457C62.7199 44.6907 67.3774 49.2582 69.6124 50.9832C71.8474 52.7082 73.2274 55.0332 74.3449 57.6132C75.4624 60.1932 76.1524 63.8157 76.2424 65.0157C76.3324 66.2157 76.7599 68.0307 77.1874 69.0657C77.6149 70.1007 77.1874 69.9282 77.1874 69.9282L77.2024 69.9357Z" fill="#92400E"/>
<path d="M44.5999 42.5155C44.5999 42.5155 46.3324 43.1605 48.7474 43.2055C51.1624 43.2505 54.7774 42.433 56.1499 41.788C57.5299 41.143 58.9474 39.8755 59.2924 39.3355C59.6374 38.7955 58.7299 37.873 58.7299 37.873C58.7299 37.873 58.3849 38.3455 58.0849 38.608C57.7849 38.8705 56.0599 40.0255 55.3324 40.288C54.5974 40.543 52.0624 41.4956 51.1099 41.8406C50.1649 42.1856 49.3024 42.313 48.3124 42.1855C47.3224 42.058 45.2749 41.068 44.7649 40.768C44.2549 40.468 44.5924 42.5305 44.5924 42.5305L44.5999 42.5155Z" fill="#92400E"/>
<path d="M108.501 73.123C107.593 68.773 106.866 65.113 104.323 63.6505C101.781 62.188 97.9931 59.473 95.7956 58.438C93.5981 57.403 91.0181 57.2305 90.1106 57.148C89.2031 57.0655 88.8206 57.6205 88.8206 57.6205C88.8206 57.6205 88.8506 58.048 88.8806 58.3105C88.9106 58.573 86.5406 61.198 86.5406 61.198C86.1131 63.913 88.6106 68.818 89.3381 70.2805C90.0656 71.743 90.1106 72.733 92.1806 75.2305C94.2506 77.728 98.5931 79.063 99.8006 79.1455C101.008 79.228 101.871 78.973 101.736 78.628C101.601 78.283 101.391 78.1105 99.8381 77.2105C98.2856 76.303 96.3056 73.078 96.3956 72.9505C96.4856 72.823 98.2031 72.088 100.956 72.6955C103.708 73.303 104.488 75.103 104.488 76.573C104.488 78.043 103.371 79.8055 103.408 80.3155C103.446 80.8255 105.043 80.878 105.171 81.6955C105.298 82.513 104.308 84.6205 104.053 85.183C103.798 85.7455 103.318 86.563 103.798 86.518C104.278 86.473 105.351 86.0905 106.423 84.238C107.503 82.3855 109.393 77.4805 108.493 73.1305L108.501 73.123ZM97.6181 76.6555C98.6831 77.3455 98.4356 77.6005 97.6331 77.3455C96.8306 77.0905 94.0481 75.3205 93.4406 74.6755C93.4406 74.6755 92.9756 74.293 93.4406 74.113C93.7631 73.9855 95.1581 73.3405 95.3681 73.2955C95.5781 73.2505 96.5456 75.9655 97.6181 76.6555ZM107.856 76.2655C107.728 78.8455 106.821 82.5055 106.393 82.5055C105.966 82.5055 106.266 81.943 106.176 81.043C106.086 80.143 105.096 80.1805 104.841 79.753C104.586 79.3255 105.658 77.173 105.576 75.8755C105.493 74.578 104.496 72.508 102.906 71.8255C101.316 71.143 99.8456 70.9255 98.4281 71.053C97.0106 71.1805 95.8856 72.733 94.2506 72.343C92.6156 71.953 91.2806 71.608 89.9456 68.9005C88.6106 66.1855 88.0481 64.678 87.7031 63.6505C87.3581 62.623 87.3131 61.6705 87.4856 61.0705C87.6581 60.4705 88.7756 60.163 89.5106 59.1355C89.6531 58.9405 89.5931 58.4005 90.7181 58.573C91.8356 58.7455 95.7131 59.308 96.8306 60.253C97.9481 61.198 100.146 60.4705 101.263 62.623C102.381 64.7755 104.833 67.573 106.131 69.208C107.421 70.843 107.983 73.6855 107.856 76.2655Z" fill="#92400E"/>
<path d="M67.7758 72.9505C67.7758 72.9505 66.7408 72.763 66.1858 72.9505C66.1858 72.9505 63.5608 73.858 62.5258 73.9405C61.4908 74.023 57.7033 74.9755 57.2758 75.1855C56.8483 75.3955 56.2408 75.4405 55.8958 75.958C55.5508 76.4755 54.0433 78.283 53.6983 79.573C53.3533 80.863 52.8808 82.498 52.9258 83.1055C52.9708 83.713 54.1708 84.3955 55.3783 84.268C56.5858 84.1405 57.1858 83.8405 57.1408 83.323C57.0958 82.8055 56.8408 81.598 57.0133 80.7805C57.1858 79.963 57.3133 78.943 57.6133 78.613C57.9133 78.283 57.7408 78.5155 58.3483 78.613C58.9483 78.7105 59.5558 78.328 60.5008 78.1555C61.4458 77.983 62.4808 77.983 63.5983 77.638C64.7158 77.293 65.5333 76.7305 66.1783 75.958C66.8233 75.1855 68.9308 73.948 69.5458 73.6255L67.7758 72.943V72.9505ZM56.8183 79.6255C57.0133 80.788 56.0008 81.853 56.0458 82.3255C56.0908 82.798 55.8283 83.0155 54.8833 83.0605C53.9383 83.1055 53.9983 83.2855 53.7883 82.9855C53.5783 82.6855 54.1333 82.423 54.3058 81.7405C54.4783 81.058 54.8533 80.0605 55.1083 79.213C55.3633 78.3655 56.1958 75.928 56.5033 76.3105C56.5033 76.3105 56.6758 76.228 56.8033 76.7005C56.9308 77.173 56.8858 77.398 57.1483 77.8255C57.4033 78.253 56.6308 78.4705 56.8258 79.633L56.8183 79.6255ZM64.9333 75.883C64.2883 76.4005 63.8533 77.0005 62.8633 77.0905C61.8733 77.1805 59.0758 77.7805 58.6033 77.8255C58.1308 77.8705 57.5233 77.4805 57.5233 76.8805C57.5233 76.2805 57.6958 76.468 58.2583 76.2655C58.8208 76.063 60.2983 75.853 61.7608 75.3805C63.2233 74.908 63.8233 75.0205 64.7308 74.5405L65.8333 74.9755C65.8333 74.9755 65.5708 75.373 64.9258 75.8905L64.9333 75.883Z" fill="#92400E"/>
<path d="M72.3357 108.906C71.0457 109.296 68.6757 108.988 68.3307 108.951C67.9857 108.913 68.2857 107.638 68.2032 107.263C68.1207 106.888 67.8582 106.933 67.3857 106.933C66.9132 106.933 64.8882 106.461 64.3707 104.781C63.8532 103.101 64.1982 99.7857 64.9332 98.7507C65.6682 97.7157 68.9832 102.021 69.0207 104.173C69.0207 104.173 69.0657 105.553 69.6207 104.218C70.1757 102.883 70.7007 99.6957 67.5132 95.8632C67.5132 95.8632 66.8232 95.5632 66.4332 95.6082C66.4332 95.6082 66.9957 94.0182 66.5157 92.3757C66.0357 90.7332 62.8107 87.5982 62.1882 86.8632C61.5657 86.1282 58.8132 83.3157 57.9507 83.1207C57.0807 82.9257 57.1332 83.3382 57.1332 83.3382L56.9457 83.7957C56.9457 83.7957 57.9132 84.2832 58.7307 84.9732C59.5482 85.6632 63.0357 89.0607 63.6357 90.2232C64.2357 91.3857 64.7532 93.4557 64.7157 94.6182C64.6782 95.7807 64.8357 97.0257 64.0257 98.1507C63.2082 99.2682 62.6082 101.766 62.9082 102.711C63.2082 103.656 63.5082 106.108 64.4607 107.016C65.4132 107.923 65.8407 108.433 65.3232 108.396C64.8057 108.358 63.4707 107.533 62.8707 107.061C62.2707 106.588 58.9107 103.146 58.1382 102.066C57.3657 100.986 56.2407 100.086 55.8132 98.6682C55.3857 97.2507 54.4782 95.6982 53.9157 93.9357C53.3532 92.1732 52.8807 89.8482 53.0982 88.5957C53.3157 87.3432 53.2257 86.0157 53.4432 85.1982C53.6607 84.3807 53.9157 83.7807 53.9157 83.7807L52.9257 83.1357C52.9257 83.1357 52.4082 83.1357 52.4532 84.5157C52.4982 85.8957 51.0732 87.8307 51.9807 90.6282C52.8882 93.4257 53.3982 100.446 57.7482 104.661C62.0982 108.883 64.7682 110.173 68.1657 110.383C71.5632 110.593 72.5982 109.521 73.3332 109.048C74.0682 108.576 73.6332 108.531 72.3432 108.921L72.3357 108.906ZM66.4782 96.5007C67.7232 97.4082 68.6757 99.5607 68.9307 101.061C69.1857 102.561 68.9307 101.751 68.9307 101.751C68.5032 99.8157 65.5332 98.0082 65.6607 97.9182C65.7882 97.8282 66.4782 96.5007 66.4782 96.5007Z" fill="#92400E"/>
<path d="M60.4105 69.9811C60.5755 69.5536 60.238 68.0011 60.4105 66.7936C60.583 65.5861 61.6255 62.4886 62.6755 62.0161C63.7255 61.5436 64.3705 61.5886 64.843 62.0161C65.3155 62.4436 66.823 63.8236 67.903 63.8236C68.983 63.8236 69.3205 63.9061 69.493 63.5236C69.6655 63.1411 69.193 61.5436 69.238 60.7261C69.283 59.9086 69.193 58.6186 69.238 58.3561C69.283 58.0936 69.493 58.1836 70.0555 57.9286C70.618 57.6736 72.4255 57.7561 73.4155 58.3186C74.4055 58.8811 74.818 59.5561 75.613 60.2986C76.408 61.0411 75.958 61.7611 75.958 61.7611C75.958 61.7611 74.878 61.0261 74.578 60.7261C74.278 60.4261 73.198 59.7811 72.4255 59.3461C71.653 58.9186 70.918 58.6561 70.873 59.0461C70.828 59.4361 70.9555 60.3811 71.0905 61.6711C71.2255 62.9611 70.7455 63.9961 70.528 64.4236C70.3105 64.8511 69.583 64.8136 69.238 64.8511C68.893 64.8886 67.648 64.7686 66.868 64.5061C66.0955 64.2511 64.7605 63.1711 64.288 62.9536C63.8155 62.7361 63.253 62.6611 62.8705 63.2836C62.488 63.9061 61.6255 65.7136 61.5355 66.6136C61.4455 67.5136 61.2355 70.0636 61.4905 70.5136C61.7455 70.9636 60.4105 69.9736 60.4105 69.9736V69.9811Z" fill="#92400E"/>
<path d="M47.5029 31.0862C47.5029 31.0862 49.7303 31.8362 51.4103 31.5812C53.0903 31.3262 55.0104 31.5812 55.4604 31.6337C55.9029 31.6787 54.9879 31.3787 54.9879 31.3787L55.4454 30.6512L55.0704 29.9087C55.0704 29.9087 53.9079 30.2087 52.9629 30.2537C52.0179 30.2987 50.1203 30.4712 49.3928 30.4262C48.6653 30.3812 47.3229 29.8262 47.0229 29.9087C46.7229 29.9912 47.7804 30.3512 47.5104 31.0937L47.5029 31.0862Z" fill="#92400E"/>
<path d="M54.8981 17.8853C55.0256 17.8403 56.1356 17.3828 56.1356 17.3828C56.1356 17.3828 56.7131 17.8853 57.2231 17.8853C57.7331 17.8853 58.6406 18.2303 59.0756 18.4478C59.5106 18.6653 61.2281 18.5753 61.4456 18.9653C61.6631 19.3553 61.1306 19.7003 60.3656 19.7378C59.6006 19.7753 58.7831 19.6553 58.7831 19.6553C58.7831 19.6553 58.1381 19.1378 57.7931 19.0103C57.4481 18.8828 56.8031 18.6053 56.5856 18.5678C56.3681 18.5303 55.0781 18.1028 54.4781 18.2303C53.8781 18.3578 54.9056 17.8853 54.9056 17.8853H54.8981Z" fill="#92400E"/>
<path d="M64.9326 14.3532C64.9326 14.3532 64.5876 15.1257 64.6326 15.4707C64.6776 15.8157 64.4976 16.2882 64.7826 16.9332C64.7826 16.9332 64.4826 16.6782 64.3551 16.9332C64.2276 17.1882 64.0251 17.3757 64.0251 17.3757C64.0251 17.3757 63.8601 16.5432 63.8976 16.1307C63.9351 15.7182 64.1151 14.3457 64.1151 14.3457H64.9326V14.3532Z" fill="#92400E"/>
<path d="M71.0677 16.1455C71.0677 16.1455 70.2727 16.7905 70.1827 17.008C70.0927 17.2255 69.8827 17.8705 69.8302 18.253C69.7777 18.6355 71.0677 19.393 71.0677 19.393C71.0677 19.393 70.9852 18.298 71.2627 17.863C71.5402 17.428 72.4702 16.618 72.4702 16.618L71.0677 16.1455Z" fill="#92400E"/>
<path d="M88.828 57.6278C88.6555 57.4103 87.583 57.3278 86.848 56.9828C86.113 56.6378 84.568 55.5203 83.488 55.6478C82.408 55.7753 81.9355 56.2928 81.3805 56.9828C80.8255 57.6728 80.1355 58.2278 79.7905 59.1353C79.4455 60.0428 76.7755 63.3128 76.5205 64.1753C76.5205 64.1753 76.7755 66.0728 76.948 66.4553C77.1205 66.8378 77.593 66.5003 78.1105 67.0553C78.628 67.6103 79.318 67.2728 79.663 66.7103C80.008 66.1478 81.343 62.3153 81.5605 61.4603C81.778 60.6053 82.1605 59.3078 82.1605 58.8803C82.1605 58.4528 82.5055 58.6253 82.8955 59.3078C83.2855 59.9903 84.5755 60.7703 85.5655 60.9878L86.5555 61.2053C86.5555 61.2053 88.513 59.3528 88.8955 58.9253C89.278 58.4978 89.008 57.8453 88.8355 57.6353L88.828 57.6278ZM79.783 63.9953C79.438 65.4278 78.8005 66.4853 78.403 66.0428C78.0055 65.6003 78.403 64.7453 78.403 64.7453C78.343 64.5128 79.318 62.4503 79.783 62.0453C80.2405 61.6403 80.128 62.5628 79.783 63.9953ZM86.593 60.0353C86.0755 60.0353 83.4055 58.2953 84.523 57.7853C84.973 57.5828 87.538 58.2203 87.793 58.4378C88.048 58.6553 87.1105 60.0353 86.593 60.0353Z" fill="#92400E"/>
<path d="M52.9556 65.0605C53.3981 65.458 55.0556 66.9956 55.5806 67.5056C54.6956 66.6506 53.6831 65.6905 52.9556 65.0605Z" fill="#92400E"/>
<path d="M55.5803 67.5129C56.1128 68.0379 55.6703 68.0754 54.5828 67.8429C53.4953 67.6104 52.5428 66.9804 51.8678 66.9279C51.1928 66.8679 49.8653 66.3354 49.1153 66.0504C48.3728 65.7654 47.9753 65.3529 47.5178 65.0679C47.0603 64.7829 46.2953 64.1454 46.9628 64.2204C46.9628 64.2204 49.7603 64.5204 50.2778 64.6329C50.7953 64.7454 52.5053 64.6779 52.9103 65.0304C52.5128 64.6854 52.1978 64.4379 52.0553 64.3854C51.3653 64.1304 46.9328 63.4404 46.2878 63.3954C45.6428 63.3504 45.6878 63.0954 45.1703 63.6129C44.6528 64.1304 44.6003 64.9029 44.6003 64.9029C43.9028 66.1929 44.2253 68.7804 44.6003 70.3254C44.9753 71.8704 45.6428 75.8379 45.6428 76.8729C45.6428 77.9079 45.2153 79.7604 44.6003 80.1054C43.9853 80.4504 42.1178 81.1854 41.2553 81.8679C40.3928 82.5579 41.0378 83.0604 41.0378 83.0604C42.2453 82.8354 44.9153 81.9954 45.3428 81.7329C45.7703 81.4704 45.9878 80.6529 45.9878 80.6529C46.5878 80.0079 47.8403 75.7854 47.5778 73.2879C47.3153 70.7904 46.8053 68.6379 46.7603 67.9479C46.7153 67.2579 47.0153 66.9129 47.4053 66.9579C47.7953 67.0029 48.6128 67.3479 49.7753 67.6479C50.9378 67.9479 52.9628 68.5929 54.1703 68.9379C55.3778 69.2829 57.4403 69.3279 57.4403 69.3279C57.4403 69.3279 56.6003 68.4879 55.5803 67.5054V67.5129Z" fill="#92400E"/>
<path d="M43.5353 46.3032C42.8003 46.2582 37.4678 45.1407 36.7328 44.9232C35.9978 44.7057 35.6153 43.6332 34.7078 43.7157C33.8003 43.7982 33.2453 43.3707 32.7728 43.7157C32.3003 44.0607 31.9553 44.7957 31.7378 45.6957C31.5203 46.5957 31.7378 47.8482 31.3478 48.6207C30.9578 49.3932 30.1028 51.6807 29.9303 52.1532C29.7578 52.6257 29.9753 52.7532 29.3303 53.0982C28.6853 53.4432 27.3053 54.1332 26.6153 54.4782C25.9253 54.8232 26.6153 54.9957 26.6153 54.9957C28.0328 54.8682 29.8853 54.2232 30.2303 54.0507C30.5753 53.8782 31.4378 53.2332 32.1653 51.6507C32.8928 50.0682 33.1553 47.5482 33.3278 46.6407C33.5003 45.7332 33.8003 45.7332 33.9728 46.0782C34.1453 46.4232 35.6528 48.0132 35.9978 48.3207C36.3428 48.6282 37.5503 49.1382 39.0953 49.5282C40.6403 49.9182 43.9628 49.5282 43.9628 49.5282C43.9628 49.5282 44.2628 46.3407 43.5353 46.2957V46.3032ZM43.1978 48.1557C43.1978 48.1557 42.4178 48.2157 41.8403 48.1557C41.2628 48.0957 39.0278 47.8707 38.3978 47.5782C37.7678 47.2932 36.3878 47.2932 35.6978 46.4307C35.0078 45.5682 34.5503 44.8257 34.5503 44.8257C34.5503 44.8257 35.0978 44.5407 35.1653 44.4807C35.2403 44.4207 35.8703 45.5682 35.8703 45.5682C35.8703 45.5682 37.5353 45.8532 38.1128 45.9132C38.6903 45.9732 43.2803 47.2107 43.2803 47.2107L43.2053 48.1557H43.1978Z" fill="#92400E"/>
<path d="M78.493 36.2306C78.0655 36.0581 77.803 36.7931 77.413 37.4381C77.023 38.0831 76.8506 38.9456 76.5506 39.0281C76.2506 39.1106 76.468 39.3281 74.2705 39.6356C72.073 39.9356 69.6206 38.7731 69.1481 38.1281C68.6756 37.4831 67.4681 36.7931 66.7781 36.7481C66.0881 36.7031 66.0431 37.3106 65.4431 37.8656C64.8431 38.4206 62.6006 40.0181 62.0006 40.3631C61.4006 40.7081 60.9355 41.3081 60.9355 41.3081L62.3006 42.8156L64.4081 42.0806C66.6881 40.7456 66.733 39.7106 66.9055 39.2381C67.078 38.7656 67.078 38.5481 67.423 38.7806C67.768 39.0131 68.503 39.5456 68.503 39.5456C70.7005 41.6156 73.7156 41.3981 74.4881 41.3081C75.2606 41.2181 75.9055 40.4906 77.0305 40.0631C78.148 39.6356 78.3655 38.2556 78.493 37.8656C78.6206 37.4756 78.9205 36.4031 78.493 36.2306ZM65.833 40.1906C65.3605 40.5806 64.0555 41.9756 63.103 42.0656L62.413 41.5931C62.5855 41.3756 64.5581 40.4531 64.9481 40.0631C65.3381 39.6731 65.9305 39.5531 66.043 39.5156C66.3205 39.4256 66.3055 39.8081 65.8255 40.1981L65.833 40.1906Z" fill="#92400E"/>
<path d="M92.8705 46.3486C92.2255 46.4311 91.2355 46.9937 90.373 47.3387C89.5105 47.6837 88.2205 47.5112 87.103 47.5112C85.9855 47.5112 82.5805 46.6037 82.063 46.4312C81.5455 46.2587 80.773 45.9587 80.383 45.9137C79.993 45.8687 79.5655 46.4311 79.1755 47.1211C78.7855 47.8111 77.368 49.6186 76.8505 50.3536C76.333 51.0886 75.1705 52.5062 74.698 52.8512C74.2255 53.1962 73.2805 53.8861 73.1455 54.0136L75.043 56.7662C75.9955 56.4962 77.7955 54.7411 78.358 52.6786C78.9205 50.6161 80.383 47.6011 80.728 47.1661C81.073 46.7311 83.653 47.9011 85.378 48.4561C87.103 49.0186 91.018 48.5837 91.018 48.5837C92.098 48.3287 92.743 47.8486 93.1705 47.1661C93.598 46.4836 93.5155 46.2586 92.8705 46.3486ZM78.043 52.0487C77.9605 52.6487 77.2255 53.9612 76.858 54.7187C76.4905 55.4762 75.2455 56.2936 75.118 56.3086C74.9905 56.3236 74.6905 55.1237 74.6905 55.1237C74.7955 55.0562 76.1305 54.1787 76.3705 53.8562C76.6105 53.5337 77.4505 52.2811 77.7055 51.9211C77.9605 51.5611 78.133 51.4487 78.0505 52.0487H78.043Z" fill="#92400E"/>
<path d="M86.54 42.1706C86.4125 41.8706 86.0675 41.9981 85.7225 42.5306C85.3775 43.0631 85.3775 42.5156 84.56 42.8156C83.7425 43.1156 82.1525 42.7706 81.3725 42.8156C80.5925 42.8606 80.1275 42.8156 79.4375 42.8156C78.7475 42.8156 76.5125 42.7706 75.7775 42.8156C75.0425 42.8606 72.68 42.3431 72.29 42.5981C71.9 42.8531 71.7725 44.0156 71.4725 44.9681C71.1725 45.9206 70.61 47.8556 70.0925 48.4106C69.575 48.9656 69.5225 48.9806 69.23 49.4006C69.23 49.4006 71.0825 51.8531 71.4725 51.6431C71.8625 51.4331 72.4625 50.3081 72.8525 48.7556C73.2425 47.2031 73.1525 44.7056 73.325 44.8406C73.4975 44.9756 74.405 44.8856 74.405 44.8856C76.43 45.1031 78.5825 44.8856 79.4 44.4956C80.2175 44.1056 81.08 44.2781 81.725 44.4131C82.37 44.5481 83.795 44.8031 85.2125 44.1206C86.63 43.4456 86.675 42.4706 86.5475 42.1706H86.54ZM71.735 50.6531C71.54 50.9531 71.3075 50.3981 71.3075 50.3981C71.6975 49.4531 72.47 48.5456 72.47 48.5456C72.47 48.5456 72.47 49.5131 71.735 50.6531ZM79.61 44.0756C79.355 44.1056 78.4925 44.4056 78.4925 44.4056H73.8875L73.325 44.1131V43.1981C73.4975 43.4981 77.72 43.6706 78.065 43.6706C78.41 43.6706 79.8725 43.4381 79.8725 43.4381C79.8725 43.4381 79.8725 44.0456 79.6175 44.0756H79.61Z" fill="#92400E"/>
<path d="M47.0604 58.0556C46.5879 57.7556 44.9904 56.2481 44.3454 55.9856C43.7004 55.7231 42.3654 55.6856 41.4579 56.2031C40.5504 56.7206 38.0604 58.5731 37.2804 59.0531C36.5079 59.5406 33.7104 61.3705 33.1929 61.483C32.6754 61.5955 32.4204 62.1881 32.1129 63.2906C31.8129 64.3931 31.7229 69.808 31.7679 70.5205C31.8129 71.233 32.0679 71.9606 31.7679 72.4781C31.4679 72.9956 29.0154 74.8031 28.1529 75.3656C27.2904 75.9281 27.8529 76.0931 28.1529 76.2506C28.4529 76.4081 30.1779 75.8756 30.9504 75.3656C31.7229 74.8556 33.3204 73.2056 33.4479 72.3431C33.5754 71.4806 33.2304 71.9156 33.7029 69.2006C34.1754 66.4856 33.5754 64.2506 33.7029 63.6056C33.8304 62.9606 33.8304 62.8706 34.4754 62.8706C35.1204 62.8706 37.9629 62.2706 37.9629 62.2706C41.0229 61.4081 42.0954 59.2556 42.4854 59.0831C42.8754 58.9106 43.1754 59.473 43.6029 59.773C44.0304 60.0731 46.6629 62.7431 47.4354 63.2906C48.2079 63.8306 51.6579 64.4231 51.6579 64.4231C51.6579 64.4231 47.5254 58.3556 47.0529 58.0481L47.0604 58.0556ZM37.3629 61.9481C35.5854 62.2781 36.1104 61.7305 36.8454 61.483C39.6879 60.523 41.3229 58.7456 41.2104 59.3606C41.1729 59.5481 39.8379 61.4831 37.3629 61.9481ZM48.7854 61.9481C48.2079 61.7006 45.9729 59.9156 45.6879 59.7431C45.4029 59.5706 44.6079 58.4831 44.0304 58.0181C43.4529 57.5531 43.3104 56.3006 44.0304 56.7581C44.0304 56.7581 45.2304 57.5156 45.5754 57.7406C45.9204 57.9656 47.7654 59.8031 48.2754 60.0281C48.7779 60.2606 49.7079 61.9406 49.7079 61.9406C49.7079 61.9406 49.3629 62.1881 48.7929 61.9406L48.7854 61.9481Z" fill="#92400E"/>
<path d="M83.5326 34.9783C83.1876 35.1058 82.07 34.2058 81.4175 33.6433C80.7725 33.0808 80.99 31.9183 81.4175 31.0633C81.845 30.2008 82.7525 28.4833 82.7975 27.4033C82.8425 26.3233 82.28 24.7783 81.4175 24.7783C80.555 24.7783 79.055 24.8608 78.7175 24.9508C78.38 25.0333 76.6025 26.6758 76.6025 28.3483C76.6025 30.0208 77.465 31.1458 78.065 31.2733C78.665 31.4008 78.6876 32.3908 78.6876 32.3908C78.9201 34.5433 80.6901 35.4058 82.2876 35.4508C83.8776 35.4958 83.8776 34.8508 83.5326 34.9783ZM80.1576 32.9533C80.1576 32.9533 79.7001 32.8708 79.5276 32.2183C79.3551 31.5658 79.355 30.9733 78.8825 30.7558C78.41 30.5383 77.975 29.0758 78.065 28.0408C78.155 27.0058 79.16 26.4508 79.16 26.4508C79.16 26.4508 79.5276 26.3233 80.1576 26.4508C80.7876 26.5783 81.4625 27.7858 81.4175 28.9483C81.3725 30.1108 80.3526 30.8008 80.1576 31.2283C79.8726 31.8508 80.1576 32.9533 80.1576 32.9533Z" fill="#92400E"/>
<path d="M107.72 58.6776C107.668 58.6776 107.616 58.6551 107.563 58.6326C107.256 58.5051 107.113 58.1526 107.24 57.8376C107.3 57.7026 108.703 54.1401 113.256 52.8351C115.033 52.3251 117.561 52.6476 119.421 52.6251C122.121 52.5951 124.055 52.5726 125.645 50.9976C125.885 50.7651 126.268 50.7651 126.501 50.9976C126.733 51.2376 126.733 51.6201 126.501 51.8526C125.571 52.7676 124.205 53.5776 122.953 53.8401C121.58 54.1251 119.653 54.0501 118.176 54.0651C116.398 54.0876 115.198 53.8776 113.578 54.3426C109.61 55.4826 108.411 58.1826 108.358 58.2951C108.246 58.5501 107.983 58.6926 107.72 58.6551V58.6776Z" fill="#92400E"/>
<path d="M111.651 60.5746C111.396 60.5371 111.178 60.3421 111.133 60.0721C111.081 59.7421 111.306 59.4271 111.636 59.3746C111.816 59.3446 112.288 59.0221 112.701 58.7371C114.036 57.8221 116.053 56.4421 118.888 56.5696C119.991 56.6221 120.973 56.7946 121.843 56.9521C124.086 57.3571 125.968 57.1321 128.443 55.3321C131.076 53.4271 132.673 54.5896 134.316 55.1671C134.886 55.3696 135.426 55.5571 135.973 55.6321C136.303 55.6771 136.536 55.9846 136.491 56.3146C136.446 56.6446 136.138 56.8771 135.808 56.8321C135.141 56.7421 134.518 56.5246 133.911 56.3146C132.351 55.7671 131.008 55.2946 128.886 56.8321C125.991 58.9321 124.146 58.8196 121.896 58.4221C121.026 58.2646 119.848 57.8296 118.828 57.7846C116.398 57.6721 114.583 58.9171 113.383 59.7421C112.738 60.1846 112.273 60.5071 111.823 60.5746C111.763 60.5821 111.703 60.5821 111.643 60.5746H111.651Z" fill="#92400E"/>
<path d="M117.988 63.0202C117.756 62.9902 117.561 62.8252 117.486 62.5927C117.388 62.2702 117.396 61.7452 118.273 61.4827C121.731 60.4477 122.946 60.9877 124.993 61.5952C126.208 61.9552 127.318 62.4577 129.298 62.5627C131.143 62.6677 132.523 61.9402 133.791 61.3402C135.613 60.4777 137.758 59.9977 141.456 61.0552C141.778 61.1452 141.966 61.4827 141.876 61.8052C141.786 62.1277 141.448 62.3152 141.126 62.2252C137.871 61.2952 136.266 62.0527 134.578 62.8552C133.236 63.4927 131.796 64.4527 129.643 64.3327C127.513 64.2127 126.118 63.4852 124.836 63.1027C122.901 62.5327 121.371 62.0752 118.258 62.9977C118.176 63.0202 118.086 63.0277 118.003 63.0202H117.988Z" fill="#92400E"/>
<path d="M111.028 16.5205C111.283 16.468 111.553 16.5805 111.688 16.8205C111.853 17.113 111.741 17.4805 111.448 17.6455C111.283 17.7355 110.953 18.2005 110.661 18.6055C109.716 19.918 108.283 21.898 105.568 22.7305C104.511 23.053 103.528 23.218 102.658 23.368C100.416 23.743 98.7131 24.5905 96.9881 27.118C95.1506 29.803 93.2531 29.2405 91.5131 29.248C90.9056 29.248 90.3356 29.2555 89.7956 29.368C89.4656 29.4355 89.1431 29.2255 89.0756 28.903C89.0081 28.5805 89.2181 28.2505 89.5406 28.183C90.2006 28.0405 90.8606 28.0405 91.4981 28.033C93.1481 28.018 94.5806 28.0105 96.0581 25.8505C98.0831 22.8955 99.8531 22.378 102.103 22.003C102.973 21.8605 104.226 21.868 105.208 21.568C107.533 20.8555 108.823 19.0705 109.678 17.893C110.136 17.2555 110.466 16.798 110.871 16.5805C110.923 16.5505 110.983 16.528 111.036 16.5205H111.028Z" fill="#92400E"/>
<path d="M91.776 31.4228C91.6185 31.4528 91.491 31.6178 91.4685 31.8503C91.4385 32.1728 91.4985 32.6903 92.151 32.9378C94.731 33.9203 95.5335 33.3653 96.921 32.7428C97.746 32.3678 98.481 31.8578 99.876 31.7303C101.181 31.6028 102.246 32.3078 103.213 32.8853C104.608 33.7178 106.191 34.1603 108.703 33.0728C108.921 32.9753 109.018 32.6453 108.913 32.3228C108.808 32.0003 108.553 31.8278 108.336 31.9178C106.123 32.8778 104.893 32.1428 103.596 31.3703C102.568 30.7553 101.436 29.8253 99.9135 29.9678C98.4135 30.1103 97.4985 30.8528 96.6285 31.2428C95.316 31.8353 94.2734 32.3003 91.9559 31.4228C91.8959 31.4003 91.8285 31.3928 91.776 31.4078V31.4228Z" fill="#92400E"/>
<path d="M88.1981 24.3426C88.0706 24.4776 88.0331 24.7026 88.1381 24.9126C88.2806 25.2051 88.6181 25.6101 89.3606 25.3851C92.3006 24.5001 92.7581 23.4876 93.7181 22.0251C94.2956 21.1551 94.7006 20.2326 95.9456 19.1826C97.1006 18.2076 98.4731 18.0876 99.6881 17.9376C101.443 17.7126 103.153 17.0376 104.923 14.4276C105.081 14.2026 104.991 13.8501 104.721 13.6476C104.451 13.4451 104.113 13.4676 103.963 13.6926C102.403 15.9951 100.866 16.1901 99.2381 16.3926C97.9481 16.5576 96.3881 16.5201 95.0456 17.6601C93.7181 18.7851 93.2606 20.0301 92.6531 20.9451C91.7381 22.3251 91.0181 23.4201 88.3781 24.2301C88.3031 24.2526 88.2431 24.2901 88.1981 24.3351V24.3426Z" fill="#92400E"/>
<path d="M0.725575 32.3756C0.463075 32.3681 0.215569 32.5257 0.133069 32.7882C0.0280685 33.1032 0.193076 33.4482 0.515576 33.5607C0.688076 33.6207 1.10057 34.0182 1.46057 34.3707C2.62307 35.4957 4.37057 37.1982 7.19057 37.5507C8.28557 37.6857 9.28307 37.6781 10.1681 37.6706C12.4406 37.6481 14.2631 38.1882 16.4006 40.3782C18.6731 42.7032 20.4506 41.8182 22.1606 41.5257C22.7531 41.4282 23.3156 41.3307 23.8706 41.3457C24.2081 41.3607 24.4856 41.0982 24.5006 40.7607C24.5156 40.4232 24.2531 40.1457 23.9156 40.1307C23.2406 40.1082 22.5881 40.2207 21.9581 40.3257C20.3306 40.6032 18.9206 40.8432 17.0906 38.9682C14.5856 36.4107 12.7481 36.2082 10.4681 36.2232C9.58307 36.2232 8.35307 36.4631 7.33307 36.3356C4.91807 36.0356 3.34307 34.4982 2.29307 33.4857C1.73057 32.9382 1.32558 32.5481 0.890576 32.3981C0.830576 32.3756 0.770568 32.3682 0.718068 32.3682L0.725575 32.3756Z" fill="#92400E"/>
<path d="M22.2652 43.7156C22.4302 43.7156 22.5802 43.8581 22.6402 44.0831C22.7302 44.3906 22.7602 44.9156 22.1527 45.2756C19.7827 46.6931 18.8977 46.2806 17.4202 45.9131C16.5427 45.6881 15.7327 45.3131 14.3302 45.4256C13.0252 45.5306 12.0952 46.4081 11.2477 47.1431C10.0177 48.2081 8.54019 48.9131 5.87769 48.2831C5.64519 48.2306 5.4952 47.9156 5.5402 47.5856C5.5852 47.2556 5.8102 47.0306 6.0427 47.0906C8.3902 47.6531 9.47019 46.7156 10.6102 45.7331C11.5177 44.9531 12.4702 43.8356 13.9927 43.7156C15.4927 43.5956 16.5277 44.1656 17.4502 44.4056C18.8452 44.7581 19.9477 45.0356 22.0852 43.7756C22.1452 43.7381 22.2052 43.7231 22.2652 43.7306V43.7156Z" fill="#92400E"/>
<path d="M24.568 36.1255C24.718 36.238 24.7855 36.448 24.7255 36.6805C24.6355 36.9955 24.373 37.4455 23.6005 37.3555C20.548 36.988 19.9255 36.073 18.7255 34.8055C18.0055 34.048 17.443 33.208 16.0405 32.3905C14.7355 31.6255 13.363 31.753 12.1405 31.813C10.378 31.8955 8.57046 31.528 6.37296 29.263C6.17796 29.068 6.20796 28.708 6.43296 28.4605C6.65796 28.213 6.99545 28.1755 7.19045 28.3705C9.12545 30.3655 10.6705 30.2905 12.313 30.2155C13.6105 30.1555 15.1405 29.848 16.663 30.7405C18.163 31.618 18.8305 32.7655 19.588 33.5605C20.728 34.7605 21.6279 35.713 24.3654 36.0505C24.4404 36.058 24.508 36.088 24.5605 36.1255H24.568Z" fill="#92400E"/>
<path d="M83.8325 89.8027C84.1025 89.7877 84.2225 89.9227 84.305 89.9902C84.3875 90.0727 84.4475 90.1553 84.5075 90.2378C84.6125 90.4028 84.695 90.5602 84.77 90.7252C84.92 91.0552 85.0475 91.3777 85.16 91.7077C85.3775 92.3677 85.5725 93.0353 85.7225 93.7178C85.7975 94.0553 85.865 94.4002 85.91 94.7527C85.9475 95.0902 86 95.4953 85.88 95.9003C85.6625 96.7103 84.9275 97.3402 84.065 97.4752C83.6375 97.5427 83.15 97.5127 82.715 97.2502C82.2725 97.0102 81.9725 96.5528 81.845 96.0953C81.7325 95.6003 81.77 95.2477 81.8 94.8652C81.8375 94.4977 81.8975 94.1453 81.9875 93.8003C82.1525 93.1103 82.355 92.4353 82.61 91.7753C82.7375 91.4453 82.865 91.1153 83.015 90.7928C83.09 90.6278 83.165 90.4627 83.2625 90.3052C83.315 90.2227 83.36 90.1403 83.435 90.0503C83.5175 89.9678 83.555 89.8553 83.84 89.7803L83.8325 89.8027Z" fill="#92400E"/>
<path d="M66.8456 31.0252C66.8456 31.0252 65.4431 29.4802 65.3606 29.2552C65.2781 29.0302 64.1906 30.8602 63.4706 31.1002C62.7506 31.3402 64.2506 28.5652 64.4006 27.9127C64.5581 27.2602 62.5631 25.8502 62.3981 25.5727C62.2331 25.2952 64.6781 25.7002 65.3081 25.8352C65.9381 25.9702 66.3506 23.7802 67.0331 23.7502C67.4531 23.7277 66.9056 25.5877 67.0181 26.2327C67.0181 26.2327 68.8931 25.8127 69.2381 26.1952C69.5456 26.5402 67.8506 27.3727 67.1531 27.7777C66.7256 28.0327 67.1756 29.5627 67.1531 30.8752C67.1456 31.3627 66.8456 31.0177 66.8456 31.0177V31.0252Z" fill="#92400E"/>
<path d="M17.173 78.0724C17.2855 77.5249 17.443 76.9324 16.6255 76.9324C15.808 76.9324 13.2505 77.8024 12.9805 77.5849C12.7105 77.3674 12.6355 76.1674 12.538 75.1924C12.4405 74.2174 12.2755 73.2574 11.8405 73.7224C11.8405 73.7224 11.1355 73.8349 11.0755 76.0099C11.023 78.1849 11.4055 78.3499 11.023 78.1849C10.6405 78.0199 7.81299 78.6199 7.81299 79.2199C7.81299 79.8199 9.71799 80.2549 10.753 80.3599C10.753 80.3599 10.483 81.2824 10.483 82.4299C10.483 83.5774 10.5955 84.8224 11.1355 84.7699C11.6755 84.7174 12.8755 82.3174 13.3105 82.0999C13.7455 81.8824 15.1105 83.6749 15.6505 83.6749C16.1905 83.6749 15.703 81.5524 14.9455 80.5699C14.9455 80.5699 17.068 78.6124 17.1805 78.0649L17.173 78.0724ZM14.0155 80.2999C14.7805 81.8224 14.128 81.3874 13.468 80.7349C12.8155 80.0824 12.328 81.0649 11.893 81.3874C11.458 81.7099 12.058 80.3524 12.1105 79.9174C12.163 79.4824 10.4755 79.4299 10.2055 79.1749C9.93549 78.9274 11.9455 78.8824 11.728 78.2824C11.5105 77.6824 11.728 75.6124 11.728 75.6124C12.1105 74.6899 11.893 76.8649 12.2755 77.7349C12.658 78.6049 12.9805 78.7174 13.5805 78.5224C14.1805 78.3274 17.5555 77.3524 15.9205 78.5224C14.2855 79.6924 14.0155 80.2924 14.0155 80.2924V80.2999Z" fill="#92400E"/>
<path d="M29.8249 31.3255C29.5474 31.3255 29.2249 30.553 29.1949 30.268C29.1949 30.2155 29.8474 25.2055 25.6474 25.468C25.4449 25.483 25.3324 25.213 25.3174 25.0105C25.3024 24.808 25.3999 24.613 25.5724 24.5005C25.7374 24.403 30.4024 25.378 29.5474 15.403C29.5249 15.103 29.7874 14.8555 30.0949 14.8555C30.4249 14.8855 30.6274 15.0955 30.6424 15.3955C31.0474 21.9655 29.0524 24.598 35.0824 25.1155C35.3149 25.138 35.4724 25.3705 35.4874 25.603C35.5024 25.8355 35.3749 26.053 35.1574 26.1505C35.1124 26.173 29.9524 25.3705 30.3649 30.808C30.3874 31.093 30.1099 31.3105 29.8324 31.318C29.8324 31.318 29.8324 31.318 29.8249 31.318V31.3255Z" fill="#92400E"/>
<path d="M11.7652 59.2476C11.7652 59.2476 9.97273 63.0951 12.0202 63.1476C13.6627 63.1851 13.9252 61.9101 13.1677 59.6676C12.3202 57.1701 12.1702 58.3026 11.7727 59.2476H11.7652Z" fill="#92400E"/>
<path d="M38.15 72.0884C38.15 72.0884 36.3575 75.9359 38.405 75.9884C40.0475 76.0259 40.31 74.7509 39.5525 72.5084C38.705 70.0109 38.555 71.1434 38.1575 72.0884H38.15Z" fill="#92400E"/>
<path d="M74.2028 84.7559C74.2028 84.7559 74.1278 84.8084 74.0828 84.8459C74.0003 84.9209 73.9328 85.0109 73.8653 85.1009C73.7303 85.2809 73.6178 85.4834 73.5278 85.6784C73.3328 86.0834 73.1978 86.5034 73.1078 86.9309C73.0703 87.1409 73.0403 87.3584 73.0328 87.5759C73.0253 87.8009 73.0328 87.9884 73.1528 88.1534C73.3778 88.4984 73.9553 88.7009 74.4353 88.7084C74.6828 88.7159 74.8853 88.6634 75.0278 88.5959C75.1628 88.5284 75.2528 88.4309 75.2978 88.2959C75.3428 88.1834 75.3203 87.9659 75.2978 87.7634C75.2678 87.5534 75.2228 87.3434 75.1778 87.1259C75.0803 86.6909 74.9453 86.2559 74.7728 85.8209C74.6903 85.6034 74.5853 85.3934 74.4728 85.1834C74.4128 85.0784 74.3453 84.9809 74.2778 84.8909C74.2403 84.8459 74.2028 84.8009 74.1728 84.7709C74.1503 84.7334 74.0753 84.7184 74.1728 84.7409C74.2628 84.7409 74.2253 84.7259 74.1953 84.7559H74.2028ZM74.8103 84.5534C74.8703 84.6209 74.9153 84.6884 74.9528 84.7484C75.0353 84.8759 75.0953 84.9959 75.1553 85.1234C75.2753 85.3709 75.3803 85.6109 75.4778 85.8509C75.6728 86.3384 75.8303 86.8259 75.9503 87.3284C76.0103 87.5759 76.0553 87.8309 76.0703 88.0859C76.0853 88.3484 76.0928 88.5959 75.9728 88.9259C75.8378 89.2184 75.5453 89.4959 75.1403 89.6084C74.5553 89.7659 73.8953 89.7884 73.3103 89.6084C72.8753 89.4734 72.4703 89.1584 72.3203 88.7234C72.1853 88.3259 72.2678 87.8609 72.3653 87.4709C72.4178 87.2309 72.4928 87.0059 72.5828 86.7809C72.7478 86.3309 72.9503 85.8959 73.1753 85.4684C73.2953 85.2584 73.4228 85.0484 73.5653 84.8384C73.6403 84.7334 73.7228 84.6359 73.8278 84.5384C73.8803 84.4859 73.9403 84.4409 74.0153 84.3959C74.0903 84.3584 74.2028 84.2834 74.4503 84.3284C74.6978 84.4109 74.7278 84.5009 74.8028 84.5684L74.8103 84.5534Z" fill="#92400E"/>
<path d="M84.4403 71.4206C84.5528 71.3906 84.4704 71.4206 84.4479 71.4656C84.4104 71.5106 84.3728 71.5781 84.3428 71.6456C84.2753 71.7806 84.2078 71.9306 84.1553 72.0806C84.0428 72.3881 83.9453 72.7106 83.8703 73.0331C83.7128 73.6856 83.5928 74.3456 83.5028 74.9981C83.4653 75.3281 83.4203 75.6506 83.4053 75.9656C83.3828 76.2656 83.3753 76.6106 83.4278 76.7831C83.4803 76.9856 83.5704 77.1506 83.7204 77.2631C83.8704 77.3756 84.0879 77.4806 84.3354 77.4881C84.8304 77.5181 85.4228 77.2631 85.6328 76.7531C85.7453 76.5056 85.7529 76.2131 85.7379 75.8681C85.7229 75.5381 85.6854 75.2081 85.6404 74.8781C85.5279 74.2181 85.3778 73.5581 85.1603 72.9206C85.0553 72.6056 84.9353 72.2906 84.7928 71.9981C84.7178 71.8556 84.6428 71.7131 84.5603 71.5931C84.5153 71.5331 84.4703 71.4806 84.4328 71.4431C84.3953 71.3981 84.3578 71.4206 84.4553 71.4206H84.4403ZM84.3728 70.8206C84.6428 70.8131 84.7553 70.9481 84.8378 71.0231C84.9203 71.1056 84.9804 71.1956 85.0329 71.2781C85.1379 71.4431 85.2129 71.6081 85.2879 71.7731C85.4304 72.1031 85.5429 72.4331 85.6479 72.7706C85.8504 73.4381 86.0229 74.1131 86.1579 74.7956C86.2254 75.1406 86.2853 75.4856 86.3153 75.8381C86.3453 76.1756 86.3904 76.5881 86.2554 76.9856C86.0154 77.7881 85.2654 78.4031 84.4029 78.5156C83.9754 78.5681 83.4878 78.5231 83.0603 78.2606C82.6253 78.0056 82.3404 77.5406 82.2204 77.0831C82.1229 76.5806 82.1678 76.2281 82.2053 75.8531C82.2578 75.4856 82.3253 75.1331 82.4228 74.7881C82.6028 74.0981 82.8278 73.4381 83.0978 72.7856C83.2328 72.4631 83.3679 72.1331 83.5329 71.8106C83.6154 71.6531 83.6979 71.4881 83.7954 71.3231C83.8479 71.2406 83.9004 71.1581 83.9754 71.0756C84.0579 71.0006 84.1028 70.8806 84.3878 70.8206H84.3728Z" fill="#92400E"/>
<path d="M43.6923 94.3175C43.7373 94.3325 43.6622 95.345 43.7672 95.4275C43.8722 95.51 44.5472 94.7525 44.6672 94.7675C44.8097 94.7825 46.2422 95.4425 46.3022 95.27C46.3847 95.06 45.7322 94.085 45.6722 93.965C45.6122 93.845 46.2872 93.1925 46.3922 92.96C46.3922 92.96 46.5497 92.57 45.1097 93.02C45.1097 93.02 44.5847 91.9925 44.4047 91.8725C44.2247 91.7525 43.7972 93.155 43.7747 93.2375C43.7522 93.32 42.6797 93.4625 42.5822 93.6275C42.4847 93.7925 43.0848 94.085 43.6923 94.31V94.3175Z" fill="#92400E"/>
<path d="M130.145 101.232C130.61 101.509 131.173 101.442 131.563 100.609C132.013 99.6568 131.045 98.8768 130.168 98.9218C128.705 98.9893 129.26 100.714 130.138 101.239L130.145 101.232Z" fill="#92400E"/>
<path d="M117.838 101.112C118.468 101.877 120.013 101.502 120.628 100.782C121.956 99.2294 120.126 98.2994 119.548 98.2319C118.536 98.1119 117.478 99.4994 117.583 100.444C117.613 100.722 117.703 100.947 117.846 101.112H117.838Z" fill="#92400E"/>
<path d="M133.88 92.87C133.88 92.87 134.69 93.8224 135.523 92.7949C136.355 91.7674 134.998 90.9575 134.293 91.04C133.588 91.1225 133.018 91.865 133.88 92.87Z" fill="#92400E"/>
<path d="M119.143 80.6529C117.935 82.2054 117.163 85.558 118.025 85.558C118.888 85.558 121.04 82.7154 121.73 83.0604C122.42 83.4054 124.31 87.1929 125.173 87.2829C126.035 87.3654 126.208 85.3854 126.208 83.5779C126.208 81.7704 125.78 80.308 125.78 80.308C127.415 80.1355 130.431 79.4454 130.431 78.5004C130.431 77.5554 125.953 76.6029 125.353 76.8654C124.753 77.1279 125.353 76.8655 125.27 73.423C125.188 69.9805 124.063 69.808 124.063 69.808C123.373 69.073 123.118 70.5804 122.961 72.1329C122.803 73.6854 122.691 75.5754 122.256 75.9204C121.821 76.2654 117.778 74.8854 116.488 74.8854C115.198 74.8854 115.453 75.8305 115.626 76.693C115.798 77.5555 119.158 80.6529 119.158 80.6529H119.143ZM117.591 77.4204C115.011 75.5754 120.343 77.1129 121.296 77.4204C122.241 77.7279 122.758 77.5555 123.365 76.1755C123.973 74.7955 123.62 71.3529 124.228 72.8154C124.228 72.8154 124.573 76.0854 124.228 77.0379C123.883 77.9829 127.071 78.0579 126.636 78.4479C126.208 78.8454 123.538 78.9279 123.62 79.6179C123.703 80.3079 124.656 82.4605 123.966 81.943C123.276 81.4255 122.503 79.8729 121.468 80.9079C120.433 81.9429 119.398 82.633 120.605 80.218C120.605 80.218 120.178 79.2654 117.591 77.4129V77.4204Z" fill="#92400E"/>
<path d="M92.3975 119.406C92.3 119.383 92.21 119.346 92.1275 119.286C91.565 118.866 91.67 117.876 92.015 117.366C92.3825 116.826 93.14 116.413 93.7325 116.871C93.935 117.021 94.07 117.261 94.1075 117.508C94.1825 118.026 93.845 118.588 93.5 118.948C93.35 119.113 93.17 119.256 92.9675 119.338C92.7875 119.413 92.585 119.443 92.3975 119.406Z" fill="#92400E"/>
</svg>
