<svg width="146" height="104" viewBox="0 0 146 104" fill="none" xmlns="http://www.w3.org/2000/svg">
<path d="M105.674 9.61361C105.674 9.61361 105.397 9.62111 108.179 9.20861C111.397 8.73611 113.219 8.10611 113.242 6.29861C113.264 4.78361 113.527 -0.788885 114.127 0.568615C114.727 1.92611 114.757 7.25111 116.864 7.70111C118.972 8.15111 121.357 8.09111 121.364 8.63111C121.364 9.50861 117.037 8.36111 116.392 13.4011C115.957 16.7961 115.499 18.4936 115.019 18.4936C114.157 18.4936 113.849 11.4511 112.342 10.9936C110.834 10.5361 105.659 10.5586 105.674 9.59861V9.61361Z" fill="#92400E"/>
<path d="M134.707 47.0614C134.707 47.0614 134.684 47.0614 134.677 47.0614C134.407 47.0464 134.197 46.8364 134.182 46.5664C134.182 46.5139 133.829 41.4139 130.882 40.1164C130.529 39.9589 130.484 39.6814 130.484 39.5689C130.477 39.1714 130.807 39.0064 131.189 38.8114C132.179 38.3164 134.437 37.2064 134.909 33.3289C134.924 32.8639 134.977 32.5714 134.984 32.5639C135.037 32.2939 135.292 32.1139 135.569 32.1439C135.847 32.1814 136.042 32.4214 136.027 32.6989C136.012 32.9914 135.982 33.2689 135.944 33.5389C135.914 34.9714 136.342 37.9864 140.309 39.1264C140.519 39.1864 140.669 39.3664 140.684 39.5839C140.707 39.8014 140.594 40.0039 140.399 40.1014C140.354 40.1239 135.959 42.4114 135.224 46.6189C135.179 46.8739 134.962 47.0539 134.707 47.0539V47.0614Z" fill="#92400E"/>
<path d="M46.0194 5.60113C46.6419 6.08863 46.7844 7.05613 46.2369 7.83613C45.4044 9.01363 43.8069 7.92613 43.6719 7.07863C43.5444 6.25363 44.1669 5.29363 45.0369 5.28613C45.4344 5.28613 45.7719 5.40613 46.0269 5.60113H46.0194Z" fill="#92400E"/>
<path d="M4.64167 100.146C5.19667 99.5314 6.25417 99.2764 6.88417 100.274C7.75417 101.639 6.05167 102.516 5.06917 102.044C4.04917 101.556 4.13917 100.701 4.64167 100.146Z" fill="#92400E"/>
<path d="M0.629065 93.0586C1.18407 92.5786 2.27156 93.0511 2.63156 93.6586C3.40406 94.9711 1.94906 95.4136 1.51406 95.3911C0.75656 95.3536 0.156565 94.1986 0.359065 93.5161C0.419065 93.3136 0.516561 93.1636 0.636561 93.0586H0.629065Z" fill="#92400E"/>
<path d="M86.8042 14.2336C86.8192 14.8411 86.4442 15.3511 85.4092 15.2761C84.2317 15.1861 84.0067 13.8136 84.5317 12.9811C85.4017 11.5936 86.7817 13.0861 86.8042 14.2336Z" fill="#92400E"/>
<path d="M93.4716 2.15152C93.8691 3.18652 92.6542 4.49152 91.6192 4.69402C89.3692 5.12902 89.4741 2.83402 89.7291 2.23402C90.1716 1.17652 92.1067 0.914021 92.9767 1.53652C93.2317 1.72402 93.3966 1.93402 93.4791 2.15902L93.4716 2.15152Z" fill="#92400E"/>
<path d="M76.574 13.2664C76.574 13.2664 77.054 14.5789 75.5915 14.8264C74.1365 15.0739 74.084 13.3039 74.564 12.6589C75.044 12.0139 76.079 11.8714 76.574 13.2664Z" fill="#92400E"/>
<path d="M75.8616 92.0539C75.7491 91.4539 75.2841 91.0339 74.2866 91.3189C73.1541 91.6489 73.2141 93.0364 73.8966 93.7414C75.0366 94.9264 76.0791 93.1789 75.8691 92.0539H75.8616Z" fill="#92400E"/>
<path d="M84.8695 102.509C85.0495 101.414 83.5869 100.387 82.5294 100.402C80.2419 100.439 80.8119 102.659 81.1794 103.199C81.8319 104.144 83.782 104.002 84.4945 103.214C84.7045 102.982 84.8245 102.742 84.862 102.502L84.8695 102.509Z" fill="#92400E"/>
<path d="M66.0517 95.1067C66.0517 95.1067 66.2467 93.7192 64.7692 93.7792C63.2917 93.8392 63.6067 95.5792 64.2067 96.1117C64.8067 96.6442 65.8492 96.5767 66.0517 95.0992V95.1067Z" fill="#92400E"/>
<path d="M145.627 77.3911C145.777 76.9711 145.642 76.5361 144.907 76.3486C144.074 76.1386 143.602 77.0311 143.767 77.7211C144.044 78.8836 145.342 78.1711 145.619 77.3836L145.627 77.3911Z" fill="#92400E"/>
<path d="M142.934 63.6513C143.594 63.0363 143.849 61.8738 142.754 61.1988C141.247 60.2763 140.324 62.1513 140.857 63.2163C141.412 64.3263 142.342 64.2138 142.934 63.6513Z" fill="#92400E"/>
<path d="M140.181 89.9909C140.699 89.3684 140.159 88.1909 139.491 87.8159C138.044 86.9984 137.586 88.5959 137.616 89.0759C137.676 89.9084 138.951 90.5384 139.686 90.3059C139.904 90.2384 140.069 90.1334 140.181 89.9984V89.9909Z" fill="#92400E"/>
<path d="M136.416 64.9036C136.416 64.9036 137.054 64.1086 136.101 63.6061C135.156 63.1036 134.714 64.3111 134.886 64.8586C135.066 65.4136 135.741 65.7511 136.409 64.9036H136.416Z" fill="#92400E"/>
<path d="M75.42 72.9732C75.0525 72.9732 74.625 71.9532 74.5875 71.5857C74.5875 71.5182 75.4425 64.9257 69.9225 65.2707C69.6525 65.2857 69.5025 64.9332 69.4875 64.6632C69.4725 64.3932 69.6 64.1382 69.825 63.9957C70.035 63.8607 76.1775 65.1432 75.06 52.0257C75.0225 51.6282 75.3825 51.3057 75.78 51.3057C76.215 51.3507 76.4775 51.6207 76.5 52.0182C77.0325 60.6657 74.4075 64.1307 82.3425 64.8132C82.65 64.8357 82.8525 65.1507 82.8825 65.4507C82.905 65.7582 82.7325 66.0432 82.455 66.1707C82.395 66.2007 75.6075 65.1432 76.1475 72.2982C76.1775 72.6732 75.8175 72.9582 75.4425 72.9657C75.4425 72.9657 75.435 72.9657 75.4275 72.9657L75.42 72.9732Z" fill="#92400E"/>
<path d="M72.6973 30.9654C73.2073 30.5829 75.3973 28.5204 76.9423 27.6204C78.4873 26.7204 78.3598 25.9479 79.7773 24.2754C81.1948 22.6029 81.5773 22.0854 85.0573 21.0579C88.5298 20.0304 92.2648 20.1579 94.1998 18.7404C96.1273 17.3229 96.0373 16.5879 96.8998 16.5879C97.7623 16.5879 98.0548 18.7104 96.8998 20.1579C95.7448 21.6054 94.7773 21.6054 94.4848 21.7029C94.1923 21.8004 96.9748 22.2804 97.6648 22.3779C98.3473 22.4754 99.6073 23.0529 101.242 21.9954C101.82 21.6204 102.382 21.1404 103.072 21.0054C103.822 20.8629 104.632 20.8779 105.375 21.0279C105.712 21.0954 107.527 21.8979 106.642 22.1829C106.357 22.2729 105.375 21.0279 103.942 23.0529C103.942 23.0529 103.425 23.7279 103.072 24.1779C102.72 24.6279 103.297 24.7254 103.875 24.3354C104.452 23.9454 105.817 23.1954 108.217 23.7729C109.89 24.1779 109.635 25.8504 112.08 26.2329C112.08 26.2329 114.397 26.4879 115.102 26.2329C115.785 25.9854 115.867 26.3604 115.605 26.9154C115.29 27.5829 114.847 28.0929 114.135 28.3554C113.122 28.7229 112.035 28.5579 111.007 28.3779C110.497 28.2879 109.23 27.8829 108.832 28.4229C108.832 28.4229 108.412 28.8054 108.412 28.9404C108.412 29.0754 112.755 29.9079 112.177 34.8279C112.177 34.8279 111.795 37.3704 110.28 38.8479C110.28 38.8479 109.8 39.1029 109.635 38.2029C109.477 37.3029 109.117 34.9854 107.835 34.5054C107.835 34.5054 109.35 40.1979 103.395 44.4804C103.395 44.4804 102.27 44.9604 102.465 44.1879C102.66 43.4154 103.62 40.4904 103.815 39.3279C104.01 38.1654 103.845 35.3079 100.92 33.8904C100.92 33.8904 100.305 33.7329 100.597 34.3404C100.89 34.9479 102.592 42.7404 98.2498 47.2479C98.2498 47.2479 97.1248 48.2754 97.4773 47.0904C97.8298 45.9054 98.1223 42.8754 97.8973 40.7529C97.6723 38.6304 94.8748 36.0204 94.4848 35.8629C94.0948 35.7054 94.9648 38.8854 93.4573 40.6929C91.9498 42.5004 93.9073 37.5429 88.9198 35.5779C88.9198 35.5779 88.5373 35.4504 88.5973 36.2229C88.6648 36.9954 88.3273 40.2954 85.7623 42.2979C83.4148 44.1354 80.8723 44.2029 80.2948 44.1354C80.2948 44.1354 79.6198 44.0679 79.8448 43.6554C80.0698 43.2429 81.2923 42.6879 81.7723 40.5054C82.2523 38.3154 81.5773 36.5454 80.8048 35.0679C80.8048 35.0679 80.1298 34.4229 80.4223 34.0704C80.7148 33.7179 81.2623 33.3954 81.6448 33.9129C82.0273 34.4304 84.0298 38.9679 82.3873 41.9904C82.3873 41.9904 81.7123 42.9579 82.3198 42.9204C82.9273 42.8829 84.7048 42.2454 85.7623 41.0529C86.8273 39.8604 88.0123 37.8654 87.9523 36.5154C87.8923 35.1654 88.0198 34.0704 88.6948 34.2654C89.3698 34.4604 90.8098 34.9704 91.9648 36.7104C93.1198 38.4504 93.0673 39.9954 93.0673 39.9954C93.0673 39.9954 93.6448 40.2504 93.8098 38.6454C93.9673 37.0329 93.5548 35.3004 93.1048 34.6854C92.6548 34.0704 92.6848 33.3054 94.4548 34.2654C96.2248 35.2329 97.5148 36.9654 98.3173 38.8029C99.1198 40.6404 98.7673 44.5629 98.3173 45.9504C97.8673 47.3379 99.0898 45.3729 99.2848 44.6979C99.4798 44.0229 100.312 40.8654 100.057 38.5479C99.8023 36.2304 98.9923 34.4304 98.9023 33.6279C98.8048 32.8254 98.9998 32.2479 100.155 32.3079C101.31 32.3754 102.765 32.9529 104.145 35.3304C105.525 37.7154 104.79 41.2104 104.302 42.3054C103.815 43.4004 105.397 41.3754 105.592 40.7979C105.787 40.2204 106.747 38.7054 106.785 37.2879C106.822 35.8704 106.14 35.8104 106.207 34.6779C106.275 33.5529 106.56 32.7129 107.302 32.9079C108.045 33.1029 109.14 33.5229 109.522 34.6104C109.522 34.6104 110.07 35.3829 110.137 36.1254C110.205 36.8679 111.262 34.8729 110.295 33.2904C109.327 31.7079 108.555 29.6229 107.37 29.4954C107.37 29.4954 106.5 29.0754 106.402 29.0454C106.305 29.0154 106.305 28.9479 106.627 28.5954C106.95 28.2429 107.332 27.4704 108.367 27.2754C109.402 27.0804 110.715 27.3429 110.46 27.0204C110.205 26.6979 110.107 26.2779 109.11 25.9554C108.112 25.6329 106.215 24.8904 105.277 25.1529C104.347 25.4079 101.992 25.8279 101.542 25.8954C101.092 25.9629 101.122 25.2204 101.122 25.0554C101.122 24.8904 101.25 24.0279 100.672 24.2829C100.095 24.5379 98.8723 24.4404 97.5523 23.8629C96.2323 23.2854 94.8148 22.1904 92.6323 22.7679C90.4423 23.3454 87.1273 23.6679 85.6198 25.2429C85.6198 25.2429 85.0048 25.6929 84.8173 25.5654C84.6298 25.4379 84.6223 24.5979 85.6873 23.9229C86.7523 23.2479 88.4248 22.4754 89.9698 21.9579C91.5148 21.4404 92.2873 21.1554 91.7698 21.1179C91.2523 21.0804 88.6198 21.5379 87.5248 21.8904C86.4298 22.2429 84.2398 22.7304 83.3773 23.3079C82.5148 23.8854 81.6373 24.2754 80.8648 25.2354C80.0923 26.2029 80.2498 26.2029 79.0948 27.1029C77.9398 28.0029 77.3923 28.3254 76.5823 29.0004C75.7798 29.6754 74.9098 29.9679 74.5198 30.3804C74.1298 30.7929 73.5898 31.3779 73.5898 31.3779L72.7273 30.9579L72.6973 30.9654Z" fill="#92400E"/>
<path d="M112.186 33.2004C112.186 33.2004 115.238 33.3429 116.911 32.1204C118.583 30.8979 121.996 27.1704 123.286 24.8529C124.576 22.5354 126.631 17.3229 129.271 14.8779C131.911 12.4329 135.901 13.5279 137.446 13.8504C138.991 14.1729 138.413 14.8779 137.063 15.2004C135.713 15.5229 132.496 14.8779 131.078 18.2229C129.916 20.9679 127.411 31.2429 123.503 36.7179C122.641 37.9254 121.126 39.4854 120.458 39.9879C115.816 43.4904 112.906 43.1529 112.906 43.1529C112.906 43.1529 112.231 41.6979 112.771 41.4354C113.311 41.1804 113.573 41.5779 114.668 41.3154C115.763 41.0604 118.681 39.5154 119.648 38.8029C120.616 38.0904 123.293 36.9354 125.678 29.0229C128.063 21.1104 129.413 18.0804 130.568 16.5729C131.723 15.0579 128.318 17.5704 127.096 20.2104C125.873 22.8504 124.006 25.2279 123.173 26.5854C122.341 27.9429 119.438 31.0854 118.343 32.1204C117.248 33.1554 113.693 34.8954 112.193 34.8279V33.2004H112.186Z" fill="#92400E"/>
<path d="M79.1929 34.7007C77.0704 32.9607 70.8904 32.1957 68.8279 28.0782C66.7654 23.9532 67.0279 22.9932 66.9004 19.5807C66.7729 16.1682 66.0604 15.0582 63.4879 13.3332C60.9154 11.6007 58.2079 11.1507 57.6979 11.8632C57.1804 12.5682 58.2753 12.8907 59.8878 13.6632C61.5003 14.4357 63.3004 15.7857 63.8779 19.8432C64.4554 23.9007 62.9779 26.2782 63.3004 29.6232C63.6229 32.9682 64.8454 35.7357 68.3179 38.2482C71.7904 40.7607 76.6204 42.4857 78.3604 42.2982C78.3604 42.2982 79.4554 42.4332 80.0329 40.8882C80.6104 39.3432 81.3229 36.4482 79.1929 34.7082V34.7007ZM78.4204 41.7132C77.9029 42.0957 74.7528 41.0682 71.5353 39.5907C68.3178 38.1132 66.5779 35.7957 65.2279 32.3832C63.8779 28.9707 64.6504 28.2657 64.6504 25.2357C64.6504 22.2057 64.5229 18.5457 64.0729 17.2557C63.6229 15.9657 62.4004 14.6832 62.7829 14.7432C63.1654 14.8107 65.1004 16.6707 65.4829 18.8007C65.8654 20.9232 65.8054 24.0807 65.8054 24.0807C66.4504 28.8432 69.3379 29.4957 70.3729 31.2282C71.4079 32.9532 76.4854 34.3782 77.5204 35.0907C78.5479 35.7957 78.6304 36.5232 78.8253 37.8732C79.0203 39.2232 78.8104 39.7257 78.8104 40.2357C78.8104 40.2357 78.9379 41.3307 78.4279 41.7132H78.4204Z" fill="#92400E"/>
<path d="M86.7227 44.9607C86.5802 44.9157 86.0252 44.4882 86.0777 44.0982C86.1302 43.7082 87.2852 43.7157 88.2002 43.8057C89.1152 43.8957 90.0827 44.4357 91.0502 45.6432C92.0177 46.8507 92.2052 49.0257 91.6277 49.6482C91.6277 49.6482 91.1927 50.0307 90.9527 49.6482C90.7127 49.2657 91.2902 48.8307 91.2902 48.4932C91.2902 48.1557 91.1477 46.7082 90.0827 45.7407C89.0177 44.7732 88.0577 44.7207 87.7202 44.7282C87.2177 44.7282 87.0977 45.0732 86.7227 44.9607Z" fill="#92400E"/>
<path d="M89.2502 47.1512C88.8227 46.9862 87.5552 46.6937 87.3452 47.3162C87.1577 47.8712 88.1477 48.6737 88.5302 48.8762C89.1752 49.2137 89.8352 49.3112 90.1577 48.9812C90.4577 48.6662 90.2627 48.0512 90.0602 47.7512C89.8727 47.4812 89.5802 47.2787 89.2502 47.1512Z" fill="#92400E"/>
<path d="M90.4876 46.7834C89.6101 46.1309 88.6951 45.5759 88.1476 45.5384C87.6001 45.5084 85.9501 45.1859 85.5001 45.9584C85.0501 46.7309 85.1176 48.0509 86.8201 49.3409C88.5226 50.6309 90.3676 50.8409 90.6601 50.2409C90.9526 49.6484 91.3876 49.3409 91.3876 49.1759C91.3876 49.0109 91.3501 47.4209 90.4876 46.7834ZM89.0176 49.2434C88.6051 49.1759 88.0126 48.8609 87.3001 48.2159C86.5951 47.5709 86.5276 46.8959 86.6251 46.6409C86.7226 46.3859 87.6901 46.2884 88.4626 46.4459C89.2351 46.6034 89.9401 47.6609 89.9401 47.6609L90.1651 48.3434C90.3901 49.0259 89.4226 49.3109 89.0176 49.2434Z" fill="#92400E"/>
<path d="M109.343 45.6729C108.638 45.3804 107.603 45.4779 107.033 45.8379C106.463 46.1979 106.073 46.4829 105.818 46.8954C105.563 47.3079 105.998 46.6404 105.998 46.6404C106.095 46.4154 106.253 45.5754 107.19 45.1629C108.12 44.7429 108.51 44.9378 108.668 44.7428C108.825 44.5478 109.373 44.1279 108.668 43.9704C107.963 43.8129 106.223 44.1278 105.48 45.3053C104.738 46.4829 104.16 47.8779 104.16 49.2579C104.16 50.6379 105.255 50.6229 106.058 50.5629C106.688 50.5179 107.333 50.1129 107.858 49.7079C108.503 49.2204 108.78 48.6879 109.148 48.0054C109.695 46.9929 110.048 45.9654 109.343 45.6729ZM108.443 47.2554C108.188 48.0579 107.025 49.3779 106.515 49.6029C105.998 49.8279 104.97 49.7154 105.135 49.1304C105.293 48.5454 106.853 46.5054 108 46.5504C108.653 46.5729 108.705 46.4604 108.45 47.2629L108.443 47.2554Z" fill="#92400E"/>
<path d="M106.448 46.9785C106.621 47.031 107.123 47.0985 107.573 47.451C108.023 47.8035 107.986 48.3885 107.573 48.8385C107.161 49.2885 106.088 49.7835 105.368 48.8385C104.648 47.8935 106.448 46.9785 106.448 46.9785Z" fill="#92400E"/>
<path d="M103.2 45.4482C103.133 45.8982 102.173 49.4982 102.75 51.3657C103.328 53.2332 104.243 56.1282 105.203 57.0282C105.323 57.1407 105.405 57.2382 105.473 57.3132C106.553 58.4607 105.015 57.6132 104.618 57.6732C104.168 57.7407 103.395 57.5457 103.2 56.8332C103.005 56.1207 101.783 53.4882 101.85 50.8482C101.918 48.2082 102.105 47.3082 102.368 46.5357C102.63 45.7632 102.675 45.6732 102.788 45.4482C102.9 45.2232 103.058 45.2232 103.193 45.2532C103.328 45.2832 103.208 45.4482 103.208 45.4482H103.2Z" fill="#92400E"/>
<path d="M92.6931 44.6534C92.6931 44.5709 92.7231 44.5109 92.7831 44.4809C93.1581 44.2784 93.6531 44.8109 93.8781 45.2384C94.1406 45.7484 94.3131 46.4009 94.4631 46.7834C94.9656 48.0884 96.9831 53.9459 96.3081 57.6884C96.3081 57.6884 96.0156 58.3334 95.6781 58.5284C95.3406 58.7234 94.5681 58.5284 94.5681 58.5284C94.5681 58.5284 94.8081 57.8009 94.9056 56.6009C95.0031 55.3934 94.8756 53.2634 94.2156 50.5634C93.9756 49.5884 94.0506 48.5759 93.8106 47.6009C93.6756 47.0309 93.4881 46.4759 93.2556 45.9359C93.1656 45.7259 92.6781 45.0134 92.6856 44.6609L92.6931 44.6534Z" fill="#92400E"/>
<path d="M106.155 57.6885C105 57.426 101.857 57.036 100.747 57.1335C99.6373 57.231 98.2348 57.3735 96.9373 57.6885C95.6323 58.0035 93.7498 58.146 93.2473 59.061C92.7448 59.976 92.8873 60.651 92.9848 61.956C93.0823 63.261 93.4198 64.131 93.5173 64.4685C93.5173 64.4685 93.9973 66.831 94.6723 67.701C95.3473 68.571 98.0998 68.5185 99.5023 68.181C100.905 67.8435 103.56 68.136 104.91 67.7985C106.26 67.461 106.935 66.111 106.852 64.7085C106.77 63.306 107.077 62.6835 107.707 60.561C108.337 58.4385 107.325 57.951 106.162 57.696L106.155 57.6885ZM106.545 60.5085C105.96 61.521 105.337 62.6835 105.577 63.891C105.817 65.0985 105.96 66.4035 104.415 66.546C102.87 66.6885 100.89 66.1635 99.1498 66.6885C97.4098 67.221 97.1323 67.071 96.4273 67.1235C96.0523 67.146 95.9173 67.1685 95.5273 66.2535C95.1448 65.3385 94.6723 64.146 94.2073 62.766C93.7423 61.3785 94.0798 60.366 94.6573 59.7435C95.2348 59.121 98.1523 57.7185 101.175 57.696C104.197 57.6735 106.057 57.7935 106.537 58.626C107.017 59.4585 107.122 59.5035 106.537 60.516L106.545 60.5085Z" fill="#92400E"/>
<path d="M102.548 64.2731C102.428 64.2056 102.33 64.1232 102.263 64.0482C101.858 63.5907 101.768 62.7582 101.948 62.1957C102.308 61.0857 103.845 60.1707 104.813 60.0207C105.78 59.8707 106.695 60.8907 106.403 61.7607C106.11 62.6307 105.9 63.0357 105.21 62.7582C104.52 62.4807 103.125 62.6756 103.26 63.2531C103.313 63.4631 103.68 63.9882 103.583 64.1982C103.403 64.5882 102.893 64.4756 102.54 64.2731H102.548Z" fill="#92400E"/>
<path d="M93.9981 63.2612C93.9981 63.2612 93.7056 61.4762 93.7056 61.1837C93.7056 60.8912 95.4606 60.5987 96.7656 60.8312C97.4031 60.9437 98.0105 61.1612 98.4455 61.6637C98.7455 62.0162 98.9256 62.4587 99.0381 62.9012C99.1356 63.2987 99.2555 64.1612 98.798 64.4087C98.543 64.5512 98.3556 64.3787 98.2281 64.1687C97.8456 63.5012 97.478 62.6012 96.9905 62.7587C96.5105 62.9162 94.6131 64.1087 94.0056 63.2537L93.9981 63.2612Z" fill="#92400E"/>
<path d="M93.5109 64.4679C93.5109 64.4679 92.1084 64.2729 91.3884 64.0329C90.6609 63.7929 87.0459 62.8929 84.5859 60.0129C84.5859 60.0129 83.6709 59.0829 83.6709 60.0129C83.6709 60.9429 83.8659 61.3404 84.5409 62.0304C85.2159 62.7279 86.3634 63.6429 88.8309 64.4679C91.2984 65.2854 91.9734 65.2854 92.8959 66.3054C93.8184 67.3254 94.2009 67.5579 95.3109 67.7079C96.4209 67.8579 93.9909 64.5429 93.5259 64.4754L93.5109 64.4679Z" fill="#92400E"/>
<path d="M112.358 41.8252C113.73 41.8327 116.393 44.8627 118.133 47.2552C119.873 49.6477 119.82 50.3752 119.918 50.8102C120.015 51.2452 119.625 51.1027 118.71 51.0502C117.795 51.0052 117.51 51.0802 115.748 50.5852C113.985 50.0902 113.453 50.0227 112.725 49.3777C111.998 48.7327 112.035 48.8152 111.945 49.2577C111.855 49.7002 111.9 50.6677 111.563 51.9202C111.225 53.1727 110.378 54.7027 109.56 55.4677C108.743 56.2327 107.385 57.4552 107.468 58.2802L106.155 57.6877C106.155 57.6877 106.613 57.2227 108.015 55.9702C109.418 54.7177 109.74 54.3277 110.408 52.8352C111.075 51.3427 110.948 51.2302 111.435 49.1902C111.623 48.4027 112.38 46.2652 112.433 45.4552C112.56 43.5352 112.065 41.8252 112.358 41.8327V41.8252Z" fill="#92400E"/>
<path d="M113.04 42.7781C113.078 42.4856 115.23 42.0056 116.535 42.2981C117.84 42.5906 119.385 44.0156 121.17 45.2381C122.955 46.4606 125.708 50.1356 126.72 50.9981C127.733 51.8606 127.928 52.2506 127.448 52.5881C126.968 52.9256 123.488 54.5156 122.43 54.5156C121.373 54.5156 117.42 54.9956 115.748 53.8856C114.083 52.7756 112.26 52.2431 111.57 50.9906V50.0231C111.57 50.0231 112.373 50.9606 113.048 51.5381C113.723 52.1156 116.205 53.1581 117.503 53.2106C118.8 53.2631 120.015 52.1981 121.56 52.4381C123.105 52.6781 124.553 52.2431 124.943 52.1456C125.333 52.0481 124.605 51.4781 124.41 50.9906C124.215 50.5031 122.723 49.0856 122.048 48.4181C121.373 47.7506 119.438 45.9881 118.283 45.2306C117.128 44.4731 117.083 43.6931 115.755 43.7456C114.42 43.7981 114.443 43.3556 113.558 43.7456C112.673 44.1356 112.943 43.5806 113.055 42.7706L113.04 42.7781Z" fill="#92400E"/>
<path d="M70.4552 39.5378C70.4552 39.5378 65.5652 41.5478 61.4552 46.9403C57.3452 52.3253 57.3077 53.1503 57.7352 53.2178C58.1627 53.2853 61.8077 52.4753 63.5402 52.6853C65.2802 52.8878 68.8277 51.3053 72.2327 49.9103C75.6377 48.5228 78.0002 46.5503 78.5027 46.2128C79.0052 45.8753 78.6527 45.4178 77.9027 45.6128C77.1527 45.8078 75.1052 47.4728 73.9952 47.9753C72.8852 48.4778 71.3177 49.8953 68.7227 49.7078C66.1277 49.5203 64.1777 50.0828 62.9552 50.3753C61.7327 50.6678 59.1677 51.5753 61.4177 49.1753C62.1302 48.4103 67.0802 43.5653 68.1527 42.8153C69.2252 42.0653 72.3527 40.6928 73.1102 40.7078C73.8602 40.7153 71.5202 39.2753 70.4477 39.5303L70.4552 39.5378Z" fill="#92400E"/>
<path d="M77.8054 42.141C77.7979 41.826 74.2729 41.1885 74.2729 41.1885C73.4104 41.6085 73.1254 41.916 72.0754 42.4035C71.0254 42.891 70.4704 43.641 69.4204 44.796C68.5504 45.756 68.7454 45.831 67.8904 46.911C67.2229 47.7585 67.2754 47.796 67.2754 47.796C67.2754 47.796 66.4579 48.5235 67.1029 48.3885C67.7479 48.2535 71.9254 47.256 74.0554 45.921C76.1854 44.586 77.8279 43.0485 77.8054 42.126V42.141Z" fill="#92400E"/>
<path d="M69.2326 73.3487C69.0301 73.4162 68.0776 73.3487 68.1676 74.5562C68.2651 75.7637 68.5051 77.5037 70.4851 80.2037C72.4651 82.9037 74.7301 83.9237 77.1001 84.8387C79.4626 85.7537 84.4351 87.4487 87.1876 87.9737C89.9401 88.5062 93.1876 90.9212 93.9976 91.7837C94.8151 92.6537 95.6326 94.6787 96.1651 95.5487C96.6976 96.4187 96.8401 96.8012 97.6126 94.6787C97.6126 94.6787 98.0476 94.5362 98.9626 95.7437C98.9626 95.7437 99.4426 96.6137 99.5926 95.1137C99.7351 93.6137 99.7876 92.3612 99.2101 89.6087C98.6326 86.8562 95.7826 81.1112 93.3226 78.7937C90.8626 76.4762 87.1576 73.0487 86.5951 71.7962C86.5951 71.7962 86.3251 71.0687 85.7926 71.2637C85.2601 71.4587 85.8526 72.4187 86.5951 73.4837C87.3376 74.5487 90.4276 77.4887 91.7776 79.5662C93.1276 81.6437 96.2701 88.0637 96.9901 89.1737C97.7101 90.2837 97.8076 90.9587 97.8601 91.1987C97.9126 91.4387 97.0426 91.2437 96.4576 90.8162C95.8726 90.3887 95.4901 90.5762 95.3026 90.4337C95.1151 90.2912 93.1276 88.3562 89.9476 87.8762C86.7676 87.3962 80.6776 84.4937 79.3276 83.3837C77.9776 82.2737 74.0926 79.0412 72.7051 76.7687C71.3176 74.5037 69.9226 73.1312 69.2401 73.3412L69.2326 73.3487Z" fill="#92400E"/>
<path d="M91.1481 75.6652C91.3881 75.6652 95.3106 77.5927 96.4356 78.2227C97.5606 78.8527 102.053 81.8902 103.066 82.7152C104.078 83.5402 104.708 84.4027 104.993 84.8377C105.278 85.2727 106.246 86.0902 106.148 84.0202C106.148 84.0202 106.036 82.9102 106.936 84.2152C107.836 85.5202 107.386 83.4877 106.936 82.4752C106.486 81.4627 104.701 76.5877 104.408 75.6727C104.116 74.7577 100.981 67.9552 100.741 67.7152C100.501 67.4752 97.4106 68.0452 97.4106 68.0452C97.4106 68.0452 103.928 80.1577 104.363 80.9302C104.798 81.7027 104.251 81.7477 103.703 81.3127C103.156 80.8777 100.358 79.6252 98.9106 78.0802C97.4631 76.5352 93.0681 73.4002 92.8806 73.1077C92.6931 72.8152 91.1406 75.6652 91.1406 75.6652H91.1481Z" fill="#92400E"/>
<path d="M90.8851 76.5055C91.0501 76.1455 93.7651 72.283 93.9976 71.5105C94.2301 70.738 94.0352 70.7755 93.7052 70.978C93.2852 71.233 92.3627 72.4405 91.8302 73.243C90.4427 75.343 89.8276 75.838 89.6251 75.6055C89.3101 75.2605 90.8851 76.498 90.8851 76.498V76.5055Z" fill="#92400E"/>
<path d="M40.2681 85.6106C40.8456 85.5131 48.1356 86.9606 53.1531 86.5781C58.1706 86.1956 69.9006 85.2731 74.6331 83.2931L72.6906 81.7031C72.6906 81.7031 67.2981 83.3306 65.6031 83.7506C63.9156 84.1706 59.6631 84.9881 57.8331 85.0856C55.9956 85.1831 53.7756 85.0406 51.3681 85.3781C48.9606 85.7156 42.0006 85.0856 40.9881 84.7481C39.9756 84.4106 40.2606 85.6181 40.2606 85.6181L40.2681 85.6106Z" fill="#92400E"/>
<path d="M40.56 82.468C40.56 82.468 40.6051 83.593 40.8001 84.163C40.9951 84.733 40.755 87.7255 40.56 88.978C40.365 90.2305 37.4251 95.0605 35.7826 97.0405C35.7826 97.0405 34.575 99.6505 33.945 100.326C33.315 101.001 33.3675 100.131 33.27 98.923C33.1725 97.7155 32.205 99.3055 31.485 100.176C30.765 101.046 30.7575 99.838 30.7575 98.3905C30.7575 96.943 30.7126 93.9505 30.4651 92.8405C30.2176 91.7305 29.115 86.6155 27.81 84.778C26.505 82.9405 25.5901 81.643 25.0576 79.7605C24.5251 77.878 23.2201 73.243 23.9026 69.8155C24.5776 66.388 27.7125 63.5905 30.7575 61.8505C33.795 60.1105 38.625 58.7605 40.41 57.673C42.195 56.5855 49.0051 52.438 49.7776 51.808C50.5501 51.178 54.99 46.7455 55.905 45.703C56.82 44.6605 60.3526 37.9855 65.3926 35.4355L66.5176 36.073C66.5176 36.073 64.9275 36.268 64.2075 37.3255C63.4875 38.383 61.2601 40.3555 60.3001 42.2005C59.3326 44.038 56.3401 47.4205 55.3801 48.673C54.4126 49.9255 52.095 51.808 50.025 53.353C47.955 54.898 42.2251 57.868 40.2376 58.603C38.2501 59.338 33.0825 61.4155 32.115 62.038C31.1475 62.6605 27.3826 65.968 26.9026 67.1155C26.4226 68.263 25.8825 76.0855 26.61 78.7405C28.11 84.1555 28.8751 83.2331 30.5176 87.0431C32.1601 90.8531 32.445 94.4305 32.4975 95.1506C32.4975 95.1506 32.5425 95.533 33.1275 95.7805C33.7125 96.028 34.1925 96.4105 34.6275 95.8255C35.0625 95.2405 36.9901 92.4431 37.4776 90.4181C37.9576 88.3931 38.2051 86.023 38.2951 84.433C38.3926 82.843 38.73 82.213 39.5025 81.9205C40.275 81.628 40.5226 81.868 40.5676 82.453L40.56 82.468Z" fill="#92400E"/>
<path d="M51.5623 86.3304C51.5623 86.6379 48.8098 96.2229 48.2773 97.8204C47.7448 99.4179 46.1023 101.053 45.7648 101.105C45.4273 101.158 44.8948 100.235 44.6548 98.9304C44.4148 97.6254 43.1098 99.8979 42.6748 100.768C42.2398 101.638 41.6623 100.91 41.9023 98.5029C42.1423 96.0879 41.8348 93.6279 41.8423 92.4204C41.8498 91.2129 40.9873 89.2629 40.6273 88.4304C40.2673 87.5979 40.2598 85.6179 40.2598 85.6179L41.9023 85.3779C41.9023 85.3779 42.3373 87.3054 42.8173 88.2729C43.2973 89.2404 45.2323 94.4004 45.1123 95.6604C44.9923 96.9129 45.0373 96.6729 45.4723 96.5754C45.9073 96.4779 47.0623 95.7579 47.4523 95.6604C47.8423 95.5629 49.6273 86.9229 49.7173 86.3454C49.8073 85.7679 51.5548 86.3454 51.5548 86.3454L51.5623 86.3304Z" fill="#92400E"/>
<path d="M27.4503 64.2285C27.4503 64.2285 24.2928 65.721 23.4753 66.4485C22.6578 67.176 18.1653 71.466 16.6203 77.0685C16.3578 78.0285 15.9303 78.951 15.5328 79.866C15.0528 80.9835 14.7153 81.786 14.7153 83.0085C14.7153 84.561 15.4578 86.916 18.0153 87.501C18.0153 87.501 18.6903 87.696 18.4953 87.306C18.3003 86.916 17.4303 86.0985 17.8653 85.3785C18.3003 84.6585 19.0203 83.691 18.7353 80.646C18.4503 77.601 18.2028 77.316 18.8328 76.1085C19.4628 74.901 21.0978 71.9385 21.8253 71.2485C22.5528 70.5585 24.2853 70.461 24.8178 70.506C25.3503 70.551 27.4428 64.2285 27.4428 64.2285H27.4503Z" fill="#92400E"/>
<path d="M111.068 37.033C111.293 37.1455 111.961 38.458 112.103 40.1305C112.141 40.6105 112.358 42.7705 112.411 43.8355C112.411 43.8355 113.881 42.013 113.423 41.6455C112.921 41.2405 112.741 38.0755 111.556 36.5605L111.061 37.0255L111.068 37.033Z" fill="#92400E"/>
<path d="M53.1304 60.1257C53.0329 60.1257 52.9279 60.1032 52.8454 60.0507C52.7179 59.9757 52.6578 59.8257 52.5978 59.6982C52.2078 58.8357 51.7654 58.0932 51.1354 57.3882C51.0454 57.2832 50.8729 57.3657 50.8954 57.5082C51.0079 58.1982 51.0753 58.9032 51.0978 59.6007C51.0978 59.7132 51.0978 59.8332 51.0303 59.9232C50.9478 60.0282 50.7979 60.0432 50.6629 60.0432C49.7854 60.0732 48.9004 60.0657 48.0229 60.0057C47.8729 59.9982 47.7904 60.1782 47.9029 60.2832C48.5254 60.8382 49.2529 61.2732 50.0404 61.5507C50.1379 61.5882 50.2504 61.6257 50.3104 61.7157C50.4004 61.8582 50.3179 62.0382 50.2429 62.1882C49.9129 62.7882 49.2454 63.4932 49.5079 64.1007C49.5304 64.1532 49.5904 64.1832 49.6504 64.1607C49.8679 64.0932 50.4528 63.8382 51.4728 62.9232C52.3803 62.1057 53.6178 62.9532 54.7578 63.2607C54.8628 63.2907 54.9904 63.3132 55.0579 63.2232C55.1329 63.1257 55.0578 62.9832 54.9903 62.8857C54.6078 62.3607 53.7979 61.6857 54.1729 60.9807C54.2329 60.8682 55.5454 59.7432 55.2979 59.5782C54.8779 59.2932 53.9628 60.1557 53.1603 60.1332L53.1304 60.1257Z" fill="#92400E"/>
<path d="M83.67 80.4803C83.67 80.4803 82.6875 79.3928 82.6275 79.2428C82.5675 79.0928 81.81 80.3678 81.3075 80.5403C80.805 80.7128 81.855 78.7628 81.96 78.3053C82.065 77.8478 80.67 76.8578 80.5575 76.6628C80.445 76.4678 82.155 76.7528 82.5975 76.8503C83.04 76.9478 83.3325 75.4103 83.805 75.3878C84.0975 75.3728 83.715 76.6778 83.79 77.1278C83.79 77.1278 85.1025 76.8353 85.3425 77.1053C85.56 77.3453 84.3675 77.9303 83.88 78.2153C83.58 78.3953 83.895 79.4678 83.88 80.3903C83.8725 80.7353 83.67 80.4878 83.67 80.4878V80.4803Z" fill="#92400E"/>
<path d="M48.5022 76.5728C48.5097 76.6928 48.6222 77.6003 48.6972 78.1628C48.7197 78.3578 48.9522 78.4403 49.0947 78.3203L50.2647 77.3228L52.3497 77.9078C52.5747 77.9678 52.7772 77.7503 52.6947 77.5253L52.0947 75.9578L52.5897 75.0278C52.7322 74.7578 52.5072 74.4353 52.1997 74.4878L50.9472 74.7053L49.9272 73.0553C49.8072 72.8603 49.5222 72.8753 49.4247 73.0853L48.5622 74.9003C48.5622 74.9003 46.6497 75.1778 46.5747 75.4178C46.4847 75.6878 48.5022 76.5728 48.5022 76.5728Z" fill="#92400E"/>
<path d="M82.89 54.3135C82.98 54.2235 83.085 54.1485 83.2275 54.096C84.405 53.6685 85.275 55.266 84.1875 55.941C83.5275 56.3535 82.995 55.7835 82.8075 55.4835C82.575 55.101 82.5975 54.6135 82.89 54.3135Z" fill="#92400E"/>
<path d="M61.9279 70.1911C61.9279 70.1911 62.7454 70.5511 62.2129 71.3236C61.6879 72.1036 60.8479 71.3461 60.7654 70.8436C60.6829 70.3411 61.0654 69.8011 61.9279 70.1911Z" fill="#92400E"/>
<path d="M33.9151 76.5961C34.4026 76.7836 34.7851 77.1736 34.4701 77.7061C34.2376 78.0961 33.9076 78.3586 33.4351 78.3061C32.8951 78.2461 32.1226 77.8111 32.2951 77.1736C32.3851 76.8511 32.6701 76.6111 32.9926 76.5211C33.2401 76.4461 33.6001 76.4836 33.9226 76.6036L33.9151 76.5961Z" fill="#92400E"/>
<path d="M63.3071 75.2386C63.7796 75.5686 63.9971 76.2811 63.6896 76.8586C62.9846 78.1561 60.8996 76.8586 61.7846 75.6061C61.9121 75.4261 62.0696 75.2761 62.2646 75.1861C62.6621 74.9911 63.0296 75.0511 63.3071 75.2461V75.2386Z" fill="#92400E"/>
<path d="M55.2972 69.8155C54.9147 70.033 54.4572 69.973 54.1497 69.2905C53.7972 68.5105 54.5997 67.888 55.3122 67.933C56.5047 68.008 56.0247 69.403 55.3047 69.8155H55.2972Z" fill="#92400E"/>
<path d="M41.3024 69.5228C40.8074 70.2803 39.7049 70.7303 38.8574 69.7628C37.6949 68.4353 39.3749 67.2053 40.5149 67.5428C41.6999 67.8953 41.7524 68.8328 41.3024 69.5153V69.5228Z" fill="#92400E"/>
<path d="M66.7796 62.2932C66.2546 62.9082 65.0021 62.5782 64.5146 61.9857C63.4571 60.7032 64.9571 59.9757 65.4296 59.9232C66.2546 59.8407 67.0946 60.9882 66.9971 61.7532C66.9671 61.9782 66.8921 62.1582 66.7796 62.2932Z" fill="#92400E"/>
<path d="M41.4151 62.8854C41.4151 62.8854 40.7401 63.6429 40.0801 62.8029C39.4201 61.9554 40.5301 61.3104 41.1076 61.3929C41.6851 61.4754 42.1351 62.0829 41.4151 62.8854Z" fill="#92400E"/>
<path d="M22.4012 49.4011C22.5962 48.4336 22.8812 47.3761 21.4337 47.3761C19.9862 47.3761 15.4487 48.9211 14.9687 48.5311C14.4887 48.1411 14.3612 46.0186 14.1812 44.2861C14.0012 42.5461 13.7162 40.8586 12.9437 41.6761C12.9437 41.6761 11.6912 41.8711 11.5937 45.7336C11.4962 49.5961 12.1712 49.8811 11.4962 49.5961C10.8212 49.3036 5.80371 50.3686 5.80371 51.4336C5.80371 52.4986 9.18621 53.2711 11.0162 53.4586C11.0162 53.4586 10.5362 55.1011 10.5362 57.1261C10.5362 59.1511 10.7312 61.3711 11.6912 61.2736C12.6587 61.1761 14.7812 56.9311 15.5537 56.5411C16.3262 56.1586 18.7412 59.3386 19.7012 59.3386C20.6612 59.3386 19.7987 55.5736 18.4487 53.8336C18.4487 53.8336 22.2137 50.3611 22.4087 49.3936L22.4012 49.4011ZM16.8062 53.3536C18.1562 56.0536 17.0012 55.2811 15.8387 54.1261C14.6837 52.9711 13.8137 54.7036 13.0412 55.2811C12.2687 55.8586 13.3337 53.4436 13.4237 52.6711C13.5137 51.8986 10.5287 51.8011 10.0412 51.3586C9.56121 50.9161 13.1312 50.8336 12.7412 49.7761C12.3587 48.7111 12.7412 45.0436 12.7412 45.0436C13.4162 43.4011 13.0337 47.2636 13.7087 48.8086C14.3837 50.3536 14.9612 50.5486 16.0262 50.2036C17.0912 49.8586 23.0762 48.1336 20.1737 50.2036C17.2787 52.2736 16.7912 53.3461 16.7912 53.3461L16.8062 53.3536Z" fill="#92400E"/>
<path d="M27.1795 23.5187C27.1795 23.5187 28.912 24.3812 29.392 24.3662C29.392 24.3662 29.7295 24.3962 29.662 24.0887C29.5945 23.7812 29.0245 21.9512 28.8895 21.7412C28.8895 21.7412 31.1395 19.3562 31.1395 19.2587C31.1395 19.1612 31.3795 18.9212 30.967 18.7712C30.667 18.6662 27.6145 19.5437 27.6145 19.5437C27.6145 19.5437 25.642 17.2487 25.462 17.0537C25.282 16.8587 24.9595 16.8737 24.847 17.1887C24.7345 17.5037 24.6745 20.0087 24.6745 20.0087C24.6745 20.0087 21.9445 20.3612 21.7345 20.4962C21.5245 20.6312 21.4945 20.8712 21.682 21.0062C21.8695 21.1412 24.3145 22.4537 24.3145 22.4537L23.932 25.9787C23.932 25.9787 24.022 26.7812 24.6745 26.1887C25.327 25.5962 27.187 23.5262 27.187 23.5262L27.1795 23.5187Z" fill="#92400E"/>
<path d="M17.5657 22.3716C16.0582 21.5166 14.5432 20.6691 13.0132 19.8366C12.1657 19.3791 11.4907 18.5391 10.8007 17.7741C10.1032 17.0166 9.36816 16.3191 8.24316 16.2891" fill="#92400E"/>
<path d="M18.0376 22.589C18.1501 22.349 18.0601 22.049 17.8276 21.914C16.3276 21.059 14.7901 20.204 13.2676 19.379C12.6226 19.0265 12.0676 18.4115 11.4901 17.759L11.1901 17.4215C10.4401 16.604 9.5926 15.8015 8.2576 15.7715C7.9726 15.7715 7.7326 15.989 7.7251 16.274C7.7251 16.559 7.9426 16.799 8.2276 16.8065C9.1576 16.829 9.77259 17.414 10.4176 18.119L10.7101 18.449C11.3251 19.139 11.9626 19.8515 12.7651 20.2865C14.2801 21.1115 15.8101 21.959 17.3026 22.814C17.5501 22.9565 17.8651 22.8665 18.0076 22.619C18.0076 22.604 18.0226 22.5965 18.0226 22.5815L18.0376 22.589Z" fill="#92400E"/>
<path d="M20.812 15.3139C19.537 13.4239 14.677 8.30891 12.937 6.81641L20.812 15.3139Z" fill="#92400E"/>
<path d="M21.2768 15.5386C21.3518 15.3811 21.3443 15.1861 21.2393 15.0286C19.7768 12.8611 14.8793 7.80607 13.2743 6.43357C13.0568 6.24607 12.7269 6.26857 12.5469 6.48607C12.3594 6.70357 12.3818 7.03357 12.5993 7.21357C14.1293 8.53357 18.9743 13.5136 20.3768 15.6061C20.5343 15.8461 20.8568 15.9061 21.0968 15.7486C21.1793 15.6961 21.2393 15.6211 21.2768 15.5386Z" fill="#92400E"/>
<path d="M24.7872 14.5563C23.8122 13.5738 23.4297 12.1563 22.7772 10.9338C22.0722 9.62129 20.9472 8.59379 19.7847 7.63379" fill="#92400E"/>
<path d="M25.2598 14.7811C25.3498 14.5861 25.3198 14.3536 25.1623 14.1961C24.5623 13.5886 24.2022 12.7711 23.8197 11.9161C23.6397 11.5111 23.4598 11.0986 23.2423 10.6936C22.4773 9.28356 21.2923 8.19606 20.1223 7.23606C19.9048 7.05606 19.5748 7.08606 19.3948 7.31106C19.2148 7.53606 19.2448 7.85856 19.4698 8.03856C20.5573 8.93106 21.6598 9.93606 22.3348 11.1886C22.5298 11.5561 22.6948 11.9386 22.8748 12.3361C23.2798 13.2436 23.6922 14.1811 24.4272 14.9311C24.6297 15.1336 24.9598 15.1336 25.1623 14.9311C25.2073 14.8861 25.2373 14.8411 25.2673 14.7811H25.2598Z" fill="#92400E"/>
<path d="M112.979 97.9265C113.062 97.9565 112.927 99.749 113.107 99.9065C113.287 100.064 114.494 98.714 114.697 98.729C114.952 98.7515 117.487 99.9215 117.607 99.614C117.749 99.239 116.594 97.5065 116.497 97.304C116.399 97.1015 117.592 95.924 117.772 95.5265C117.772 95.5265 118.049 94.8365 115.492 95.639C115.492 95.639 114.554 93.809 114.247 93.6065C113.939 93.404 113.159 95.879 113.122 96.029C113.084 96.179 111.187 96.4265 110.999 96.719C110.812 97.0115 111.892 97.5365 112.972 97.9265H112.979Z" fill="#92400E"/>
<path d="M9.83904 92.3688C10.214 92.2263 10.619 92.3463 10.799 93.0063C11.009 93.7638 10.199 94.2063 9.56153 94.0713C8.49653 93.8313 9.12654 92.6388 9.83904 92.3688Z" fill="#92400E"/>
<path d="M11.5114 98.9909C11.5114 98.9909 12.2314 98.3984 12.7039 99.2534C13.1764 100.108 12.0814 100.536 11.5789 100.378C11.0764 100.221 10.7464 99.6059 11.5114 98.9834V98.9909Z" fill="#92400E"/>
<path d="M37.1539 42.8459C36.6439 43.4759 36.3739 44.4584 36.1339 45.1709C36.0364 44.4659 35.7814 43.5059 35.4514 42.4859C35.8339 42.1859 36.3139 41.3534 36.5764 40.4234C37.0189 38.8634 37.1914 36.5084 36.3889 36.6134C35.5789 36.7259 35.5939 36.8759 34.9939 38.7134C34.8139 39.2759 34.7314 39.8234 34.7164 40.3109C34.0939 38.5934 33.4864 37.0484 33.3364 36.5534C33.2989 36.4334 33.2539 36.3209 33.2014 36.2234C33.3139 35.6309 33.4339 34.7984 33.3964 34.0334C33.3364 32.6759 32.3239 29.8859 31.3714 30.4259C30.4339 30.9584 30.6589 32.3984 30.8764 33.2459C31.0039 33.7484 31.1914 34.2509 31.4014 34.7234C31.5514 35.0534 31.7239 35.3609 31.9414 35.6459C32.0014 35.7284 32.3689 36.0434 32.3689 36.1334C32.3689 36.3134 32.4064 36.5609 32.5114 36.8834C32.7439 37.5809 33.1789 38.8409 33.5764 40.3634C33.0589 39.4184 32.2639 38.2709 31.7764 38.3759C31.0414 38.5334 31.3639 40.1609 32.4664 41.3684C33.0664 42.0284 33.6814 42.4334 34.0564 42.5459C34.1764 43.2359 34.2739 43.9409 34.3339 44.6459C34.1464 44.1959 33.8389 43.6484 33.1339 43.0484C31.7239 41.8334 31.3789 42.7109 31.4689 43.2059C31.5589 43.7009 32.4439 46.6859 34.3339 46.9034C34.0039 50.7584 33.7864 52.8659 33.8614 53.5859C33.9064 54.0434 34.0564 54.8159 34.4839 54.8684C34.6189 54.8834 34.7764 54.8309 34.9789 54.6809C35.4214 54.3284 35.8789 53.6084 35.9914 53.0534C36.1639 52.2284 36.2614 49.3634 36.2314 47.1284C38.7364 45.1334 38.4964 42.8009 38.3314 42.3884C38.1664 41.9759 37.9264 41.9084 37.1689 42.8534L37.1539 42.8459Z" fill="#92400E"/>
<path d="M50.5564 22.2507C50.0014 22.4232 49.4689 22.6932 48.9964 23.0007C49.1989 22.5057 49.4314 21.9732 49.6339 21.5832C50.2114 21.6432 51.4114 20.5932 52.5439 19.6107C53.9689 18.3807 54.8164 16.3857 54.1564 16.1982C53.4964 16.0107 52.7314 16.3857 51.1189 17.8107C49.7464 19.0257 49.1914 20.0757 49.2439 20.9082C48.9214 21.2532 48.4564 21.9132 47.9989 22.7232C48.0589 22.4682 48.1189 22.2432 48.1789 22.0857C48.5614 21.0432 48.1789 18.9507 47.6089 18.8757C47.0389 18.8007 46.5664 19.0482 46.0939 21.1332C45.6439 23.1207 46.5589 24.6132 46.8139 25.2132C46.5214 25.8507 46.1989 26.5707 45.8989 27.5682C45.5989 26.2482 44.4814 22.5657 43.7239 22.6482C42.8689 22.7457 42.3664 26.6307 44.8489 29.6607C44.8489 29.6607 45.0814 30.1482 45.2914 30.2607C45.1264 31.2582 44.9914 32.4357 44.8939 33.8607C44.3389 32.7507 43.2064 30.5607 42.7714 30.2907C42.2014 29.9457 41.6839 30.1782 41.5864 31.4607C41.4889 32.7432 42.8689 36.1032 44.7589 37.1007C44.7364 38.6232 44.4739 39.7857 44.3239 41.3307C44.1814 42.7782 43.4614 43.4607 43.0939 44.1357C42.9139 44.4807 42.0589 45.1557 42.4864 45.5457C43.3039 46.2957 44.5789 44.3532 44.8039 43.7607C45.3139 42.4407 45.5539 41.0307 45.6514 39.6282C45.6964 39.0132 45.7039 38.4057 45.7039 37.7982C45.7039 37.5432 45.5839 35.7882 45.7714 35.6907C46.8514 35.1432 48.9964 33.4257 49.6564 32.2557C50.5039 30.7482 50.3989 29.6907 48.8614 30.6882C47.9614 31.2732 46.7389 32.8107 45.9364 34.0632C46.0939 32.8407 46.3189 31.6407 46.6489 30.6507C46.6714 30.5907 46.6864 30.5307 46.7089 30.4632C47.4589 30.2007 48.3214 29.7507 48.3214 29.7507C50.1814 28.6107 52.6264 26.8107 51.8014 26.4657C50.9764 26.1207 49.6489 26.8182 48.7414 27.0957C48.3889 27.2007 47.9914 27.3732 47.5939 27.5682C47.7664 26.9682 47.9164 26.4057 48.0589 25.9032C51.4789 24.8682 53.3614 22.5207 53.1064 22.2432C52.8214 21.9507 52.0639 21.7782 50.5489 22.2432L50.5564 22.2507Z" fill="#92400E"/>
<path d="M122.722 82.8741C123.314 82.2891 125.159 80.7516 125.947 80.2041C126.734 79.6566 129.247 77.6091 131.129 77.4516C133.012 77.2941 132.704 77.7666 132.307 78.3141C131.909 78.8616 128.932 81.2991 126.179 82.0866C126.179 82.0866 125.354 82.2816 125.587 82.4391C125.819 82.5966 126.637 81.9366 127.904 82.1616C127.904 82.1616 128.609 82.1616 128.062 82.6716C127.514 83.1816 127.162 83.7291 125.744 84.0066C124.327 84.2841 123.194 84.2016 122.722 84.0066C122.249 83.8116 122.264 83.3166 122.722 82.8666V82.8741Z" fill="#92400E"/>
<path d="M121.492 84.164C120.832 84.254 120.884 83.4965 121.072 83.1065C121.582 82.049 122.444 79.469 124.724 77.4215C127.004 75.3665 128.617 74.624 129.082 74.624C129.547 74.624 129.314 75.0965 128.887 75.449C127.079 76.9265 125.594 78.914 124.252 80.804C123.517 81.839 122.917 82.6415 122.174 83.6615C122.002 83.894 121.784 84.119 121.492 84.164Z" fill="#92400E"/>
<path d="M118.357 71.946C118.679 72.6885 118.672 73.7085 118.709 74.4585C118.994 73.806 119.497 72.951 120.089 72.0585C119.804 71.661 119.572 70.7385 119.564 69.7635C119.564 68.1435 120.029 65.826 120.779 66.1485C121.529 66.471 121.477 66.621 121.552 68.5485C121.574 69.141 121.499 69.6885 121.387 70.161C122.452 68.676 123.457 67.356 123.734 66.921C123.802 66.816 123.877 66.7185 123.959 66.636C124.012 66.036 124.124 65.2035 124.364 64.476C124.792 63.186 126.517 60.7785 127.289 61.551C128.047 62.316 127.439 63.636 126.997 64.401C126.742 64.851 126.419 65.2785 126.089 65.676C125.857 65.9535 125.609 66.201 125.317 66.4185C125.234 66.4785 124.799 66.681 124.777 66.771C124.732 66.9435 124.627 67.1685 124.432 67.4535C124.019 68.061 123.254 69.156 122.459 70.5135C123.217 69.7485 124.289 68.856 124.732 69.0885C125.399 69.441 124.642 70.9185 123.262 71.781C122.504 72.2535 121.807 72.4785 121.409 72.4785C121.102 73.1085 120.817 73.761 120.577 74.4285C120.877 74.046 121.327 73.6035 122.159 73.2135C123.847 72.426 123.937 73.3635 123.719 73.821C123.502 74.2785 121.844 76.9035 119.962 76.6035C119.234 80.3985 118.874 82.491 118.604 83.1585C118.432 83.586 118.087 84.291 117.659 84.2235C117.524 84.201 117.382 84.111 117.239 83.9085C116.902 83.451 116.669 82.6335 116.707 82.071C116.767 81.2235 117.449 78.4485 118.087 76.3035C116.219 73.7085 117.082 71.526 117.352 71.1735C117.622 70.821 117.869 70.821 118.349 71.9385L118.357 71.946Z" fill="#92400E"/>
</svg>
