<svg width="73" height="73" viewBox="0 0 73 73" fill="none" xmlns="http://www.w3.org/2000/svg">
<g filter="url(#filter0_d_238_371)">
<path d="M54.9016 39.0331C54.6966 38.8134 49.9227 34.2299 40.624 36.6754C40.0968 35.8115 39.4818 35.0061 38.7496 34.2592C37.9296 33.4392 37.007 32.7656 36.0552 32.2238C38.53 22.8665 33.9172 18.078 33.6975 17.8583C32.8628 17.0236 31.5303 17.0236 30.6956 17.8437C29.8462 18.6637 29.8316 20.0256 30.637 20.8896C30.7688 21.036 33.6097 24.1844 31.9842 30.7887C28.089 30.1297 23.9448 31.2866 20.9429 34.2885C16.0373 39.2088 16.0373 47.2042 20.9429 52.1099C25.8632 57.0301 33.8586 57.0301 38.7789 52.1099C41.854 49.0201 42.9963 44.7295 42.2201 40.7464C48.6194 39.2381 51.7092 41.9618 51.8996 42.1375C52.7489 42.9576 54.0961 42.9429 54.9308 42.1082C55.7655 41.2736 55.7655 39.9117 54.9308 39.0624L54.9016 39.0331ZM23.9741 49.0493C20.7379 45.8131 20.7379 40.5414 23.9741 37.3051C27.2104 34.0689 32.4675 34.0689 35.7183 37.3051C38.9546 40.5414 38.9692 45.8131 35.7183 49.0493C32.4821 52.2856 27.225 52.2856 23.9741 49.0493Z" fill="#3C2400"/>
</g>
<defs>
<filter id="filter0_d_238_371" x="0.61727" y="0.584066" width="71.5858" height="71.8631" filterUnits="userSpaceOnUse" color-interpolation-filters="sRGB">
<feFlood flood-opacity="0" result="BackgroundImageFix"/>
<feColorMatrix in="SourceAlpha" type="matrix" values="0 0 0 0 0 0 0 0 0 0 0 0 0 0 0 0 0 0 127 0" result="hardAlpha"/>
<feOffset/>
<feGaussianBlur stdDeviation="8.3232"/>
<feColorMatrix type="matrix" values="0 0 0 0 1 0 0 0 0 1 0 0 0 0 1 0 0 0 0.75 0"/>
<feBlend mode="normal" in2="BackgroundImageFix" result="effect1_dropShadow_238_371"/>
<feBlend mode="normal" in="SourceGraphic" in2="effect1_dropShadow_238_371" result="shape"/>
</filter>
</defs>
</svg>
