<svg width="18" height="18" viewBox="0 0 18 18" fill="none" xmlns="http://www.w3.org/2000/svg">
<path d="M8.99984 4.10775C8.8904 4.10772 8.78202 4.12925 8.6809 4.17112C8.57979 4.21299 8.48791 4.27437 8.41052 4.35176C8.33313 4.42915 8.27175 4.52103 8.22988 4.62214C8.18801 4.72326 8.16648 4.83164 8.16651 4.94108V8.59424L6.14096 9.61352C6.04322 9.66268 5.95613 9.73061 5.88465 9.81343C5.81317 9.89625 5.7587 9.99233 5.72435 10.0962C5.69001 10.2001 5.67646 10.3097 5.68447 10.4188C5.69249 10.5279 5.72192 10.6344 5.77108 10.7321C5.82024 10.8298 5.88817 10.9169 5.97098 10.9884C6.0538 11.0599 6.14989 11.1144 6.25376 11.1487C6.35763 11.183 6.46724 11.1966 6.57635 11.1886C6.68546 11.1806 6.79192 11.1511 6.88965 11.102L9.37419 9.85197C9.51221 9.78271 9.62823 9.67642 9.70929 9.54499C9.79035 9.41356 9.83324 9.26217 9.83317 9.10775V4.94108C9.8332 4.83164 9.81167 4.72326 9.7698 4.62214C9.72793 4.52103 9.66655 4.42915 9.58916 4.35176C9.51177 4.27437 9.4199 4.21299 9.31878 4.17112C9.21766 4.12925 9.10928 4.10772 8.99984 4.10775ZM8.99984 0.774414C7.35166 0.774414 5.7405 1.26316 4.37009 2.17883C2.99968 3.09451 1.93158 4.396 1.30084 5.91872C0.670115 7.44144 0.505087 9.11699 0.82663 10.7335C1.14817 12.35 1.94185 13.8349 3.10728 15.0003C4.27272 16.1657 5.75758 16.9594 7.37409 17.281C8.9906 17.6025 10.6662 17.4375 12.1889 16.8067C13.7116 16.176 15.0131 15.1079 15.9288 13.7375C16.8444 12.3671 17.3332 10.7559 17.3332 9.10775C17.3306 6.89839 16.4519 4.78024 14.8896 3.21798C13.3273 1.65573 11.2092 0.776942 8.99984 0.774414ZM8.99984 15.7744C7.6813 15.7744 6.39237 15.3834 5.29604 14.6509C4.19971 13.9183 3.34523 12.8771 2.84064 11.659C2.33606 10.4408 2.20404 9.10035 2.46127 7.80715C2.71851 6.51394 3.35345 5.32605 4.2858 4.3937C5.21815 3.46135 6.40603 2.82641 7.69924 2.56918C8.99245 2.31194 10.3329 2.44397 11.5511 2.94855C12.7692 3.45314 13.8104 4.30762 14.543 5.40395C15.2755 6.50027 15.6665 7.78921 15.6665 9.10775C15.6645 10.8752 14.9615 12.5698 13.7117 13.8196C12.4618 15.0694 10.7673 15.7724 8.99984 15.7744Z" fill="#78716C"/>
</svg>
