<svg width="134" height="121" viewBox="0 0 134 121" fill="none" xmlns="http://www.w3.org/2000/svg">
<path d="M14.1845 70.3822C14.507 70.6672 14.957 70.7047 15.392 70.1047C15.887 69.4297 15.2495 68.6722 14.5595 68.5747C13.4045 68.4097 13.5845 69.8422 14.192 70.3747L14.1845 70.3822Z" fill="#92400E"/>
<path d="M4.58432 68.4394C4.95932 69.1294 6.22682 69.0694 6.81182 68.6044C8.07932 67.5919 6.7968 66.5869 6.3468 66.4519C5.5743 66.2044 4.53931 67.1344 4.47931 67.8844C4.46431 68.1094 4.50182 68.2894 4.58432 68.4394Z" fill="#92400E"/>
<path d="M18.354 64.4119C18.354 64.4119 18.8415 65.2744 19.644 64.5994C20.4465 63.9244 19.509 63.0844 18.9465 63.0469C18.384 63.0094 17.8215 63.5044 18.354 64.4119Z" fill="#92400E"/>
<path d="M30.0772 6.72156C29.9272 6.79656 29.9122 7.82406 29.7397 7.89906C29.5672 7.97406 29.0797 7.14906 28.8697 7.00656C28.6597 6.86406 26.9422 7.50906 26.7097 7.50156C26.4772 7.49406 27.4222 6.32406 27.5197 6.06156C27.6172 5.79906 26.7472 4.90656 26.6272 4.54656C26.5072 4.18656 28.3597 5.06406 28.3597 5.06406C28.3597 5.06406 28.9522 3.58656 29.0047 3.45906C29.0572 3.33156 29.6722 4.78656 29.7997 5.11656C29.9272 5.44656 31.5547 5.57406 31.6522 5.68656C31.7497 5.79906 31.6897 5.97156 30.0697 6.72906L30.0772 6.72156Z" fill="#92400E"/>
<path d="M82.292 103.93C82.682 104.185 83.162 104.147 83.5295 103.45C83.9495 102.655 83.1545 101.957 82.4045 101.957C81.152 101.957 81.5645 103.457 82.292 103.93Z" fill="#92400E"/>
<path d="M71.792 106.712C72.2645 107.537 73.3894 108.077 74.3419 107.124C75.6469 105.812 73.9594 104.409 72.7444 104.694C71.4769 104.987 71.3719 105.969 71.7994 106.712H71.792Z" fill="#92400E"/>
<path d="M65.6417 100.937C65.6417 100.937 66.3017 101.777 67.0442 100.937C67.7867 100.089 66.6617 99.3466 66.0542 99.3916C65.4467 99.4366 64.9367 100.052 65.6342 100.937H65.6417Z" fill="#92400E"/>
<path d="M92.0571 45.0466C92.0571 45.0466 95.4696 46.4566 97.0371 48.6766C98.6046 50.8966 102.452 58.1041 103.052 59.4016C103.652 60.6991 104.185 62.0941 104.41 62.5966C104.777 63.4216 107.387 65.6266 108.362 66.4966C109.337 67.3666 112.367 71.3716 114.265 74.2441C116.162 77.1166 118.705 81.7216 120.385 82.4266C122.065 83.1316 125.747 83.9416 127.427 83.4541C129.107 82.9666 130.03 82.2616 130.787 82.5841C131.545 82.9066 130.57 84.6991 129.107 85.9966C127.645 87.2941 123.475 87.9991 121.577 87.5116C119.68 87.0241 118.112 86.7541 118.112 86.7541C118.112 86.7541 116.867 89.8966 114.16 89.8966C114.16 89.8966 112.75 89.9491 112.862 89.4091C112.99 88.7716 114.377 89.4616 115.84 85.7791C115.84 85.7791 115.892 85.3966 114.212 84.0466C112.532 82.6891 106.36 75.9766 105.49 74.8891C104.62 73.8091 101.695 70.4491 101.207 69.7966C100.72 69.1441 96.9246 66.1666 96.0096 65.1916C95.0871 64.2166 93.0321 61.9966 92.4921 61.1266C91.9521 60.2566 89.1846 58.5241 88.8096 58.0966C88.4346 57.6691 87.7296 57.3391 87.7821 56.9566C87.8346 56.5741 87.9996 55.7641 88.3221 56.0341C88.6446 56.3041 90.8646 57.6616 91.5696 58.8541C92.2746 60.0466 94.8771 62.6491 95.9046 63.9466C96.9321 65.2441 99.6396 67.1941 100.727 68.5516C101.815 69.9091 109.337 77.7091 110.53 79.0066C111.722 80.3041 116.215 84.9691 116.545 85.2391C116.875 85.5091 115.247 88.4341 115.187 88.5991C115.127 88.7641 116.11 88.7041 116.702 87.6241C117.295 86.5441 117.46 86.1616 117.625 86.1616C117.79 86.1616 122.935 87.5191 125.86 86.4841C128.785 85.4566 129.535 84.0316 128.837 84.1516C127.27 84.4216 124.502 84.4966 122.065 83.8291C119.897 83.2366 118.87 82.7491 117.355 80.4166C117.355 80.4166 113.507 74.2966 112.697 73.1041C111.805 71.7916 110.68 70.5991 109.645 69.4066C108.64 68.2516 107.627 67.1041 106.577 65.9866C105.872 65.2366 105.152 64.5391 104.395 63.8341C103.72 63.2041 103.757 62.5891 103.405 61.8166C103.172 61.3066 102.902 60.8116 102.64 60.3166C101.83 58.8016 100.982 57.3016 100.12 55.8166C99.1671 54.1816 98.2746 52.2466 96.9921 50.8366C95.9121 49.6441 94.5021 46.5541 91.7946 45.7966L92.0646 45.0391L92.0571 45.0466Z" fill="#92400E"/>
<path d="M100.998 66.4975C100.998 66.3325 101.215 65.9575 101.868 65.905C102.52 65.8525 103.923 65.8 103.6 66.175C103.278 66.55 102.348 66.4675 101.973 66.5575C101.133 66.745 100.998 66.505 100.998 66.505V66.4975Z" fill="#92400E"/>
<path d="M65.8154 44.9347C65.8154 44.9347 60.9029 47.0497 59.3129 48.6322C57.7229 50.2147 53.5004 55.4197 53.2154 56.1097C52.9304 56.7997 52.7654 56.3572 52.4804 56.1922C52.1954 56.0272 46.5479 53.1472 42.0404 52.0897C37.5329 51.0322 34.7654 49.8547 34.0754 48.5572C33.3854 47.2597 32.6504 44.7397 30.4979 44.0047C28.3454 43.2697 27.6554 44.2897 27.8579 44.6122C28.0604 44.9347 29.5229 46.0372 29.6879 46.6447L30.3404 46.4797C30.3404 46.4797 29.3654 45.0997 28.8404 44.8147C28.3154 44.5297 29.7329 44.3647 30.5504 44.8522C31.3679 45.3397 32.4179 45.9472 33.0704 47.7397C33.7229 49.5247 34.8179 50.6647 36.1979 51.1147C37.5779 51.5647 47.2079 54.1222 52.5329 57.1297C52.5329 57.1297 53.1854 57.4522 53.4254 57.1672C53.6654 56.8822 58.1804 50.6647 59.5979 49.3672C61.0229 48.0697 65.8979 45.6322 65.8979 45.6322L65.8154 44.9422V44.9347Z" fill="#92400E"/>
<path d="M31.7646 48.6772C31.4796 46.9672 31.1122 46.6072 30.3397 46.4797C29.5672 46.3522 28.1046 46.2772 27.6996 46.1947L27.2947 46.1122C27.2947 46.1122 25.9146 46.0747 25.7121 45.8647C25.5096 45.6547 25.1871 45.6172 24.9396 45.6172C24.8196 45.6172 23.5147 45.6997 23.4772 46.3072C23.4397 46.9147 24.0846 49.0297 24.2871 49.9672C24.4896 50.9047 25.1421 52.1647 26.4396 52.3672C27.7371 52.5697 30.5872 52.8922 31.2772 52.1197C31.9672 51.3472 32.0496 50.3722 31.7646 48.6697V48.6772ZM30.2646 51.8872C29.8971 52.1722 28.3971 51.8047 27.7446 51.4372C27.0921 51.0697 26.2821 50.2972 25.7571 50.0572C25.2321 49.8097 25.0221 48.4747 24.9471 47.7022C24.8721 46.9297 24.9846 46.8922 25.1121 46.8472C25.1121 46.8472 26.7772 46.7272 27.2272 46.8472C27.6772 46.9672 29.7021 46.6447 30.0321 47.4997C30.3546 48.3547 30.6396 51.6022 30.2796 51.8872H30.2646Z" fill="#92400E"/>
<path d="M30.0627 52.6146C30.1827 52.6146 31.3602 53.3871 31.9302 53.8746C32.5002 54.3621 35.7927 57.3771 39.1602 59.2746C42.6102 61.2246 47.5302 63.7821 50.6577 63.8646L51.1452 63.3396C51.1452 63.3396 44.7252 61.7571 42.8577 60.4146C40.9902 59.0721 35.2602 55.3371 34.6077 54.6471C33.9552 53.9571 31.5627 51.7596 31.2327 51.6846C30.9027 51.6096 30.0552 52.6221 30.0552 52.6221L30.0627 52.6146Z" fill="#92400E"/>
<path d="M91.6074 60.13C91.6074 60.13 89.9424 64.8025 89.6949 65.74C89.4474 66.6775 88.3149 70.375 88.3149 70.375C88.4349 70.9 88.1949 71.11 88.1949 71.11C88.1949 71.11 86.5674 70.585 86.5674 70.375C86.5674 70.165 88.2324 65.5825 88.4799 64.645C88.7274 63.7075 89.5749 58.675 89.6199 58.27C89.6649 57.865 91.6074 60.1375 91.6074 60.1375V60.13Z" fill="#92400E"/>
<path d="M85.5553 69.8868C85.7203 69.8943 86.6953 70.0892 87.3403 70.3742C87.9853 70.6592 90.9553 72.7292 92.3803 75.3317C93.8053 77.9342 95.4703 82.7643 94.7803 86.8668C94.0903 90.9692 90.6853 95.4767 88.1203 96.4967C85.1578 97.6742 79.0603 98.3267 75.4828 96.1292C75.4828 96.1292 71.2978 94.1793 67.8028 89.7093C64.3078 85.2393 61.5478 81.0167 60.0028 78.4142C58.4578 75.8117 56.4703 74.2293 56.1028 73.9893C56.1028 73.9893 55.3303 73.5393 55.0453 73.4193C54.7603 73.2993 55.2928 72.6092 55.6978 72.5267C56.1028 72.4442 59.5978 74.6417 61.2253 78.0092C62.8528 81.3767 71.0578 91.7793 75.6853 94.5468C80.3203 97.3068 87.1453 96.5792 90.0253 94.0592C92.9128 91.5392 94.7803 85.4492 93.8428 81.4217C92.9053 77.4017 91.2853 74.3492 89.6578 72.8492C88.0303 71.3492 85.9978 70.6142 85.5103 70.5767C85.5103 70.5767 84.8578 69.8418 85.5478 69.8868H85.5553Z" fill="#92400E"/>
<path d="M83.2377 77.0718C83.3577 77.1543 83.7252 77.2743 83.9277 76.9518C84.1302 76.6293 81.5277 72.2418 78.4827 69.1893C75.4377 66.1443 66.1752 60.4143 64.7877 59.4768C63.4002 58.5393 61.5402 57.2418 61.0527 56.9568C60.5652 56.6718 58.2477 56.7093 57.8427 57.0768C57.4377 57.4443 55.1202 59.7618 54.5127 60.2043C53.9052 60.6468 50.6952 62.6043 48.9027 65.0418C47.1177 67.4793 36.4302 80.4393 35.2527 82.1043C34.0752 83.7693 26.6802 93.5643 26.0727 94.3368C25.4652 95.1093 22.2102 98.6043 21.0327 99.6618C21.0327 99.6618 16.5252 103.112 15.7527 103.599C14.9802 104.087 14.5302 104.372 14.6577 104.822C14.7852 105.272 17.6202 106.247 19.4952 105.557C21.3627 104.867 24.8952 102.549 26.3202 102.384C27.7452 102.219 28.3902 103.157 29.4102 102.099C30.4302 101.042 30.7902 99.4593 30.1827 98.2818C30.1827 98.2818 30.5052 96.6993 34.9752 94.7868C39.4452 92.8743 45.1752 90.5643 48.9927 86.6643C52.8102 82.7643 53.9877 80.3643 55.3677 77.7243C56.7477 75.0843 58.4577 75.8568 58.4577 75.8568L56.7477 74.3118C56.7477 74.3118 55.1202 75.3693 54.3477 77.0718C53.5752 78.7818 52.2327 81.9468 49.4352 85.0368C49.4352 85.0368 45.1677 89.5068 40.5777 91.5393C40.5777 91.5393 32.2527 94.5468 30.4227 96.1293C30.4227 96.1293 28.6377 97.9968 28.5927 98.3643C28.5477 98.7318 29.3277 99.0168 29.2452 99.8643C29.1627 100.712 28.3527 101.492 27.1302 101.574C27.1302 101.574 25.0152 101.124 23.3127 102.752C21.6027 104.379 18.8427 105.107 17.7027 104.987C16.5627 104.867 15.9927 104.619 16.9302 103.974C17.8677 103.322 23.1852 99.0618 25.7877 95.7693C28.3902 92.4768 38.1777 79.5168 39.8052 77.4843C41.4327 75.4518 48.3777 67.6518 49.0677 66.9618C49.7577 66.2718 52.6452 63.2268 53.2152 62.8143C53.7852 62.4093 54.6402 61.9218 55.0827 61.2693C55.5252 60.6168 58.0077 58.2618 58.4127 58.1418C58.8177 58.0218 59.8377 57.9393 60.8127 58.4643C61.7877 58.9893 67.0677 61.7943 69.1827 63.3018C71.2977 64.8018 78.3627 70.0443 81.2052 73.9443L83.2377 77.0718Z" fill="#92400E"/>
<path d="M58.8104 60.7817C58.4654 60.9017 58.1729 61.0667 58.1729 61.2692C58.1729 61.4342 58.7803 61.9217 59.5153 61.5542C60.2503 61.1867 60.3253 60.7442 59.8003 60.6167C59.6503 60.5792 59.2004 60.6467 58.8104 60.7817Z" fill="#92400E"/>
<path d="M46.7951 67.9742C46.7951 67.9742 42.2051 67.0817 38.9951 67.3667C35.7851 67.6517 34.8926 67.2017 33.6701 69.2342C32.4476 71.2667 31.7576 73.5842 31.9226 75.1217C32.0876 76.6592 32.8976 79.8767 35.1326 82.6367L35.6576 82.1867C35.6576 82.1867 33.2576 78.6092 32.9726 76.4567C32.6876 74.3042 33.2951 71.4992 34.0676 70.4417C34.8401 69.3842 35.2451 68.9792 37.4801 68.6567C39.7151 68.3342 45.0776 68.4917 46.3751 69.1442L46.7801 67.9667L46.7951 67.9742Z" fill="#92400E"/>
<path d="M37.5328 71.3501C37.5328 71.3501 36.9253 71.8001 36.7603 72.6476C36.5953 73.5026 36.5953 74.8826 37.0078 74.4776C37.4203 74.0726 37.5778 72.9776 37.7803 72.4901C37.9828 72.0026 37.9453 71.1926 37.5328 71.3501Z" fill="#92400E"/>
<path d="M50.0879 85.3218C50.0879 85.3218 54.1904 87.4068 55.4504 88.1643C57.0779 89.1393 65.4479 93.6093 72.5954 94.1343L71.5379 93.0393C71.5379 93.0393 62.5604 90.9243 57.7679 88.3293C52.9754 85.7343 50.4929 84.6318 50.4929 84.6318L50.0879 85.3218Z" fill="#92400E"/>
<path d="M40.375 92.192C43.2175 97.352 53.785 106.374 55.165 108.482C56.545 110.597 56.4625 113.679 56.425 114.782C56.3875 115.877 54.715 118.029 54.31 118.194C53.905 118.359 52.6 118.644 52.1575 118.847C51.715 119.049 52.6825 120.759 55.9375 119.822C59.185 118.884 59.23 115.232 59.23 115.232C59.3125 113.034 60.49 112.104 61.015 111.332C61.54 110.559 62.965 109.502 62.3125 108.407C61.495 107.027 60.6475 107.267 58.5775 105.114C56.5075 102.962 55 95.7695 53.1775 91.4645C51.355 87.1595 49.645 85.937 49.5175 85.8545L48.9925 86.3795C48.9925 86.3795 51.19 88.1645 52 90.317C52.81 92.4695 55.495 100.637 56.2675 102.339C57.04 104.042 59.275 107.537 60.0475 108.069C60.82 108.602 60.985 109.292 60.5725 110.222C60.16 111.152 58.54 112.697 58.4575 114.287C58.375 115.877 57.6025 118.104 55.735 118.509C55.735 118.509 54.8425 118.832 55.3675 118.187C55.8925 117.542 57.1975 116.964 57.28 114.609C57.3625 112.254 57.445 108.999 54.64 106.644C51.835 104.289 42.4075 95.147 41.275 91.817L40.3825 92.1845L40.375 92.192Z" fill="#92400E"/>
<path d="M28.3524 52.457C28.3149 52.5395 28.1049 56.192 24.8349 59.6495C24.8349 59.6495 24.3474 60.032 24.5874 60.947C24.8274 61.862 28.9374 57.5945 29.3424 52.4945L28.3449 52.457H28.3524Z" fill="#92400E"/>
<path d="M25.4277 64.8465C25.4577 64.9215 25.6302 65.214 26.2977 65.2515C26.9652 65.289 30.2577 58.224 30.0177 52.4715C30.0177 52.4715 29.0802 52.329 29.0202 52.4715C28.9602 52.614 28.7352 57.6315 26.4177 62.814C26.4177 62.814 25.3227 64.584 25.4202 64.8465H25.4277Z" fill="#92400E"/>
<path d="M30.8277 52.172C30.9252 52.2095 32.5977 55.217 32.6577 59.4845C32.6577 59.4845 32.7777 59.5895 32.3127 60.317C31.8477 61.052 30.7452 61.9595 30.7452 61.577C30.8652 53.837 29.1477 54.407 29.7477 53.0645C29.8152 52.9145 29.8077 51.767 30.8277 52.172Z" fill="#92400E"/>
<path d="M31.7278 27.9549C31.7278 27.9549 30.8953 24.9924 29.8978 24.7224C28.9003 24.4524 27.5803 29.0274 27.6028 30.9399C27.6253 32.8524 28.4953 35.3874 29.4328 35.4099C30.3703 35.4324 32.0128 30.2724 32.0353 29.6799C32.0578 29.0874 31.7278 27.9549 31.7278 27.9549ZM30.8503 30.9024C30.6253 31.4949 29.6503 34.8024 29.0053 34.0524C28.3603 33.3024 28.4353 30.5199 28.6603 29.3799C28.8853 28.2399 29.8153 25.7049 29.8153 25.7049C29.9953 25.3974 30.7303 26.9274 31.0753 27.9399C31.4203 28.9524 31.0753 30.3174 30.8503 30.9024Z" fill="#92400E"/>
<path d="M31.6454 28.4049C31.8104 28.2024 32.5604 27.4899 33.4304 27.2274C34.3004 26.9649 36.5353 26.3574 37.3078 26.9424C38.0803 27.5349 37.3904 29.1174 35.5229 31.1649C33.6554 33.2199 31.3979 34.0524 30.4229 34.2099L30.5429 33.4749C30.5429 33.4749 32.2679 32.9874 33.4304 32.1324C34.5929 31.2774 36.8654 28.3749 35.9879 28.0074C35.1179 27.6399 32.8004 28.1724 31.9229 29.2449L31.6378 28.3899L31.6454 28.4049Z" fill="#92400E"/>
<path d="M30.3857 25.4952C30.4232 25.2102 30.7082 23.5677 31.8857 21.9402C33.0632 20.3127 33.3257 20.5377 33.6332 21.2052C33.9407 21.8727 34.6907 23.6052 34.8107 24.0102C34.9307 24.4152 34.3007 26.8752 33.8582 27.4002C33.4157 27.9252 32.4332 28.0302 32.4332 28.0302C32.4332 28.0302 33.7907 25.0227 33.8357 24.3552C33.8732 23.6877 33.1457 21.6552 32.8232 21.8577C32.5007 22.0602 30.9932 24.8052 31.0532 26.5527L30.3857 25.4952Z" fill="#92400E"/>
<path d="M36.6996 27.0396C36.7596 27.0171 39.3846 24.5421 39.8046 22.8921C40.2246 21.2421 36.9621 22.2996 36.7146 22.3821C36.4671 22.4646 34.8846 23.9046 34.5171 24.6396C34.1496 25.3746 33.8496 27.2571 33.8496 27.2571C33.8496 27.2571 35.7621 24.2121 36.1821 23.6796C36.6021 23.1471 36.8121 22.8096 38.0271 22.7271C39.2496 22.6446 39.1221 22.7496 38.8221 23.1921C38.5221 23.6346 36.6696 26.1771 35.8746 26.8671C35.0796 27.5571 36.6846 27.0321 36.6846 27.0321L36.6996 27.0396Z" fill="#92400E"/>
<path d="M33.4904 21.6396C33.6329 21.2121 35.3204 18.5496 36.3104 17.7171C37.3079 16.8846 37.5704 21.4521 37.4054 22.2846L36.4304 22.8546C36.4304 22.8546 36.7379 18.8121 36.4529 18.6321C36.1679 18.4521 34.2404 21.1521 33.9929 22.4721L33.4829 21.6396H33.4904Z" fill="#92400E"/>
<path d="M39.4453 22.2252C39.5278 22.1427 42.5353 20.1327 42.7378 18.6702C42.9403 17.2077 41.8453 17.4702 40.9903 17.6127C40.1353 17.7552 37.5178 19.2552 37.1128 19.8252C36.7078 20.3952 37.0903 20.8602 37.0903 20.8602C37.0903 20.8602 39.0778 18.5877 40.8853 18.1152C42.6928 17.6502 42.2653 19.2327 38.6503 22.1352L39.4453 22.2177V22.2252Z" fill="#92400E"/>
<path d="M36.9474 18.6546C36.9249 18.5721 37.4575 16.5621 37.96 15.6471C38.47 14.7321 39.5049 14.2446 39.8274 14.1846C40.1499 14.1246 40.72 16.8471 40.5625 17.8821C40.5625 17.8821 39.8724 18.3096 39.8724 18.2496C39.8724 18.1896 39.9775 15.1596 39.6475 14.9796C39.3175 14.7996 38.0649 16.7046 37.2474 19.3671L36.9399 18.6546H36.9474Z" fill="#92400E"/>
<path d="M42.43 18.1219C42.595 18.0394 44.1775 17.5969 44.4175 16.6819C44.6575 15.7669 44.665 15.0769 44.4175 14.8969C44.17 14.7169 42.2875 14.3269 40.2325 15.7519L40.21 16.3219C40.21 16.3219 43.0525 15.2869 43.6225 15.5494C44.1925 15.8119 43.8024 17.0119 42.1374 17.7469L42.4224 18.1294L42.43 18.1219Z" fill="#92400E"/>
<path d="M39.6104 14.6126C39.6329 14.4476 39.7304 12.6401 41.0954 11.6876C42.4529 10.7351 43.2104 11.3201 43.3529 12.5201C43.4954 13.7201 43.3529 15.0401 43.3529 15.0401L42.5429 15.0026C42.5429 15.0026 43.1504 11.7326 42.2954 11.7551C41.4404 11.7776 40.5254 12.6251 40.1429 15.3101L39.6179 14.6201L39.6104 14.6126Z" fill="#92400E"/>
<path d="M44.4179 15.445C44.5004 15.3625 46.0829 14.5075 46.2629 13.4725C46.4429 12.4375 45.8129 11.8075 45.1679 11.89C44.5154 11.9725 43.0979 12.4 43.0979 12.4C43.0979 12.4 42.9329 13.375 43.0379 13.2925C43.1429 13.21 44.4629 12.46 45.1679 12.64C45.8729 12.82 45.5354 13.8775 44.0729 14.995L44.4179 15.445Z" fill="#92400E"/>
<path d="M42.835 11.6421C42.9175 11.3946 44.5224 8.65708 46.0674 7.63708C47.6124 6.62458 48.4449 6.98458 48.4674 7.80208C48.4899 8.61958 47.185 11.4171 45.91 12.3921C45.91 12.3921 45.0999 12.2871 45.1374 12.0846C45.1749 11.8821 47.7774 8.40958 46.7799 8.40958C45.7824 8.40958 43.8174 11.7396 43.5699 12.3471L43.045 12.1821L42.8424 11.6346L42.835 11.6421Z" fill="#92400E"/>
<path d="M31.6 33.8501C31.6 33.8501 28.9 37.0976 29.2 43.9076L28.225 44.5001L29.38 45.7826L29.4175 46.3751L28.0375 46.4351C28.0375 46.4351 26.68 42.2276 29.275 35.2451C29.275 35.2451 30.6325 33.1151 31.5925 33.8651L31.6 33.8501Z" fill="#92400E"/>
<path d="M36.6851 26.8968C36.8876 26.6943 39.4076 24.3993 40.4201 23.3793C41.4326 22.3668 45.1976 19.0968 45.5426 18.9318C45.8876 18.7668 39.3476 25.2093 37.3976 27.1368L36.6851 26.8893V26.8968Z" fill="#92400E"/>
<path d="M29.448 25.5172C29.4255 25.2697 29.343 24.3397 30.1155 22.6297C30.888 20.9197 33.7305 16.8997 33.753 16.8397C33.7755 16.7797 34.098 16.6372 32.883 18.7522C31.668 20.8672 30.183 24.0922 30.123 25.2322L29.4555 25.5172H29.448Z" fill="#92400E"/>
<path d="M32.6426 21.1746C32.6801 20.9946 33.3326 19.5921 33.9026 18.5946C34.4726 17.5971 35.3051 12.0096 39.2651 8.64214C39.2651 8.64214 40.2026 7.90714 39.5126 8.80714C38.8226 9.70714 37.5851 11.3046 36.5876 13.6446C35.5901 15.9846 34.7576 19.5546 33.4376 21.2796L32.6426 21.1746Z" fill="#92400E"/>
<path d="M39.0552 14.6719C39.0552 14.5069 39.5427 12.4144 40.4127 10.4269C41.2827 8.43944 43.4202 6.18194 43.9902 5.85944C44.5602 5.53694 41.3877 8.88944 40.5777 12.2569L39.8652 14.6119L39.0552 14.6719Z" fill="#92400E"/>
<path d="M44.1404 16.7198C44.2229 16.6973 45.4004 15.7673 46.4129 14.6648C47.4254 13.5698 49.7879 12.3323 50.5754 11.3348C51.3704 10.3373 52.1204 9.01732 51.8954 9.78982C51.6704 10.5623 51.3479 11.3573 49.5629 12.8573C47.7779 14.3573 45.2579 16.9223 43.7129 17.5298L44.1404 16.7198Z" fill="#92400E"/>
<path d="M43.57 10.5246C43.6525 10.2996 44.71 7.77961 46.2325 5.97211C47.755 4.16461 54.58 0.609613 55.3525 0.242113C56.125 -0.125387 55.8025 0.362113 54.925 0.909613C54.055 1.45711 48.79 4.40461 47.59 5.52211C46.39 6.63961 45.6775 8.07961 45.6775 8.07961L43.5625 10.5171L43.57 10.5246Z" fill="#92400E"/>
<path d="M47.0656 10.7118C47.1856 10.5093 50.4181 7.82427 51.7156 6.83427C53.0131 5.84427 56.4932 4.33677 56.9807 4.25427C57.4682 4.17177 57.1531 4.31427 56.4556 4.65927C55.5406 5.10927 51.8206 7.15677 50.3206 8.80677C48.8206 10.4568 46.3606 12.2568 45.9106 12.3993C45.4606 12.5418 47.0656 10.7118 47.0656 10.7118Z" fill="#92400E"/>
<path d="M41.7176 33.3174C40.9451 33.4824 37.1276 36.0024 35.9876 37.2549C35.4926 37.8024 35.2151 38.4099 35.1401 39.1449C35.1326 39.2349 35.0651 39.5724 35.1026 39.6774C35.3051 39.9474 36.2351 39.7899 36.4826 39.6999C37.1351 39.4524 40.7501 38.7249 41.7626 37.3449C42.7751 35.9649 42.4976 33.1599 41.7251 33.3249L41.7176 33.3174ZM41.1476 37.0149C40.6976 37.6674 35.8676 39.4899 35.6201 39.2124C35.5151 39.0924 35.5826 38.6424 36.7151 37.5024C37.8476 36.3624 40.5776 34.4949 41.1026 34.3299C41.6276 34.1649 41.5901 36.3624 41.1401 37.0149H41.1476Z" fill="#92400E"/>
<path d="M36.0322 39.857C36.2347 39.857 37.0447 40.6295 38.7547 41.0795C40.4647 41.5295 45.0097 42.0545 45.5797 41.282C46.1497 40.5095 45.9472 39.332 45.2122 39.212C44.4772 39.092 41.8822 37.6295 41.3122 37.5845C40.7422 37.5395 40.2172 37.952 40.2172 37.952C40.2172 37.952 44.2822 39.2945 44.4022 39.737C44.5222 40.1795 43.6297 41.0345 41.7622 40.9145C39.8947 40.7945 37.4122 39.5345 37.2922 39.3695C37.1722 39.2045 36.0322 39.857 36.0322 39.857Z" fill="#92400E"/>
<path d="M41.8827 34.3752C42.0477 34.2102 44.9277 31.2027 45.8652 30.7602C46.8027 30.3102 47.1252 31.3677 46.8777 32.5452C46.6302 33.7227 45.7002 35.7177 45.2127 36.2427C44.7252 36.7677 41.8377 38.0727 41.5977 38.0277C41.3502 37.9902 41.0727 38.1102 41.3127 37.5777C41.5527 37.0452 44.5602 36.1152 45.0102 35.3802C45.4602 34.6452 46.7577 31.3602 45.9852 31.4427C45.2127 31.5252 42.3252 34.6902 42.2502 34.8927C42.1752 35.0952 41.8827 34.3677 41.8827 34.3677V34.3752Z" fill="#92400E"/>
<path d="M45.2127 39.2117C45.4752 39.1967 48.7077 39.2117 50.8602 37.0967C53.0127 34.9817 45.8202 34.8242 45.8202 34.8242L45.3327 35.5142C45.3327 35.5142 49.4802 35.7992 50.1252 36.0392C50.7777 36.2867 48.2127 38.5967 43.8252 38.6792C43.8252 38.6792 44.5602 39.2492 45.2052 39.2042L45.2127 39.2117Z" fill="#92400E"/>
<path d="M46.6378 31.9751C46.8028 31.7726 48.0178 29.3351 48.9103 29.2901C49.8028 29.2526 50.8603 30.2651 50.6578 31.4426C50.4553 32.6201 48.5053 35.1026 47.8528 35.3801C47.2003 35.6576 46.5928 35.2151 46.5928 35.2151C46.5928 35.2151 49.9678 32.9426 50.0428 31.2326C50.1253 29.5226 48.3778 29.7326 46.5928 33.0176L46.6303 31.9601L46.6378 31.9751Z" fill="#92400E"/>
<path d="M49.5998 35.5969C49.7198 35.4769 52.5624 33.6469 52.8474 32.8744C53.1324 32.1019 51.5498 31.4494 50.2448 31.9819C50.2448 31.9819 49.7198 32.7169 49.8398 32.7169C49.9598 32.7169 51.5048 32.1919 51.9923 32.5144C52.4798 32.8369 50.1248 34.6294 48.9023 35.2744L49.5923 35.5969H49.5998Z" fill="#92400E"/>
<path d="M49.9229 30.0248C50.0879 29.6573 51.2203 27.5048 52.4428 26.9348C53.6653 26.3648 52.8929 30.2273 51.6329 31.9748C51.6329 31.9748 50.9429 32.3423 50.9804 32.1773C51.0179 32.0123 52.8478 28.1573 52.4053 27.9098C51.9628 27.6623 50.6954 29.5373 50.3729 30.3848L49.9229 30.0173V30.0248Z" fill="#92400E"/>
<path d="M52.8932 27.5497C52.8932 27.5497 53.9507 26.4547 55.0082 26.7397C56.0657 27.0247 56.4706 28.1647 55.4956 29.4247C54.5206 30.6847 52.2482 32.2297 52.2482 32.2297L51.6406 31.9822C51.6406 31.9822 55.2556 29.3422 55.1731 28.3222C55.0906 27.3022 54.1982 27.0622 52.9382 28.2847L52.9007 27.5497H52.8932Z" fill="#92400E"/>
<path d="M53.8307 26.9792C53.9957 26.6567 55.1732 24.0542 56.3882 23.4017C57.6107 22.7492 57.4007 25.7192 55.9382 27.3392C55.9382 27.3392 55.2857 27.6617 55.2032 27.4217C55.1207 27.1817 57.0332 24.3767 56.3432 24.2942C55.6532 24.2117 54.5132 26.9342 54.3932 27.0992C54.2732 27.2642 53.8232 26.9792 53.8232 26.9792H53.8307Z" fill="#92400E"/>
<path d="M35.5827 38.034C35.7477 37.7865 37.6527 34.824 40.5777 33.039C43.5027 31.254 44.9277 30.399 45.5727 29.664C46.2252 28.929 46.0977 29.664 44.9202 30.7215C43.7427 31.779 40.4502 33.849 39.8802 34.4565C39.3102 35.064 35.5752 38.034 35.5752 38.034H35.5827Z" fill="#92400E"/>
<path d="M47.6128 30.8425C47.6503 30.5575 48.4678 28.3675 49.6453 26.575C50.8228 24.79 51.7603 24.625 51.8803 24.625C52.0003 24.625 51.1903 25.435 50.7853 25.6825C49.9603 26.1775 49.0753 28.285 48.5503 29.7475L47.6128 30.8425Z" fill="#92400E"/>
<path d="M51.5128 33.8495C51.7603 33.7295 55.9378 31.412 57.2803 29.867C57.2803 29.867 57.8054 29.2595 57.6854 29.747C57.5654 30.2345 55.0004 32.957 50.8604 34.622L51.5128 33.8495Z" fill="#92400E"/>
<path d="M52.4424 26.9419C52.6449 26.8219 53.3349 24.4219 54.5574 22.9594C55.7799 21.4969 57.3999 20.3569 57.6474 20.3194C57.8949 20.2819 57.2799 20.7694 56.8374 21.1744C56.8374 21.1744 54.0774 23.6494 53.2224 27.1444C53.2224 27.1444 53.1024 27.5944 52.8999 27.5494C52.6974 27.5044 52.4499 26.9419 52.4499 26.9419H52.4424Z" fill="#92400E"/>
<path d="M56.545 25.967C56.665 25.847 59.47 23.6495 60.85 21.332C62.23 19.0145 62.275 19.262 61.9075 20.192C61.54 21.122 58.8175 25.3895 55.9375 27.3395L56.545 25.9595V25.967Z" fill="#92400E"/>
<path d="M45.2121 40.8318C45.3771 40.8318 49.3146 40.2618 51.0996 38.5968C51.0996 38.5968 51.7896 38.0718 51.0996 38.9643C50.4096 39.8568 47.1171 41.4393 44.7246 41.6043L45.2121 40.8318Z" fill="#92400E"/>
<path d="M56.6274 23.7699C56.6274 23.7699 58.2099 20.3199 59.6349 18.8574C61.0599 17.3949 62.5974 15.4449 62.8449 14.9199C63.0924 14.3949 63.4524 14.5149 62.8449 15.4899C62.2374 16.4649 59.9574 19.1049 59.4699 20.0424C58.9824 20.9799 57.1149 24.4674 56.9124 24.7149C56.7099 24.9624 56.6274 23.7774 56.6274 23.7774V23.7699Z" fill="#92400E"/>
<path d="M35.1026 39.6768C35.1026 39.6768 30.7076 40.1043 29.2451 43.5993C29.2451 43.5993 29.7701 44.3343 30.1376 44.1693C30.5051 44.0043 31.2326 40.7943 36.5126 40.2318L37.0376 39.9468C37.0376 39.9468 35.4626 39.6618 35.0951 39.6843L35.1026 39.6768Z" fill="#92400E"/>
<path d="M22.9072 37.06C23.0272 36.775 23.4322 34.3375 24.6547 34.42C25.8772 34.5025 26.3647 37.3825 25.1797 40.1875C25.1797 40.1875 24.6547 40.0675 24.6547 39.865C24.6547 39.6625 25.5922 35.845 24.8572 35.11C24.1222 34.375 23.3122 37.0225 23.3572 37.4275C23.4022 37.8325 22.9072 37.06 22.9072 37.06Z" fill="#92400E"/>
<path d="M22.7879 37.2626C22.6679 37.1801 20.1854 35.1926 19.4129 35.0276C18.6404 34.8626 18.5204 35.9201 19.2929 37.8326C20.0654 39.7451 21.9329 42.7901 25.4654 42.5051C25.4654 42.5051 25.0604 41.9801 24.8954 41.7326C24.7304 41.4851 22.9454 41.6126 21.8054 40.3076C20.6654 39.0026 19.0829 35.4701 19.6529 35.7176C20.2229 35.9651 22.5779 38.0726 23.1479 38.2376C23.7179 38.4026 23.3954 37.6676 22.7804 37.2626H22.7879Z" fill="#92400E"/>
<path d="M22.5852 37.989C22.6902 38.199 25.0227 42.0915 25.0227 42.0915C25.0227 42.0915 26.7327 45.624 26.9727 46.239C27.2127 46.854 28.0527 46.419 28.0527 46.419C28.0527 46.419 25.4352 40.7115 25.1877 40.179C24.9402 39.6465 23.8077 37.779 23.3577 37.419C22.9077 37.059 22.1802 37.1715 22.5852 37.989Z" fill="#92400E"/>
<path d="M21.8505 32.1843C21.7455 31.9893 19.983 30.1968 19.248 30.1518C18.513 30.1068 18.438 31.1643 18.678 31.8993C18.918 32.6343 19.773 35.1468 20.4255 35.7993C21.078 36.4518 22.7805 37.9968 22.9455 37.5468C23.1105 37.0968 22.9455 34.2168 21.8505 32.1843ZM21.648 35.8743C21.243 35.5893 20.1705 33.9918 20.0655 33.9243C19.818 33.7593 18.9255 31.1643 19.7805 31.2393C20.6355 31.3218 21.5655 33.6393 22.053 34.5693C22.5405 35.5068 22.053 36.1518 21.648 35.8668V35.8743Z" fill="#92400E"/>
<path d="M21.4453 31.9369C21.5278 31.7344 21.9328 30.4744 22.7428 30.1894C23.5528 29.9044 24.8128 31.9744 24.6553 34.4119C24.6553 34.4119 24.0478 35.1844 24.0028 35.0644C23.9578 34.9444 23.9203 31.8544 23.0278 31.0819C22.1353 30.3094 21.8503 32.5069 21.8503 32.5069L21.4453 31.9369Z" fill="#92400E"/>
<path d="M19.3752 30.4747C19.2552 30.1522 18.6402 27.3472 19.2102 26.2072C19.7802 25.0672 21.8502 28.7647 22.3002 30.6322L22.0152 31.2022C22.0152 31.2022 20.6727 27.3022 19.7802 26.8972C18.8877 26.4922 20.2302 30.8797 20.2302 30.8797L19.3752 30.4747Z" fill="#92400E"/>
<path d="M23.5599 30.6401C23.5599 30.6401 24.655 28.0826 24.295 26.6576C23.935 25.2326 22.2625 24.9926 21.9775 25.4801C21.6925 25.9676 21.0024 27.9176 21.0024 27.9176C21.0024 27.9176 21.4074 29.0576 21.4524 28.9301C21.4974 28.8026 22.1425 26.2901 22.465 26.0051C22.7875 25.7201 23.5224 26.2901 23.6049 27.1451C23.6874 28.0001 22.9524 30.4751 22.9524 30.4751L23.5599 30.6401Z" fill="#92400E"/>
<path d="M20.2303 26.815C20.1928 26.4925 19.9078 23.2825 20.7553 21.9025C21.6028 20.5225 22.3003 21.94 22.3378 22.39C22.3753 22.84 22.5403 25.3525 22.5403 25.3525L21.9703 25.8025C21.9703 25.8025 22.1353 22.3525 21.6853 22.0225C21.2353 21.6925 20.7103 22.7575 20.7928 23.605C20.8753 24.46 20.9953 27.91 20.9953 27.91L20.2228 26.815H20.2303Z" fill="#92400E"/>
<path d="M23.3128 25.6818C23.3128 25.6818 25.1803 23.2818 24.9403 22.1868C24.6928 21.0918 23.5978 21.0093 22.3378 22.3893L22.2178 23.1993C22.2178 23.1993 23.3128 22.3443 23.8453 22.3068C24.3778 22.2693 23.5228 24.2568 22.8328 25.5543L23.3203 25.6743L23.3128 25.6818Z" fill="#92400E"/>
<path d="M19.5402 18.4518C19.3902 18.3843 19.5402 20.0343 18.7677 22.3893C17.9952 24.7443 18.1602 28.7643 19.3752 30.4743C19.3752 30.4743 19.6602 30.1068 19.5402 29.8218C19.4202 29.5368 18.3177 26.4093 18.8502 23.6043C19.3827 20.7993 20.0727 18.6918 19.5402 18.4443V18.4518Z" fill="#92400E"/>
<path d="M26.3198 21.9022C26.3198 21.9022 26.7698 24.3022 24.0848 27.0247L23.9648 28.5697C23.9648 28.5697 26.6873 25.8847 26.6873 23.5297C26.6873 21.1747 26.2823 21.3322 26.3198 21.9022Z" fill="#92400E"/>
<path d="M22.2553 22.6745C22.3378 22.3895 21.8053 21.377 23.5978 18.8945C25.3828 16.4195 27.5353 14.912 27.6628 14.957C27.7903 15.002 27.1753 15.482 26.6878 15.9695C26.2003 16.457 23.2753 19.382 23.1928 22.022L22.2553 22.6745Z" fill="#92400E"/>
<path d="M16.5331 28.1191C16.5331 28.1191 16.2106 33.6466 19.7431 35.3491C19.7431 35.3491 20.4331 35.5141 20.1481 35.0641C19.8631 34.6141 17.5081 33.4366 17.0581 30.3916C16.6081 27.3466 16.6531 27.5866 16.5331 28.1191Z" fill="#92400E"/>
<path d="M75.0178 33.2349C75.0178 33.2349 76.3752 33.2349 77.6277 34.6599C78.8877 36.0849 78.4003 37.7049 77.5903 38.8074C76.7803 39.9024 74.5827 42.0174 75.2352 42.5049C75.8877 42.9924 76.4577 42.6699 76.5327 42.8274C76.6077 42.9849 76.1278 43.3524 75.1078 43.1124C74.0953 42.8649 74.5827 41.8899 74.9052 41.3274C75.2277 40.7649 78.1978 38.1549 77.8303 36.5349C77.4628 34.9074 76.2852 33.8949 74.9427 33.7749C74.9427 33.7749 73.9227 33.7449 74.0052 33.3699C74.0577 33.1374 75.0103 33.2499 75.0103 33.2499L75.0178 33.2349Z" fill="#92400E"/>
<path d="M80.7101 36.6468C81.0101 36.5418 82.1726 36.0768 83.7401 36.5418C85.3076 37.0068 85.7726 38.8443 85.7726 38.8443C85.7726 38.8443 85.6901 39.1968 85.4201 38.9268C85.1501 38.6568 84.5801 37.1418 83.3351 36.8943C82.0901 36.6468 80.9801 37.0818 80.7326 36.9468C80.4851 36.8118 80.7026 36.6468 80.7026 36.6468H80.7101Z" fill="#92400E"/>
<path d="M73.3146 35.1617C73.3446 35.3042 73.2846 36.8417 74.3421 37.2767C75.5121 37.7567 76.4571 37.5767 76.5921 37.4642C76.7271 37.3517 76.6746 37.1642 76.3221 37.1117C75.9696 37.0592 74.3197 37.0292 73.8022 35.2442C73.5772 34.4567 73.2846 35.0267 73.3146 35.1617Z" fill="#92400E"/>
<path d="M80.5752 38.6568C80.5827 38.7393 80.6052 39.9543 81.5502 40.3368C82.4952 40.7193 83.8002 40.6593 84.4452 39.8493C84.4452 39.8493 84.4752 39.5268 83.9877 39.6843C83.5002 39.8418 82.6302 39.9018 82.1202 39.6543C81.6102 39.4068 80.9802 38.7318 80.9277 38.4918C80.8752 38.2518 80.5452 38.3868 80.5752 38.6568Z" fill="#92400E"/>
<path d="M73.9375 44.4471C73.9375 44.4471 74.0725 45.8046 74.9125 45.6696C75.7525 45.5346 76.375 44.9646 76.105 44.7771C75.835 44.5896 75.265 44.7771 74.965 44.6946C74.665 44.6121 73.9375 44.2071 73.9375 44.4471Z" fill="#92400E"/>
<path d="M80.7327 41.9874C80.7327 41.9874 78.9177 42.3698 78.8877 43.5323C78.8577 44.6948 80.1627 46.4274 82.3827 45.7299C84.6027 45.0249 86.1177 43.5098 85.0077 42.5048C83.8977 41.4998 80.7252 41.9874 80.7252 41.9874H80.7327Z" fill="#92400E"/>
<path d="M72.303 37.8548C73.038 38.7023 73.368 39.8498 73.4205 40.9598C73.458 41.8073 73.0755 42.6098 72.1755 42.7523C71.1105 42.9248 70.353 42.1898 70.0005 41.2523C69.6255 40.2473 69.348 38.7548 70.0005 37.8023C70.4655 37.1273 71.358 36.9698 71.973 37.5173C72.093 37.6223 72.198 37.7348 72.303 37.8473V37.8548Z" fill="#92400E"/>
<path d="M88.8628 40.4116C88.8328 40.5166 86.1178 45.4591 82.5778 47.4016C79.4053 49.1341 76.2928 49.7866 74.4553 49.0516C74.4553 49.0516 71.9878 48.2116 70.7203 44.9866C69.4453 41.7616 69.6103 37.8241 69.8503 36.5641C70.3903 33.7441 72.1003 30.7666 72.3403 30.4441C72.3403 30.4441 72.1753 30.0391 71.9053 30.2791C71.6353 30.5191 69.5503 33.9091 69.3853 36.9691C69.3853 36.9691 68.6803 41.8966 70.7428 46.3966C72.7978 50.8891 77.6203 50.1916 78.9478 49.7266C80.2753 49.2691 83.8228 48.3691 86.4478 45.6091C89.0728 42.8491 89.5378 40.5991 89.5378 40.5991L88.8628 40.4116Z" fill="#92400E"/>
<path d="M71.7402 30.5571C71.8227 30.5046 75.5352 31.2921 77.5377 30.6396C79.5402 29.9871 80.8152 29.3421 81.1152 28.9296L81.0102 28.2246C81.0102 28.2246 78.8877 29.4321 76.5177 29.7171C74.0502 30.0096 72.1602 29.7696 72.1602 29.7696L71.7552 30.5571H71.7402Z" fill="#92400E"/>
<path d="M73.3149 28.3596C73.3149 28.3596 78.1074 29.1171 81.3624 26.8971L81.58 26.1396C81.58 26.1396 80.0875 27.1671 77.0275 27.5196C74.3875 27.8196 73.9975 27.4371 73.9975 27.4371L73.3224 28.3596H73.3149Z" fill="#92400E"/>
<path d="M81.4375 25.8169C81.4375 25.8169 80.3275 27.2269 80.7325 29.7469C81.1375 32.2669 83.4399 38.2819 89.0499 40.5019C89.0499 40.5019 90.025 39.8494 90.2125 39.0919C90.4 38.3344 88.315 38.9269 86.0425 36.6244C83.77 34.3219 81.4074 30.8269 82.1124 25.9819C82.1124 25.9819 81.79 25.5994 81.4375 25.8169Z" fill="#92400E"/>
<path d="M90.5428 37.5999C90.4978 37.4724 88.5028 35.5674 87.4303 34.1349C85.9678 32.1849 83.9878 27.4749 83.8528 26.4699C83.7178 25.4649 82.5778 24.5724 82.2853 24.8724C81.9928 25.1724 81.7153 25.5249 82.5553 27.4749C83.3953 29.4249 85.5328 35.9499 89.8978 38.9574C89.8978 38.9574 90.7678 38.1699 90.5503 37.5999H90.5428Z" fill="#92400E"/>
<path d="M90.0555 37.3824C90.0555 37.1949 89.7855 35.0274 88.9455 32.5899C88.1055 30.1524 86.343 27.3624 83.853 26.4699C83.853 26.4699 82.578 25.4424 82.7955 25.1724C83.013 24.9024 87.2655 25.4199 90.378 32.4549C90.378 32.4549 91.7055 35.1924 90.5655 38.0349L90.048 37.3824H90.0555Z" fill="#92400E"/>
<path d="M82.6082 24.9243C82.6607 24.8643 87.6482 24.9243 89.4857 26.2218C91.3307 27.5193 92.8457 28.9068 93.9557 33.5043C95.0657 38.1093 93.9557 42.1143 92.6282 45.3918C91.3007 48.6693 87.5357 57.6093 87.0482 58.9893C86.5607 60.3693 82.0907 72.2868 82.2557 73.8618L81.1982 72.7218C81.1982 72.7218 83.1183 64.2468 83.9358 62.2968C84.7533 60.3468 87.0482 53.8218 88.1582 51.4368C89.2682 49.0518 91.8933 44.1768 92.4633 41.7168C93.0333 39.2493 93.0332 35.3493 92.8457 33.3768C92.6582 31.3968 91.8407 29.1543 90.4382 27.6918C89.0282 26.2293 85.4282 25.9293 85.1582 25.9068C84.8882 25.8843 82.2033 25.3668 82.6158 24.9318L82.6082 24.9243Z" fill="#92400E"/>
<path d="M85.96 26.7393C86.125 26.7693 87.91 27.3318 89.5075 28.5843C91.105 29.8293 92.0275 32.2143 92.11 34.7043C92.1925 37.1943 90.0775 40.9893 89.86 42.1518C89.6425 43.3143 87.505 48.9768 87.0175 50.4918C86.53 52.0068 84.04 58.2618 83.74 59.4318C83.44 60.5943 80.38 69.9918 80.3275 71.5143C80.3275 71.5143 79.1875 70.4568 79.1875 70.2168C79.1875 69.9768 80.485 64.0443 81.7075 60.4143C82.93 56.7843 84.5275 51.7743 85.225 50.4168C85.9225 49.0593 87.4225 44.1093 87.715 43.5093C88.0075 42.9093 89.0425 40.0668 89.125 39.9618C89.2075 39.8568 90.6175 37.4193 90.6175 37.3068C90.6175 37.1943 91.27 34.4343 90.8875 32.2668C90.505 30.0993 88.6675 28.9593 87.91 28.5843C87.1525 28.2018 85.96 26.7393 85.96 26.7393Z" fill="#92400E"/>
<path d="M84.5806 46.9675C84.4456 47.1025 82.9831 50.7325 82.3306 52.4125C81.6781 54.0925 79.9455 60.0475 79.728 61.0225C79.5105 61.9975 78.1005 68.365 78.1005 69.01C78.1005 69.655 76.8555 68.3875 76.8255 68.1175C76.7955 67.8475 77.583 62.9725 78.693 59.53C79.803 56.0875 82.9981 47.83 83.1331 47.665C83.2681 47.5 84.5655 46.96 84.5655 46.96L84.5806 46.9675Z" fill="#92400E"/>
<path d="M79.8925 49.1348C79.81 49.2698 78.7525 53.4923 78.16 55.1498C77.5675 56.7998 75.5575 64.8173 75.805 67.3148C75.805 67.3148 74.7475 66.9098 74.5825 66.5573C74.4175 66.2048 75.5575 60.2198 76.48 57.5123C77.4025 54.8048 78.7525 50.1998 78.9475 49.7423C79.1425 49.2848 79.8925 49.1498 79.8925 49.1498V49.1348Z" fill="#92400E"/>
<path d="M82.1205 25.3001C82.1205 25.3001 81.5506 23.8076 79.4356 23.8076C77.3206 23.8076 73.0681 25.3226 71.0356 28.7876C69.0031 32.2526 67.6756 33.6326 66.9181 37.5326C66.1606 41.4326 63.423 57.5201 63.558 58.8776C63.693 60.2351 64.5031 59.6876 64.5031 59.6876C64.5031 59.6876 65.5831 50.6951 65.7781 49.0151C65.9656 47.3351 66.783 41.4326 67.2105 39.7001C67.638 37.9676 68.8905 34.2851 69.5955 32.7401C70.3005 31.1951 71.8155 30.3551 72.138 29.7626C72.4605 29.1701 74.3581 26.9726 75.0631 26.3501C75.7681 25.7276 78.7981 24.4826 80.2081 25.0751C81.6181 25.6676 81.5881 26.1551 81.9406 25.9676C82.2931 25.7801 82.1056 25.2926 82.1056 25.2926L82.1205 25.3001Z" fill="#92400E"/>
<path d="M69.655 35.5977C69.655 35.5977 68.38 41.1477 68.0275 42.9102C67.675 44.6727 66.7525 50.1402 66.6175 51.8502C66.4825 53.5602 65.5375 59.8677 65.59 60.3027C65.6425 60.7377 66.7825 61.1727 66.7825 61.1727C66.7825 61.1727 67.0825 56.8377 67.24 55.8627C67.405 54.8877 68.08 49.3077 68.245 48.3627C68.41 47.4177 68.785 43.7277 68.95 42.7302C69.115 41.7252 69.4675 40.0752 69.4675 40.0752L69.655 35.6052V35.5977Z" fill="#92400E"/>
<path d="M70.5776 45.6992C70.5476 45.7817 69.2201 50.7917 68.9501 53.3342C68.6801 55.8767 68.2451 62.1392 68.2451 62.1392L69.3026 62.8142C69.3026 62.8142 69.1976 53.7917 71.2826 46.9442L70.5776 45.6992Z" fill="#92400E"/>
<path d="M71.8755 48.0547C71.8755 48.1597 70.7955 54.6922 70.6305 55.9897C70.4655 57.2872 69.8955 63.2722 69.8955 63.2722L70.8405 63.8947C70.8405 63.8947 71.763 50.9497 72.738 48.6472L71.868 48.0547H71.8755Z" fill="#92400E"/>
<path d="M86.2296 89.7016C85.9896 89.7016 85.7046 89.0266 85.6821 88.7866C85.6821 88.7416 86.2446 84.3916 82.6071 84.6241C82.4271 84.6316 82.3296 84.3991 82.3146 84.2266C82.2996 84.0541 82.3896 83.8816 82.5396 83.7841C82.6821 83.6941 86.7321 84.5416 85.9896 75.8866C85.9671 75.6241 86.1996 75.4141 86.4621 75.4141C86.7546 75.4441 86.9196 75.6241 86.9346 75.8866C87.2871 81.5866 85.5546 83.8741 90.7896 84.3241C90.9921 84.3391 91.1271 84.5416 91.1421 84.7441C91.1571 84.9466 91.0446 85.1341 90.8571 85.2166C90.8196 85.2316 86.3421 84.5416 86.6946 89.2591C86.7096 89.5066 86.4771 89.6941 86.2296 89.7016C86.2296 89.7016 86.2296 89.7016 86.2221 89.7016H86.2296Z" fill="#92400E"/>
<path d="M11.6416 25.9747C11.6416 25.9747 11.0641 25.9597 10.9816 26.3797C10.8991 26.7997 11.9715 27.2947 12.3465 27.2122C12.7215 27.1297 12.3916 26.1397 11.6416 25.9747Z" fill="#92400E"/>
<path d="M98.867 78.5645C98.867 78.5645 98.8595 78.5645 98.852 78.5645C98.7245 78.5645 98.6195 78.4595 98.612 78.332C98.612 78.3095 98.447 75.8645 97.0295 75.242C96.857 75.167 96.842 75.032 96.8345 74.9795C96.8345 74.7845 96.992 74.7095 97.172 74.6195C97.6445 74.387 98.7245 73.847 98.957 71.9945C98.9645 71.7695 98.987 71.6345 98.9945 71.627C99.017 71.4995 99.137 71.4095 99.272 71.4245C99.407 71.4395 99.497 71.5595 99.4895 71.687C99.482 71.8295 99.467 71.957 99.452 72.0845C99.437 72.767 99.6395 74.2145 101.544 74.762C101.642 74.792 101.717 74.8745 101.724 74.9795C101.732 75.0845 101.679 75.182 101.589 75.227C101.567 75.2345 99.4595 76.3295 99.107 78.3545C99.0845 78.4745 98.9795 78.5645 98.8595 78.5645H98.867Z" fill="#92400E"/>
<path d="M102.64 47.882C102.64 47.882 102.362 47.8895 105.122 47.4845C108.31 47.012 110.117 46.3895 110.14 44.597C110.162 43.097 110.417 37.577 111.017 38.9195C111.617 40.262 111.64 45.5345 113.732 45.9845C115.825 46.4345 118.187 46.367 118.187 46.907C118.187 47.777 113.905 46.6445 113.26 51.632C112.83 54.992 112.377 56.6745 111.902 56.6795C111.047 56.6795 110.747 49.7045 109.255 49.2545C107.762 48.8045 102.632 48.8195 102.647 47.8745L102.64 47.882Z" fill="#92400E"/>
<path d="M53.1321 50.6945C53.1321 50.6945 51.8571 49.292 51.7896 49.097C51.7221 48.902 50.7321 50.552 50.0796 50.7695C49.4271 50.987 50.7846 48.4745 50.9196 47.882C51.0546 47.2895 49.2546 46.0145 49.1121 45.7595C48.9696 45.5045 51.1746 45.8795 51.7446 45.9995C52.3146 46.1195 52.6896 44.1395 53.3046 44.1095C53.6796 44.0945 53.1846 45.7745 53.2896 46.3595C53.2896 46.3595 54.9846 45.9845 55.2996 46.3295C55.5846 46.6445 54.0396 47.3945 53.4171 47.762C53.0346 47.9945 53.4396 49.382 53.4171 50.567C53.4096 51.0095 53.1396 50.6945 53.1396 50.6945H53.1321Z" fill="#92400E"/>
<path d="M77.0715 88.8096C77.0715 88.8696 77.139 89.3646 77.1765 89.6646C77.1915 89.7696 77.3115 89.8146 77.394 89.7471L78.024 89.2146L79.1415 89.5296C79.2615 89.5671 79.374 89.4471 79.329 89.3271L79.0065 88.4871L79.269 87.9921C79.344 87.8496 79.224 87.6771 79.059 87.6996L78.384 87.8196L77.8365 86.9346C77.769 86.8296 77.619 86.8371 77.5665 86.9496L77.1015 87.9246C77.1015 87.9246 76.074 88.0746 76.0365 88.2021C75.9915 88.3521 77.0715 88.8246 77.0715 88.8246V88.8096Z" fill="#92400E"/>
<path d="M22.5994 80.8746C22.6744 80.9046 22.5469 82.5621 22.7194 82.7046C22.8919 82.8471 24.0094 81.6021 24.1969 81.6171C24.4294 81.6396 26.7844 82.7196 26.8894 82.4421C27.0244 82.0896 25.9519 80.4921 25.8619 80.3046C25.7719 80.1171 26.8744 79.0296 27.0469 78.6546C27.0469 78.6546 27.3094 78.0096 24.9394 78.7596C24.9394 78.7596 24.0694 77.0646 23.7844 76.8771C23.4994 76.6896 22.7794 78.9771 22.7419 79.1196C22.7044 79.2621 20.9494 79.4871 20.7769 79.7646C20.6044 80.0421 21.6019 80.5221 22.5994 80.8896V80.8746Z" fill="#92400E"/>
<path d="M10.8176 33.1968C11.0801 33.0918 11.3651 33.1743 11.5001 33.6393C11.6501 34.1718 11.0801 34.4943 10.6301 34.3968C9.88014 34.2393 10.3151 33.3918 10.8176 33.1968Z" fill="#92400E"/>
<path d="M8.8143 37.3589C9.2043 36.9239 9.94681 36.7364 10.3968 37.4339C11.0118 38.3864 9.81931 39.0164 9.12931 38.6939C8.40931 38.3564 8.4618 37.7564 8.8143 37.3589Z" fill="#92400E"/>
<path d="M6.84237 32.8744C7.23237 32.5294 8.00488 32.8594 8.25988 33.2869C8.81488 34.2094 7.78737 34.5319 7.47987 34.5169C6.93987 34.4944 6.51987 33.6844 6.65487 33.2044C6.69237 33.0619 6.75987 32.9569 6.84987 32.8819L6.84237 32.8744Z" fill="#92400E"/>
<path d="M14.44 38.5296C14.44 38.5296 14.9425 38.1096 15.28 38.7096C15.6175 39.3096 14.8525 39.6171 14.4925 39.5121C14.1325 39.4071 13.9 38.9721 14.44 38.5296Z" fill="#92400E"/>
<path d="M2.03433 19.847C2.11683 19.877 1.98184 21.6545 2.16184 21.812C2.34184 21.9695 3.54182 20.627 3.74432 20.642C3.99932 20.6645 6.51934 21.827 6.63934 21.527C6.78184 21.152 5.63433 19.4345 5.52933 19.2245C5.42433 19.0145 6.61683 17.852 6.79683 17.4545C6.79683 17.4545 7.07434 16.7645 4.53184 17.567C4.53184 17.567 3.60184 15.752 3.29434 15.542C2.98684 15.332 2.21433 17.7995 2.17683 17.9495C2.13933 18.0995 0.249329 18.3395 0.0693289 18.6395C-0.110671 18.9395 0.954341 19.4495 2.02684 19.847H2.03433Z" fill="#92400E"/>
<path d="M60.5647 35.9421C60.5647 36.0021 60.6247 36.4446 60.6622 36.7221C60.6772 36.8196 60.7897 36.8571 60.8572 36.7971L61.4272 36.3096L62.4472 36.5946C62.5597 36.6246 62.6572 36.5196 62.6197 36.4071L62.3271 35.6421L62.5671 35.1846C62.6346 35.0496 62.5221 34.8921 62.3796 34.9221L61.7646 35.0271L61.2622 34.2171C61.2022 34.1196 61.0671 34.1271 61.0146 34.2321L60.5946 35.1171C60.5946 35.1171 59.6572 35.2521 59.6197 35.3721C59.5747 35.5071 60.5647 35.9346 60.5647 35.9346V35.9421Z" fill="#92400E"/>
<path d="M94.6294 100.622C94.7044 100.652 94.5769 102.317 94.7494 102.459C94.9219 102.602 96.0469 101.349 96.2344 101.364C96.4744 101.387 98.8294 102.474 98.9419 102.189C99.0769 101.837 98.0044 100.232 97.9069 100.037C97.8094 99.8419 98.9269 98.7544 99.0994 98.3794C99.0994 98.3794 99.3619 97.7344 96.9769 98.4844C96.9769 98.4844 96.1069 96.7819 95.8144 96.5869C95.5219 96.3919 94.8019 98.7019 94.7644 98.8444C94.7269 98.9869 92.9569 99.2119 92.7919 99.4894C92.6269 99.7669 93.6244 100.247 94.6294 100.614V100.622Z" fill="#92400E"/>
<path d="M123.677 34.967C124.015 34.8395 124.375 34.9445 124.54 35.537C124.727 36.212 124 36.6095 123.437 36.482C122.485 36.272 123.047 35.207 123.685 34.967H123.677Z" fill="#92400E"/>
<path d="M119.185 39.9622C119.68 39.4147 120.625 39.1897 121.187 40.0747C121.96 41.2897 120.445 42.0697 119.567 41.6572C118.652 41.2222 118.735 40.4647 119.185 39.9697V39.9622Z" fill="#92400E"/>
<path d="M115.607 33.6397C116.102 33.2122 117.077 33.6322 117.392 34.1722C118.082 35.3422 116.784 35.7397 116.394 35.7172C115.719 35.6797 115.187 34.6522 115.359 34.0447C115.412 33.8647 115.494 33.7297 115.607 33.6397Z" fill="#92400E"/>
<path d="M125.169 40.8703C125.169 40.8703 125.807 40.3378 126.234 41.1103C126.662 41.8828 125.679 42.2578 125.229 42.1153C124.779 41.9728 124.487 41.4253 125.169 40.8703Z" fill="#92400E"/>
<path d="M103.42 22.8251C103.42 22.8251 101.875 23.5901 101.447 23.5826C101.447 23.5826 101.147 23.6126 101.207 23.3351C101.267 23.0576 101.777 21.4301 101.897 21.2426C101.897 21.2426 99.8947 19.1126 99.8872 19.0301C99.8797 18.9476 99.6772 18.7301 100.037 18.5951C100.307 18.4976 103.03 19.2851 103.03 19.2851C103.03 19.2851 104.785 17.2376 104.95 17.0651C105.115 16.8926 105.4 16.9001 105.497 17.1851C105.595 17.4701 105.655 19.6976 105.655 19.6976C105.655 19.6976 108.092 20.0126 108.28 20.1326C108.467 20.2526 108.497 20.4626 108.332 20.5826C108.167 20.7026 105.985 21.8726 105.985 21.8726L106.33 25.0151C106.33 25.0151 106.247 25.7276 105.67 25.2026C105.092 24.6701 103.427 22.8251 103.427 22.8251H103.42Z" fill="#92400E"/>
<path d="M111.993 21.8046C113.335 21.0396 114.693 20.2896 116.05 19.5471C116.808 19.1421 117.408 18.3921 118.023 17.7096C118.645 17.0346 119.298 16.4121 120.303 16.3896" fill="#92400E"/>
<path d="M111.572 21.9995C111.467 21.782 111.55 21.5195 111.76 21.3995C113.102 20.6345 114.467 19.877 115.825 19.1345C116.402 18.8195 116.89 18.272 117.407 17.6945L117.677 17.3945C118.345 16.6595 119.102 15.947 120.287 15.917C120.542 15.917 120.752 16.112 120.76 16.367C120.76 16.622 120.565 16.832 120.31 16.8395C119.477 16.862 118.937 17.3795 118.36 18.0095L118.097 18.302C117.55 18.917 116.98 19.5545 116.26 19.9445C114.91 20.6795 113.545 21.437 112.21 22.1945C111.985 22.322 111.707 22.247 111.58 22.022C111.58 22.0145 111.565 21.9995 111.565 21.992L111.572 21.9995Z" fill="#92400E"/>
<path d="M109.105 15.5125C110.237 13.8325 114.58 9.265 116.125 7.9375L109.105 15.5125Z" fill="#92400E"/>
<path d="M108.685 15.7073C108.617 15.5648 108.625 15.3923 108.722 15.2498C110.027 13.3148 114.392 8.80732 115.825 7.58482C116.02 7.41982 116.312 7.44232 116.477 7.63732C116.642 7.83232 116.62 8.12482 116.425 8.28982C115.06 9.46732 110.74 13.9073 109.487 15.7748C109.345 15.9848 109.06 16.0448 108.842 15.9023C108.767 15.8573 108.715 15.7898 108.685 15.7148V15.7073Z" fill="#92400E"/>
<path d="M105.549 14.8382C106.419 13.9607 106.756 12.7007 107.341 11.6057C107.971 10.4357 108.969 9.5207 110.011 8.6582" fill="#92400E"/>
<path d="M105.137 15.0328C105.054 14.8603 105.084 14.6503 105.227 14.5078C105.767 13.9678 106.089 13.2403 106.427 12.4753C106.584 12.1153 106.749 11.7403 106.944 11.3878C107.627 10.1278 108.684 9.16034 109.727 8.30534C109.922 8.14034 110.214 8.17034 110.379 8.36534C110.537 8.56784 110.514 8.85284 110.312 9.01784C109.337 9.81284 108.354 10.7053 107.754 11.8228C107.582 12.1453 107.432 12.4903 107.274 12.8503C106.914 13.6603 106.547 14.5003 105.887 15.1603C105.707 15.3403 105.414 15.3403 105.234 15.1603C105.197 15.1228 105.167 15.0778 105.144 15.0328H105.137Z" fill="#92400E"/>
<path d="M10.2544 19.4124C10.1194 18.7074 11.0494 18.0174 11.7319 18.0099C13.2169 17.9949 12.8869 19.4424 12.6544 19.8024C12.2494 20.4249 10.9819 20.3649 10.5094 19.8699C10.3669 19.7199 10.2919 19.5699 10.2619 19.4199L10.2544 19.4124Z" fill="#92400E"/>
<path d="M14.7099 91.7643C14.5674 91.7643 14.4174 91.7343 14.2899 91.6593C14.1099 91.5468 14.0124 91.3368 13.9224 91.1418C13.3524 89.8818 12.7074 88.8093 11.7849 87.7743C11.6499 87.6243 11.4024 87.7443 11.4399 87.9468C11.6049 88.9593 11.7024 89.9793 11.7324 90.9993C11.7324 91.1643 11.7324 91.3443 11.6349 91.4718C11.5149 91.6218 11.2974 91.6443 11.1024 91.6518C9.81988 91.6968 8.52987 91.6818 7.24737 91.5918C7.02987 91.5768 6.90238 91.8468 7.06738 91.9893C7.96738 92.7993 9.03237 93.4368 10.1799 93.8343C10.3299 93.8868 10.4874 93.9393 10.5699 94.0743C10.7049 94.2768 10.5849 94.5468 10.4649 94.7643C9.98487 95.6418 9.01738 96.6693 9.39238 97.5468C9.42238 97.6218 9.51237 97.6668 9.59487 97.6368C9.90987 97.5393 10.7649 97.1643 12.2499 95.8368C13.5774 94.6443 15.3774 95.8818 17.0349 96.3318C17.1849 96.3693 17.3799 96.3993 17.4774 96.2793C17.5899 96.1368 17.4774 95.9343 17.3799 95.7843C16.8174 95.0193 15.6399 94.0368 16.1799 93.0093C16.2624 92.8443 18.1824 91.2093 17.8149 90.9618C17.1999 90.5493 15.8649 91.8093 14.7024 91.7643H14.7099Z" fill="#92400E"/>
<path d="M72.3922 79.8472C72.7597 79.7272 74.5297 80.0797 74.9347 79.8472C75.3397 79.6147 75.8047 77.6497 76.1497 76.8997C76.4947 76.1497 76.8472 78.0547 77.0197 78.9247C77.1922 79.7947 79.3297 79.2172 79.8547 79.4422C80.3797 79.6672 77.6572 80.7697 77.4247 81.0022C77.1922 81.2347 79.2772 82.9672 79.1572 83.3722C79.0372 83.7772 78.1747 83.9497 76.9597 82.6222C76.9597 82.6222 76.2922 81.7822 75.8347 82.4722C74.5147 84.4522 73.8847 84.8797 73.8397 84.6472C73.6822 83.7847 74.9947 81.4072 74.8822 81.1747C74.7697 80.9422 74.6122 80.8597 73.8397 80.7097C73.2997 80.6047 71.5297 80.1322 72.3922 79.8397V79.8472Z" fill="#92400E"/>
<path d="M58.2319 98.6875C58.7419 99.3625 60.0769 99.1 60.6244 98.5075C61.8094 97.2325 60.2869 96.37 59.7919 96.2875C58.9294 96.145 57.9769 97.2925 58.0294 98.1025C58.0444 98.3425 58.1194 98.53 58.2244 98.68L58.2319 98.6875Z" fill="#92400E"/>
<path d="M12.8499 58.0142C12.8499 58.0142 10.4949 55.4192 10.3599 55.0517C10.2249 54.6842 8.40239 57.7442 7.19489 58.1492C5.98739 58.5542 8.4999 53.8967 8.7549 52.8017C9.0099 51.7067 5.6724 49.3367 5.4024 48.8717C5.1324 48.4067 9.2274 49.0892 10.2774 49.3142C11.3274 49.5392 12.0324 45.8642 13.1649 45.8117C13.8624 45.7817 12.9474 48.8942 13.1349 49.9817C13.1349 49.9817 16.2849 49.2767 16.8549 49.9217C17.3799 50.5067 14.5224 51.8942 13.3674 52.5842C12.6549 53.0117 13.4049 55.5767 13.3599 57.7817C13.3449 58.5992 12.8499 58.0217 12.8499 58.0217V58.0142Z" fill="#92400E"/>
<path d="M105.099 33.2048C106.044 32.4398 106.982 30.5198 106.457 30.3998C105.932 30.2798 104.244 31.6898 103.877 31.3898C103.509 31.0898 102.894 28.5323 102.384 28.3598C101.874 28.1873 101.499 29.3573 101.244 30.4523C100.989 31.5398 101.049 32.4848 101.049 32.4848C100.037 32.3573 98.1245 32.3573 97.9895 32.9273C97.8545 33.4973 100.427 34.6973 100.824 34.6223C101.222 34.5473 100.824 34.6223 100.397 36.7148C99.9695 38.8073 100.622 39.0623 100.622 39.0623C100.937 39.6023 101.304 38.7248 101.612 37.8173C101.927 36.9023 102.257 35.7773 102.564 35.6273C102.872 35.4773 105.122 36.8798 105.902 37.0598C106.682 37.2398 106.659 36.6323 106.674 36.0923C106.689 35.5523 105.099 33.2123 105.099 33.2123V33.2048ZM105.579 35.3723C106.877 36.8498 103.877 35.1698 103.344 34.8548C102.812 34.5398 102.482 34.5698 101.927 35.3198C101.372 36.0698 101.094 38.1923 100.937 37.2248C100.937 37.2248 101.184 35.1998 101.529 34.6823C101.874 34.1648 99.9545 33.6698 100.269 33.4898C100.584 33.3098 102.204 33.6323 102.249 33.2048C102.294 32.7773 102.024 31.3448 102.369 31.7573C102.714 32.1698 102.962 33.2123 103.734 32.7323C104.507 32.2523 105.219 31.9823 104.154 33.2648C104.154 33.2648 104.282 33.9023 105.579 35.3798V35.3723Z" fill="#92400E"/>
<path d="M109.037 96.6618C108.587 97.2318 108.355 98.1018 108.145 98.7468C108.055 98.1168 107.815 97.2693 107.522 96.3543C107.86 96.0843 108.28 95.3418 108.512 94.5018C108.895 93.1068 109.03 91.0068 108.31 91.1118C107.59 91.2168 107.597 91.3518 107.08 92.9943C106.922 93.4968 106.855 93.9843 106.84 94.4268C106.277 92.8968 105.715 91.5243 105.58 91.0893C105.55 90.9768 105.505 90.8793 105.452 90.7968C105.55 90.2718 105.647 89.5218 105.61 88.8393C105.542 87.6318 104.62 85.1493 103.772 85.6368C102.94 86.1168 103.157 87.3993 103.352 88.1568C103.472 88.6068 103.645 89.0493 103.832 89.4693C103.967 89.7618 104.125 90.0393 104.32 90.2868C104.38 90.3618 104.702 90.6393 104.702 90.7218C104.702 90.8868 104.74 91.1043 104.837 91.3893C105.047 92.0118 105.452 93.1293 105.812 94.4868C105.34 93.6468 104.62 92.6343 104.192 92.7243C103.54 92.8668 103.84 94.3143 104.83 95.3868C105.37 95.9718 105.917 96.3243 106.255 96.4218C106.367 97.0368 106.465 97.6593 106.517 98.2893C106.345 97.8918 106.067 97.4043 105.437 96.8718C104.17 95.7993 103.87 96.5868 103.96 97.0293C104.05 97.4718 104.852 100.119 106.54 100.307C106.277 103.749 106.097 105.632 106.165 106.269C106.21 106.674 106.345 107.364 106.727 107.409C106.847 107.424 106.99 107.372 107.162 107.237C107.56 106.922 107.957 106.269 108.055 105.782C108.205 105.039 108.265 102.489 108.22 100.494C110.44 98.7018 110.207 96.6168 110.057 96.2493C109.907 95.8818 109.697 95.8293 109.022 96.6693L109.037 96.6618Z" fill="#92400E"/>
<path d="M128.432 54.28C127.937 54.43 127.465 54.6775 127.045 54.9475C127.225 54.505 127.435 54.0325 127.615 53.68C128.132 53.7325 129.197 52.8025 130.21 51.9175C131.477 50.815 132.242 49.045 131.65 48.8725C131.057 48.7 130.382 49.045 128.942 50.3125C127.712 51.3925 127.225 52.33 127.27 53.0725C126.977 53.38 126.572 53.9725 126.16 54.6925C126.212 54.4675 126.265 54.265 126.317 54.1225C126.655 53.1925 126.317 51.3325 125.807 51.2575C125.297 51.19 124.877 51.4075 124.457 53.2675C124.052 55.045 124.87 56.3725 125.095 56.905C124.84 57.475 124.547 58.12 124.277 59.005C124.015 57.8275 123.01 54.5425 122.335 54.6175C121.577 54.7 121.127 58.1725 123.34 60.8725C123.34 60.8725 123.55 61.3075 123.737 61.4125C123.595 62.305 123.467 63.355 123.385 64.6225C122.89 63.6325 121.885 61.675 121.495 61.4425C120.985 61.135 120.52 61.345 120.437 62.485C120.355 63.625 121.577 66.6325 123.272 67.5175C123.25 68.875 123.025 69.91 122.882 71.29C122.755 72.58 122.11 73.1875 121.787 73.795C121.622 74.1025 120.865 74.7025 121.247 75.055C121.975 75.7225 123.115 73.99 123.317 73.465C123.775 72.2875 123.985 71.0275 124.075 69.775C124.112 69.2275 124.12 68.6875 124.127 68.14C124.127 67.915 124.015 66.3475 124.187 66.2575C125.155 65.77 127.067 64.24 127.652 63.19C128.41 61.84 128.312 60.9025 126.947 61.795C126.145 62.32 125.05 63.6925 124.337 64.8025C124.472 63.7075 124.675 62.6425 124.975 61.7575C124.99 61.705 125.012 61.645 125.027 61.5925C125.702 61.36 126.46 60.955 126.46 60.955C128.117 59.9425 130.3 58.33 129.557 58.0225C128.822 57.715 127.637 58.3375 126.827 58.585C126.512 58.6825 126.16 58.8325 125.807 59.005C125.957 58.4725 126.1 57.97 126.22 57.52C129.272 56.5975 130.952 54.4975 130.72 54.2575C130.465 53.995 129.79 53.845 128.44 54.2575L128.432 54.28Z" fill="#92400E"/>
<path d="M125.132 75.4301C125.657 74.9051 127.307 73.5401 128.005 73.0451C128.702 72.5576 130.945 70.7351 132.632 70.5926C134.32 70.4501 134.035 70.8701 133.682 71.3651C133.33 71.8601 130.667 74.0276 128.215 74.7326C128.215 74.7326 127.48 74.9051 127.69 75.0476C127.9 75.1901 128.627 74.6051 129.76 74.8001C129.76 74.8001 130.39 74.8001 129.902 75.2576C129.415 75.7151 129.1 76.2026 127.832 76.4501C126.572 76.6976 125.552 76.6226 125.132 76.4501C124.712 76.2776 124.727 75.8351 125.132 75.4376V75.4301Z" fill="#92400E"/>
<path d="M124.037 76.5851C123.452 76.6676 123.497 75.9851 123.662 75.6476C124.12 74.7026 124.892 72.4076 126.917 70.5776C128.95 68.7476 130.39 68.0801 130.81 68.0801C131.23 68.0801 131.02 68.5001 130.637 68.8151C129.025 70.1351 127.697 71.9051 126.505 73.5926C125.852 74.5151 125.32 75.2276 124.652 76.1426C124.502 76.3526 124.3 76.5551 124.045 76.5926L124.037 76.5851Z" fill="#92400E"/>
</svg>
