<svg width="80" height="70" viewBox="0 0 80 70" fill="none" xmlns="http://www.w3.org/2000/svg">
<g filter="url(#filter0_d_238_380)">
<path d="M20.1086 37.4071C20.3868 41.273 22.5834 44.436 26.01 45.8857C27.8112 46.6472 29.7002 46.7937 31.2671 46.4129L31.721 48.2873C32.9218 53.2662 37.227 53.1197 39.819 52.49C41.5616 52.0654 43.0259 51.0257 43.9338 49.5467C45.5007 50.4546 47.3458 50.6889 48.9859 50.2935C50.7285 49.8835 52.1782 48.8291 53.1008 47.3501C53.1008 47.3501 53.1008 47.3208 53.1301 47.3062C54.5944 48.0384 56.2638 48.2141 57.7721 47.8626C59.5147 47.438 60.9644 46.3983 61.887 44.9339C62.5899 43.7917 63.2781 41.888 62.6338 39.2082C62.3409 37.9782 61.1109 37.2313 59.8954 37.5242C58.68 37.8171 57.9185 39.0471 58.2114 40.2626C58.8118 42.7374 57.2156 43.3231 56.7178 43.4403C55.6634 43.6892 54.2723 43.2938 53.8037 41.3316L49.3081 22.617C49.0152 21.3869 47.7851 20.6401 46.5697 20.933C45.3396 21.2258 44.5928 22.4559 44.8857 23.6713L49.4545 42.6788C50.0549 45.1536 48.1659 45.7979 47.6387 45.9297C47.1115 46.0615 45.2664 46.3544 44.5782 43.4842C43.7142 39.8965 40.1411 24.8135 40.1411 24.8135C39.8483 23.5835 38.6182 22.8366 37.4028 23.1295C36.1727 23.4224 35.4259 24.6524 35.7187 25.8679L40.2876 44.8753C40.888 47.3501 39.2918 47.9359 38.7939 48.053C37.7396 48.302 36.3484 47.9066 35.8652 45.9443C35.8652 45.9443 30.9449 25.78 30.6374 24.4621C32.175 22.9831 33.7711 21.8702 35.0159 21.299C36.1581 20.7865 36.6706 19.4393 36.1581 18.2971C35.7041 17.2867 34.5912 16.7595 33.5515 17.0084C33.4051 17.0377 33.2879 17.0963 33.1415 17.1549C31.4428 17.9163 29.2023 19.4832 27.0643 21.6212C24.4138 20.9769 21.0312 21.1672 19.3471 21.3283C18.1171 21.4455 17.1799 22.5584 17.297 23.8031C17.4142 25.0478 18.5271 25.9704 19.7718 25.8532C21.0751 25.7214 22.4516 25.6921 23.6524 25.7507C21.3972 29.1041 19.8304 33.1018 20.1379 37.4071H20.1086ZM26.9911 28.8991C27.2254 29.8802 27.4744 30.9638 27.7526 32.0768C28.6019 35.6498 29.5391 39.6622 30.1102 42.0198C29.6123 42.1077 28.6166 42.0931 27.5183 41.5659C26.5225 41.0826 24.8385 39.8672 24.6481 37.0849C24.4431 34.2294 25.4535 31.3885 26.9911 28.8991Z" fill="#3C2400"/>
</g>
<defs>
<filter id="filter0_d_238_380" x="0.640707" y="0.300863" width="78.8963" height="69.1483" filterUnits="userSpaceOnUse" color-interpolation-filters="sRGB">
<feFlood flood-opacity="0" result="BackgroundImageFix"/>
<feColorMatrix in="SourceAlpha" type="matrix" values="0 0 0 0 0 0 0 0 0 0 0 0 0 0 0 0 0 0 127 0" result="hardAlpha"/>
<feOffset/>
<feGaussianBlur stdDeviation="8.3232"/>
<feColorMatrix type="matrix" values="0 0 0 0 1 0 0 0 0 1 0 0 0 0 1 0 0 0 0.75 0"/>
<feBlend mode="normal" in2="BackgroundImageFix" result="effect1_dropShadow_238_380"/>
<feBlend mode="normal" in="SourceGraphic" in2="effect1_dropShadow_238_380" result="shape"/>
</filter>
</defs>
</svg>
