<svg width="665" height="666" viewBox="0 0 665 666" fill="none" xmlns="http://www.w3.org/2000/svg">
<path d="M498.42 499.14C590.177 407.383 590.177 258.616 498.421 166.86C406.664 75.1031 257.897 75.1032 166.14 166.86C74.3835 258.617 74.3835 407.383 166.14 499.14C257.897 590.897 406.664 590.897 498.42 499.14Z" fill="url(#paint0_radial_262_138)"/>
<path d="M446.082 446.694C508.873 383.903 508.873 282.098 446.082 219.306C383.29 156.515 281.485 156.515 218.694 219.306C155.903 282.097 155.903 383.903 218.694 446.694C281.485 509.485 383.29 509.485 446.082 446.694Z" fill="url(#paint1_radial_262_138)"/>
<path d="M430.418 431.473C484.803 377.088 484.803 288.912 430.418 234.527C376.033 180.142 287.858 180.142 233.473 234.527C179.088 288.912 179.088 377.088 233.473 431.473C287.858 485.858 376.033 485.858 430.418 431.473Z" fill="#FEDA44"/>
<path d="M362.789 189.052L365.976 184.608L366.968 184.856L367.672 190.271L366.513 189.981L366.053 185.518L366.451 185.617L363.928 189.336L362.789 189.052ZM364.123 188.435L364.346 187.541L367.036 188.212L366.812 189.106L364.123 188.435ZM369.679 188.612L369.881 187.802L370.922 188.061C371.141 188.116 371.323 188.102 371.467 188.019C371.616 187.938 371.714 187.801 371.762 187.61C371.806 187.434 371.785 187.272 371.697 187.127C371.61 186.981 371.457 186.881 371.238 186.827L370.19 186.565L370.403 185.713L371.576 186.006C371.902 186.087 372.173 186.221 372.388 186.409C372.605 186.591 372.756 186.81 372.841 187.063C372.926 187.317 372.933 187.586 372.862 187.87C372.79 188.159 372.657 188.395 372.463 188.579C372.27 188.759 372.032 188.878 371.75 188.936C371.469 188.994 371.158 188.981 370.818 188.896L369.679 188.612ZM368.334 190.436L369.564 185.504L370.661 185.777L369.431 190.709L368.334 190.436ZM371.016 191.105L370.009 188.598L371.083 188.576L372.316 191.429L371.016 191.105ZM372.935 191.584L374.166 186.652L375.262 186.926L374.032 191.858L372.935 191.584ZM375.121 192.129L376.352 187.197L377.449 187.471L376.218 192.403L375.121 192.129ZM375.96 192.339L376.197 191.388L378.9 192.063L378.663 193.013L375.96 192.339ZM376.474 190.278L376.702 189.363L379.161 189.976L378.933 190.891L376.474 190.278ZM376.955 188.35L377.19 187.407L379.859 188.072L379.624 189.015L376.955 188.35ZM380.898 193.652C380.493 193.551 380.16 193.399 379.899 193.195C379.644 192.988 379.429 192.719 379.254 192.389L380.143 191.861C380.256 192.082 380.395 192.268 380.561 192.418C380.732 192.565 380.945 192.67 381.202 192.734C381.434 192.792 381.624 192.795 381.771 192.742C381.922 192.691 382.016 192.591 382.054 192.442C382.087 192.307 382.073 192.187 382.01 192.082C381.947 191.977 381.853 191.877 381.728 191.782C381.609 191.688 381.472 191.592 381.318 191.494C381.169 191.397 381.022 191.294 380.876 191.183C380.732 191.068 380.603 190.939 380.49 190.797C380.383 190.652 380.308 190.487 380.264 190.303C380.222 190.115 380.233 189.895 380.296 189.643C380.371 189.341 380.508 189.098 380.707 188.915C380.911 188.733 381.157 188.619 381.446 188.572C381.736 188.521 382.051 188.538 382.391 188.622C382.735 188.708 383.034 188.847 383.288 189.039C383.547 189.233 383.743 189.457 383.877 189.713L382.989 190.241C382.878 190.05 382.755 189.898 382.62 189.785C382.489 189.674 382.329 189.594 382.138 189.546C381.947 189.499 381.786 189.498 381.656 189.545C381.527 189.587 381.445 189.675 381.411 189.81C381.38 189.936 381.396 190.049 381.461 190.149C381.526 190.245 381.619 190.337 381.74 190.427C381.866 190.517 382.003 190.611 382.152 190.708C382.306 190.805 382.455 190.912 382.599 191.027C382.744 191.142 382.869 191.275 382.975 191.425C383.087 191.572 383.163 191.744 383.202 191.942C383.243 192.135 383.232 192.36 383.168 192.616C383.05 193.086 382.79 193.415 382.388 193.601C381.986 193.783 381.49 193.8 380.898 193.652Z" fill="#3C2400"/>
<path d="M429.175 220.603L432.74 217.081L433.535 217.886L429.97 221.407L429.175 220.603ZM430.971 216.592L431.673 215.899L434.704 218.967L434.002 219.66L430.971 216.592ZM430.925 222.374L435.958 220.236L436.676 220.963L434.462 225.955L433.622 225.104L435.55 221.053L435.839 221.345L431.749 223.209L430.925 222.374ZM432.385 222.541L433.04 221.893L434.989 223.865L434.333 224.513L432.385 222.541ZM436.282 227.91C435.988 227.613 435.792 227.288 435.692 226.934C435.596 226.584 435.595 226.234 435.688 225.885C435.789 225.536 435.983 225.22 436.27 224.937L438.462 222.771L439.261 223.58L437.023 225.791C436.879 225.933 436.785 226.087 436.74 226.253C436.695 226.419 436.696 226.584 436.742 226.747C436.795 226.91 436.886 227.057 437.014 227.186C437.149 227.323 437.295 227.415 437.451 227.464C437.61 227.509 437.769 227.51 437.929 227.467C438.096 227.424 438.251 227.331 438.394 227.19L440.638 224.973L441.437 225.783L439.24 227.953C438.953 228.237 438.636 228.425 438.289 228.518C437.942 228.611 437.595 228.607 437.246 228.506C436.897 228.406 436.575 228.207 436.282 227.91ZM440.653 229.241L441.247 228.654L442.001 229.417C442.16 229.578 442.322 229.66 442.488 229.664C442.658 229.672 442.813 229.607 442.953 229.469C443.083 229.34 443.148 229.192 443.149 229.022C443.15 228.852 443.071 228.687 442.913 228.527L442.154 227.758L442.779 227.141L443.629 228.001C443.865 228.24 444.026 228.496 444.113 228.768C444.203 229.037 444.218 229.302 444.159 229.563C444.1 229.824 443.966 230.057 443.758 230.263C443.546 230.472 443.309 230.604 443.047 230.661C442.789 230.713 442.525 230.691 442.254 230.595C441.983 230.498 441.724 230.325 441.478 230.076L440.653 229.241ZM438.555 230.099L442.172 226.526L442.966 227.33L439.35 230.903L438.555 230.099ZM440.498 232.065L440.942 229.4L441.871 229.941L441.439 233.018L440.498 232.065ZM443.259 234.973C442.965 234.676 442.769 234.35 442.669 233.997C442.573 233.647 442.572 233.297 442.665 232.948C442.766 232.599 442.96 232.283 443.247 231.999L445.439 229.834L446.238 230.643L444 232.854C443.857 232.996 443.762 233.15 443.717 233.316C443.672 233.482 443.673 233.646 443.719 233.81C443.772 233.973 443.863 234.119 443.991 234.249C444.126 234.386 444.272 234.478 444.428 234.527C444.587 234.572 444.746 234.573 444.906 234.53C445.073 234.487 445.228 234.394 445.371 234.252L447.615 232.036L448.414 232.846L446.217 235.016C445.93 235.3 445.613 235.488 445.266 235.581C444.92 235.674 444.572 235.67 444.223 235.569C443.874 235.469 443.552 235.27 443.259 234.973ZM446.509 238.263C446.216 237.966 446.01 237.662 445.894 237.353C445.783 237.043 445.74 236.702 445.762 236.329L446.796 236.34C446.777 236.588 446.8 236.819 446.863 237.033C446.933 237.247 447.061 237.448 447.246 237.636C447.415 237.807 447.575 237.908 447.728 237.939C447.884 237.974 448.016 237.938 448.126 237.83C448.225 237.732 448.275 237.622 448.275 237.5C448.276 237.378 448.248 237.243 448.191 237.097C448.138 236.954 448.071 236.801 447.99 236.638C447.913 236.478 447.841 236.313 447.775 236.142C447.711 235.969 447.668 235.792 447.645 235.612C447.63 235.432 447.651 235.252 447.71 235.073C447.772 234.89 447.895 234.707 448.08 234.525C448.302 234.306 448.545 234.17 448.81 234.117C449.079 234.068 449.348 234.099 449.619 234.209C449.893 234.316 450.154 234.494 450.4 234.743C450.65 234.996 450.833 235.27 450.95 235.566C451.07 235.866 451.121 236.16 451.102 236.448L450.069 236.437C450.074 236.216 450.048 236.022 449.991 235.856C449.938 235.692 449.842 235.541 449.704 235.401C449.565 235.261 449.428 235.177 449.293 235.149C449.161 235.117 449.045 235.151 448.946 235.248C448.854 235.34 448.809 235.445 448.812 235.563C448.818 235.679 448.849 235.806 448.906 235.946C448.966 236.089 449.035 236.24 449.112 236.4C449.192 236.564 449.264 236.732 449.328 236.905C449.391 237.079 449.429 237.257 449.442 237.441C449.461 237.624 449.436 237.811 449.367 238C449.301 238.187 449.175 238.373 448.987 238.558C448.642 238.899 448.249 239.044 447.808 238.994C447.371 238.94 446.938 238.697 446.509 238.263Z" fill="#3C2400"/>
<path d="M472.977 286.339C472.886 285.98 472.867 285.626 472.917 285.277C472.969 284.932 473.08 284.615 473.249 284.325C473.423 284.033 473.647 283.782 473.92 283.569C474.199 283.36 474.518 283.211 474.876 283.121C475.235 283.03 475.585 283.014 475.926 283.072C476.267 283.129 476.582 283.248 476.869 283.428C477.163 283.612 477.413 283.848 477.62 284.138C477.831 284.426 477.983 284.754 478.075 285.122C478.182 285.545 478.202 285.949 478.135 286.332C478.069 286.72 477.93 287.062 477.718 287.358L476.782 286.799C476.947 286.589 477.054 286.364 477.103 286.124C477.151 285.884 477.141 285.629 477.073 285.359C477.001 285.071 476.871 284.829 476.683 284.633C476.5 284.437 476.275 284.303 476.01 284.231C475.75 284.163 475.467 284.167 475.159 284.245C474.852 284.322 474.598 284.453 474.397 284.637C474.196 284.821 474.058 285.039 473.982 285.291C473.907 285.543 473.905 285.81 473.977 286.094C474.049 286.383 474.164 286.614 474.322 286.787C474.485 286.964 474.683 287.08 474.914 287.135C475.152 287.194 475.42 287.186 475.718 287.111L475.412 287.96L474.893 285.752L475.822 285.518L476.474 288.109L476.313 288.149C475.722 288.298 475.197 288.316 474.738 288.204C474.285 288.096 473.909 287.878 473.609 287.553C473.31 287.232 473.1 286.827 472.977 286.339ZM473.883 289.616L478.813 288.375L479.089 289.471L474.159 290.712L473.883 289.616ZM474.094 290.454L475.044 290.215L475.724 292.917L474.774 293.156L474.094 290.454ZM476.154 289.935L477.069 289.705L477.687 292.163L476.773 292.393L476.154 289.935ZM478.081 289.45L479.024 289.213L479.695 291.88L478.752 292.117L478.081 289.45ZM475 294.051L479.929 292.81L480.126 293.592L477.591 296.294L477.491 295.896L481.001 297.069L481.2 297.858L476.271 299.099L475.995 298.003L479.074 297.228L479.074 297.436L476.787 296.668L476.604 295.942L478.257 294.189L478.353 294.365L475.274 295.14L475 294.051ZM476.544 300.184L481.473 298.943L481.749 300.04L476.82 301.281L476.544 300.184ZM477.094 302.37L482.023 301.129L482.217 301.897L481.315 302.473L477.37 303.466L477.094 302.37ZM477.95 305.77L480.94 301.928L482.217 301.897L479.226 305.738L477.95 305.77ZM477.95 305.77L478.86 305.229L482.805 304.236L483.081 305.332L478.152 306.573L477.95 305.77ZM478.427 307.664L483.356 306.423L483.632 307.519L478.703 308.76L478.427 307.664Z" fill="#3C2400"/>
<path d="M478.035 359.685C478.113 359.314 478.249 358.982 478.444 358.689C478.641 358.402 478.883 358.164 479.168 357.974C479.453 357.789 479.764 357.663 480.102 357.597C480.444 357.532 480.796 357.537 481.158 357.613C481.519 357.69 481.841 357.826 482.123 358.023C482.41 358.221 482.644 358.462 482.825 358.745C483.005 359.028 483.126 359.341 483.186 359.682C483.25 360.029 483.243 360.388 483.165 360.759C483.082 361.154 482.945 361.491 482.754 361.769C482.561 362.052 482.331 362.286 482.061 362.469L481.471 361.572C481.639 361.47 481.783 361.334 481.903 361.163C482.021 360.997 482.106 360.791 482.158 360.547C482.203 360.331 482.208 360.123 482.171 359.924C482.139 359.731 482.068 359.554 481.959 359.394C481.85 359.239 481.707 359.103 481.53 358.987C481.352 358.876 481.149 358.796 480.918 358.748C480.684 358.698 480.462 358.688 480.255 358.718C480.047 358.753 479.861 358.819 479.698 358.917C479.534 359.02 479.396 359.153 479.283 359.315C479.169 359.483 479.089 359.674 479.044 359.89C478.99 360.144 478.984 360.373 479.024 360.578C479.064 360.782 479.14 360.968 479.253 361.134L478.348 361.723C478.178 361.437 478.062 361.125 478.001 360.789C477.938 360.457 477.95 360.089 478.035 359.685ZM477.661 361.842L482.219 364.864L482.008 365.864L476.622 366.766L476.869 365.597L481.312 364.974L481.228 365.376L477.419 362.99L477.661 361.842ZM478.326 363.152L479.228 363.343L478.656 366.055L477.754 365.865L478.326 363.152ZM476.482 367.434L481.455 368.483L481.292 369.258L480.229 369.379L476.248 368.54L476.482 367.434ZM475.758 370.865L480.131 368.726L481.292 369.258L476.919 371.396L475.758 370.865ZM475.758 370.865L476.814 370.778L480.794 371.618L480.561 372.724L475.587 371.675L475.758 370.865ZM474.78 375.119C474.858 374.748 474.994 374.417 475.188 374.124C475.386 373.837 475.628 373.599 475.913 373.409C476.197 373.223 476.508 373.097 476.846 373.031C477.189 372.966 477.541 372.972 477.902 373.048C478.264 373.124 478.586 373.261 478.868 373.458C479.155 373.656 479.389 373.896 479.569 374.18C479.75 374.463 479.871 374.775 479.931 375.117C479.995 375.464 479.988 375.823 479.91 376.194C479.827 376.589 479.689 376.925 479.498 377.204C479.306 377.487 479.075 377.72 478.806 377.904L478.215 377.007C478.384 376.905 478.528 376.768 478.647 376.597C478.766 376.431 478.851 376.226 478.902 375.982C478.948 375.766 478.952 375.558 478.916 375.359C478.883 375.166 478.812 374.989 478.704 374.829C478.595 374.673 478.451 374.537 478.275 374.422C478.097 374.311 477.893 374.231 477.663 374.182C477.428 374.133 477.207 374.123 477 374.153C476.791 374.187 476.606 374.254 476.443 374.352C476.279 374.454 476.14 374.587 476.027 374.75C475.914 374.917 475.834 375.109 475.788 375.325C475.735 375.578 475.728 375.808 475.769 376.012C475.809 376.217 475.885 376.402 475.997 376.568L475.093 377.158C474.923 376.871 474.807 376.56 474.745 376.223C474.683 375.891 474.694 375.523 474.78 375.119ZM474.301 377.774L479.274 378.823L479.041 379.929L474.067 378.88L474.301 377.774ZM474.122 378.619L475.08 378.821L474.505 381.548L473.547 381.346L474.122 378.619ZM476.201 379.058L477.123 379.252L476.6 381.732L475.678 381.537L476.201 379.058ZM478.145 379.468L479.096 379.668L478.528 382.359L477.577 382.159L478.145 379.468ZM475.229 383.527L476.046 383.699L475.824 384.749C475.778 384.97 475.798 385.151 475.886 385.292C475.973 385.438 476.113 385.531 476.306 385.572C476.484 385.609 476.645 385.582 476.787 385.489C476.929 385.396 477.023 385.24 477.07 385.019L477.293 383.962L478.152 384.143L477.903 385.327C477.833 385.656 477.709 385.931 477.53 386.153C477.355 386.377 477.142 386.535 476.892 386.63C476.642 386.724 476.373 386.741 476.087 386.681C475.795 386.619 475.554 386.495 475.363 386.307C475.177 386.121 475.049 385.888 474.981 385.609C474.912 385.329 474.914 385.018 474.986 384.675L475.229 383.527ZM473.357 382.249L478.331 383.298L478.097 384.404L473.123 383.355L473.357 382.249ZM472.786 384.954L475.255 383.856L475.316 384.929L472.51 386.265L472.786 384.954Z" fill="#3C2400"/>
<path d="M443.36 431.319L446.964 434.903L446.167 435.705L442.563 432.12L443.36 431.319ZM442.746 431.936L443.45 432.637L441.678 434.418L440.973 433.718L442.746 431.936ZM440.412 434.282L444.016 437.867L443.219 438.668L439.615 435.083L440.412 434.282ZM439.803 434.894L440.497 435.585L438.532 437.56L437.838 436.87L439.803 434.894ZM441.309 436.392L441.977 437.058L440.19 438.854L439.521 438.189L441.309 436.392ZM442.717 437.794L443.406 438.479L441.467 440.429L440.778 439.744L442.717 437.794ZM435.478 439.119C435.749 438.847 436.047 438.642 436.373 438.506C436.695 438.372 437.027 438.304 437.37 438.299C437.713 438.295 438.044 438.357 438.363 438.485C438.686 438.617 438.979 438.813 439.241 439.073C439.506 439.337 439.704 439.629 439.834 439.948C439.963 440.266 440.027 440.594 440.025 440.93C440.025 441.269 439.958 441.598 439.823 441.918C439.689 442.244 439.486 442.543 439.215 442.816C438.947 443.084 438.653 443.285 438.331 443.419C438.009 443.559 437.678 443.629 437.338 443.63C436.999 443.638 436.668 443.576 436.345 443.444C436.026 443.316 435.733 443.12 435.468 442.856C435.206 442.595 435.008 442.304 434.875 441.982C434.745 441.663 434.68 441.334 434.679 440.995C434.681 440.659 434.75 440.327 434.885 440.001C435.017 439.678 435.214 439.384 435.478 439.119ZM436.219 439.835C436.005 440.049 435.867 440.284 435.803 440.539C435.736 440.797 435.743 441.055 435.825 441.312C435.911 441.573 436.066 441.816 436.291 442.039C436.461 442.208 436.639 442.335 436.826 442.42C437.016 442.507 437.208 442.553 437.402 442.556C437.599 442.562 437.789 442.524 437.972 442.442C438.155 442.367 438.326 442.249 438.485 442.089C438.698 441.875 438.838 441.639 438.906 441.381C438.973 441.129 438.965 440.875 438.883 440.617C438.805 440.363 438.651 440.122 438.423 439.895C438.253 439.726 438.073 439.598 437.883 439.51C437.692 439.422 437.5 439.373 437.307 439.364C437.113 439.361 436.923 439.399 436.737 439.477C436.55 439.556 436.378 439.675 436.219 439.835Z" fill="#3C2400"/>
<path d="M380.418 472.957L383.569 477.401L382.396 477.699L379.939 474.082L380.421 473.959L379.968 478.316L378.809 478.611L379.476 473.196L380.418 472.957ZM376.839 473.867L378.091 478.793L376.996 479.072L375.744 474.145L376.839 473.867ZM374.334 476.665L374.54 477.475L373.5 477.739C373.281 477.794 373.128 477.893 373.04 478.034C372.948 478.176 372.926 478.343 372.974 478.534C373.019 478.71 373.114 478.842 373.26 478.929C373.406 479.016 373.588 479.031 373.807 478.976L374.854 478.71L375.07 479.561L373.898 479.859C373.572 479.942 373.27 479.952 372.992 479.889C372.714 479.83 372.478 479.71 372.283 479.526C372.088 479.343 371.954 479.11 371.882 478.826C371.809 478.538 371.814 478.266 371.898 478.012C371.983 477.763 372.136 477.546 372.357 477.361C372.577 477.176 372.857 477.04 373.197 476.954L374.334 476.665ZM374.655 474.422L375.908 479.348L374.812 479.627L373.56 474.7L374.655 474.422ZM371.976 475.103L374.05 476.834L373.114 477.361L370.678 475.433L371.976 475.103ZM367.743 476.097C368.101 476.006 368.455 475.985 368.805 476.035C369.149 476.086 369.467 476.196 369.758 476.365C370.049 476.538 370.302 476.761 370.515 477.034C370.724 477.313 370.874 477.631 370.965 477.989C371.056 478.347 371.074 478.697 371.017 479.039C370.96 479.38 370.842 479.695 370.662 479.983C370.48 480.277 370.244 480.528 369.955 480.735C369.667 480.947 369.339 481.099 368.971 481.193C368.548 481.3 368.145 481.321 367.762 481.255C367.374 481.19 367.031 481.052 366.735 480.84L367.292 479.904C367.502 480.068 367.727 480.174 367.967 480.222C368.207 480.27 368.462 480.26 368.732 480.191C369.02 480.118 369.262 479.987 369.457 479.799C369.653 479.616 369.786 479.391 369.857 479.125C369.925 478.865 369.92 478.582 369.842 478.275C369.764 477.968 369.632 477.714 369.448 477.513C369.263 477.313 369.045 477.175 368.793 477.1C368.541 477.025 368.274 477.024 367.99 477.096C367.701 477.17 367.471 477.285 367.298 477.443C367.122 477.607 367.006 477.804 366.951 478.036C366.892 478.274 366.901 478.542 366.977 478.84L366.127 478.536L368.334 478.012L368.57 478.94L365.981 479.598L365.94 479.437C365.79 478.847 365.77 478.322 365.882 477.862C365.989 477.409 366.205 477.032 366.53 476.732C366.85 476.433 367.255 476.221 367.743 476.097ZM362.027 477.542C362.399 477.447 362.76 477.425 363.109 477.475C363.454 477.526 363.775 477.638 364.071 477.81C364.367 477.982 364.62 478.205 364.828 478.479C365.037 478.758 365.188 479.076 365.279 479.435C365.371 479.797 365.391 480.149 365.339 480.489C365.287 480.829 365.173 481.143 364.998 481.43C364.825 481.722 364.598 481.97 364.319 482.175C364.035 482.385 363.708 482.538 363.335 482.633C362.968 482.726 362.612 482.747 362.267 482.696C361.919 482.651 361.599 482.542 361.307 482.368C361.012 482.2 360.759 481.977 360.55 481.699C360.342 481.425 360.191 481.106 360.099 480.744C360.008 480.385 359.988 480.034 360.039 479.689C360.091 479.349 360.204 479.033 360.378 478.741C360.552 478.454 360.781 478.205 361.065 477.995C361.343 477.785 361.664 477.634 362.027 477.542ZM362.294 478.536C362.001 478.611 361.762 478.741 361.576 478.927C361.386 479.114 361.26 479.339 361.198 479.602C361.138 479.87 361.146 480.158 361.224 480.465C361.284 480.698 361.372 480.898 361.489 481.066C361.607 481.239 361.748 481.377 361.913 481.479C362.079 481.585 362.261 481.65 362.46 481.674C362.656 481.703 362.863 481.69 363.082 481.635C363.375 481.56 363.617 481.429 363.807 481.242C363.993 481.061 364.118 480.839 364.18 480.576C364.243 480.317 364.234 480.032 364.155 479.72C364.096 479.487 364.007 479.285 363.889 479.112C363.771 478.939 363.631 478.798 363.47 478.691C363.306 478.589 363.123 478.524 362.923 478.496C362.722 478.467 362.513 478.481 362.294 478.536Z" fill="#3C2400"/>
<path d="M304.266 477.955L302.96 482.867L301.868 482.577L303.173 477.664L304.266 477.955ZM303.424 477.731L303.169 478.691L300.74 478.046L300.995 477.086L303.424 477.731ZM300.226 476.881L298.921 481.794L297.828 481.504L299.134 476.591L300.226 476.881ZM297.213 476.081L296.988 476.93L295.833 476.623C295.619 476.566 295.435 476.584 295.282 476.678C295.128 476.771 295.027 476.908 294.979 477.089C294.945 477.214 294.944 477.333 294.973 477.445C295.003 477.557 295.062 477.655 295.149 477.737C295.232 477.819 295.345 477.879 295.489 477.917L296.644 478.224L296.424 479.052L295.359 478.769C295.178 478.721 295.02 478.726 294.886 478.785C294.75 478.848 294.657 478.973 294.608 479.158C294.56 479.339 294.579 479.488 294.667 479.606C294.754 479.728 294.888 479.814 295.069 479.862L296.133 480.145L295.908 480.994L294.634 480.655C294.319 480.571 294.068 480.443 293.88 480.269C293.689 480.093 293.561 479.893 293.496 479.667C293.432 479.442 293.431 479.211 293.494 478.974C293.574 478.672 293.74 478.443 293.99 478.286C294.24 478.129 294.566 478.062 294.967 478.084L294.842 478.445C294.45 478.257 294.174 478.012 294.016 477.712C293.853 477.41 293.818 477.083 293.912 476.731C293.983 476.462 294.115 476.236 294.308 476.054C294.494 475.875 294.729 475.756 295.013 475.697C295.292 475.637 295.606 475.654 295.954 475.746L297.213 476.081ZM298.048 476.303L296.743 481.215L295.664 480.929L296.97 476.016L298.048 476.303ZM292.078 476.884L291.864 477.691L290.827 477.416C290.609 477.358 290.427 477.369 290.281 477.45C290.131 477.529 290.031 477.664 289.98 477.854C289.934 478.03 289.953 478.192 290.038 478.339C290.123 478.486 290.275 478.588 290.493 478.646L291.536 478.923L291.311 479.772L290.142 479.461C289.817 479.375 289.548 479.237 289.336 479.046C289.122 478.86 288.974 478.64 288.893 478.385C288.812 478.13 288.809 477.861 288.884 477.578C288.961 477.29 289.097 477.056 289.294 476.875C289.49 476.698 289.73 476.583 290.012 476.529C290.295 476.475 290.605 476.493 290.944 476.583L292.078 476.884ZM293.451 475.081L292.146 479.994L291.053 479.704L292.359 474.791L293.451 475.081ZM290.779 474.371L291.748 476.893L290.674 476.899L289.485 474.027L290.779 474.371ZM289.393 474.003L286.139 478.398L285.151 478.135L284.529 472.711L285.684 473.017L286.076 477.487L285.679 477.382L288.259 473.702L289.393 474.003ZM288.05 474.6L287.813 475.49L285.134 474.778L285.371 473.888L288.05 474.6Z" fill="#3C2400"/>
<path d="M239.827 446.527C240.115 446.829 240.314 447.137 240.425 447.449C240.529 447.76 240.566 448.102 240.536 448.475L239.503 448.443C239.526 448.196 239.508 447.965 239.449 447.749C239.384 447.534 239.26 447.33 239.078 447.139C238.913 446.965 238.754 446.86 238.602 446.826C238.447 446.788 238.314 446.822 238.202 446.928C238.101 447.024 238.049 447.133 238.046 447.255C238.043 447.377 238.068 447.512 238.122 447.659C238.173 447.803 238.237 447.957 238.314 448.122C238.388 448.284 238.457 448.45 238.52 448.622C238.58 448.796 238.62 448.974 238.639 449.154C238.651 449.335 238.626 449.514 238.564 449.692C238.498 449.874 238.371 450.054 238.183 450.232C237.957 450.447 237.711 450.578 237.445 450.626C237.175 450.67 236.906 450.634 236.638 450.519C236.366 450.406 236.109 450.223 235.868 449.969C235.623 449.711 235.445 449.433 235.334 449.135C235.22 448.833 235.175 448.539 235.199 448.251L236.232 448.282C236.223 448.503 236.245 448.697 236.299 448.865C236.349 449.029 236.441 449.183 236.577 449.325C236.712 449.468 236.848 449.555 236.983 449.585C237.114 449.619 237.23 449.588 237.331 449.492C237.425 449.403 237.472 449.299 237.472 449.18C237.468 449.065 237.439 448.937 237.385 448.796C237.328 448.652 237.262 448.499 237.188 448.338C237.111 448.173 237.042 448.003 236.982 447.828C236.922 447.653 236.888 447.474 236.879 447.291C236.863 447.107 236.892 446.921 236.965 446.733C237.034 446.548 237.164 446.364 237.356 446.183C237.707 445.849 238.103 445.711 238.543 445.77C238.979 445.832 239.407 446.085 239.827 446.527ZM236.199 442.706C236.46 442.981 236.656 443.281 236.786 443.607C236.91 443.933 236.97 444.267 236.964 444.61C236.955 444.949 236.883 445.276 236.745 445.592C236.605 445.911 236.4 446.198 236.132 446.452C235.864 446.707 235.569 446.894 235.247 447.015C234.921 447.139 234.59 447.195 234.255 447.183C233.919 447.171 233.593 447.093 233.278 446.949C232.955 446.805 232.664 446.595 232.403 446.32C232.125 446.028 231.926 445.724 231.805 445.408C231.681 445.089 231.619 444.767 231.621 444.441L232.695 444.464C232.683 444.66 232.714 444.856 232.787 445.052C232.857 445.244 232.977 445.43 233.149 445.611C233.301 445.771 233.47 445.893 233.654 445.976C233.832 446.058 234.018 446.1 234.211 446.102C234.401 446.1 234.594 446.059 234.79 445.98C234.982 445.896 235.164 445.774 235.334 445.612C235.508 445.446 235.642 445.27 235.735 445.082C235.825 444.891 235.875 444.7 235.887 444.511C235.896 444.317 235.865 444.128 235.795 443.943C235.722 443.754 235.609 443.58 235.457 443.42C235.278 443.232 235.094 443.096 234.902 443.013C234.711 442.93 234.515 442.888 234.315 442.886L234.343 441.807C234.675 441.829 234.997 441.911 235.309 442.051C235.618 442.188 235.914 442.406 236.199 442.706ZM232.817 439.134C233.081 439.412 233.277 439.716 233.404 440.046C233.528 440.371 233.588 440.706 233.582 441.048C233.577 441.391 233.505 441.72 233.368 442.036C233.228 442.355 233.023 442.642 232.755 442.896C232.484 443.154 232.187 443.343 231.865 443.464C231.542 443.584 231.213 443.639 230.878 443.627C230.538 443.618 230.211 443.542 229.895 443.398C229.573 443.254 229.28 443.042 229.015 442.764C228.754 442.489 228.562 442.188 228.438 441.863C228.307 441.537 228.246 441.204 228.255 440.865C228.257 440.525 228.328 440.196 228.469 439.877C228.606 439.562 228.81 439.275 229.082 439.017C229.35 438.763 229.647 438.573 229.972 438.449C230.295 438.329 230.625 438.273 230.965 438.281C231.301 438.294 231.63 438.372 231.952 438.516C232.271 438.656 232.559 438.863 232.817 439.134ZM232.08 439.853C231.872 439.634 231.641 439.489 231.389 439.418C231.132 439.343 230.874 439.344 230.614 439.418C230.351 439.496 230.104 439.645 229.875 439.863C229.701 440.028 229.569 440.203 229.479 440.387C229.386 440.575 229.335 440.765 229.327 440.959C229.315 441.155 229.347 441.346 229.424 441.532C229.494 441.717 229.607 441.891 229.762 442.055C229.97 442.274 230.202 442.421 230.459 442.495C230.708 442.57 230.963 442.57 231.223 442.495C231.479 442.423 231.724 442.277 231.957 442.055C232.131 441.89 232.265 441.714 232.358 441.526C232.451 441.338 232.505 441.148 232.52 440.955C232.529 440.761 232.496 440.57 232.423 440.382C232.35 440.193 232.236 440.017 232.08 439.853ZM228.217 437.458L227.612 438.034L226.873 437.256C226.717 437.092 226.557 437.006 226.391 436.999C226.221 436.988 226.065 437.05 225.922 437.185C225.79 437.311 225.722 437.458 225.717 437.628C225.713 437.798 225.788 437.964 225.944 438.128L226.687 438.911L226.05 439.516L225.218 438.639C224.986 438.395 224.83 438.137 224.749 437.863C224.664 437.592 224.654 437.327 224.718 437.068C224.783 436.808 224.921 436.577 225.133 436.375C225.349 436.171 225.588 436.043 225.851 435.992C226.11 435.944 226.375 435.971 226.644 436.073C226.913 436.175 227.168 436.353 227.409 436.607L228.217 437.458ZM230.331 436.642L226.645 440.143L225.867 439.323L229.553 435.823L230.331 436.642ZM228.428 434.637L227.931 437.293L227.014 436.735L227.505 433.666L228.428 434.637ZM225.129 433.851L224.492 434.456L223.738 433.662C223.643 433.561 223.534 433.489 223.413 433.445C223.292 433.401 223.168 433.393 223.042 433.42C222.916 433.447 222.795 433.516 222.68 433.625C222.569 433.73 222.496 433.846 222.462 433.971C222.429 434.095 222.43 434.219 222.468 434.342C222.506 434.466 222.572 434.578 222.668 434.679L223.422 435.472L222.785 436.077L221.917 435.163C221.696 434.93 221.543 434.675 221.458 434.398C221.374 434.121 221.369 433.844 221.444 433.567C221.512 433.291 221.666 433.038 221.907 432.81C222.147 432.582 222.409 432.44 222.692 432.382C222.968 432.325 223.245 432.344 223.52 432.439C223.793 432.538 224.04 432.704 224.261 432.937L225.129 433.851ZM227.066 433.203L223.38 436.704L222.601 435.884L226.287 432.384L227.066 433.203ZM223.887 429.856L220.201 433.356L219.423 432.537L223.109 429.036L223.887 429.856ZM220.727 426.403C220.992 426.682 221.188 426.985 221.315 427.315C221.439 427.64 221.498 427.975 221.493 428.318C221.487 428.66 221.416 428.989 221.279 429.305C221.138 429.624 220.934 429.911 220.666 430.165C220.394 430.423 220.097 430.612 219.775 430.733C219.453 430.854 219.124 430.908 218.788 430.896C218.449 430.887 218.121 430.811 217.806 430.667C217.484 430.523 217.19 430.311 216.926 430.033C216.665 429.758 216.472 429.458 216.348 429.132C216.217 428.806 216.156 428.473 216.165 428.134C216.167 427.795 216.239 427.465 216.379 427.146C216.516 426.831 216.721 426.544 216.992 426.286C217.26 426.032 217.557 425.843 217.883 425.719C218.205 425.598 218.536 425.542 218.875 425.551C219.211 425.563 219.54 425.641 219.862 425.785C220.181 425.926 220.47 426.132 220.727 426.403ZM219.991 427.123C219.782 426.903 219.552 426.758 219.299 426.687C219.043 426.613 218.785 426.613 218.525 426.688C218.262 426.766 218.015 426.914 217.785 427.132C217.611 427.297 217.479 427.472 217.39 427.656C217.297 427.844 217.246 428.035 217.237 428.228C217.226 428.425 217.258 428.616 217.335 428.801C217.405 428.986 217.517 429.16 217.673 429.324C217.881 429.543 218.113 429.69 218.369 429.765C218.618 429.839 218.873 429.839 219.133 429.764C219.389 429.693 219.634 429.546 219.868 429.325C220.042 429.159 220.175 428.983 220.268 428.795C220.361 428.607 220.416 428.417 220.431 428.224C220.439 428.031 220.407 427.84 220.333 427.651C220.26 427.462 220.146 427.286 219.991 427.123Z" fill="#3C2400"/>
<path d="M188.241 314.553C188.15 314.921 188.002 315.248 187.798 315.533C187.59 315.813 187.34 316.043 187.048 316.223C186.758 316.398 186.442 316.513 186.103 316.567C185.758 316.62 185.407 316.602 185.048 316.513C184.689 316.424 184.372 316.276 184.097 316.07C183.817 315.862 183.592 315.613 183.421 315.324C183.251 315.034 183.141 314.718 183.093 314.374C183.041 314.025 183.061 313.667 183.152 313.299C183.249 312.907 183.398 312.576 183.599 312.304C183.801 312.028 184.039 311.803 184.315 311.629L184.874 312.546C184.702 312.642 184.553 312.773 184.428 312.94C184.303 313.102 184.211 313.304 184.151 313.546C184.098 313.761 184.086 313.968 184.116 314.168C184.142 314.362 184.206 314.542 184.309 314.706C184.413 314.865 184.551 315.005 184.724 315.127C184.897 315.245 185.098 315.331 185.327 315.388C185.56 315.446 185.78 315.463 185.989 315.441C186.198 315.414 186.386 315.354 186.552 315.262C186.72 315.165 186.863 315.037 186.981 314.878C187.101 314.715 187.187 314.526 187.24 314.312C187.302 314.06 187.317 313.832 187.284 313.626C187.251 313.42 187.181 313.232 187.075 313.062L188 312.505C188.16 312.797 188.264 313.112 188.314 313.451C188.365 313.785 188.341 314.152 188.241 314.553ZM188.691 312.41L184.242 309.23L184.488 308.238L189.901 307.525L189.614 308.685L185.151 309.152L185.25 308.753L188.973 311.271L188.691 312.41ZM188.072 311.077L187.177 310.855L187.844 308.165L188.738 308.386L188.072 311.077ZM188.477 305.579L187.625 305.368L187.888 304.306C187.921 304.171 187.924 304.04 187.896 303.915C187.868 303.789 187.808 303.68 187.717 303.588C187.626 303.497 187.504 303.432 187.35 303.394C187.201 303.357 187.065 303.357 186.941 303.396C186.818 303.435 186.715 303.503 186.631 303.601C186.547 303.699 186.489 303.816 186.455 303.951L186.192 305.013L185.339 304.802L185.642 303.579C185.72 303.266 185.853 303 186.041 302.78C186.229 302.559 186.46 302.406 186.733 302.321C187.003 302.23 187.299 302.224 187.62 302.303C187.942 302.383 188.203 302.527 188.403 302.735C188.6 302.937 188.733 303.18 188.801 303.464C188.865 303.747 188.858 304.044 188.78 304.356L188.477 305.579ZM190.065 306.863L185.132 305.64L185.403 304.543L190.337 305.766L190.065 306.863ZM189.35 301.04L188.539 300.839L188.797 299.798C188.852 299.579 188.837 299.397 188.754 299.253C188.673 299.104 188.536 299.006 188.345 298.959C188.168 298.915 188.007 298.937 187.862 299.024C187.716 299.112 187.616 299.265 187.562 299.484L187.302 300.533L186.45 300.321L186.741 299.147C186.822 298.821 186.956 298.55 187.143 298.334C187.325 298.118 187.543 297.966 187.796 297.881C188.05 297.795 188.319 297.788 188.603 297.858C188.892 297.93 189.129 298.063 189.313 298.257C189.493 298.45 189.612 298.687 189.671 298.968C189.729 299.25 189.717 299.561 189.632 299.901L189.35 301.04ZM191.176 302.383L186.242 301.16L186.514 300.063L191.448 301.286L191.176 302.383ZM191.841 299.699L189.335 300.71L189.312 299.636L192.163 298.399L191.841 299.699ZM192.317 297.78L187.383 296.557L187.655 295.46L192.589 296.682L192.317 297.78ZM193.516 293.27C193.425 293.638 193.277 293.965 193.073 294.251C192.865 294.531 192.615 294.761 192.323 294.94C192.032 295.116 191.717 295.23 191.377 295.285C191.033 295.338 190.681 295.32 190.323 295.231C189.964 295.142 189.647 294.994 189.372 294.787C189.092 294.58 188.867 294.331 188.696 294.041C188.526 293.752 188.416 293.435 188.368 293.092C188.316 292.743 188.335 292.384 188.427 292.016C188.524 291.625 188.672 291.293 188.873 291.022C189.075 290.746 189.314 290.52 189.59 290.346L190.149 291.264C189.976 291.36 189.828 291.491 189.702 291.658C189.578 291.82 189.486 292.022 189.426 292.264C189.373 292.478 189.361 292.686 189.39 292.886C189.416 293.08 189.481 293.259 189.584 293.423C189.688 293.583 189.826 293.723 189.998 293.845C190.172 293.962 190.373 294.049 190.601 294.106C190.834 294.163 191.055 294.181 191.263 294.158C191.473 294.131 191.661 294.072 191.827 293.979C191.994 293.882 192.137 293.754 192.256 293.596C192.375 293.433 192.462 293.244 192.515 293.03C192.577 292.778 192.592 292.549 192.559 292.343C192.526 292.137 192.456 291.949 192.35 291.78L193.274 291.222C193.434 291.514 193.539 291.83 193.589 292.168C193.64 292.502 193.615 292.87 193.516 293.27ZM194.706 288.498C194.614 288.871 194.463 289.199 194.254 289.484C194.046 289.764 193.796 289.993 193.505 290.173C193.213 290.353 192.897 290.47 192.557 290.524C192.213 290.578 191.861 290.56 191.502 290.471C191.139 290.381 190.82 290.232 190.544 290.026C190.269 289.819 190.046 289.571 189.876 289.281C189.701 288.991 189.589 288.674 189.54 288.33C189.488 287.981 189.509 287.62 189.601 287.247C189.692 286.879 189.842 286.555 190.05 286.276C190.254 285.99 190.501 285.76 190.792 285.584C191.079 285.403 191.395 285.286 191.74 285.233C192.079 285.179 192.431 285.197 192.794 285.287C193.153 285.376 193.473 285.524 193.752 285.732C194.027 285.939 194.253 286.187 194.428 286.478C194.598 286.768 194.71 287.087 194.762 287.436C194.815 287.781 194.796 288.135 194.706 288.498ZM193.703 288.264C193.776 287.971 193.774 287.698 193.698 287.447C193.623 287.191 193.484 286.974 193.281 286.795C193.074 286.615 192.816 286.487 192.509 286.41C192.276 286.353 192.057 286.336 191.854 286.359C191.645 286.382 191.457 286.442 191.29 286.539C191.118 286.634 190.974 286.764 190.859 286.929C190.741 287.087 190.655 287.276 190.6 287.495C190.528 287.789 190.529 288.063 190.604 288.319C190.675 288.57 190.813 288.784 191.016 288.963C191.214 289.141 191.469 289.268 191.781 289.346C192.014 289.403 192.235 289.421 192.443 289.398C192.651 289.376 192.841 289.319 193.012 289.228C193.179 289.131 193.323 289.001 193.443 288.838C193.562 288.674 193.649 288.483 193.703 288.264ZM193.643 283.719L192.832 283.519L193.09 282.477C193.145 282.258 193.13 282.077 193.047 281.932C192.965 281.784 192.829 281.686 192.638 281.638C192.461 281.594 192.3 281.616 192.154 281.704C192.009 281.791 191.909 281.945 191.855 282.164L191.595 283.212L190.743 283.001L191.034 281.827C191.114 281.5 191.248 281.229 191.435 281.014C191.618 280.797 191.836 280.646 192.089 280.56C192.343 280.475 192.612 280.467 192.896 280.538C193.185 280.609 193.421 280.742 193.606 280.936C193.785 281.129 193.905 281.366 193.963 281.648C194.022 281.929 194.01 282.24 193.925 282.58L193.643 283.719ZM195.469 285.062L190.535 283.839L190.807 282.742L195.741 283.965L195.469 285.062ZM196.134 282.378L193.628 283.389L193.605 282.316L196.456 281.079L196.134 282.378ZM196.61 280.459L191.676 279.236L191.866 278.467L192.933 278.383L196.882 279.362L196.61 280.459ZM197.453 277.056L193.008 279.04L191.866 278.467L196.312 276.483L197.453 277.056ZM197.453 277.056L196.395 277.105L192.446 276.126L192.718 275.029L197.652 276.252L197.453 277.056Z" fill="#3C2400"/>
<path d="M216.517 243.213L214.277 238.225L214.989 237.492L220.025 239.604L219.192 240.461L215.102 238.615L215.388 238.321L217.335 242.371L216.517 243.213ZM216.654 241.75L215.993 241.108L217.925 239.12L218.586 239.762L216.654 241.75ZM222.062 237.632C221.797 237.903 221.503 238.11 221.18 238.25C220.856 238.39 220.522 238.465 220.18 238.473C219.84 238.478 219.508 238.42 219.184 238.299C218.86 238.171 218.565 237.979 218.3 237.721C218.032 237.46 217.831 237.171 217.697 236.854C217.564 236.537 217.496 236.21 217.495 235.874C217.493 235.531 217.558 235.199 217.689 234.878C217.82 234.551 218.018 234.251 218.282 233.979C218.55 233.703 218.844 233.497 219.164 233.36C219.485 233.217 219.815 233.142 220.154 233.137C220.493 233.126 220.825 233.184 221.15 233.312C221.47 233.436 221.765 233.629 222.034 233.89C222.299 234.147 222.5 234.436 222.637 234.757C222.77 235.074 222.838 235.404 222.839 235.747C222.841 236.083 222.777 236.413 222.65 236.737C222.522 237.061 222.326 237.36 222.062 237.632ZM223.869 236.226L220.51 236.274L220.496 235.347L223.856 235.299L223.869 236.226ZM221.313 236.924C221.527 236.704 221.665 236.466 221.726 236.211C221.787 235.955 221.774 235.699 221.689 235.442C221.604 235.179 221.448 234.937 221.221 234.716C221.048 234.549 220.868 234.424 220.681 234.342C220.489 234.256 220.297 234.213 220.103 234.212C219.906 234.209 219.717 234.249 219.535 234.333C219.353 234.41 219.181 234.531 219.021 234.696C218.81 234.913 218.674 235.149 218.613 235.405C218.549 235.657 218.558 235.913 218.64 236.173C218.721 236.427 218.877 236.666 219.108 236.89C219.28 237.057 219.462 237.183 219.653 237.269C219.845 237.354 220.039 237.399 220.236 237.403C220.429 237.404 220.617 237.365 220.799 237.288C220.985 237.207 221.156 237.086 221.313 236.924ZM226.002 233.566C225.711 233.866 225.39 234.069 225.038 234.176C224.69 234.279 224.341 234.288 223.99 234.201C223.639 234.108 223.319 233.92 223.03 233.639L220.82 231.492L221.613 230.676L223.869 232.869C224.014 233.009 224.169 233.1 224.336 233.142C224.503 233.184 224.668 233.18 224.83 233.13C224.992 233.073 225.137 232.98 225.264 232.849C225.398 232.711 225.487 232.564 225.532 232.407C225.574 232.247 225.572 232.087 225.526 231.928C225.479 231.763 225.384 231.61 225.239 231.469L222.977 229.271L223.77 228.456L225.985 230.608C226.274 230.889 226.469 231.202 226.569 231.547C226.669 231.892 226.672 232.24 226.579 232.591C226.485 232.942 226.293 233.267 226.002 233.566ZM227.746 231.658L225.505 226.67L226.218 225.937L231.253 228.049L230.42 228.906L226.331 227.061L226.617 226.766L228.564 230.817L227.746 231.658ZM227.883 230.195L227.222 229.553L229.154 227.565L229.814 228.207L227.883 230.195ZM230.828 225.48L230.229 224.898L230.977 224.129C231.134 223.967 231.213 223.803 231.214 223.637C231.218 223.467 231.15 223.314 231.009 223.176C230.878 223.049 230.728 222.987 230.558 222.989C230.388 222.992 230.225 223.074 230.068 223.236L229.315 224.01L228.685 223.398L229.528 222.531C229.762 222.29 230.014 222.123 230.285 222.031C230.551 221.935 230.816 221.915 231.078 221.969C231.34 222.023 231.576 222.152 231.786 222.356C232 222.563 232.137 222.797 232.199 223.058C232.257 223.315 232.24 223.58 232.149 223.853C232.058 224.125 231.89 224.387 231.646 224.639L230.828 225.48ZM231.728 227.56L228.083 224.018L228.871 223.207L232.516 226.75L231.728 227.56ZM233.655 225.577L230.982 225.188L231.503 224.249L234.588 224.617L233.655 225.577ZM235.033 224.159L231.388 220.617L232.176 219.806L235.821 223.348L235.033 224.159ZM238.086 221.132C237.795 221.431 237.473 221.635 237.122 221.741C236.774 221.845 236.424 221.853 236.073 221.767C235.722 221.673 235.402 221.486 235.113 221.205L232.903 219.057L233.696 218.242L235.952 220.434C236.097 220.575 236.253 220.666 236.42 220.708C236.587 220.749 236.751 220.745 236.913 220.696C237.076 220.639 237.22 220.545 237.347 220.414C237.481 220.277 237.571 220.129 237.616 219.973C237.658 219.812 237.655 219.653 237.609 219.494C237.563 219.328 237.467 219.175 237.322 219.035L235.061 216.837L235.854 216.021L238.069 218.174C238.358 218.455 238.553 218.768 238.652 219.113C238.752 219.457 238.756 219.805 238.662 220.156C238.569 220.507 238.377 220.832 238.086 221.132ZM241.309 217.815C241.018 218.115 240.719 218.326 240.412 218.449C240.104 218.566 239.764 218.616 239.39 218.601L239.381 217.568C239.629 217.581 239.859 217.554 240.072 217.487C240.285 217.412 240.483 217.28 240.667 217.091C240.834 216.919 240.932 216.756 240.96 216.603C240.992 216.447 240.953 216.315 240.843 216.208C240.743 216.111 240.632 216.063 240.51 216.065C240.388 216.067 240.254 216.097 240.109 216.157C239.967 216.214 239.815 216.284 239.654 216.367C239.495 216.448 239.332 216.523 239.163 216.593C238.991 216.66 238.815 216.707 238.635 216.733C238.456 216.753 238.276 216.735 238.095 216.68C237.911 216.621 237.726 216.502 237.54 216.321C237.316 216.104 237.175 215.863 237.117 215.599C237.062 215.332 237.087 215.062 237.192 214.789C237.293 214.512 237.466 214.248 237.71 213.997C237.958 213.742 238.228 213.553 238.522 213.43C238.819 213.304 239.112 213.247 239.4 213.26L239.41 214.293C239.189 214.293 238.996 214.323 238.831 214.383C238.669 214.44 238.519 214.539 238.382 214.68C238.245 214.821 238.164 214.96 238.138 215.096C238.11 215.229 238.145 215.343 238.245 215.44C238.338 215.531 238.444 215.573 238.563 215.568C238.678 215.56 238.805 215.526 238.943 215.466C239.085 215.403 239.235 215.331 239.393 215.251C239.555 215.167 239.722 215.092 239.894 215.025C240.066 214.958 240.244 214.916 240.427 214.9C240.61 214.877 240.797 214.898 240.988 214.963C241.175 215.025 241.364 215.148 241.553 215.332C241.901 215.67 242.054 216.06 242.013 216.502C241.968 216.94 241.734 217.378 241.309 217.815Z" fill="#3C2400"/>
<path d="M284.294 191.923L284.078 191.071L285.138 190.802C285.273 190.767 285.389 190.708 285.487 190.624C285.584 190.54 285.652 190.436 285.69 190.312C285.728 190.189 285.727 190.05 285.688 189.897C285.65 189.748 285.585 189.628 285.493 189.538C285.4 189.447 285.291 189.388 285.165 189.361C285.04 189.333 284.909 189.337 284.774 189.371L283.714 189.641L283.497 188.79L284.718 188.479C285.03 188.4 285.327 188.391 285.611 188.453C285.894 188.514 286.138 188.646 286.342 188.846C286.55 189.041 286.695 189.299 286.777 189.62C286.858 189.941 286.855 190.239 286.766 190.514C286.681 190.783 286.53 191.015 286.312 191.209C286.092 191.398 285.827 191.533 285.515 191.612L284.294 191.923ZM283.913 193.929L282.66 189.003L283.755 188.724L285.008 193.65L283.913 193.929ZM288.386 192.791L287.133 187.865L288.229 187.586L289.482 192.513L288.386 192.791ZM291.974 191.961C291.569 192.063 291.203 192.087 290.877 192.031C290.554 191.97 290.238 191.835 289.927 191.627L290.46 190.741C290.664 190.882 290.875 190.98 291.091 191.033C291.312 191.081 291.55 191.073 291.806 191.008C292.038 190.949 292.207 190.861 292.311 190.745C292.42 190.629 292.455 190.496 292.418 190.347C292.383 190.212 292.314 190.113 292.208 190.051C292.103 189.988 291.973 189.945 291.819 189.92C291.668 189.894 291.502 189.874 291.321 189.861C291.144 189.846 290.965 189.825 290.784 189.797C290.602 189.763 290.428 189.711 290.261 189.64C290.098 189.562 289.954 189.453 289.829 189.311C289.702 189.165 289.607 188.967 289.543 188.715C289.467 188.413 289.472 188.134 289.561 187.879C289.654 187.622 289.817 187.405 290.049 187.227C290.28 187.045 290.565 186.91 290.905 186.824C291.249 186.736 291.578 186.717 291.893 186.766C292.212 186.813 292.491 186.918 292.731 187.08L292.198 187.966C292.01 187.85 291.83 187.775 291.658 187.739C291.49 187.703 291.311 187.709 291.12 187.757C290.929 187.806 290.787 187.881 290.695 187.984C290.601 188.082 290.571 188.199 290.605 188.334C290.637 188.459 290.705 188.551 290.809 188.609C290.912 188.662 291.038 188.699 291.187 188.721C291.34 188.741 291.506 188.759 291.683 188.773C291.865 188.786 292.046 188.809 292.228 188.842C292.41 188.875 292.583 188.933 292.747 189.015C292.915 189.091 293.064 189.207 293.192 189.362C293.32 189.513 293.416 189.716 293.481 189.972C293.601 190.442 293.527 190.855 293.261 191.21C292.993 191.56 292.564 191.81 291.974 191.961ZM297.08 190.662C296.713 190.755 296.355 190.779 296.007 190.734C295.662 190.683 295.341 190.572 295.045 190.399C294.753 190.226 294.503 190.002 294.295 189.728C294.085 189.45 293.935 189.131 293.844 188.773C293.753 188.415 293.733 188.066 293.785 187.726C293.836 187.381 293.949 187.065 294.124 186.778C294.298 186.491 294.526 186.245 294.805 186.04C295.089 185.829 295.414 185.677 295.781 185.584C296.172 185.484 296.535 185.459 296.869 185.508C297.208 185.555 297.519 185.659 297.803 185.82L297.258 186.746C297.093 186.639 296.907 186.57 296.7 186.539C296.499 186.506 296.277 186.52 296.035 186.581C295.821 186.636 295.633 186.723 295.47 186.844C295.311 186.959 295.184 187.1 295.088 187.268C294.997 187.435 294.938 187.623 294.912 187.833C294.891 188.041 294.909 188.259 294.967 188.487C295.026 188.72 295.115 188.923 295.233 189.096C295.356 189.268 295.498 189.405 295.658 189.508C295.822 189.61 296.002 189.675 296.198 189.705C296.398 189.733 296.606 189.72 296.82 189.666C297.071 189.602 297.279 189.507 297.445 189.38C297.611 189.254 297.744 189.104 297.843 188.93L298.771 189.481C298.59 189.76 298.361 190.002 298.086 190.205C297.816 190.408 297.48 190.56 297.08 190.662ZM299.674 189.92L298.421 184.994L299.516 184.715L300.769 189.642L299.674 189.92ZM300.511 189.707L300.27 188.758L302.97 188.072L303.212 189.021L300.511 189.707ZM299.988 187.649L299.755 186.735L302.211 186.11L302.444 187.024L299.988 187.649ZM299.498 185.723L299.258 184.781L301.924 184.103L302.163 185.045L299.498 185.723ZM305.482 188.525C305.078 188.628 304.712 188.651 304.386 188.595C304.063 188.534 303.747 188.399 303.436 188.191L303.969 187.305C304.173 187.446 304.384 187.544 304.6 187.598C304.821 187.645 305.059 187.637 305.314 187.572C305.547 187.513 305.715 187.425 305.82 187.31C305.929 187.193 305.964 187.06 305.926 186.911C305.892 186.776 305.822 186.677 305.717 186.615C305.612 186.553 305.482 186.509 305.327 186.484C305.177 186.458 305.011 186.438 304.83 186.425C304.653 186.41 304.474 186.389 304.293 186.361C304.111 186.328 303.937 186.275 303.77 186.204C303.607 186.127 303.463 186.017 303.338 185.876C303.211 185.729 303.116 185.531 303.052 185.28C302.976 184.977 302.981 184.698 303.07 184.443C303.163 184.186 303.326 183.969 303.558 183.791C303.789 183.609 304.074 183.474 304.414 183.388C304.758 183.3 305.087 183.281 305.402 183.33C305.721 183.377 306 183.482 306.24 183.644L305.707 184.53C305.519 184.414 305.339 184.339 305.167 184.303C304.999 184.267 304.82 184.273 304.629 184.321C304.438 184.37 304.296 184.446 304.204 184.548C304.11 184.647 304.08 184.763 304.114 184.898C304.146 185.024 304.214 185.115 304.318 185.173C304.421 185.226 304.547 185.264 304.696 185.285C304.849 185.305 305.015 185.323 305.192 185.337C305.373 185.35 305.555 185.374 305.737 185.407C305.919 185.44 306.092 185.497 306.256 185.579C306.424 185.655 306.573 185.771 306.701 185.926C306.829 186.077 306.925 186.281 306.99 186.536C307.11 187.006 307.036 187.419 306.77 187.774C306.502 188.124 306.073 188.374 305.482 188.525Z" fill="#3C2400"/>
<path d="M197.154 392.779C197.264 393.181 197.294 393.546 197.244 393.874C197.188 394.197 197.058 394.516 196.856 394.83L195.961 394.313C196.098 394.107 196.192 393.894 196.242 393.677C196.286 393.456 196.274 393.218 196.204 392.963C196.141 392.732 196.051 392.565 195.933 392.463C195.814 392.356 195.681 392.322 195.533 392.363C195.398 392.4 195.301 392.471 195.24 392.577C195.18 392.683 195.138 392.814 195.116 392.969C195.093 393.12 195.076 393.286 195.066 393.468C195.054 393.645 195.036 393.824 195.011 394.006C194.981 394.188 194.932 394.363 194.863 394.531C194.789 394.696 194.682 394.842 194.543 394.969C194.399 395.098 194.202 395.197 193.952 395.265C193.651 395.347 193.372 395.346 193.115 395.262C192.857 395.173 192.637 395.014 192.455 394.785C192.268 394.558 192.129 394.275 192.037 393.937C191.943 393.594 191.918 393.265 191.961 392.95C192.003 392.63 192.103 392.349 192.261 392.107L193.156 392.624C193.043 392.814 192.971 392.995 192.939 393.168C192.905 393.336 192.914 393.516 192.966 393.705C193.018 393.895 193.096 394.036 193.2 394.127C193.3 394.219 193.417 394.247 193.552 394.21C193.677 394.176 193.767 394.106 193.823 394.001C193.874 393.898 193.909 393.771 193.928 393.622C193.946 393.468 193.961 393.302 193.972 393.125C193.982 392.943 194.002 392.761 194.032 392.579C194.062 392.396 194.116 392.222 194.195 392.056C194.268 391.887 194.382 391.737 194.535 391.605C194.683 391.475 194.885 391.375 195.14 391.306C195.607 391.178 196.021 391.244 196.381 391.505C196.735 391.766 196.993 392.191 197.154 392.779ZM196.475 390.594L191.041 389.988L190.771 389.002L195.15 385.739L195.465 386.892L191.796 389.476L191.688 389.08L196.166 389.462L196.475 390.594ZM195.285 389.733L194.396 389.975L193.666 387.301L194.555 387.058L195.285 389.733ZM194.487 383.012C194.585 383.369 194.612 383.722 194.568 384.072C194.523 384.418 194.419 384.737 194.255 385.031C194.087 385.326 193.868 385.582 193.599 385.8C193.324 386.014 193.008 386.17 192.652 386.267C192.295 386.364 191.946 386.388 191.604 386.337C191.261 386.286 190.945 386.173 190.653 385.999C190.356 385.822 190.101 385.59 189.889 385.305C189.672 385.021 189.514 384.696 189.414 384.33C189.299 383.909 189.271 383.506 189.33 383.121C189.388 382.732 189.52 382.388 189.727 382.087L190.673 382.628C190.512 382.841 190.41 383.068 190.366 383.309C190.323 383.549 190.338 383.804 190.411 384.073C190.489 384.36 190.624 384.599 190.816 384.791C191.003 384.983 191.23 385.113 191.497 385.179C191.758 385.242 192.041 385.232 192.347 385.149C192.652 385.065 192.904 384.93 193.101 384.741C193.299 384.553 193.432 384.333 193.503 384.079C193.573 383.826 193.569 383.559 193.492 383.276C193.414 382.989 193.294 382.761 193.133 382.591C192.967 382.417 192.767 382.305 192.534 382.254C192.295 382.2 192.028 382.213 191.731 382.294L192.02 381.439L192.583 383.636L191.659 383.889L190.956 381.312L191.116 381.268C191.704 381.108 192.228 381.079 192.689 381.182C193.144 381.281 193.525 381.491 193.831 381.81C194.136 382.125 194.355 382.526 194.487 383.012ZM193.516 379.753L188.612 381.092L188.314 380.002L193.218 378.663L193.516 379.753ZM192.594 376.378L187.76 377.698L187.462 376.607L192.296 375.287L192.594 376.378ZM189.061 378.992L188.11 379.252L186.974 375.091L187.925 374.831L189.061 378.992ZM191.391 371.972L186.557 373.292L186.259 372.202L191.094 370.882L191.391 371.972ZM187.858 374.586L186.907 374.846L185.771 370.686L186.723 370.426L187.858 374.586ZM190.736 369.571L185.301 368.965L185.032 367.979L189.41 364.716L189.725 365.869L186.057 368.453L185.949 368.057L190.427 368.439L190.736 369.571ZM189.545 368.709L188.656 368.952L187.926 366.278L188.815 366.035L189.545 368.709ZM186.982 363.776L186.176 363.996L185.894 362.961C185.834 362.744 185.733 362.592 185.591 362.507C185.447 362.417 185.28 362.398 185.09 362.449C184.914 362.497 184.784 362.595 184.7 362.743C184.615 362.89 184.603 363.072 184.662 363.29L184.947 364.332L184.099 364.563L183.781 363.396C183.692 363.072 183.677 362.77 183.735 362.491C183.789 362.213 183.905 361.974 184.085 361.776C184.265 361.578 184.496 361.44 184.778 361.363C185.065 361.284 185.337 361.285 185.592 361.364C185.843 361.445 186.063 361.594 186.251 361.811C186.44 362.029 186.581 362.306 186.673 362.644L186.982 363.776ZM189.231 364.058L184.327 365.397L184.029 364.306L188.933 362.968L189.231 364.058ZM188.503 361.391L186.808 363.495L186.264 362.569L188.15 360.099L188.503 361.391ZM187.982 359.483L183.078 360.822L182.78 359.731L187.684 358.393L187.982 359.483ZM186.926 355.316C187.036 355.719 187.048 356.099 186.961 356.456C186.873 356.808 186.703 357.113 186.45 357.371C186.191 357.626 185.867 357.807 185.478 357.913L182.505 358.724L182.206 357.627L185.241 356.798C185.436 356.745 185.593 356.657 185.714 356.535C185.835 356.412 185.915 356.268 185.955 356.103C185.988 355.935 185.981 355.763 185.933 355.587C185.882 355.402 185.801 355.25 185.689 355.131C185.572 355.014 185.434 354.934 185.273 354.894C185.107 354.85 184.927 354.854 184.732 354.907L181.69 355.738L181.39 354.64L184.37 353.827C184.759 353.721 185.128 353.712 185.475 353.801C185.823 353.89 186.124 354.064 186.379 354.323C186.634 354.582 186.816 354.913 186.926 355.316ZM185.708 350.854C185.818 351.257 185.848 351.622 185.798 351.949C185.742 352.273 185.613 352.592 185.41 352.906L184.515 352.389C184.653 352.182 184.746 351.97 184.797 351.752C184.841 351.531 184.828 351.293 184.758 351.039C184.695 350.807 184.605 350.64 184.487 350.538C184.369 350.431 184.235 350.398 184.087 350.438C183.953 350.475 183.855 350.546 183.795 350.653C183.734 350.759 183.693 350.889 183.67 351.045C183.647 351.195 183.63 351.362 183.62 351.544C183.609 351.721 183.59 351.9 183.565 352.081C183.535 352.263 183.486 352.439 183.418 352.606C183.343 352.771 183.236 352.917 183.097 353.045C182.953 353.174 182.756 353.272 182.506 353.341C182.205 353.423 181.926 353.422 181.669 353.338C181.411 353.249 181.191 353.09 181.009 352.861C180.823 352.633 180.683 352.35 180.591 352.012C180.497 351.67 180.472 351.341 180.516 351.025C180.558 350.705 180.657 350.424 180.815 350.182L181.71 350.699C181.598 350.889 181.525 351.071 181.493 351.244C181.459 351.412 181.469 351.591 181.52 351.781C181.572 351.971 181.65 352.111 181.755 352.202C181.855 352.294 181.972 352.322 182.106 352.285C182.231 352.251 182.321 352.182 182.377 352.077C182.429 351.973 182.464 351.847 182.483 351.697C182.5 351.543 182.515 351.378 182.526 351.2C182.536 351.019 182.556 350.836 182.586 350.654C182.616 350.472 182.67 350.298 182.749 350.132C182.823 349.963 182.936 349.812 183.089 349.681C183.238 349.551 183.439 349.451 183.694 349.381C184.162 349.254 184.575 349.32 184.935 349.58C185.29 349.841 185.548 350.266 185.708 350.854Z" fill="#3C2400"/>
<path d="M296.374 313V303.256H298.572V313H296.374ZM293.28 305.034V303.116H301.666V305.034H293.28ZM301.215 313L305.135 303.116H307.123L311.001 313H308.677L305.709 304.796H306.507L303.497 313H301.215ZM303.441 311.208V309.416H308.831V311.208H303.441ZM314.006 309.402V307.694H316.134C316.405 307.694 316.652 307.638 316.876 307.526C317.1 307.414 317.278 307.251 317.408 307.036C317.539 306.821 317.604 306.56 317.604 306.252C317.604 305.953 317.539 305.697 317.408 305.482C317.278 305.267 317.1 305.104 316.876 304.992C316.652 304.88 316.405 304.824 316.134 304.824H314.006V303.116H316.456C317.082 303.116 317.646 303.242 318.15 303.494C318.654 303.746 319.051 304.11 319.34 304.586C319.639 305.053 319.788 305.608 319.788 306.252C319.788 306.896 319.639 307.456 319.34 307.932C319.051 308.399 318.654 308.763 318.15 309.024C317.646 309.276 317.082 309.402 316.456 309.402H314.006ZM312.326 313V303.116H314.524V313H312.326ZM322.959 313L326.879 303.116H328.867L332.745 313H330.421L327.453 304.796H328.251L325.241 313H322.959ZM325.185 311.208V309.416H330.575V311.208H325.185ZM339.698 313.154C338.886 313.154 338.186 313.023 337.598 312.762C337.019 312.491 336.487 312.085 336.002 311.544L337.43 310.13C337.747 310.494 338.097 310.779 338.48 310.984C338.872 311.18 339.324 311.278 339.838 311.278C340.304 311.278 340.664 311.194 340.916 311.026C341.177 310.858 341.308 310.625 341.308 310.326C341.308 310.055 341.224 309.836 341.056 309.668C340.888 309.5 340.664 309.355 340.384 309.234C340.113 309.113 339.81 308.996 339.474 308.884C339.147 308.772 338.82 308.646 338.494 308.506C338.167 308.357 337.864 308.175 337.584 307.96C337.313 307.736 337.094 307.461 336.926 307.134C336.758 306.798 336.674 306.378 336.674 305.874C336.674 305.267 336.818 304.745 337.108 304.306C337.406 303.867 337.817 303.536 338.34 303.312C338.862 303.079 339.464 302.962 340.146 302.962C340.836 302.962 341.466 303.083 342.036 303.326C342.614 303.569 343.09 303.9 343.464 304.32L342.036 305.734C341.737 305.426 341.434 305.197 341.126 305.048C340.827 304.899 340.486 304.824 340.104 304.824C339.721 304.824 339.418 304.899 339.194 305.048C338.97 305.188 338.858 305.393 338.858 305.664C338.858 305.916 338.942 306.121 339.11 306.28C339.278 306.429 339.497 306.56 339.768 306.672C340.048 306.784 340.351 306.896 340.678 307.008C341.014 307.12 341.345 307.251 341.672 307.4C341.998 307.549 342.297 307.741 342.568 307.974C342.848 308.198 343.072 308.487 343.24 308.842C343.408 309.187 343.492 309.617 343.492 310.13C343.492 311.073 343.156 311.815 342.484 312.356C341.812 312.888 340.883 313.154 339.698 313.154ZM345.172 313V303.116H347.37V313H345.172ZM354.215 313.154C353.497 313.154 352.82 313.023 352.185 312.762C351.56 312.501 351.014 312.141 350.547 311.684C350.081 311.217 349.712 310.676 349.441 310.06C349.18 309.435 349.049 308.763 349.049 308.044C349.049 307.325 349.185 306.658 349.455 306.042C349.726 305.426 350.099 304.889 350.575 304.432C351.061 303.965 351.625 303.606 352.269 303.354C352.913 303.093 353.604 302.962 354.341 302.962C355.191 302.962 355.961 303.116 356.651 303.424C357.351 303.732 357.93 304.157 358.387 304.698L356.889 306.196C356.572 305.785 356.199 305.477 355.769 305.272C355.34 305.067 354.855 304.964 354.313 304.964C353.735 304.964 353.217 305.095 352.759 305.356C352.302 305.608 351.943 305.967 351.681 306.434C351.429 306.891 351.303 307.428 351.303 308.044C351.303 308.66 351.429 309.201 351.681 309.668C351.933 310.135 352.279 310.499 352.717 310.76C353.156 311.021 353.66 311.152 354.229 311.152C354.808 311.152 355.298 311.045 355.699 310.83C356.11 310.606 356.423 310.289 356.637 309.878C356.861 309.458 356.973 308.949 356.973 308.352L358.429 309.332L354.019 309.262V307.4H359.213V307.722C359.213 308.907 358.999 309.906 358.569 310.718C358.149 311.521 357.561 312.127 356.805 312.538C356.059 312.949 355.195 313.154 354.215 313.154ZM360.826 313V303.116H362.366L363.024 305.09V313H360.826ZM367.644 313L361.82 305.538L362.366 303.116L368.19 310.578L367.644 313ZM367.644 313L367.056 311.026V303.116H369.254V313H367.644Z" fill="#3C2400"/>
<path d="M335.333 340.001C335.333 336.319 332.349 333.334 328.667 333.334C324.985 333.334 322 336.319 322 340.001" stroke="#3C2400" stroke-width="2" stroke-linejoin="round"/>
<path d="M335.182 353.097V350.376C335.182 350.127 335.141 349.889 335.065 349.667M339.425 353.88V351.792C339.425 351.544 339.384 351.306 339.308 351.084M330.94 348.251V351.68M330.94 348.251H333.124C334.02 348.251 334.783 348.842 335.065 349.667M330.94 348.251V340.571C330.94 339.335 329.99 338.334 328.819 338.334C327.647 338.334 326.698 339.335 326.698 340.571V355.427L324.406 353.003C323.401 351.94 321.745 352.037 320.857 353.211C320.177 354.11 320.158 355.381 320.811 356.301L326.698 366.667H339.55C341.824 366.667 343.667 364.765 343.667 362.417V353.209C343.667 352.035 342.746 351.084 341.608 351.084H339.308M335.065 349.667H337.366C338.262 349.667 339.025 350.259 339.308 351.084" stroke="#3C2400" stroke-width="2"/>
<defs>
<radialGradient id="paint0_radial_262_138" cx="0" cy="0" r="1" gradientUnits="userSpaceOnUse" gradientTransform="translate(332.28 333) rotate(45) scale(234.958 234.958)">
<stop stop-color="#FCEEAA"/>
<stop offset="1" stop-color="#FFFBEB"/>
</radialGradient>
<radialGradient id="paint1_radial_262_138" cx="0" cy="0" r="1" gradientUnits="userSpaceOnUse" gradientTransform="translate(332.388 333) rotate(45) scale(160.788 160.787)">
<stop stop-color="#FEDA44"/>
<stop offset="1" stop-color="#FCF0B4"/>
</radialGradient>
</defs>
</svg>
